  0
SECTION
  2
HEADER
  9
$ANGBASE
  50
0.0
  9
$ANGDIR
  70
1
  9
$MEASUREMENT
  70
0
  0
ENDSEC
  0
SECTION
  2
TABLES
  0
TABLE
  2
LTYPE
  70
4
  0
LTYPE
  5
40F
  2
CONTINUOUS
  70
0
  3
Solid line
  72
65
  73
0
  40
0.0
  0
LTYPE
  5
410
  2
DASHDOT
 70
0
  3
Dash Dot ____ _ ____ _
 72
65
 73
4
 40
2.0
 49
1.25
 49
-0.25
 49
0.25
 49
-0.25
  0
LTYPE
  5
411
  2
DASHED
 70
0
  3
Dashed __ __ __ __ __
 72
65
 73
2
 40
0.75
 49
0.5
 49
-0.25
  0
LTYPE
  5
43B
  2
DOTTED
 70
0
  3
Dotted .  .  .  .
 72
65
 73
2
 40
0.2
 49
0.0
 49
-0.2
  0
ENDTAB
  0
TABLE
  2
STYLE
  70
4
  0
STYLE
  2
KICAD
  70
0
  40
0
  41
1
  42
1
  50
0
  71
0
  3
isocp.shx
  0
STYLE
  2
KICADB
  70
0
  40
0
  41
1
  42
1
  50
0
  71
0
  3
isocp.shx
  0
STYLE
  2
KICADI
  70
0
  40
0
  41
1
  42
1
  50
15
  71
0
  3
isocp.shx
  0
STYLE
  2
KICADBI
  70
0
  40
0
  41
1
  42
1
  50
15
  71
0
  3
isocp.shx
  0
ENDTAB
  0
TABLE
  2
LAYER
  70
1
  0
LAYER
  2
BLACK
  70
0
  62
7
  6
CONTINUOUS
  0
ENDTAB
  0
ENDSEC
  0
SECTION
  2
ENTITIES
0
LINE
8
BLACK
6
CONTINUOUS
10
1.1204553937007873
20
-4.144759960629921
11
1.1209880708661417
21
-4.1452926377952757
0
LINE
8
BLACK
6
CONTINUOUS
10
1.1209880708661417
20
-4.1452926377952757
11
1.1210629921259843
21
-4.1456692913385824
0
LINE
8
BLACK
6
CONTINUOUS
10
1.1210629921259843
20
-4.1456692913385824
11
1.1210629921259843
21
-4.5944881889763778
0
LINE
8
BLACK
6
CONTINUOUS
10
1.1210629921259843
20
-4.5944881889763778
11
1.1209880708661417
21
-4.5948648425196845
0
LINE
8
BLACK
6
CONTINUOUS
10
1.1209880708661417
20
-4.5948648425196845
11
1.1204553937007873
21
-4.5953975196850392
0
LINE
8
BLACK
6
CONTINUOUS
10
1.1204553937007873
20
-4.5953975196850392
11
1.1200787401574803
21
-4.5954724409448815
0
LINE
8
BLACK
6
CONTINUOUS
10
1.1200787401574803
20
-4.5954724409448815
11
0.7854330708661417
21
-4.5954724409448815
0
LINE
8
BLACK
6
CONTINUOUS
10
0.7854330708661417
20
-4.5954724409448815
11
0.7850564173228346
21
-4.5953975196850392
0
LINE
8
BLACK
6
CONTINUOUS
10
0.7850564173228346
20
-4.5953975196850392
11
0.7845237401574803
21
-4.5948648425196845
0
LINE
8
BLACK
6
CONTINUOUS
10
0.7845237401574803
20
-4.5948648425196845
11
0.7844488188976377
21
-4.5944881889763778
0
LINE
8
BLACK
6
CONTINUOUS
10
0.7844488188976377
20
-4.5944881889763778
11
0.7844488188976377
21
-4.1456692913385824
0
LINE
8
BLACK
6
CONTINUOUS
10
0.7844488188976377
20
-4.1456692913385824
11
0.7845237401574803
21
-4.1452926377952757
0
LINE
8
BLACK
6
CONTINUOUS
10
0.7845237401574803
20
-4.1452926377952757
11
0.7850564173228346
21
-4.144759960629921
0
LINE
8
BLACK
6
CONTINUOUS
10
0.7850564173228346
20
-4.144759960629921
11
0.7854330708661417
21
-4.1446850393700787
0
LINE
8
BLACK
6
CONTINUOUS
10
0.7854330708661417
20
-4.1446850393700787
11
1.1200787401574803
21
-4.1446850393700787
0
LINE
8
BLACK
6
CONTINUOUS
10
1.1200787401574803
20
-4.1446850393700787
11
1.1204553937007873
21
-4.144759960629921
0
LINE
8
BLACK
6
CONTINUOUS
10
0.7864173228346456
20
-4.1466535433070861
11
0.7864173228346456
21
-4.5935039370078741
0
LINE
8
BLACK
6
CONTINUOUS
10
0.7864173228346456
20
-4.5935039370078741
11
1.1190944881889764
21
-4.5935039370078741
0
LINE
8
BLACK
6
CONTINUOUS
10
1.1190944881889764
20
-4.5935039370078741
11
1.1190944881889764
21
-4.1466535433070861
0
LINE
8
BLACK
6
CONTINUOUS
10
1.1190944881889764
20
-4.1466535433070861
11
0.7864173228346456
21
-4.1466535433070861
0
LINE
8
BLACK
6
CONTINUOUS
10
5.9802191732283463
20
-2.3405394881889765
11
5.9807518503937009
21
-2.3410721653543307
0
LINE
8
BLACK
6
CONTINUOUS
10
5.9807518503937009
20
-2.3410721653543307
11
5.9808267716535433
21
-2.3414488188976379
0
LINE
8
BLACK
6
CONTINUOUS
10
5.9808267716535433
20
-2.3414488188976379
11
5.9808267716535433
21
-2.4831811023622046
0
LINE
8
BLACK
6
CONTINUOUS
10
5.9808267716535433
20
-2.4831811023622046
11
5.9807518503937009
21
-2.4835577559055118
0
LINE
8
BLACK
6
CONTINUOUS
10
5.9807518503937009
20
-2.4835577559055118
11
5.9802191732283463
21
-2.484090433070866
0
LINE
8
BLACK
6
CONTINUOUS
10
5.9802191732283463
20
-2.484090433070866
11
5.9798425196850395
21
-2.4841653543307087
0
LINE
8
BLACK
6
CONTINUOUS
10
5.9798425196850395
20
-2.4841653543307087
11
5.5388976377952757
21
-2.4841653543307087
0
LINE
8
BLACK
6
CONTINUOUS
10
5.5388976377952757
20
-2.4841653543307087
11
5.538520984251968
21
-2.484090433070866
0
LINE
8
BLACK
6
CONTINUOUS
10
5.538520984251968
20
-2.484090433070866
11
5.5379883070866143
21
-2.4835577559055118
0
LINE
8
BLACK
6
CONTINUOUS
10
5.5379883070866143
20
-2.4835577559055118
11
5.537913385826772
21
-2.4831811023622046
0
LINE
8
BLACK
6
CONTINUOUS
10
5.537913385826772
20
-2.4831811023622046
11
5.537913385826772
21
-2.3414488188976379
0
LINE
8
BLACK
6
CONTINUOUS
10
5.537913385826772
20
-2.3414488188976379
11
5.5379883070866143
21
-2.3410721653543307
0
LINE
8
BLACK
6
CONTINUOUS
10
5.5379883070866143
20
-2.3410721653543307
11
5.538520984251968
21
-2.3405394881889765
0
LINE
8
BLACK
6
CONTINUOUS
10
5.538520984251968
20
-2.3405394881889765
11
5.5388976377952757
21
-2.3404645669291337
0
LINE
8
BLACK
6
CONTINUOUS
10
5.5388976377952757
20
-2.3404645669291337
11
5.9798425196850395
21
-2.3404645669291337
0
LINE
8
BLACK
6
CONTINUOUS
10
5.9798425196850395
20
-2.3404645669291337
11
5.9802191732283463
21
-2.3405394881889765
0
LINE
8
BLACK
6
CONTINUOUS
10
5.5398818897637794
20
-2.3424330708661416
11
5.5398818897637794
21
-2.4821968503937009
0
LINE
8
BLACK
6
CONTINUOUS
10
5.5398818897637794
20
-2.4821968503937009
11
5.9788582677165349
21
-2.4821968503937009
0
LINE
8
BLACK
6
CONTINUOUS
10
5.9788582677165349
20
-2.4821968503937009
11
5.9788582677165349
21
-2.3424330708661416
0
LINE
8
BLACK
6
CONTINUOUS
10
5.9788582677165349
20
-2.3424330708661416
11
5.5398818897637794
21
-2.3424330708661416
0
LINE
8
BLACK
6
CONTINUOUS
10
2.7105341338582676
20
-2.2696733464566927
11
2.7110668110236218
21
-2.2702060236220474
0
LINE
8
BLACK
6
CONTINUOUS
10
2.7110668110236218
20
-2.2702060236220474
11
2.7111417322834646
21
-2.2705826771653541
0
LINE
8
BLACK
6
CONTINUOUS
10
2.7111417322834646
20
-2.2705826771653541
11
2.7111417322834646
21
-2.4123149606299212
0
LINE
8
BLACK
6
CONTINUOUS
10
2.7111417322834646
20
-2.4123149606299212
11
2.7110668110236218
21
-2.4126916141732284
0
LINE
8
BLACK
6
CONTINUOUS
10
2.7110668110236218
20
-2.4126916141732284
11
2.7105341338582676
21
-2.4132242913385826
0
LINE
8
BLACK
6
CONTINUOUS
10
2.7105341338582676
20
-2.4132242913385826
11
2.7101574803149604
21
-2.4132992125984249
0
LINE
8
BLACK
6
CONTINUOUS
10
2.7101574803149604
20
-2.4132992125984249
11
2.269212598425197
21
-2.4132992125984249
0
LINE
8
BLACK
6
CONTINUOUS
10
2.269212598425197
20
-2.4132992125984249
11
2.2688359448818898
21
-2.4132242913385826
0
LINE
8
BLACK
6
CONTINUOUS
10
2.2688359448818898
20
-2.4132242913385826
11
2.2683032677165356
21
-2.4126916141732284
0
LINE
8
BLACK
6
CONTINUOUS
10
2.2683032677165356
20
-2.4126916141732284
11
2.2682283464566928
21
-2.4123149606299212
0
LINE
8
BLACK
6
CONTINUOUS
10
2.2682283464566928
20
-2.4123149606299212
11
2.2682283464566928
21
-2.2705826771653541
0
LINE
8
BLACK
6
CONTINUOUS
10
2.2682283464566928
20
-2.2705826771653541
11
2.2683032677165356
21
-2.2702060236220474
0
LINE
8
BLACK
6
CONTINUOUS
10
2.2683032677165356
20
-2.2702060236220474
11
2.2688359448818898
21
-2.2696733464566927
0
LINE
8
BLACK
6
CONTINUOUS
10
2.2688359448818898
20
-2.2696733464566927
11
2.269212598425197
21
-2.2695984251968504
0
LINE
8
BLACK
6
CONTINUOUS
10
2.269212598425197
20
-2.2695984251968504
11
2.7101574803149604
21
-2.2695984251968504
0
LINE
8
BLACK
6
CONTINUOUS
10
2.7101574803149604
20
-2.2695984251968504
11
2.7105341338582676
21
-2.2696733464566927
0
LINE
8
BLACK
6
CONTINUOUS
10
2.2701968503937007
20
-2.2715669291338583
11
2.2701968503937007
21
-2.4113307086614171
0
LINE
8
BLACK
6
CONTINUOUS
10
2.2701968503937007
20
-2.4113307086614171
11
2.7091732283464567
21
-2.4113307086614171
0
LINE
8
BLACK
6
CONTINUOUS
10
2.7091732283464567
20
-2.4113307086614171
11
2.7091732283464567
21
-2.2715669291338583
0
LINE
8
BLACK
6
CONTINUOUS
10
2.7091732283464567
20
-2.2715669291338583
11
2.2701968503937007
21
-2.2715669291338583
0
LINE
8
BLACK
6
CONTINUOUS
10
5.2641561811023623
20
-1.2077520866141731
11
5.264688858267716
21
-1.2082847637795275
0
LINE
8
BLACK
6
CONTINUOUS
10
5.264688858267716
20
-1.2082847637795275
11
5.2647637795275593
21
-1.2086614173228347
0
LINE
8
BLACK
6
CONTINUOUS
10
5.2647637795275593
20
-1.2086614173228347
11
5.2647637795275593
21
-1.5433070866141732
0
LINE
8
BLACK
6
CONTINUOUS
10
5.2647637795275593
20
-1.5433070866141732
11
5.264688858267716
21
-1.5436837401574803
0
LINE
8
BLACK
6
CONTINUOUS
10
5.264688858267716
20
-1.5436837401574803
11
5.2641561811023623
21
-1.5442164173228345
0
LINE
8
BLACK
6
CONTINUOUS
10
5.2641561811023623
20
-1.5442164173228345
11
5.2637795275590546
21
-1.5442913385826771
0
LINE
8
BLACK
6
CONTINUOUS
10
5.2637795275590546
20
-1.5442913385826771
11
4.7362204724409445
21
-1.5442913385826771
0
LINE
8
BLACK
6
CONTINUOUS
10
4.7362204724409445
20
-1.5442913385826771
11
4.7358438188976377
21
-1.5442164173228345
0
LINE
8
BLACK
6
CONTINUOUS
10
4.7358438188976377
20
-1.5442164173228345
11
4.7353111417322831
21
-1.5436837401574803
0
LINE
8
BLACK
6
CONTINUOUS
10
4.7353111417322831
20
-1.5436837401574803
11
4.7352362204724407
21
-1.5433070866141732
0
LINE
8
BLACK
6
CONTINUOUS
10
4.7352362204724407
20
-1.5433070866141732
11
4.7352362204724407
21
-1.2086614173228347
0
LINE
8
BLACK
6
CONTINUOUS
10
4.7352362204724407
20
-1.2086614173228347
11
4.7353111417322831
21
-1.2082847637795275
0
LINE
8
BLACK
6
CONTINUOUS
10
4.7353111417322831
20
-1.2082847637795275
11
4.7358438188976377
21
-1.2077520866141731
0
LINE
8
BLACK
6
CONTINUOUS
10
4.7358438188976377
20
-1.2077520866141731
11
4.7362204724409445
21
-1.2076771653543308
0
LINE
8
BLACK
6
CONTINUOUS
10
4.7362204724409445
20
-1.2076771653543308
11
5.2637795275590546
21
-1.2076771653543308
0
LINE
8
BLACK
6
CONTINUOUS
10
5.2637795275590546
20
-1.2076771653543308
11
5.2641561811023623
21
-1.2077520866141731
0
LINE
8
BLACK
6
CONTINUOUS
10
4.7372047244094491
20
-1.2096456692913387
11
4.7372047244094491
21
-1.5423228346456692
0
LINE
8
BLACK
6
CONTINUOUS
10
4.7372047244094491
20
-1.5423228346456692
11
5.2627952755905509
21
-1.5423228346456692
0
LINE
8
BLACK
6
CONTINUOUS
10
5.2627952755905509
20
-1.5423228346456692
11
5.2627952755905509
21
-1.2096456692913387
0
LINE
8
BLACK
6
CONTINUOUS
10
5.2627952755905509
20
-1.2096456692913387
11
4.7372047244094491
21
-1.2096456692913387
0
LINE
8
BLACK
6
CONTINUOUS
10
4.4373845275590549
20
-1.1900355511811023
11
4.4379172047244095
21
-1.1905682283464567
0
LINE
8
BLACK
6
CONTINUOUS
10
4.4379172047244095
20
-1.1905682283464567
11
4.4379921259842519
21
-1.1909448818897637
0
LINE
8
BLACK
6
CONTINUOUS
10
4.4379921259842519
20
-1.1909448818897637
11
4.4379921259842519
21
-1.5255905511811023
0
LINE
8
BLACK
6
CONTINUOUS
10
4.4379921259842519
20
-1.5255905511811023
11
4.4379172047244095
21
-1.5259672047244095
0
LINE
8
BLACK
6
CONTINUOUS
10
4.4379172047244095
20
-1.5259672047244095
11
4.4373845275590549
21
-1.5264998818897637
0
LINE
8
BLACK
6
CONTINUOUS
10
4.4373845275590549
20
-1.5264998818897637
11
4.4370078740157481
21
-1.5265748031496063
0
LINE
8
BLACK
6
CONTINUOUS
10
4.4370078740157481
20
-1.5265748031496063
11
3.9881889763779528
21
-1.5265748031496063
0
LINE
8
BLACK
6
CONTINUOUS
10
3.9881889763779528
20
-1.5265748031496063
11
3.9878123228346456
21
-1.5264998818897637
0
LINE
8
BLACK
6
CONTINUOUS
10
3.9878123228346456
20
-1.5264998818897637
11
3.9872796456692914
21
-1.5259672047244095
0
LINE
8
BLACK
6
CONTINUOUS
10
3.9872796456692914
20
-1.5259672047244095
11
3.9872047244094486
21
-1.5255905511811023
0
LINE
8
BLACK
6
CONTINUOUS
10
3.9872047244094486
20
-1.5255905511811023
11
3.9872047244094486
21
-1.1909448818897637
0
LINE
8
BLACK
6
CONTINUOUS
10
3.9872047244094486
20
-1.1909448818897637
11
3.9872796456692914
21
-1.1905682283464567
0
LINE
8
BLACK
6
CONTINUOUS
10
3.9872796456692914
20
-1.1905682283464567
11
3.9878123228346456
21
-1.1900355511811023
0
LINE
8
BLACK
6
CONTINUOUS
10
3.9878123228346456
20
-1.1900355511811023
11
3.9881889763779528
21
-1.1899606299212597
0
LINE
8
BLACK
6
CONTINUOUS
10
3.9881889763779528
20
-1.1899606299212597
11
4.4370078740157481
21
-1.1899606299212597
0
LINE
8
BLACK
6
CONTINUOUS
10
4.4370078740157481
20
-1.1899606299212597
11
4.4373845275590549
21
-1.1900355511811023
0
LINE
8
BLACK
6
CONTINUOUS
10
3.9891732283464565
20
-1.1919291338582676
11
3.9891732283464565
21
-1.5246062992125984
0
LINE
8
BLACK
6
CONTINUOUS
10
3.9891732283464565
20
-1.5246062992125984
11
4.4360236220472444
21
-1.5246062992125984
0
LINE
8
BLACK
6
CONTINUOUS
10
4.4360236220472444
20
-1.5246062992125984
11
4.4360236220472444
21
-1.1919291338582676
0
LINE
8
BLACK
6
CONTINUOUS
10
4.4360236220472444
20
-1.1919291338582676
11
3.9891732283464565
21
-1.1919291338582676
0
CIRCLE
8
BLACK
10
1.8996062992125984
20
-2.3149606299212597
40
0.0413385826771654
0
CIRCLE
8
BLACK
10
1.8996062992125984
20
-4.3622047244094491
40
0.0413385826771654
0
CIRCLE
8
BLACK
10
3.0807086614173227
20
-2.3149606299212597
40
0.0413385826771654
0
CIRCLE
8
BLACK
10
3.0807086614173227
20
-4.3622047244094491
40
0.0413385826771654
0
CIRCLE
8
BLACK
10
2.6392913385826771
20
-2.3414488188976379
40
0.0196850393700787
0
CIRCLE
8
BLACK
10
2.539291338582677
20
-2.3414488188976379
40
0.0196850393700787
0
CIRCLE
8
BLACK
10
2.4392913385826773
20
-2.3414488188976379
40
0.0196850393700787
0
CIRCLE
8
BLACK
10
2.3392913385826772
20
-2.3414488188976379
40
0.0196850393700787
0
CIRCLE
8
BLACK
10
5.1692913385826769
20
-2.3858267716535431
40
0.0413385826771654
0
CIRCLE
8
BLACK
10
5.1692913385826769
20
-4.4330708661417324
40
0.0413385826771654
0
CIRCLE
8
BLACK
10
6.3503937007874018
20
-2.3858267716535431
40
0.0413385826771654
0
CIRCLE
8
BLACK
10
6.3503937007874018
20
-4.4330708661417324
40
0.0413385826771654
0
CIRCLE
8
BLACK
10
5.9089763779527562
20
-2.4123149606299212
40
0.0196850393700787
0
CIRCLE
8
BLACK
10
5.8089763779527557
20
-2.4123149606299212
40
0.0196850393700787
0
CIRCLE
8
BLACK
10
5.708976377952756
20
-2.4123149606299212
40
0.0196850393700787
0
CIRCLE
8
BLACK
10
5.6089763779527555
20
-2.4123149606299212
40
0.0196850393700787
  0
ENDSEC
  0
EOF
