  0
SECTION
  2
HEADER
  9
$ANGBASE
  50
0.0
  9
$ANGDIR
  70
1
  9
$MEASUREMENT
  70
0
  0
ENDSEC
  0
SECTION
  2
TABLES
  0
TABLE
  2
LTYPE
  70
4
  0
LTYPE
  5
40F
  2
CONTINUOUS
  70
0
  3
Solid line
  72
65
  73
0
  40
0.0
  0
LTYPE
  5
410
  2
DASHDOT
 70
0
  3
Dash Dot ____ _ ____ _
 72
65
 73
4
 40
2.0
 49
1.25
 49
-0.25
 49
0.25
 49
-0.25
  0
LTYPE
  5
411
  2
DASHED
 70
0
  3
Dashed __ __ __ __ __
 72
65
 73
2
 40
0.75
 49
0.5
 49
-0.25
  0
LTYPE
  5
43B
  2
DOTTED
 70
0
  3
Dotted .  .  .  .
 72
65
 73
2
 40
0.2
 49
0.0
 49
-0.2
  0
ENDTAB
  0
TABLE
  2
STYLE
  70
4
  0
STYLE
  2
KICAD
  70
0
  40
0
  41
1
  42
1
  50
0
  71
0
  3
isocp.shx
  0
STYLE
  2
KICADB
  70
0
  40
0
  41
1
  42
1
  50
0
  71
0
  3
isocp.shx
  0
STYLE
  2
KICADI
  70
0
  40
0
  41
1
  42
1
  50
15
  71
0
  3
isocp.shx
  0
STYLE
  2
KICADBI
  70
0
  40
0
  41
1
  42
1
  50
15
  71
0
  3
isocp.shx
  0
ENDTAB
  0
TABLE
  2
LAYER
  70
1
  0
LAYER
  2
BLACK
  70
0
  62
7
  6
CONTINUOUS
  0
ENDTAB
  0
ENDSEC
  0
SECTION
  2
ENTITIES
0
LINE
8
BLACK
6
CONTINUOUS
10
0.9565224803149606
20
-4.5125602362204722
11
0.9597156299212598
21
-4.514693818897638
0
LINE
8
BLACK
6
CONTINUOUS
10
0.9597156299212598
20
-4.514693818897638
11
0.9618492125984252
21
-4.5178869685039373
0
LINE
8
BLACK
6
CONTINUOUS
10
0.9618492125984252
20
-4.5178869685039373
11
0.9625984251968503
21
-4.5216535433070861
0
LINE
8
BLACK
6
CONTINUOUS
10
0.9625984251968503
20
-4.5216535433070861
11
0.9625984251968503
21
-4.5649606299212602
0
LINE
8
BLACK
6
CONTINUOUS
10
0.9625984251968503
20
-4.5649606299212602
11
0.9618492125984252
21
-4.568727204724409
0
LINE
8
BLACK
6
CONTINUOUS
10
0.9618492125984252
20
-4.568727204724409
11
0.9597156299212598
21
-4.5719203543307083
0
LINE
8
BLACK
6
CONTINUOUS
10
0.9597156299212598
20
-4.5719203543307083
11
0.9565224803149606
21
-4.5740539370078741
0
LINE
8
BLACK
6
CONTINUOUS
10
0.9565224803149606
20
-4.5740539370078741
11
0.952755905511811
21
-4.5748031496062991
0
LINE
8
BLACK
6
CONTINUOUS
10
0.952755905511811
20
-4.5748031496062991
11
0.8543307086614172
21
-4.5748031496062991
0
LINE
8
BLACK
6
CONTINUOUS
10
0.8543307086614172
20
-4.5748031496062991
11
0.8505641338582677
21
-4.5740539370078741
0
LINE
8
BLACK
6
CONTINUOUS
10
0.8505641338582677
20
-4.5740539370078741
11
0.8473709842519684
21
-4.5719203543307083
0
LINE
8
BLACK
6
CONTINUOUS
10
0.8473709842519684
20
-4.5719203543307083
11
0.8452374015748031
21
-4.568727204724409
0
LINE
8
BLACK
6
CONTINUOUS
10
0.8452374015748031
20
-4.568727204724409
11
0.8444881889763779
21
-4.5649606299212602
0
LINE
8
BLACK
6
CONTINUOUS
10
0.8444881889763779
20
-4.5649606299212602
11
0.8444881889763779
21
-4.5216535433070861
0
LINE
8
BLACK
6
CONTINUOUS
10
0.8444881889763779
20
-4.5216535433070861
11
0.8452374015748031
21
-4.5178869685039373
0
LINE
8
BLACK
6
CONTINUOUS
10
0.8452374015748031
20
-4.5178869685039373
11
0.8473709842519684
21
-4.514693818897638
0
LINE
8
BLACK
6
CONTINUOUS
10
0.8473709842519684
20
-4.514693818897638
11
0.8505641338582677
21
-4.5125602362204722
0
LINE
8
BLACK
6
CONTINUOUS
10
0.8505641338582677
20
-4.5125602362204722
11
0.8543307086614172
21
-4.5118110236220472
0
LINE
8
BLACK
6
CONTINUOUS
10
0.8543307086614172
20
-4.5118110236220472
11
0.952755905511811
21
-4.5118110236220472
0
LINE
8
BLACK
6
CONTINUOUS
10
0.952755905511811
20
-4.5118110236220472
11
0.9565224803149606
21
-4.5125602362204722
0
LINE
8
BLACK
6
CONTINUOUS
10
5.1773561023622046
20
-4.3925265748031492
11
5.1851109448818899
21
-4.394878976377953
0
LINE
8
BLACK
6
CONTINUOUS
10
5.1851109448818899
20
-4.394878976377953
11
5.1922578346456696
21
-4.3986990944881885
0
LINE
8
BLACK
6
CONTINUOUS
10
5.1922578346456696
20
-4.3986990944881885
11
5.198522125984252
21
-4.4038400787401573
0
LINE
8
BLACK
6
CONTINUOUS
10
5.198522125984252
20
-4.4038400787401573
11
5.2036631102362207
21
-4.4101043700787397
0
LINE
8
BLACK
6
CONTINUOUS
10
5.2036631102362207
20
-4.4101043700787397
11
5.2074832283464563
21
-4.4172512598425193
0
LINE
8
BLACK
6
CONTINUOUS
10
5.2074832283464563
20
-4.4172512598425193
11
5.20983562992126
21
-4.4250061023622047
0
LINE
8
BLACK
6
CONTINUOUS
10
5.20983562992126
20
-4.4250061023622047
11
5.2106299212598426
21
-4.4330708661417324
0
LINE
8
BLACK
6
CONTINUOUS
10
5.2106299212598426
20
-4.4330708661417324
11
5.20983562992126
21
-4.4411356299212601
0
LINE
8
BLACK
6
CONTINUOUS
10
5.20983562992126
20
-4.4411356299212601
11
5.2074832283464563
21
-4.4488904724409446
0
LINE
8
BLACK
6
CONTINUOUS
10
5.2074832283464563
20
-4.4488904724409446
11
5.2036631102362207
21
-4.4560373622047242
0
LINE
8
BLACK
6
CONTINUOUS
10
5.2036631102362207
20
-4.4560373622047242
11
5.198522125984252
21
-4.4623016535433067
0
LINE
8
BLACK
6
CONTINUOUS
10
5.198522125984252
20
-4.4623016535433067
11
5.1922578346456696
21
-4.4674426377952754
0
LINE
8
BLACK
6
CONTINUOUS
10
5.1922578346456696
20
-4.4674426377952754
11
5.1851109448818899
21
-4.4712627559055118
0
LINE
8
BLACK
6
CONTINUOUS
10
5.1851109448818899
20
-4.4712627559055118
11
5.1773561023622046
21
-4.4736151574803147
0
LINE
8
BLACK
6
CONTINUOUS
10
5.1773561023622046
20
-4.4736151574803147
11
5.1692913385826769
21
-4.4744094488188972
0
LINE
8
BLACK
6
CONTINUOUS
10
5.1692913385826769
20
-4.4744094488188972
11
5.1612265748031492
21
-4.4736151574803147
0
LINE
8
BLACK
6
CONTINUOUS
10
5.1612265748031492
20
-4.4736151574803147
11
5.1534717322834647
21
-4.4712627559055118
0
LINE
8
BLACK
6
CONTINUOUS
10
5.1534717322834647
20
-4.4712627559055118
11
5.146324842519685
21
-4.4674426377952754
0
LINE
8
BLACK
6
CONTINUOUS
10
5.146324842519685
20
-4.4674426377952754
11
5.1400605511811026
21
-4.4623016535433067
0
LINE
8
BLACK
6
CONTINUOUS
10
5.1400605511811026
20
-4.4623016535433067
11
5.1349195669291339
21
-4.4560373622047242
0
LINE
8
BLACK
6
CONTINUOUS
10
5.1349195669291339
20
-4.4560373622047242
11
5.1310994488188975
21
-4.4488904724409446
0
LINE
8
BLACK
6
CONTINUOUS
10
5.1310994488188975
20
-4.4488904724409446
11
5.1287470472440946
21
-4.4411356299212601
0
LINE
8
BLACK
6
CONTINUOUS
10
5.1287470472440946
20
-4.4411356299212601
11
5.127952755905512
21
-4.4330708661417324
0
LINE
8
BLACK
6
CONTINUOUS
10
5.127952755905512
20
-4.4330708661417324
11
5.1287470472440946
21
-4.4250061023622047
0
LINE
8
BLACK
6
CONTINUOUS
10
5.1287470472440946
20
-4.4250061023622047
11
5.1310994488188975
21
-4.4172512598425193
0
LINE
8
BLACK
6
CONTINUOUS
10
5.1310994488188975
20
-4.4172512598425193
11
5.1349195669291339
21
-4.4101043700787397
0
LINE
8
BLACK
6
CONTINUOUS
10
5.1349195669291339
20
-4.4101043700787397
11
5.1400605511811026
21
-4.4038400787401573
0
LINE
8
BLACK
6
CONTINUOUS
10
5.1400605511811026
20
-4.4038400787401573
11
5.146324842519685
21
-4.3986990944881885
0
LINE
8
BLACK
6
CONTINUOUS
10
5.146324842519685
20
-4.3986990944881885
11
5.1534717322834647
21
-4.394878976377953
0
LINE
8
BLACK
6
CONTINUOUS
10
5.1534717322834647
20
-4.394878976377953
11
5.1612265748031492
21
-4.3925265748031492
0
LINE
8
BLACK
6
CONTINUOUS
10
5.1612265748031492
20
-4.3925265748031492
11
5.1692913385826769
21
-4.3917322834645667
0
LINE
8
BLACK
6
CONTINUOUS
10
5.1692913385826769
20
-4.3917322834645667
11
5.1773561023622046
21
-4.3925265748031492
0
LINE
8
BLACK
6
CONTINUOUS
10
6.3584584645669286
20
-4.3925265748031492
11
6.366213307086614
21
-4.394878976377953
0
LINE
8
BLACK
6
CONTINUOUS
10
6.366213307086614
20
-4.394878976377953
11
6.3733601968503937
21
-4.3986990944881885
0
LINE
8
BLACK
6
CONTINUOUS
10
6.3733601968503937
20
-4.3986990944881885
11
6.3796244881889761
21
-4.4038400787401573
0
LINE
8
BLACK
6
CONTINUOUS
10
6.3796244881889761
20
-4.4038400787401573
11
6.3847654724409448
21
-4.4101043700787397
0
LINE
8
BLACK
6
CONTINUOUS
10
6.3847654724409448
20
-4.4101043700787397
11
6.3885855905511812
21
-4.4172512598425193
0
LINE
8
BLACK
6
CONTINUOUS
10
6.3885855905511812
20
-4.4172512598425193
11
6.3909379921259841
21
-4.4250061023622047
0
LINE
8
BLACK
6
CONTINUOUS
10
6.3909379921259841
20
-4.4250061023622047
11
6.3917322834645667
21
-4.4330708661417324
0
LINE
8
BLACK
6
CONTINUOUS
10
6.3917322834645667
20
-4.4330708661417324
11
6.3909379921259841
21
-4.4411356299212601
0
LINE
8
BLACK
6
CONTINUOUS
10
6.3909379921259841
20
-4.4411356299212601
11
6.3885855905511812
21
-4.4488904724409446
0
LINE
8
BLACK
6
CONTINUOUS
10
6.3885855905511812
20
-4.4488904724409446
11
6.3847654724409448
21
-4.4560373622047242
0
LINE
8
BLACK
6
CONTINUOUS
10
6.3847654724409448
20
-4.4560373622047242
11
6.3796244881889761
21
-4.4623016535433067
0
LINE
8
BLACK
6
CONTINUOUS
10
6.3796244881889761
20
-4.4623016535433067
11
6.3733601968503937
21
-4.4674426377952754
0
LINE
8
BLACK
6
CONTINUOUS
10
6.3733601968503937
20
-4.4674426377952754
11
6.366213307086614
21
-4.4712627559055118
0
LINE
8
BLACK
6
CONTINUOUS
10
6.366213307086614
20
-4.4712627559055118
11
6.3584584645669286
21
-4.4736151574803147
0
LINE
8
BLACK
6
CONTINUOUS
10
6.3584584645669286
20
-4.4736151574803147
11
6.3503937007874018
21
-4.4744094488188972
0
LINE
8
BLACK
6
CONTINUOUS
10
6.3503937007874018
20
-4.4744094488188972
11
6.3423289370078741
21
-4.4736151574803147
0
LINE
8
BLACK
6
CONTINUOUS
10
6.3423289370078741
20
-4.4736151574803147
11
6.3345740944881888
21
-4.4712627559055118
0
LINE
8
BLACK
6
CONTINUOUS
10
6.3345740944881888
20
-4.4712627559055118
11
6.3274272047244091
21
-4.4674426377952754
0
LINE
8
BLACK
6
CONTINUOUS
10
6.3274272047244091
20
-4.4674426377952754
11
6.3211629133858267
21
-4.4623016535433067
0
LINE
8
BLACK
6
CONTINUOUS
10
6.3211629133858267
20
-4.4623016535433067
11
6.316021929133858
21
-4.4560373622047242
0
LINE
8
BLACK
6
CONTINUOUS
10
6.316021929133858
20
-4.4560373622047242
11
6.3122018110236215
21
-4.4488904724409446
0
LINE
8
BLACK
6
CONTINUOUS
10
6.3122018110236215
20
-4.4488904724409446
11
6.3098494094488187
21
-4.4411356299212601
0
LINE
8
BLACK
6
CONTINUOUS
10
6.3098494094488187
20
-4.4411356299212601
11
6.3090551181102361
21
-4.4330708661417324
0
LINE
8
BLACK
6
CONTINUOUS
10
6.3090551181102361
20
-4.4330708661417324
11
6.3098494094488187
21
-4.4250061023622047
0
LINE
8
BLACK
6
CONTINUOUS
10
6.3098494094488187
20
-4.4250061023622047
11
6.3122018110236215
21
-4.4172512598425193
0
LINE
8
BLACK
6
CONTINUOUS
10
6.3122018110236215
20
-4.4172512598425193
11
6.316021929133858
21
-4.4101043700787397
0
LINE
8
BLACK
6
CONTINUOUS
10
6.316021929133858
20
-4.4101043700787397
11
6.3211629133858267
21
-4.4038400787401573
0
LINE
8
BLACK
6
CONTINUOUS
10
6.3211629133858267
20
-4.4038400787401573
11
6.3274272047244091
21
-4.3986990944881885
0
LINE
8
BLACK
6
CONTINUOUS
10
6.3274272047244091
20
-4.3986990944881885
11
6.3345740944881888
21
-4.394878976377953
0
LINE
8
BLACK
6
CONTINUOUS
10
6.3345740944881888
20
-4.394878976377953
11
6.3423289370078741
21
-4.3925265748031492
0
LINE
8
BLACK
6
CONTINUOUS
10
6.3423289370078741
20
-4.3925265748031492
11
6.3503937007874018
21
-4.3917322834645667
0
LINE
8
BLACK
6
CONTINUOUS
10
6.3503937007874018
20
-4.3917322834645667
11
6.3584584645669286
21
-4.3925265748031492
0
LINE
8
BLACK
6
CONTINUOUS
10
1.0943177559055117
20
-4.4298830708661416
11
1.0975109055118111
21
-4.4320166535433074
0
LINE
8
BLACK
6
CONTINUOUS
10
1.0975109055118111
20
-4.4320166535433074
11
1.0996444881889764
21
-4.4352098031496059
0
LINE
8
BLACK
6
CONTINUOUS
10
1.0996444881889764
20
-4.4352098031496059
11
1.1003937007874016
21
-4.4389763779527556
0
LINE
8
BLACK
6
CONTINUOUS
10
1.1003937007874016
20
-4.4389763779527556
11
1.1003937007874016
21
-4.4586614173228343
0
LINE
8
BLACK
6
CONTINUOUS
10
1.1003937007874016
20
-4.4586614173228343
11
1.0996444881889764
21
-4.462427992125984
0
LINE
8
BLACK
6
CONTINUOUS
10
1.0996444881889764
20
-4.462427992125984
11
1.0975109055118111
21
-4.4656211417322833
0
LINE
8
BLACK
6
CONTINUOUS
10
1.0975109055118111
20
-4.4656211417322833
11
1.0943177559055117
21
-4.4677547244094491
0
LINE
8
BLACK
6
CONTINUOUS
10
1.0943177559055117
20
-4.4677547244094491
11
1.0905511811023623
21
-4.4685039370078741
0
LINE
8
BLACK
6
CONTINUOUS
10
1.0905511811023623
20
-4.4685039370078741
11
0.8937007874015748
21
-4.4685039370078741
0
LINE
8
BLACK
6
CONTINUOUS
10
0.8937007874015748
20
-4.4685039370078741
11
0.8899342125984252
21
-4.4677547244094491
0
LINE
8
BLACK
6
CONTINUOUS
10
0.8899342125984252
20
-4.4677547244094491
11
0.886741062992126
21
-4.4656211417322833
0
LINE
8
BLACK
6
CONTINUOUS
10
0.886741062992126
20
-4.4656211417322833
11
0.8846074803149606
21
-4.462427992125984
0
LINE
8
BLACK
6
CONTINUOUS
10
0.8846074803149606
20
-4.462427992125984
11
0.8838582677165354
21
-4.4586614173228343
0
LINE
8
BLACK
6
CONTINUOUS
10
0.8838582677165354
20
-4.4586614173228343
11
0.8838582677165354
21
-4.4389763779527556
0
LINE
8
BLACK
6
CONTINUOUS
10
0.8838582677165354
20
-4.4389763779527556
11
0.8846074803149606
21
-4.4352098031496059
0
LINE
8
BLACK
6
CONTINUOUS
10
0.8846074803149606
20
-4.4352098031496059
11
0.886741062992126
21
-4.4320166535433074
0
LINE
8
BLACK
6
CONTINUOUS
10
0.886741062992126
20
-4.4320166535433074
11
0.8899342125984252
21
-4.4298830708661416
0
LINE
8
BLACK
6
CONTINUOUS
10
0.8899342125984252
20
-4.4298830708661416
11
0.8937007874015748
21
-4.4291338582677167
0
LINE
8
BLACK
6
CONTINUOUS
10
0.8937007874015748
20
-4.4291338582677167
11
1.0905511811023623
21
-4.4291338582677167
0
LINE
8
BLACK
6
CONTINUOUS
10
1.0905511811023623
20
-4.4291338582677167
11
1.0943177559055117
21
-4.4298830708661416
0
LINE
8
BLACK
6
CONTINUOUS
10
1.9076710629921259
20
-4.3216604330708659
11
1.915425905511811
21
-4.3240128346456688
0
LINE
8
BLACK
6
CONTINUOUS
10
1.915425905511811
20
-4.3240128346456688
11
1.9225727952755904
21
-4.3278329527559052
0
LINE
8
BLACK
6
CONTINUOUS
10
1.9225727952755904
20
-4.3278329527559052
11
1.9288370866141731
21
-4.3329739370078739
0
LINE
8
BLACK
6
CONTINUOUS
10
1.9288370866141731
20
-4.3329739370078739
11
1.9339780708661416
21
-4.3392382283464563
0
LINE
8
BLACK
6
CONTINUOUS
10
1.9339780708661416
20
-4.3392382283464563
11
1.937798188976378
21
-4.346385118110236
0
LINE
8
BLACK
6
CONTINUOUS
10
1.937798188976378
20
-4.346385118110236
11
1.9401505905511811
21
-4.3541399606299214
0
LINE
8
BLACK
6
CONTINUOUS
10
1.9401505905511811
20
-4.3541399606299214
11
1.9409448818897637
21
-4.3622047244094491
0
LINE
8
BLACK
6
CONTINUOUS
10
1.9409448818897637
20
-4.3622047244094491
11
1.9401505905511811
21
-4.3702694881889759
0
LINE
8
BLACK
6
CONTINUOUS
10
1.9401505905511811
20
-4.3702694881889759
11
1.937798188976378
21
-4.3780243307086613
0
LINE
8
BLACK
6
CONTINUOUS
10
1.937798188976378
20
-4.3780243307086613
11
1.9339780708661416
21
-4.3851712204724409
0
LINE
8
BLACK
6
CONTINUOUS
10
1.9339780708661416
20
-4.3851712204724409
11
1.9288370866141731
21
-4.3914355118110233
0
LINE
8
BLACK
6
CONTINUOUS
10
1.9288370866141731
20
-4.3914355118110233
11
1.9225727952755904
21
-4.3965764960629921
0
LINE
8
BLACK
6
CONTINUOUS
10
1.9225727952755904
20
-4.3965764960629921
11
1.915425905511811
21
-4.4003966141732285
0
LINE
8
BLACK
6
CONTINUOUS
10
1.915425905511811
20
-4.4003966141732285
11
1.9076710629921259
21
-4.4027490157480313
0
LINE
8
BLACK
6
CONTINUOUS
10
1.9076710629921259
20
-4.4027490157480313
11
1.8996062992125984
21
-4.4035433070866139
0
LINE
8
BLACK
6
CONTINUOUS
10
1.8996062992125984
20
-4.4035433070866139
11
1.8915415354330709
21
-4.4027490157480313
0
LINE
8
BLACK
6
CONTINUOUS
10
1.8915415354330709
20
-4.4027490157480313
11
1.8837866929133857
21
-4.4003966141732285
0
LINE
8
BLACK
6
CONTINUOUS
10
1.8837866929133857
20
-4.4003966141732285
11
1.8766398031496063
21
-4.3965764960629921
0
LINE
8
BLACK
6
CONTINUOUS
10
1.8766398031496063
20
-4.3965764960629921
11
1.8703755118110237
21
-4.3914355118110233
0
LINE
8
BLACK
6
CONTINUOUS
10
1.8703755118110237
20
-4.3914355118110233
11
1.8652345275590552
21
-4.3851712204724409
0
LINE
8
BLACK
6
CONTINUOUS
10
1.8652345275590552
20
-4.3851712204724409
11
1.8614144094488188
21
-4.3780243307086613
0
LINE
8
BLACK
6
CONTINUOUS
10
1.8614144094488188
20
-4.3780243307086613
11
1.8590620078740157
21
-4.3702694881889759
0
LINE
8
BLACK
6
CONTINUOUS
10
1.8590620078740157
20
-4.3702694881889759
11
1.8582677165354331
21
-4.3622047244094491
0
LINE
8
BLACK
6
CONTINUOUS
10
1.8582677165354331
20
-4.3622047244094491
11
1.8590620078740157
21
-4.3541399606299214
0
LINE
8
BLACK
6
CONTINUOUS
10
1.8590620078740157
20
-4.3541399606299214
11
1.8614144094488188
21
-4.346385118110236
0
LINE
8
BLACK
6
CONTINUOUS
10
1.8614144094488188
20
-4.346385118110236
11
1.8652345275590552
21
-4.3392382283464563
0
LINE
8
BLACK
6
CONTINUOUS
10
1.8652345275590552
20
-4.3392382283464563
11
1.8703755118110237
21
-4.3329739370078739
0
LINE
8
BLACK
6
CONTINUOUS
10
1.8703755118110237
20
-4.3329739370078739
11
1.8766398031496063
21
-4.3278329527559052
0
LINE
8
BLACK
6
CONTINUOUS
10
1.8766398031496063
20
-4.3278329527559052
11
1.8837866929133857
21
-4.3240128346456688
0
LINE
8
BLACK
6
CONTINUOUS
10
1.8837866929133857
20
-4.3240128346456688
11
1.8915415354330709
21
-4.3216604330708659
0
LINE
8
BLACK
6
CONTINUOUS
10
1.8915415354330709
20
-4.3216604330708659
11
1.8996062992125984
21
-4.3208661417322833
0
LINE
8
BLACK
6
CONTINUOUS
10
1.8996062992125984
20
-4.3208661417322833
11
1.9076710629921259
21
-4.3216604330708659
0
LINE
8
BLACK
6
CONTINUOUS
10
3.0887734251968504
20
-4.3216604330708659
11
3.0965282677165353
21
-4.3240128346456688
0
LINE
8
BLACK
6
CONTINUOUS
10
3.0965282677165353
20
-4.3240128346456688
11
3.103675157480315
21
-4.3278329527559052
0
LINE
8
BLACK
6
CONTINUOUS
10
3.103675157480315
20
-4.3278329527559052
11
3.1099394488188974
21
-4.3329739370078739
0
LINE
8
BLACK
6
CONTINUOUS
10
3.1099394488188974
20
-4.3329739370078739
11
3.1150804330708661
21
-4.3392382283464563
0
LINE
8
BLACK
6
CONTINUOUS
10
3.1150804330708661
20
-4.3392382283464563
11
3.1189005511811021
21
-4.346385118110236
0
LINE
8
BLACK
6
CONTINUOUS
10
3.1189005511811021
20
-4.346385118110236
11
3.1212529527559054
21
-4.3541399606299214
0
LINE
8
BLACK
6
CONTINUOUS
10
3.1212529527559054
20
-4.3541399606299214
11
3.122047244094488
21
-4.3622047244094491
0
LINE
8
BLACK
6
CONTINUOUS
10
3.122047244094488
20
-4.3622047244094491
11
3.1212529527559054
21
-4.3702694881889759
0
LINE
8
BLACK
6
CONTINUOUS
10
3.1212529527559054
20
-4.3702694881889759
11
3.1189005511811021
21
-4.3780243307086613
0
LINE
8
BLACK
6
CONTINUOUS
10
3.1189005511811021
20
-4.3780243307086613
11
3.1150804330708661
21
-4.3851712204724409
0
LINE
8
BLACK
6
CONTINUOUS
10
3.1150804330708661
20
-4.3851712204724409
11
3.1099394488188974
21
-4.3914355118110233
0
LINE
8
BLACK
6
CONTINUOUS
10
3.1099394488188974
20
-4.3914355118110233
11
3.103675157480315
21
-4.3965764960629921
0
LINE
8
BLACK
6
CONTINUOUS
10
3.103675157480315
20
-4.3965764960629921
11
3.0965282677165353
21
-4.4003966141732285
0
LINE
8
BLACK
6
CONTINUOUS
10
3.0965282677165353
20
-4.4003966141732285
11
3.0887734251968504
21
-4.4027490157480313
0
LINE
8
BLACK
6
CONTINUOUS
10
3.0887734251968504
20
-4.4027490157480313
11
3.0807086614173227
21
-4.4035433070866139
0
LINE
8
BLACK
6
CONTINUOUS
10
3.0807086614173227
20
-4.4035433070866139
11
3.072643897637795
21
-4.4027490157480313
0
LINE
8
BLACK
6
CONTINUOUS
10
3.072643897637795
20
-4.4027490157480313
11
3.0648890551181101
21
-4.4003966141732285
0
LINE
8
BLACK
6
CONTINUOUS
10
3.0648890551181101
20
-4.4003966141732285
11
3.0577421653543309
21
-4.3965764960629921
0
LINE
8
BLACK
6
CONTINUOUS
10
3.0577421653543309
20
-4.3965764960629921
11
3.051477874015748
21
-4.3914355118110233
0
LINE
8
BLACK
6
CONTINUOUS
10
3.051477874015748
20
-4.3914355118110233
11
3.0463368897637793
21
-4.3851712204724409
0
LINE
8
BLACK
6
CONTINUOUS
10
3.0463368897637793
20
-4.3851712204724409
11
3.0425167716535433
21
-4.3780243307086613
0
LINE
8
BLACK
6
CONTINUOUS
10
3.0425167716535433
20
-4.3780243307086613
11
3.04016437007874
21
-4.3702694881889759
0
LINE
8
BLACK
6
CONTINUOUS
10
3.04016437007874
20
-4.3702694881889759
11
3.0393700787401574
21
-4.3622047244094491
0
LINE
8
BLACK
6
CONTINUOUS
10
3.0393700787401574
20
-4.3622047244094491
11
3.04016437007874
21
-4.3541399606299214
0
LINE
8
BLACK
6
CONTINUOUS
10
3.04016437007874
20
-4.3541399606299214
11
3.0425167716535433
21
-4.346385118110236
0
LINE
8
BLACK
6
CONTINUOUS
10
3.0425167716535433
20
-4.346385118110236
11
3.0463368897637793
21
-4.3392382283464563
0
LINE
8
BLACK
6
CONTINUOUS
10
3.0463368897637793
20
-4.3392382283464563
11
3.051477874015748
21
-4.3329739370078739
0
LINE
8
BLACK
6
CONTINUOUS
10
3.051477874015748
20
-4.3329739370078739
11
3.0577421653543309
21
-4.3278329527559052
0
LINE
8
BLACK
6
CONTINUOUS
10
3.0577421653543309
20
-4.3278329527559052
11
3.0648890551181101
21
-4.3240128346456688
0
LINE
8
BLACK
6
CONTINUOUS
10
3.0648890551181101
20
-4.3240128346456688
11
3.072643897637795
21
-4.3216604330708659
0
LINE
8
BLACK
6
CONTINUOUS
10
3.072643897637795
20
-4.3216604330708659
11
3.0807086614173227
21
-4.3208661417322833
0
LINE
8
BLACK
6
CONTINUOUS
10
3.0807086614173227
20
-4.3208661417322833
11
3.0887734251968504
21
-4.3216604330708659
0
LINE
8
BLACK
6
CONTINUOUS
10
1.0943177559055117
20
-4.3511429133858268
11
1.0975109055118111
21
-4.3532764960629917
0
LINE
8
BLACK
6
CONTINUOUS
10
1.0975109055118111
20
-4.3532764960629917
11
1.0996444881889764
21
-4.3564696456692911
0
LINE
8
BLACK
6
CONTINUOUS
10
1.0996444881889764
20
-4.3564696456692911
11
1.1003937007874016
21
-4.3602362204724407
0
LINE
8
BLACK
6
CONTINUOUS
10
1.1003937007874016
20
-4.3602362204724407
11
1.1003937007874016
21
-4.3799212598425195
0
LINE
8
BLACK
6
CONTINUOUS
10
1.1003937007874016
20
-4.3799212598425195
11
1.0996444881889764
21
-4.3836878346456691
0
LINE
8
BLACK
6
CONTINUOUS
10
1.0996444881889764
20
-4.3836878346456691
11
1.0975109055118111
21
-4.3868809842519685
0
LINE
8
BLACK
6
CONTINUOUS
10
1.0975109055118111
20
-4.3868809842519685
11
1.0943177559055117
21
-4.3890145669291334
0
LINE
8
BLACK
6
CONTINUOUS
10
1.0943177559055117
20
-4.3890145669291334
11
1.0905511811023623
21
-4.3897637795275593
0
LINE
8
BLACK
6
CONTINUOUS
10
1.0905511811023623
20
-4.3897637795275593
11
0.8937007874015748
21
-4.3897637795275593
0
LINE
8
BLACK
6
CONTINUOUS
10
0.8937007874015748
20
-4.3897637795275593
11
0.8899342125984252
21
-4.3890145669291334
0
LINE
8
BLACK
6
CONTINUOUS
10
0.8899342125984252
20
-4.3890145669291334
11
0.886741062992126
21
-4.3868809842519685
0
LINE
8
BLACK
6
CONTINUOUS
10
0.886741062992126
20
-4.3868809842519685
11
0.8846074803149606
21
-4.3836878346456691
0
LINE
8
BLACK
6
CONTINUOUS
10
0.8846074803149606
20
-4.3836878346456691
11
0.8838582677165354
21
-4.3799212598425195
0
LINE
8
BLACK
6
CONTINUOUS
10
0.8838582677165354
20
-4.3799212598425195
11
0.8838582677165354
21
-4.3602362204724407
0
LINE
8
BLACK
6
CONTINUOUS
10
0.8838582677165354
20
-4.3602362204724407
11
0.8846074803149606
21
-4.3564696456692911
0
LINE
8
BLACK
6
CONTINUOUS
10
0.8846074803149606
20
-4.3564696456692911
11
0.886741062992126
21
-4.3532764960629917
0
LINE
8
BLACK
6
CONTINUOUS
10
0.886741062992126
20
-4.3532764960629917
11
0.8899342125984252
21
-4.3511429133858268
0
LINE
8
BLACK
6
CONTINUOUS
10
0.8899342125984252
20
-4.3511429133858268
11
0.8937007874015748
21
-4.3503937007874018
0
LINE
8
BLACK
6
CONTINUOUS
10
0.8937007874015748
20
-4.3503937007874018
11
1.0905511811023623
21
-4.3503937007874018
0
LINE
8
BLACK
6
CONTINUOUS
10
1.0905511811023623
20
-4.3503937007874018
11
1.0943177559055117
21
-4.3511429133858268
0
LINE
8
BLACK
6
CONTINUOUS
10
1.0943177559055117
20
-4.272402755905512
11
1.0975109055118111
21
-4.2745363385826769
0
LINE
8
BLACK
6
CONTINUOUS
10
1.0975109055118111
20
-4.2745363385826769
11
1.0996444881889764
21
-4.2777294881889762
0
LINE
8
BLACK
6
CONTINUOUS
10
1.0996444881889764
20
-4.2777294881889762
11
1.1003937007874016
21
-4.2814960629921259
0
LINE
8
BLACK
6
CONTINUOUS
10
1.1003937007874016
20
-4.2814960629921259
11
1.1003937007874016
21
-4.3011811023622046
0
LINE
8
BLACK
6
CONTINUOUS
10
1.1003937007874016
20
-4.3011811023622046
11
1.0996444881889764
21
-4.3049476771653543
0
LINE
8
BLACK
6
CONTINUOUS
10
1.0996444881889764
20
-4.3049476771653543
11
1.0975109055118111
21
-4.3081408267716537
0
LINE
8
BLACK
6
CONTINUOUS
10
1.0975109055118111
20
-4.3081408267716537
11
1.0943177559055117
21
-4.3102744094488186
0
LINE
8
BLACK
6
CONTINUOUS
10
1.0943177559055117
20
-4.3102744094488186
11
1.0905511811023623
21
-4.3110236220472444
0
LINE
8
BLACK
6
CONTINUOUS
10
1.0905511811023623
20
-4.3110236220472444
11
0.8937007874015748
21
-4.3110236220472444
0
LINE
8
BLACK
6
CONTINUOUS
10
0.8937007874015748
20
-4.3110236220472444
11
0.8899342125984252
21
-4.3102744094488186
0
LINE
8
BLACK
6
CONTINUOUS
10
0.8899342125984252
20
-4.3102744094488186
11
0.886741062992126
21
-4.3081408267716537
0
LINE
8
BLACK
6
CONTINUOUS
10
0.886741062992126
20
-4.3081408267716537
11
0.8846074803149606
21
-4.3049476771653543
0
LINE
8
BLACK
6
CONTINUOUS
10
0.8846074803149606
20
-4.3049476771653543
11
0.8838582677165354
21
-4.3011811023622046
0
LINE
8
BLACK
6
CONTINUOUS
10
0.8838582677165354
20
-4.3011811023622046
11
0.8838582677165354
21
-4.2814960629921259
0
LINE
8
BLACK
6
CONTINUOUS
10
0.8838582677165354
20
-4.2814960629921259
11
0.8846074803149606
21
-4.2777294881889762
0
LINE
8
BLACK
6
CONTINUOUS
10
0.8846074803149606
20
-4.2777294881889762
11
0.886741062992126
21
-4.2745363385826769
0
LINE
8
BLACK
6
CONTINUOUS
10
0.886741062992126
20
-4.2745363385826769
11
0.8899342125984252
21
-4.272402755905512
0
LINE
8
BLACK
6
CONTINUOUS
10
0.8899342125984252
20
-4.272402755905512
11
0.8937007874015748
21
-4.2716535433070861
0
LINE
8
BLACK
6
CONTINUOUS
10
0.8937007874015748
20
-4.2716535433070861
11
1.0905511811023623
21
-4.2716535433070861
0
LINE
8
BLACK
6
CONTINUOUS
10
1.0905511811023623
20
-4.2716535433070861
11
1.0943177559055117
21
-4.272402755905512
0
LINE
8
BLACK
6
CONTINUOUS
10
0.9565224803149606
20
-4.1661035433070861
11
0.9597156299212598
21
-4.1682371259842519
0
LINE
8
BLACK
6
CONTINUOUS
10
0.9597156299212598
20
-4.1682371259842519
11
0.9618492125984252
21
-4.1714302755905512
0
LINE
8
BLACK
6
CONTINUOUS
10
0.9618492125984252
20
-4.1714302755905512
11
0.9625984251968503
21
-4.1751968503937009
0
LINE
8
BLACK
6
CONTINUOUS
10
0.9625984251968503
20
-4.1751968503937009
11
0.9625984251968503
21
-4.2185039370078741
0
LINE
8
BLACK
6
CONTINUOUS
10
0.9625984251968503
20
-4.2185039370078741
11
0.9618492125984252
21
-4.2222705118110238
0
LINE
8
BLACK
6
CONTINUOUS
10
0.9618492125984252
20
-4.2222705118110238
11
0.9597156299212598
21
-4.2254636614173231
0
LINE
8
BLACK
6
CONTINUOUS
10
0.9597156299212598
20
-4.2254636614173231
11
0.9565224803149606
21
-4.227597244094488
0
LINE
8
BLACK
6
CONTINUOUS
10
0.9565224803149606
20
-4.227597244094488
11
0.952755905511811
21
-4.228346456692913
0
LINE
8
BLACK
6
CONTINUOUS
10
0.952755905511811
20
-4.228346456692913
11
0.8543307086614172
21
-4.228346456692913
0
LINE
8
BLACK
6
CONTINUOUS
10
0.8543307086614172
20
-4.228346456692913
11
0.8505641338582677
21
-4.227597244094488
0
LINE
8
BLACK
6
CONTINUOUS
10
0.8505641338582677
20
-4.227597244094488
11
0.8473709842519684
21
-4.2254636614173231
0
LINE
8
BLACK
6
CONTINUOUS
10
0.8473709842519684
20
-4.2254636614173231
11
0.8452374015748031
21
-4.2222705118110238
0
LINE
8
BLACK
6
CONTINUOUS
10
0.8452374015748031
20
-4.2222705118110238
11
0.8444881889763779
21
-4.2185039370078741
0
LINE
8
BLACK
6
CONTINUOUS
10
0.8444881889763779
20
-4.2185039370078741
11
0.8444881889763779
21
-4.1751968503937009
0
LINE
8
BLACK
6
CONTINUOUS
10
0.8444881889763779
20
-4.1751968503937009
11
0.8452374015748031
21
-4.1714302755905512
0
LINE
8
BLACK
6
CONTINUOUS
10
0.8452374015748031
20
-4.1714302755905512
11
0.8473709842519684
21
-4.1682371259842519
0
LINE
8
BLACK
6
CONTINUOUS
10
0.8473709842519684
20
-4.1682371259842519
11
0.8505641338582677
21
-4.1661035433070861
0
LINE
8
BLACK
6
CONTINUOUS
10
0.8505641338582677
20
-4.1661035433070861
11
0.8543307086614172
21
-4.1653543307086611
0
LINE
8
BLACK
6
CONTINUOUS
10
0.8543307086614172
20
-4.1653543307086611
11
0.952755905511811
21
-4.1653543307086611
0
LINE
8
BLACK
6
CONTINUOUS
10
0.952755905511811
20
-4.1653543307086611
11
0.9565224803149606
21
-4.1661035433070861
0
LINE
8
BLACK
6
CONTINUOUS
10
5.9424409448818896
20
-2.4831811023622046
11
5.875511811023622
21
-2.4831811023622046
0
LINE
8
BLACK
6
CONTINUOUS
10
5.875511811023622
20
-2.4831811023622046
11
5.875511811023622
21
-2.3414488188976379
0
LINE
8
BLACK
6
CONTINUOUS
10
5.875511811023622
20
-2.3414488188976379
11
5.9424409448818896
21
-2.3414488188976379
0
LINE
8
BLACK
6
CONTINUOUS
10
5.9424409448818896
20
-2.3414488188976379
11
5.9424409448818896
21
-2.4831811023622046
0
LINE
8
BLACK
6
CONTINUOUS
10
5.61869062992126
20
-2.3448583070866142
11
5.6247514566929135
21
-2.3473687795275588
0
LINE
8
BLACK
6
CONTINUOUS
10
5.6247514566929135
20
-2.3473687795275588
11
5.6302060629921256
21
-2.3510134251968502
0
LINE
8
BLACK
6
CONTINUOUS
10
5.6302060629921256
20
-2.3510134251968502
11
5.6348448425196853
21
-2.3556522047244095
0
LINE
8
BLACK
6
CONTINUOUS
10
5.6348448425196853
20
-2.3556522047244095
11
5.6384894881889762
21
-2.361106811023622
0
LINE
8
BLACK
6
CONTINUOUS
10
5.6384894881889762
20
-2.361106811023622
11
5.6409999606299213
21
-2.3671676377952755
0
LINE
8
BLACK
6
CONTINUOUS
10
5.6409999606299213
20
-2.3671676377952755
11
5.6422798031496058
21
-2.3736017716535431
0
LINE
8
BLACK
6
CONTINUOUS
10
5.6422798031496058
20
-2.3736017716535431
11
5.6424409448818897
21
-2.3768818897637796
0
LINE
8
BLACK
6
CONTINUOUS
10
5.6424409448818897
20
-2.3768818897637796
11
5.6424409448818897
21
-2.4477480314960629
0
LINE
8
BLACK
6
CONTINUOUS
10
5.6424409448818897
20
-2.4477480314960629
11
5.6422798031496058
21
-2.4510281496062993
0
LINE
8
BLACK
6
CONTINUOUS
10
5.6422798031496058
20
-2.4510281496062993
11
5.6409999606299213
21
-2.457462283464567
0
LINE
8
BLACK
6
CONTINUOUS
10
5.6409999606299213
20
-2.457462283464567
11
5.6384894881889762
21
-2.4635231102362205
0
LINE
8
BLACK
6
CONTINUOUS
10
5.6384894881889762
20
-2.4635231102362205
11
5.6348448425196853
21
-2.468977716535433
0
LINE
8
BLACK
6
CONTINUOUS
10
5.6348448425196853
20
-2.468977716535433
11
5.6302060629921256
21
-2.4736164960629923
0
LINE
8
BLACK
6
CONTINUOUS
10
5.6302060629921256
20
-2.4736164960629923
11
5.6247514566929135
21
-2.4772611417322836
0
LINE
8
BLACK
6
CONTINUOUS
10
5.6247514566929135
20
-2.4772611417322836
11
5.61869062992126
21
-2.4797716141732282
0
LINE
8
BLACK
6
CONTINUOUS
10
5.61869062992126
20
-2.4797716141732282
11
5.6122564960629919
21
-2.4810514566929132
0
LINE
8
BLACK
6
CONTINUOUS
10
5.6122564960629919
20
-2.4810514566929132
11
5.60569625984252
21
-2.4810514566929132
0
LINE
8
BLACK
6
CONTINUOUS
10
5.60569625984252
20
-2.4810514566929132
11
5.5992621259842519
21
-2.4797716141732282
0
LINE
8
BLACK
6
CONTINUOUS
10
5.5992621259842519
20
-2.4797716141732282
11
5.5932012992125983
21
-2.4772611417322836
0
LINE
8
BLACK
6
CONTINUOUS
10
5.5932012992125983
20
-2.4772611417322836
11
5.5877466929133854
21
-2.4736164960629923
0
LINE
8
BLACK
6
CONTINUOUS
10
5.5877466929133854
20
-2.4736164960629923
11
5.5831079133858266
21
-2.468977716535433
0
LINE
8
BLACK
6
CONTINUOUS
10
5.5831079133858266
20
-2.468977716535433
11
5.5794632677165357
21
-2.4635231102362205
0
LINE
8
BLACK
6
CONTINUOUS
10
5.5794632677165357
20
-2.4635231102362205
11
5.5769527952755906
21
-2.457462283464567
0
LINE
8
BLACK
6
CONTINUOUS
10
5.5769527952755906
20
-2.457462283464567
11
5.5756729527559052
21
-2.4510281496062993
0
LINE
8
BLACK
6
CONTINUOUS
10
5.5756729527559052
20
-2.4510281496062993
11
5.5755118110236221
21
-2.4477480314960629
0
LINE
8
BLACK
6
CONTINUOUS
10
5.5755118110236221
20
-2.4477480314960629
11
5.5755118110236221
21
-2.3768818897637796
0
LINE
8
BLACK
6
CONTINUOUS
10
5.5755118110236221
20
-2.3768818897637796
11
5.5756729527559052
21
-2.3736017716535431
0
LINE
8
BLACK
6
CONTINUOUS
10
5.5756729527559052
20
-2.3736017716535431
11
5.5769527952755906
21
-2.3671676377952755
0
LINE
8
BLACK
6
CONTINUOUS
10
5.5769527952755906
20
-2.3671676377952755
11
5.5794632677165357
21
-2.361106811023622
0
LINE
8
BLACK
6
CONTINUOUS
10
5.5794632677165357
20
-2.361106811023622
11
5.5831079133858266
21
-2.3556522047244095
0
LINE
8
BLACK
6
CONTINUOUS
10
5.5831079133858266
20
-2.3556522047244095
11
5.5877466929133854
21
-2.3510134251968502
0
LINE
8
BLACK
6
CONTINUOUS
10
5.5877466929133854
20
-2.3510134251968502
11
5.5932012992125983
21
-2.3473687795275588
0
LINE
8
BLACK
6
CONTINUOUS
10
5.5932012992125983
20
-2.3473687795275588
11
5.5992621259842519
21
-2.3448583070866142
0
LINE
8
BLACK
6
CONTINUOUS
10
5.5992621259842519
20
-2.3448583070866142
11
5.60569625984252
21
-2.3435784645669289
0
LINE
8
BLACK
6
CONTINUOUS
10
5.60569625984252
20
-2.3435784645669289
11
5.6122564960629919
21
-2.3435784645669289
0
LINE
8
BLACK
6
CONTINUOUS
10
5.6122564960629919
20
-2.3435784645669289
11
5.61869062992126
21
-2.3448583070866142
0
LINE
8
BLACK
6
CONTINUOUS
10
5.7186906299212596
20
-2.3448583070866142
11
5.7247514566929132
21
-2.3473687795275588
0
LINE
8
BLACK
6
CONTINUOUS
10
5.7247514566929132
20
-2.3473687795275588
11
5.7302060629921261
21
-2.3510134251968502
0
LINE
8
BLACK
6
CONTINUOUS
10
5.7302060629921261
20
-2.3510134251968502
11
5.734844842519685
21
-2.3556522047244095
0
LINE
8
BLACK
6
CONTINUOUS
10
5.734844842519685
20
-2.3556522047244095
11
5.7384894881889759
21
-2.361106811023622
0
LINE
8
BLACK
6
CONTINUOUS
10
5.7384894881889759
20
-2.361106811023622
11
5.7409999606299209
21
-2.3671676377952755
0
LINE
8
BLACK
6
CONTINUOUS
10
5.7409999606299209
20
-2.3671676377952755
11
5.7422798031496063
21
-2.3736017716535431
0
LINE
8
BLACK
6
CONTINUOUS
10
5.7422798031496063
20
-2.3736017716535431
11
5.7424409448818894
21
-2.3768818897637796
0
LINE
8
BLACK
6
CONTINUOUS
10
5.7424409448818894
20
-2.3768818897637796
11
5.7424409448818894
21
-2.4477480314960629
0
LINE
8
BLACK
6
CONTINUOUS
10
5.7424409448818894
20
-2.4477480314960629
11
5.7422798031496063
21
-2.4510281496062993
0
LINE
8
BLACK
6
CONTINUOUS
10
5.7422798031496063
20
-2.4510281496062993
11
5.7409999606299209
21
-2.457462283464567
0
LINE
8
BLACK
6
CONTINUOUS
10
5.7409999606299209
20
-2.457462283464567
11
5.7384894881889759
21
-2.4635231102362205
0
LINE
8
BLACK
6
CONTINUOUS
10
5.7384894881889759
20
-2.4635231102362205
11
5.734844842519685
21
-2.468977716535433
0
LINE
8
BLACK
6
CONTINUOUS
10
5.734844842519685
20
-2.468977716535433
11
5.7302060629921261
21
-2.4736164960629923
0
LINE
8
BLACK
6
CONTINUOUS
10
5.7302060629921261
20
-2.4736164960629923
11
5.7247514566929132
21
-2.4772611417322836
0
LINE
8
BLACK
6
CONTINUOUS
10
5.7247514566929132
20
-2.4772611417322836
11
5.7186906299212596
21
-2.4797716141732282
0
LINE
8
BLACK
6
CONTINUOUS
10
5.7186906299212596
20
-2.4797716141732282
11
5.7122564960629916
21
-2.4810514566929132
0
LINE
8
BLACK
6
CONTINUOUS
10
5.7122564960629916
20
-2.4810514566929132
11
5.7056962598425196
21
-2.4810514566929132
0
LINE
8
BLACK
6
CONTINUOUS
10
5.7056962598425196
20
-2.4810514566929132
11
5.6992621259842515
21
-2.4797716141732282
0
LINE
8
BLACK
6
CONTINUOUS
10
5.6992621259842515
20
-2.4797716141732282
11
5.693201299212598
21
-2.4772611417322836
0
LINE
8
BLACK
6
CONTINUOUS
10
5.693201299212598
20
-2.4772611417322836
11
5.687746692913386
21
-2.4736164960629923
0
LINE
8
BLACK
6
CONTINUOUS
10
5.687746692913386
20
-2.4736164960629923
11
5.6831079133858262
21
-2.468977716535433
0
LINE
8
BLACK
6
CONTINUOUS
10
5.6831079133858262
20
-2.468977716535433
11
5.6794632677165353
21
-2.4635231102362205
0
LINE
8
BLACK
6
CONTINUOUS
10
5.6794632677165353
20
-2.4635231102362205
11
5.6769527952755903
21
-2.457462283464567
0
LINE
8
BLACK
6
CONTINUOUS
10
5.6769527952755903
20
-2.457462283464567
11
5.6756729527559058
21
-2.4510281496062993
0
LINE
8
BLACK
6
CONTINUOUS
10
5.6756729527559058
20
-2.4510281496062993
11
5.6755118110236218
21
-2.4477480314960629
0
LINE
8
BLACK
6
CONTINUOUS
10
5.6755118110236218
20
-2.4477480314960629
11
5.6755118110236218
21
-2.3768818897637796
0
LINE
8
BLACK
6
CONTINUOUS
10
5.6755118110236218
20
-2.3768818897637796
11
5.6756729527559058
21
-2.3736017716535431
0
LINE
8
BLACK
6
CONTINUOUS
10
5.6756729527559058
20
-2.3736017716535431
11
5.6769527952755903
21
-2.3671676377952755
0
LINE
8
BLACK
6
CONTINUOUS
10
5.6769527952755903
20
-2.3671676377952755
11
5.6794632677165353
21
-2.361106811023622
0
LINE
8
BLACK
6
CONTINUOUS
10
5.6794632677165353
20
-2.361106811023622
11
5.6831079133858262
21
-2.3556522047244095
0
LINE
8
BLACK
6
CONTINUOUS
10
5.6831079133858262
20
-2.3556522047244095
11
5.687746692913386
21
-2.3510134251968502
0
LINE
8
BLACK
6
CONTINUOUS
10
5.687746692913386
20
-2.3510134251968502
11
5.693201299212598
21
-2.3473687795275588
0
LINE
8
BLACK
6
CONTINUOUS
10
5.693201299212598
20
-2.3473687795275588
11
5.6992621259842515
21
-2.3448583070866142
0
LINE
8
BLACK
6
CONTINUOUS
10
5.6992621259842515
20
-2.3448583070866142
11
5.7056962598425196
21
-2.3435784645669289
0
LINE
8
BLACK
6
CONTINUOUS
10
5.7056962598425196
20
-2.3435784645669289
11
5.7122564960629916
21
-2.3435784645669289
0
LINE
8
BLACK
6
CONTINUOUS
10
5.7122564960629916
20
-2.3435784645669289
11
5.7186906299212596
21
-2.3448583070866142
0
LINE
8
BLACK
6
CONTINUOUS
10
5.8186906299212593
20
-2.3448583070866142
11
5.8247514566929128
21
-2.3473687795275588
0
LINE
8
BLACK
6
CONTINUOUS
10
5.8247514566929128
20
-2.3473687795275588
11
5.8302060629921257
21
-2.3510134251968502
0
LINE
8
BLACK
6
CONTINUOUS
10
5.8302060629921257
20
-2.3510134251968502
11
5.8348448425196846
21
-2.3556522047244095
0
LINE
8
BLACK
6
CONTINUOUS
10
5.8348448425196846
20
-2.3556522047244095
11
5.8384894881889764
21
-2.361106811023622
0
LINE
8
BLACK
6
CONTINUOUS
10
5.8384894881889764
20
-2.361106811023622
11
5.8409999606299214
21
-2.3671676377952755
0
LINE
8
BLACK
6
CONTINUOUS
10
5.8409999606299214
20
-2.3671676377952755
11
5.8422798031496059
21
-2.3736017716535431
0
LINE
8
BLACK
6
CONTINUOUS
10
5.8422798031496059
20
-2.3736017716535431
11
5.8424409448818899
21
-2.3768818897637796
0
LINE
8
BLACK
6
CONTINUOUS
10
5.8424409448818899
20
-2.3768818897637796
11
5.8424409448818899
21
-2.4477480314960629
0
LINE
8
BLACK
6
CONTINUOUS
10
5.8424409448818899
20
-2.4477480314960629
11
5.8422798031496059
21
-2.4510281496062993
0
LINE
8
BLACK
6
CONTINUOUS
10
5.8422798031496059
20
-2.4510281496062993
11
5.8409999606299214
21
-2.457462283464567
0
LINE
8
BLACK
6
CONTINUOUS
10
5.8409999606299214
20
-2.457462283464567
11
5.8384894881889764
21
-2.4635231102362205
0
LINE
8
BLACK
6
CONTINUOUS
10
5.8384894881889764
20
-2.4635231102362205
11
5.8348448425196846
21
-2.468977716535433
0
LINE
8
BLACK
6
CONTINUOUS
10
5.8348448425196846
20
-2.468977716535433
11
5.8302060629921257
21
-2.4736164960629923
0
LINE
8
BLACK
6
CONTINUOUS
10
5.8302060629921257
20
-2.4736164960629923
11
5.8247514566929128
21
-2.4772611417322836
0
LINE
8
BLACK
6
CONTINUOUS
10
5.8247514566929128
20
-2.4772611417322836
11
5.8186906299212593
21
-2.4797716141732282
0
LINE
8
BLACK
6
CONTINUOUS
10
5.8186906299212593
20
-2.4797716141732282
11
5.8122564960629921
21
-2.4810514566929132
0
LINE
8
BLACK
6
CONTINUOUS
10
5.8122564960629921
20
-2.4810514566929132
11
5.8056962598425192
21
-2.4810514566929132
0
LINE
8
BLACK
6
CONTINUOUS
10
5.8056962598425192
20
-2.4810514566929132
11
5.7992621259842521
21
-2.4797716141732282
0
LINE
8
BLACK
6
CONTINUOUS
10
5.7992621259842521
20
-2.4797716141732282
11
5.7932012992125985
21
-2.4772611417322836
0
LINE
8
BLACK
6
CONTINUOUS
10
5.7932012992125985
20
-2.4772611417322836
11
5.7877466929133856
21
-2.4736164960629923
0
LINE
8
BLACK
6
CONTINUOUS
10
5.7877466929133856
20
-2.4736164960629923
11
5.7831079133858267
21
-2.468977716535433
0
LINE
8
BLACK
6
CONTINUOUS
10
5.7831079133858267
20
-2.468977716535433
11
5.779463267716535
21
-2.4635231102362205
0
LINE
8
BLACK
6
CONTINUOUS
10
5.779463267716535
20
-2.4635231102362205
11
5.7769527952755908
21
-2.457462283464567
0
LINE
8
BLACK
6
CONTINUOUS
10
5.7769527952755908
20
-2.457462283464567
11
5.7756729527559054
21
-2.4510281496062993
0
LINE
8
BLACK
6
CONTINUOUS
10
5.7756729527559054
20
-2.4510281496062993
11
5.7755118110236223
21
-2.4477480314960629
0
LINE
8
BLACK
6
CONTINUOUS
10
5.7755118110236223
20
-2.4477480314960629
11
5.7755118110236223
21
-2.3768818897637796
0
LINE
8
BLACK
6
CONTINUOUS
10
5.7755118110236223
20
-2.3768818897637796
11
5.7756729527559054
21
-2.3736017716535431
0
LINE
8
BLACK
6
CONTINUOUS
10
5.7756729527559054
20
-2.3736017716535431
11
5.7769527952755908
21
-2.3671676377952755
0
LINE
8
BLACK
6
CONTINUOUS
10
5.7769527952755908
20
-2.3671676377952755
11
5.779463267716535
21
-2.361106811023622
0
LINE
8
BLACK
6
CONTINUOUS
10
5.779463267716535
20
-2.361106811023622
11
5.7831079133858267
21
-2.3556522047244095
0
LINE
8
BLACK
6
CONTINUOUS
10
5.7831079133858267
20
-2.3556522047244095
11
5.7877466929133856
21
-2.3510134251968502
0
LINE
8
BLACK
6
CONTINUOUS
10
5.7877466929133856
20
-2.3510134251968502
11
5.7932012992125985
21
-2.3473687795275588
0
LINE
8
BLACK
6
CONTINUOUS
10
5.7932012992125985
20
-2.3473687795275588
11
5.7992621259842521
21
-2.3448583070866142
0
LINE
8
BLACK
6
CONTINUOUS
10
5.7992621259842521
20
-2.3448583070866142
11
5.8056962598425192
21
-2.3435784645669289
0
LINE
8
BLACK
6
CONTINUOUS
10
5.8056962598425192
20
-2.3435784645669289
11
5.8122564960629921
21
-2.3435784645669289
0
LINE
8
BLACK
6
CONTINUOUS
10
5.8122564960629921
20
-2.3435784645669289
11
5.8186906299212593
21
-2.3448583070866142
0
LINE
8
BLACK
6
CONTINUOUS
10
5.1773561023622046
20
-2.3452824803149608
11
5.1851109448818899
21
-2.3476348818897637
0
LINE
8
BLACK
6
CONTINUOUS
10
5.1851109448818899
20
-2.3476348818897637
11
5.1922578346456696
21
-2.3514550000000001
0
LINE
8
BLACK
6
CONTINUOUS
10
5.1922578346456696
20
-2.3514550000000001
11
5.198522125984252
21
-2.3565959842519684
0
LINE
8
BLACK
6
CONTINUOUS
10
5.198522125984252
20
-2.3565959842519684
11
5.2036631102362207
21
-2.3628602755905512
0
LINE
8
BLACK
6
CONTINUOUS
10
5.2036631102362207
20
-2.3628602755905512
11
5.2074832283464563
21
-2.3700071653543309
0
LINE
8
BLACK
6
CONTINUOUS
10
5.2074832283464563
20
-2.3700071653543309
11
5.20983562992126
21
-2.3777620078740158
0
LINE
8
BLACK
6
CONTINUOUS
10
5.20983562992126
20
-2.3777620078740158
11
5.2106299212598426
21
-2.3858267716535431
0
LINE
8
BLACK
6
CONTINUOUS
10
5.2106299212598426
20
-2.3858267716535431
11
5.20983562992126
21
-2.3938915354330708
0
LINE
8
BLACK
6
CONTINUOUS
10
5.20983562992126
20
-2.3938915354330708
11
5.2074832283464563
21
-2.4016463779527557
0
LINE
8
BLACK
6
CONTINUOUS
10
5.2074832283464563
20
-2.4016463779527557
11
5.2036631102362207
21
-2.4087932677165353
0
LINE
8
BLACK
6
CONTINUOUS
10
5.2036631102362207
20
-2.4087932677165353
11
5.198522125984252
21
-2.4150575590551182
0
LINE
8
BLACK
6
CONTINUOUS
10
5.198522125984252
20
-2.4150575590551182
11
5.1922578346456696
21
-2.4201985433070865
0
LINE
8
BLACK
6
CONTINUOUS
10
5.1922578346456696
20
-2.4201985433070865
11
5.1851109448818899
21
-2.4240186614173229
0
LINE
8
BLACK
6
CONTINUOUS
10
5.1851109448818899
20
-2.4240186614173229
11
5.1773561023622046
21
-2.4263710629921258
0
LINE
8
BLACK
6
CONTINUOUS
10
5.1773561023622046
20
-2.4263710629921258
11
5.1692913385826769
21
-2.4271653543307088
0
LINE
8
BLACK
6
CONTINUOUS
10
5.1692913385826769
20
-2.4271653543307088
11
5.1612265748031492
21
-2.4263710629921258
0
LINE
8
BLACK
6
CONTINUOUS
10
5.1612265748031492
20
-2.4263710629921258
11
5.1534717322834647
21
-2.4240186614173229
0
LINE
8
BLACK
6
CONTINUOUS
10
5.1534717322834647
20
-2.4240186614173229
11
5.146324842519685
21
-2.4201985433070865
0
LINE
8
BLACK
6
CONTINUOUS
10
5.146324842519685
20
-2.4201985433070865
11
5.1400605511811026
21
-2.4150575590551182
0
LINE
8
BLACK
6
CONTINUOUS
10
5.1400605511811026
20
-2.4150575590551182
11
5.1349195669291339
21
-2.4087932677165353
0
LINE
8
BLACK
6
CONTINUOUS
10
5.1349195669291339
20
-2.4087932677165353
11
5.1310994488188975
21
-2.4016463779527557
0
LINE
8
BLACK
6
CONTINUOUS
10
5.1310994488188975
20
-2.4016463779527557
11
5.1287470472440946
21
-2.3938915354330708
0
LINE
8
BLACK
6
CONTINUOUS
10
5.1287470472440946
20
-2.3938915354330708
11
5.127952755905512
21
-2.3858267716535431
0
LINE
8
BLACK
6
CONTINUOUS
10
5.127952755905512
20
-2.3858267716535431
11
5.1287470472440946
21
-2.3777620078740158
0
LINE
8
BLACK
6
CONTINUOUS
10
5.1287470472440946
20
-2.3777620078740158
11
5.1310994488188975
21
-2.3700071653543309
0
LINE
8
BLACK
6
CONTINUOUS
10
5.1310994488188975
20
-2.3700071653543309
11
5.1349195669291339
21
-2.3628602755905512
0
LINE
8
BLACK
6
CONTINUOUS
10
5.1349195669291339
20
-2.3628602755905512
11
5.1400605511811026
21
-2.3565959842519684
0
LINE
8
BLACK
6
CONTINUOUS
10
5.1400605511811026
20
-2.3565959842519684
11
5.146324842519685
21
-2.3514550000000001
0
LINE
8
BLACK
6
CONTINUOUS
10
5.146324842519685
20
-2.3514550000000001
11
5.1534717322834647
21
-2.3476348818897637
0
LINE
8
BLACK
6
CONTINUOUS
10
5.1534717322834647
20
-2.3476348818897637
11
5.1612265748031492
21
-2.3452824803149608
0
LINE
8
BLACK
6
CONTINUOUS
10
5.1612265748031492
20
-2.3452824803149608
11
5.1692913385826769
21
-2.3444881889763778
0
LINE
8
BLACK
6
CONTINUOUS
10
5.1692913385826769
20
-2.3444881889763778
11
5.1773561023622046
21
-2.3452824803149608
0
LINE
8
BLACK
6
CONTINUOUS
10
6.3584584645669286
20
-2.3452824803149608
11
6.366213307086614
21
-2.3476348818897637
0
LINE
8
BLACK
6
CONTINUOUS
10
6.366213307086614
20
-2.3476348818897637
11
6.3733601968503937
21
-2.3514550000000001
0
LINE
8
BLACK
6
CONTINUOUS
10
6.3733601968503937
20
-2.3514550000000001
11
6.3796244881889761
21
-2.3565959842519684
0
LINE
8
BLACK
6
CONTINUOUS
10
6.3796244881889761
20
-2.3565959842519684
11
6.3847654724409448
21
-2.3628602755905512
0
LINE
8
BLACK
6
CONTINUOUS
10
6.3847654724409448
20
-2.3628602755905512
11
6.3885855905511812
21
-2.3700071653543309
0
LINE
8
BLACK
6
CONTINUOUS
10
6.3885855905511812
20
-2.3700071653543309
11
6.3909379921259841
21
-2.3777620078740158
0
LINE
8
BLACK
6
CONTINUOUS
10
6.3909379921259841
20
-2.3777620078740158
11
6.3917322834645667
21
-2.3858267716535431
0
LINE
8
BLACK
6
CONTINUOUS
10
6.3917322834645667
20
-2.3858267716535431
11
6.3909379921259841
21
-2.3938915354330708
0
LINE
8
BLACK
6
CONTINUOUS
10
6.3909379921259841
20
-2.3938915354330708
11
6.3885855905511812
21
-2.4016463779527557
0
LINE
8
BLACK
6
CONTINUOUS
10
6.3885855905511812
20
-2.4016463779527557
11
6.3847654724409448
21
-2.4087932677165353
0
LINE
8
BLACK
6
CONTINUOUS
10
6.3847654724409448
20
-2.4087932677165353
11
6.3796244881889761
21
-2.4150575590551182
0
LINE
8
BLACK
6
CONTINUOUS
10
6.3796244881889761
20
-2.4150575590551182
11
6.3733601968503937
21
-2.4201985433070865
0
LINE
8
BLACK
6
CONTINUOUS
10
6.3733601968503937
20
-2.4201985433070865
11
6.366213307086614
21
-2.4240186614173229
0
LINE
8
BLACK
6
CONTINUOUS
10
6.366213307086614
20
-2.4240186614173229
11
6.3584584645669286
21
-2.4263710629921258
0
LINE
8
BLACK
6
CONTINUOUS
10
6.3584584645669286
20
-2.4263710629921258
11
6.3503937007874018
21
-2.4271653543307088
0
LINE
8
BLACK
6
CONTINUOUS
10
6.3503937007874018
20
-2.4271653543307088
11
6.3423289370078741
21
-2.4263710629921258
0
LINE
8
BLACK
6
CONTINUOUS
10
6.3423289370078741
20
-2.4263710629921258
11
6.3345740944881888
21
-2.4240186614173229
0
LINE
8
BLACK
6
CONTINUOUS
10
6.3345740944881888
20
-2.4240186614173229
11
6.3274272047244091
21
-2.4201985433070865
0
LINE
8
BLACK
6
CONTINUOUS
10
6.3274272047244091
20
-2.4201985433070865
11
6.3211629133858267
21
-2.4150575590551182
0
LINE
8
BLACK
6
CONTINUOUS
10
6.3211629133858267
20
-2.4150575590551182
11
6.316021929133858
21
-2.4087932677165353
0
LINE
8
BLACK
6
CONTINUOUS
10
6.316021929133858
20
-2.4087932677165353
11
6.3122018110236215
21
-2.4016463779527557
0
LINE
8
BLACK
6
CONTINUOUS
10
6.3122018110236215
20
-2.4016463779527557
11
6.3098494094488187
21
-2.3938915354330708
0
LINE
8
BLACK
6
CONTINUOUS
10
6.3098494094488187
20
-2.3938915354330708
11
6.3090551181102361
21
-2.3858267716535431
0
LINE
8
BLACK
6
CONTINUOUS
10
6.3090551181102361
20
-2.3858267716535431
11
6.3098494094488187
21
-2.3777620078740158
0
LINE
8
BLACK
6
CONTINUOUS
10
6.3098494094488187
20
-2.3777620078740158
11
6.3122018110236215
21
-2.3700071653543309
0
LINE
8
BLACK
6
CONTINUOUS
10
6.3122018110236215
20
-2.3700071653543309
11
6.316021929133858
21
-2.3628602755905512
0
LINE
8
BLACK
6
CONTINUOUS
10
6.316021929133858
20
-2.3628602755905512
11
6.3211629133858267
21
-2.3565959842519684
0
LINE
8
BLACK
6
CONTINUOUS
10
6.3211629133858267
20
-2.3565959842519684
11
6.3274272047244091
21
-2.3514550000000001
0
LINE
8
BLACK
6
CONTINUOUS
10
6.3274272047244091
20
-2.3514550000000001
11
6.3345740944881888
21
-2.3476348818897637
0
LINE
8
BLACK
6
CONTINUOUS
10
6.3345740944881888
20
-2.3476348818897637
11
6.3423289370078741
21
-2.3452824803149608
0
LINE
8
BLACK
6
CONTINUOUS
10
6.3423289370078741
20
-2.3452824803149608
11
6.3503937007874018
21
-2.3444881889763778
0
LINE
8
BLACK
6
CONTINUOUS
10
6.3503937007874018
20
-2.3444881889763778
11
6.3584584645669286
21
-2.3452824803149608
0
LINE
8
BLACK
6
CONTINUOUS
10
2.6727559055118109
20
-2.4123149606299212
11
2.6058267716535433
21
-2.4123149606299212
0
LINE
8
BLACK
6
CONTINUOUS
10
2.6058267716535433
20
-2.4123149606299212
11
2.6058267716535433
21
-2.2705826771653541
0
LINE
8
BLACK
6
CONTINUOUS
10
2.6058267716535433
20
-2.2705826771653541
11
2.6727559055118109
21
-2.2705826771653541
0
LINE
8
BLACK
6
CONTINUOUS
10
2.6727559055118109
20
-2.2705826771653541
11
2.6727559055118109
21
-2.4123149606299212
0
LINE
8
BLACK
6
CONTINUOUS
10
2.3490055905511809
20
-2.2739921653543305
11
2.3550664173228344
21
-2.2765026377952755
0
LINE
8
BLACK
6
CONTINUOUS
10
2.3550664173228344
20
-2.2765026377952755
11
2.3605210236220473
21
-2.2801472834645669
0
LINE
8
BLACK
6
CONTINUOUS
10
2.3605210236220473
20
-2.2801472834645669
11
2.3651598031496062
21
-2.2847860629921257
0
LINE
8
BLACK
6
CONTINUOUS
10
2.3651598031496062
20
-2.2847860629921257
11
2.3688044488188975
21
-2.2902406692913386
0
LINE
8
BLACK
6
CONTINUOUS
10
2.3688044488188975
20
-2.2902406692913386
11
2.3713149212598426
21
-2.2963014960629922
0
LINE
8
BLACK
6
CONTINUOUS
10
2.3713149212598426
20
-2.2963014960629922
11
2.3725947637795275
21
-2.3027356299212598
0
LINE
8
BLACK
6
CONTINUOUS
10
2.3725947637795275
20
-2.3027356299212598
11
2.372755905511811
21
-2.3060157480314962
0
LINE
8
BLACK
6
CONTINUOUS
10
2.372755905511811
20
-2.3060157480314962
11
2.372755905511811
21
-2.3768818897637796
0
LINE
8
BLACK
6
CONTINUOUS
10
2.372755905511811
20
-2.3768818897637796
11
2.3725947637795275
21
-2.3801620078740156
0
LINE
8
BLACK
6
CONTINUOUS
10
2.3725947637795275
20
-2.3801620078740156
11
2.3713149212598426
21
-2.3865961417322836
0
LINE
8
BLACK
6
CONTINUOUS
10
2.3713149212598426
20
-2.3865961417322836
11
2.3688044488188975
21
-2.3926569685039372
0
LINE
8
BLACK
6
CONTINUOUS
10
2.3688044488188975
20
-2.3926569685039372
11
2.3651598031496062
21
-2.3981115748031496
0
LINE
8
BLACK
6
CONTINUOUS
10
2.3651598031496062
20
-2.3981115748031496
11
2.3605210236220473
21
-2.4027503543307085
0
LINE
8
BLACK
6
CONTINUOUS
10
2.3605210236220473
20
-2.4027503543307085
11
2.3550664173228344
21
-2.4063949999999998
0
LINE
8
BLACK
6
CONTINUOUS
10
2.3550664173228344
20
-2.4063949999999998
11
2.3490055905511809
21
-2.4089054724409449
0
LINE
8
BLACK
6
CONTINUOUS
10
2.3490055905511809
20
-2.4089054724409449
11
2.3425714566929132
21
-2.4101853149606298
0
LINE
8
BLACK
6
CONTINUOUS
10
2.3425714566929132
20
-2.4101853149606298
11
2.3360112204724408
21
-2.4101853149606298
0
LINE
8
BLACK
6
CONTINUOUS
10
2.3360112204724408
20
-2.4101853149606298
11
2.3295770866141732
21
-2.4089054724409449
0
LINE
8
BLACK
6
CONTINUOUS
10
2.3295770866141732
20
-2.4089054724409449
11
2.3235162598425196
21
-2.4063949999999998
0
LINE
8
BLACK
6
CONTINUOUS
10
2.3235162598425196
20
-2.4063949999999998
11
2.3180616535433072
21
-2.4027503543307085
0
LINE
8
BLACK
6
CONTINUOUS
10
2.3180616535433072
20
-2.4027503543307085
11
2.3134228740157479
21
-2.3981115748031496
0
LINE
8
BLACK
6
CONTINUOUS
10
2.3134228740157479
20
-2.3981115748031496
11
2.3097782283464565
21
-2.3926569685039372
0
LINE
8
BLACK
6
CONTINUOUS
10
2.3097782283464565
20
-2.3926569685039372
11
2.3072677559055119
21
-2.3865961417322836
0
LINE
8
BLACK
6
CONTINUOUS
10
2.3072677559055119
20
-2.3865961417322836
11
2.3059879133858265
21
-2.3801620078740156
0
LINE
8
BLACK
6
CONTINUOUS
10
2.3059879133858265
20
-2.3801620078740156
11
2.3058267716535434
21
-2.3768818897637796
0
LINE
8
BLACK
6
CONTINUOUS
10
2.3058267716535434
20
-2.3768818897637796
11
2.3058267716535434
21
-2.3060157480314962
0
LINE
8
BLACK
6
CONTINUOUS
10
2.3058267716535434
20
-2.3060157480314962
11
2.3059879133858265
21
-2.3027356299212598
0
LINE
8
BLACK
6
CONTINUOUS
10
2.3059879133858265
20
-2.3027356299212598
11
2.3072677559055119
21
-2.2963014960629922
0
LINE
8
BLACK
6
CONTINUOUS
10
2.3072677559055119
20
-2.2963014960629922
11
2.3097782283464565
21
-2.2902406692913386
0
LINE
8
BLACK
6
CONTINUOUS
10
2.3097782283464565
20
-2.2902406692913386
11
2.3134228740157479
21
-2.2847860629921257
0
LINE
8
BLACK
6
CONTINUOUS
10
2.3134228740157479
20
-2.2847860629921257
11
2.3180616535433072
21
-2.2801472834645669
0
LINE
8
BLACK
6
CONTINUOUS
10
2.3180616535433072
20
-2.2801472834645669
11
2.3235162598425196
21
-2.2765026377952755
0
LINE
8
BLACK
6
CONTINUOUS
10
2.3235162598425196
20
-2.2765026377952755
11
2.3295770866141732
21
-2.2739921653543305
0
LINE
8
BLACK
6
CONTINUOUS
10
2.3295770866141732
20
-2.2739921653543305
11
2.3360112204724408
21
-2.2727123228346455
0
LINE
8
BLACK
6
CONTINUOUS
10
2.3360112204724408
20
-2.2727123228346455
11
2.3425714566929132
21
-2.2727123228346455
0
LINE
8
BLACK
6
CONTINUOUS
10
2.3425714566929132
20
-2.2727123228346455
11
2.3490055905511809
21
-2.2739921653543305
0
LINE
8
BLACK
6
CONTINUOUS
10
2.4490055905511809
20
-2.2739921653543305
11
2.4550664173228345
21
-2.2765026377952755
0
LINE
8
BLACK
6
CONTINUOUS
10
2.4550664173228345
20
-2.2765026377952755
11
2.4605210236220474
21
-2.2801472834645669
0
LINE
8
BLACK
6
CONTINUOUS
10
2.4605210236220474
20
-2.2801472834645669
11
2.4651598031496063
21
-2.2847860629921257
0
LINE
8
BLACK
6
CONTINUOUS
10
2.4651598031496063
20
-2.2847860629921257
11
2.4688044488188976
21
-2.2902406692913386
0
LINE
8
BLACK
6
CONTINUOUS
10
2.4688044488188976
20
-2.2902406692913386
11
2.4713149212598426
21
-2.2963014960629922
0
LINE
8
BLACK
6
CONTINUOUS
10
2.4713149212598426
20
-2.2963014960629922
11
2.4725947637795276
21
-2.3027356299212598
0
LINE
8
BLACK
6
CONTINUOUS
10
2.4725947637795276
20
-2.3027356299212598
11
2.4727559055118111
21
-2.3060157480314962
0
LINE
8
BLACK
6
CONTINUOUS
10
2.4727559055118111
20
-2.3060157480314962
11
2.4727559055118111
21
-2.3768818897637796
0
LINE
8
BLACK
6
CONTINUOUS
10
2.4727559055118111
20
-2.3768818897637796
11
2.4725947637795276
21
-2.3801620078740156
0
LINE
8
BLACK
6
CONTINUOUS
10
2.4725947637795276
20
-2.3801620078740156
11
2.4713149212598426
21
-2.3865961417322836
0
LINE
8
BLACK
6
CONTINUOUS
10
2.4713149212598426
20
-2.3865961417322836
11
2.4688044488188976
21
-2.3926569685039372
0
LINE
8
BLACK
6
CONTINUOUS
10
2.4688044488188976
20
-2.3926569685039372
11
2.4651598031496063
21
-2.3981115748031496
0
LINE
8
BLACK
6
CONTINUOUS
10
2.4651598031496063
20
-2.3981115748031496
11
2.4605210236220474
21
-2.4027503543307085
0
LINE
8
BLACK
6
CONTINUOUS
10
2.4605210236220474
20
-2.4027503543307085
11
2.4550664173228345
21
-2.4063949999999998
0
LINE
8
BLACK
6
CONTINUOUS
10
2.4550664173228345
20
-2.4063949999999998
11
2.4490055905511809
21
-2.4089054724409449
0
LINE
8
BLACK
6
CONTINUOUS
10
2.4490055905511809
20
-2.4089054724409449
11
2.4425714566929133
21
-2.4101853149606298
0
LINE
8
BLACK
6
CONTINUOUS
10
2.4425714566929133
20
-2.4101853149606298
11
2.4360112204724409
21
-2.4101853149606298
0
LINE
8
BLACK
6
CONTINUOUS
10
2.4360112204724409
20
-2.4101853149606298
11
2.4295770866141733
21
-2.4089054724409449
0
LINE
8
BLACK
6
CONTINUOUS
10
2.4295770866141733
20
-2.4089054724409449
11
2.4235162598425197
21
-2.4063949999999998
0
LINE
8
BLACK
6
CONTINUOUS
10
2.4235162598425197
20
-2.4063949999999998
11
2.4180616535433068
21
-2.4027503543307085
0
LINE
8
BLACK
6
CONTINUOUS
10
2.4180616535433068
20
-2.4027503543307085
11
2.413422874015748
21
-2.3981115748031496
0
LINE
8
BLACK
6
CONTINUOUS
10
2.413422874015748
20
-2.3981115748031496
11
2.4097782283464566
21
-2.3926569685039372
0
LINE
8
BLACK
6
CONTINUOUS
10
2.4097782283464566
20
-2.3926569685039372
11
2.4072677559055116
21
-2.3865961417322836
0
LINE
8
BLACK
6
CONTINUOUS
10
2.4072677559055116
20
-2.3865961417322836
11
2.4059879133858266
21
-2.3801620078740156
0
LINE
8
BLACK
6
CONTINUOUS
10
2.4059879133858266
20
-2.3801620078740156
11
2.4058267716535431
21
-2.3768818897637796
0
LINE
8
BLACK
6
CONTINUOUS
10
2.4058267716535431
20
-2.3768818897637796
11
2.4058267716535431
21
-2.3060157480314962
0
LINE
8
BLACK
6
CONTINUOUS
10
2.4058267716535431
20
-2.3060157480314962
11
2.4059879133858266
21
-2.3027356299212598
0
LINE
8
BLACK
6
CONTINUOUS
10
2.4059879133858266
20
-2.3027356299212598
11
2.4072677559055116
21
-2.2963014960629922
0
LINE
8
BLACK
6
CONTINUOUS
10
2.4072677559055116
20
-2.2963014960629922
11
2.4097782283464566
21
-2.2902406692913386
0
LINE
8
BLACK
6
CONTINUOUS
10
2.4097782283464566
20
-2.2902406692913386
11
2.413422874015748
21
-2.2847860629921257
0
LINE
8
BLACK
6
CONTINUOUS
10
2.413422874015748
20
-2.2847860629921257
11
2.4180616535433068
21
-2.2801472834645669
0
LINE
8
BLACK
6
CONTINUOUS
10
2.4180616535433068
20
-2.2801472834645669
11
2.4235162598425197
21
-2.2765026377952755
0
LINE
8
BLACK
6
CONTINUOUS
10
2.4235162598425197
20
-2.2765026377952755
11
2.4295770866141733
21
-2.2739921653543305
0
LINE
8
BLACK
6
CONTINUOUS
10
2.4295770866141733
20
-2.2739921653543305
11
2.4360112204724409
21
-2.2727123228346455
0
LINE
8
BLACK
6
CONTINUOUS
10
2.4360112204724409
20
-2.2727123228346455
11
2.4425714566929133
21
-2.2727123228346455
0
LINE
8
BLACK
6
CONTINUOUS
10
2.4425714566929133
20
-2.2727123228346455
11
2.4490055905511809
21
-2.2739921653543305
0
LINE
8
BLACK
6
CONTINUOUS
10
2.549005590551181
20
-2.2739921653543305
11
2.5550664173228346
21
-2.2765026377952755
0
LINE
8
BLACK
6
CONTINUOUS
10
2.5550664173228346
20
-2.2765026377952755
11
2.560521023622047
21
-2.2801472834645669
0
LINE
8
BLACK
6
CONTINUOUS
10
2.560521023622047
20
-2.2801472834645669
11
2.5651598031496063
21
-2.2847860629921257
0
LINE
8
BLACK
6
CONTINUOUS
10
2.5651598031496063
20
-2.2847860629921257
11
2.5688044488188977
21
-2.2902406692913386
0
LINE
8
BLACK
6
CONTINUOUS
10
2.5688044488188977
20
-2.2902406692913386
11
2.5713149212598423
21
-2.2963014960629922
0
LINE
8
BLACK
6
CONTINUOUS
10
2.5713149212598423
20
-2.2963014960629922
11
2.5725947637795277
21
-2.3027356299212598
0
LINE
8
BLACK
6
CONTINUOUS
10
2.5725947637795277
20
-2.3027356299212598
11
2.5727559055118108
21
-2.3060157480314962
0
LINE
8
BLACK
6
CONTINUOUS
10
2.5727559055118108
20
-2.3060157480314962
11
2.5727559055118108
21
-2.3768818897637796
0
LINE
8
BLACK
6
CONTINUOUS
10
2.5727559055118108
20
-2.3768818897637796
11
2.5725947637795277
21
-2.3801620078740156
0
LINE
8
BLACK
6
CONTINUOUS
10
2.5725947637795277
20
-2.3801620078740156
11
2.5713149212598423
21
-2.3865961417322836
0
LINE
8
BLACK
6
CONTINUOUS
10
2.5713149212598423
20
-2.3865961417322836
11
2.5688044488188977
21
-2.3926569685039372
0
LINE
8
BLACK
6
CONTINUOUS
10
2.5688044488188977
20
-2.3926569685039372
11
2.5651598031496063
21
-2.3981115748031496
0
LINE
8
BLACK
6
CONTINUOUS
10
2.5651598031496063
20
-2.3981115748031496
11
2.560521023622047
21
-2.4027503543307085
0
LINE
8
BLACK
6
CONTINUOUS
10
2.560521023622047
20
-2.4027503543307085
11
2.5550664173228346
21
-2.4063949999999998
0
LINE
8
BLACK
6
CONTINUOUS
10
2.5550664173228346
20
-2.4063949999999998
11
2.549005590551181
21
-2.4089054724409449
0
LINE
8
BLACK
6
CONTINUOUS
10
2.549005590551181
20
-2.4089054724409449
11
2.5425714566929134
21
-2.4101853149606298
0
LINE
8
BLACK
6
CONTINUOUS
10
2.5425714566929134
20
-2.4101853149606298
11
2.536011220472441
21
-2.4101853149606298
0
LINE
8
BLACK
6
CONTINUOUS
10
2.536011220472441
20
-2.4101853149606298
11
2.5295770866141734
21
-2.4089054724409449
0
LINE
8
BLACK
6
CONTINUOUS
10
2.5295770866141734
20
-2.4089054724409449
11
2.5235162598425198
21
-2.4063949999999998
0
LINE
8
BLACK
6
CONTINUOUS
10
2.5235162598425198
20
-2.4063949999999998
11
2.5180616535433069
21
-2.4027503543307085
0
LINE
8
BLACK
6
CONTINUOUS
10
2.5180616535433069
20
-2.4027503543307085
11
2.513422874015748
21
-2.3981115748031496
0
LINE
8
BLACK
6
CONTINUOUS
10
2.513422874015748
20
-2.3981115748031496
11
2.5097782283464567
21
-2.3926569685039372
0
LINE
8
BLACK
6
CONTINUOUS
10
2.5097782283464567
20
-2.3926569685039372
11
2.5072677559055117
21
-2.3865961417322836
0
LINE
8
BLACK
6
CONTINUOUS
10
2.5072677559055117
20
-2.3865961417322836
11
2.5059879133858267
21
-2.3801620078740156
0
LINE
8
BLACK
6
CONTINUOUS
10
2.5059879133858267
20
-2.3801620078740156
11
2.5058267716535432
21
-2.3768818897637796
0
LINE
8
BLACK
6
CONTINUOUS
10
2.5058267716535432
20
-2.3768818897637796
11
2.5058267716535432
21
-2.3060157480314962
0
LINE
8
BLACK
6
CONTINUOUS
10
2.5058267716535432
20
-2.3060157480314962
11
2.5059879133858267
21
-2.3027356299212598
0
LINE
8
BLACK
6
CONTINUOUS
10
2.5059879133858267
20
-2.3027356299212598
11
2.5072677559055117
21
-2.2963014960629922
0
LINE
8
BLACK
6
CONTINUOUS
10
2.5072677559055117
20
-2.2963014960629922
11
2.5097782283464567
21
-2.2902406692913386
0
LINE
8
BLACK
6
CONTINUOUS
10
2.5097782283464567
20
-2.2902406692913386
11
2.513422874015748
21
-2.2847860629921257
0
LINE
8
BLACK
6
CONTINUOUS
10
2.513422874015748
20
-2.2847860629921257
11
2.5180616535433069
21
-2.2801472834645669
0
LINE
8
BLACK
6
CONTINUOUS
10
2.5180616535433069
20
-2.2801472834645669
11
2.5235162598425198
21
-2.2765026377952755
0
LINE
8
BLACK
6
CONTINUOUS
10
2.5235162598425198
20
-2.2765026377952755
11
2.5295770866141734
21
-2.2739921653543305
0
LINE
8
BLACK
6
CONTINUOUS
10
2.5295770866141734
20
-2.2739921653543305
11
2.536011220472441
21
-2.2727123228346455
0
LINE
8
BLACK
6
CONTINUOUS
10
2.536011220472441
20
-2.2727123228346455
11
2.5425714566929134
21
-2.2727123228346455
0
LINE
8
BLACK
6
CONTINUOUS
10
2.5425714566929134
20
-2.2727123228346455
11
2.549005590551181
21
-2.2739921653543305
0
LINE
8
BLACK
6
CONTINUOUS
10
1.9076710629921259
20
-2.274416338582677
11
1.915425905511811
21
-2.2767687401574803
0
LINE
8
BLACK
6
CONTINUOUS
10
1.915425905511811
20
-2.2767687401574803
11
1.9225727952755904
21
-2.2805888582677163
0
LINE
8
BLACK
6
CONTINUOUS
10
1.9225727952755904
20
-2.2805888582677163
11
1.9288370866141731
21
-2.285729842519685
0
LINE
8
BLACK
6
CONTINUOUS
10
1.9288370866141731
20
-2.285729842519685
11
1.9339780708661416
21
-2.2919941338582674
0
LINE
8
BLACK
6
CONTINUOUS
10
1.9339780708661416
20
-2.2919941338582674
11
1.937798188976378
21
-2.2991410236220471
0
LINE
8
BLACK
6
CONTINUOUS
10
1.937798188976378
20
-2.2991410236220471
11
1.9401505905511811
21
-2.306895866141732
0
LINE
8
BLACK
6
CONTINUOUS
10
1.9401505905511811
20
-2.306895866141732
11
1.9409448818897637
21
-2.3149606299212597
0
LINE
8
BLACK
6
CONTINUOUS
10
1.9409448818897637
20
-2.3149606299212597
11
1.9401505905511811
21
-2.3230253937007874
0
LINE
8
BLACK
6
CONTINUOUS
10
1.9401505905511811
20
-2.3230253937007874
11
1.937798188976378
21
-2.3307802362204724
0
LINE
8
BLACK
6
CONTINUOUS
10
1.937798188976378
20
-2.3307802362204724
11
1.9339780708661416
21
-2.337927125984252
0
LINE
8
BLACK
6
CONTINUOUS
10
1.9339780708661416
20
-2.337927125984252
11
1.9288370866141731
21
-2.3441914173228344
0
LINE
8
BLACK
6
CONTINUOUS
10
1.9288370866141731
20
-2.3441914173228344
11
1.9225727952755904
21
-2.3493324015748032
0
LINE
8
BLACK
6
CONTINUOUS
10
1.9225727952755904
20
-2.3493324015748032
11
1.915425905511811
21
-2.3531525196850391
0
LINE
8
BLACK
6
CONTINUOUS
10
1.915425905511811
20
-2.3531525196850391
11
1.9076710629921259
21
-2.3555049212598425
0
LINE
8
BLACK
6
CONTINUOUS
10
1.9076710629921259
20
-2.3555049212598425
11
1.8996062992125984
21
-2.356299212598425
0
LINE
8
BLACK
6
CONTINUOUS
10
1.8996062992125984
20
-2.356299212598425
11
1.8915415354330709
21
-2.3555049212598425
0
LINE
8
BLACK
6
CONTINUOUS
10
1.8915415354330709
20
-2.3555049212598425
11
1.8837866929133857
21
-2.3531525196850391
0
LINE
8
BLACK
6
CONTINUOUS
10
1.8837866929133857
20
-2.3531525196850391
11
1.8766398031496063
21
-2.3493324015748032
0
LINE
8
BLACK
6
CONTINUOUS
10
1.8766398031496063
20
-2.3493324015748032
11
1.8703755118110237
21
-2.3441914173228344
0
LINE
8
BLACK
6
CONTINUOUS
10
1.8703755118110237
20
-2.3441914173228344
11
1.8652345275590552
21
-2.337927125984252
0
LINE
8
BLACK
6
CONTINUOUS
10
1.8652345275590552
20
-2.337927125984252
11
1.8614144094488188
21
-2.3307802362204724
0
LINE
8
BLACK
6
CONTINUOUS
10
1.8614144094488188
20
-2.3307802362204724
11
1.8590620078740157
21
-2.3230253937007874
0
LINE
8
BLACK
6
CONTINUOUS
10
1.8590620078740157
20
-2.3230253937007874
11
1.8582677165354331
21
-2.3149606299212597
0
LINE
8
BLACK
6
CONTINUOUS
10
1.8582677165354331
20
-2.3149606299212597
11
1.8590620078740157
21
-2.306895866141732
0
LINE
8
BLACK
6
CONTINUOUS
10
1.8590620078740157
20
-2.306895866141732
11
1.8614144094488188
21
-2.2991410236220471
0
LINE
8
BLACK
6
CONTINUOUS
10
1.8614144094488188
20
-2.2991410236220471
11
1.8652345275590552
21
-2.2919941338582674
0
LINE
8
BLACK
6
CONTINUOUS
10
1.8652345275590552
20
-2.2919941338582674
11
1.8703755118110237
21
-2.285729842519685
0
LINE
8
BLACK
6
CONTINUOUS
10
1.8703755118110237
20
-2.285729842519685
11
1.8766398031496063
21
-2.2805888582677163
0
LINE
8
BLACK
6
CONTINUOUS
10
1.8766398031496063
20
-2.2805888582677163
11
1.8837866929133857
21
-2.2767687401574803
0
LINE
8
BLACK
6
CONTINUOUS
10
1.8837866929133857
20
-2.2767687401574803
11
1.8915415354330709
21
-2.274416338582677
0
LINE
8
BLACK
6
CONTINUOUS
10
1.8915415354330709
20
-2.274416338582677
11
1.8996062992125984
21
-2.2736220472440944
0
LINE
8
BLACK
6
CONTINUOUS
10
1.8996062992125984
20
-2.2736220472440944
11
1.9076710629921259
21
-2.274416338582677
0
LINE
8
BLACK
6
CONTINUOUS
10
3.0887734251968504
20
-2.274416338582677
11
3.0965282677165353
21
-2.2767687401574803
0
LINE
8
BLACK
6
CONTINUOUS
10
3.0965282677165353
20
-2.2767687401574803
11
3.103675157480315
21
-2.2805888582677163
0
LINE
8
BLACK
6
CONTINUOUS
10
3.103675157480315
20
-2.2805888582677163
11
3.1099394488188974
21
-2.285729842519685
0
LINE
8
BLACK
6
CONTINUOUS
10
3.1099394488188974
20
-2.285729842519685
11
3.1150804330708661
21
-2.2919941338582674
0
LINE
8
BLACK
6
CONTINUOUS
10
3.1150804330708661
20
-2.2919941338582674
11
3.1189005511811021
21
-2.2991410236220471
0
LINE
8
BLACK
6
CONTINUOUS
10
3.1189005511811021
20
-2.2991410236220471
11
3.1212529527559054
21
-2.306895866141732
0
LINE
8
BLACK
6
CONTINUOUS
10
3.1212529527559054
20
-2.306895866141732
11
3.122047244094488
21
-2.3149606299212597
0
LINE
8
BLACK
6
CONTINUOUS
10
3.122047244094488
20
-2.3149606299212597
11
3.1212529527559054
21
-2.3230253937007874
0
LINE
8
BLACK
6
CONTINUOUS
10
3.1212529527559054
20
-2.3230253937007874
11
3.1189005511811021
21
-2.3307802362204724
0
LINE
8
BLACK
6
CONTINUOUS
10
3.1189005511811021
20
-2.3307802362204724
11
3.1150804330708661
21
-2.337927125984252
0
LINE
8
BLACK
6
CONTINUOUS
10
3.1150804330708661
20
-2.337927125984252
11
3.1099394488188974
21
-2.3441914173228344
0
LINE
8
BLACK
6
CONTINUOUS
10
3.1099394488188974
20
-2.3441914173228344
11
3.103675157480315
21
-2.3493324015748032
0
LINE
8
BLACK
6
CONTINUOUS
10
3.103675157480315
20
-2.3493324015748032
11
3.0965282677165353
21
-2.3531525196850391
0
LINE
8
BLACK
6
CONTINUOUS
10
3.0965282677165353
20
-2.3531525196850391
11
3.0887734251968504
21
-2.3555049212598425
0
LINE
8
BLACK
6
CONTINUOUS
10
3.0887734251968504
20
-2.3555049212598425
11
3.0807086614173227
21
-2.356299212598425
0
LINE
8
BLACK
6
CONTINUOUS
10
3.0807086614173227
20
-2.356299212598425
11
3.072643897637795
21
-2.3555049212598425
0
LINE
8
BLACK
6
CONTINUOUS
10
3.072643897637795
20
-2.3555049212598425
11
3.0648890551181101
21
-2.3531525196850391
0
LINE
8
BLACK
6
CONTINUOUS
10
3.0648890551181101
20
-2.3531525196850391
11
3.0577421653543309
21
-2.3493324015748032
0
LINE
8
BLACK
6
CONTINUOUS
10
3.0577421653543309
20
-2.3493324015748032
11
3.051477874015748
21
-2.3441914173228344
0
LINE
8
BLACK
6
CONTINUOUS
10
3.051477874015748
20
-2.3441914173228344
11
3.0463368897637793
21
-2.337927125984252
0
LINE
8
BLACK
6
CONTINUOUS
10
3.0463368897637793
20
-2.337927125984252
11
3.0425167716535433
21
-2.3307802362204724
0
LINE
8
BLACK
6
CONTINUOUS
10
3.0425167716535433
20
-2.3307802362204724
11
3.04016437007874
21
-2.3230253937007874
0
LINE
8
BLACK
6
CONTINUOUS
10
3.04016437007874
20
-2.3230253937007874
11
3.0393700787401574
21
-2.3149606299212597
0
LINE
8
BLACK
6
CONTINUOUS
10
3.0393700787401574
20
-2.3149606299212597
11
3.04016437007874
21
-2.306895866141732
0
LINE
8
BLACK
6
CONTINUOUS
10
3.04016437007874
20
-2.306895866141732
11
3.0425167716535433
21
-2.2991410236220471
0
LINE
8
BLACK
6
CONTINUOUS
10
3.0425167716535433
20
-2.2991410236220471
11
3.0463368897637793
21
-2.2919941338582674
0
LINE
8
BLACK
6
CONTINUOUS
10
3.0463368897637793
20
-2.2919941338582674
11
3.051477874015748
21
-2.285729842519685
0
LINE
8
BLACK
6
CONTINUOUS
10
3.051477874015748
20
-2.285729842519685
11
3.0577421653543309
21
-2.2805888582677163
0
LINE
8
BLACK
6
CONTINUOUS
10
3.0577421653543309
20
-2.2805888582677163
11
3.0648890551181101
21
-2.2767687401574803
0
LINE
8
BLACK
6
CONTINUOUS
10
3.0648890551181101
20
-2.2767687401574803
11
3.072643897637795
21
-2.274416338582677
0
LINE
8
BLACK
6
CONTINUOUS
10
3.072643897637795
20
-2.274416338582677
11
3.0807086614173227
21
-2.2736220472440944
0
LINE
8
BLACK
6
CONTINUOUS
10
3.0807086614173227
20
-2.2736220472440944
11
3.0887734251968504
21
-2.274416338582677
0
LINE
8
BLACK
6
CONTINUOUS
10
4.8954988582677164
20
-1.3078358267716534
11
4.8986920078740157
21
-1.3099694094488188
0
LINE
8
BLACK
6
CONTINUOUS
10
4.8986920078740157
20
-1.3099694094488188
11
4.9008255905511806
21
-1.3131625590551181
0
LINE
8
BLACK
6
CONTINUOUS
10
4.9008255905511806
20
-1.3131625590551181
11
4.9015748031496065
21
-1.3169291338582676
0
LINE
8
BLACK
6
CONTINUOUS
10
4.9015748031496065
20
-1.3169291338582676
11
4.9015748031496065
21
-1.5137795275590551
0
LINE
8
BLACK
6
CONTINUOUS
10
4.9015748031496065
20
-1.5137795275590551
11
4.9008255905511806
21
-1.5175461023622048
0
LINE
8
BLACK
6
CONTINUOUS
10
4.9008255905511806
20
-1.5175461023622048
11
4.8986920078740157
21
-1.5207392519685039
0
LINE
8
BLACK
6
CONTINUOUS
10
4.8986920078740157
20
-1.5207392519685039
11
4.8954988582677164
21
-1.5228728346456692
0
LINE
8
BLACK
6
CONTINUOUS
10
4.8954988582677164
20
-1.5228728346456692
11
4.8917322834645667
21
-1.5236220472440944
0
LINE
8
BLACK
6
CONTINUOUS
10
4.8917322834645667
20
-1.5236220472440944
11
4.872047244094488
21
-1.5236220472440944
0
LINE
8
BLACK
6
CONTINUOUS
10
4.872047244094488
20
-1.5236220472440944
11
4.8682806692913383
21
-1.5228728346456692
0
LINE
8
BLACK
6
CONTINUOUS
10
4.8682806692913383
20
-1.5228728346456692
11
4.8650875196850389
21
-1.5207392519685039
0
LINE
8
BLACK
6
CONTINUOUS
10
4.8650875196850389
20
-1.5207392519685039
11
4.862953937007874
21
-1.5175461023622048
0
LINE
8
BLACK
6
CONTINUOUS
10
4.862953937007874
20
-1.5175461023622048
11
4.8622047244094491
21
-1.5137795275590551
0
LINE
8
BLACK
6
CONTINUOUS
10
4.8622047244094491
20
-1.5137795275590551
11
4.8622047244094491
21
-1.3169291338582676
0
LINE
8
BLACK
6
CONTINUOUS
10
4.8622047244094491
20
-1.3169291338582676
11
4.862953937007874
21
-1.3131625590551181
0
LINE
8
BLACK
6
CONTINUOUS
10
4.862953937007874
20
-1.3131625590551181
11
4.8650875196850389
21
-1.3099694094488188
0
LINE
8
BLACK
6
CONTINUOUS
10
4.8650875196850389
20
-1.3099694094488188
11
4.8682806692913383
21
-1.3078358267716534
0
LINE
8
BLACK
6
CONTINUOUS
10
4.8682806692913383
20
-1.3078358267716534
11
4.872047244094488
21
-1.3070866141732282
0
LINE
8
BLACK
6
CONTINUOUS
10
4.872047244094488
20
-1.3070866141732282
11
4.8917322834645667
21
-1.3070866141732282
0
LINE
8
BLACK
6
CONTINUOUS
10
4.8917322834645667
20
-1.3070866141732282
11
4.8954988582677164
21
-1.3078358267716534
0
LINE
8
BLACK
6
CONTINUOUS
10
4.9742390157480312
20
-1.3078358267716534
11
4.9774321653543305
21
-1.3099694094488188
0
LINE
8
BLACK
6
CONTINUOUS
10
4.9774321653543305
20
-1.3099694094488188
11
4.9795657480314963
21
-1.3131625590551181
0
LINE
8
BLACK
6
CONTINUOUS
10
4.9795657480314963
20
-1.3131625590551181
11
4.9803149606299213
21
-1.3169291338582676
0
LINE
8
BLACK
6
CONTINUOUS
10
4.9803149606299213
20
-1.3169291338582676
11
4.9803149606299213
21
-1.5137795275590551
0
LINE
8
BLACK
6
CONTINUOUS
10
4.9803149606299213
20
-1.5137795275590551
11
4.9795657480314963
21
-1.5175461023622048
0
LINE
8
BLACK
6
CONTINUOUS
10
4.9795657480314963
20
-1.5175461023622048
11
4.9774321653543305
21
-1.5207392519685039
0
LINE
8
BLACK
6
CONTINUOUS
10
4.9774321653543305
20
-1.5207392519685039
11
4.9742390157480312
21
-1.5228728346456692
0
LINE
8
BLACK
6
CONTINUOUS
10
4.9742390157480312
20
-1.5228728346456692
11
4.9704724409448815
21
-1.5236220472440944
0
LINE
8
BLACK
6
CONTINUOUS
10
4.9704724409448815
20
-1.5236220472440944
11
4.9507874015748028
21
-1.5236220472440944
0
LINE
8
BLACK
6
CONTINUOUS
10
4.9507874015748028
20
-1.5236220472440944
11
4.9470208267716531
21
-1.5228728346456692
0
LINE
8
BLACK
6
CONTINUOUS
10
4.9470208267716531
20
-1.5228728346456692
11
4.9438276771653547
21
-1.5207392519685039
0
LINE
8
BLACK
6
CONTINUOUS
10
4.9438276771653547
20
-1.5207392519685039
11
4.9416940944881889
21
-1.5175461023622048
0
LINE
8
BLACK
6
CONTINUOUS
10
4.9416940944881889
20
-1.5175461023622048
11
4.9409448818897639
21
-1.5137795275590551
0
LINE
8
BLACK
6
CONTINUOUS
10
4.9409448818897639
20
-1.5137795275590551
11
4.9409448818897639
21
-1.3169291338582676
0
LINE
8
BLACK
6
CONTINUOUS
10
4.9409448818897639
20
-1.3169291338582676
11
4.9416940944881889
21
-1.3131625590551181
0
LINE
8
BLACK
6
CONTINUOUS
10
4.9416940944881889
20
-1.3131625590551181
11
4.9438276771653547
21
-1.3099694094488188
0
LINE
8
BLACK
6
CONTINUOUS
10
4.9438276771653547
20
-1.3099694094488188
11
4.9470208267716531
21
-1.3078358267716534
0
LINE
8
BLACK
6
CONTINUOUS
10
4.9470208267716531
20
-1.3078358267716534
11
4.9507874015748028
21
-1.3070866141732282
0
LINE
8
BLACK
6
CONTINUOUS
10
4.9507874015748028
20
-1.3070866141732282
11
4.9704724409448815
21
-1.3070866141732282
0
LINE
8
BLACK
6
CONTINUOUS
10
4.9704724409448815
20
-1.3070866141732282
11
4.9742390157480312
21
-1.3078358267716534
0
LINE
8
BLACK
6
CONTINUOUS
10
5.052979173228346
20
-1.3078358267716534
11
5.0561723228346453
21
-1.3099694094488188
0
LINE
8
BLACK
6
CONTINUOUS
10
5.0561723228346453
20
-1.3099694094488188
11
5.0583059055118111
21
-1.3131625590551181
0
LINE
8
BLACK
6
CONTINUOUS
10
5.0583059055118111
20
-1.3131625590551181
11
5.0590551181102361
21
-1.3169291338582676
0
LINE
8
BLACK
6
CONTINUOUS
10
5.0590551181102361
20
-1.3169291338582676
11
5.0590551181102361
21
-1.5137795275590551
0
LINE
8
BLACK
6
CONTINUOUS
10
5.0590551181102361
20
-1.5137795275590551
11
5.0583059055118111
21
-1.5175461023622048
0
LINE
8
BLACK
6
CONTINUOUS
10
5.0583059055118111
20
-1.5175461023622048
11
5.0561723228346453
21
-1.5207392519685039
0
LINE
8
BLACK
6
CONTINUOUS
10
5.0561723228346453
20
-1.5207392519685039
11
5.052979173228346
21
-1.5228728346456692
0
LINE
8
BLACK
6
CONTINUOUS
10
5.052979173228346
20
-1.5228728346456692
11
5.0492125984251963
21
-1.5236220472440944
0
LINE
8
BLACK
6
CONTINUOUS
10
5.0492125984251963
20
-1.5236220472440944
11
5.0295275590551176
21
-1.5236220472440944
0
LINE
8
BLACK
6
CONTINUOUS
10
5.0295275590551176
20
-1.5236220472440944
11
5.0257609842519688
21
-1.5228728346456692
0
LINE
8
BLACK
6
CONTINUOUS
10
5.0257609842519688
20
-1.5228728346456692
11
5.0225678346456695
21
-1.5207392519685039
0
LINE
8
BLACK
6
CONTINUOUS
10
5.0225678346456695
20
-1.5207392519685039
11
5.0204342519685037
21
-1.5175461023622048
0
LINE
8
BLACK
6
CONTINUOUS
10
5.0204342519685037
20
-1.5175461023622048
11
5.0196850393700787
21
-1.5137795275590551
0
LINE
8
BLACK
6
CONTINUOUS
10
5.0196850393700787
20
-1.5137795275590551
11
5.0196850393700787
21
-1.3169291338582676
0
LINE
8
BLACK
6
CONTINUOUS
10
5.0196850393700787
20
-1.3169291338582676
11
5.0204342519685037
21
-1.3131625590551181
0
LINE
8
BLACK
6
CONTINUOUS
10
5.0204342519685037
20
-1.3131625590551181
11
5.0225678346456695
21
-1.3099694094488188
0
LINE
8
BLACK
6
CONTINUOUS
10
5.0225678346456695
20
-1.3099694094488188
11
5.0257609842519688
21
-1.3078358267716534
0
LINE
8
BLACK
6
CONTINUOUS
10
5.0257609842519688
20
-1.3078358267716534
11
5.0295275590551176
21
-1.3070866141732282
0
LINE
8
BLACK
6
CONTINUOUS
10
5.0295275590551176
20
-1.3070866141732282
11
5.0492125984251963
21
-1.3070866141732282
0
LINE
8
BLACK
6
CONTINUOUS
10
5.0492125984251963
20
-1.3070866141732282
11
5.052979173228346
21
-1.3078358267716534
0
LINE
8
BLACK
6
CONTINUOUS
10
5.1317193307086617
20
-1.3078358267716534
11
5.1349124803149602
21
-1.3099694094488188
0
LINE
8
BLACK
6
CONTINUOUS
10
5.1349124803149602
20
-1.3099694094488188
11
5.137046062992126
21
-1.3131625590551181
0
LINE
8
BLACK
6
CONTINUOUS
10
5.137046062992126
20
-1.3131625590551181
11
5.1377952755905509
21
-1.3169291338582676
0
LINE
8
BLACK
6
CONTINUOUS
10
5.1377952755905509
20
-1.3169291338582676
11
5.1377952755905509
21
-1.5137795275590551
0
LINE
8
BLACK
6
CONTINUOUS
10
5.1377952755905509
20
-1.5137795275590551
11
5.137046062992126
21
-1.5175461023622048
0
LINE
8
BLACK
6
CONTINUOUS
10
5.137046062992126
20
-1.5175461023622048
11
5.1349124803149602
21
-1.5207392519685039
0
LINE
8
BLACK
6
CONTINUOUS
10
5.1349124803149602
20
-1.5207392519685039
11
5.1317193307086617
21
-1.5228728346456692
0
LINE
8
BLACK
6
CONTINUOUS
10
5.1317193307086617
20
-1.5228728346456692
11
5.127952755905512
21
-1.5236220472440944
0
LINE
8
BLACK
6
CONTINUOUS
10
5.127952755905512
20
-1.5236220472440944
11
5.1082677165354333
21
-1.5236220472440944
0
LINE
8
BLACK
6
CONTINUOUS
10
5.1082677165354333
20
-1.5236220472440944
11
5.1045011417322836
21
-1.5228728346456692
0
LINE
8
BLACK
6
CONTINUOUS
10
5.1045011417322836
20
-1.5228728346456692
11
5.1013079921259843
21
-1.5207392519685039
0
LINE
8
BLACK
6
CONTINUOUS
10
5.1013079921259843
20
-1.5207392519685039
11
5.0991744094488185
21
-1.5175461023622048
0
LINE
8
BLACK
6
CONTINUOUS
10
5.0991744094488185
20
-1.5175461023622048
11
5.0984251968503935
21
-1.5137795275590551
0
LINE
8
BLACK
6
CONTINUOUS
10
5.0984251968503935
20
-1.5137795275590551
11
5.0984251968503935
21
-1.3169291338582676
0
LINE
8
BLACK
6
CONTINUOUS
10
5.0984251968503935
20
-1.3169291338582676
11
5.0991744094488185
21
-1.3131625590551181
0
LINE
8
BLACK
6
CONTINUOUS
10
5.0991744094488185
20
-1.3131625590551181
11
5.1013079921259843
21
-1.3099694094488188
0
LINE
8
BLACK
6
CONTINUOUS
10
5.1013079921259843
20
-1.3099694094488188
11
5.1045011417322836
21
-1.3078358267716534
0
LINE
8
BLACK
6
CONTINUOUS
10
5.1045011417322836
20
-1.3078358267716534
11
5.1082677165354333
21
-1.3070866141732282
0
LINE
8
BLACK
6
CONTINUOUS
10
5.1082677165354333
20
-1.3070866141732282
11
5.127952755905512
21
-1.3070866141732282
0
LINE
8
BLACK
6
CONTINUOUS
10
5.127952755905512
20
-1.3070866141732282
11
5.1317193307086617
21
-1.3078358267716534
0
LINE
8
BLACK
6
CONTINUOUS
10
4.1474673622047247
20
-1.2901192913385826
11
4.1506605118110231
21
-1.292252874015748
0
LINE
8
BLACK
6
CONTINUOUS
10
4.1506605118110231
20
-1.292252874015748
11
4.1527940944881889
21
-1.2954460236220473
0
LINE
8
BLACK
6
CONTINUOUS
10
4.1527940944881889
20
-1.2954460236220473
11
4.1535433070866139
21
-1.2992125984251968
0
LINE
8
BLACK
6
CONTINUOUS
10
4.1535433070866139
20
-1.2992125984251968
11
4.1535433070866139
21
-1.4960629921259843
0
LINE
8
BLACK
6
CONTINUOUS
10
4.1535433070866139
20
-1.4960629921259843
11
4.1527940944881889
21
-1.4998295669291337
0
LINE
8
BLACK
6
CONTINUOUS
10
4.1527940944881889
20
-1.4998295669291337
11
4.1506605118110231
21
-1.5030227165354331
0
LINE
8
BLACK
6
CONTINUOUS
10
4.1506605118110231
20
-1.5030227165354331
11
4.1474673622047247
21
-1.5051562992125984
0
LINE
8
BLACK
6
CONTINUOUS
10
4.1474673622047247
20
-1.5051562992125984
11
4.143700787401575
21
-1.5059055118110236
0
LINE
8
BLACK
6
CONTINUOUS
10
4.143700787401575
20
-1.5059055118110236
11
4.1240157480314963
21
-1.5059055118110236
0
LINE
8
BLACK
6
CONTINUOUS
10
4.1240157480314963
20
-1.5059055118110236
11
4.1202491732283466
21
-1.5051562992125984
0
LINE
8
BLACK
6
CONTINUOUS
10
4.1202491732283466
20
-1.5051562992125984
11
4.1170560236220473
21
-1.5030227165354331
0
LINE
8
BLACK
6
CONTINUOUS
10
4.1170560236220473
20
-1.5030227165354331
11
4.1149224409448815
21
-1.4998295669291337
0
LINE
8
BLACK
6
CONTINUOUS
10
4.1149224409448815
20
-1.4998295669291337
11
4.1141732283464565
21
-1.4960629921259843
0
LINE
8
BLACK
6
CONTINUOUS
10
4.1141732283464565
20
-1.4960629921259843
11
4.1141732283464565
21
-1.2992125984251968
0
LINE
8
BLACK
6
CONTINUOUS
10
4.1141732283464565
20
-1.2992125984251968
11
4.1149224409448815
21
-1.2954460236220473
0
LINE
8
BLACK
6
CONTINUOUS
10
4.1149224409448815
20
-1.2954460236220473
11
4.1170560236220473
21
-1.292252874015748
0
LINE
8
BLACK
6
CONTINUOUS
10
4.1170560236220473
20
-1.292252874015748
11
4.1202491732283466
21
-1.2901192913385826
0
LINE
8
BLACK
6
CONTINUOUS
10
4.1202491732283466
20
-1.2901192913385826
11
4.1240157480314963
21
-1.2893700787401574
0
LINE
8
BLACK
6
CONTINUOUS
10
4.1240157480314963
20
-1.2893700787401574
11
4.143700787401575
21
-1.2893700787401574
0
LINE
8
BLACK
6
CONTINUOUS
10
4.143700787401575
20
-1.2893700787401574
11
4.1474673622047247
21
-1.2901192913385826
0
LINE
8
BLACK
6
CONTINUOUS
10
4.2262075196850395
20
-1.2901192913385826
11
4.2294006692913388
21
-1.292252874015748
0
LINE
8
BLACK
6
CONTINUOUS
10
4.2294006692913388
20
-1.292252874015748
11
4.2315342519685037
21
-1.2954460236220473
0
LINE
8
BLACK
6
CONTINUOUS
10
4.2315342519685037
20
-1.2954460236220473
11
4.2322834645669287
21
-1.2992125984251968
0
LINE
8
BLACK
6
CONTINUOUS
10
4.2322834645669287
20
-1.2992125984251968
11
4.2322834645669287
21
-1.4960629921259843
0
LINE
8
BLACK
6
CONTINUOUS
10
4.2322834645669287
20
-1.4960629921259843
11
4.2315342519685037
21
-1.4998295669291337
0
LINE
8
BLACK
6
CONTINUOUS
10
4.2315342519685037
20
-1.4998295669291337
11
4.2294006692913388
21
-1.5030227165354331
0
LINE
8
BLACK
6
CONTINUOUS
10
4.2294006692913388
20
-1.5030227165354331
11
4.2262075196850395
21
-1.5051562992125984
0
LINE
8
BLACK
6
CONTINUOUS
10
4.2262075196850395
20
-1.5051562992125984
11
4.2224409448818898
21
-1.5059055118110236
0
LINE
8
BLACK
6
CONTINUOUS
10
4.2224409448818898
20
-1.5059055118110236
11
4.2027559055118111
21
-1.5059055118110236
0
LINE
8
BLACK
6
CONTINUOUS
10
4.2027559055118111
20
-1.5059055118110236
11
4.1989893307086614
21
-1.5051562992125984
0
LINE
8
BLACK
6
CONTINUOUS
10
4.1989893307086614
20
-1.5051562992125984
11
4.1957961811023621
21
-1.5030227165354331
0
LINE
8
BLACK
6
CONTINUOUS
10
4.1957961811023621
20
-1.5030227165354331
11
4.1936625984251972
21
-1.4998295669291337
0
LINE
8
BLACK
6
CONTINUOUS
10
4.1936625984251972
20
-1.4998295669291337
11
4.1929133858267713
21
-1.4960629921259843
0
LINE
8
BLACK
6
CONTINUOUS
10
4.1929133858267713
20
-1.4960629921259843
11
4.1929133858267713
21
-1.2992125984251968
0
LINE
8
BLACK
6
CONTINUOUS
10
4.1929133858267713
20
-1.2992125984251968
11
4.1936625984251972
21
-1.2954460236220473
0
LINE
8
BLACK
6
CONTINUOUS
10
4.1936625984251972
20
-1.2954460236220473
11
4.1957961811023621
21
-1.292252874015748
0
LINE
8
BLACK
6
CONTINUOUS
10
4.1957961811023621
20
-1.292252874015748
11
4.1989893307086614
21
-1.2901192913385826
0
LINE
8
BLACK
6
CONTINUOUS
10
4.1989893307086614
20
-1.2901192913385826
11
4.2027559055118111
21
-1.2893700787401574
0
LINE
8
BLACK
6
CONTINUOUS
10
4.2027559055118111
20
-1.2893700787401574
11
4.2224409448818898
21
-1.2893700787401574
0
LINE
8
BLACK
6
CONTINUOUS
10
4.2224409448818898
20
-1.2893700787401574
11
4.2262075196850395
21
-1.2901192913385826
0
LINE
8
BLACK
6
CONTINUOUS
10
4.3049476771653543
20
-1.2901192913385826
11
4.3081408267716537
21
-1.292252874015748
0
LINE
8
BLACK
6
CONTINUOUS
10
4.3081408267716537
20
-1.292252874015748
11
4.3102744094488186
21
-1.2954460236220473
0
LINE
8
BLACK
6
CONTINUOUS
10
4.3102744094488186
20
-1.2954460236220473
11
4.3110236220472444
21
-1.2992125984251968
0
LINE
8
BLACK
6
CONTINUOUS
10
4.3110236220472444
20
-1.2992125984251968
11
4.3110236220472444
21
-1.4960629921259843
0
LINE
8
BLACK
6
CONTINUOUS
10
4.3110236220472444
20
-1.4960629921259843
11
4.3102744094488186
21
-1.4998295669291337
0
LINE
8
BLACK
6
CONTINUOUS
10
4.3102744094488186
20
-1.4998295669291337
11
4.3081408267716537
21
-1.5030227165354331
0
LINE
8
BLACK
6
CONTINUOUS
10
4.3081408267716537
20
-1.5030227165354331
11
4.3049476771653543
21
-1.5051562992125984
0
LINE
8
BLACK
6
CONTINUOUS
10
4.3049476771653543
20
-1.5051562992125984
11
4.3011811023622046
21
-1.5059055118110236
0
LINE
8
BLACK
6
CONTINUOUS
10
4.3011811023622046
20
-1.5059055118110236
11
4.2814960629921259
21
-1.5059055118110236
0
LINE
8
BLACK
6
CONTINUOUS
10
4.2814960629921259
20
-1.5059055118110236
11
4.2777294881889762
21
-1.5051562992125984
0
LINE
8
BLACK
6
CONTINUOUS
10
4.2777294881889762
20
-1.5051562992125984
11
4.2745363385826769
21
-1.5030227165354331
0
LINE
8
BLACK
6
CONTINUOUS
10
4.2745363385826769
20
-1.5030227165354331
11
4.272402755905512
21
-1.4998295669291337
0
LINE
8
BLACK
6
CONTINUOUS
10
4.272402755905512
20
-1.4998295669291337
11
4.2716535433070861
21
-1.4960629921259843
0
LINE
8
BLACK
6
CONTINUOUS
10
4.2716535433070861
20
-1.4960629921259843
11
4.2716535433070861
21
-1.2992125984251968
0
LINE
8
BLACK
6
CONTINUOUS
10
4.2716535433070861
20
-1.2992125984251968
11
4.272402755905512
21
-1.2954460236220473
0
LINE
8
BLACK
6
CONTINUOUS
10
4.272402755905512
20
-1.2954460236220473
11
4.2745363385826769
21
-1.292252874015748
0
LINE
8
BLACK
6
CONTINUOUS
10
4.2745363385826769
20
-1.292252874015748
11
4.2777294881889762
21
-1.2901192913385826
0
LINE
8
BLACK
6
CONTINUOUS
10
4.2777294881889762
20
-1.2901192913385826
11
4.2814960629921259
21
-1.2893700787401574
0
LINE
8
BLACK
6
CONTINUOUS
10
4.2814960629921259
20
-1.2893700787401574
11
4.3011811023622046
21
-1.2893700787401574
0
LINE
8
BLACK
6
CONTINUOUS
10
4.3011811023622046
20
-1.2893700787401574
11
4.3049476771653543
21
-1.2901192913385826
0
LINE
8
BLACK
6
CONTINUOUS
10
4.8128216929133858
20
-1.268465748031496
11
4.8160148425196851
21
-1.2705993307086614
0
LINE
8
BLACK
6
CONTINUOUS
10
4.8160148425196851
20
-1.2705993307086614
11
4.81814842519685
21
-1.2737924803149605
0
LINE
8
BLACK
6
CONTINUOUS
10
4.81814842519685
20
-1.2737924803149605
11
4.8188976377952759
21
-1.2775590551181102
0
LINE
8
BLACK
6
CONTINUOUS
10
4.8188976377952759
20
-1.2775590551181102
11
4.8188976377952759
21
-1.3759842519685039
0
LINE
8
BLACK
6
CONTINUOUS
10
4.8188976377952759
20
-1.3759842519685039
11
4.81814842519685
21
-1.3797508267716536
0
LINE
8
BLACK
6
CONTINUOUS
10
4.81814842519685
20
-1.3797508267716536
11
4.8160148425196851
21
-1.3829439763779527
0
LINE
8
BLACK
6
CONTINUOUS
10
4.8160148425196851
20
-1.3829439763779527
11
4.8128216929133858
21
-1.3850775590551181
0
LINE
8
BLACK
6
CONTINUOUS
10
4.8128216929133858
20
-1.3850775590551181
11
4.8090551181102361
21
-1.3858267716535433
0
LINE
8
BLACK
6
CONTINUOUS
10
4.8090551181102361
20
-1.3858267716535433
11
4.765748031496063
21
-1.3858267716535433
0
LINE
8
BLACK
6
CONTINUOUS
10
4.765748031496063
20
-1.3858267716535433
11
4.7619814566929133
21
-1.3850775590551181
0
LINE
8
BLACK
6
CONTINUOUS
10
4.7619814566929133
20
-1.3850775590551181
11
4.7587883070866139
21
-1.3829439763779527
0
LINE
8
BLACK
6
CONTINUOUS
10
4.7587883070866139
20
-1.3829439763779527
11
4.756654724409449
21
-1.3797508267716536
0
LINE
8
BLACK
6
CONTINUOUS
10
4.756654724409449
20
-1.3797508267716536
11
4.7559055118110232
21
-1.3759842519685039
0
LINE
8
BLACK
6
CONTINUOUS
10
4.7559055118110232
20
-1.3759842519685039
11
4.7559055118110232
21
-1.2775590551181102
0
LINE
8
BLACK
6
CONTINUOUS
10
4.7559055118110232
20
-1.2775590551181102
11
4.756654724409449
21
-1.2737924803149605
0
LINE
8
BLACK
6
CONTINUOUS
10
4.756654724409449
20
-1.2737924803149605
11
4.7587883070866139
21
-1.2705993307086614
0
LINE
8
BLACK
6
CONTINUOUS
10
4.7587883070866139
20
-1.2705993307086614
11
4.7619814566929133
21
-1.268465748031496
0
LINE
8
BLACK
6
CONTINUOUS
10
4.7619814566929133
20
-1.268465748031496
11
4.765748031496063
21
-1.2677165354330708
0
LINE
8
BLACK
6
CONTINUOUS
10
4.765748031496063
20
-1.2677165354330708
11
4.8090551181102361
21
-1.2677165354330708
0
LINE
8
BLACK
6
CONTINUOUS
10
4.8090551181102361
20
-1.2677165354330708
11
4.8128216929133858
21
-1.268465748031496
0
LINE
8
BLACK
6
CONTINUOUS
10
5.2380185433070867
20
-1.268465748031496
11
5.2412116929133861
21
-1.2705993307086614
0
LINE
8
BLACK
6
CONTINUOUS
10
5.2412116929133861
20
-1.2705993307086614
11
5.243345275590551
21
-1.2737924803149605
0
LINE
8
BLACK
6
CONTINUOUS
10
5.243345275590551
20
-1.2737924803149605
11
5.2440944881889759
21
-1.2775590551181102
0
LINE
8
BLACK
6
CONTINUOUS
10
5.2440944881889759
20
-1.2775590551181102
11
5.2440944881889759
21
-1.3759842519685039
0
LINE
8
BLACK
6
CONTINUOUS
10
5.2440944881889759
20
-1.3759842519685039
11
5.243345275590551
21
-1.3797508267716536
0
LINE
8
BLACK
6
CONTINUOUS
10
5.243345275590551
20
-1.3797508267716536
11
5.2412116929133861
21
-1.3829439763779527
0
LINE
8
BLACK
6
CONTINUOUS
10
5.2412116929133861
20
-1.3829439763779527
11
5.2380185433070867
21
-1.3850775590551181
0
LINE
8
BLACK
6
CONTINUOUS
10
5.2380185433070867
20
-1.3850775590551181
11
5.234251968503937
21
-1.3858267716535433
0
LINE
8
BLACK
6
CONTINUOUS
10
5.234251968503937
20
-1.3858267716535433
11
5.1909448818897639
21
-1.3858267716535433
0
LINE
8
BLACK
6
CONTINUOUS
10
5.1909448818897639
20
-1.3858267716535433
11
5.1871783070866142
21
-1.3850775590551181
0
LINE
8
BLACK
6
CONTINUOUS
10
5.1871783070866142
20
-1.3850775590551181
11
5.1839851574803149
21
-1.3829439763779527
0
LINE
8
BLACK
6
CONTINUOUS
10
5.1839851574803149
20
-1.3829439763779527
11
5.1818515748031491
21
-1.3797508267716536
0
LINE
8
BLACK
6
CONTINUOUS
10
5.1818515748031491
20
-1.3797508267716536
11
5.1811023622047241
21
-1.3759842519685039
0
LINE
8
BLACK
6
CONTINUOUS
10
5.1811023622047241
20
-1.3759842519685039
11
5.1811023622047241
21
-1.2775590551181102
0
LINE
8
BLACK
6
CONTINUOUS
10
5.1811023622047241
20
-1.2775590551181102
11
5.1818515748031491
21
-1.2737924803149605
0
LINE
8
BLACK
6
CONTINUOUS
10
5.1818515748031491
20
-1.2737924803149605
11
5.1839851574803149
21
-1.2705993307086614
0
LINE
8
BLACK
6
CONTINUOUS
10
5.1839851574803149
20
-1.2705993307086614
11
5.1871783070866142
21
-1.268465748031496
0
LINE
8
BLACK
6
CONTINUOUS
10
5.1871783070866142
20
-1.268465748031496
11
5.1909448818897639
21
-1.2677165354330708
0
LINE
8
BLACK
6
CONTINUOUS
10
5.1909448818897639
20
-1.2677165354330708
11
5.234251968503937
21
-1.2677165354330708
0
LINE
8
BLACK
6
CONTINUOUS
10
5.234251968503937
20
-1.2677165354330708
11
5.2380185433070867
21
-1.268465748031496
0
LINE
8
BLACK
6
CONTINUOUS
10
4.0647901968503932
20
-1.2507492125984252
11
4.0679833464566926
21
-1.2528827952755905
0
LINE
8
BLACK
6
CONTINUOUS
10
4.0679833464566926
20
-1.2528827952755905
11
4.0701169291338584
21
-1.2560759448818897
0
LINE
8
BLACK
6
CONTINUOUS
10
4.0701169291338584
20
-1.2560759448818897
11
4.0708661417322833
21
-1.2598425196850394
0
LINE
8
BLACK
6
CONTINUOUS
10
4.0708661417322833
20
-1.2598425196850394
11
4.0708661417322833
21
-1.3582677165354331
0
LINE
8
BLACK
6
CONTINUOUS
10
4.0708661417322833
20
-1.3582677165354331
11
4.0701169291338584
21
-1.3620342913385826
0
LINE
8
BLACK
6
CONTINUOUS
10
4.0701169291338584
20
-1.3620342913385826
11
4.0679833464566926
21
-1.3652274409448819
0
LINE
8
BLACK
6
CONTINUOUS
10
4.0679833464566926
20
-1.3652274409448819
11
4.0647901968503932
21
-1.3673610236220473
0
LINE
8
BLACK
6
CONTINUOUS
10
4.0647901968503932
20
-1.3673610236220473
11
4.0610236220472444
21
-1.3681102362204725
0
LINE
8
BLACK
6
CONTINUOUS
10
4.0610236220472444
20
-1.3681102362204725
11
4.0177165354330704
21
-1.3681102362204725
0
LINE
8
BLACK
6
CONTINUOUS
10
4.0177165354330704
20
-1.3681102362204725
11
4.0139499606299216
21
-1.3673610236220473
0
LINE
8
BLACK
6
CONTINUOUS
10
4.0139499606299216
20
-1.3673610236220473
11
4.0107568110236222
21
-1.3652274409448819
0
LINE
8
BLACK
6
CONTINUOUS
10
4.0107568110236222
20
-1.3652274409448819
11
4.0086232283464565
21
-1.3620342913385826
0
LINE
8
BLACK
6
CONTINUOUS
10
4.0086232283464565
20
-1.3620342913385826
11
4.0078740157480315
21
-1.3582677165354331
0
LINE
8
BLACK
6
CONTINUOUS
10
4.0078740157480315
20
-1.3582677165354331
11
4.0078740157480315
21
-1.2598425196850394
0
LINE
8
BLACK
6
CONTINUOUS
10
4.0078740157480315
20
-1.2598425196850394
11
4.0086232283464565
21
-1.2560759448818897
0
LINE
8
BLACK
6
CONTINUOUS
10
4.0086232283464565
20
-1.2560759448818897
11
4.0107568110236222
21
-1.2528827952755905
0
LINE
8
BLACK
6
CONTINUOUS
10
4.0107568110236222
20
-1.2528827952755905
11
4.0139499606299216
21
-1.2507492125984252
0
LINE
8
BLACK
6
CONTINUOUS
10
4.0139499606299216
20
-1.2507492125984252
11
4.0177165354330704
21
-1.25
0
LINE
8
BLACK
6
CONTINUOUS
10
4.0177165354330704
20
-1.25
11
4.0610236220472444
21
-1.25
0
LINE
8
BLACK
6
CONTINUOUS
10
4.0610236220472444
20
-1.25
11
4.0647901968503932
21
-1.2507492125984252
0
LINE
8
BLACK
6
CONTINUOUS
10
4.4112468897637793
20
-1.2507492125984252
11
4.4144400393700787
21
-1.2528827952755905
0
LINE
8
BLACK
6
CONTINUOUS
10
4.4144400393700787
20
-1.2528827952755905
11
4.4165736220472436
21
-1.2560759448818897
0
LINE
8
BLACK
6
CONTINUOUS
10
4.4165736220472436
20
-1.2560759448818897
11
4.4173228346456694
21
-1.2598425196850394
0
LINE
8
BLACK
6
CONTINUOUS
10
4.4173228346456694
20
-1.2598425196850394
11
4.4173228346456694
21
-1.3582677165354331
0
LINE
8
BLACK
6
CONTINUOUS
10
4.4173228346456694
20
-1.3582677165354331
11
4.4165736220472436
21
-1.3620342913385826
0
LINE
8
BLACK
6
CONTINUOUS
10
4.4165736220472436
20
-1.3620342913385826
11
4.4144400393700787
21
-1.3652274409448819
0
LINE
8
BLACK
6
CONTINUOUS
10
4.4144400393700787
20
-1.3652274409448819
11
4.4112468897637793
21
-1.3673610236220473
0
LINE
8
BLACK
6
CONTINUOUS
10
4.4112468897637793
20
-1.3673610236220473
11
4.4074803149606296
21
-1.3681102362204725
0
LINE
8
BLACK
6
CONTINUOUS
10
4.4074803149606296
20
-1.3681102362204725
11
4.3641732283464565
21
-1.3681102362204725
0
LINE
8
BLACK
6
CONTINUOUS
10
4.3641732283464565
20
-1.3681102362204725
11
4.3604066535433068
21
-1.3673610236220473
0
LINE
8
BLACK
6
CONTINUOUS
10
4.3604066535433068
20
-1.3673610236220473
11
4.3572135039370075
21
-1.3652274409448819
0
LINE
8
BLACK
6
CONTINUOUS
10
4.3572135039370075
20
-1.3652274409448819
11
4.3550799212598426
21
-1.3620342913385826
0
LINE
8
BLACK
6
CONTINUOUS
10
4.3550799212598426
20
-1.3620342913385826
11
4.3543307086614176
21
-1.3582677165354331
0
LINE
8
BLACK
6
CONTINUOUS
10
4.3543307086614176
20
-1.3582677165354331
11
4.3543307086614176
21
-1.2598425196850394
0
LINE
8
BLACK
6
CONTINUOUS
10
4.3543307086614176
20
-1.2598425196850394
11
4.3550799212598426
21
-1.2560759448818897
0
LINE
8
BLACK
6
CONTINUOUS
10
4.3550799212598426
20
-1.2560759448818897
11
4.3572135039370075
21
-1.2528827952755905
0
LINE
8
BLACK
6
CONTINUOUS
10
4.3572135039370075
20
-1.2528827952755905
11
4.3604066535433068
21
-1.2507492125984252
0
LINE
8
BLACK
6
CONTINUOUS
10
4.3604066535433068
20
-1.2507492125984252
11
4.3641732283464565
21
-1.25
0
LINE
8
BLACK
6
CONTINUOUS
10
4.3641732283464565
20
-1.25
11
4.4074803149606296
21
-1.25
0
LINE
8
BLACK
6
CONTINUOUS
10
4.4074803149606296
20
-1.25
11
4.4112468897637793
21
-1.2507492125984252
  0
ENDSEC
  0
EOF
