  0
SECTION
  2
HEADER
  9
$ANGBASE
  50
0.0
  9
$ANGDIR
  70
1
  9
$MEASUREMENT
  70
0
  0
ENDSEC
  0
SECTION
  2
TABLES
  0
TABLE
  2
LTYPE
  70
4
  0
LTYPE
  5
40F
  2
CONTINUOUS
  70
0
  3
Solid line
  72
65
  73
0
  40
0.0
  0
LTYPE
  5
410
  2
DASHDOT
 70
0
  3
Dash Dot ____ _ ____ _
 72
65
 73
4
 40
2.0
 49
1.25
 49
-0.25
 49
0.25
 49
-0.25
  0
LTYPE
  5
411
  2
DASHED
 70
0
  3
Dashed __ __ __ __ __
 72
65
 73
2
 40
0.75
 49
0.5
 49
-0.25
  0
LTYPE
  5
43B
  2
DOTTED
 70
0
  3
Dotted .  .  .  .
 72
65
 73
2
 40
0.2
 49
0.0
 49
-0.2
  0
ENDTAB
  0
TABLE
  2
STYLE
  70
4
  0
STYLE
  2
KICAD
  70
0
  40
0
  41
1
  42
1
  50
0
  71
0
  3
isocp.shx
  0
STYLE
  2
KICADB
  70
0
  40
0
  41
1
  42
1
  50
0
  71
0
  3
isocp.shx
  0
STYLE
  2
KICADI
  70
0
  40
0
  41
1
  42
1
  50
15
  71
0
  3
isocp.shx
  0
STYLE
  2
KICADBI
  70
0
  40
0
  41
1
  42
1
  50
15
  71
0
  3
isocp.shx
  0
ENDTAB
  0
TABLE
  2
LAYER
  70
1
  0
LAYER
  2
BLACK
  70
0
  62
7
  6
CONTINUOUS
  0
ENDTAB
  0
ENDSEC
  0
SECTION
  2
ENTITIES
0
LINE
8
BLACK
6
CONTINUOUS
10
1.1204553937007873
20
-4.144759960629921
11
1.1209880708661417
21
-4.1452926377952757
0
LINE
8
BLACK
6
CONTINUOUS
10
1.1209880708661417
20
-4.1452926377952757
11
1.1210629921259843
21
-4.1456692913385824
0
LINE
8
BLACK
6
CONTINUOUS
10
1.1210629921259843
20
-4.1456692913385824
11
1.1210629921259843
21
-4.5944881889763778
0
LINE
8
BLACK
6
CONTINUOUS
10
1.1210629921259843
20
-4.5944881889763778
11
1.1209880708661417
21
-4.5948648425196845
0
LINE
8
BLACK
6
CONTINUOUS
10
1.1209880708661417
20
-4.5948648425196845
11
1.1204553937007873
21
-4.5953975196850392
0
LINE
8
BLACK
6
CONTINUOUS
10
1.1204553937007873
20
-4.5953975196850392
11
1.1200787401574803
21
-4.5954724409448815
0
LINE
8
BLACK
6
CONTINUOUS
10
1.1200787401574803
20
-4.5954724409448815
11
0.7854330708661417
21
-4.5954724409448815
0
LINE
8
BLACK
6
CONTINUOUS
10
0.7854330708661417
20
-4.5954724409448815
11
0.7850564173228346
21
-4.5953975196850392
0
LINE
8
BLACK
6
CONTINUOUS
10
0.7850564173228346
20
-4.5953975196850392
11
0.7845237401574803
21
-4.5948648425196845
0
LINE
8
BLACK
6
CONTINUOUS
10
0.7845237401574803
20
-4.5948648425196845
11
0.7844488188976377
21
-4.5944881889763778
0
LINE
8
BLACK
6
CONTINUOUS
10
0.7844488188976377
20
-4.5944881889763778
11
0.7844488188976377
21
-4.1456692913385824
0
LINE
8
BLACK
6
CONTINUOUS
10
0.7844488188976377
20
-4.1456692913385824
11
0.7845237401574803
21
-4.1452926377952757
0
LINE
8
BLACK
6
CONTINUOUS
10
0.7845237401574803
20
-4.1452926377952757
11
0.7850564173228346
21
-4.144759960629921
0
LINE
8
BLACK
6
CONTINUOUS
10
0.7850564173228346
20
-4.144759960629921
11
0.7854330708661417
21
-4.1446850393700787
0
LINE
8
BLACK
6
CONTINUOUS
10
0.7854330708661417
20
-4.1446850393700787
11
1.1200787401574803
21
-4.1446850393700787
0
LINE
8
BLACK
6
CONTINUOUS
10
1.1200787401574803
20
-4.1446850393700787
11
1.1204553937007873
21
-4.144759960629921
0
LINE
8
BLACK
6
CONTINUOUS
10
0.7864173228346456
20
-4.1466535433070861
11
0.7864173228346456
21
-4.5935039370078741
0
LINE
8
BLACK
6
CONTINUOUS
10
0.7864173228346456
20
-4.5935039370078741
11
1.1190944881889764
21
-4.5935039370078741
0
LINE
8
BLACK
6
CONTINUOUS
10
1.1190944881889764
20
-4.5935039370078741
11
1.1190944881889764
21
-4.1466535433070861
0
LINE
8
BLACK
6
CONTINUOUS
10
1.1190944881889764
20
-4.1466535433070861
11
0.7864173228346456
21
-4.1466535433070861
0
LINE
8
BLACK
6
CONTINUOUS
10
4.4373845275590549
20
-1.1900355511811023
11
4.4379172047244095
21
-1.1905682283464567
0
LINE
8
BLACK
6
CONTINUOUS
10
4.4379172047244095
20
-1.1905682283464567
11
4.4379921259842519
21
-1.1909448818897637
0
LINE
8
BLACK
6
CONTINUOUS
10
4.4379921259842519
20
-1.1909448818897637
11
4.4379921259842519
21
-1.5255905511811023
0
LINE
8
BLACK
6
CONTINUOUS
10
4.4379921259842519
20
-1.5255905511811023
11
4.4379172047244095
21
-1.5259672047244095
0
LINE
8
BLACK
6
CONTINUOUS
10
4.4379172047244095
20
-1.5259672047244095
11
4.4373845275590549
21
-1.5264998818897637
0
LINE
8
BLACK
6
CONTINUOUS
10
4.4373845275590549
20
-1.5264998818897637
11
4.4370078740157481
21
-1.5265748031496063
0
LINE
8
BLACK
6
CONTINUOUS
10
4.4370078740157481
20
-1.5265748031496063
11
3.9881889763779528
21
-1.5265748031496063
0
LINE
8
BLACK
6
CONTINUOUS
10
3.9881889763779528
20
-1.5265748031496063
11
3.9878123228346456
21
-1.5264998818897637
0
LINE
8
BLACK
6
CONTINUOUS
10
3.9878123228346456
20
-1.5264998818897637
11
3.9872796456692914
21
-1.5259672047244095
0
LINE
8
BLACK
6
CONTINUOUS
10
3.9872796456692914
20
-1.5259672047244095
11
3.9872047244094486
21
-1.5255905511811023
0
LINE
8
BLACK
6
CONTINUOUS
10
3.9872047244094486
20
-1.5255905511811023
11
3.9872047244094486
21
-1.1909448818897637
0
LINE
8
BLACK
6
CONTINUOUS
10
3.9872047244094486
20
-1.1909448818897637
11
3.9872796456692914
21
-1.1905682283464567
0
LINE
8
BLACK
6
CONTINUOUS
10
3.9872796456692914
20
-1.1905682283464567
11
3.9878123228346456
21
-1.1900355511811023
0
LINE
8
BLACK
6
CONTINUOUS
10
3.9878123228346456
20
-1.1900355511811023
11
3.9881889763779528
21
-1.1899606299212597
0
LINE
8
BLACK
6
CONTINUOUS
10
3.9881889763779528
20
-1.1899606299212597
11
4.4370078740157481
21
-1.1899606299212597
0
LINE
8
BLACK
6
CONTINUOUS
10
4.4370078740157481
20
-1.1899606299212597
11
4.4373845275590549
21
-1.1900355511811023
0
LINE
8
BLACK
6
CONTINUOUS
10
3.9891732283464565
20
-1.1919291338582676
11
3.9891732283464565
21
-1.5246062992125984
0
LINE
8
BLACK
6
CONTINUOUS
10
3.9891732283464565
20
-1.5246062992125984
11
4.4360236220472444
21
-1.5246062992125984
0
LINE
8
BLACK
6
CONTINUOUS
10
4.4360236220472444
20
-1.5246062992125984
11
4.4360236220472444
21
-1.1919291338582676
0
LINE
8
BLACK
6
CONTINUOUS
10
4.4360236220472444
20
-1.1919291338582676
11
3.9891732283464565
21
-1.1919291338582676
  0
ENDSEC
  0
EOF
