  0
SECTION
  2
HEADER
  9
$ANGBASE
  50
0.0
  9
$ANGDIR
  70
1
  9
$MEASUREMENT
  70
0
  0
ENDSEC
  0
SECTION
  2
TABLES
  0
TABLE
  2
LTYPE
  70
4
  0
LTYPE
  5
40F
  2
CONTINUOUS
  70
0
  3
Solid line
  72
65
  73
0
  40
0.0
  0
LTYPE
  5
410
  2
DASHDOT
 70
0
  3
Dash Dot ____ _ ____ _
 72
65
 73
4
 40
2.0
 49
1.25
 49
-0.25
 49
0.25
 49
-0.25
  0
LTYPE
  5
411
  2
DASHED
 70
0
  3
Dashed __ __ __ __ __
 72
65
 73
2
 40
0.75
 49
0.5
 49
-0.25
  0
LTYPE
  5
43B
  2
DOTTED
 70
0
  3
Dotted .  .  .  .
 72
65
 73
2
 40
0.2
 49
0.0
 49
-0.2
  0
ENDTAB
  0
TABLE
  2
STYLE
  70
4
  0
STYLE
  2
KICAD
  70
0
  40
0
  41
1
  42
1
  50
0
  71
0
  3
isocp.shx
  0
STYLE
  2
KICADB
  70
0
  40
0
  41
1
  42
1
  50
0
  71
0
  3
isocp.shx
  0
STYLE
  2
KICADI
  70
0
  40
0
  41
1
  42
1
  50
15
  71
0
  3
isocp.shx
  0
STYLE
  2
KICADBI
  70
0
  40
0
  41
1
  42
1
  50
15
  71
0
  3
isocp.shx
  0
ENDTAB
  0
TABLE
  2
LAYER
  70
1
  0
LAYER
  2
BLACK
  70
0
  62
7
  6
CONTINUOUS
  0
ENDTAB
  0
ENDSEC
  0
SECTION
  2
ENTITIES
0
LINE
8
BLACK
6
CONTINUOUS
10
2.9565971259842518
20
-2.9153426377952756
11
2.9571298031496061
21
-2.9158753149606298
0
LINE
8
BLACK
6
CONTINUOUS
10
2.9571298031496061
20
-2.9158753149606298
11
2.9572047244094488
21
-2.916251968503937
0
LINE
8
BLACK
6
CONTINUOUS
10
2.9572047244094488
20
-2.916251968503937
11
2.9572047244094488
21
-3.0579842519685037
0
LINE
8
BLACK
6
CONTINUOUS
10
2.9572047244094488
20
-3.0579842519685037
11
2.9571298031496061
21
-3.0583609055118108
0
LINE
8
BLACK
6
CONTINUOUS
10
2.9571298031496061
20
-3.0583609055118108
11
2.9565971259842518
21
-3.0588935826771655
0
LINE
8
BLACK
6
CONTINUOUS
10
2.9565971259842518
20
-3.0588935826771655
11
2.9562204724409447
21
-3.0589685039370078
0
LINE
8
BLACK
6
CONTINUOUS
10
2.9562204724409447
20
-3.0589685039370078
11
2.5152755905511812
21
-3.0589685039370078
0
LINE
8
BLACK
6
CONTINUOUS
10
2.5152755905511812
20
-3.0589685039370078
11
2.514898937007874
21
-3.0588935826771655
0
LINE
8
BLACK
6
CONTINUOUS
10
2.514898937007874
20
-3.0588935826771655
11
2.5143662598425198
21
-3.0583609055118108
0
LINE
8
BLACK
6
CONTINUOUS
10
2.5143662598425198
20
-3.0583609055118108
11
2.5142913385826771
21
-3.0579842519685037
0
LINE
8
BLACK
6
CONTINUOUS
10
2.5142913385826771
20
-3.0579842519685037
11
2.5142913385826771
21
-2.916251968503937
0
LINE
8
BLACK
6
CONTINUOUS
10
2.5142913385826771
20
-2.916251968503937
11
2.5143662598425198
21
-2.9158753149606298
0
LINE
8
BLACK
6
CONTINUOUS
10
2.5143662598425198
20
-2.9158753149606298
11
2.514898937007874
21
-2.9153426377952756
0
LINE
8
BLACK
6
CONTINUOUS
10
2.514898937007874
20
-2.9153426377952756
11
2.5152755905511812
21
-2.9152677165354328
0
LINE
8
BLACK
6
CONTINUOUS
10
2.5152755905511812
20
-2.9152677165354328
11
2.9562204724409447
21
-2.9152677165354328
0
LINE
8
BLACK
6
CONTINUOUS
10
2.9562204724409447
20
-2.9152677165354328
11
2.9565971259842518
21
-2.9153426377952756
0
LINE
8
BLACK
6
CONTINUOUS
10
2.5162598425196849
20
-2.9172362204724407
11
2.5162598425196849
21
-3.0569999999999999
0
LINE
8
BLACK
6
CONTINUOUS
10
2.5162598425196849
20
-3.0569999999999999
11
2.9552362204724409
21
-3.0569999999999999
0
LINE
8
BLACK
6
CONTINUOUS
10
2.9552362204724409
20
-3.0569999999999999
11
2.9552362204724409
21
-2.9172362204724407
0
LINE
8
BLACK
6
CONTINUOUS
10
2.9552362204724409
20
-2.9172362204724407
11
2.5162598425196849
21
-2.9172362204724407
0
LINE
8
BLACK
6
CONTINUOUS
10
5.9093530314960629
20
-2.9153426377952756
11
5.9098857086614176
21
-2.9158753149606298
0
LINE
8
BLACK
6
CONTINUOUS
10
5.9098857086614176
20
-2.9158753149606298
11
5.9099606299212599
21
-2.916251968503937
0
LINE
8
BLACK
6
CONTINUOUS
10
5.9099606299212599
20
-2.916251968503937
11
5.9099606299212599
21
-3.0579842519685037
0
LINE
8
BLACK
6
CONTINUOUS
10
5.9099606299212599
20
-3.0579842519685037
11
5.9098857086614176
21
-3.0583609055118108
0
LINE
8
BLACK
6
CONTINUOUS
10
5.9098857086614176
20
-3.0583609055118108
11
5.9093530314960629
21
-3.0588935826771655
0
LINE
8
BLACK
6
CONTINUOUS
10
5.9093530314960629
20
-3.0588935826771655
11
5.9089763779527562
21
-3.0589685039370078
0
LINE
8
BLACK
6
CONTINUOUS
10
5.9089763779527562
20
-3.0589685039370078
11
5.4680314960629923
21
-3.0589685039370078
0
LINE
8
BLACK
6
CONTINUOUS
10
5.4680314960629923
20
-3.0589685039370078
11
5.4676548425196847
21
-3.0588935826771655
0
LINE
8
BLACK
6
CONTINUOUS
10
5.4676548425196847
20
-3.0588935826771655
11
5.4671221653543309
21
-3.0583609055118108
0
LINE
8
BLACK
6
CONTINUOUS
10
5.4671221653543309
20
-3.0583609055118108
11
5.4670472440944877
21
-3.0579842519685037
0
LINE
8
BLACK
6
CONTINUOUS
10
5.4670472440944877
20
-3.0579842519685037
11
5.4670472440944877
21
-2.916251968503937
0
LINE
8
BLACK
6
CONTINUOUS
10
5.4670472440944877
20
-2.916251968503937
11
5.4671221653543309
21
-2.9158753149606298
0
LINE
8
BLACK
6
CONTINUOUS
10
5.4671221653543309
20
-2.9158753149606298
11
5.4676548425196847
21
-2.9153426377952756
0
LINE
8
BLACK
6
CONTINUOUS
10
5.4676548425196847
20
-2.9153426377952756
11
5.4680314960629923
21
-2.9152677165354328
0
LINE
8
BLACK
6
CONTINUOUS
10
5.4680314960629923
20
-2.9152677165354328
11
5.9089763779527562
21
-2.9152677165354328
0
LINE
8
BLACK
6
CONTINUOUS
10
5.9089763779527562
20
-2.9152677165354328
11
5.9093530314960629
21
-2.9153426377952756
0
LINE
8
BLACK
6
CONTINUOUS
10
5.469015748031496
20
-2.9172362204724407
11
5.469015748031496
21
-3.0569999999999999
0
LINE
8
BLACK
6
CONTINUOUS
10
5.469015748031496
20
-3.0569999999999999
11
5.9079921259842516
21
-3.0569999999999999
0
LINE
8
BLACK
6
CONTINUOUS
10
5.9079921259842516
20
-3.0569999999999999
11
5.9079921259842516
21
-2.9172362204724407
0
LINE
8
BLACK
6
CONTINUOUS
10
5.9079921259842516
20
-2.9172362204724407
11
5.469015748031496
21
-2.9172362204724407
0
LINE
8
BLACK
6
CONTINUOUS
10
5.3822664173228345
20
-2.9216300393700787
11
5.3827990944881892
21
-2.9221627165354329
0
LINE
8
BLACK
6
CONTINUOUS
10
5.3827990944881892
20
-2.9221627165354329
11
5.3828740157480315
21
-2.9225393700787401
0
LINE
8
BLACK
6
CONTINUOUS
10
5.3828740157480315
20
-2.9225393700787401
11
5.3828740157480315
21
-3.0548228346456692
0
LINE
8
BLACK
6
CONTINUOUS
10
5.3828740157480315
20
-3.0548228346456692
11
5.3827990944881892
21
-3.0551994881889764
0
LINE
8
BLACK
6
CONTINUOUS
10
5.3827990944881892
20
-3.0551994881889764
11
5.3822664173228345
21
-3.0557321653543306
0
LINE
8
BLACK
6
CONTINUOUS
10
5.3822664173228345
20
-3.0557321653543306
11
5.3818897637795278
21
-3.0558070866141733
0
LINE
8
BLACK
6
CONTINUOUS
10
5.3818897637795278
20
-3.0558070866141733
11
5.3070866141732278
21
-3.0558070866141733
0
LINE
8
BLACK
6
CONTINUOUS
10
5.3070866141732278
20
-3.0558070866141733
11
5.3067099606299211
21
-3.0557321653543306
0
LINE
8
BLACK
6
CONTINUOUS
10
5.3067099606299211
20
-3.0557321653543306
11
5.3061772834645664
21
-3.0551994881889764
0
LINE
8
BLACK
6
CONTINUOUS
10
5.3061772834645664
20
-3.0551994881889764
11
5.3061023622047241
21
-3.0548228346456692
0
LINE
8
BLACK
6
CONTINUOUS
10
5.3061023622047241
20
-3.0548228346456692
11
5.3061023622047241
21
-2.9225393700787401
0
LINE
8
BLACK
6
CONTINUOUS
10
5.3061023622047241
20
-2.9225393700787401
11
5.3061772834645664
21
-2.9221627165354329
0
LINE
8
BLACK
6
CONTINUOUS
10
5.3061772834645664
20
-2.9221627165354329
11
5.3067099606299211
21
-2.9216300393700787
0
LINE
8
BLACK
6
CONTINUOUS
10
5.3067099606299211
20
-2.9216300393700787
11
5.3070866141732278
21
-2.9215551181102359
0
LINE
8
BLACK
6
CONTINUOUS
10
5.3070866141732278
20
-2.9215551181102359
11
5.3818897637795278
21
-2.9215551181102359
0
LINE
8
BLACK
6
CONTINUOUS
10
5.3818897637795278
20
-2.9215551181102359
11
5.3822664173228345
21
-2.9216300393700787
0
LINE
8
BLACK
6
CONTINUOUS
10
5.3080708661417324
20
-2.9235236220472438
11
5.3080708661417324
21
-3.0538385826771655
0
LINE
8
BLACK
6
CONTINUOUS
10
5.3080708661417324
20
-3.0538385826771655
11
5.3809055118110232
21
-3.0538385826771655
0
LINE
8
BLACK
6
CONTINUOUS
10
5.3809055118110232
20
-3.0538385826771655
11
5.3809055118110232
21
-2.9235236220472438
0
LINE
8
BLACK
6
CONTINUOUS
10
5.3809055118110232
20
-2.9235236220472438
11
5.3080708661417324
21
-2.9235236220472438
0
LINE
8
BLACK
6
CONTINUOUS
10
5.4610065748031493
20
-2.9216300393700787
11
5.461539251968504
21
-2.9221627165354329
0
LINE
8
BLACK
6
CONTINUOUS
10
5.461539251968504
20
-2.9221627165354329
11
5.4616141732283463
21
-2.9225393700787401
0
LINE
8
BLACK
6
CONTINUOUS
10
5.4616141732283463
20
-2.9225393700787401
11
5.4616141732283463
21
-3.0548228346456692
0
LINE
8
BLACK
6
CONTINUOUS
10
5.4616141732283463
20
-3.0548228346456692
11
5.461539251968504
21
-3.0551994881889764
0
LINE
8
BLACK
6
CONTINUOUS
10
5.461539251968504
20
-3.0551994881889764
11
5.4610065748031493
21
-3.0557321653543306
0
LINE
8
BLACK
6
CONTINUOUS
10
5.4610065748031493
20
-3.0557321653543306
11
5.4606299212598426
21
-3.0558070866141733
0
LINE
8
BLACK
6
CONTINUOUS
10
5.4606299212598426
20
-3.0558070866141733
11
5.3858267716535435
21
-3.0558070866141733
0
LINE
8
BLACK
6
CONTINUOUS
10
5.3858267716535435
20
-3.0558070866141733
11
5.3854501181102359
21
-3.0557321653543306
0
LINE
8
BLACK
6
CONTINUOUS
10
5.3854501181102359
20
-3.0557321653543306
11
5.3849174409448821
21
-3.0551994881889764
0
LINE
8
BLACK
6
CONTINUOUS
10
5.3849174409448821
20
-3.0551994881889764
11
5.3848425196850389
21
-3.0548228346456692
0
LINE
8
BLACK
6
CONTINUOUS
10
5.3848425196850389
20
-3.0548228346456692
11
5.3848425196850389
21
-2.9225393700787401
0
LINE
8
BLACK
6
CONTINUOUS
10
5.3848425196850389
20
-2.9225393700787401
11
5.3849174409448821
21
-2.9221627165354329
0
LINE
8
BLACK
6
CONTINUOUS
10
5.3849174409448821
20
-2.9221627165354329
11
5.3854501181102359
21
-2.9216300393700787
0
LINE
8
BLACK
6
CONTINUOUS
10
5.3854501181102359
20
-2.9216300393700787
11
5.3858267716535435
21
-2.9215551181102359
0
LINE
8
BLACK
6
CONTINUOUS
10
5.3858267716535435
20
-2.9215551181102359
11
5.4606299212598426
21
-2.9215551181102359
0
LINE
8
BLACK
6
CONTINUOUS
10
5.4606299212598426
20
-2.9215551181102359
11
5.4610065748031493
21
-2.9216300393700787
0
LINE
8
BLACK
6
CONTINUOUS
10
5.3868110236220472
20
-2.9235236220472438
11
5.3868110236220472
21
-3.0538385826771655
0
LINE
8
BLACK
6
CONTINUOUS
10
5.3868110236220472
20
-3.0538385826771655
11
5.4596456692913389
21
-3.0538385826771655
0
LINE
8
BLACK
6
CONTINUOUS
10
5.4596456692913389
20
-3.0538385826771655
11
5.4596456692913389
21
-2.9235236220472438
0
LINE
8
BLACK
6
CONTINUOUS
10
5.4596456692913389
20
-2.9235236220472438
11
5.3868110236220472
21
-2.9235236220472438
0
LINE
8
BLACK
6
CONTINUOUS
10
5.9334475196850391
20
-2.4892481496062993
11
5.9339801968503938
21
-2.4897808267716535
0
LINE
8
BLACK
6
CONTINUOUS
10
5.9339801968503938
20
-2.4897808267716535
11
5.9340551181102361
21
-2.4901574803149606
0
LINE
8
BLACK
6
CONTINUOUS
10
5.9340551181102361
20
-2.4901574803149606
11
5.9340551181102361
21
-2.8248031496062991
0
LINE
8
BLACK
6
CONTINUOUS
10
5.9340551181102361
20
-2.8248031496062991
11
5.9339801968503938
21
-2.8251798031496063
0
LINE
8
BLACK
6
CONTINUOUS
10
5.9339801968503938
20
-2.8251798031496063
11
5.9334475196850391
21
-2.8257124803149605
0
LINE
8
BLACK
6
CONTINUOUS
10
5.9334475196850391
20
-2.8257124803149605
11
5.9330708661417324
21
-2.8257874015748032
0
LINE
8
BLACK
6
CONTINUOUS
10
5.9330708661417324
20
-2.8257874015748032
11
5.4055118110236222
21
-2.8257874015748032
0
LINE
8
BLACK
6
CONTINUOUS
10
5.4055118110236222
20
-2.8257874015748032
11
5.4051351574803146
21
-2.8257124803149605
0
LINE
8
BLACK
6
CONTINUOUS
10
5.4051351574803146
20
-2.8257124803149605
11
5.4046024803149608
21
-2.8251798031496063
0
LINE
8
BLACK
6
CONTINUOUS
10
5.4046024803149608
20
-2.8251798031496063
11
5.4045275590551176
21
-2.8248031496062991
0
LINE
8
BLACK
6
CONTINUOUS
10
5.4045275590551176
20
-2.8248031496062991
11
5.4045275590551176
21
-2.4901574803149606
0
LINE
8
BLACK
6
CONTINUOUS
10
5.4045275590551176
20
-2.4901574803149606
11
5.4046024803149608
21
-2.4897808267716535
0
LINE
8
BLACK
6
CONTINUOUS
10
5.4046024803149608
20
-2.4897808267716535
11
5.4051351574803146
21
-2.4892481496062993
0
LINE
8
BLACK
6
CONTINUOUS
10
5.4051351574803146
20
-2.4892481496062993
11
5.4055118110236222
21
-2.4891732283464565
0
LINE
8
BLACK
6
CONTINUOUS
10
5.4055118110236222
20
-2.4891732283464565
11
5.9330708661417324
21
-2.4891732283464565
0
LINE
8
BLACK
6
CONTINUOUS
10
5.9330708661417324
20
-2.4891732283464565
11
5.9334475196850391
21
-2.4892481496062993
0
LINE
8
BLACK
6
CONTINUOUS
10
5.4064960629921259
20
-2.4911417322834644
11
5.4064960629921259
21
-2.8238188976377954
0
LINE
8
BLACK
6
CONTINUOUS
10
5.4064960629921259
20
-2.8238188976377954
11
5.9320866141732278
21
-2.8238188976377954
0
LINE
8
BLACK
6
CONTINUOUS
10
5.9320866141732278
20
-2.8238188976377954
11
5.9320866141732278
21
-2.4911417322834644
0
LINE
8
BLACK
6
CONTINUOUS
10
5.9320866141732278
20
-2.4911417322834644
11
5.4064960629921259
21
-2.4911417322834644
0
LINE
8
BLACK
6
CONTINUOUS
10
4.4373845275590549
20
-1.7313741338582678
11
4.4379172047244095
21
-1.731906811023622
0
LINE
8
BLACK
6
CONTINUOUS
10
4.4379172047244095
20
-1.731906811023622
11
4.4379921259842519
21
-1.7322834645669292
0
LINE
8
BLACK
6
CONTINUOUS
10
4.4379921259842519
20
-1.7322834645669292
11
4.4379921259842519
21
-2.0669291338582676
0
LINE
8
BLACK
6
CONTINUOUS
10
4.4379921259842519
20
-2.0669291338582676
11
4.4379921259842519
21
-2.401574803149606
0
LINE
8
BLACK
6
CONTINUOUS
10
4.4379921259842519
20
-2.401574803149606
11
4.4379172047244095
21
-2.4019514566929132
0
LINE
8
BLACK
6
CONTINUOUS
10
4.4379172047244095
20
-2.4019514566929132
11
4.4373845275590549
21
-2.4024841338582679
0
LINE
8
BLACK
6
CONTINUOUS
10
4.4373845275590549
20
-2.4024841338582679
11
4.4370078740157481
21
-2.4025590551181102
0
LINE
8
BLACK
6
CONTINUOUS
10
4.4370078740157481
20
-2.4025590551181102
11
3.9881889763779528
21
-2.4025590551181102
0
LINE
8
BLACK
6
CONTINUOUS
10
3.9881889763779528
20
-2.4025590551181102
11
3.9878123228346456
21
-2.4024841338582679
0
LINE
8
BLACK
6
CONTINUOUS
10
3.9878123228346456
20
-2.4024841338582679
11
3.9872796456692914
21
-2.4019514566929132
0
LINE
8
BLACK
6
CONTINUOUS
10
3.9872796456692914
20
-2.4019514566929132
11
3.9872047244094486
21
-2.401574803149606
0
LINE
8
BLACK
6
CONTINUOUS
10
3.9872047244094486
20
-2.401574803149606
11
3.9872047244094486
21
-2.0669291338582676
0
LINE
8
BLACK
6
CONTINUOUS
10
3.9872047244094486
20
-2.0669291338582676
11
3.9872047244094486
21
-1.7322834645669292
0
LINE
8
BLACK
6
CONTINUOUS
10
3.9872047244094486
20
-1.7322834645669292
11
3.9872796456692914
21
-1.731906811023622
0
LINE
8
BLACK
6
CONTINUOUS
10
3.9872796456692914
20
-1.731906811023622
11
3.9878123228346456
21
-1.7313741338582678
0
LINE
8
BLACK
6
CONTINUOUS
10
3.9878123228346456
20
-1.7313741338582678
11
3.9881889763779528
21
-1.7312992125984252
0
LINE
8
BLACK
6
CONTINUOUS
10
3.9881889763779528
20
-1.7312992125984252
11
4.4370078740157481
21
-1.7312992125984252
0
LINE
8
BLACK
6
CONTINUOUS
10
4.4370078740157481
20
-1.7312992125984252
11
4.4373845275590549
21
-1.7313741338582678
0
LINE
8
BLACK
6
CONTINUOUS
10
3.9891732283464565
20
-2.0679133858267718
11
3.9891732283464565
21
-2.4005905511811023
0
LINE
8
BLACK
6
CONTINUOUS
10
3.9891732283464565
20
-2.4005905511811023
11
4.4360236220472444
21
-2.4005905511811023
0
LINE
8
BLACK
6
CONTINUOUS
10
4.4360236220472444
20
-2.4005905511811023
11
4.4360236220472444
21
-2.0679133858267718
0
LINE
8
BLACK
6
CONTINUOUS
10
4.4360236220472444
20
-2.0679133858267718
11
3.9891732283464565
21
-2.0679133858267718
0
LINE
8
BLACK
6
CONTINUOUS
10
3.9891732283464565
20
-1.7332677165354331
11
3.9891732283464565
21
-2.0659448818897639
0
LINE
8
BLACK
6
CONTINUOUS
10
3.9891732283464565
20
-2.0659448818897639
11
4.4360236220472444
21
-2.0659448818897639
0
LINE
8
BLACK
6
CONTINUOUS
10
4.4360236220472444
20
-2.0659448818897639
11
4.4360236220472444
21
-1.7332677165354331
0
LINE
8
BLACK
6
CONTINUOUS
10
4.4360236220472444
20
-1.7332677165354331
11
3.9891732283464565
21
-1.7332677165354331
0
CIRCLE
8
BLACK
10
6.6929133858267713
20
-5.2362204724409445
40
0.0492125984251968
0
CIRCLE
8
BLACK
10
6.6929133858267713
20
-1.1023622047244095
40
0.0492125984251968
0
CIRCLE
8
BLACK
10
2.1456692913385824
20
-2.9606299212598426
40
0.0334645669291339
0
CIRCLE
8
BLACK
10
2.1456692913385824
20
-5.0078740157480315
40
0.0334645669291339
0
CIRCLE
8
BLACK
10
3.326771653543307
20
-2.9606299212598426
40
0.0334645669291339
0
CIRCLE
8
BLACK
10
3.326771653543307
20
-5.0078740157480315
40
0.0334645669291339
0
CIRCLE
8
BLACK
10
1.7322834645669292
20
-5.2362204724409445
40
0.0492125984251968
0
CIRCLE
8
BLACK
10
4.21259842519685
20
-4.0551181102362204
40
0.0492125984251968
0
CIRCLE
8
BLACK
10
1.7322834645669292
20
-1.1023622047244095
40
0.0492125984251968
0
CIRCLE
8
BLACK
10
5.0984251968503935
20
-2.9606299212598426
40
0.0334645669291339
0
CIRCLE
8
BLACK
10
5.0984251968503935
20
-5.0078740157480315
40
0.0334645669291339
0
CIRCLE
8
BLACK
10
6.2795275590551176
20
-2.9606299212598426
40
0.0334645669291339
0
CIRCLE
8
BLACK
10
6.2795275590551176
20
-5.0078740157480315
40
0.0334645669291339
  0
ENDSEC
  0
EOF
