  0
SECTION
  2
HEADER
  9
$ANGBASE
  50
0.0
  9
$ANGDIR
  70
1
  9
$MEASUREMENT
  70
0
  0
ENDSEC
  0
SECTION
  2
TABLES
  0
TABLE
  2
LTYPE
  70
4
  0
LTYPE
  5
40F
  2
CONTINUOUS
  70
0
  3
Solid line
  72
65
  73
0
  40
0.0
  0
LTYPE
  5
410
  2
DASHDOT
 70
0
  3
Dash Dot ____ _ ____ _
 72
65
 73
4
 40
2.0
 49
1.25
 49
-0.25
 49
0.25
 49
-0.25
  0
LTYPE
  5
411
  2
DASHED
 70
0
  3
Dashed __ __ __ __ __
 72
65
 73
2
 40
0.75
 49
0.5
 49
-0.25
  0
LTYPE
  5
43B
  2
DOTTED
 70
0
  3
Dotted .  .  .  .
 72
65
 73
2
 40
0.2
 49
0.0
 49
-0.2
  0
ENDTAB
  0
TABLE
  2
STYLE
  70
4
  0
STYLE
  2
KICAD
  70
0
  40
0
  41
1
  42
1
  50
0
  71
0
  3
isocp.shx
  0
STYLE
  2
KICADB
  70
0
  40
0
  41
1
  42
1
  50
0
  71
0
  3
isocp.shx
  0
STYLE
  2
KICADI
  70
0
  40
0
  41
1
  42
1
  50
15
  71
0
  3
isocp.shx
  0
STYLE
  2
KICADBI
  70
0
  40
0
  41
1
  42
1
  50
15
  71
0
  3
isocp.shx
  0
ENDTAB
  0
TABLE
  2
LAYER
  70
1
  0
LAYER
  2
BLACK
  70
0
  62
7
  6
CONTINUOUS
  0
ENDTAB
  0
ENDSEC
  0
SECTION
  2
ENTITIES
0
LINE
8
BLACK
6
CONTINUOUS
10
0.9565224803149606
20
-4.5125602362204722
11
0.9597156299212598
21
-4.514693818897638
0
LINE
8
BLACK
6
CONTINUOUS
10
0.9597156299212598
20
-4.514693818897638
11
0.9618492125984252
21
-4.5178869685039373
0
LINE
8
BLACK
6
CONTINUOUS
10
0.9618492125984252
20
-4.5178869685039373
11
0.9625984251968503
21
-4.5216535433070861
0
LINE
8
BLACK
6
CONTINUOUS
10
0.9625984251968503
20
-4.5216535433070861
11
0.9625984251968503
21
-4.5649606299212602
0
LINE
8
BLACK
6
CONTINUOUS
10
0.9625984251968503
20
-4.5649606299212602
11
0.9618492125984252
21
-4.568727204724409
0
LINE
8
BLACK
6
CONTINUOUS
10
0.9618492125984252
20
-4.568727204724409
11
0.9597156299212598
21
-4.5719203543307083
0
LINE
8
BLACK
6
CONTINUOUS
10
0.9597156299212598
20
-4.5719203543307083
11
0.9565224803149606
21
-4.5740539370078741
0
LINE
8
BLACK
6
CONTINUOUS
10
0.9565224803149606
20
-4.5740539370078741
11
0.952755905511811
21
-4.5748031496062991
0
LINE
8
BLACK
6
CONTINUOUS
10
0.952755905511811
20
-4.5748031496062991
11
0.8543307086614172
21
-4.5748031496062991
0
LINE
8
BLACK
6
CONTINUOUS
10
0.8543307086614172
20
-4.5748031496062991
11
0.8505641338582677
21
-4.5740539370078741
0
LINE
8
BLACK
6
CONTINUOUS
10
0.8505641338582677
20
-4.5740539370078741
11
0.8473709842519684
21
-4.5719203543307083
0
LINE
8
BLACK
6
CONTINUOUS
10
0.8473709842519684
20
-4.5719203543307083
11
0.8452374015748031
21
-4.568727204724409
0
LINE
8
BLACK
6
CONTINUOUS
10
0.8452374015748031
20
-4.568727204724409
11
0.8444881889763779
21
-4.5649606299212602
0
LINE
8
BLACK
6
CONTINUOUS
10
0.8444881889763779
20
-4.5649606299212602
11
0.8444881889763779
21
-4.5216535433070861
0
LINE
8
BLACK
6
CONTINUOUS
10
0.8444881889763779
20
-4.5216535433070861
11
0.8452374015748031
21
-4.5178869685039373
0
LINE
8
BLACK
6
CONTINUOUS
10
0.8452374015748031
20
-4.5178869685039373
11
0.8473709842519684
21
-4.514693818897638
0
LINE
8
BLACK
6
CONTINUOUS
10
0.8473709842519684
20
-4.514693818897638
11
0.8505641338582677
21
-4.5125602362204722
0
LINE
8
BLACK
6
CONTINUOUS
10
0.8505641338582677
20
-4.5125602362204722
11
0.8543307086614172
21
-4.5118110236220472
0
LINE
8
BLACK
6
CONTINUOUS
10
0.8543307086614172
20
-4.5118110236220472
11
0.952755905511811
21
-4.5118110236220472
0
LINE
8
BLACK
6
CONTINUOUS
10
0.952755905511811
20
-4.5118110236220472
11
0.9565224803149606
21
-4.5125602362204722
0
LINE
8
BLACK
6
CONTINUOUS
10
1.0943177559055117
20
-4.4298830708661416
11
1.0975109055118111
21
-4.4320166535433074
0
LINE
8
BLACK
6
CONTINUOUS
10
1.0975109055118111
20
-4.4320166535433074
11
1.0996444881889764
21
-4.4352098031496059
0
LINE
8
BLACK
6
CONTINUOUS
10
1.0996444881889764
20
-4.4352098031496059
11
1.1003937007874016
21
-4.4389763779527556
0
LINE
8
BLACK
6
CONTINUOUS
10
1.1003937007874016
20
-4.4389763779527556
11
1.1003937007874016
21
-4.4586614173228343
0
LINE
8
BLACK
6
CONTINUOUS
10
1.1003937007874016
20
-4.4586614173228343
11
1.0996444881889764
21
-4.462427992125984
0
LINE
8
BLACK
6
CONTINUOUS
10
1.0996444881889764
20
-4.462427992125984
11
1.0975109055118111
21
-4.4656211417322833
0
LINE
8
BLACK
6
CONTINUOUS
10
1.0975109055118111
20
-4.4656211417322833
11
1.0943177559055117
21
-4.4677547244094491
0
LINE
8
BLACK
6
CONTINUOUS
10
1.0943177559055117
20
-4.4677547244094491
11
1.0905511811023623
21
-4.4685039370078741
0
LINE
8
BLACK
6
CONTINUOUS
10
1.0905511811023623
20
-4.4685039370078741
11
0.8937007874015748
21
-4.4685039370078741
0
LINE
8
BLACK
6
CONTINUOUS
10
0.8937007874015748
20
-4.4685039370078741
11
0.8899342125984252
21
-4.4677547244094491
0
LINE
8
BLACK
6
CONTINUOUS
10
0.8899342125984252
20
-4.4677547244094491
11
0.886741062992126
21
-4.4656211417322833
0
LINE
8
BLACK
6
CONTINUOUS
10
0.886741062992126
20
-4.4656211417322833
11
0.8846074803149606
21
-4.462427992125984
0
LINE
8
BLACK
6
CONTINUOUS
10
0.8846074803149606
20
-4.462427992125984
11
0.8838582677165354
21
-4.4586614173228343
0
LINE
8
BLACK
6
CONTINUOUS
10
0.8838582677165354
20
-4.4586614173228343
11
0.8838582677165354
21
-4.4389763779527556
0
LINE
8
BLACK
6
CONTINUOUS
10
0.8838582677165354
20
-4.4389763779527556
11
0.8846074803149606
21
-4.4352098031496059
0
LINE
8
BLACK
6
CONTINUOUS
10
0.8846074803149606
20
-4.4352098031496059
11
0.886741062992126
21
-4.4320166535433074
0
LINE
8
BLACK
6
CONTINUOUS
10
0.886741062992126
20
-4.4320166535433074
11
0.8899342125984252
21
-4.4298830708661416
0
LINE
8
BLACK
6
CONTINUOUS
10
0.8899342125984252
20
-4.4298830708661416
11
0.8937007874015748
21
-4.4291338582677167
0
LINE
8
BLACK
6
CONTINUOUS
10
0.8937007874015748
20
-4.4291338582677167
11
1.0905511811023623
21
-4.4291338582677167
0
LINE
8
BLACK
6
CONTINUOUS
10
1.0905511811023623
20
-4.4291338582677167
11
1.0943177559055117
21
-4.4298830708661416
0
LINE
8
BLACK
6
CONTINUOUS
10
1.0943177559055117
20
-4.3511429133858268
11
1.0975109055118111
21
-4.3532764960629917
0
LINE
8
BLACK
6
CONTINUOUS
10
1.0975109055118111
20
-4.3532764960629917
11
1.0996444881889764
21
-4.3564696456692911
0
LINE
8
BLACK
6
CONTINUOUS
10
1.0996444881889764
20
-4.3564696456692911
11
1.1003937007874016
21
-4.3602362204724407
0
LINE
8
BLACK
6
CONTINUOUS
10
1.1003937007874016
20
-4.3602362204724407
11
1.1003937007874016
21
-4.3799212598425195
0
LINE
8
BLACK
6
CONTINUOUS
10
1.1003937007874016
20
-4.3799212598425195
11
1.0996444881889764
21
-4.3836878346456691
0
LINE
8
BLACK
6
CONTINUOUS
10
1.0996444881889764
20
-4.3836878346456691
11
1.0975109055118111
21
-4.3868809842519685
0
LINE
8
BLACK
6
CONTINUOUS
10
1.0975109055118111
20
-4.3868809842519685
11
1.0943177559055117
21
-4.3890145669291334
0
LINE
8
BLACK
6
CONTINUOUS
10
1.0943177559055117
20
-4.3890145669291334
11
1.0905511811023623
21
-4.3897637795275593
0
LINE
8
BLACK
6
CONTINUOUS
10
1.0905511811023623
20
-4.3897637795275593
11
0.8937007874015748
21
-4.3897637795275593
0
LINE
8
BLACK
6
CONTINUOUS
10
0.8937007874015748
20
-4.3897637795275593
11
0.8899342125984252
21
-4.3890145669291334
0
LINE
8
BLACK
6
CONTINUOUS
10
0.8899342125984252
20
-4.3890145669291334
11
0.886741062992126
21
-4.3868809842519685
0
LINE
8
BLACK
6
CONTINUOUS
10
0.886741062992126
20
-4.3868809842519685
11
0.8846074803149606
21
-4.3836878346456691
0
LINE
8
BLACK
6
CONTINUOUS
10
0.8846074803149606
20
-4.3836878346456691
11
0.8838582677165354
21
-4.3799212598425195
0
LINE
8
BLACK
6
CONTINUOUS
10
0.8838582677165354
20
-4.3799212598425195
11
0.8838582677165354
21
-4.3602362204724407
0
LINE
8
BLACK
6
CONTINUOUS
10
0.8838582677165354
20
-4.3602362204724407
11
0.8846074803149606
21
-4.3564696456692911
0
LINE
8
BLACK
6
CONTINUOUS
10
0.8846074803149606
20
-4.3564696456692911
11
0.886741062992126
21
-4.3532764960629917
0
LINE
8
BLACK
6
CONTINUOUS
10
0.886741062992126
20
-4.3532764960629917
11
0.8899342125984252
21
-4.3511429133858268
0
LINE
8
BLACK
6
CONTINUOUS
10
0.8899342125984252
20
-4.3511429133858268
11
0.8937007874015748
21
-4.3503937007874018
0
LINE
8
BLACK
6
CONTINUOUS
10
0.8937007874015748
20
-4.3503937007874018
11
1.0905511811023623
21
-4.3503937007874018
0
LINE
8
BLACK
6
CONTINUOUS
10
1.0905511811023623
20
-4.3503937007874018
11
1.0943177559055117
21
-4.3511429133858268
0
LINE
8
BLACK
6
CONTINUOUS
10
1.0943177559055117
20
-4.272402755905512
11
1.0975109055118111
21
-4.2745363385826769
0
LINE
8
BLACK
6
CONTINUOUS
10
1.0975109055118111
20
-4.2745363385826769
11
1.0996444881889764
21
-4.2777294881889762
0
LINE
8
BLACK
6
CONTINUOUS
10
1.0996444881889764
20
-4.2777294881889762
11
1.1003937007874016
21
-4.2814960629921259
0
LINE
8
BLACK
6
CONTINUOUS
10
1.1003937007874016
20
-4.2814960629921259
11
1.1003937007874016
21
-4.3011811023622046
0
LINE
8
BLACK
6
CONTINUOUS
10
1.1003937007874016
20
-4.3011811023622046
11
1.0996444881889764
21
-4.3049476771653543
0
LINE
8
BLACK
6
CONTINUOUS
10
1.0996444881889764
20
-4.3049476771653543
11
1.0975109055118111
21
-4.3081408267716537
0
LINE
8
BLACK
6
CONTINUOUS
10
1.0975109055118111
20
-4.3081408267716537
11
1.0943177559055117
21
-4.3102744094488186
0
LINE
8
BLACK
6
CONTINUOUS
10
1.0943177559055117
20
-4.3102744094488186
11
1.0905511811023623
21
-4.3110236220472444
0
LINE
8
BLACK
6
CONTINUOUS
10
1.0905511811023623
20
-4.3110236220472444
11
0.8937007874015748
21
-4.3110236220472444
0
LINE
8
BLACK
6
CONTINUOUS
10
0.8937007874015748
20
-4.3110236220472444
11
0.8899342125984252
21
-4.3102744094488186
0
LINE
8
BLACK
6
CONTINUOUS
10
0.8899342125984252
20
-4.3102744094488186
11
0.886741062992126
21
-4.3081408267716537
0
LINE
8
BLACK
6
CONTINUOUS
10
0.886741062992126
20
-4.3081408267716537
11
0.8846074803149606
21
-4.3049476771653543
0
LINE
8
BLACK
6
CONTINUOUS
10
0.8846074803149606
20
-4.3049476771653543
11
0.8838582677165354
21
-4.3011811023622046
0
LINE
8
BLACK
6
CONTINUOUS
10
0.8838582677165354
20
-4.3011811023622046
11
0.8838582677165354
21
-4.2814960629921259
0
LINE
8
BLACK
6
CONTINUOUS
10
0.8838582677165354
20
-4.2814960629921259
11
0.8846074803149606
21
-4.2777294881889762
0
LINE
8
BLACK
6
CONTINUOUS
10
0.8846074803149606
20
-4.2777294881889762
11
0.886741062992126
21
-4.2745363385826769
0
LINE
8
BLACK
6
CONTINUOUS
10
0.886741062992126
20
-4.2745363385826769
11
0.8899342125984252
21
-4.272402755905512
0
LINE
8
BLACK
6
CONTINUOUS
10
0.8899342125984252
20
-4.272402755905512
11
0.8937007874015748
21
-4.2716535433070861
0
LINE
8
BLACK
6
CONTINUOUS
10
0.8937007874015748
20
-4.2716535433070861
11
1.0905511811023623
21
-4.2716535433070861
0
LINE
8
BLACK
6
CONTINUOUS
10
1.0905511811023623
20
-4.2716535433070861
11
1.0943177559055117
21
-4.272402755905512
0
LINE
8
BLACK
6
CONTINUOUS
10
0.9565224803149606
20
-4.1661035433070861
11
0.9597156299212598
21
-4.1682371259842519
0
LINE
8
BLACK
6
CONTINUOUS
10
0.9597156299212598
20
-4.1682371259842519
11
0.9618492125984252
21
-4.1714302755905512
0
LINE
8
BLACK
6
CONTINUOUS
10
0.9618492125984252
20
-4.1714302755905512
11
0.9625984251968503
21
-4.1751968503937009
0
LINE
8
BLACK
6
CONTINUOUS
10
0.9625984251968503
20
-4.1751968503937009
11
0.9625984251968503
21
-4.2185039370078741
0
LINE
8
BLACK
6
CONTINUOUS
10
0.9625984251968503
20
-4.2185039370078741
11
0.9618492125984252
21
-4.2222705118110238
0
LINE
8
BLACK
6
CONTINUOUS
10
0.9618492125984252
20
-4.2222705118110238
11
0.9597156299212598
21
-4.2254636614173231
0
LINE
8
BLACK
6
CONTINUOUS
10
0.9597156299212598
20
-4.2254636614173231
11
0.9565224803149606
21
-4.227597244094488
0
LINE
8
BLACK
6
CONTINUOUS
10
0.9565224803149606
20
-4.227597244094488
11
0.952755905511811
21
-4.228346456692913
0
LINE
8
BLACK
6
CONTINUOUS
10
0.952755905511811
20
-4.228346456692913
11
0.8543307086614172
21
-4.228346456692913
0
LINE
8
BLACK
6
CONTINUOUS
10
0.8543307086614172
20
-4.228346456692913
11
0.8505641338582677
21
-4.227597244094488
0
LINE
8
BLACK
6
CONTINUOUS
10
0.8505641338582677
20
-4.227597244094488
11
0.8473709842519684
21
-4.2254636614173231
0
LINE
8
BLACK
6
CONTINUOUS
10
0.8473709842519684
20
-4.2254636614173231
11
0.8452374015748031
21
-4.2222705118110238
0
LINE
8
BLACK
6
CONTINUOUS
10
0.8452374015748031
20
-4.2222705118110238
11
0.8444881889763779
21
-4.2185039370078741
0
LINE
8
BLACK
6
CONTINUOUS
10
0.8444881889763779
20
-4.2185039370078741
11
0.8444881889763779
21
-4.1751968503937009
0
LINE
8
BLACK
6
CONTINUOUS
10
0.8444881889763779
20
-4.1751968503937009
11
0.8452374015748031
21
-4.1714302755905512
0
LINE
8
BLACK
6
CONTINUOUS
10
0.8452374015748031
20
-4.1714302755905512
11
0.8473709842519684
21
-4.1682371259842519
0
LINE
8
BLACK
6
CONTINUOUS
10
0.8473709842519684
20
-4.1682371259842519
11
0.8505641338582677
21
-4.1661035433070861
0
LINE
8
BLACK
6
CONTINUOUS
10
0.8505641338582677
20
-4.1661035433070861
11
0.8543307086614172
21
-4.1653543307086611
0
LINE
8
BLACK
6
CONTINUOUS
10
0.8543307086614172
20
-4.1653543307086611
11
0.952755905511811
21
-4.1653543307086611
0
LINE
8
BLACK
6
CONTINUOUS
10
0.952755905511811
20
-4.1653543307086611
11
0.9565224803149606
21
-4.1661035433070861
0
LINE
8
BLACK
6
CONTINUOUS
10
4.1474673622047247
20
-1.2901192913385826
11
4.1506605118110231
21
-1.292252874015748
0
LINE
8
BLACK
6
CONTINUOUS
10
4.1506605118110231
20
-1.292252874015748
11
4.1527940944881889
21
-1.2954460236220473
0
LINE
8
BLACK
6
CONTINUOUS
10
4.1527940944881889
20
-1.2954460236220473
11
4.1535433070866139
21
-1.2992125984251968
0
LINE
8
BLACK
6
CONTINUOUS
10
4.1535433070866139
20
-1.2992125984251968
11
4.1535433070866139
21
-1.4960629921259843
0
LINE
8
BLACK
6
CONTINUOUS
10
4.1535433070866139
20
-1.4960629921259843
11
4.1527940944881889
21
-1.4998295669291337
0
LINE
8
BLACK
6
CONTINUOUS
10
4.1527940944881889
20
-1.4998295669291337
11
4.1506605118110231
21
-1.5030227165354331
0
LINE
8
BLACK
6
CONTINUOUS
10
4.1506605118110231
20
-1.5030227165354331
11
4.1474673622047247
21
-1.5051562992125984
0
LINE
8
BLACK
6
CONTINUOUS
10
4.1474673622047247
20
-1.5051562992125984
11
4.143700787401575
21
-1.5059055118110236
0
LINE
8
BLACK
6
CONTINUOUS
10
4.143700787401575
20
-1.5059055118110236
11
4.1240157480314963
21
-1.5059055118110236
0
LINE
8
BLACK
6
CONTINUOUS
10
4.1240157480314963
20
-1.5059055118110236
11
4.1202491732283466
21
-1.5051562992125984
0
LINE
8
BLACK
6
CONTINUOUS
10
4.1202491732283466
20
-1.5051562992125984
11
4.1170560236220473
21
-1.5030227165354331
0
LINE
8
BLACK
6
CONTINUOUS
10
4.1170560236220473
20
-1.5030227165354331
11
4.1149224409448815
21
-1.4998295669291337
0
LINE
8
BLACK
6
CONTINUOUS
10
4.1149224409448815
20
-1.4998295669291337
11
4.1141732283464565
21
-1.4960629921259843
0
LINE
8
BLACK
6
CONTINUOUS
10
4.1141732283464565
20
-1.4960629921259843
11
4.1141732283464565
21
-1.2992125984251968
0
LINE
8
BLACK
6
CONTINUOUS
10
4.1141732283464565
20
-1.2992125984251968
11
4.1149224409448815
21
-1.2954460236220473
0
LINE
8
BLACK
6
CONTINUOUS
10
4.1149224409448815
20
-1.2954460236220473
11
4.1170560236220473
21
-1.292252874015748
0
LINE
8
BLACK
6
CONTINUOUS
10
4.1170560236220473
20
-1.292252874015748
11
4.1202491732283466
21
-1.2901192913385826
0
LINE
8
BLACK
6
CONTINUOUS
10
4.1202491732283466
20
-1.2901192913385826
11
4.1240157480314963
21
-1.2893700787401574
0
LINE
8
BLACK
6
CONTINUOUS
10
4.1240157480314963
20
-1.2893700787401574
11
4.143700787401575
21
-1.2893700787401574
0
LINE
8
BLACK
6
CONTINUOUS
10
4.143700787401575
20
-1.2893700787401574
11
4.1474673622047247
21
-1.2901192913385826
0
LINE
8
BLACK
6
CONTINUOUS
10
4.2262075196850395
20
-1.2901192913385826
11
4.2294006692913388
21
-1.292252874015748
0
LINE
8
BLACK
6
CONTINUOUS
10
4.2294006692913388
20
-1.292252874015748
11
4.2315342519685037
21
-1.2954460236220473
0
LINE
8
BLACK
6
CONTINUOUS
10
4.2315342519685037
20
-1.2954460236220473
11
4.2322834645669287
21
-1.2992125984251968
0
LINE
8
BLACK
6
CONTINUOUS
10
4.2322834645669287
20
-1.2992125984251968
11
4.2322834645669287
21
-1.4960629921259843
0
LINE
8
BLACK
6
CONTINUOUS
10
4.2322834645669287
20
-1.4960629921259843
11
4.2315342519685037
21
-1.4998295669291337
0
LINE
8
BLACK
6
CONTINUOUS
10
4.2315342519685037
20
-1.4998295669291337
11
4.2294006692913388
21
-1.5030227165354331
0
LINE
8
BLACK
6
CONTINUOUS
10
4.2294006692913388
20
-1.5030227165354331
11
4.2262075196850395
21
-1.5051562992125984
0
LINE
8
BLACK
6
CONTINUOUS
10
4.2262075196850395
20
-1.5051562992125984
11
4.2224409448818898
21
-1.5059055118110236
0
LINE
8
BLACK
6
CONTINUOUS
10
4.2224409448818898
20
-1.5059055118110236
11
4.2027559055118111
21
-1.5059055118110236
0
LINE
8
BLACK
6
CONTINUOUS
10
4.2027559055118111
20
-1.5059055118110236
11
4.1989893307086614
21
-1.5051562992125984
0
LINE
8
BLACK
6
CONTINUOUS
10
4.1989893307086614
20
-1.5051562992125984
11
4.1957961811023621
21
-1.5030227165354331
0
LINE
8
BLACK
6
CONTINUOUS
10
4.1957961811023621
20
-1.5030227165354331
11
4.1936625984251972
21
-1.4998295669291337
0
LINE
8
BLACK
6
CONTINUOUS
10
4.1936625984251972
20
-1.4998295669291337
11
4.1929133858267713
21
-1.4960629921259843
0
LINE
8
BLACK
6
CONTINUOUS
10
4.1929133858267713
20
-1.4960629921259843
11
4.1929133858267713
21
-1.2992125984251968
0
LINE
8
BLACK
6
CONTINUOUS
10
4.1929133858267713
20
-1.2992125984251968
11
4.1936625984251972
21
-1.2954460236220473
0
LINE
8
BLACK
6
CONTINUOUS
10
4.1936625984251972
20
-1.2954460236220473
11
4.1957961811023621
21
-1.292252874015748
0
LINE
8
BLACK
6
CONTINUOUS
10
4.1957961811023621
20
-1.292252874015748
11
4.1989893307086614
21
-1.2901192913385826
0
LINE
8
BLACK
6
CONTINUOUS
10
4.1989893307086614
20
-1.2901192913385826
11
4.2027559055118111
21
-1.2893700787401574
0
LINE
8
BLACK
6
CONTINUOUS
10
4.2027559055118111
20
-1.2893700787401574
11
4.2224409448818898
21
-1.2893700787401574
0
LINE
8
BLACK
6
CONTINUOUS
10
4.2224409448818898
20
-1.2893700787401574
11
4.2262075196850395
21
-1.2901192913385826
0
LINE
8
BLACK
6
CONTINUOUS
10
4.3049476771653543
20
-1.2901192913385826
11
4.3081408267716537
21
-1.292252874015748
0
LINE
8
BLACK
6
CONTINUOUS
10
4.3081408267716537
20
-1.292252874015748
11
4.3102744094488186
21
-1.2954460236220473
0
LINE
8
BLACK
6
CONTINUOUS
10
4.3102744094488186
20
-1.2954460236220473
11
4.3110236220472444
21
-1.2992125984251968
0
LINE
8
BLACK
6
CONTINUOUS
10
4.3110236220472444
20
-1.2992125984251968
11
4.3110236220472444
21
-1.4960629921259843
0
LINE
8
BLACK
6
CONTINUOUS
10
4.3110236220472444
20
-1.4960629921259843
11
4.3102744094488186
21
-1.4998295669291337
0
LINE
8
BLACK
6
CONTINUOUS
10
4.3102744094488186
20
-1.4998295669291337
11
4.3081408267716537
21
-1.5030227165354331
0
LINE
8
BLACK
6
CONTINUOUS
10
4.3081408267716537
20
-1.5030227165354331
11
4.3049476771653543
21
-1.5051562992125984
0
LINE
8
BLACK
6
CONTINUOUS
10
4.3049476771653543
20
-1.5051562992125984
11
4.3011811023622046
21
-1.5059055118110236
0
LINE
8
BLACK
6
CONTINUOUS
10
4.3011811023622046
20
-1.5059055118110236
11
4.2814960629921259
21
-1.5059055118110236
0
LINE
8
BLACK
6
CONTINUOUS
10
4.2814960629921259
20
-1.5059055118110236
11
4.2777294881889762
21
-1.5051562992125984
0
LINE
8
BLACK
6
CONTINUOUS
10
4.2777294881889762
20
-1.5051562992125984
11
4.2745363385826769
21
-1.5030227165354331
0
LINE
8
BLACK
6
CONTINUOUS
10
4.2745363385826769
20
-1.5030227165354331
11
4.272402755905512
21
-1.4998295669291337
0
LINE
8
BLACK
6
CONTINUOUS
10
4.272402755905512
20
-1.4998295669291337
11
4.2716535433070861
21
-1.4960629921259843
0
LINE
8
BLACK
6
CONTINUOUS
10
4.2716535433070861
20
-1.4960629921259843
11
4.2716535433070861
21
-1.2992125984251968
0
LINE
8
BLACK
6
CONTINUOUS
10
4.2716535433070861
20
-1.2992125984251968
11
4.272402755905512
21
-1.2954460236220473
0
LINE
8
BLACK
6
CONTINUOUS
10
4.272402755905512
20
-1.2954460236220473
11
4.2745363385826769
21
-1.292252874015748
0
LINE
8
BLACK
6
CONTINUOUS
10
4.2745363385826769
20
-1.292252874015748
11
4.2777294881889762
21
-1.2901192913385826
0
LINE
8
BLACK
6
CONTINUOUS
10
4.2777294881889762
20
-1.2901192913385826
11
4.2814960629921259
21
-1.2893700787401574
0
LINE
8
BLACK
6
CONTINUOUS
10
4.2814960629921259
20
-1.2893700787401574
11
4.3011811023622046
21
-1.2893700787401574
0
LINE
8
BLACK
6
CONTINUOUS
10
4.3011811023622046
20
-1.2893700787401574
11
4.3049476771653543
21
-1.2901192913385826
0
LINE
8
BLACK
6
CONTINUOUS
10
4.0647901968503932
20
-1.2507492125984252
11
4.0679833464566926
21
-1.2528827952755905
0
LINE
8
BLACK
6
CONTINUOUS
10
4.0679833464566926
20
-1.2528827952755905
11
4.0701169291338584
21
-1.2560759448818897
0
LINE
8
BLACK
6
CONTINUOUS
10
4.0701169291338584
20
-1.2560759448818897
11
4.0708661417322833
21
-1.2598425196850394
0
LINE
8
BLACK
6
CONTINUOUS
10
4.0708661417322833
20
-1.2598425196850394
11
4.0708661417322833
21
-1.3582677165354331
0
LINE
8
BLACK
6
CONTINUOUS
10
4.0708661417322833
20
-1.3582677165354331
11
4.0701169291338584
21
-1.3620342913385826
0
LINE
8
BLACK
6
CONTINUOUS
10
4.0701169291338584
20
-1.3620342913385826
11
4.0679833464566926
21
-1.3652274409448819
0
LINE
8
BLACK
6
CONTINUOUS
10
4.0679833464566926
20
-1.3652274409448819
11
4.0647901968503932
21
-1.3673610236220473
0
LINE
8
BLACK
6
CONTINUOUS
10
4.0647901968503932
20
-1.3673610236220473
11
4.0610236220472444
21
-1.3681102362204725
0
LINE
8
BLACK
6
CONTINUOUS
10
4.0610236220472444
20
-1.3681102362204725
11
4.0177165354330704
21
-1.3681102362204725
0
LINE
8
BLACK
6
CONTINUOUS
10
4.0177165354330704
20
-1.3681102362204725
11
4.0139499606299216
21
-1.3673610236220473
0
LINE
8
BLACK
6
CONTINUOUS
10
4.0139499606299216
20
-1.3673610236220473
11
4.0107568110236222
21
-1.3652274409448819
0
LINE
8
BLACK
6
CONTINUOUS
10
4.0107568110236222
20
-1.3652274409448819
11
4.0086232283464565
21
-1.3620342913385826
0
LINE
8
BLACK
6
CONTINUOUS
10
4.0086232283464565
20
-1.3620342913385826
11
4.0078740157480315
21
-1.3582677165354331
0
LINE
8
BLACK
6
CONTINUOUS
10
4.0078740157480315
20
-1.3582677165354331
11
4.0078740157480315
21
-1.2598425196850394
0
LINE
8
BLACK
6
CONTINUOUS
10
4.0078740157480315
20
-1.2598425196850394
11
4.0086232283464565
21
-1.2560759448818897
0
LINE
8
BLACK
6
CONTINUOUS
10
4.0086232283464565
20
-1.2560759448818897
11
4.0107568110236222
21
-1.2528827952755905
0
LINE
8
BLACK
6
CONTINUOUS
10
4.0107568110236222
20
-1.2528827952755905
11
4.0139499606299216
21
-1.2507492125984252
0
LINE
8
BLACK
6
CONTINUOUS
10
4.0139499606299216
20
-1.2507492125984252
11
4.0177165354330704
21
-1.25
0
LINE
8
BLACK
6
CONTINUOUS
10
4.0177165354330704
20
-1.25
11
4.0610236220472444
21
-1.25
0
LINE
8
BLACK
6
CONTINUOUS
10
4.0610236220472444
20
-1.25
11
4.0647901968503932
21
-1.2507492125984252
0
LINE
8
BLACK
6
CONTINUOUS
10
4.4112468897637793
20
-1.2507492125984252
11
4.4144400393700787
21
-1.2528827952755905
0
LINE
8
BLACK
6
CONTINUOUS
10
4.4144400393700787
20
-1.2528827952755905
11
4.4165736220472436
21
-1.2560759448818897
0
LINE
8
BLACK
6
CONTINUOUS
10
4.4165736220472436
20
-1.2560759448818897
11
4.4173228346456694
21
-1.2598425196850394
0
LINE
8
BLACK
6
CONTINUOUS
10
4.4173228346456694
20
-1.2598425196850394
11
4.4173228346456694
21
-1.3582677165354331
0
LINE
8
BLACK
6
CONTINUOUS
10
4.4173228346456694
20
-1.3582677165354331
11
4.4165736220472436
21
-1.3620342913385826
0
LINE
8
BLACK
6
CONTINUOUS
10
4.4165736220472436
20
-1.3620342913385826
11
4.4144400393700787
21
-1.3652274409448819
0
LINE
8
BLACK
6
CONTINUOUS
10
4.4144400393700787
20
-1.3652274409448819
11
4.4112468897637793
21
-1.3673610236220473
0
LINE
8
BLACK
6
CONTINUOUS
10
4.4112468897637793
20
-1.3673610236220473
11
4.4074803149606296
21
-1.3681102362204725
0
LINE
8
BLACK
6
CONTINUOUS
10
4.4074803149606296
20
-1.3681102362204725
11
4.3641732283464565
21
-1.3681102362204725
0
LINE
8
BLACK
6
CONTINUOUS
10
4.3641732283464565
20
-1.3681102362204725
11
4.3604066535433068
21
-1.3673610236220473
0
LINE
8
BLACK
6
CONTINUOUS
10
4.3604066535433068
20
-1.3673610236220473
11
4.3572135039370075
21
-1.3652274409448819
0
LINE
8
BLACK
6
CONTINUOUS
10
4.3572135039370075
20
-1.3652274409448819
11
4.3550799212598426
21
-1.3620342913385826
0
LINE
8
BLACK
6
CONTINUOUS
10
4.3550799212598426
20
-1.3620342913385826
11
4.3543307086614176
21
-1.3582677165354331
0
LINE
8
BLACK
6
CONTINUOUS
10
4.3543307086614176
20
-1.3582677165354331
11
4.3543307086614176
21
-1.2598425196850394
0
LINE
8
BLACK
6
CONTINUOUS
10
4.3543307086614176
20
-1.2598425196850394
11
4.3550799212598426
21
-1.2560759448818897
0
LINE
8
BLACK
6
CONTINUOUS
10
4.3550799212598426
20
-1.2560759448818897
11
4.3572135039370075
21
-1.2528827952755905
0
LINE
8
BLACK
6
CONTINUOUS
10
4.3572135039370075
20
-1.2528827952755905
11
4.3604066535433068
21
-1.2507492125984252
0
LINE
8
BLACK
6
CONTINUOUS
10
4.3604066535433068
20
-1.2507492125984252
11
4.3641732283464565
21
-1.25
0
LINE
8
BLACK
6
CONTINUOUS
10
4.3641732283464565
20
-1.25
11
4.4074803149606296
21
-1.25
0
LINE
8
BLACK
6
CONTINUOUS
10
4.4074803149606296
20
-1.25
11
4.4112468897637793
21
-1.2507492125984252
  0
ENDSEC
  0
EOF
