  0
SECTION
  2
HEADER
  9
$ANGBASE
  50
0.0
  9
$ANGDIR
  70
1
  9
$MEASUREMENT
  70
0
  0
ENDSEC
  0
SECTION
  2
TABLES
  0
TABLE
  2
LTYPE
  70
4
  0
LTYPE
  5
40F
  2
CONTINUOUS
  70
0
  3
Solid line
  72
65
  73
0
  40
0.0
  0
LTYPE
  5
410
  2
DASHDOT
 70
0
  3
Dash Dot ____ _ ____ _
 72
65
 73
4
 40
2.0
 49
1.25
 49
-0.25
 49
0.25
 49
-0.25
  0
LTYPE
  5
411
  2
DASHED
 70
0
  3
Dashed __ __ __ __ __
 72
65
 73
2
 40
0.75
 49
0.5
 49
-0.25
  0
LTYPE
  5
43B
  2
DOTTED
 70
0
  3
Dotted .  .  .  .
 72
65
 73
2
 40
0.2
 49
0.0
 49
-0.2
  0
ENDTAB
  0
TABLE
  2
STYLE
  70
4
  0
STYLE
  2
KICAD
  70
0
  40
0
  41
1
  42
1
  50
0
  71
0
  3
isocp.shx
  0
STYLE
  2
KICADB
  70
0
  40
0
  41
1
  42
1
  50
0
  71
0
  3
isocp.shx
  0
STYLE
  2
KICADI
  70
0
  40
0
  41
1
  42
1
  50
15
  71
0
  3
isocp.shx
  0
STYLE
  2
KICADBI
  70
0
  40
0
  41
1
  42
1
  50
15
  71
0
  3
isocp.shx
  0
ENDTAB
  0
TABLE
  2
LAYER
  70
1
  0
LAYER
  2
BLACK
  70
0
  62
7
  6
CONTINUOUS
  0
ENDTAB
  0
ENDSEC
  0
SECTION
  2
ENTITIES
0
LINE
8
BLACK
6
CONTINUOUS
10
1.1204553937007873
20
-4.144759960629921
11
1.1209880708661417
21
-4.1452926377952757
0
LINE
8
BLACK
6
CONTINUOUS
10
1.1209880708661417
20
-4.1452926377952757
11
1.1210629921259843
21
-4.1456692913385824
0
LINE
8
BLACK
6
CONTINUOUS
10
1.1210629921259843
20
-4.1456692913385824
11
1.1210629921259843
21
-4.5944881889763778
0
LINE
8
BLACK
6
CONTINUOUS
10
1.1210629921259843
20
-4.5944881889763778
11
1.1209880708661417
21
-4.5948648425196845
0
LINE
8
BLACK
6
CONTINUOUS
10
1.1209880708661417
20
-4.5948648425196845
11
1.1204553937007873
21
-4.5953975196850392
0
LINE
8
BLACK
6
CONTINUOUS
10
1.1204553937007873
20
-4.5953975196850392
11
1.1200787401574803
21
-4.5954724409448815
0
LINE
8
BLACK
6
CONTINUOUS
10
1.1200787401574803
20
-4.5954724409448815
11
0.7854330708661417
21
-4.5954724409448815
0
LINE
8
BLACK
6
CONTINUOUS
10
0.7854330708661417
20
-4.5954724409448815
11
0.7850564173228346
21
-4.5953975196850392
0
LINE
8
BLACK
6
CONTINUOUS
10
0.7850564173228346
20
-4.5953975196850392
11
0.7845237401574803
21
-4.5948648425196845
0
LINE
8
BLACK
6
CONTINUOUS
10
0.7845237401574803
20
-4.5948648425196845
11
0.7844488188976377
21
-4.5944881889763778
0
LINE
8
BLACK
6
CONTINUOUS
10
0.7844488188976377
20
-4.5944881889763778
11
0.7844488188976377
21
-4.1456692913385824
0
LINE
8
BLACK
6
CONTINUOUS
10
0.7844488188976377
20
-4.1456692913385824
11
0.7845237401574803
21
-4.1452926377952757
0
LINE
8
BLACK
6
CONTINUOUS
10
0.7845237401574803
20
-4.1452926377952757
11
0.7850564173228346
21
-4.144759960629921
0
LINE
8
BLACK
6
CONTINUOUS
10
0.7850564173228346
20
-4.144759960629921
11
0.7854330708661417
21
-4.1446850393700787
0
LINE
8
BLACK
6
CONTINUOUS
10
0.7854330708661417
20
-4.1446850393700787
11
1.1200787401574803
21
-4.1446850393700787
0
LINE
8
BLACK
6
CONTINUOUS
10
1.1200787401574803
20
-4.1446850393700787
11
1.1204553937007873
21
-4.144759960629921
0
LINE
8
BLACK
6
CONTINUOUS
10
0.7864173228346456
20
-4.1466535433070861
11
0.7864173228346456
21
-4.5935039370078741
0
LINE
8
BLACK
6
CONTINUOUS
10
0.7864173228346456
20
-4.5935039370078741
11
1.1190944881889764
21
-4.5935039370078741
0
LINE
8
BLACK
6
CONTINUOUS
10
1.1190944881889764
20
-4.5935039370078741
11
1.1190944881889764
21
-4.1466535433070861
0
LINE
8
BLACK
6
CONTINUOUS
10
1.1190944881889764
20
-4.1466535433070861
11
0.7864173228346456
21
-4.1466535433070861
0
LINE
8
BLACK
6
CONTINUOUS
10
2.9565971259842518
20
-2.9153426377952756
11
2.9571298031496061
21
-2.9158753149606298
0
LINE
8
BLACK
6
CONTINUOUS
10
2.9571298031496061
20
-2.9158753149606298
11
2.9572047244094488
21
-2.916251968503937
0
LINE
8
BLACK
6
CONTINUOUS
10
2.9572047244094488
20
-2.916251968503937
11
2.9572047244094488
21
-3.0579842519685037
0
LINE
8
BLACK
6
CONTINUOUS
10
2.9572047244094488
20
-3.0579842519685037
11
2.9571298031496061
21
-3.0583609055118108
0
LINE
8
BLACK
6
CONTINUOUS
10
2.9571298031496061
20
-3.0583609055118108
11
2.9565971259842518
21
-3.0588935826771655
0
LINE
8
BLACK
6
CONTINUOUS
10
2.9565971259842518
20
-3.0588935826771655
11
2.9562204724409447
21
-3.0589685039370078
0
LINE
8
BLACK
6
CONTINUOUS
10
2.9562204724409447
20
-3.0589685039370078
11
2.5152755905511812
21
-3.0589685039370078
0
LINE
8
BLACK
6
CONTINUOUS
10
2.5152755905511812
20
-3.0589685039370078
11
2.514898937007874
21
-3.0588935826771655
0
LINE
8
BLACK
6
CONTINUOUS
10
2.514898937007874
20
-3.0588935826771655
11
2.5143662598425198
21
-3.0583609055118108
0
LINE
8
BLACK
6
CONTINUOUS
10
2.5143662598425198
20
-3.0583609055118108
11
2.5142913385826771
21
-3.0579842519685037
0
LINE
8
BLACK
6
CONTINUOUS
10
2.5142913385826771
20
-3.0579842519685037
11
2.5142913385826771
21
-2.916251968503937
0
LINE
8
BLACK
6
CONTINUOUS
10
2.5142913385826771
20
-2.916251968503937
11
2.5143662598425198
21
-2.9158753149606298
0
LINE
8
BLACK
6
CONTINUOUS
10
2.5143662598425198
20
-2.9158753149606298
11
2.514898937007874
21
-2.9153426377952756
0
LINE
8
BLACK
6
CONTINUOUS
10
2.514898937007874
20
-2.9153426377952756
11
2.5152755905511812
21
-2.9152677165354328
0
LINE
8
BLACK
6
CONTINUOUS
10
2.5152755905511812
20
-2.9152677165354328
11
2.9562204724409447
21
-2.9152677165354328
0
LINE
8
BLACK
6
CONTINUOUS
10
2.9562204724409447
20
-2.9152677165354328
11
2.9565971259842518
21
-2.9153426377952756
0
LINE
8
BLACK
6
CONTINUOUS
10
2.5162598425196849
20
-2.9172362204724407
11
2.5162598425196849
21
-3.0569999999999999
0
LINE
8
BLACK
6
CONTINUOUS
10
2.5162598425196849
20
-3.0569999999999999
11
2.9552362204724409
21
-3.0569999999999999
0
LINE
8
BLACK
6
CONTINUOUS
10
2.9552362204724409
20
-3.0569999999999999
11
2.9552362204724409
21
-2.9172362204724407
0
LINE
8
BLACK
6
CONTINUOUS
10
2.9552362204724409
20
-2.9172362204724407
11
2.5162598425196849
21
-2.9172362204724407
0
LINE
8
BLACK
6
CONTINUOUS
10
5.9093530314960629
20
-2.9153426377952756
11
5.9098857086614176
21
-2.9158753149606298
0
LINE
8
BLACK
6
CONTINUOUS
10
5.9098857086614176
20
-2.9158753149606298
11
5.9099606299212599
21
-2.916251968503937
0
LINE
8
BLACK
6
CONTINUOUS
10
5.9099606299212599
20
-2.916251968503937
11
5.9099606299212599
21
-3.0579842519685037
0
LINE
8
BLACK
6
CONTINUOUS
10
5.9099606299212599
20
-3.0579842519685037
11
5.9098857086614176
21
-3.0583609055118108
0
LINE
8
BLACK
6
CONTINUOUS
10
5.9098857086614176
20
-3.0583609055118108
11
5.9093530314960629
21
-3.0588935826771655
0
LINE
8
BLACK
6
CONTINUOUS
10
5.9093530314960629
20
-3.0588935826771655
11
5.9089763779527562
21
-3.0589685039370078
0
LINE
8
BLACK
6
CONTINUOUS
10
5.9089763779527562
20
-3.0589685039370078
11
5.4680314960629923
21
-3.0589685039370078
0
LINE
8
BLACK
6
CONTINUOUS
10
5.4680314960629923
20
-3.0589685039370078
11
5.4676548425196847
21
-3.0588935826771655
0
LINE
8
BLACK
6
CONTINUOUS
10
5.4676548425196847
20
-3.0588935826771655
11
5.4671221653543309
21
-3.0583609055118108
0
LINE
8
BLACK
6
CONTINUOUS
10
5.4671221653543309
20
-3.0583609055118108
11
5.4670472440944877
21
-3.0579842519685037
0
LINE
8
BLACK
6
CONTINUOUS
10
5.4670472440944877
20
-3.0579842519685037
11
5.4670472440944877
21
-2.916251968503937
0
LINE
8
BLACK
6
CONTINUOUS
10
5.4670472440944877
20
-2.916251968503937
11
5.4671221653543309
21
-2.9158753149606298
0
LINE
8
BLACK
6
CONTINUOUS
10
5.4671221653543309
20
-2.9158753149606298
11
5.4676548425196847
21
-2.9153426377952756
0
LINE
8
BLACK
6
CONTINUOUS
10
5.4676548425196847
20
-2.9153426377952756
11
5.4680314960629923
21
-2.9152677165354328
0
LINE
8
BLACK
6
CONTINUOUS
10
5.4680314960629923
20
-2.9152677165354328
11
5.9089763779527562
21
-2.9152677165354328
0
LINE
8
BLACK
6
CONTINUOUS
10
5.9089763779527562
20
-2.9152677165354328
11
5.9093530314960629
21
-2.9153426377952756
0
LINE
8
BLACK
6
CONTINUOUS
10
5.469015748031496
20
-2.9172362204724407
11
5.469015748031496
21
-3.0569999999999999
0
LINE
8
BLACK
6
CONTINUOUS
10
5.469015748031496
20
-3.0569999999999999
11
5.9079921259842516
21
-3.0569999999999999
0
LINE
8
BLACK
6
CONTINUOUS
10
5.9079921259842516
20
-3.0569999999999999
11
5.9079921259842516
21
-2.9172362204724407
0
LINE
8
BLACK
6
CONTINUOUS
10
5.9079921259842516
20
-2.9172362204724407
11
5.469015748031496
21
-2.9172362204724407
0
LINE
8
BLACK
6
CONTINUOUS
10
5.2641561811023623
20
-1.2077520866141731
11
5.264688858267716
21
-1.2082847637795275
0
LINE
8
BLACK
6
CONTINUOUS
10
5.264688858267716
20
-1.2082847637795275
11
5.2647637795275593
21
-1.2086614173228347
0
LINE
8
BLACK
6
CONTINUOUS
10
5.2647637795275593
20
-1.2086614173228347
11
5.2647637795275593
21
-1.5433070866141732
0
LINE
8
BLACK
6
CONTINUOUS
10
5.2647637795275593
20
-1.5433070866141732
11
5.264688858267716
21
-1.5436837401574803
0
LINE
8
BLACK
6
CONTINUOUS
10
5.264688858267716
20
-1.5436837401574803
11
5.2641561811023623
21
-1.5442164173228345
0
LINE
8
BLACK
6
CONTINUOUS
10
5.2641561811023623
20
-1.5442164173228345
11
5.2637795275590546
21
-1.5442913385826771
0
LINE
8
BLACK
6
CONTINUOUS
10
5.2637795275590546
20
-1.5442913385826771
11
4.7362204724409445
21
-1.5442913385826771
0
LINE
8
BLACK
6
CONTINUOUS
10
4.7362204724409445
20
-1.5442913385826771
11
4.7358438188976377
21
-1.5442164173228345
0
LINE
8
BLACK
6
CONTINUOUS
10
4.7358438188976377
20
-1.5442164173228345
11
4.7353111417322831
21
-1.5436837401574803
0
LINE
8
BLACK
6
CONTINUOUS
10
4.7353111417322831
20
-1.5436837401574803
11
4.7352362204724407
21
-1.5433070866141732
0
LINE
8
BLACK
6
CONTINUOUS
10
4.7352362204724407
20
-1.5433070866141732
11
4.7352362204724407
21
-1.2086614173228347
0
LINE
8
BLACK
6
CONTINUOUS
10
4.7352362204724407
20
-1.2086614173228347
11
4.7353111417322831
21
-1.2082847637795275
0
LINE
8
BLACK
6
CONTINUOUS
10
4.7353111417322831
20
-1.2082847637795275
11
4.7358438188976377
21
-1.2077520866141731
0
LINE
8
BLACK
6
CONTINUOUS
10
4.7358438188976377
20
-1.2077520866141731
11
4.7362204724409445
21
-1.2076771653543308
0
LINE
8
BLACK
6
CONTINUOUS
10
4.7362204724409445
20
-1.2076771653543308
11
5.2637795275590546
21
-1.2076771653543308
0
LINE
8
BLACK
6
CONTINUOUS
10
5.2637795275590546
20
-1.2076771653543308
11
5.2641561811023623
21
-1.2077520866141731
0
LINE
8
BLACK
6
CONTINUOUS
10
4.7372047244094491
20
-1.2096456692913387
11
4.7372047244094491
21
-1.5423228346456692
0
LINE
8
BLACK
6
CONTINUOUS
10
4.7372047244094491
20
-1.5423228346456692
11
5.2627952755905509
21
-1.5423228346456692
0
LINE
8
BLACK
6
CONTINUOUS
10
5.2627952755905509
20
-1.5423228346456692
11
5.2627952755905509
21
-1.2096456692913387
0
LINE
8
BLACK
6
CONTINUOUS
10
5.2627952755905509
20
-1.2096456692913387
11
4.7372047244094491
21
-1.2096456692913387
0
LINE
8
BLACK
6
CONTINUOUS
10
4.4373845275590549
20
-1.1900355511811023
11
4.4379172047244095
21
-1.1905682283464567
0
LINE
8
BLACK
6
CONTINUOUS
10
4.4379172047244095
20
-1.1905682283464567
11
4.4379921259842519
21
-1.1909448818897637
0
LINE
8
BLACK
6
CONTINUOUS
10
4.4379921259842519
20
-1.1909448818897637
11
4.4379921259842519
21
-1.5255905511811023
0
LINE
8
BLACK
6
CONTINUOUS
10
4.4379921259842519
20
-1.5255905511811023
11
4.4379172047244095
21
-1.5259672047244095
0
LINE
8
BLACK
6
CONTINUOUS
10
4.4379172047244095
20
-1.5259672047244095
11
4.4373845275590549
21
-1.5264998818897637
0
LINE
8
BLACK
6
CONTINUOUS
10
4.4373845275590549
20
-1.5264998818897637
11
4.4370078740157481
21
-1.5265748031496063
0
LINE
8
BLACK
6
CONTINUOUS
10
4.4370078740157481
20
-1.5265748031496063
11
3.9881889763779528
21
-1.5265748031496063
0
LINE
8
BLACK
6
CONTINUOUS
10
3.9881889763779528
20
-1.5265748031496063
11
3.9878123228346456
21
-1.5264998818897637
0
LINE
8
BLACK
6
CONTINUOUS
10
3.9878123228346456
20
-1.5264998818897637
11
3.9872796456692914
21
-1.5259672047244095
0
LINE
8
BLACK
6
CONTINUOUS
10
3.9872796456692914
20
-1.5259672047244095
11
3.9872047244094486
21
-1.5255905511811023
0
LINE
8
BLACK
6
CONTINUOUS
10
3.9872047244094486
20
-1.5255905511811023
11
3.9872047244094486
21
-1.1909448818897637
0
LINE
8
BLACK
6
CONTINUOUS
10
3.9872047244094486
20
-1.1909448818897637
11
3.9872796456692914
21
-1.1905682283464567
0
LINE
8
BLACK
6
CONTINUOUS
10
3.9872796456692914
20
-1.1905682283464567
11
3.9878123228346456
21
-1.1900355511811023
0
LINE
8
BLACK
6
CONTINUOUS
10
3.9878123228346456
20
-1.1900355511811023
11
3.9881889763779528
21
-1.1899606299212597
0
LINE
8
BLACK
6
CONTINUOUS
10
3.9881889763779528
20
-1.1899606299212597
11
4.4370078740157481
21
-1.1899606299212597
0
LINE
8
BLACK
6
CONTINUOUS
10
4.4370078740157481
20
-1.1899606299212597
11
4.4373845275590549
21
-1.1900355511811023
0
LINE
8
BLACK
6
CONTINUOUS
10
3.9891732283464565
20
-1.1919291338582676
11
3.9891732283464565
21
-1.5246062992125984
0
LINE
8
BLACK
6
CONTINUOUS
10
3.9891732283464565
20
-1.5246062992125984
11
4.4360236220472444
21
-1.5246062992125984
0
LINE
8
BLACK
6
CONTINUOUS
10
4.4360236220472444
20
-1.5246062992125984
11
4.4360236220472444
21
-1.1919291338582676
0
LINE
8
BLACK
6
CONTINUOUS
10
4.4360236220472444
20
-1.1919291338582676
11
3.9891732283464565
21
-1.1919291338582676
0
CIRCLE
8
BLACK
10
2.1456692913385824
20
-2.9606299212598426
40
0.0413385826771654
0
CIRCLE
8
BLACK
10
2.1456692913385824
20
-5.0078740157480315
40
0.0413385826771654
0
CIRCLE
8
BLACK
10
3.326771653543307
20
-2.9606299212598426
40
0.0413385826771654
0
CIRCLE
8
BLACK
10
3.326771653543307
20
-5.0078740157480315
40
0.0413385826771654
0
CIRCLE
8
BLACK
10
2.8853543307086613
20
-2.9871181102362203
40
0.0196850393700787
0
CIRCLE
8
BLACK
10
2.7853543307086612
20
-2.9871181102362203
40
0.0196850393700787
0
CIRCLE
8
BLACK
10
2.6853543307086611
20
-2.9871181102362203
40
0.0196850393700787
0
CIRCLE
8
BLACK
10
2.5853543307086615
20
-2.9871181102362203
40
0.0196850393700787
0
CIRCLE
8
BLACK
10
5.0984251968503935
20
-2.9606299212598426
40
0.0413385826771654
0
CIRCLE
8
BLACK
10
5.0984251968503935
20
-5.0078740157480315
40
0.0413385826771654
0
CIRCLE
8
BLACK
10
6.2795275590551176
20
-2.9606299212598426
40
0.0413385826771654
0
CIRCLE
8
BLACK
10
6.2795275590551176
20
-5.0078740157480315
40
0.0413385826771654
0
CIRCLE
8
BLACK
10
5.838110236220472
20
-2.9871181102362203
40
0.0196850393700787
0
CIRCLE
8
BLACK
10
5.7381102362204723
20
-2.9871181102362203
40
0.0196850393700787
0
CIRCLE
8
BLACK
10
5.6381102362204727
20
-2.9871181102362203
40
0.0196850393700787
0
CIRCLE
8
BLACK
10
5.5381102362204722
20
-2.9871181102362203
40
0.0196850393700787
  0
ENDSEC
  0
EOF
