  0
SECTION
  2
HEADER
  9
$ANGBASE
  50
0.0
  9
$ANGDIR
  70
1
  9
$MEASUREMENT
  70
0
  0
ENDSEC
  0
SECTION
  2
TABLES
  0
TABLE
  2
LTYPE
  70
4
  0
LTYPE
  5
40F
  2
CONTINUOUS
  70
0
  3
Solid line
  72
65
  73
0
  40
0.0
  0
LTYPE
  5
410
  2
DASHDOT
 70
0
  3
Dash Dot ____ _ ____ _
 72
65
 73
4
 40
2.0
 49
1.25
 49
-0.25
 49
0.25
 49
-0.25
  0
LTYPE
  5
411
  2
DASHED
 70
0
  3
Dashed __ __ __ __ __
 72
65
 73
2
 40
0.75
 49
0.5
 49
-0.25
  0
LTYPE
  5
43B
  2
DOTTED
 70
0
  3
Dotted .  .  .  .
 72
65
 73
2
 40
0.2
 49
0.0
 49
-0.2
  0
ENDTAB
  0
TABLE
  2
STYLE
  70
4
  0
STYLE
  2
KICAD
  70
0
  40
0
  41
1
  42
1
  50
0
  71
0
  3
isocp.shx
  0
STYLE
  2
KICADB
  70
0
  40
0
  41
1
  42
1
  50
0
  71
0
  3
isocp.shx
  0
STYLE
  2
KICADI
  70
0
  40
0
  41
1
  42
1
  50
15
  71
0
  3
isocp.shx
  0
STYLE
  2
KICADBI
  70
0
  40
0
  41
1
  42
1
  50
15
  71
0
  3
isocp.shx
  0
ENDTAB
  0
TABLE
  2
LAYER
  70
1
  0
LAYER
  2
BLACK
  70
0
  62
7
  6
CONTINUOUS
  0
ENDTAB
  0
ENDSEC
  0
SECTION
  2
ENTITIES
0
LINE
8
BLACK
6
CONTINUOUS
10
1.2890275984251969
20
-4.6415291338582678
11
1.308273937007874
21
-4.6446569685039369
0
LINE
8
BLACK
6
CONTINUOUS
10
1.308273937007874
20
-4.6446569685039369
11
1.3272061811023621
21
-4.6493233858267713
0
LINE
8
BLACK
6
CONTINUOUS
10
1.3272061811023621
20
-4.6493233858267713
11
1.3457015748031496
21
-4.6554980314960632
0
LINE
8
BLACK
6
CONTINUOUS
10
1.3457015748031496
20
-4.6554980314960632
11
1.3636401181102362
21
-4.6631409448818895
0
LINE
8
BLACK
6
CONTINUOUS
10
1.3636401181102362
20
-4.6631409448818895
11
1.3809055118110236
21
-4.6722025196850394
0
LINE
8
BLACK
6
CONTINUOUS
10
1.3809055118110236
20
-4.6722025196850394
11
1.397385748031496
21
-4.6826239763779522
0
LINE
8
BLACK
6
CONTINUOUS
10
1.397385748031496
20
-4.6826239763779522
11
1.4129739763779527
21
-4.6943377559055115
0
LINE
8
BLACK
6
CONTINUOUS
10
1.4129739763779527
20
-4.6943377559055115
11
1.4275690944881889
21
-4.7072679133858264
0
LINE
8
BLACK
6
CONTINUOUS
10
1.4275690944881889
20
-4.7072679133858264
11
1.4410764173228345
21
-4.7213305511811026
0
LINE
8
BLACK
6
CONTINUOUS
10
1.4410764173228345
20
-4.7213305511811026
11
1.4534083858267717
21
-4.7364344488188976
0
LINE
8
BLACK
6
CONTINUOUS
10
1.4534083858267717
20
-4.7364344488188976
11
1.464485
21
-4.7524816929133857
0
LINE
8
BLACK
6
CONTINUOUS
10
1.464485
20
-4.7524816929133857
11
1.4742344488188976
21
-4.7693681889763777
0
LINE
8
BLACK
6
CONTINUOUS
10
1.4742344488188976
20
-4.7693681889763777
11
1.4825934645669292
21
-4.786984448818898
0
LINE
8
BLACK
6
CONTINUOUS
10
1.4825934645669292
20
-4.786984448818898
11
1.4895078346456692
21
-4.8052162204724409
0
LINE
8
BLACK
6
CONTINUOUS
10
1.4895078346456692
20
-4.8052162204724409
11
1.4949327559055117
21
-4.8239452362204727
0
LINE
8
BLACK
6
CONTINUOUS
10
1.4949327559055117
20
-4.8239452362204727
11
1.498833031496063
21
-4.8430500393700786
0
LINE
8
BLACK
6
CONTINUOUS
10
1.498833031496063
20
-4.8430500393700786
11
1.5011833464566928
21
-4.8624067322834641
0
LINE
8
BLACK
6
CONTINUOUS
10
1.5011833464566928
20
-4.8624067322834641
11
1.5019685039370079
21
-4.8818897637795278
0
LINE
8
BLACK
6
CONTINUOUS
10
1.5019685039370079
20
-4.8818897637795278
11
1.5011833464566928
21
-4.9013727952755906
0
LINE
8
BLACK
6
CONTINUOUS
10
1.5011833464566928
20
-4.9013727952755906
11
1.498833031496063
21
-4.920729488188976
0
LINE
8
BLACK
6
CONTINUOUS
10
1.498833031496063
20
-4.920729488188976
11
1.4949327559055117
21
-4.9398342913385829
0
LINE
8
BLACK
6
CONTINUOUS
10
1.4949327559055117
20
-4.9398342913385829
11
1.4895078346456692
21
-4.9585633070866137
0
LINE
8
BLACK
6
CONTINUOUS
10
1.4895078346456692
20
-4.9585633070866137
11
1.4825934645669292
21
-4.9767950787401576
0
LINE
8
BLACK
6
CONTINUOUS
10
1.4825934645669292
20
-4.9767950787401576
11
1.4742344488188976
21
-4.9944113385826769
0
LINE
8
BLACK
6
CONTINUOUS
10
1.4742344488188976
20
-4.9944113385826769
11
1.464485
21
-5.0112978346456689
0
LINE
8
BLACK
6
CONTINUOUS
10
1.464485
20
-5.0112978346456689
11
1.4534083858267717
21
-5.027345078740157
0
LINE
8
BLACK
6
CONTINUOUS
10
1.4534083858267717
20
-5.027345078740157
11
1.4410764173228345
21
-5.042448976377953
0
LINE
8
BLACK
6
CONTINUOUS
10
1.4410764173228345
20
-5.042448976377953
11
1.4275690944881889
21
-5.0565116141732283
0
LINE
8
BLACK
6
CONTINUOUS
10
1.4275690944881889
20
-5.0565116141732283
11
1.4129739763779527
21
-5.0694417716535431
0
LINE
8
BLACK
6
CONTINUOUS
10
1.4129739763779527
20
-5.0694417716535431
11
1.397385748031496
21
-5.0811555511811024
0
LINE
8
BLACK
6
CONTINUOUS
10
1.397385748031496
20
-5.0811555511811024
11
1.3809055118110236
21
-5.0915770078740152
0
LINE
8
BLACK
6
CONTINUOUS
10
1.3809055118110236
20
-5.0915770078740152
11
1.3636401181102362
21
-5.1006385826771652
0
LINE
8
BLACK
6
CONTINUOUS
10
1.3636401181102362
20
-5.1006385826771652
11
1.3457015748031496
21
-5.1082814960629923
0
LINE
8
BLACK
6
CONTINUOUS
10
1.3457015748031496
20
-5.1082814960629923
11
1.3272061811023621
21
-5.1144561417322834
0
LINE
8
BLACK
6
CONTINUOUS
10
1.3272061811023621
20
-5.1144561417322834
11
1.308273937007874
21
-5.1191225590551177
0
LINE
8
BLACK
6
CONTINUOUS
10
1.308273937007874
20
-5.1191225590551177
11
1.2890275984251969
21
-5.1222503937007877
0
LINE
8
BLACK
6
CONTINUOUS
10
1.2890275984251969
20
-5.1222503937007877
11
1.269591968503937
21
-5.1238193700787402
0
LINE
8
BLACK
6
CONTINUOUS
10
1.269591968503937
20
-5.1238193700787402
11
1.2500930708661417
21
-5.1238193700787402
0
LINE
8
BLACK
6
CONTINUOUS
10
1.2500930708661417
20
-5.1238193700787402
11
1.2306574409448818
21
-5.1222503937007877
0
LINE
8
BLACK
6
CONTINUOUS
10
1.2306574409448818
20
-5.1222503937007877
11
1.2114111023622047
21
-5.1191225590551177
0
LINE
8
BLACK
6
CONTINUOUS
10
1.2114111023622047
20
-5.1191225590551177
11
1.1924788582677166
21
-5.1144561417322834
0
LINE
8
BLACK
6
CONTINUOUS
10
1.1924788582677166
20
-5.1144561417322834
11
1.1739834645669291
21
-5.1082814960629923
0
LINE
8
BLACK
6
CONTINUOUS
10
1.1739834645669291
20
-5.1082814960629923
11
1.1560449212598425
21
-5.1006385826771652
0
LINE
8
BLACK
6
CONTINUOUS
10
1.1560449212598425
20
-5.1006385826771652
11
1.1387795275590551
21
-5.0915770078740152
0
LINE
8
BLACK
6
CONTINUOUS
10
1.1387795275590551
20
-5.0915770078740152
11
1.1222992913385827
21
-5.0811555511811024
0
LINE
8
BLACK
6
CONTINUOUS
10
1.1222992913385827
20
-5.0811555511811024
11
1.106711062992126
21
-5.0694417716535431
0
LINE
8
BLACK
6
CONTINUOUS
10
1.106711062992126
20
-5.0694417716535431
11
1.0921159448818898
21
-5.0565116141732283
0
LINE
8
BLACK
6
CONTINUOUS
10
1.0921159448818898
20
-5.0565116141732283
11
1.0786086220472442
21
-5.042448976377953
0
LINE
8
BLACK
6
CONTINUOUS
10
1.0786086220472442
20
-5.042448976377953
11
1.066276653543307
21
-5.027345078740157
0
LINE
8
BLACK
6
CONTINUOUS
10
1.066276653543307
20
-5.027345078740157
11
1.0552000393700787
21
-5.0112978346456689
0
LINE
8
BLACK
6
CONTINUOUS
10
1.0552000393700787
20
-5.0112978346456689
11
1.0454505905511811
21
-4.9944113385826769
0
LINE
8
BLACK
6
CONTINUOUS
10
1.0454505905511811
20
-4.9944113385826769
11
1.0370915748031495
21
-4.9767950787401576
0
LINE
8
BLACK
6
CONTINUOUS
10
1.0370915748031495
20
-4.9767950787401576
11
1.0301772047244093
21
-4.9585633070866137
0
LINE
8
BLACK
6
CONTINUOUS
10
1.0301772047244093
20
-4.9585633070866137
11
1.0247522834645668
21
-4.9398342913385829
0
LINE
8
BLACK
6
CONTINUOUS
10
1.0247522834645668
20
-4.9398342913385829
11
1.0208520078740158
21
-4.920729488188976
0
LINE
8
BLACK
6
CONTINUOUS
10
1.0208520078740158
20
-4.920729488188976
11
1.0185016929133859
21
-4.9013727952755906
0
LINE
8
BLACK
6
CONTINUOUS
10
1.0185016929133859
20
-4.9013727952755906
11
1.0177165354330708
21
-4.8818897637795278
0
LINE
8
BLACK
6
CONTINUOUS
10
1.0177165354330708
20
-4.8818897637795278
11
1.0185016929133859
21
-4.8624067322834641
0
LINE
8
BLACK
6
CONTINUOUS
10
1.0185016929133859
20
-4.8624067322834641
11
1.0208520078740158
21
-4.8430500393700786
0
LINE
8
BLACK
6
CONTINUOUS
10
1.0208520078740158
20
-4.8430500393700786
11
1.0247522834645668
21
-4.8239452362204727
0
LINE
8
BLACK
6
CONTINUOUS
10
1.0247522834645668
20
-4.8239452362204727
11
1.0301772047244093
21
-4.8052162204724409
0
LINE
8
BLACK
6
CONTINUOUS
10
1.0301772047244093
20
-4.8052162204724409
11
1.0370915748031495
21
-4.786984448818898
0
LINE
8
BLACK
6
CONTINUOUS
10
1.0370915748031495
20
-4.786984448818898
11
1.0454505905511811
21
-4.7693681889763777
0
LINE
8
BLACK
6
CONTINUOUS
10
1.0454505905511811
20
-4.7693681889763777
11
1.0552000393700787
21
-4.7524816929133857
0
LINE
8
BLACK
6
CONTINUOUS
10
1.0552000393700787
20
-4.7524816929133857
11
1.066276653543307
21
-4.7364344488188976
0
LINE
8
BLACK
6
CONTINUOUS
10
1.066276653543307
20
-4.7364344488188976
11
1.0786086220472442
21
-4.7213305511811026
0
LINE
8
BLACK
6
CONTINUOUS
10
1.0786086220472442
20
-4.7213305511811026
11
1.0921159448818898
21
-4.7072679133858264
0
LINE
8
BLACK
6
CONTINUOUS
10
1.0921159448818898
20
-4.7072679133858264
11
1.106711062992126
21
-4.6943377559055115
0
LINE
8
BLACK
6
CONTINUOUS
10
1.106711062992126
20
-4.6943377559055115
11
1.1222992913385827
21
-4.6826239763779522
0
LINE
8
BLACK
6
CONTINUOUS
10
1.1222992913385827
20
-4.6826239763779522
11
1.1387795275590551
21
-4.6722025196850394
0
LINE
8
BLACK
6
CONTINUOUS
10
1.1387795275590551
20
-4.6722025196850394
11
1.1560449212598425
21
-4.6631409448818895
0
LINE
8
BLACK
6
CONTINUOUS
10
1.1560449212598425
20
-4.6631409448818895
11
1.1739834645669291
21
-4.6554980314960632
0
LINE
8
BLACK
6
CONTINUOUS
10
1.1739834645669291
20
-4.6554980314960632
11
1.1924788582677166
21
-4.6493233858267713
0
LINE
8
BLACK
6
CONTINUOUS
10
1.1924788582677166
20
-4.6493233858267713
11
1.2114111023622047
21
-4.6446569685039369
0
LINE
8
BLACK
6
CONTINUOUS
10
1.2114111023622047
20
-4.6446569685039369
11
1.2306574409448818
21
-4.6415291338582678
0
LINE
8
BLACK
6
CONTINUOUS
10
1.2306574409448818
20
-4.6415291338582678
11
1.2500930708661417
21
-4.6399601574803144
0
LINE
8
BLACK
6
CONTINUOUS
10
1.2500930708661417
20
-4.6399601574803144
11
1.269591968503937
21
-4.6399601574803144
0
LINE
8
BLACK
6
CONTINUOUS
10
1.269591968503937
20
-4.6399601574803144
11
1.2890275984251969
21
-4.6415291338582678
0
LINE
8
BLACK
6
CONTINUOUS
10
1.0222331889763778
20
-4.9010715748031499
11
1.0245472047244095
21
-4.9201289763779528
0
LINE
8
BLACK
6
CONTINUOUS
10
1.0245472047244095
20
-4.9201289763779528
11
1.0283871653543306
21
-4.9389383858267717
0
LINE
8
BLACK
6
CONTINUOUS
10
1.0283871653543306
20
-4.9389383858267717
11
1.0337281889763779
21
-4.9573778346456692
0
LINE
8
BLACK
6
CONTINUOUS
10
1.0337281889763779
20
-4.9573778346456692
11
1.0405356692913386
21
-4.9753276771653541
0
LINE
8
BLACK
6
CONTINUOUS
10
1.0405356692913386
20
-4.9753276771653541
11
1.0487654724409448
21
-4.9926715354330709
0
LINE
8
BLACK
6
CONTINUOUS
10
1.0487654724409448
20
-4.9926715354330709
11
1.0583641338582677
21
-5.0092969685039366
0
LINE
8
BLACK
6
CONTINUOUS
10
1.0583641338582677
20
-5.0092969685039366
11
1.0692694881889764
21
-5.0250961023622045
0
LINE
8
BLACK
6
CONTINUOUS
10
1.0692694881889764
20
-5.0250961023622045
11
1.0814107874015748
21
-5.0399664960629922
0
LINE
8
BLACK
6
CONTINUOUS
10
1.0814107874015748
20
-5.0399664960629922
11
1.0947092913385827
21
-5.0538116929133858
0
LINE
8
BLACK
6
CONTINUOUS
10
1.0947092913385827
20
-5.0538116929133858
11
1.1090787401574802
21
-5.0665418897637791
0
LINE
8
BLACK
6
CONTINUOUS
10
1.1090787401574802
20
-5.0665418897637791
11
1.1244259448818896
21
-5.0780745669291338
0
LINE
8
BLACK
6
CONTINUOUS
10
1.1244259448818896
20
-5.0780745669291338
11
1.1406513385826771
21
-5.0883349212598423
0
LINE
8
BLACK
6
CONTINUOUS
10
1.1406513385826771
20
-5.0883349212598423
11
1.1576498031496063
21
-5.097256377952756
0
LINE
8
BLACK
6
CONTINUOUS
10
1.1576498031496063
20
-5.097256377952756
11
1.1753109842519684
21
-5.1047811023622049
0
LINE
8
BLACK
6
CONTINUOUS
10
1.1753109842519684
20
-5.1047811023622049
11
1.1935203937007874
21
-5.1108603149606298
0
LINE
8
BLACK
6
CONTINUOUS
10
1.1935203937007874
20
-5.1108603149606298
11
1.2121599212598424
21
-5.1154545275590548
0
LINE
8
BLACK
6
CONTINUOUS
10
1.2121599212598424
20
-5.1154545275590548
11
1.2311087007874015
21
-5.1185340157480317
0
LINE
8
BLACK
6
CONTINUOUS
10
1.2311087007874015
20
-5.1185340157480317
11
1.2502438188976377
21
-5.1200787401574805
0
LINE
8
BLACK
6
CONTINUOUS
10
1.2502438188976377
20
-5.1200787401574805
11
1.269441220472441
21
-5.1200787401574805
0
LINE
8
BLACK
6
CONTINUOUS
10
1.269441220472441
20
-5.1200787401574805
11
1.2885763385826772
21
-5.1185340157480317
0
LINE
8
BLACK
6
CONTINUOUS
10
1.2885763385826772
20
-5.1185340157480317
11
1.3075251181102361
21
-5.1154545275590548
0
LINE
8
BLACK
6
CONTINUOUS
10
1.3075251181102361
20
-5.1154545275590548
11
1.3261646456692913
21
-5.1108603149606298
0
LINE
8
BLACK
6
CONTINUOUS
10
1.3261646456692913
20
-5.1108603149606298
11
1.3443740551181103
21
-5.1047811023622049
0
LINE
8
BLACK
6
CONTINUOUS
10
1.3443740551181103
20
-5.1047811023622049
11
1.3620352362204724
21
-5.097256377952756
0
LINE
8
BLACK
6
CONTINUOUS
10
1.3620352362204724
20
-5.097256377952756
11
1.3790337007874016
21
-5.0883349212598423
0
LINE
8
BLACK
6
CONTINUOUS
10
1.3790337007874016
20
-5.0883349212598423
11
1.3952590944881889
21
-5.0780745669291338
0
LINE
8
BLACK
6
CONTINUOUS
10
1.3952590944881889
20
-5.0780745669291338
11
1.4106062992125985
21
-5.0665418897637791
0
LINE
8
BLACK
6
CONTINUOUS
10
1.4106062992125985
20
-5.0665418897637791
11
1.424975748031496
21
-5.0538116929133858
0
LINE
8
BLACK
6
CONTINUOUS
10
1.424975748031496
20
-5.0538116929133858
11
1.4382742519685039
21
-5.0399664960629922
0
LINE
8
BLACK
6
CONTINUOUS
10
1.4382742519685039
20
-5.0399664960629922
11
1.4504155511811023
21
-5.0250961023622045
0
LINE
8
BLACK
6
CONTINUOUS
10
1.4504155511811023
20
-5.0250961023622045
11
1.461320905511811
21
-5.0092969685039366
0
LINE
8
BLACK
6
CONTINUOUS
10
1.461320905511811
20
-5.0092969685039366
11
1.4709195669291337
21
-4.9926715354330709
0
LINE
8
BLACK
6
CONTINUOUS
10
1.4709195669291337
20
-4.9926715354330709
11
1.4791493700787401
21
-4.9753276771653541
0
LINE
8
BLACK
6
CONTINUOUS
10
1.4791493700787401
20
-4.9753276771653541
11
1.4859568503937008
21
-4.9573778346456692
0
LINE
8
BLACK
6
CONTINUOUS
10
1.4859568503937008
20
-4.9573778346456692
11
1.4912978740157481
21
-4.9389383858267717
0
LINE
8
BLACK
6
CONTINUOUS
10
1.4912978740157481
20
-4.9389383858267717
11
1.4951378346456692
21
-4.9201289763779528
0
LINE
8
BLACK
6
CONTINUOUS
10
1.4951378346456692
20
-4.9201289763779528
11
1.4974518503937007
21
-4.9010715748031499
0
LINE
8
BLACK
6
CONTINUOUS
10
1.4974518503937007
20
-4.9010715748031499
11
1.4982248425196849
21
-4.8818897637795278
0
LINE
8
BLACK
6
CONTINUOUS
10
1.4982248425196849
20
-4.8818897637795278
11
1.4974518503937007
21
-4.8627079527559056
0
LINE
8
BLACK
6
CONTINUOUS
10
1.4974518503937007
20
-4.8627079527559056
11
1.4951378346456692
21
-4.8436505511811019
0
LINE
8
BLACK
6
CONTINUOUS
10
1.4951378346456692
20
-4.8436505511811019
11
1.4912978740157481
21
-4.824841141732283
0
LINE
8
BLACK
6
CONTINUOUS
10
1.4912978740157481
20
-4.824841141732283
11
1.4859568503937008
21
-4.8064016929133855
0
LINE
8
BLACK
6
CONTINUOUS
10
1.4859568503937008
20
-4.8064016929133855
11
1.4791493700787401
21
-4.7884518503937006
0
LINE
8
BLACK
6
CONTINUOUS
10
1.4791493700787401
20
-4.7884518503937006
11
1.4709195669291337
21
-4.7711079921259838
0
LINE
8
BLACK
6
CONTINUOUS
10
1.4709195669291337
20
-4.7711079921259838
11
1.461320905511811
21
-4.7544825590551181
0
LINE
8
BLACK
6
CONTINUOUS
10
1.461320905511811
20
-4.7544825590551181
11
1.4504155511811023
21
-4.7386834251968502
0
LINE
8
BLACK
6
CONTINUOUS
10
1.4504155511811023
20
-4.7386834251968502
11
1.4382742519685039
21
-4.7238130314960625
0
LINE
8
BLACK
6
CONTINUOUS
10
1.4382742519685039
20
-4.7238130314960625
11
1.424975748031496
21
-4.7099678346456688
0
LINE
8
BLACK
6
CONTINUOUS
10
1.424975748031496
20
-4.7099678346456688
11
1.4106062992125985
21
-4.6972376377952756
0
LINE
8
BLACK
6
CONTINUOUS
10
1.4106062992125985
20
-4.6972376377952756
11
1.3952590944881889
21
-4.6857049606299208
0
LINE
8
BLACK
6
CONTINUOUS
10
1.3952590944881889
20
-4.6857049606299208
11
1.3790337007874016
21
-4.6754446062992123
0
LINE
8
BLACK
6
CONTINUOUS
10
1.3790337007874016
20
-4.6754446062992123
11
1.3620352362204724
21
-4.6665231496062995
0
LINE
8
BLACK
6
CONTINUOUS
10
1.3620352362204724
20
-4.6665231496062995
11
1.3443740551181103
21
-4.6589984251968506
0
LINE
8
BLACK
6
CONTINUOUS
10
1.3443740551181103
20
-4.6589984251968506
11
1.3261646456692913
21
-4.6529192125984249
0
LINE
8
BLACK
6
CONTINUOUS
10
1.3261646456692913
20
-4.6529192125984249
11
1.3075251181102361
21
-4.6483249999999998
0
LINE
8
BLACK
6
CONTINUOUS
10
1.3075251181102361
20
-4.6483249999999998
11
1.2885763385826772
21
-4.6452455118110239
0
LINE
8
BLACK
6
CONTINUOUS
10
1.2885763385826772
20
-4.6452455118110239
11
1.269441220472441
21
-4.643700787401575
0
LINE
8
BLACK
6
CONTINUOUS
10
1.269441220472441
20
-4.643700787401575
11
1.2502438188976377
21
-4.643700787401575
0
LINE
8
BLACK
6
CONTINUOUS
10
1.2502438188976377
20
-4.643700787401575
11
1.2311087007874015
21
-4.6452455118110239
0
LINE
8
BLACK
6
CONTINUOUS
10
1.2311087007874015
20
-4.6452455118110239
11
1.2121599212598424
21
-4.6483249999999998
0
LINE
8
BLACK
6
CONTINUOUS
10
1.2121599212598424
20
-4.6483249999999998
11
1.1935203937007874
21
-4.6529192125984249
0
LINE
8
BLACK
6
CONTINUOUS
10
1.1935203937007874
20
-4.6529192125984249
11
1.1753109842519684
21
-4.6589984251968506
0
LINE
8
BLACK
6
CONTINUOUS
10
1.1753109842519684
20
-4.6589984251968506
11
1.1576498031496063
21
-4.6665231496062995
0
LINE
8
BLACK
6
CONTINUOUS
10
1.1576498031496063
20
-4.6665231496062995
11
1.1406513779527558
21
-4.6754446062992123
0
LINE
8
BLACK
6
CONTINUOUS
10
1.1406513779527558
20
-4.6754446062992123
11
1.1244259448818896
21
-4.6857049606299208
0
LINE
8
BLACK
6
CONTINUOUS
10
1.1244259448818896
20
-4.6857049606299208
11
1.1090787401574802
21
-4.6972376377952756
0
LINE
8
BLACK
6
CONTINUOUS
10
1.1090787401574802
20
-4.6972376377952756
11
1.0947092913385827
21
-4.7099678346456688
0
LINE
8
BLACK
6
CONTINUOUS
10
1.0947092913385827
20
-4.7099678346456688
11
1.0814107874015748
21
-4.7238130314960625
0
LINE
8
BLACK
6
CONTINUOUS
10
1.0814107874015748
20
-4.7238130314960625
11
1.0692694881889764
21
-4.7386834251968502
0
LINE
8
BLACK
6
CONTINUOUS
10
1.0692694881889764
20
-4.7386834251968502
11
1.0583641338582677
21
-4.7544825590551181
0
LINE
8
BLACK
6
CONTINUOUS
10
1.0583641338582677
20
-4.7544825590551181
11
1.0487654724409448
21
-4.7711079921259838
0
LINE
8
BLACK
6
CONTINUOUS
10
1.0487654724409448
20
-4.7711079921259838
11
1.0405356692913386
21
-4.7884518503937006
0
LINE
8
BLACK
6
CONTINUOUS
10
1.0405356692913386
20
-4.7884518503937006
11
1.0337281889763779
21
-4.8064016929133855
0
LINE
8
BLACK
6
CONTINUOUS
10
1.0337281889763779
20
-4.8064016929133855
11
1.0283871653543306
21
-4.824841141732283
0
LINE
8
BLACK
6
CONTINUOUS
10
1.0283871653543306
20
-4.824841141732283
11
1.0245472047244095
21
-4.8436505511811019
0
LINE
8
BLACK
6
CONTINUOUS
10
1.0245472047244095
20
-4.8436505511811019
11
1.0222331889763778
21
-4.8627079527559056
0
LINE
8
BLACK
6
CONTINUOUS
10
1.0222331889763778
20
-4.8627079527559056
11
1.0214601968503936
21
-4.8818897637795278
0
LINE
8
BLACK
6
CONTINUOUS
10
1.0214601968503936
20
-4.8818897637795278
11
1.0222331889763778
21
-4.9010715748031499
0
LINE
8
BLACK
6
CONTINUOUS
10
4.2417835039370075
20
-4.6415291338582678
11
4.2610298425196849
21
-4.6446569685039369
0
LINE
8
BLACK
6
CONTINUOUS
10
4.2610298425196849
20
-4.6446569685039369
11
4.279962086614173
21
-4.6493233858267713
0
LINE
8
BLACK
6
CONTINUOUS
10
4.279962086614173
20
-4.6493233858267713
11
4.2984574803149602
21
-4.6554980314960632
0
LINE
8
BLACK
6
CONTINUOUS
10
4.2984574803149602
20
-4.6554980314960632
11
4.3163960236220476
21
-4.6631409448818895
0
LINE
8
BLACK
6
CONTINUOUS
10
4.3163960236220476
20
-4.6631409448818895
11
4.3336614173228343
21
-4.6722025196850394
0
LINE
8
BLACK
6
CONTINUOUS
10
4.3336614173228343
20
-4.6722025196850394
11
4.3501416535433073
21
-4.6826239763779522
0
LINE
8
BLACK
6
CONTINUOUS
10
4.3501416535433073
20
-4.6826239763779522
11
4.3657298818897639
21
-4.6943377559055115
0
LINE
8
BLACK
6
CONTINUOUS
10
4.3657298818897639
20
-4.6943377559055115
11
4.380325
21
-4.7072679133858264
0
LINE
8
BLACK
6
CONTINUOUS
10
4.380325
20
-4.7072679133858264
11
4.3938323228346459
21
-4.7213305511811026
0
LINE
8
BLACK
6
CONTINUOUS
10
4.3938323228346459
20
-4.7213305511811026
11
4.406164291338583
21
-4.7364344488188976
0
LINE
8
BLACK
6
CONTINUOUS
10
4.406164291338583
20
-4.7364344488188976
11
4.4172409055118109
21
-4.7524816929133857
0
LINE
8
BLACK
6
CONTINUOUS
10
4.4172409055118109
20
-4.7524816929133857
11
4.4269903543307088
21
-4.7693681889763777
0
LINE
8
BLACK
6
CONTINUOUS
10
4.4269903543307088
20
-4.7693681889763777
11
4.4353493700787396
21
-4.786984448818898
0
LINE
8
BLACK
6
CONTINUOUS
10
4.4353493700787396
20
-4.786984448818898
11
4.4422637401574798
21
-4.8052162204724409
0
LINE
8
BLACK
6
CONTINUOUS
10
4.4422637401574798
20
-4.8052162204724409
11
4.447688661417323
21
-4.8239452362204727
0
LINE
8
BLACK
6
CONTINUOUS
10
4.447688661417323
20
-4.8239452362204727
11
4.4515889370078741
21
-4.8430500393700786
0
LINE
8
BLACK
6
CONTINUOUS
10
4.4515889370078741
20
-4.8430500393700786
11
4.4539392519685039
21
-4.8624067322834641
0
LINE
8
BLACK
6
CONTINUOUS
10
4.4539392519685039
20
-4.8624067322834641
11
4.4547244094488185
21
-4.8818897637795278
0
LINE
8
BLACK
6
CONTINUOUS
10
4.4547244094488185
20
-4.8818897637795278
11
4.4539392519685039
21
-4.9013727952755906
0
LINE
8
BLACK
6
CONTINUOUS
10
4.4539392519685039
20
-4.9013727952755906
11
4.4515889370078741
21
-4.920729488188976
0
LINE
8
BLACK
6
CONTINUOUS
10
4.4515889370078741
20
-4.920729488188976
11
4.447688661417323
21
-4.9398342913385829
0
LINE
8
BLACK
6
CONTINUOUS
10
4.447688661417323
20
-4.9398342913385829
11
4.4422637401574798
21
-4.9585633070866137
0
LINE
8
BLACK
6
CONTINUOUS
10
4.4422637401574798
20
-4.9585633070866137
11
4.4353493700787396
21
-4.9767950787401576
0
LINE
8
BLACK
6
CONTINUOUS
10
4.4353493700787396
20
-4.9767950787401576
11
4.4269903543307088
21
-4.9944113385826769
0
LINE
8
BLACK
6
CONTINUOUS
10
4.4269903543307088
20
-4.9944113385826769
11
4.4172409055118109
21
-5.0112978346456689
0
LINE
8
BLACK
6
CONTINUOUS
10
4.4172409055118109
20
-5.0112978346456689
11
4.406164291338583
21
-5.027345078740157
0
LINE
8
BLACK
6
CONTINUOUS
10
4.406164291338583
20
-5.027345078740157
11
4.3938323228346459
21
-5.042448976377953
0
LINE
8
BLACK
6
CONTINUOUS
10
4.3938323228346459
20
-5.042448976377953
11
4.380325
21
-5.0565116141732283
0
LINE
8
BLACK
6
CONTINUOUS
10
4.380325
20
-5.0565116141732283
11
4.3657298818897639
21
-5.0694417716535431
0
LINE
8
BLACK
6
CONTINUOUS
10
4.3657298818897639
20
-5.0694417716535431
11
4.3501416535433073
21
-5.0811555511811024
0
LINE
8
BLACK
6
CONTINUOUS
10
4.3501416535433073
20
-5.0811555511811024
11
4.3336614173228343
21
-5.0915770078740152
0
LINE
8
BLACK
6
CONTINUOUS
10
4.3336614173228343
20
-5.0915770078740152
11
4.3163960236220476
21
-5.1006385826771652
0
LINE
8
BLACK
6
CONTINUOUS
10
4.3163960236220476
20
-5.1006385826771652
11
4.2984574803149602
21
-5.1082814960629923
0
LINE
8
BLACK
6
CONTINUOUS
10
4.2984574803149602
20
-5.1082814960629923
11
4.279962086614173
21
-5.1144561417322834
0
LINE
8
BLACK
6
CONTINUOUS
10
4.279962086614173
20
-5.1144561417322834
11
4.2610298425196849
21
-5.1191225590551177
0
LINE
8
BLACK
6
CONTINUOUS
10
4.2610298425196849
20
-5.1191225590551177
11
4.2417835039370075
21
-5.1222503937007877
0
LINE
8
BLACK
6
CONTINUOUS
10
4.2417835039370075
20
-5.1222503937007877
11
4.2223478740157478
21
-5.1238193700787402
0
LINE
8
BLACK
6
CONTINUOUS
10
4.2223478740157478
20
-5.1238193700787402
11
4.2028489763779531
21
-5.1238193700787402
0
LINE
8
BLACK
6
CONTINUOUS
10
4.2028489763779531
20
-5.1238193700787402
11
4.1834133464566925
21
-5.1222503937007877
0
LINE
8
BLACK
6
CONTINUOUS
10
4.1834133464566925
20
-5.1222503937007877
11
4.1641670078740161
21
-5.1191225590551177
0
LINE
8
BLACK
6
CONTINUOUS
10
4.1641670078740161
20
-5.1191225590551177
11
4.145234763779527
21
-5.1144561417322834
0
LINE
8
BLACK
6
CONTINUOUS
10
4.145234763779527
20
-5.1144561417322834
11
4.1267393700787398
21
-5.1082814960629923
0
LINE
8
BLACK
6
CONTINUOUS
10
4.1267393700787398
20
-5.1082814960629923
11
4.1088008267716534
21
-5.1006385826771652
0
LINE
8
BLACK
6
CONTINUOUS
10
4.1088008267716534
20
-5.1006385826771652
11
4.0915354330708658
21
-5.0915770078740152
0
LINE
8
BLACK
6
CONTINUOUS
10
4.0915354330708658
20
-5.0915770078740152
11
4.0750551968503936
21
-5.0811555511811024
0
LINE
8
BLACK
6
CONTINUOUS
10
4.0750551968503936
20
-5.0811555511811024
11
4.0594669685039371
21
-5.0694417716535431
0
LINE
8
BLACK
6
CONTINUOUS
10
4.0594669685039371
20
-5.0694417716535431
11
4.0448718503937009
21
-5.0565116141732283
0
LINE
8
BLACK
6
CONTINUOUS
10
4.0448718503937009
20
-5.0565116141732283
11
4.0313645275590551
21
-5.042448976377953
0
LINE
8
BLACK
6
CONTINUOUS
10
4.0313645275590551
20
-5.042448976377953
11
4.0190325590551179
21
-5.027345078740157
0
LINE
8
BLACK
6
CONTINUOUS
10
4.0190325590551179
20
-5.027345078740157
11
4.00795594488189
21
-5.0112978346456689
0
LINE
8
BLACK
6
CONTINUOUS
10
4.00795594488189
20
-5.0112978346456689
11
3.9982064960629922
21
-4.9944113385826769
0
LINE
8
BLACK
6
CONTINUOUS
10
3.9982064960629922
20
-4.9944113385826769
11
3.9898474803149604
21
-4.9767950787401576
0
LINE
8
BLACK
6
CONTINUOUS
10
3.9898474803149604
20
-4.9767950787401576
11
3.9829331102362202
21
-4.9585633070866137
0
LINE
8
BLACK
6
CONTINUOUS
10
3.9829331102362202
20
-4.9585633070866137
11
3.9775081889763779
21
-4.9398342913385829
0
LINE
8
BLACK
6
CONTINUOUS
10
3.9775081889763779
20
-4.9398342913385829
11
3.9736079133858269
21
-4.920729488188976
0
LINE
8
BLACK
6
CONTINUOUS
10
3.9736079133858269
20
-4.920729488188976
11
3.9712575984251965
21
-4.9013727952755906
0
LINE
8
BLACK
6
CONTINUOUS
10
3.9712575984251965
20
-4.9013727952755906
11
3.9704724409448819
21
-4.8818897637795278
0
LINE
8
BLACK
6
CONTINUOUS
10
3.9704724409448819
20
-4.8818897637795278
11
3.9712575984251965
21
-4.8624067322834641
0
LINE
8
BLACK
6
CONTINUOUS
10
3.9712575984251965
20
-4.8624067322834641
11
3.9736079133858269
21
-4.8430500393700786
0
LINE
8
BLACK
6
CONTINUOUS
10
3.9736079133858269
20
-4.8430500393700786
11
3.9775081889763779
21
-4.8239452362204727
0
LINE
8
BLACK
6
CONTINUOUS
10
3.9775081889763779
20
-4.8239452362204727
11
3.9829331102362202
21
-4.8052162204724409
0
LINE
8
BLACK
6
CONTINUOUS
10
3.9829331102362202
20
-4.8052162204724409
11
3.9898474803149604
21
-4.786984448818898
0
LINE
8
BLACK
6
CONTINUOUS
10
3.9898474803149604
20
-4.786984448818898
11
3.9982064960629922
21
-4.7693681889763777
0
LINE
8
BLACK
6
CONTINUOUS
10
3.9982064960629922
20
-4.7693681889763777
11
4.00795594488189
21
-4.7524816929133857
0
LINE
8
BLACK
6
CONTINUOUS
10
4.00795594488189
20
-4.7524816929133857
11
4.0190325590551179
21
-4.7364344488188976
0
LINE
8
BLACK
6
CONTINUOUS
10
4.0190325590551179
20
-4.7364344488188976
11
4.0313645275590551
21
-4.7213305511811026
0
LINE
8
BLACK
6
CONTINUOUS
10
4.0313645275590551
20
-4.7213305511811026
11
4.0448718503937009
21
-4.7072679133858264
0
LINE
8
BLACK
6
CONTINUOUS
10
4.0448718503937009
20
-4.7072679133858264
11
4.0594669685039371
21
-4.6943377559055115
0
LINE
8
BLACK
6
CONTINUOUS
10
4.0594669685039371
20
-4.6943377559055115
11
4.0750551968503936
21
-4.6826239763779522
0
LINE
8
BLACK
6
CONTINUOUS
10
4.0750551968503936
20
-4.6826239763779522
11
4.0915354330708658
21
-4.6722025196850394
0
LINE
8
BLACK
6
CONTINUOUS
10
4.0915354330708658
20
-4.6722025196850394
11
4.1088008267716534
21
-4.6631409448818895
0
LINE
8
BLACK
6
CONTINUOUS
10
4.1088008267716534
20
-4.6631409448818895
11
4.1267393700787398
21
-4.6554980314960632
0
LINE
8
BLACK
6
CONTINUOUS
10
4.1267393700787398
20
-4.6554980314960632
11
4.145234763779527
21
-4.6493233858267713
0
LINE
8
BLACK
6
CONTINUOUS
10
4.145234763779527
20
-4.6493233858267713
11
4.1641670078740161
21
-4.6446569685039369
0
LINE
8
BLACK
6
CONTINUOUS
10
4.1641670078740161
20
-4.6446569685039369
11
4.1834133464566925
21
-4.6415291338582678
0
LINE
8
BLACK
6
CONTINUOUS
10
4.1834133464566925
20
-4.6415291338582678
11
4.2028489763779531
21
-4.6399601574803144
0
LINE
8
BLACK
6
CONTINUOUS
10
4.2028489763779531
20
-4.6399601574803144
11
4.2223478740157478
21
-4.6399601574803144
0
LINE
8
BLACK
6
CONTINUOUS
10
4.2223478740157478
20
-4.6399601574803144
11
4.2417835039370075
21
-4.6415291338582678
0
LINE
8
BLACK
6
CONTINUOUS
10
3.9749890944881887
20
-4.9010715748031499
11
3.9773031102362202
21
-4.9201289763779528
0
LINE
8
BLACK
6
CONTINUOUS
10
3.9773031102362202
20
-4.9201289763779528
11
3.9811430708661417
21
-4.9389383858267717
0
LINE
8
BLACK
6
CONTINUOUS
10
3.9811430708661417
20
-4.9389383858267717
11
3.9864840944881887
21
-4.9573778346456692
0
LINE
8
BLACK
6
CONTINUOUS
10
3.9864840944881887
20
-4.9573778346456692
11
3.9932915748031497
21
-4.9753276771653541
0
LINE
8
BLACK
6
CONTINUOUS
10
3.9932915748031497
20
-4.9753276771653541
11
4.0015213779527556
21
-4.9926715354330709
0
LINE
8
BLACK
6
CONTINUOUS
10
4.0015213779527556
20
-4.9926715354330709
11
4.0111200393700788
21
-5.0092969685039366
0
LINE
8
BLACK
6
CONTINUOUS
10
4.0111200393700788
20
-5.0092969685039366
11
4.0220253937007877
21
-5.0250961023622045
0
LINE
8
BLACK
6
CONTINUOUS
10
4.0220253937007877
20
-5.0250961023622045
11
4.0341666929133861
21
-5.0399664960629922
0
LINE
8
BLACK
6
CONTINUOUS
10
4.0341666929133861
20
-5.0399664960629922
11
4.0474651968503936
21
-5.0538116929133858
0
LINE
8
BLACK
6
CONTINUOUS
10
4.0474651968503936
20
-5.0538116929133858
11
4.0618346456692915
21
-5.0665418897637791
0
LINE
8
BLACK
6
CONTINUOUS
10
4.0618346456692915
20
-5.0665418897637791
11
4.0771818503937007
21
-5.0780745669291338
0
LINE
8
BLACK
6
CONTINUOUS
10
4.0771818503937007
20
-5.0780745669291338
11
4.0934072440944878
21
-5.0883349212598423
0
LINE
8
BLACK
6
CONTINUOUS
10
4.0934072440944878
20
-5.0883349212598423
11
4.1104057086614176
21
-5.097256377952756
0
LINE
8
BLACK
6
CONTINUOUS
10
4.1104057086614176
20
-5.097256377952756
11
4.1280668897637796
21
-5.1047811023622049
0
LINE
8
BLACK
6
CONTINUOUS
10
4.1280668897637796
20
-5.1047811023622049
11
4.1462762992125981
21
-5.1108603149606298
0
LINE
8
BLACK
6
CONTINUOUS
10
4.1462762992125981
20
-5.1108603149606298
11
4.1649158267716535
21
-5.1154545275590548
0
LINE
8
BLACK
6
CONTINUOUS
10
4.1649158267716535
20
-5.1154545275590548
11
4.1838646062992124
21
-5.1185340157480317
0
LINE
8
BLACK
6
CONTINUOUS
10
4.1838646062992124
20
-5.1185340157480317
11
4.202999724409449
21
-5.1200787401574805
0
LINE
8
BLACK
6
CONTINUOUS
10
4.202999724409449
20
-5.1200787401574805
11
4.2221971259842519
21
-5.1200787401574805
0
LINE
8
BLACK
6
CONTINUOUS
10
4.2221971259842519
20
-5.1200787401574805
11
4.2413322440944885
21
-5.1185340157480317
0
LINE
8
BLACK
6
CONTINUOUS
10
4.2413322440944885
20
-5.1185340157480317
11
4.2602810236220474
21
-5.1154545275590548
0
LINE
8
BLACK
6
CONTINUOUS
10
4.2602810236220474
20
-5.1154545275590548
11
4.2789205511811019
21
-5.1108603149606298
0
LINE
8
BLACK
6
CONTINUOUS
10
4.2789205511811019
20
-5.1108603149606298
11
4.2971299606299214
21
-5.1047811023622049
0
LINE
8
BLACK
6
CONTINUOUS
10
4.2971299606299214
20
-5.1047811023622049
11
4.3147911417322833
21
-5.097256377952756
0
LINE
8
BLACK
6
CONTINUOUS
10
4.3147911417322833
20
-5.097256377952756
11
4.3317896062992123
21
-5.0883349212598423
0
LINE
8
BLACK
6
CONTINUOUS
10
4.3317896062992123
20
-5.0883349212598423
11
4.3480150000000002
21
-5.0780745669291338
0
LINE
8
BLACK
6
CONTINUOUS
10
4.3480150000000002
20
-5.0780745669291338
11
4.3633622047244094
21
-5.0665418897637791
0
LINE
8
BLACK
6
CONTINUOUS
10
4.3633622047244094
20
-5.0665418897637791
11
4.3777316535433073
21
-5.0538116929133858
0
LINE
8
BLACK
6
CONTINUOUS
10
4.3777316535433073
20
-5.0538116929133858
11
4.3910301574803148
21
-5.0399664960629922
0
LINE
8
BLACK
6
CONTINUOUS
10
4.3910301574803148
20
-5.0399664960629922
11
4.4031714566929132
21
-5.0250961023622045
0
LINE
8
BLACK
6
CONTINUOUS
10
4.4031714566929132
20
-5.0250961023622045
11
4.4140768110236221
21
-5.0092969685039366
0
LINE
8
BLACK
6
CONTINUOUS
10
4.4140768110236221
20
-5.0092969685039366
11
4.4236754724409444
21
-4.9926715354330709
0
LINE
8
BLACK
6
CONTINUOUS
10
4.4236754724409444
20
-4.9926715354330709
11
4.4319052755905508
21
-4.9753276771653541
0
LINE
8
BLACK
6
CONTINUOUS
10
4.4319052755905508
20
-4.9753276771653541
11
4.4387127559055113
21
-4.9573778346456692
0
LINE
8
BLACK
6
CONTINUOUS
10
4.4387127559055113
20
-4.9573778346456692
11
4.4440537795275592
21
-4.9389383858267717
0
LINE
8
BLACK
6
CONTINUOUS
10
4.4440537795275592
20
-4.9389383858267717
11
4.4478937401574798
21
-4.9201289763779528
0
LINE
8
BLACK
6
CONTINUOUS
10
4.4478937401574798
20
-4.9201289763779528
11
4.4502077559055113
21
-4.9010715748031499
0
LINE
8
BLACK
6
CONTINUOUS
10
4.4502077559055113
20
-4.9010715748031499
11
4.4509807480314958
21
-4.8818897637795278
0
LINE
8
BLACK
6
CONTINUOUS
10
4.4509807480314958
20
-4.8818897637795278
11
4.4502077559055113
21
-4.8627079527559056
0
LINE
8
BLACK
6
CONTINUOUS
10
4.4502077559055113
20
-4.8627079527559056
11
4.4478937401574798
21
-4.8436505511811019
0
LINE
8
BLACK
6
CONTINUOUS
10
4.4478937401574798
20
-4.8436505511811019
11
4.4440537795275592
21
-4.824841141732283
0
LINE
8
BLACK
6
CONTINUOUS
10
4.4440537795275592
20
-4.824841141732283
11
4.4387127559055113
21
-4.8064016929133855
0
LINE
8
BLACK
6
CONTINUOUS
10
4.4387127559055113
20
-4.8064016929133855
11
4.4319052755905508
21
-4.7884518503937006
0
LINE
8
BLACK
6
CONTINUOUS
10
4.4319052755905508
20
-4.7884518503937006
11
4.4236754724409444
21
-4.7711079921259838
0
LINE
8
BLACK
6
CONTINUOUS
10
4.4236754724409444
20
-4.7711079921259838
11
4.4140768110236221
21
-4.7544825590551181
0
LINE
8
BLACK
6
CONTINUOUS
10
4.4140768110236221
20
-4.7544825590551181
11
4.4031714566929132
21
-4.7386834251968502
0
LINE
8
BLACK
6
CONTINUOUS
10
4.4031714566929132
20
-4.7386834251968502
11
4.3910301574803148
21
-4.7238130314960625
0
LINE
8
BLACK
6
CONTINUOUS
10
4.3910301574803148
20
-4.7238130314960625
11
4.3777316535433073
21
-4.7099678346456688
0
LINE
8
BLACK
6
CONTINUOUS
10
4.3777316535433073
20
-4.7099678346456688
11
4.3633622047244094
21
-4.6972376377952756
0
LINE
8
BLACK
6
CONTINUOUS
10
4.3633622047244094
20
-4.6972376377952756
11
4.3480150000000002
21
-4.6857049606299208
0
LINE
8
BLACK
6
CONTINUOUS
10
4.3480150000000002
20
-4.6857049606299208
11
4.3317896062992123
21
-4.6754446062992123
0
LINE
8
BLACK
6
CONTINUOUS
10
4.3317896062992123
20
-4.6754446062992123
11
4.3147911417322833
21
-4.6665231496062995
0
LINE
8
BLACK
6
CONTINUOUS
10
4.3147911417322833
20
-4.6665231496062995
11
4.2971299606299214
21
-4.6589984251968506
0
LINE
8
BLACK
6
CONTINUOUS
10
4.2971299606299214
20
-4.6589984251968506
11
4.2789205511811019
21
-4.6529192125984249
0
LINE
8
BLACK
6
CONTINUOUS
10
4.2789205511811019
20
-4.6529192125984249
11
4.2602810236220474
21
-4.6483249999999998
0
LINE
8
BLACK
6
CONTINUOUS
10
4.2602810236220474
20
-4.6483249999999998
11
4.2413322440944885
21
-4.6452455118110239
0
LINE
8
BLACK
6
CONTINUOUS
10
4.2413322440944885
20
-4.6452455118110239
11
4.2221971259842519
21
-4.643700787401575
0
LINE
8
BLACK
6
CONTINUOUS
10
4.2221971259842519
20
-4.643700787401575
11
4.202999724409449
21
-4.643700787401575
0
LINE
8
BLACK
6
CONTINUOUS
10
4.202999724409449
20
-4.643700787401575
11
4.1838646062992124
21
-4.6452455118110239
0
LINE
8
BLACK
6
CONTINUOUS
10
4.1838646062992124
20
-4.6452455118110239
11
4.1649158267716535
21
-4.6483249999999998
0
LINE
8
BLACK
6
CONTINUOUS
10
4.1649158267716535
20
-4.6483249999999998
11
4.1462762992125981
21
-4.6529192125984249
0
LINE
8
BLACK
6
CONTINUOUS
10
4.1462762992125981
20
-4.6529192125984249
11
4.1280668897637796
21
-4.6589984251968506
0
LINE
8
BLACK
6
CONTINUOUS
10
4.1280668897637796
20
-4.6589984251968506
11
4.1104057086614176
21
-4.6665231496062995
0
LINE
8
BLACK
6
CONTINUOUS
10
4.1104057086614176
20
-4.6665231496062995
11
4.0934072834645665
21
-4.6754446062992123
0
LINE
8
BLACK
6
CONTINUOUS
10
4.0934072834645665
20
-4.6754446062992123
11
4.0771818503937007
21
-4.6857049606299208
0
LINE
8
BLACK
6
CONTINUOUS
10
4.0771818503937007
20
-4.6857049606299208
11
4.0618346456692915
21
-4.6972376377952756
0
LINE
8
BLACK
6
CONTINUOUS
10
4.0618346456692915
20
-4.6972376377952756
11
4.0474651968503936
21
-4.7099678346456688
0
LINE
8
BLACK
6
CONTINUOUS
10
4.0474651968503936
20
-4.7099678346456688
11
4.0341666929133861
21
-4.7238130314960625
0
LINE
8
BLACK
6
CONTINUOUS
10
4.0341666929133861
20
-4.7238130314960625
11
4.0220253937007877
21
-4.7386834251968502
0
LINE
8
BLACK
6
CONTINUOUS
10
4.0220253937007877
20
-4.7386834251968502
11
4.0111200393700788
21
-4.7544825590551181
0
LINE
8
BLACK
6
CONTINUOUS
10
4.0111200393700788
20
-4.7544825590551181
11
4.0015213779527556
21
-4.7711079921259838
0
LINE
8
BLACK
6
CONTINUOUS
10
4.0015213779527556
20
-4.7711079921259838
11
3.9932915748031497
21
-4.7884518503937006
0
LINE
8
BLACK
6
CONTINUOUS
10
3.9932915748031497
20
-4.7884518503937006
11
3.9864840944881887
21
-4.8064016929133855
0
LINE
8
BLACK
6
CONTINUOUS
10
3.9864840944881887
20
-4.8064016929133855
11
3.9811430708661417
21
-4.824841141732283
0
LINE
8
BLACK
6
CONTINUOUS
10
3.9811430708661417
20
-4.824841141732283
11
3.9773031102362202
21
-4.8436505511811019
0
LINE
8
BLACK
6
CONTINUOUS
10
3.9773031102362202
20
-4.8436505511811019
11
3.9749890944881887
21
-4.8627079527559056
0
LINE
8
BLACK
6
CONTINUOUS
10
3.9749890944881887
20
-4.8627079527559056
11
3.9742161023622047
21
-4.8818897637795278
0
LINE
8
BLACK
6
CONTINUOUS
10
3.9742161023622047
20
-4.8818897637795278
11
3.9749890944881887
21
-4.9010715748031499
0
LINE
8
BLACK
6
CONTINUOUS
10
7.1945394094488186
20
-4.6415291338582678
11
7.213785748031496
21
-4.6446569685039369
0
LINE
8
BLACK
6
CONTINUOUS
10
7.213785748031496
20
-4.6446569685039369
11
7.2327179921259841
21
-4.6493233858267713
0
LINE
8
BLACK
6
CONTINUOUS
10
7.2327179921259841
20
-4.6493233858267713
11
7.2512133858267713
21
-4.6554980314960632
0
LINE
8
BLACK
6
CONTINUOUS
10
7.2512133858267713
20
-4.6554980314960632
11
7.2691519291338578
21
-4.6631409448818895
0
LINE
8
BLACK
6
CONTINUOUS
10
7.2691519291338578
20
-4.6631409448818895
11
7.2864173228346454
21
-4.6722025196850394
0
LINE
8
BLACK
6
CONTINUOUS
10
7.2864173228346454
20
-4.6722025196850394
11
7.3028975590551175
21
-4.6826239763779522
0
LINE
8
BLACK
6
CONTINUOUS
10
7.3028975590551175
20
-4.6826239763779522
11
7.318485787401575
21
-4.6943377559055115
0
LINE
8
BLACK
6
CONTINUOUS
10
7.318485787401575
20
-4.6943377559055115
11
7.3330809055118111
21
-4.7072679133858264
0
LINE
8
BLACK
6
CONTINUOUS
10
7.3330809055118111
20
-4.7072679133858264
11
7.3465882283464561
21
-4.7213305511811026
0
LINE
8
BLACK
6
CONTINUOUS
10
7.3465882283464561
20
-4.7213305511811026
11
7.3589201968503932
21
-4.7364344488188976
0
LINE
8
BLACK
6
CONTINUOUS
10
7.3589201968503932
20
-4.7364344488188976
11
7.369996811023622
21
-4.7524816929133857
0
LINE
8
BLACK
6
CONTINUOUS
10
7.369996811023622
20
-4.7524816929133857
11
7.3797462598425199
21
-4.7693681889763777
0
LINE
8
BLACK
6
CONTINUOUS
10
7.3797462598425199
20
-4.7693681889763777
11
7.3881052755905507
21
-4.786984448818898
0
LINE
8
BLACK
6
CONTINUOUS
10
7.3881052755905507
20
-4.786984448818898
11
7.3950196456692909
21
-4.8052162204724409
0
LINE
8
BLACK
6
CONTINUOUS
10
7.3950196456692909
20
-4.8052162204724409
11
7.4004445669291341
21
-4.8239452362204727
0
LINE
8
BLACK
6
CONTINUOUS
10
7.4004445669291341
20
-4.8239452362204727
11
7.4043448425196852
21
-4.8430500393700786
0
LINE
8
BLACK
6
CONTINUOUS
10
7.4043448425196852
20
-4.8430500393700786
11
7.406695157480315
21
-4.8624067322834641
0
LINE
8
BLACK
6
CONTINUOUS
10
7.406695157480315
20
-4.8624067322834641
11
7.4074803149606296
21
-4.8818897637795278
0
LINE
8
BLACK
6
CONTINUOUS
10
7.4074803149606296
20
-4.8818897637795278
11
7.406695157480315
21
-4.9013727952755906
0
LINE
8
BLACK
6
CONTINUOUS
10
7.406695157480315
20
-4.9013727952755906
11
7.4043448425196852
21
-4.920729488188976
0
LINE
8
BLACK
6
CONTINUOUS
10
7.4043448425196852
20
-4.920729488188976
11
7.4004445669291341
21
-4.9398342913385829
0
LINE
8
BLACK
6
CONTINUOUS
10
7.4004445669291341
20
-4.9398342913385829
11
7.3950196456692909
21
-4.9585633070866137
0
LINE
8
BLACK
6
CONTINUOUS
10
7.3950196456692909
20
-4.9585633070866137
11
7.3881052755905507
21
-4.9767950787401576
0
LINE
8
BLACK
6
CONTINUOUS
10
7.3881052755905507
20
-4.9767950787401576
11
7.3797462598425199
21
-4.9944113385826769
0
LINE
8
BLACK
6
CONTINUOUS
10
7.3797462598425199
20
-4.9944113385826769
11
7.369996811023622
21
-5.0112978346456689
0
LINE
8
BLACK
6
CONTINUOUS
10
7.369996811023622
20
-5.0112978346456689
11
7.3589201968503932
21
-5.027345078740157
0
LINE
8
BLACK
6
CONTINUOUS
10
7.3589201968503932
20
-5.027345078740157
11
7.3465882283464561
21
-5.042448976377953
0
LINE
8
BLACK
6
CONTINUOUS
10
7.3465882283464561
20
-5.042448976377953
11
7.3330809055118111
21
-5.0565116141732283
0
LINE
8
BLACK
6
CONTINUOUS
10
7.3330809055118111
20
-5.0565116141732283
11
7.318485787401575
21
-5.0694417716535431
0
LINE
8
BLACK
6
CONTINUOUS
10
7.318485787401575
20
-5.0694417716535431
11
7.3028975590551175
21
-5.0811555511811024
0
LINE
8
BLACK
6
CONTINUOUS
10
7.3028975590551175
20
-5.0811555511811024
11
7.2864173228346454
21
-5.0915770078740152
0
LINE
8
BLACK
6
CONTINUOUS
10
7.2864173228346454
20
-5.0915770078740152
11
7.2691519291338578
21
-5.1006385826771652
0
LINE
8
BLACK
6
CONTINUOUS
10
7.2691519291338578
20
-5.1006385826771652
11
7.2512133858267713
21
-5.1082814960629923
0
LINE
8
BLACK
6
CONTINUOUS
10
7.2512133858267713
20
-5.1082814960629923
11
7.2327179921259841
21
-5.1144561417322834
0
LINE
8
BLACK
6
CONTINUOUS
10
7.2327179921259841
20
-5.1144561417322834
11
7.213785748031496
21
-5.1191225590551177
0
LINE
8
BLACK
6
CONTINUOUS
10
7.213785748031496
20
-5.1191225590551177
11
7.1945394094488186
21
-5.1222503937007877
0
LINE
8
BLACK
6
CONTINUOUS
10
7.1945394094488186
20
-5.1222503937007877
11
7.175103779527559
21
-5.1238193700787402
0
LINE
8
BLACK
6
CONTINUOUS
10
7.175103779527559
20
-5.1238193700787402
11
7.1556048818897633
21
-5.1238193700787402
0
LINE
8
BLACK
6
CONTINUOUS
10
7.1556048818897633
20
-5.1238193700787402
11
7.1361692519685036
21
-5.1222503937007877
0
LINE
8
BLACK
6
CONTINUOUS
10
7.1361692519685036
20
-5.1222503937007877
11
7.1169229133858263
21
-5.1191225590551177
0
LINE
8
BLACK
6
CONTINUOUS
10
7.1169229133858263
20
-5.1191225590551177
11
7.0979906692913382
21
-5.1144561417322834
0
LINE
8
BLACK
6
CONTINUOUS
10
7.0979906692913382
20
-5.1144561417322834
11
7.0794952755905509
21
-5.1082814960629923
0
LINE
8
BLACK
6
CONTINUOUS
10
7.0794952755905509
20
-5.1082814960629923
11
7.0615567322834645
21
-5.1006385826771652
0
LINE
8
BLACK
6
CONTINUOUS
10
7.0615567322834645
20
-5.1006385826771652
11
7.0442913385826769
21
-5.0915770078740152
0
LINE
8
BLACK
6
CONTINUOUS
10
7.0442913385826769
20
-5.0915770078740152
11
7.0278111023622047
21
-5.0811555511811024
0
LINE
8
BLACK
6
CONTINUOUS
10
7.0278111023622047
20
-5.0811555511811024
11
7.0122228740157482
21
-5.0694417716535431
0
LINE
8
BLACK
6
CONTINUOUS
10
7.0122228740157482
20
-5.0694417716535431
11
6.997627755905512
21
-5.0565116141732283
0
LINE
8
BLACK
6
CONTINUOUS
10
6.997627755905512
20
-5.0565116141732283
11
6.9841204330708662
21
-5.042448976377953
0
LINE
8
BLACK
6
CONTINUOUS
10
6.9841204330708662
20
-5.042448976377953
11
6.971788464566929
21
-5.027345078740157
0
LINE
8
BLACK
6
CONTINUOUS
10
6.971788464566929
20
-5.027345078740157
11
6.9607118503937002
21
-5.0112978346456689
0
LINE
8
BLACK
6
CONTINUOUS
10
6.9607118503937002
20
-5.0112978346456689
11
6.9509624015748033
21
-4.9944113385826769
0
LINE
8
BLACK
6
CONTINUOUS
10
6.9509624015748033
20
-4.9944113385826769
11
6.9426033858267715
21
-4.9767950787401576
0
LINE
8
BLACK
6
CONTINUOUS
10
6.9426033858267715
20
-4.9767950787401576
11
6.9356890157480313
21
-4.9585633070866137
0
LINE
8
BLACK
6
CONTINUOUS
10
6.9356890157480313
20
-4.9585633070866137
11
6.930264094488189
21
-4.9398342913385829
0
LINE
8
BLACK
6
CONTINUOUS
10
6.930264094488189
20
-4.9398342913385829
11
6.926363818897638
21
-4.920729488188976
0
LINE
8
BLACK
6
CONTINUOUS
10
6.926363818897638
20
-4.920729488188976
11
6.9240135039370081
21
-4.9013727952755906
0
LINE
8
BLACK
6
CONTINUOUS
10
6.9240135039370081
20
-4.9013727952755906
11
6.9232283464566926
21
-4.8818897637795278
0
LINE
8
BLACK
6
CONTINUOUS
10
6.9232283464566926
20
-4.8818897637795278
11
6.9240135039370081
21
-4.8624067322834641
0
LINE
8
BLACK
6
CONTINUOUS
10
6.9240135039370081
20
-4.8624067322834641
11
6.926363818897638
21
-4.8430500393700786
0
LINE
8
BLACK
6
CONTINUOUS
10
6.926363818897638
20
-4.8430500393700786
11
6.930264094488189
21
-4.8239452362204727
0
LINE
8
BLACK
6
CONTINUOUS
10
6.930264094488189
20
-4.8239452362204727
11
6.9356890157480313
21
-4.8052162204724409
0
LINE
8
BLACK
6
CONTINUOUS
10
6.9356890157480313
20
-4.8052162204724409
11
6.9426033858267715
21
-4.786984448818898
0
LINE
8
BLACK
6
CONTINUOUS
10
6.9426033858267715
20
-4.786984448818898
11
6.9509624015748033
21
-4.7693681889763777
0
LINE
8
BLACK
6
CONTINUOUS
10
6.9509624015748033
20
-4.7693681889763777
11
6.9607118503937002
21
-4.7524816929133857
0
LINE
8
BLACK
6
CONTINUOUS
10
6.9607118503937002
20
-4.7524816929133857
11
6.971788464566929
21
-4.7364344488188976
0
LINE
8
BLACK
6
CONTINUOUS
10
6.971788464566929
20
-4.7364344488188976
11
6.9841204330708662
21
-4.7213305511811026
0
LINE
8
BLACK
6
CONTINUOUS
10
6.9841204330708662
20
-4.7213305511811026
11
6.997627755905512
21
-4.7072679133858264
0
LINE
8
BLACK
6
CONTINUOUS
10
6.997627755905512
20
-4.7072679133858264
11
7.0122228740157482
21
-4.6943377559055115
0
LINE
8
BLACK
6
CONTINUOUS
10
7.0122228740157482
20
-4.6943377559055115
11
7.0278111023622047
21
-4.6826239763779522
0
LINE
8
BLACK
6
CONTINUOUS
10
7.0278111023622047
20
-4.6826239763779522
11
7.0442913385826769
21
-4.6722025196850394
0
LINE
8
BLACK
6
CONTINUOUS
10
7.0442913385826769
20
-4.6722025196850394
11
7.0615567322834645
21
-4.6631409448818895
0
LINE
8
BLACK
6
CONTINUOUS
10
7.0615567322834645
20
-4.6631409448818895
11
7.0794952755905509
21
-4.6554980314960632
0
LINE
8
BLACK
6
CONTINUOUS
10
7.0794952755905509
20
-4.6554980314960632
11
7.0979906692913382
21
-4.6493233858267713
0
LINE
8
BLACK
6
CONTINUOUS
10
7.0979906692913382
20
-4.6493233858267713
11
7.1169229133858263
21
-4.6446569685039369
0
LINE
8
BLACK
6
CONTINUOUS
10
7.1169229133858263
20
-4.6446569685039369
11
7.1361692519685036
21
-4.6415291338582678
0
LINE
8
BLACK
6
CONTINUOUS
10
7.1361692519685036
20
-4.6415291338582678
11
7.1556048818897633
21
-4.6399601574803144
0
LINE
8
BLACK
6
CONTINUOUS
10
7.1556048818897633
20
-4.6399601574803144
11
7.175103779527559
21
-4.6399601574803144
0
LINE
8
BLACK
6
CONTINUOUS
10
7.175103779527559
20
-4.6399601574803144
11
7.1945394094488186
21
-4.6415291338582678
0
LINE
8
BLACK
6
CONTINUOUS
10
6.9277449999999998
20
-4.9010715748031499
11
6.9300590157480313
21
-4.9201289763779528
0
LINE
8
BLACK
6
CONTINUOUS
10
6.9300590157480313
20
-4.9201289763779528
11
6.9338989763779528
21
-4.9389383858267717
0
LINE
8
BLACK
6
CONTINUOUS
10
6.9338989763779528
20
-4.9389383858267717
11
6.9392399999999999
21
-4.9573778346456692
0
LINE
8
BLACK
6
CONTINUOUS
10
6.9392399999999999
20
-4.9573778346456692
11
6.9460474803149603
21
-4.9753276771653541
0
LINE
8
BLACK
6
CONTINUOUS
10
6.9460474803149603
20
-4.9753276771653541
11
6.9542772834645668
21
-4.9926715354330709
0
LINE
8
BLACK
6
CONTINUOUS
10
6.9542772834645668
20
-4.9926715354330709
11
6.9638759448818899
21
-5.0092969685039366
0
LINE
8
BLACK
6
CONTINUOUS
10
6.9638759448818899
20
-5.0092969685039366
11
6.9747812992125979
21
-5.0250961023622045
0
LINE
8
BLACK
6
CONTINUOUS
10
6.9747812992125979
20
-5.0250961023622045
11
6.9869225984251964
21
-5.0399664960629922
0
LINE
8
BLACK
6
CONTINUOUS
10
6.9869225984251964
20
-5.0399664960629922
11
7.0002211023622047
21
-5.0538116929133858
0
LINE
8
BLACK
6
CONTINUOUS
10
7.0002211023622047
20
-5.0538116929133858
11
7.0145905511811026
21
-5.0665418897637791
0
LINE
8
BLACK
6
CONTINUOUS
10
7.0145905511811026
20
-5.0665418897637791
11
7.0299377559055118
21
-5.0780745669291338
0
LINE
8
BLACK
6
CONTINUOUS
10
7.0299377559055118
20
-5.0780745669291338
11
7.0461631496062989
21
-5.0883349212598423
0
LINE
8
BLACK
6
CONTINUOUS
10
7.0461631496062989
20
-5.0883349212598423
11
7.0631616141732279
21
-5.097256377952756
0
LINE
8
BLACK
6
CONTINUOUS
10
7.0631616141732279
20
-5.097256377952756
11
7.0808227952755907
21
-5.1047811023622049
0
LINE
8
BLACK
6
CONTINUOUS
10
7.0808227952755907
20
-5.1047811023622049
11
7.0990322047244092
21
-5.1108603149606298
0
LINE
8
BLACK
6
CONTINUOUS
10
7.0990322047244092
20
-5.1108603149606298
11
7.1176717322834646
21
-5.1154545275590548
0
LINE
8
BLACK
6
CONTINUOUS
10
7.1176717322834646
20
-5.1154545275590548
11
7.1366205118110235
21
-5.1185340157480317
0
LINE
8
BLACK
6
CONTINUOUS
10
7.1366205118110235
20
-5.1185340157480317
11
7.1557556299212592
21
-5.1200787401574805
0
LINE
8
BLACK
6
CONTINUOUS
10
7.1557556299212592
20
-5.1200787401574805
11
7.174953031496063
21
-5.1200787401574805
0
LINE
8
BLACK
6
CONTINUOUS
10
7.174953031496063
20
-5.1200787401574805
11
7.1940881496062987
21
-5.1185340157480317
0
LINE
8
BLACK
6
CONTINUOUS
10
7.1940881496062987
20
-5.1185340157480317
11
7.2130369291338585
21
-5.1154545275590548
0
LINE
8
BLACK
6
CONTINUOUS
10
7.2130369291338585
20
-5.1154545275590548
11
7.231676456692913
21
-5.1108603149606298
0
LINE
8
BLACK
6
CONTINUOUS
10
7.231676456692913
20
-5.1108603149606298
11
7.2498858661417325
21
-5.1047811023622049
0
LINE
8
BLACK
6
CONTINUOUS
10
7.2498858661417325
20
-5.1047811023622049
11
7.2675470472440944
21
-5.097256377952756
0
LINE
8
BLACK
6
CONTINUOUS
10
7.2675470472440944
20
-5.097256377952756
11
7.2845455118110234
21
-5.0883349212598423
0
LINE
8
BLACK
6
CONTINUOUS
10
7.2845455118110234
20
-5.0883349212598423
11
7.3007709055118113
21
-5.0780745669291338
0
LINE
8
BLACK
6
CONTINUOUS
10
7.3007709055118113
20
-5.0780745669291338
11
7.3161181102362205
21
-5.0665418897637791
0
LINE
8
BLACK
6
CONTINUOUS
10
7.3161181102362205
20
-5.0665418897637791
11
7.3304875590551175
21
-5.0538116929133858
0
LINE
8
BLACK
6
CONTINUOUS
10
7.3304875590551175
20
-5.0538116929133858
11
7.3437860629921259
21
-5.0399664960629922
0
LINE
8
BLACK
6
CONTINUOUS
10
7.3437860629921259
20
-5.0399664960629922
11
7.3559273622047243
21
-5.0250961023622045
0
LINE
8
BLACK
6
CONTINUOUS
10
7.3559273622047243
20
-5.0250961023622045
11
7.3668327165354333
21
-5.0092969685039366
0
LINE
8
BLACK
6
CONTINUOUS
10
7.3668327165354333
20
-5.0092969685039366
11
7.3764313779527555
21
-4.9926715354330709
0
LINE
8
BLACK
6
CONTINUOUS
10
7.3764313779527555
20
-4.9926715354330709
11
7.3846611811023619
21
-4.9753276771653541
0
LINE
8
BLACK
6
CONTINUOUS
10
7.3846611811023619
20
-4.9753276771653541
11
7.3914686614173224
21
-4.9573778346456692
0
LINE
8
BLACK
6
CONTINUOUS
10
7.3914686614173224
20
-4.9573778346456692
11
7.3968096850393703
21
-4.9389383858267717
0
LINE
8
BLACK
6
CONTINUOUS
10
7.3968096850393703
20
-4.9389383858267717
11
7.400649645669291
21
-4.9201289763779528
0
LINE
8
BLACK
6
CONTINUOUS
10
7.400649645669291
20
-4.9201289763779528
11
7.4029636614173224
21
-4.9010715748031499
0
LINE
8
BLACK
6
CONTINUOUS
10
7.4029636614173224
20
-4.9010715748031499
11
7.4037366535433069
21
-4.8818897637795278
0
LINE
8
BLACK
6
CONTINUOUS
10
7.4037366535433069
20
-4.8818897637795278
11
7.4029636614173224
21
-4.8627079527559056
0
LINE
8
BLACK
6
CONTINUOUS
10
7.4029636614173224
20
-4.8627079527559056
11
7.400649645669291
21
-4.8436505511811019
0
LINE
8
BLACK
6
CONTINUOUS
10
7.400649645669291
20
-4.8436505511811019
11
7.3968096850393703
21
-4.824841141732283
0
LINE
8
BLACK
6
CONTINUOUS
10
7.3968096850393703
20
-4.824841141732283
11
7.3914686614173224
21
-4.8064016929133855
0
LINE
8
BLACK
6
CONTINUOUS
10
7.3914686614173224
20
-4.8064016929133855
11
7.3846611811023619
21
-4.7884518503937006
0
LINE
8
BLACK
6
CONTINUOUS
10
7.3846611811023619
20
-4.7884518503937006
11
7.3764313779527555
21
-4.7711079921259838
0
LINE
8
BLACK
6
CONTINUOUS
10
7.3764313779527555
20
-4.7711079921259838
11
7.3668327165354333
21
-4.7544825590551181
0
LINE
8
BLACK
6
CONTINUOUS
10
7.3668327165354333
20
-4.7544825590551181
11
7.3559273622047243
21
-4.7386834251968502
0
LINE
8
BLACK
6
CONTINUOUS
10
7.3559273622047243
20
-4.7386834251968502
11
7.3437860629921259
21
-4.7238130314960625
0
LINE
8
BLACK
6
CONTINUOUS
10
7.3437860629921259
20
-4.7238130314960625
11
7.3304875590551175
21
-4.7099678346456688
0
LINE
8
BLACK
6
CONTINUOUS
10
7.3304875590551175
20
-4.7099678346456688
11
7.3161181102362205
21
-4.6972376377952756
0
LINE
8
BLACK
6
CONTINUOUS
10
7.3161181102362205
20
-4.6972376377952756
11
7.3007709055118113
21
-4.6857049606299208
0
LINE
8
BLACK
6
CONTINUOUS
10
7.3007709055118113
20
-4.6857049606299208
11
7.2845455118110234
21
-4.6754446062992123
0
LINE
8
BLACK
6
CONTINUOUS
10
7.2845455118110234
20
-4.6754446062992123
11
7.2675470472440944
21
-4.6665231496062995
0
LINE
8
BLACK
6
CONTINUOUS
10
7.2675470472440944
20
-4.6665231496062995
11
7.2498858661417325
21
-4.6589984251968506
0
LINE
8
BLACK
6
CONTINUOUS
10
7.2498858661417325
20
-4.6589984251968506
11
7.231676456692913
21
-4.6529192125984249
0
LINE
8
BLACK
6
CONTINUOUS
10
7.231676456692913
20
-4.6529192125984249
11
7.2130369291338585
21
-4.6483249999999998
0
LINE
8
BLACK
6
CONTINUOUS
10
7.2130369291338585
20
-4.6483249999999998
11
7.1940881496062987
21
-4.6452455118110239
0
LINE
8
BLACK
6
CONTINUOUS
10
7.1940881496062987
20
-4.6452455118110239
11
7.174953031496063
21
-4.643700787401575
0
LINE
8
BLACK
6
CONTINUOUS
10
7.174953031496063
20
-4.643700787401575
11
7.1557556299212592
21
-4.643700787401575
0
LINE
8
BLACK
6
CONTINUOUS
10
7.1557556299212592
20
-4.643700787401575
11
7.1366205118110235
21
-4.6452455118110239
0
LINE
8
BLACK
6
CONTINUOUS
10
7.1366205118110235
20
-4.6452455118110239
11
7.1176717322834646
21
-4.6483249999999998
0
LINE
8
BLACK
6
CONTINUOUS
10
7.1176717322834646
20
-4.6483249999999998
11
7.0990322047244092
21
-4.6529192125984249
0
LINE
8
BLACK
6
CONTINUOUS
10
7.0990322047244092
20
-4.6529192125984249
11
7.0808227952755907
21
-4.6589984251968506
0
LINE
8
BLACK
6
CONTINUOUS
10
7.0808227952755907
20
-4.6589984251968506
11
7.0631616141732279
21
-4.6665231496062995
0
LINE
8
BLACK
6
CONTINUOUS
10
7.0631616141732279
20
-4.6665231496062995
11
7.0461631889763776
21
-4.6754446062992123
0
LINE
8
BLACK
6
CONTINUOUS
10
7.0461631889763776
20
-4.6754446062992123
11
7.0299377559055118
21
-4.6857049606299208
0
LINE
8
BLACK
6
CONTINUOUS
10
7.0299377559055118
20
-4.6857049606299208
11
7.0145905511811026
21
-4.6972376377952756
0
LINE
8
BLACK
6
CONTINUOUS
10
7.0145905511811026
20
-4.6972376377952756
11
7.0002211023622047
21
-4.7099678346456688
0
LINE
8
BLACK
6
CONTINUOUS
10
7.0002211023622047
20
-4.7099678346456688
11
6.9869225984251964
21
-4.7238130314960625
0
LINE
8
BLACK
6
CONTINUOUS
10
6.9869225984251964
20
-4.7238130314960625
11
6.9747812992125979
21
-4.7386834251968502
0
LINE
8
BLACK
6
CONTINUOUS
10
6.9747812992125979
20
-4.7386834251968502
11
6.9638759448818899
21
-4.7544825590551181
0
LINE
8
BLACK
6
CONTINUOUS
10
6.9638759448818899
20
-4.7544825590551181
11
6.9542772834645668
21
-4.7711079921259838
0
LINE
8
BLACK
6
CONTINUOUS
10
6.9542772834645668
20
-4.7711079921259838
11
6.9460474803149603
21
-4.7884518503937006
0
LINE
8
BLACK
6
CONTINUOUS
10
6.9460474803149603
20
-4.7884518503937006
11
6.9392399999999999
21
-4.8064016929133855
0
LINE
8
BLACK
6
CONTINUOUS
10
6.9392399999999999
20
-4.8064016929133855
11
6.9338989763779528
21
-4.824841141732283
0
LINE
8
BLACK
6
CONTINUOUS
10
6.9338989763779528
20
-4.824841141732283
11
6.9300590157480313
21
-4.8436505511811019
0
LINE
8
BLACK
6
CONTINUOUS
10
6.9300590157480313
20
-4.8436505511811019
11
6.9277449999999998
21
-4.8627079527559056
0
LINE
8
BLACK
6
CONTINUOUS
10
6.9277449999999998
20
-4.8627079527559056
11
6.9269720078740153
21
-4.8818897637795278
0
LINE
8
BLACK
6
CONTINUOUS
10
6.9269720078740153
20
-4.8818897637795278
11
6.9277449999999998
21
-4.9010715748031499
0
LINE
8
BLACK
6
CONTINUOUS
10
1.2890275984251969
20
-2.5942850393700785
11
1.308273937007874
21
-2.5974128740157481
0
LINE
8
BLACK
6
CONTINUOUS
10
1.308273937007874
20
-2.5974128740157481
11
1.3272061811023621
21
-2.6020792913385824
0
LINE
8
BLACK
6
CONTINUOUS
10
1.3272061811023621
20
-2.6020792913385824
11
1.3457015748031496
21
-2.6082539370078739
0
LINE
8
BLACK
6
CONTINUOUS
10
1.3457015748031496
20
-2.6082539370078739
11
1.3636401181102362
21
-2.6158968503937006
0
LINE
8
BLACK
6
CONTINUOUS
10
1.3636401181102362
20
-2.6158968503937006
11
1.3809055118110236
21
-2.6249584251968505
0
LINE
8
BLACK
6
CONTINUOUS
10
1.3809055118110236
20
-2.6249584251968505
11
1.397385748031496
21
-2.6353798818897638
0
LINE
8
BLACK
6
CONTINUOUS
10
1.397385748031496
20
-2.6353798818897638
11
1.4129739763779527
21
-2.6470936614173226
0
LINE
8
BLACK
6
CONTINUOUS
10
1.4129739763779527
20
-2.6470936614173226
11
1.4275690944881889
21
-2.6600238188976379
0
LINE
8
BLACK
6
CONTINUOUS
10
1.4275690944881889
20
-2.6600238188976379
11
1.4410764173228345
21
-2.6740864566929132
0
LINE
8
BLACK
6
CONTINUOUS
10
1.4410764173228345
20
-2.6740864566929132
11
1.4534083858267717
21
-2.6891903543307087
0
LINE
8
BLACK
6
CONTINUOUS
10
1.4534083858267717
20
-2.6891903543307087
11
1.464485
21
-2.7052375984251968
0
LINE
8
BLACK
6
CONTINUOUS
10
1.464485
20
-2.7052375984251968
11
1.4742344488188976
21
-2.7221240944881888
0
LINE
8
BLACK
6
CONTINUOUS
10
1.4742344488188976
20
-2.7221240944881888
11
1.4825934645669292
21
-2.7397403543307086
0
LINE
8
BLACK
6
CONTINUOUS
10
1.4825934645669292
20
-2.7397403543307086
11
1.4895078346456692
21
-2.757972125984252
0
LINE
8
BLACK
6
CONTINUOUS
10
1.4895078346456692
20
-2.757972125984252
11
1.4949327559055117
21
-2.7767011417322833
0
LINE
8
BLACK
6
CONTINUOUS
10
1.4949327559055117
20
-2.7767011417322833
11
1.498833031496063
21
-2.7958059448818897
0
LINE
8
BLACK
6
CONTINUOUS
10
1.498833031496063
20
-2.7958059448818897
11
1.5011833464566928
21
-2.8151626377952756
0
LINE
8
BLACK
6
CONTINUOUS
10
1.5011833464566928
20
-2.8151626377952756
11
1.5019685039370079
21
-2.8346456692913384
0
LINE
8
BLACK
6
CONTINUOUS
10
1.5019685039370079
20
-2.8346456692913384
11
1.5011833464566928
21
-2.8541287007874017
0
LINE
8
BLACK
6
CONTINUOUS
10
1.5011833464566928
20
-2.8541287007874017
11
1.498833031496063
21
-2.8734853937007871
0
LINE
8
BLACK
6
CONTINUOUS
10
1.498833031496063
20
-2.8734853937007871
11
1.4949327559055117
21
-2.8925901968503935
0
LINE
8
BLACK
6
CONTINUOUS
10
1.4949327559055117
20
-2.8925901968503935
11
1.4895078346456692
21
-2.9113192125984253
0
LINE
8
BLACK
6
CONTINUOUS
10
1.4895078346456692
20
-2.9113192125984253
11
1.4825934645669292
21
-2.9295509842519682
0
LINE
8
BLACK
6
CONTINUOUS
10
1.4825934645669292
20
-2.9295509842519682
11
1.4742344488188976
21
-2.947167244094488
0
LINE
8
BLACK
6
CONTINUOUS
10
1.4742344488188976
20
-2.947167244094488
11
1.464485
21
-2.9640537401574805
0
LINE
8
BLACK
6
CONTINUOUS
10
1.464485
20
-2.9640537401574805
11
1.4534083858267717
21
-2.9801009842519686
0
LINE
8
BLACK
6
CONTINUOUS
10
1.4534083858267717
20
-2.9801009842519686
11
1.4410764173228345
21
-2.9952048818897636
0
LINE
8
BLACK
6
CONTINUOUS
10
1.4410764173228345
20
-2.9952048818897636
11
1.4275690944881889
21
-3.0092675196850394
0
LINE
8
BLACK
6
CONTINUOUS
10
1.4275690944881889
20
-3.0092675196850394
11
1.4129739763779527
21
-3.0221976771653543
0
LINE
8
BLACK
6
CONTINUOUS
10
1.4129739763779527
20
-3.0221976771653543
11
1.397385748031496
21
-3.0339114566929135
0
LINE
8
BLACK
6
CONTINUOUS
10
1.397385748031496
20
-3.0339114566929135
11
1.3809055118110236
21
-3.0443329133858268
0
LINE
8
BLACK
6
CONTINUOUS
10
1.3809055118110236
20
-3.0443329133858268
11
1.3636401181102362
21
-3.0533944881889763
0
LINE
8
BLACK
6
CONTINUOUS
10
1.3636401181102362
20
-3.0533944881889763
11
1.3457015748031496
21
-3.061037401574803
0
LINE
8
BLACK
6
CONTINUOUS
10
1.3457015748031496
20
-3.061037401574803
11
1.3272061811023621
21
-3.0672120472440945
0
LINE
8
BLACK
6
CONTINUOUS
10
1.3272061811023621
20
-3.0672120472440945
11
1.308273937007874
21
-3.0718784645669293
0
LINE
8
BLACK
6
CONTINUOUS
10
1.308273937007874
20
-3.0718784645669293
11
1.2890275984251969
21
-3.0750062992125984
0
LINE
8
BLACK
6
CONTINUOUS
10
1.2890275984251969
20
-3.0750062992125984
11
1.269591968503937
21
-3.0765752755905513
0
LINE
8
BLACK
6
CONTINUOUS
10
1.269591968503937
20
-3.0765752755905513
11
1.2500930708661417
21
-3.0765752755905513
0
LINE
8
BLACK
6
CONTINUOUS
10
1.2500930708661417
20
-3.0765752755905513
11
1.2306574409448818
21
-3.0750062992125984
0
LINE
8
BLACK
6
CONTINUOUS
10
1.2306574409448818
20
-3.0750062992125984
11
1.2114111023622047
21
-3.0718784645669293
0
LINE
8
BLACK
6
CONTINUOUS
10
1.2114111023622047
20
-3.0718784645669293
11
1.1924788582677166
21
-3.0672120472440945
0
LINE
8
BLACK
6
CONTINUOUS
10
1.1924788582677166
20
-3.0672120472440945
11
1.1739834645669291
21
-3.061037401574803
0
LINE
8
BLACK
6
CONTINUOUS
10
1.1739834645669291
20
-3.061037401574803
11
1.1560449212598425
21
-3.0533944881889763
0
LINE
8
BLACK
6
CONTINUOUS
10
1.1560449212598425
20
-3.0533944881889763
11
1.1387795275590551
21
-3.0443329133858268
0
LINE
8
BLACK
6
CONTINUOUS
10
1.1387795275590551
20
-3.0443329133858268
11
1.1222992913385827
21
-3.0339114566929135
0
LINE
8
BLACK
6
CONTINUOUS
10
1.1222992913385827
20
-3.0339114566929135
11
1.106711062992126
21
-3.0221976771653543
0
LINE
8
BLACK
6
CONTINUOUS
10
1.106711062992126
20
-3.0221976771653543
11
1.0921159448818898
21
-3.0092675196850394
0
LINE
8
BLACK
6
CONTINUOUS
10
1.0921159448818898
20
-3.0092675196850394
11
1.0786086220472442
21
-2.9952048818897636
0
LINE
8
BLACK
6
CONTINUOUS
10
1.0786086220472442
20
-2.9952048818897636
11
1.066276653543307
21
-2.9801009842519686
0
LINE
8
BLACK
6
CONTINUOUS
10
1.066276653543307
20
-2.9801009842519686
11
1.0552000393700787
21
-2.9640537401574805
0
LINE
8
BLACK
6
CONTINUOUS
10
1.0552000393700787
20
-2.9640537401574805
11
1.0454505905511811
21
-2.947167244094488
0
LINE
8
BLACK
6
CONTINUOUS
10
1.0454505905511811
20
-2.947167244094488
11
1.0370915748031495
21
-2.9295509842519682
0
LINE
8
BLACK
6
CONTINUOUS
10
1.0370915748031495
20
-2.9295509842519682
11
1.0301772047244093
21
-2.9113192125984253
0
LINE
8
BLACK
6
CONTINUOUS
10
1.0301772047244093
20
-2.9113192125984253
11
1.0247522834645668
21
-2.8925901968503935
0
LINE
8
BLACK
6
CONTINUOUS
10
1.0247522834645668
20
-2.8925901968503935
11
1.0208520078740158
21
-2.8734853937007871
0
LINE
8
BLACK
6
CONTINUOUS
10
1.0208520078740158
20
-2.8734853937007871
11
1.0185016929133859
21
-2.8541287007874017
0
LINE
8
BLACK
6
CONTINUOUS
10
1.0185016929133859
20
-2.8541287007874017
11
1.0177165354330708
21
-2.8346456692913384
0
LINE
8
BLACK
6
CONTINUOUS
10
1.0177165354330708
20
-2.8346456692913384
11
1.0185016929133859
21
-2.8151626377952756
0
LINE
8
BLACK
6
CONTINUOUS
10
1.0185016929133859
20
-2.8151626377952756
11
1.0208520078740158
21
-2.7958059448818897
0
LINE
8
BLACK
6
CONTINUOUS
10
1.0208520078740158
20
-2.7958059448818897
11
1.0247522834645668
21
-2.7767011417322833
0
LINE
8
BLACK
6
CONTINUOUS
10
1.0247522834645668
20
-2.7767011417322833
11
1.0301772047244093
21
-2.757972125984252
0
LINE
8
BLACK
6
CONTINUOUS
10
1.0301772047244093
20
-2.757972125984252
11
1.0370915748031495
21
-2.7397403543307086
0
LINE
8
BLACK
6
CONTINUOUS
10
1.0370915748031495
20
-2.7397403543307086
11
1.0454505905511811
21
-2.7221240944881888
0
LINE
8
BLACK
6
CONTINUOUS
10
1.0454505905511811
20
-2.7221240944881888
11
1.0552000393700787
21
-2.7052375984251968
0
LINE
8
BLACK
6
CONTINUOUS
10
1.0552000393700787
20
-2.7052375984251968
11
1.066276653543307
21
-2.6891903543307087
0
LINE
8
BLACK
6
CONTINUOUS
10
1.066276653543307
20
-2.6891903543307087
11
1.0786086220472442
21
-2.6740864566929132
0
LINE
8
BLACK
6
CONTINUOUS
10
1.0786086220472442
20
-2.6740864566929132
11
1.0921159448818898
21
-2.6600238188976379
0
LINE
8
BLACK
6
CONTINUOUS
10
1.0921159448818898
20
-2.6600238188976379
11
1.106711062992126
21
-2.6470936614173226
0
LINE
8
BLACK
6
CONTINUOUS
10
1.106711062992126
20
-2.6470936614173226
11
1.1222992913385827
21
-2.6353798818897638
0
LINE
8
BLACK
6
CONTINUOUS
10
1.1222992913385827
20
-2.6353798818897638
11
1.1387795275590551
21
-2.6249584251968505
0
LINE
8
BLACK
6
CONTINUOUS
10
1.1387795275590551
20
-2.6249584251968505
11
1.1560449212598425
21
-2.6158968503937006
0
LINE
8
BLACK
6
CONTINUOUS
10
1.1560449212598425
20
-2.6158968503937006
11
1.1739834645669291
21
-2.6082539370078739
0
LINE
8
BLACK
6
CONTINUOUS
10
1.1739834645669291
20
-2.6082539370078739
11
1.1924788582677166
21
-2.6020792913385824
0
LINE
8
BLACK
6
CONTINUOUS
10
1.1924788582677166
20
-2.6020792913385824
11
1.2114111023622047
21
-2.5974128740157481
0
LINE
8
BLACK
6
CONTINUOUS
10
1.2114111023622047
20
-2.5974128740157481
11
1.2306574409448818
21
-2.5942850393700785
0
LINE
8
BLACK
6
CONTINUOUS
10
1.2306574409448818
20
-2.5942850393700785
11
1.2500930708661417
21
-2.592716062992126
0
LINE
8
BLACK
6
CONTINUOUS
10
1.2500930708661417
20
-2.592716062992126
11
1.269591968503937
21
-2.592716062992126
0
LINE
8
BLACK
6
CONTINUOUS
10
1.269591968503937
20
-2.592716062992126
11
1.2890275984251969
21
-2.5942850393700785
0
LINE
8
BLACK
6
CONTINUOUS
10
1.0222331889763778
20
-2.8538274803149606
11
1.0245472047244095
21
-2.8728848818897639
0
LINE
8
BLACK
6
CONTINUOUS
10
1.0245472047244095
20
-2.8728848818897639
11
1.0283871653543306
21
-2.8916942913385828
0
LINE
8
BLACK
6
CONTINUOUS
10
1.0283871653543306
20
-2.8916942913385828
11
1.0337281889763779
21
-2.9101337401574803
0
LINE
8
BLACK
6
CONTINUOUS
10
1.0337281889763779
20
-2.9101337401574803
11
1.0405356692913386
21
-2.9280835826771652
0
LINE
8
BLACK
6
CONTINUOUS
10
1.0405356692913386
20
-2.9280835826771652
11
1.0487654724409448
21
-2.945427440944882
0
LINE
8
BLACK
6
CONTINUOUS
10
1.0487654724409448
20
-2.945427440944882
11
1.0583641338582677
21
-2.9620528740157481
0
LINE
8
BLACK
6
CONTINUOUS
10
1.0583641338582677
20
-2.9620528740157481
11
1.0692694881889764
21
-2.9778520078740156
0
LINE
8
BLACK
6
CONTINUOUS
10
1.0692694881889764
20
-2.9778520078740156
11
1.0814107874015748
21
-2.9927224015748033
0
LINE
8
BLACK
6
CONTINUOUS
10
1.0814107874015748
20
-2.9927224015748033
11
1.0947092913385827
21
-3.0065675984251969
0
LINE
8
BLACK
6
CONTINUOUS
10
1.0947092913385827
20
-3.0065675984251969
11
1.1090787401574802
21
-3.0192977952755906
0
LINE
8
BLACK
6
CONTINUOUS
10
1.1090787401574802
20
-3.0192977952755906
11
1.1244259448818896
21
-3.0308304724409449
0
LINE
8
BLACK
6
CONTINUOUS
10
1.1244259448818896
20
-3.0308304724409449
11
1.1406513385826771
21
-3.0410908267716534
0
LINE
8
BLACK
6
CONTINUOUS
10
1.1406513385826771
20
-3.0410908267716534
11
1.1576498031496063
21
-3.0500122834645667
0
LINE
8
BLACK
6
CONTINUOUS
10
1.1576498031496063
20
-3.0500122834645667
11
1.1753109842519684
21
-3.0575370078740156
0
LINE
8
BLACK
6
CONTINUOUS
10
1.1753109842519684
20
-3.0575370078740156
11
1.1935203937007874
21
-3.0636162204724409
0
LINE
8
BLACK
6
CONTINUOUS
10
1.1935203937007874
20
-3.0636162204724409
11
1.2121599212598424
21
-3.0682104330708659
0
LINE
8
BLACK
6
CONTINUOUS
10
1.2121599212598424
20
-3.0682104330708659
11
1.2311087007874015
21
-3.0712899212598423
0
LINE
8
BLACK
6
CONTINUOUS
10
1.2311087007874015
20
-3.0712899212598423
11
1.2502438188976377
21
-3.0728346456692912
0
LINE
8
BLACK
6
CONTINUOUS
10
1.2502438188976377
20
-3.0728346456692912
11
1.269441220472441
21
-3.0728346456692912
0
LINE
8
BLACK
6
CONTINUOUS
10
1.269441220472441
20
-3.0728346456692912
11
1.2885763385826772
21
-3.0712899212598423
0
LINE
8
BLACK
6
CONTINUOUS
10
1.2885763385826772
20
-3.0712899212598423
11
1.3075251181102361
21
-3.0682104330708659
0
LINE
8
BLACK
6
CONTINUOUS
10
1.3075251181102361
20
-3.0682104330708659
11
1.3261646456692913
21
-3.0636162204724409
0
LINE
8
BLACK
6
CONTINUOUS
10
1.3261646456692913
20
-3.0636162204724409
11
1.3443740551181103
21
-3.0575370078740156
0
LINE
8
BLACK
6
CONTINUOUS
10
1.3443740551181103
20
-3.0575370078740156
11
1.3620352362204724
21
-3.0500122834645667
0
LINE
8
BLACK
6
CONTINUOUS
10
1.3620352362204724
20
-3.0500122834645667
11
1.3790337007874016
21
-3.0410908267716534
0
LINE
8
BLACK
6
CONTINUOUS
10
1.3790337007874016
20
-3.0410908267716534
11
1.3952590944881889
21
-3.0308304724409449
0
LINE
8
BLACK
6
CONTINUOUS
10
1.3952590944881889
20
-3.0308304724409449
11
1.4106062992125985
21
-3.0192977952755906
0
LINE
8
BLACK
6
CONTINUOUS
10
1.4106062992125985
20
-3.0192977952755906
11
1.424975748031496
21
-3.0065675984251969
0
LINE
8
BLACK
6
CONTINUOUS
10
1.424975748031496
20
-3.0065675984251969
11
1.4382742519685039
21
-2.9927224015748033
0
LINE
8
BLACK
6
CONTINUOUS
10
1.4382742519685039
20
-2.9927224015748033
11
1.4504155511811023
21
-2.9778520078740156
0
LINE
8
BLACK
6
CONTINUOUS
10
1.4504155511811023
20
-2.9778520078740156
11
1.461320905511811
21
-2.9620528740157481
0
LINE
8
BLACK
6
CONTINUOUS
10
1.461320905511811
20
-2.9620528740157481
11
1.4709195669291337
21
-2.945427440944882
0
LINE
8
BLACK
6
CONTINUOUS
10
1.4709195669291337
20
-2.945427440944882
11
1.4791493700787401
21
-2.9280835826771652
0
LINE
8
BLACK
6
CONTINUOUS
10
1.4791493700787401
20
-2.9280835826771652
11
1.4859568503937008
21
-2.9101337401574803
0
LINE
8
BLACK
6
CONTINUOUS
10
1.4859568503937008
20
-2.9101337401574803
11
1.4912978740157481
21
-2.8916942913385828
0
LINE
8
BLACK
6
CONTINUOUS
10
1.4912978740157481
20
-2.8916942913385828
11
1.4951378346456692
21
-2.8728848818897639
0
LINE
8
BLACK
6
CONTINUOUS
10
1.4951378346456692
20
-2.8728848818897639
11
1.4974518503937007
21
-2.8538274803149606
0
LINE
8
BLACK
6
CONTINUOUS
10
1.4974518503937007
20
-2.8538274803149606
11
1.4982248425196849
21
-2.8346456692913384
0
LINE
8
BLACK
6
CONTINUOUS
10
1.4982248425196849
20
-2.8346456692913384
11
1.4974518503937007
21
-2.8154638582677163
0
LINE
8
BLACK
6
CONTINUOUS
10
1.4974518503937007
20
-2.8154638582677163
11
1.4951378346456692
21
-2.7964064566929134
0
LINE
8
BLACK
6
CONTINUOUS
10
1.4951378346456692
20
-2.7964064566929134
11
1.4912978740157481
21
-2.7775970472440945
0
LINE
8
BLACK
6
CONTINUOUS
10
1.4912978740157481
20
-2.7775970472440945
11
1.4859568503937008
21
-2.7591575984251966
0
LINE
8
BLACK
6
CONTINUOUS
10
1.4859568503937008
20
-2.7591575984251966
11
1.4791493700787401
21
-2.7412077559055117
0
LINE
8
BLACK
6
CONTINUOUS
10
1.4791493700787401
20
-2.7412077559055117
11
1.4709195669291337
21
-2.7238638976377954
0
LINE
8
BLACK
6
CONTINUOUS
10
1.4709195669291337
20
-2.7238638976377954
11
1.461320905511811
21
-2.7072384645669292
0
LINE
8
BLACK
6
CONTINUOUS
10
1.461320905511811
20
-2.7072384645669292
11
1.4504155511811023
21
-2.6914393307086613
0
LINE
8
BLACK
6
CONTINUOUS
10
1.4504155511811023
20
-2.6914393307086613
11
1.4382742519685039
21
-2.676568937007874
0
LINE
8
BLACK
6
CONTINUOUS
10
1.4382742519685039
20
-2.676568937007874
11
1.424975748031496
21
-2.6627237401574804
0
LINE
8
BLACK
6
CONTINUOUS
10
1.424975748031496
20
-2.6627237401574804
11
1.4106062992125985
21
-2.6499935433070867
0
LINE
8
BLACK
6
CONTINUOUS
10
1.4106062992125985
20
-2.6499935433070867
11
1.3952590944881889
21
-2.6384608661417324
0
LINE
8
BLACK
6
CONTINUOUS
10
1.3952590944881889
20
-2.6384608661417324
11
1.3790337007874016
21
-2.6282005118110234
0
LINE
8
BLACK
6
CONTINUOUS
10
1.3790337007874016
20
-2.6282005118110234
11
1.3620352362204724
21
-2.6192790551181102
0
LINE
8
BLACK
6
CONTINUOUS
10
1.3620352362204724
20
-2.6192790551181102
11
1.3443740551181103
21
-2.6117543307086613
0
LINE
8
BLACK
6
CONTINUOUS
10
1.3443740551181103
20
-2.6117543307086613
11
1.3261646456692913
21
-2.605675118110236
0
LINE
8
BLACK
6
CONTINUOUS
10
1.3261646456692913
20
-2.605675118110236
11
1.3075251181102361
21
-2.6010809055118109
0
LINE
8
BLACK
6
CONTINUOUS
10
1.3075251181102361
20
-2.6010809055118109
11
1.2885763385826772
21
-2.5980014173228345
0
LINE
8
BLACK
6
CONTINUOUS
10
1.2885763385826772
20
-2.5980014173228345
11
1.269441220472441
21
-2.5964566929133857
0
LINE
8
BLACK
6
CONTINUOUS
10
1.269441220472441
20
-2.5964566929133857
11
1.2502438188976377
21
-2.5964566929133857
0
LINE
8
BLACK
6
CONTINUOUS
10
1.2502438188976377
20
-2.5964566929133857
11
1.2311087007874015
21
-2.5980014173228345
0
LINE
8
BLACK
6
CONTINUOUS
10
1.2311087007874015
20
-2.5980014173228345
11
1.2121599212598424
21
-2.6010809055118109
0
LINE
8
BLACK
6
CONTINUOUS
10
1.2121599212598424
20
-2.6010809055118109
11
1.1935203937007874
21
-2.605675118110236
0
LINE
8
BLACK
6
CONTINUOUS
10
1.1935203937007874
20
-2.605675118110236
11
1.1753109842519684
21
-2.6117543307086613
0
LINE
8
BLACK
6
CONTINUOUS
10
1.1753109842519684
20
-2.6117543307086613
11
1.1576498031496063
21
-2.6192790551181102
0
LINE
8
BLACK
6
CONTINUOUS
10
1.1576498031496063
20
-2.6192790551181102
11
1.1406513779527558
21
-2.6282005118110234
0
LINE
8
BLACK
6
CONTINUOUS
10
1.1406513779527558
20
-2.6282005118110234
11
1.1244259448818896
21
-2.6384608661417324
0
LINE
8
BLACK
6
CONTINUOUS
10
1.1244259448818896
20
-2.6384608661417324
11
1.1090787401574802
21
-2.6499935433070867
0
LINE
8
BLACK
6
CONTINUOUS
10
1.1090787401574802
20
-2.6499935433070867
11
1.0947092913385827
21
-2.6627237401574804
0
LINE
8
BLACK
6
CONTINUOUS
10
1.0947092913385827
20
-2.6627237401574804
11
1.0814107874015748
21
-2.676568937007874
0
LINE
8
BLACK
6
CONTINUOUS
10
1.0814107874015748
20
-2.676568937007874
11
1.0692694881889764
21
-2.6914393307086613
0
LINE
8
BLACK
6
CONTINUOUS
10
1.0692694881889764
20
-2.6914393307086613
11
1.0583641338582677
21
-2.7072384645669292
0
LINE
8
BLACK
6
CONTINUOUS
10
1.0583641338582677
20
-2.7072384645669292
11
1.0487654724409448
21
-2.7238638976377954
0
LINE
8
BLACK
6
CONTINUOUS
10
1.0487654724409448
20
-2.7238638976377954
11
1.0405356692913386
21
-2.7412077559055117
0
LINE
8
BLACK
6
CONTINUOUS
10
1.0405356692913386
20
-2.7412077559055117
11
1.0337281889763779
21
-2.7591575984251966
0
LINE
8
BLACK
6
CONTINUOUS
10
1.0337281889763779
20
-2.7591575984251966
11
1.0283871653543306
21
-2.7775970472440945
0
LINE
8
BLACK
6
CONTINUOUS
10
1.0283871653543306
20
-2.7775970472440945
11
1.0245472047244095
21
-2.7964064566929134
0
LINE
8
BLACK
6
CONTINUOUS
10
1.0245472047244095
20
-2.7964064566929134
11
1.0222331889763778
21
-2.8154638582677163
0
LINE
8
BLACK
6
CONTINUOUS
10
1.0222331889763778
20
-2.8154638582677163
11
1.0214601968503936
21
-2.8346456692913384
0
LINE
8
BLACK
6
CONTINUOUS
10
1.0214601968503936
20
-2.8346456692913384
11
1.0222331889763778
21
-2.8538274803149606
0
LINE
8
BLACK
6
CONTINUOUS
10
4.2417835039370075
20
-2.5942850393700785
11
4.2610298425196849
21
-2.5974128740157481
0
LINE
8
BLACK
6
CONTINUOUS
10
4.2610298425196849
20
-2.5974128740157481
11
4.279962086614173
21
-2.6020792913385824
0
LINE
8
BLACK
6
CONTINUOUS
10
4.279962086614173
20
-2.6020792913385824
11
4.2984574803149602
21
-2.6082539370078739
0
LINE
8
BLACK
6
CONTINUOUS
10
4.2984574803149602
20
-2.6082539370078739
11
4.3163960236220476
21
-2.6158968503937006
0
LINE
8
BLACK
6
CONTINUOUS
10
4.3163960236220476
20
-2.6158968503937006
11
4.3336614173228343
21
-2.6249584251968505
0
LINE
8
BLACK
6
CONTINUOUS
10
4.3336614173228343
20
-2.6249584251968505
11
4.3501416535433073
21
-2.6353798818897638
0
LINE
8
BLACK
6
CONTINUOUS
10
4.3501416535433073
20
-2.6353798818897638
11
4.3657298818897639
21
-2.6470936614173226
0
LINE
8
BLACK
6
CONTINUOUS
10
4.3657298818897639
20
-2.6470936614173226
11
4.380325
21
-2.6600238188976379
0
LINE
8
BLACK
6
CONTINUOUS
10
4.380325
20
-2.6600238188976379
11
4.3938323228346459
21
-2.6740864566929132
0
LINE
8
BLACK
6
CONTINUOUS
10
4.3938323228346459
20
-2.6740864566929132
11
4.406164291338583
21
-2.6891903543307087
0
LINE
8
BLACK
6
CONTINUOUS
10
4.406164291338583
20
-2.6891903543307087
11
4.4172409055118109
21
-2.7052375984251968
0
LINE
8
BLACK
6
CONTINUOUS
10
4.4172409055118109
20
-2.7052375984251968
11
4.4269903543307088
21
-2.7221240944881888
0
LINE
8
BLACK
6
CONTINUOUS
10
4.4269903543307088
20
-2.7221240944881888
11
4.4353493700787396
21
-2.7397403543307086
0
LINE
8
BLACK
6
CONTINUOUS
10
4.4353493700787396
20
-2.7397403543307086
11
4.4422637401574798
21
-2.757972125984252
0
LINE
8
BLACK
6
CONTINUOUS
10
4.4422637401574798
20
-2.757972125984252
11
4.447688661417323
21
-2.7767011417322833
0
LINE
8
BLACK
6
CONTINUOUS
10
4.447688661417323
20
-2.7767011417322833
11
4.4515889370078741
21
-2.7958059448818897
0
LINE
8
BLACK
6
CONTINUOUS
10
4.4515889370078741
20
-2.7958059448818897
11
4.4539392519685039
21
-2.8151626377952756
0
LINE
8
BLACK
6
CONTINUOUS
10
4.4539392519685039
20
-2.8151626377952756
11
4.4547244094488185
21
-2.8346456692913384
0
LINE
8
BLACK
6
CONTINUOUS
10
4.4547244094488185
20
-2.8346456692913384
11
4.4539392519685039
21
-2.8541287007874017
0
LINE
8
BLACK
6
CONTINUOUS
10
4.4539392519685039
20
-2.8541287007874017
11
4.4515889370078741
21
-2.8734853937007871
0
LINE
8
BLACK
6
CONTINUOUS
10
4.4515889370078741
20
-2.8734853937007871
11
4.447688661417323
21
-2.8925901968503935
0
LINE
8
BLACK
6
CONTINUOUS
10
4.447688661417323
20
-2.8925901968503935
11
4.4422637401574798
21
-2.9113192125984253
0
LINE
8
BLACK
6
CONTINUOUS
10
4.4422637401574798
20
-2.9113192125984253
11
4.4353493700787396
21
-2.9295509842519682
0
LINE
8
BLACK
6
CONTINUOUS
10
4.4353493700787396
20
-2.9295509842519682
11
4.4269903543307088
21
-2.947167244094488
0
LINE
8
BLACK
6
CONTINUOUS
10
4.4269903543307088
20
-2.947167244094488
11
4.4172409055118109
21
-2.9640537401574805
0
LINE
8
BLACK
6
CONTINUOUS
10
4.4172409055118109
20
-2.9640537401574805
11
4.406164291338583
21
-2.9801009842519686
0
LINE
8
BLACK
6
CONTINUOUS
10
4.406164291338583
20
-2.9801009842519686
11
4.3938323228346459
21
-2.9952048818897636
0
LINE
8
BLACK
6
CONTINUOUS
10
4.3938323228346459
20
-2.9952048818897636
11
4.380325
21
-3.0092675196850394
0
LINE
8
BLACK
6
CONTINUOUS
10
4.380325
20
-3.0092675196850394
11
4.3657298818897639
21
-3.0221976771653543
0
LINE
8
BLACK
6
CONTINUOUS
10
4.3657298818897639
20
-3.0221976771653543
11
4.3501416535433073
21
-3.0339114566929135
0
LINE
8
BLACK
6
CONTINUOUS
10
4.3501416535433073
20
-3.0339114566929135
11
4.3336614173228343
21
-3.0443329133858268
0
LINE
8
BLACK
6
CONTINUOUS
10
4.3336614173228343
20
-3.0443329133858268
11
4.3163960236220476
21
-3.0533944881889763
0
LINE
8
BLACK
6
CONTINUOUS
10
4.3163960236220476
20
-3.0533944881889763
11
4.2984574803149602
21
-3.061037401574803
0
LINE
8
BLACK
6
CONTINUOUS
10
4.2984574803149602
20
-3.061037401574803
11
4.279962086614173
21
-3.0672120472440945
0
LINE
8
BLACK
6
CONTINUOUS
10
4.279962086614173
20
-3.0672120472440945
11
4.2610298425196849
21
-3.0718784645669293
0
LINE
8
BLACK
6
CONTINUOUS
10
4.2610298425196849
20
-3.0718784645669293
11
4.2417835039370075
21
-3.0750062992125984
0
LINE
8
BLACK
6
CONTINUOUS
10
4.2417835039370075
20
-3.0750062992125984
11
4.2223478740157478
21
-3.0765752755905513
0
LINE
8
BLACK
6
CONTINUOUS
10
4.2223478740157478
20
-3.0765752755905513
11
4.2028489763779531
21
-3.0765752755905513
0
LINE
8
BLACK
6
CONTINUOUS
10
4.2028489763779531
20
-3.0765752755905513
11
4.1834133464566925
21
-3.0750062992125984
0
LINE
8
BLACK
6
CONTINUOUS
10
4.1834133464566925
20
-3.0750062992125984
11
4.1641670078740161
21
-3.0718784645669293
0
LINE
8
BLACK
6
CONTINUOUS
10
4.1641670078740161
20
-3.0718784645669293
11
4.145234763779527
21
-3.0672120472440945
0
LINE
8
BLACK
6
CONTINUOUS
10
4.145234763779527
20
-3.0672120472440945
11
4.1267393700787398
21
-3.061037401574803
0
LINE
8
BLACK
6
CONTINUOUS
10
4.1267393700787398
20
-3.061037401574803
11
4.1088008267716534
21
-3.0533944881889763
0
LINE
8
BLACK
6
CONTINUOUS
10
4.1088008267716534
20
-3.0533944881889763
11
4.0915354330708658
21
-3.0443329133858268
0
LINE
8
BLACK
6
CONTINUOUS
10
4.0915354330708658
20
-3.0443329133858268
11
4.0750551968503936
21
-3.0339114566929135
0
LINE
8
BLACK
6
CONTINUOUS
10
4.0750551968503936
20
-3.0339114566929135
11
4.0594669685039371
21
-3.0221976771653543
0
LINE
8
BLACK
6
CONTINUOUS
10
4.0594669685039371
20
-3.0221976771653543
11
4.0448718503937009
21
-3.0092675196850394
0
LINE
8
BLACK
6
CONTINUOUS
10
4.0448718503937009
20
-3.0092675196850394
11
4.0313645275590551
21
-2.9952048818897636
0
LINE
8
BLACK
6
CONTINUOUS
10
4.0313645275590551
20
-2.9952048818897636
11
4.0190325590551179
21
-2.9801009842519686
0
LINE
8
BLACK
6
CONTINUOUS
10
4.0190325590551179
20
-2.9801009842519686
11
4.00795594488189
21
-2.9640537401574805
0
LINE
8
BLACK
6
CONTINUOUS
10
4.00795594488189
20
-2.9640537401574805
11
3.9982064960629922
21
-2.947167244094488
0
LINE
8
BLACK
6
CONTINUOUS
10
3.9982064960629922
20
-2.947167244094488
11
3.9898474803149604
21
-2.9295509842519682
0
LINE
8
BLACK
6
CONTINUOUS
10
3.9898474803149604
20
-2.9295509842519682
11
3.9829331102362202
21
-2.9113192125984253
0
LINE
8
BLACK
6
CONTINUOUS
10
3.9829331102362202
20
-2.9113192125984253
11
3.9775081889763779
21
-2.8925901968503935
0
LINE
8
BLACK
6
CONTINUOUS
10
3.9775081889763779
20
-2.8925901968503935
11
3.9736079133858269
21
-2.8734853937007871
0
LINE
8
BLACK
6
CONTINUOUS
10
3.9736079133858269
20
-2.8734853937007871
11
3.9712575984251965
21
-2.8541287007874017
0
LINE
8
BLACK
6
CONTINUOUS
10
3.9712575984251965
20
-2.8541287007874017
11
3.9704724409448819
21
-2.8346456692913384
0
LINE
8
BLACK
6
CONTINUOUS
10
3.9704724409448819
20
-2.8346456692913384
11
3.9712575984251965
21
-2.8151626377952756
0
LINE
8
BLACK
6
CONTINUOUS
10
3.9712575984251965
20
-2.8151626377952756
11
3.9736079133858269
21
-2.7958059448818897
0
LINE
8
BLACK
6
CONTINUOUS
10
3.9736079133858269
20
-2.7958059448818897
11
3.9775081889763779
21
-2.7767011417322833
0
LINE
8
BLACK
6
CONTINUOUS
10
3.9775081889763779
20
-2.7767011417322833
11
3.9829331102362202
21
-2.757972125984252
0
LINE
8
BLACK
6
CONTINUOUS
10
3.9829331102362202
20
-2.757972125984252
11
3.9898474803149604
21
-2.7397403543307086
0
LINE
8
BLACK
6
CONTINUOUS
10
3.9898474803149604
20
-2.7397403543307086
11
3.9982064960629922
21
-2.7221240944881888
0
LINE
8
BLACK
6
CONTINUOUS
10
3.9982064960629922
20
-2.7221240944881888
11
4.00795594488189
21
-2.7052375984251968
0
LINE
8
BLACK
6
CONTINUOUS
10
4.00795594488189
20
-2.7052375984251968
11
4.0190325590551179
21
-2.6891903543307087
0
LINE
8
BLACK
6
CONTINUOUS
10
4.0190325590551179
20
-2.6891903543307087
11
4.0313645275590551
21
-2.6740864566929132
0
LINE
8
BLACK
6
CONTINUOUS
10
4.0313645275590551
20
-2.6740864566929132
11
4.0448718503937009
21
-2.6600238188976379
0
LINE
8
BLACK
6
CONTINUOUS
10
4.0448718503937009
20
-2.6600238188976379
11
4.0594669685039371
21
-2.6470936614173226
0
LINE
8
BLACK
6
CONTINUOUS
10
4.0594669685039371
20
-2.6470936614173226
11
4.0750551968503936
21
-2.6353798818897638
0
LINE
8
BLACK
6
CONTINUOUS
10
4.0750551968503936
20
-2.6353798818897638
11
4.0915354330708658
21
-2.6249584251968505
0
LINE
8
BLACK
6
CONTINUOUS
10
4.0915354330708658
20
-2.6249584251968505
11
4.1088008267716534
21
-2.6158968503937006
0
LINE
8
BLACK
6
CONTINUOUS
10
4.1088008267716534
20
-2.6158968503937006
11
4.1267393700787398
21
-2.6082539370078739
0
LINE
8
BLACK
6
CONTINUOUS
10
4.1267393700787398
20
-2.6082539370078739
11
4.145234763779527
21
-2.6020792913385824
0
LINE
8
BLACK
6
CONTINUOUS
10
4.145234763779527
20
-2.6020792913385824
11
4.1641670078740161
21
-2.5974128740157481
0
LINE
8
BLACK
6
CONTINUOUS
10
4.1641670078740161
20
-2.5974128740157481
11
4.1834133464566925
21
-2.5942850393700785
0
LINE
8
BLACK
6
CONTINUOUS
10
4.1834133464566925
20
-2.5942850393700785
11
4.2028489763779531
21
-2.592716062992126
0
LINE
8
BLACK
6
CONTINUOUS
10
4.2028489763779531
20
-2.592716062992126
11
4.2223478740157478
21
-2.592716062992126
0
LINE
8
BLACK
6
CONTINUOUS
10
4.2223478740157478
20
-2.592716062992126
11
4.2417835039370075
21
-2.5942850393700785
0
LINE
8
BLACK
6
CONTINUOUS
10
3.9749890944881887
20
-2.8538274803149606
11
3.9773031102362202
21
-2.8728848818897639
0
LINE
8
BLACK
6
CONTINUOUS
10
3.9773031102362202
20
-2.8728848818897639
11
3.9811430708661417
21
-2.8916942913385828
0
LINE
8
BLACK
6
CONTINUOUS
10
3.9811430708661417
20
-2.8916942913385828
11
3.9864840944881887
21
-2.9101337401574803
0
LINE
8
BLACK
6
CONTINUOUS
10
3.9864840944881887
20
-2.9101337401574803
11
3.9932915748031497
21
-2.9280835826771652
0
LINE
8
BLACK
6
CONTINUOUS
10
3.9932915748031497
20
-2.9280835826771652
11
4.0015213779527556
21
-2.945427440944882
0
LINE
8
BLACK
6
CONTINUOUS
10
4.0015213779527556
20
-2.945427440944882
11
4.0111200393700788
21
-2.9620528740157481
0
LINE
8
BLACK
6
CONTINUOUS
10
4.0111200393700788
20
-2.9620528740157481
11
4.0220253937007877
21
-2.9778520078740156
0
LINE
8
BLACK
6
CONTINUOUS
10
4.0220253937007877
20
-2.9778520078740156
11
4.0341666929133861
21
-2.9927224015748033
0
LINE
8
BLACK
6
CONTINUOUS
10
4.0341666929133861
20
-2.9927224015748033
11
4.0474651968503936
21
-3.0065675984251969
0
LINE
8
BLACK
6
CONTINUOUS
10
4.0474651968503936
20
-3.0065675984251969
11
4.0618346456692915
21
-3.0192977952755906
0
LINE
8
BLACK
6
CONTINUOUS
10
4.0618346456692915
20
-3.0192977952755906
11
4.0771818503937007
21
-3.0308304724409449
0
LINE
8
BLACK
6
CONTINUOUS
10
4.0771818503937007
20
-3.0308304724409449
11
4.0934072440944878
21
-3.0410908267716534
0
LINE
8
BLACK
6
CONTINUOUS
10
4.0934072440944878
20
-3.0410908267716534
11
4.1104057086614176
21
-3.0500122834645667
0
LINE
8
BLACK
6
CONTINUOUS
10
4.1104057086614176
20
-3.0500122834645667
11
4.1280668897637796
21
-3.0575370078740156
0
LINE
8
BLACK
6
CONTINUOUS
10
4.1280668897637796
20
-3.0575370078740156
11
4.1462762992125981
21
-3.0636162204724409
0
LINE
8
BLACK
6
CONTINUOUS
10
4.1462762992125981
20
-3.0636162204724409
11
4.1649158267716535
21
-3.0682104330708659
0
LINE
8
BLACK
6
CONTINUOUS
10
4.1649158267716535
20
-3.0682104330708659
11
4.1838646062992124
21
-3.0712899212598423
0
LINE
8
BLACK
6
CONTINUOUS
10
4.1838646062992124
20
-3.0712899212598423
11
4.202999724409449
21
-3.0728346456692912
0
LINE
8
BLACK
6
CONTINUOUS
10
4.202999724409449
20
-3.0728346456692912
11
4.2221971259842519
21
-3.0728346456692912
0
LINE
8
BLACK
6
CONTINUOUS
10
4.2221971259842519
20
-3.0728346456692912
11
4.2413322440944885
21
-3.0712899212598423
0
LINE
8
BLACK
6
CONTINUOUS
10
4.2413322440944885
20
-3.0712899212598423
11
4.2602810236220474
21
-3.0682104330708659
0
LINE
8
BLACK
6
CONTINUOUS
10
4.2602810236220474
20
-3.0682104330708659
11
4.2789205511811019
21
-3.0636162204724409
0
LINE
8
BLACK
6
CONTINUOUS
10
4.2789205511811019
20
-3.0636162204724409
11
4.2971299606299214
21
-3.0575370078740156
0
LINE
8
BLACK
6
CONTINUOUS
10
4.2971299606299214
20
-3.0575370078740156
11
4.3147911417322833
21
-3.0500122834645667
0
LINE
8
BLACK
6
CONTINUOUS
10
4.3147911417322833
20
-3.0500122834645667
11
4.3317896062992123
21
-3.0410908267716534
0
LINE
8
BLACK
6
CONTINUOUS
10
4.3317896062992123
20
-3.0410908267716534
11
4.3480150000000002
21
-3.0308304724409449
0
LINE
8
BLACK
6
CONTINUOUS
10
4.3480150000000002
20
-3.0308304724409449
11
4.3633622047244094
21
-3.0192977952755906
0
LINE
8
BLACK
6
CONTINUOUS
10
4.3633622047244094
20
-3.0192977952755906
11
4.3777316535433073
21
-3.0065675984251969
0
LINE
8
BLACK
6
CONTINUOUS
10
4.3777316535433073
20
-3.0065675984251969
11
4.3910301574803148
21
-2.9927224015748033
0
LINE
8
BLACK
6
CONTINUOUS
10
4.3910301574803148
20
-2.9927224015748033
11
4.4031714566929132
21
-2.9778520078740156
0
LINE
8
BLACK
6
CONTINUOUS
10
4.4031714566929132
20
-2.9778520078740156
11
4.4140768110236221
21
-2.9620528740157481
0
LINE
8
BLACK
6
CONTINUOUS
10
4.4140768110236221
20
-2.9620528740157481
11
4.4236754724409444
21
-2.945427440944882
0
LINE
8
BLACK
6
CONTINUOUS
10
4.4236754724409444
20
-2.945427440944882
11
4.4319052755905508
21
-2.9280835826771652
0
LINE
8
BLACK
6
CONTINUOUS
10
4.4319052755905508
20
-2.9280835826771652
11
4.4387127559055113
21
-2.9101337401574803
0
LINE
8
BLACK
6
CONTINUOUS
10
4.4387127559055113
20
-2.9101337401574803
11
4.4440537795275592
21
-2.8916942913385828
0
LINE
8
BLACK
6
CONTINUOUS
10
4.4440537795275592
20
-2.8916942913385828
11
4.4478937401574798
21
-2.8728848818897639
0
LINE
8
BLACK
6
CONTINUOUS
10
4.4478937401574798
20
-2.8728848818897639
11
4.4502077559055113
21
-2.8538274803149606
0
LINE
8
BLACK
6
CONTINUOUS
10
4.4502077559055113
20
-2.8538274803149606
11
4.4509807480314958
21
-2.8346456692913384
0
LINE
8
BLACK
6
CONTINUOUS
10
4.4509807480314958
20
-2.8346456692913384
11
4.4502077559055113
21
-2.8154638582677163
0
LINE
8
BLACK
6
CONTINUOUS
10
4.4502077559055113
20
-2.8154638582677163
11
4.4478937401574798
21
-2.7964064566929134
0
LINE
8
BLACK
6
CONTINUOUS
10
4.4478937401574798
20
-2.7964064566929134
11
4.4440537795275592
21
-2.7775970472440945
0
LINE
8
BLACK
6
CONTINUOUS
10
4.4440537795275592
20
-2.7775970472440945
11
4.4387127559055113
21
-2.7591575984251966
0
LINE
8
BLACK
6
CONTINUOUS
10
4.4387127559055113
20
-2.7591575984251966
11
4.4319052755905508
21
-2.7412077559055117
0
LINE
8
BLACK
6
CONTINUOUS
10
4.4319052755905508
20
-2.7412077559055117
11
4.4236754724409444
21
-2.7238638976377954
0
LINE
8
BLACK
6
CONTINUOUS
10
4.4236754724409444
20
-2.7238638976377954
11
4.4140768110236221
21
-2.7072384645669292
0
LINE
8
BLACK
6
CONTINUOUS
10
4.4140768110236221
20
-2.7072384645669292
11
4.4031714566929132
21
-2.6914393307086613
0
LINE
8
BLACK
6
CONTINUOUS
10
4.4031714566929132
20
-2.6914393307086613
11
4.3910301574803148
21
-2.676568937007874
0
LINE
8
BLACK
6
CONTINUOUS
10
4.3910301574803148
20
-2.676568937007874
11
4.3777316535433073
21
-2.6627237401574804
0
LINE
8
BLACK
6
CONTINUOUS
10
4.3777316535433073
20
-2.6627237401574804
11
4.3633622047244094
21
-2.6499935433070867
0
LINE
8
BLACK
6
CONTINUOUS
10
4.3633622047244094
20
-2.6499935433070867
11
4.3480150000000002
21
-2.6384608661417324
0
LINE
8
BLACK
6
CONTINUOUS
10
4.3480150000000002
20
-2.6384608661417324
11
4.3317896062992123
21
-2.6282005118110234
0
LINE
8
BLACK
6
CONTINUOUS
10
4.3317896062992123
20
-2.6282005118110234
11
4.3147911417322833
21
-2.6192790551181102
0
LINE
8
BLACK
6
CONTINUOUS
10
4.3147911417322833
20
-2.6192790551181102
11
4.2971299606299214
21
-2.6117543307086613
0
LINE
8
BLACK
6
CONTINUOUS
10
4.2971299606299214
20
-2.6117543307086613
11
4.2789205511811019
21
-2.605675118110236
0
LINE
8
BLACK
6
CONTINUOUS
10
4.2789205511811019
20
-2.605675118110236
11
4.2602810236220474
21
-2.6010809055118109
0
LINE
8
BLACK
6
CONTINUOUS
10
4.2602810236220474
20
-2.6010809055118109
11
4.2413322440944885
21
-2.5980014173228345
0
LINE
8
BLACK
6
CONTINUOUS
10
4.2413322440944885
20
-2.5980014173228345
11
4.2221971259842519
21
-2.5964566929133857
0
LINE
8
BLACK
6
CONTINUOUS
10
4.2221971259842519
20
-2.5964566929133857
11
4.202999724409449
21
-2.5964566929133857
0
LINE
8
BLACK
6
CONTINUOUS
10
4.202999724409449
20
-2.5964566929133857
11
4.1838646062992124
21
-2.5980014173228345
0
LINE
8
BLACK
6
CONTINUOUS
10
4.1838646062992124
20
-2.5980014173228345
11
4.1649158267716535
21
-2.6010809055118109
0
LINE
8
BLACK
6
CONTINUOUS
10
4.1649158267716535
20
-2.6010809055118109
11
4.1462762992125981
21
-2.605675118110236
0
LINE
8
BLACK
6
CONTINUOUS
10
4.1462762992125981
20
-2.605675118110236
11
4.1280668897637796
21
-2.6117543307086613
0
LINE
8
BLACK
6
CONTINUOUS
10
4.1280668897637796
20
-2.6117543307086613
11
4.1104057086614176
21
-2.6192790551181102
0
LINE
8
BLACK
6
CONTINUOUS
10
4.1104057086614176
20
-2.6192790551181102
11
4.0934072834645665
21
-2.6282005118110234
0
LINE
8
BLACK
6
CONTINUOUS
10
4.0934072834645665
20
-2.6282005118110234
11
4.0771818503937007
21
-2.6384608661417324
0
LINE
8
BLACK
6
CONTINUOUS
10
4.0771818503937007
20
-2.6384608661417324
11
4.0618346456692915
21
-2.6499935433070867
0
LINE
8
BLACK
6
CONTINUOUS
10
4.0618346456692915
20
-2.6499935433070867
11
4.0474651968503936
21
-2.6627237401574804
0
LINE
8
BLACK
6
CONTINUOUS
10
4.0474651968503936
20
-2.6627237401574804
11
4.0341666929133861
21
-2.676568937007874
0
LINE
8
BLACK
6
CONTINUOUS
10
4.0341666929133861
20
-2.676568937007874
11
4.0220253937007877
21
-2.6914393307086613
0
LINE
8
BLACK
6
CONTINUOUS
10
4.0220253937007877
20
-2.6914393307086613
11
4.0111200393700788
21
-2.7072384645669292
0
LINE
8
BLACK
6
CONTINUOUS
10
4.0111200393700788
20
-2.7072384645669292
11
4.0015213779527556
21
-2.7238638976377954
0
LINE
8
BLACK
6
CONTINUOUS
10
4.0015213779527556
20
-2.7238638976377954
11
3.9932915748031497
21
-2.7412077559055117
0
LINE
8
BLACK
6
CONTINUOUS
10
3.9932915748031497
20
-2.7412077559055117
11
3.9864840944881887
21
-2.7591575984251966
0
LINE
8
BLACK
6
CONTINUOUS
10
3.9864840944881887
20
-2.7591575984251966
11
3.9811430708661417
21
-2.7775970472440945
0
LINE
8
BLACK
6
CONTINUOUS
10
3.9811430708661417
20
-2.7775970472440945
11
3.9773031102362202
21
-2.7964064566929134
0
LINE
8
BLACK
6
CONTINUOUS
10
3.9773031102362202
20
-2.7964064566929134
11
3.9749890944881887
21
-2.8154638582677163
0
LINE
8
BLACK
6
CONTINUOUS
10
3.9749890944881887
20
-2.8154638582677163
11
3.9742161023622047
21
-2.8346456692913384
0
LINE
8
BLACK
6
CONTINUOUS
10
3.9742161023622047
20
-2.8346456692913384
11
3.9749890944881887
21
-2.8538274803149606
0
LINE
8
BLACK
6
CONTINUOUS
10
7.1945394094488186
20
-2.5942850393700785
11
7.213785748031496
21
-2.5974128740157481
0
LINE
8
BLACK
6
CONTINUOUS
10
7.213785748031496
20
-2.5974128740157481
11
7.2327179921259841
21
-2.6020792913385824
0
LINE
8
BLACK
6
CONTINUOUS
10
7.2327179921259841
20
-2.6020792913385824
11
7.2512133858267713
21
-2.6082539370078739
0
LINE
8
BLACK
6
CONTINUOUS
10
7.2512133858267713
20
-2.6082539370078739
11
7.2691519291338578
21
-2.6158968503937006
0
LINE
8
BLACK
6
CONTINUOUS
10
7.2691519291338578
20
-2.6158968503937006
11
7.2864173228346454
21
-2.6249584251968505
0
LINE
8
BLACK
6
CONTINUOUS
10
7.2864173228346454
20
-2.6249584251968505
11
7.3028975590551175
21
-2.6353798818897638
0
LINE
8
BLACK
6
CONTINUOUS
10
7.3028975590551175
20
-2.6353798818897638
11
7.318485787401575
21
-2.6470936614173226
0
LINE
8
BLACK
6
CONTINUOUS
10
7.318485787401575
20
-2.6470936614173226
11
7.3330809055118111
21
-2.6600238188976379
0
LINE
8
BLACK
6
CONTINUOUS
10
7.3330809055118111
20
-2.6600238188976379
11
7.3465882283464561
21
-2.6740864566929132
0
LINE
8
BLACK
6
CONTINUOUS
10
7.3465882283464561
20
-2.6740864566929132
11
7.3589201968503932
21
-2.6891903543307087
0
LINE
8
BLACK
6
CONTINUOUS
10
7.3589201968503932
20
-2.6891903543307087
11
7.369996811023622
21
-2.7052375984251968
0
LINE
8
BLACK
6
CONTINUOUS
10
7.369996811023622
20
-2.7052375984251968
11
7.3797462598425199
21
-2.7221240944881888
0
LINE
8
BLACK
6
CONTINUOUS
10
7.3797462598425199
20
-2.7221240944881888
11
7.3881052755905507
21
-2.7397403543307086
0
LINE
8
BLACK
6
CONTINUOUS
10
7.3881052755905507
20
-2.7397403543307086
11
7.3950196456692909
21
-2.757972125984252
0
LINE
8
BLACK
6
CONTINUOUS
10
7.3950196456692909
20
-2.757972125984252
11
7.4004445669291341
21
-2.7767011417322833
0
LINE
8
BLACK
6
CONTINUOUS
10
7.4004445669291341
20
-2.7767011417322833
11
7.4043448425196852
21
-2.7958059448818897
0
LINE
8
BLACK
6
CONTINUOUS
10
7.4043448425196852
20
-2.7958059448818897
11
7.406695157480315
21
-2.8151626377952756
0
LINE
8
BLACK
6
CONTINUOUS
10
7.406695157480315
20
-2.8151626377952756
11
7.4074803149606296
21
-2.8346456692913384
0
LINE
8
BLACK
6
CONTINUOUS
10
7.4074803149606296
20
-2.8346456692913384
11
7.406695157480315
21
-2.8541287007874017
0
LINE
8
BLACK
6
CONTINUOUS
10
7.406695157480315
20
-2.8541287007874017
11
7.4043448425196852
21
-2.8734853937007871
0
LINE
8
BLACK
6
CONTINUOUS
10
7.4043448425196852
20
-2.8734853937007871
11
7.4004445669291341
21
-2.8925901968503935
0
LINE
8
BLACK
6
CONTINUOUS
10
7.4004445669291341
20
-2.8925901968503935
11
7.3950196456692909
21
-2.9113192125984253
0
LINE
8
BLACK
6
CONTINUOUS
10
7.3950196456692909
20
-2.9113192125984253
11
7.3881052755905507
21
-2.9295509842519682
0
LINE
8
BLACK
6
CONTINUOUS
10
7.3881052755905507
20
-2.9295509842519682
11
7.3797462598425199
21
-2.947167244094488
0
LINE
8
BLACK
6
CONTINUOUS
10
7.3797462598425199
20
-2.947167244094488
11
7.369996811023622
21
-2.9640537401574805
0
LINE
8
BLACK
6
CONTINUOUS
10
7.369996811023622
20
-2.9640537401574805
11
7.3589201968503932
21
-2.9801009842519686
0
LINE
8
BLACK
6
CONTINUOUS
10
7.3589201968503932
20
-2.9801009842519686
11
7.3465882283464561
21
-2.9952048818897636
0
LINE
8
BLACK
6
CONTINUOUS
10
7.3465882283464561
20
-2.9952048818897636
11
7.3330809055118111
21
-3.0092675196850394
0
LINE
8
BLACK
6
CONTINUOUS
10
7.3330809055118111
20
-3.0092675196850394
11
7.318485787401575
21
-3.0221976771653543
0
LINE
8
BLACK
6
CONTINUOUS
10
7.318485787401575
20
-3.0221976771653543
11
7.3028975590551175
21
-3.0339114566929135
0
LINE
8
BLACK
6
CONTINUOUS
10
7.3028975590551175
20
-3.0339114566929135
11
7.2864173228346454
21
-3.0443329133858268
0
LINE
8
BLACK
6
CONTINUOUS
10
7.2864173228346454
20
-3.0443329133858268
11
7.2691519291338578
21
-3.0533944881889763
0
LINE
8
BLACK
6
CONTINUOUS
10
7.2691519291338578
20
-3.0533944881889763
11
7.2512133858267713
21
-3.061037401574803
0
LINE
8
BLACK
6
CONTINUOUS
10
7.2512133858267713
20
-3.061037401574803
11
7.2327179921259841
21
-3.0672120472440945
0
LINE
8
BLACK
6
CONTINUOUS
10
7.2327179921259841
20
-3.0672120472440945
11
7.213785748031496
21
-3.0718784645669293
0
LINE
8
BLACK
6
CONTINUOUS
10
7.213785748031496
20
-3.0718784645669293
11
7.1945394094488186
21
-3.0750062992125984
0
LINE
8
BLACK
6
CONTINUOUS
10
7.1945394094488186
20
-3.0750062992125984
11
7.175103779527559
21
-3.0765752755905513
0
LINE
8
BLACK
6
CONTINUOUS
10
7.175103779527559
20
-3.0765752755905513
11
7.1556048818897633
21
-3.0765752755905513
0
LINE
8
BLACK
6
CONTINUOUS
10
7.1556048818897633
20
-3.0765752755905513
11
7.1361692519685036
21
-3.0750062992125984
0
LINE
8
BLACK
6
CONTINUOUS
10
7.1361692519685036
20
-3.0750062992125984
11
7.1169229133858263
21
-3.0718784645669293
0
LINE
8
BLACK
6
CONTINUOUS
10
7.1169229133858263
20
-3.0718784645669293
11
7.0979906692913382
21
-3.0672120472440945
0
LINE
8
BLACK
6
CONTINUOUS
10
7.0979906692913382
20
-3.0672120472440945
11
7.0794952755905509
21
-3.061037401574803
0
LINE
8
BLACK
6
CONTINUOUS
10
7.0794952755905509
20
-3.061037401574803
11
7.0615567322834645
21
-3.0533944881889763
0
LINE
8
BLACK
6
CONTINUOUS
10
7.0615567322834645
20
-3.0533944881889763
11
7.0442913385826769
21
-3.0443329133858268
0
LINE
8
BLACK
6
CONTINUOUS
10
7.0442913385826769
20
-3.0443329133858268
11
7.0278111023622047
21
-3.0339114566929135
0
LINE
8
BLACK
6
CONTINUOUS
10
7.0278111023622047
20
-3.0339114566929135
11
7.0122228740157482
21
-3.0221976771653543
0
LINE
8
BLACK
6
CONTINUOUS
10
7.0122228740157482
20
-3.0221976771653543
11
6.997627755905512
21
-3.0092675196850394
0
LINE
8
BLACK
6
CONTINUOUS
10
6.997627755905512
20
-3.0092675196850394
11
6.9841204330708662
21
-2.9952048818897636
0
LINE
8
BLACK
6
CONTINUOUS
10
6.9841204330708662
20
-2.9952048818897636
11
6.971788464566929
21
-2.9801009842519686
0
LINE
8
BLACK
6
CONTINUOUS
10
6.971788464566929
20
-2.9801009842519686
11
6.9607118503937002
21
-2.9640537401574805
0
LINE
8
BLACK
6
CONTINUOUS
10
6.9607118503937002
20
-2.9640537401574805
11
6.9509624015748033
21
-2.947167244094488
0
LINE
8
BLACK
6
CONTINUOUS
10
6.9509624015748033
20
-2.947167244094488
11
6.9426033858267715
21
-2.9295509842519682
0
LINE
8
BLACK
6
CONTINUOUS
10
6.9426033858267715
20
-2.9295509842519682
11
6.9356890157480313
21
-2.9113192125984253
0
LINE
8
BLACK
6
CONTINUOUS
10
6.9356890157480313
20
-2.9113192125984253
11
6.930264094488189
21
-2.8925901968503935
0
LINE
8
BLACK
6
CONTINUOUS
10
6.930264094488189
20
-2.8925901968503935
11
6.926363818897638
21
-2.8734853937007871
0
LINE
8
BLACK
6
CONTINUOUS
10
6.926363818897638
20
-2.8734853937007871
11
6.9240135039370081
21
-2.8541287007874017
0
LINE
8
BLACK
6
CONTINUOUS
10
6.9240135039370081
20
-2.8541287007874017
11
6.9232283464566926
21
-2.8346456692913384
0
LINE
8
BLACK
6
CONTINUOUS
10
6.9232283464566926
20
-2.8346456692913384
11
6.9240135039370081
21
-2.8151626377952756
0
LINE
8
BLACK
6
CONTINUOUS
10
6.9240135039370081
20
-2.8151626377952756
11
6.926363818897638
21
-2.7958059448818897
0
LINE
8
BLACK
6
CONTINUOUS
10
6.926363818897638
20
-2.7958059448818897
11
6.930264094488189
21
-2.7767011417322833
0
LINE
8
BLACK
6
CONTINUOUS
10
6.930264094488189
20
-2.7767011417322833
11
6.9356890157480313
21
-2.757972125984252
0
LINE
8
BLACK
6
CONTINUOUS
10
6.9356890157480313
20
-2.757972125984252
11
6.9426033858267715
21
-2.7397403543307086
0
LINE
8
BLACK
6
CONTINUOUS
10
6.9426033858267715
20
-2.7397403543307086
11
6.9509624015748033
21
-2.7221240944881888
0
LINE
8
BLACK
6
CONTINUOUS
10
6.9509624015748033
20
-2.7221240944881888
11
6.9607118503937002
21
-2.7052375984251968
0
LINE
8
BLACK
6
CONTINUOUS
10
6.9607118503937002
20
-2.7052375984251968
11
6.971788464566929
21
-2.6891903543307087
0
LINE
8
BLACK
6
CONTINUOUS
10
6.971788464566929
20
-2.6891903543307087
11
6.9841204330708662
21
-2.6740864566929132
0
LINE
8
BLACK
6
CONTINUOUS
10
6.9841204330708662
20
-2.6740864566929132
11
6.997627755905512
21
-2.6600238188976379
0
LINE
8
BLACK
6
CONTINUOUS
10
6.997627755905512
20
-2.6600238188976379
11
7.0122228740157482
21
-2.6470936614173226
0
LINE
8
BLACK
6
CONTINUOUS
10
7.0122228740157482
20
-2.6470936614173226
11
7.0278111023622047
21
-2.6353798818897638
0
LINE
8
BLACK
6
CONTINUOUS
10
7.0278111023622047
20
-2.6353798818897638
11
7.0442913385826769
21
-2.6249584251968505
0
LINE
8
BLACK
6
CONTINUOUS
10
7.0442913385826769
20
-2.6249584251968505
11
7.0615567322834645
21
-2.6158968503937006
0
LINE
8
BLACK
6
CONTINUOUS
10
7.0615567322834645
20
-2.6158968503937006
11
7.0794952755905509
21
-2.6082539370078739
0
LINE
8
BLACK
6
CONTINUOUS
10
7.0794952755905509
20
-2.6082539370078739
11
7.0979906692913382
21
-2.6020792913385824
0
LINE
8
BLACK
6
CONTINUOUS
10
7.0979906692913382
20
-2.6020792913385824
11
7.1169229133858263
21
-2.5974128740157481
0
LINE
8
BLACK
6
CONTINUOUS
10
7.1169229133858263
20
-2.5974128740157481
11
7.1361692519685036
21
-2.5942850393700785
0
LINE
8
BLACK
6
CONTINUOUS
10
7.1361692519685036
20
-2.5942850393700785
11
7.1556048818897633
21
-2.592716062992126
0
LINE
8
BLACK
6
CONTINUOUS
10
7.1556048818897633
20
-2.592716062992126
11
7.175103779527559
21
-2.592716062992126
0
LINE
8
BLACK
6
CONTINUOUS
10
7.175103779527559
20
-2.592716062992126
11
7.1945394094488186
21
-2.5942850393700785
0
LINE
8
BLACK
6
CONTINUOUS
10
6.9277449999999998
20
-2.8538274803149606
11
6.9300590157480313
21
-2.8728848818897639
0
LINE
8
BLACK
6
CONTINUOUS
10
6.9300590157480313
20
-2.8728848818897639
11
6.9338989763779528
21
-2.8916942913385828
0
LINE
8
BLACK
6
CONTINUOUS
10
6.9338989763779528
20
-2.8916942913385828
11
6.9392399999999999
21
-2.9101337401574803
0
LINE
8
BLACK
6
CONTINUOUS
10
6.9392399999999999
20
-2.9101337401574803
11
6.9460474803149603
21
-2.9280835826771652
0
LINE
8
BLACK
6
CONTINUOUS
10
6.9460474803149603
20
-2.9280835826771652
11
6.9542772834645668
21
-2.945427440944882
0
LINE
8
BLACK
6
CONTINUOUS
10
6.9542772834645668
20
-2.945427440944882
11
6.9638759448818899
21
-2.9620528740157481
0
LINE
8
BLACK
6
CONTINUOUS
10
6.9638759448818899
20
-2.9620528740157481
11
6.9747812992125979
21
-2.9778520078740156
0
LINE
8
BLACK
6
CONTINUOUS
10
6.9747812992125979
20
-2.9778520078740156
11
6.9869225984251964
21
-2.9927224015748033
0
LINE
8
BLACK
6
CONTINUOUS
10
6.9869225984251964
20
-2.9927224015748033
11
7.0002211023622047
21
-3.0065675984251969
0
LINE
8
BLACK
6
CONTINUOUS
10
7.0002211023622047
20
-3.0065675984251969
11
7.0145905511811026
21
-3.0192977952755906
0
LINE
8
BLACK
6
CONTINUOUS
10
7.0145905511811026
20
-3.0192977952755906
11
7.0299377559055118
21
-3.0308304724409449
0
LINE
8
BLACK
6
CONTINUOUS
10
7.0299377559055118
20
-3.0308304724409449
11
7.0461631496062989
21
-3.0410908267716534
0
LINE
8
BLACK
6
CONTINUOUS
10
7.0461631496062989
20
-3.0410908267716534
11
7.0631616141732279
21
-3.0500122834645667
0
LINE
8
BLACK
6
CONTINUOUS
10
7.0631616141732279
20
-3.0500122834645667
11
7.0808227952755907
21
-3.0575370078740156
0
LINE
8
BLACK
6
CONTINUOUS
10
7.0808227952755907
20
-3.0575370078740156
11
7.0990322047244092
21
-3.0636162204724409
0
LINE
8
BLACK
6
CONTINUOUS
10
7.0990322047244092
20
-3.0636162204724409
11
7.1176717322834646
21
-3.0682104330708659
0
LINE
8
BLACK
6
CONTINUOUS
10
7.1176717322834646
20
-3.0682104330708659
11
7.1366205118110235
21
-3.0712899212598423
0
LINE
8
BLACK
6
CONTINUOUS
10
7.1366205118110235
20
-3.0712899212598423
11
7.1557556299212592
21
-3.0728346456692912
0
LINE
8
BLACK
6
CONTINUOUS
10
7.1557556299212592
20
-3.0728346456692912
11
7.174953031496063
21
-3.0728346456692912
0
LINE
8
BLACK
6
CONTINUOUS
10
7.174953031496063
20
-3.0728346456692912
11
7.1940881496062987
21
-3.0712899212598423
0
LINE
8
BLACK
6
CONTINUOUS
10
7.1940881496062987
20
-3.0712899212598423
11
7.2130369291338585
21
-3.0682104330708659
0
LINE
8
BLACK
6
CONTINUOUS
10
7.2130369291338585
20
-3.0682104330708659
11
7.231676456692913
21
-3.0636162204724409
0
LINE
8
BLACK
6
CONTINUOUS
10
7.231676456692913
20
-3.0636162204724409
11
7.2498858661417325
21
-3.0575370078740156
0
LINE
8
BLACK
6
CONTINUOUS
10
7.2498858661417325
20
-3.0575370078740156
11
7.2675470472440944
21
-3.0500122834645667
0
LINE
8
BLACK
6
CONTINUOUS
10
7.2675470472440944
20
-3.0500122834645667
11
7.2845455118110234
21
-3.0410908267716534
0
LINE
8
BLACK
6
CONTINUOUS
10
7.2845455118110234
20
-3.0410908267716534
11
7.3007709055118113
21
-3.0308304724409449
0
LINE
8
BLACK
6
CONTINUOUS
10
7.3007709055118113
20
-3.0308304724409449
11
7.3161181102362205
21
-3.0192977952755906
0
LINE
8
BLACK
6
CONTINUOUS
10
7.3161181102362205
20
-3.0192977952755906
11
7.3304875590551175
21
-3.0065675984251969
0
LINE
8
BLACK
6
CONTINUOUS
10
7.3304875590551175
20
-3.0065675984251969
11
7.3437860629921259
21
-2.9927224015748033
0
LINE
8
BLACK
6
CONTINUOUS
10
7.3437860629921259
20
-2.9927224015748033
11
7.3559273622047243
21
-2.9778520078740156
0
LINE
8
BLACK
6
CONTINUOUS
10
7.3559273622047243
20
-2.9778520078740156
11
7.3668327165354333
21
-2.9620528740157481
0
LINE
8
BLACK
6
CONTINUOUS
10
7.3668327165354333
20
-2.9620528740157481
11
7.3764313779527555
21
-2.945427440944882
0
LINE
8
BLACK
6
CONTINUOUS
10
7.3764313779527555
20
-2.945427440944882
11
7.3846611811023619
21
-2.9280835826771652
0
LINE
8
BLACK
6
CONTINUOUS
10
7.3846611811023619
20
-2.9280835826771652
11
7.3914686614173224
21
-2.9101337401574803
0
LINE
8
BLACK
6
CONTINUOUS
10
7.3914686614173224
20
-2.9101337401574803
11
7.3968096850393703
21
-2.8916942913385828
0
LINE
8
BLACK
6
CONTINUOUS
10
7.3968096850393703
20
-2.8916942913385828
11
7.400649645669291
21
-2.8728848818897639
0
LINE
8
BLACK
6
CONTINUOUS
10
7.400649645669291
20
-2.8728848818897639
11
7.4029636614173224
21
-2.8538274803149606
0
LINE
8
BLACK
6
CONTINUOUS
10
7.4029636614173224
20
-2.8538274803149606
11
7.4037366535433069
21
-2.8346456692913384
0
LINE
8
BLACK
6
CONTINUOUS
10
7.4037366535433069
20
-2.8346456692913384
11
7.4029636614173224
21
-2.8154638582677163
0
LINE
8
BLACK
6
CONTINUOUS
10
7.4029636614173224
20
-2.8154638582677163
11
7.400649645669291
21
-2.7964064566929134
0
LINE
8
BLACK
6
CONTINUOUS
10
7.400649645669291
20
-2.7964064566929134
11
7.3968096850393703
21
-2.7775970472440945
0
LINE
8
BLACK
6
CONTINUOUS
10
7.3968096850393703
20
-2.7775970472440945
11
7.3914686614173224
21
-2.7591575984251966
0
LINE
8
BLACK
6
CONTINUOUS
10
7.3914686614173224
20
-2.7591575984251966
11
7.3846611811023619
21
-2.7412077559055117
0
LINE
8
BLACK
6
CONTINUOUS
10
7.3846611811023619
20
-2.7412077559055117
11
7.3764313779527555
21
-2.7238638976377954
0
LINE
8
BLACK
6
CONTINUOUS
10
7.3764313779527555
20
-2.7238638976377954
11
7.3668327165354333
21
-2.7072384645669292
0
LINE
8
BLACK
6
CONTINUOUS
10
7.3668327165354333
20
-2.7072384645669292
11
7.3559273622047243
21
-2.6914393307086613
0
LINE
8
BLACK
6
CONTINUOUS
10
7.3559273622047243
20
-2.6914393307086613
11
7.3437860629921259
21
-2.676568937007874
0
LINE
8
BLACK
6
CONTINUOUS
10
7.3437860629921259
20
-2.676568937007874
11
7.3304875590551175
21
-2.6627237401574804
0
LINE
8
BLACK
6
CONTINUOUS
10
7.3304875590551175
20
-2.6627237401574804
11
7.3161181102362205
21
-2.6499935433070867
0
LINE
8
BLACK
6
CONTINUOUS
10
7.3161181102362205
20
-2.6499935433070867
11
7.3007709055118113
21
-2.6384608661417324
0
LINE
8
BLACK
6
CONTINUOUS
10
7.3007709055118113
20
-2.6384608661417324
11
7.2845455118110234
21
-2.6282005118110234
0
LINE
8
BLACK
6
CONTINUOUS
10
7.2845455118110234
20
-2.6282005118110234
11
7.2675470472440944
21
-2.6192790551181102
0
LINE
8
BLACK
6
CONTINUOUS
10
7.2675470472440944
20
-2.6192790551181102
11
7.2498858661417325
21
-2.6117543307086613
0
LINE
8
BLACK
6
CONTINUOUS
10
7.2498858661417325
20
-2.6117543307086613
11
7.231676456692913
21
-2.605675118110236
0
LINE
8
BLACK
6
CONTINUOUS
10
7.231676456692913
20
-2.605675118110236
11
7.2130369291338585
21
-2.6010809055118109
0
LINE
8
BLACK
6
CONTINUOUS
10
7.2130369291338585
20
-2.6010809055118109
11
7.1940881496062987
21
-2.5980014173228345
0
LINE
8
BLACK
6
CONTINUOUS
10
7.1940881496062987
20
-2.5980014173228345
11
7.174953031496063
21
-2.5964566929133857
0
LINE
8
BLACK
6
CONTINUOUS
10
7.174953031496063
20
-2.5964566929133857
11
7.1557556299212592
21
-2.5964566929133857
0
LINE
8
BLACK
6
CONTINUOUS
10
7.1557556299212592
20
-2.5964566929133857
11
7.1366205118110235
21
-2.5980014173228345
0
LINE
8
BLACK
6
CONTINUOUS
10
7.1366205118110235
20
-2.5980014173228345
11
7.1176717322834646
21
-2.6010809055118109
0
LINE
8
BLACK
6
CONTINUOUS
10
7.1176717322834646
20
-2.6010809055118109
11
7.0990322047244092
21
-2.605675118110236
0
LINE
8
BLACK
6
CONTINUOUS
10
7.0990322047244092
20
-2.605675118110236
11
7.0808227952755907
21
-2.6117543307086613
0
LINE
8
BLACK
6
CONTINUOUS
10
7.0808227952755907
20
-2.6117543307086613
11
7.0631616141732279
21
-2.6192790551181102
0
LINE
8
BLACK
6
CONTINUOUS
10
7.0631616141732279
20
-2.6192790551181102
11
7.0461631889763776
21
-2.6282005118110234
0
LINE
8
BLACK
6
CONTINUOUS
10
7.0461631889763776
20
-2.6282005118110234
11
7.0299377559055118
21
-2.6384608661417324
0
LINE
8
BLACK
6
CONTINUOUS
10
7.0299377559055118
20
-2.6384608661417324
11
7.0145905511811026
21
-2.6499935433070867
0
LINE
8
BLACK
6
CONTINUOUS
10
7.0145905511811026
20
-2.6499935433070867
11
7.0002211023622047
21
-2.6627237401574804
0
LINE
8
BLACK
6
CONTINUOUS
10
7.0002211023622047
20
-2.6627237401574804
11
6.9869225984251964
21
-2.676568937007874
0
LINE
8
BLACK
6
CONTINUOUS
10
6.9869225984251964
20
-2.676568937007874
11
6.9747812992125979
21
-2.6914393307086613
0
LINE
8
BLACK
6
CONTINUOUS
10
6.9747812992125979
20
-2.6914393307086613
11
6.9638759448818899
21
-2.7072384645669292
0
LINE
8
BLACK
6
CONTINUOUS
10
6.9638759448818899
20
-2.7072384645669292
11
6.9542772834645668
21
-2.7238638976377954
0
LINE
8
BLACK
6
CONTINUOUS
10
6.9542772834645668
20
-2.7238638976377954
11
6.9460474803149603
21
-2.7412077559055117
0
LINE
8
BLACK
6
CONTINUOUS
10
6.9460474803149603
20
-2.7412077559055117
11
6.9392399999999999
21
-2.7591575984251966
0
LINE
8
BLACK
6
CONTINUOUS
10
6.9392399999999999
20
-2.7591575984251966
11
6.9338989763779528
21
-2.7775970472440945
0
LINE
8
BLACK
6
CONTINUOUS
10
6.9338989763779528
20
-2.7775970472440945
11
6.9300590157480313
21
-2.7964064566929134
0
LINE
8
BLACK
6
CONTINUOUS
10
6.9300590157480313
20
-2.7964064566929134
11
6.9277449999999998
21
-2.8154638582677163
0
LINE
8
BLACK
6
CONTINUOUS
10
6.9277449999999998
20
-2.8154638582677163
11
6.9269720078740153
21
-2.8346456692913384
0
LINE
8
BLACK
6
CONTINUOUS
10
6.9269720078740153
20
-2.8346456692913384
11
6.9277449999999998
21
-2.8538274803149606
0
LINE
8
BLACK
6
CONTINUOUS
10
2.7850905905511811
20
-1.2950724409448819
11
2.804336929133858
21
-1.2982002755905511
0
LINE
8
BLACK
6
CONTINUOUS
10
2.804336929133858
20
-1.2982002755905511
11
2.8232691732283466
21
-1.3028666929133859
0
LINE
8
BLACK
6
CONTINUOUS
10
2.8232691732283466
20
-1.3028666929133859
11
2.8417645669291338
21
-1.3090413385826771
0
LINE
8
BLACK
6
CONTINUOUS
10
2.8417645669291338
20
-1.3090413385826771
11
2.8597031102362203
21
-1.3166842519685038
0
LINE
8
BLACK
6
CONTINUOUS
10
2.8597031102362203
20
-1.3166842519685038
11
2.8769685039370079
21
-1.3257458267716535
0
LINE
8
BLACK
6
CONTINUOUS
10
2.8769685039370079
20
-1.3257458267716535
11
2.8934487401574804
21
-1.3361672834645668
0
LINE
8
BLACK
6
CONTINUOUS
10
2.8934487401574804
20
-1.3361672834645668
11
2.909036968503937
21
-1.3478810629921258
0
LINE
8
BLACK
6
CONTINUOUS
10
2.909036968503937
20
-1.3478810629921258
11
2.9236320866141732
21
-1.360811220472441
0
LINE
8
BLACK
6
CONTINUOUS
10
2.9236320866141732
20
-1.360811220472441
11
2.937139409448819
21
-1.3748738582677165
0
LINE
8
BLACK
6
CONTINUOUS
10
2.937139409448819
20
-1.3748738582677165
11
2.9494713779527557
21
-1.3899777559055118
0
LINE
8
BLACK
6
CONTINUOUS
10
2.9494713779527557
20
-1.3899777559055118
11
2.9605479921259841
21
-1.4060249999999999
0
LINE
8
BLACK
6
CONTINUOUS
10
2.9605479921259841
20
-1.4060249999999999
11
2.9702974409448819
21
-1.4229114960629921
0
LINE
8
BLACK
6
CONTINUOUS
10
2.9702974409448819
20
-1.4229114960629921
11
2.9786564566929132
21
-1.4405277559055119
0
LINE
8
BLACK
6
CONTINUOUS
10
2.9786564566929132
20
-1.4405277559055119
11
2.9855708267716534
21
-1.458759527559055
0
LINE
8
BLACK
6
CONTINUOUS
10
2.9855708267716534
20
-1.458759527559055
11
2.9909957480314961
21
-1.4774885433070866
0
LINE
8
BLACK
6
CONTINUOUS
10
2.9909957480314961
20
-1.4774885433070866
11
2.9948960236220472
21
-1.496593346456693
0
LINE
8
BLACK
6
CONTINUOUS
10
2.9948960236220472
20
-1.496593346456693
11
2.9972463385826771
21
-1.5159500393700787
0
LINE
8
BLACK
6
CONTINUOUS
10
2.9972463385826771
20
-1.5159500393700787
11
2.9980314960629921
21
-1.5354330708661417
0
LINE
8
BLACK
6
CONTINUOUS
10
2.9980314960629921
20
-1.5354330708661417
11
2.9972463385826771
21
-1.5549161023622047
0
LINE
8
BLACK
6
CONTINUOUS
10
2.9972463385826771
20
-1.5549161023622047
11
2.9948960236220472
21
-1.5742727952755906
0
LINE
8
BLACK
6
CONTINUOUS
10
2.9948960236220472
20
-1.5742727952755906
11
2.9909957480314961
21
-1.5933775984251968
0
LINE
8
BLACK
6
CONTINUOUS
10
2.9909957480314961
20
-1.5933775984251968
11
2.9855708267716534
21
-1.6121066141732283
0
LINE
8
BLACK
6
CONTINUOUS
10
2.9855708267716534
20
-1.6121066141732283
11
2.9786564566929132
21
-1.6303383858267717
0
LINE
8
BLACK
6
CONTINUOUS
10
2.9786564566929132
20
-1.6303383858267717
11
2.9702974409448819
21
-1.6479546456692913
0
LINE
8
BLACK
6
CONTINUOUS
10
2.9702974409448819
20
-1.6479546456692913
11
2.9605479921259841
21
-1.6648411417322835
0
LINE
8
BLACK
6
CONTINUOUS
10
2.9605479921259841
20
-1.6648411417322835
11
2.9494713779527557
21
-1.6808883858267716
0
LINE
8
BLACK
6
CONTINUOUS
10
2.9494713779527557
20
-1.6808883858267716
11
2.937139409448819
21
-1.6959922834645669
0
LINE
8
BLACK
6
CONTINUOUS
10
2.937139409448819
20
-1.6959922834645669
11
2.9236320866141732
21
-1.7100549212598424
0
LINE
8
BLACK
6
CONTINUOUS
10
2.9236320866141732
20
-1.7100549212598424
11
2.909036968503937
21
-1.7229850787401575
0
LINE
8
BLACK
6
CONTINUOUS
10
2.909036968503937
20
-1.7229850787401575
11
2.8934487401574804
21
-1.7346988582677165
0
LINE
8
BLACK
6
CONTINUOUS
10
2.8934487401574804
20
-1.7346988582677165
11
2.8769685039370079
21
-1.7451203149606298
0
LINE
8
BLACK
6
CONTINUOUS
10
2.8769685039370079
20
-1.7451203149606298
11
2.8597031102362203
21
-1.7541818897637795
0
LINE
8
BLACK
6
CONTINUOUS
10
2.8597031102362203
20
-1.7541818897637795
11
2.8417645669291338
21
-1.7618248031496062
0
LINE
8
BLACK
6
CONTINUOUS
10
2.8417645669291338
20
-1.7618248031496062
11
2.8232691732283466
21
-1.7679994488188977
0
LINE
8
BLACK
6
CONTINUOUS
10
2.8232691732283466
20
-1.7679994488188977
11
2.804336929133858
21
-1.7726658661417323
0
LINE
8
BLACK
6
CONTINUOUS
10
2.804336929133858
20
-1.7726658661417323
11
2.7850905905511811
21
-1.7757937007874016
0
LINE
8
BLACK
6
CONTINUOUS
10
2.7850905905511811
20
-1.7757937007874016
11
2.765654960629921
21
-1.7773626771653543
0
LINE
8
BLACK
6
CONTINUOUS
10
2.765654960629921
20
-1.7773626771653543
11
2.7461560629921258
21
-1.7773626771653543
0
LINE
8
BLACK
6
CONTINUOUS
10
2.7461560629921258
20
-1.7773626771653543
11
2.7267204330708661
21
-1.7757937007874016
0
LINE
8
BLACK
6
CONTINUOUS
10
2.7267204330708661
20
-1.7757937007874016
11
2.7074740944881888
21
-1.7726658661417323
0
LINE
8
BLACK
6
CONTINUOUS
10
2.7074740944881888
20
-1.7726658661417323
11
2.6885418503937006
21
-1.7679994488188977
0
LINE
8
BLACK
6
CONTINUOUS
10
2.6885418503937006
20
-1.7679994488188977
11
2.6700464566929134
21
-1.7618248031496062
0
LINE
8
BLACK
6
CONTINUOUS
10
2.6700464566929134
20
-1.7618248031496062
11
2.6521079133858265
21
-1.7541818897637795
0
LINE
8
BLACK
6
CONTINUOUS
10
2.6521079133858265
20
-1.7541818897637795
11
2.6348425196850394
21
-1.7451203149606298
0
LINE
8
BLACK
6
CONTINUOUS
10
2.6348425196850394
20
-1.7451203149606298
11
2.6183622834645668
21
-1.7346988582677165
0
LINE
8
BLACK
6
CONTINUOUS
10
2.6183622834645668
20
-1.7346988582677165
11
2.6027740551181102
21
-1.7229850787401575
0
LINE
8
BLACK
6
CONTINUOUS
10
2.6027740551181102
20
-1.7229850787401575
11
2.588178937007874
21
-1.7100549212598424
0
LINE
8
BLACK
6
CONTINUOUS
10
2.588178937007874
20
-1.7100549212598424
11
2.5746716141732282
21
-1.6959922834645669
0
LINE
8
BLACK
6
CONTINUOUS
10
2.5746716141732282
20
-1.6959922834645669
11
2.5623396456692911
21
-1.6808883858267716
0
LINE
8
BLACK
6
CONTINUOUS
10
2.5623396456692911
20
-1.6808883858267716
11
2.5512630314960631
21
-1.6648411417322835
0
LINE
8
BLACK
6
CONTINUOUS
10
2.5512630314960631
20
-1.6648411417322835
11
2.5415135826771653
21
-1.6479546456692913
0
LINE
8
BLACK
6
CONTINUOUS
10
2.5415135826771653
20
-1.6479546456692913
11
2.533154566929134
21
-1.6303383858267717
0
LINE
8
BLACK
6
CONTINUOUS
10
2.533154566929134
20
-1.6303383858267717
11
2.5262401968503938
21
-1.6121066141732283
0
LINE
8
BLACK
6
CONTINUOUS
10
2.5262401968503938
20
-1.6121066141732283
11
2.5208152755905511
21
-1.5933775984251968
0
LINE
8
BLACK
6
CONTINUOUS
10
2.5208152755905511
20
-1.5933775984251968
11
2.516915
21
-1.5742727952755906
0
LINE
8
BLACK
6
CONTINUOUS
10
2.516915
20
-1.5742727952755906
11
2.5145646850393701
21
-1.5549161023622047
0
LINE
8
BLACK
6
CONTINUOUS
10
2.5145646850393701
20
-1.5549161023622047
11
2.5137795275590551
21
-1.5354330708661417
0
LINE
8
BLACK
6
CONTINUOUS
10
2.5137795275590551
20
-1.5354330708661417
11
2.5145646850393701
21
-1.5159500393700787
0
LINE
8
BLACK
6
CONTINUOUS
10
2.5145646850393701
20
-1.5159500393700787
11
2.516915
21
-1.496593346456693
0
LINE
8
BLACK
6
CONTINUOUS
10
2.516915
20
-1.496593346456693
11
2.5208152755905511
21
-1.4774885433070866
0
LINE
8
BLACK
6
CONTINUOUS
10
2.5208152755905511
20
-1.4774885433070866
11
2.5262401968503938
21
-1.458759527559055
0
LINE
8
BLACK
6
CONTINUOUS
10
2.5262401968503938
20
-1.458759527559055
11
2.533154566929134
21
-1.4405277559055119
0
LINE
8
BLACK
6
CONTINUOUS
10
2.533154566929134
20
-1.4405277559055119
11
2.5415135826771653
21
-1.4229114960629921
0
LINE
8
BLACK
6
CONTINUOUS
10
2.5415135826771653
20
-1.4229114960629921
11
2.5512630314960631
21
-1.4060249999999999
0
LINE
8
BLACK
6
CONTINUOUS
10
2.5512630314960631
20
-1.4060249999999999
11
2.5623396456692911
21
-1.3899777559055118
0
LINE
8
BLACK
6
CONTINUOUS
10
2.5623396456692911
20
-1.3899777559055118
11
2.5746716141732282
21
-1.3748738582677165
0
LINE
8
BLACK
6
CONTINUOUS
10
2.5746716141732282
20
-1.3748738582677165
11
2.588178937007874
21
-1.360811220472441
0
LINE
8
BLACK
6
CONTINUOUS
10
2.588178937007874
20
-1.360811220472441
11
2.6027740551181102
21
-1.3478810629921258
0
LINE
8
BLACK
6
CONTINUOUS
10
2.6027740551181102
20
-1.3478810629921258
11
2.6183622834645668
21
-1.3361672834645668
0
LINE
8
BLACK
6
CONTINUOUS
10
2.6183622834645668
20
-1.3361672834645668
11
2.6348425196850394
21
-1.3257458267716535
0
LINE
8
BLACK
6
CONTINUOUS
10
2.6348425196850394
20
-1.3257458267716535
11
2.6521079133858265
21
-1.3166842519685038
0
LINE
8
BLACK
6
CONTINUOUS
10
2.6521079133858265
20
-1.3166842519685038
11
2.6700464566929134
21
-1.3090413385826771
0
LINE
8
BLACK
6
CONTINUOUS
10
2.6700464566929134
20
-1.3090413385826771
11
2.6885418503937006
21
-1.3028666929133859
0
LINE
8
BLACK
6
CONTINUOUS
10
2.6885418503937006
20
-1.3028666929133859
11
2.7074740944881888
21
-1.2982002755905511
0
LINE
8
BLACK
6
CONTINUOUS
10
2.7074740944881888
20
-1.2982002755905511
11
2.7267204330708661
21
-1.2950724409448819
0
LINE
8
BLACK
6
CONTINUOUS
10
2.7267204330708661
20
-1.2950724409448819
11
2.7461560629921258
21
-1.293503464566929
0
LINE
8
BLACK
6
CONTINUOUS
10
2.7461560629921258
20
-1.293503464566929
11
2.765654960629921
21
-1.293503464566929
0
LINE
8
BLACK
6
CONTINUOUS
10
2.765654960629921
20
-1.293503464566929
11
2.7850905905511811
21
-1.2950724409448819
0
LINE
8
BLACK
6
CONTINUOUS
10
2.5182961811023623
20
-1.5546148818897638
11
2.5206101968503938
21
-1.5736722834645669
0
LINE
8
BLACK
6
CONTINUOUS
10
2.5206101968503938
20
-1.5736722834645669
11
2.5244501574803149
21
-1.5924816929133858
0
LINE
8
BLACK
6
CONTINUOUS
10
2.5244501574803149
20
-1.5924816929133858
11
2.5297911811023623
21
-1.6109211417322835
0
LINE
8
BLACK
6
CONTINUOUS
10
2.5297911811023623
20
-1.6109211417322835
11
2.5365986614173228
21
-1.6288709842519684
0
LINE
8
BLACK
6
CONTINUOUS
10
2.5365986614173228
20
-1.6288709842519684
11
2.5448284645669292
21
-1.646214842519685
0
LINE
8
BLACK
6
CONTINUOUS
10
2.5448284645669292
20
-1.646214842519685
11
2.5544271259842519
21
-1.6628402755905511
0
LINE
8
BLACK
6
CONTINUOUS
10
2.5544271259842519
20
-1.6628402755905511
11
2.5653324803149604
21
-1.6786394094488188
0
LINE
8
BLACK
6
CONTINUOUS
10
2.5653324803149604
20
-1.6786394094488188
11
2.5774737795275589
21
-1.6935098031496063
0
LINE
8
BLACK
6
CONTINUOUS
10
2.5774737795275589
20
-1.6935098031496063
11
2.5907722834645668
21
-1.707355
0
LINE
8
BLACK
6
CONTINUOUS
10
2.5907722834645668
20
-1.707355
11
2.6051417322834647
21
-1.7200851968503936
0
LINE
8
BLACK
6
CONTINUOUS
10
2.6051417322834647
20
-1.7200851968503936
11
2.6204889370078739
21
-1.731617874015748
0
LINE
8
BLACK
6
CONTINUOUS
10
2.6204889370078739
20
-1.731617874015748
11
2.6367143307086613
21
-1.7418782283464567
0
LINE
8
BLACK
6
CONTINUOUS
10
2.6367143307086613
20
-1.7418782283464567
11
2.6537127952755903
21
-1.7507996850393701
0
LINE
8
BLACK
6
CONTINUOUS
10
2.6537127952755903
20
-1.7507996850393701
11
2.6713739763779527
21
-1.7583244094488188
0
LINE
8
BLACK
6
CONTINUOUS
10
2.6713739763779527
20
-1.7583244094488188
11
2.6895833858267717
21
-1.7644036220472441
0
LINE
8
BLACK
6
CONTINUOUS
10
2.6895833858267717
20
-1.7644036220472441
11
2.7082229133858267
21
-1.7689978346456692
0
LINE
8
BLACK
6
CONTINUOUS
10
2.7082229133858267
20
-1.7689978346456692
11
2.7271716929133856
21
-1.7720773228346456
0
LINE
8
BLACK
6
CONTINUOUS
10
2.7271716929133856
20
-1.7720773228346456
11
2.7463068110236222
21
-1.7736220472440944
0
LINE
8
BLACK
6
CONTINUOUS
10
2.7463068110236222
20
-1.7736220472440944
11
2.765504212598425
21
-1.7736220472440944
0
LINE
8
BLACK
6
CONTINUOUS
10
2.765504212598425
20
-1.7736220472440944
11
2.7846393307086612
21
-1.7720773228346456
0
LINE
8
BLACK
6
CONTINUOUS
10
2.7846393307086612
20
-1.7720773228346456
11
2.8035881102362206
21
-1.7689978346456692
0
LINE
8
BLACK
6
CONTINUOUS
10
2.8035881102362206
20
-1.7689978346456692
11
2.8222276377952755
21
-1.7644036220472441
0
LINE
8
BLACK
6
CONTINUOUS
10
2.8222276377952755
20
-1.7644036220472441
11
2.8404370472440945
21
-1.7583244094488188
0
LINE
8
BLACK
6
CONTINUOUS
10
2.8404370472440945
20
-1.7583244094488188
11
2.8580982283464564
21
-1.7507996850393701
0
LINE
8
BLACK
6
CONTINUOUS
10
2.8580982283464564
20
-1.7507996850393701
11
2.8750966929133859
21
-1.7418782283464567
0
LINE
8
BLACK
6
CONTINUOUS
10
2.8750966929133859
20
-1.7418782283464567
11
2.8913220866141733
21
-1.731617874015748
0
LINE
8
BLACK
6
CONTINUOUS
10
2.8913220866141733
20
-1.731617874015748
11
2.9066692913385825
21
-1.7200851968503936
0
LINE
8
BLACK
6
CONTINUOUS
10
2.9066692913385825
20
-1.7200851968503936
11
2.9210387401574804
21
-1.707355
0
LINE
8
BLACK
6
CONTINUOUS
10
2.9210387401574804
20
-1.707355
11
2.9343372440944879
21
-1.6935098031496063
0
LINE
8
BLACK
6
CONTINUOUS
10
2.9343372440944879
20
-1.6935098031496063
11
2.9464785433070864
21
-1.6786394094488188
0
LINE
8
BLACK
6
CONTINUOUS
10
2.9464785433070864
20
-1.6786394094488188
11
2.9573838976377953
21
-1.6628402755905511
0
LINE
8
BLACK
6
CONTINUOUS
10
2.9573838976377953
20
-1.6628402755905511
11
2.966982559055118
21
-1.646214842519685
0
LINE
8
BLACK
6
CONTINUOUS
10
2.966982559055118
20
-1.646214842519685
11
2.9752123622047244
21
-1.6288709842519684
0
LINE
8
BLACK
6
CONTINUOUS
10
2.9752123622047244
20
-1.6288709842519684
11
2.9820198425196849
21
-1.6109211417322835
0
LINE
8
BLACK
6
CONTINUOUS
10
2.9820198425196849
20
-1.6109211417322835
11
2.9873608661417324
21
-1.5924816929133858
0
LINE
8
BLACK
6
CONTINUOUS
10
2.9873608661417324
20
-1.5924816929133858
11
2.9912008267716534
21
-1.5736722834645669
0
LINE
8
BLACK
6
CONTINUOUS
10
2.9912008267716534
20
-1.5736722834645669
11
2.9935148425196849
21
-1.5546148818897638
0
LINE
8
BLACK
6
CONTINUOUS
10
2.9935148425196849
20
-1.5546148818897638
11
2.9942878346456694
21
-1.5354330708661417
0
LINE
8
BLACK
6
CONTINUOUS
10
2.9942878346456694
20
-1.5354330708661417
11
2.9935148425196849
21
-1.5162512598425197
0
LINE
8
BLACK
6
CONTINUOUS
10
2.9935148425196849
20
-1.5162512598425197
11
2.9912008267716534
21
-1.4971938582677164
0
LINE
8
BLACK
6
CONTINUOUS
10
2.9912008267716534
20
-1.4971938582677164
11
2.9873608661417324
21
-1.4783844488188975
0
LINE
8
BLACK
6
CONTINUOUS
10
2.9873608661417324
20
-1.4783844488188975
11
2.9820198425196849
21
-1.459945
0
LINE
8
BLACK
6
CONTINUOUS
10
2.9820198425196849
20
-1.459945
11
2.9752123622047244
21
-1.4419951574803149
0
LINE
8
BLACK
6
CONTINUOUS
10
2.9752123622047244
20
-1.4419951574803149
11
2.966982559055118
21
-1.4246512992125984
0
LINE
8
BLACK
6
CONTINUOUS
10
2.966982559055118
20
-1.4246512992125984
11
2.9573838976377953
21
-1.4080258661417322
0
LINE
8
BLACK
6
CONTINUOUS
10
2.9573838976377953
20
-1.4080258661417322
11
2.9464785433070864
21
-1.3922267322834645
0
LINE
8
BLACK
6
CONTINUOUS
10
2.9464785433070864
20
-1.3922267322834645
11
2.9343372440944879
21
-1.377356338582677
0
LINE
8
BLACK
6
CONTINUOUS
10
2.9343372440944879
20
-1.377356338582677
11
2.9210387401574804
21
-1.3635111417322834
0
LINE
8
BLACK
6
CONTINUOUS
10
2.9210387401574804
20
-1.3635111417322834
11
2.9066692913385825
21
-1.3507809448818897
0
LINE
8
BLACK
6
CONTINUOUS
10
2.9066692913385825
20
-1.3507809448818897
11
2.8913220866141733
21
-1.3392482677165354
0
LINE
8
BLACK
6
CONTINUOUS
10
2.8913220866141733
20
-1.3392482677165354
11
2.8750966929133859
21
-1.3289879133858267
0
LINE
8
BLACK
6
CONTINUOUS
10
2.8750966929133859
20
-1.3289879133858267
11
2.8580982283464564
21
-1.3200664566929134
0
LINE
8
BLACK
6
CONTINUOUS
10
2.8580982283464564
20
-1.3200664566929134
11
2.8404370472440945
21
-1.3125417322834645
0
LINE
8
BLACK
6
CONTINUOUS
10
2.8404370472440945
20
-1.3125417322834645
11
2.8222276377952755
21
-1.3064625196850392
0
LINE
8
BLACK
6
CONTINUOUS
10
2.8222276377952755
20
-1.3064625196850392
11
2.8035881102362206
21
-1.3018683070866142
0
LINE
8
BLACK
6
CONTINUOUS
10
2.8035881102362206
20
-1.3018683070866142
11
2.7846393307086612
21
-1.2987888188976378
0
LINE
8
BLACK
6
CONTINUOUS
10
2.7846393307086612
20
-1.2987888188976378
11
2.765504212598425
21
-1.2972440944881889
0
LINE
8
BLACK
6
CONTINUOUS
10
2.765504212598425
20
-1.2972440944881889
11
2.7463068110236222
21
-1.2972440944881889
0
LINE
8
BLACK
6
CONTINUOUS
10
2.7463068110236222
20
-1.2972440944881889
11
2.7271716929133856
21
-1.2987888188976378
0
LINE
8
BLACK
6
CONTINUOUS
10
2.7271716929133856
20
-1.2987888188976378
11
2.7082229133858267
21
-1.3018683070866142
0
LINE
8
BLACK
6
CONTINUOUS
10
2.7082229133858267
20
-1.3018683070866142
11
2.6895833858267717
21
-1.3064625196850392
0
LINE
8
BLACK
6
CONTINUOUS
10
2.6895833858267717
20
-1.3064625196850392
11
2.6713739763779527
21
-1.3125417322834645
0
LINE
8
BLACK
6
CONTINUOUS
10
2.6713739763779527
20
-1.3125417322834645
11
2.6537127952755903
21
-1.3200664566929134
0
LINE
8
BLACK
6
CONTINUOUS
10
2.6537127952755903
20
-1.3200664566929134
11
2.6367143700787401
21
-1.3289879133858267
0
LINE
8
BLACK
6
CONTINUOUS
10
2.6367143700787401
20
-1.3289879133858267
11
2.6204889370078739
21
-1.3392482677165354
0
LINE
8
BLACK
6
CONTINUOUS
10
2.6204889370078739
20
-1.3392482677165354
11
2.6051417322834647
21
-1.3507809448818897
0
LINE
8
BLACK
6
CONTINUOUS
10
2.6051417322834647
20
-1.3507809448818897
11
2.5907722834645668
21
-1.3635111417322834
0
LINE
8
BLACK
6
CONTINUOUS
10
2.5907722834645668
20
-1.3635111417322834
11
2.5774737795275589
21
-1.377356338582677
0
LINE
8
BLACK
6
CONTINUOUS
10
2.5774737795275589
20
-1.377356338582677
11
2.5653324803149604
21
-1.3922267322834645
0
LINE
8
BLACK
6
CONTINUOUS
10
2.5653324803149604
20
-1.3922267322834645
11
2.5544271259842519
21
-1.4080258661417322
0
LINE
8
BLACK
6
CONTINUOUS
10
2.5544271259842519
20
-1.4080258661417322
11
2.5448284645669292
21
-1.4246512992125984
0
LINE
8
BLACK
6
CONTINUOUS
10
2.5448284645669292
20
-1.4246512992125984
11
2.5365986614173228
21
-1.4419951574803149
0
LINE
8
BLACK
6
CONTINUOUS
10
2.5365986614173228
20
-1.4419951574803149
11
2.5297911811023623
21
-1.459945
0
LINE
8
BLACK
6
CONTINUOUS
10
2.5297911811023623
20
-1.459945
11
2.5244501574803149
21
-1.4783844488188975
0
LINE
8
BLACK
6
CONTINUOUS
10
2.5244501574803149
20
-1.4783844488188975
11
2.5206101968503938
21
-1.4971938582677164
0
LINE
8
BLACK
6
CONTINUOUS
10
2.5206101968503938
20
-1.4971938582677164
11
2.5182961811023623
21
-1.5162512598425197
0
LINE
8
BLACK
6
CONTINUOUS
10
2.5182961811023623
20
-1.5162512598425197
11
2.5175231889763778
21
-1.5354330708661417
0
LINE
8
BLACK
6
CONTINUOUS
10
2.5175231889763778
20
-1.5354330708661417
11
2.5182961811023623
21
-1.5546148818897638
0
LINE
8
BLACK
6
CONTINUOUS
10
5.7378464960629918
20
-1.2950724409448819
11
5.7570928346456691
21
-1.2982002755905511
0
LINE
8
BLACK
6
CONTINUOUS
10
5.7570928346456691
20
-1.2982002755905511
11
5.7760250787401572
21
-1.3028666929133859
0
LINE
8
BLACK
6
CONTINUOUS
10
5.7760250787401572
20
-1.3028666929133859
11
5.7945204724409445
21
-1.3090413385826771
0
LINE
8
BLACK
6
CONTINUOUS
10
5.7945204724409445
20
-1.3090413385826771
11
5.8124590157480309
21
-1.3166842519685038
0
LINE
8
BLACK
6
CONTINUOUS
10
5.8124590157480309
20
-1.3166842519685038
11
5.8297244094488185
21
-1.3257458267716535
0
LINE
8
BLACK
6
CONTINUOUS
10
5.8297244094488185
20
-1.3257458267716535
11
5.8462046456692915
21
-1.3361672834645668
0
LINE
8
BLACK
6
CONTINUOUS
10
5.8462046456692915
20
-1.3361672834645668
11
5.8617928740157481
21
-1.3478810629921258
0
LINE
8
BLACK
6
CONTINUOUS
10
5.8617928740157481
20
-1.3478810629921258
11
5.8763879921259843
21
-1.360811220472441
0
LINE
8
BLACK
6
CONTINUOUS
10
5.8763879921259843
20
-1.360811220472441
11
5.8898953149606301
21
-1.3748738582677165
0
LINE
8
BLACK
6
CONTINUOUS
10
5.8898953149606301
20
-1.3748738582677165
11
5.9022272834645664
21
-1.3899777559055118
0
LINE
8
BLACK
6
CONTINUOUS
10
5.9022272834645664
20
-1.3899777559055118
11
5.9133038976377952
21
-1.4060249999999999
0
LINE
8
BLACK
6
CONTINUOUS
10
5.9133038976377952
20
-1.4060249999999999
11
5.923053346456693
21
-1.4229114960629921
0
LINE
8
BLACK
6
CONTINUOUS
10
5.923053346456693
20
-1.4229114960629921
11
5.9314123622047239
21
-1.4405277559055119
0
LINE
8
BLACK
6
CONTINUOUS
10
5.9314123622047239
20
-1.4405277559055119
11
5.9383267322834641
21
-1.458759527559055
0
LINE
8
BLACK
6
CONTINUOUS
10
5.9383267322834641
20
-1.458759527559055
11
5.9437516535433073
21
-1.4774885433070866
0
LINE
8
BLACK
6
CONTINUOUS
10
5.9437516535433073
20
-1.4774885433070866
11
5.9476519291338583
21
-1.496593346456693
0
LINE
8
BLACK
6
CONTINUOUS
10
5.9476519291338583
20
-1.496593346456693
11
5.9500022440944882
21
-1.5159500393700787
0
LINE
8
BLACK
6
CONTINUOUS
10
5.9500022440944882
20
-1.5159500393700787
11
5.9507874015748028
21
-1.5354330708661417
0
LINE
8
BLACK
6
CONTINUOUS
10
5.9507874015748028
20
-1.5354330708661417
11
5.9500022440944882
21
-1.5549161023622047
0
LINE
8
BLACK
6
CONTINUOUS
10
5.9500022440944882
20
-1.5549161023622047
11
5.9476519291338583
21
-1.5742727952755906
0
LINE
8
BLACK
6
CONTINUOUS
10
5.9476519291338583
20
-1.5742727952755906
11
5.9437516535433073
21
-1.5933775984251968
0
LINE
8
BLACK
6
CONTINUOUS
10
5.9437516535433073
20
-1.5933775984251968
11
5.9383267322834641
21
-1.6121066141732283
0
LINE
8
BLACK
6
CONTINUOUS
10
5.9383267322834641
20
-1.6121066141732283
11
5.9314123622047239
21
-1.6303383858267717
0
LINE
8
BLACK
6
CONTINUOUS
10
5.9314123622047239
20
-1.6303383858267717
11
5.923053346456693
21
-1.6479546456692913
0
LINE
8
BLACK
6
CONTINUOUS
10
5.923053346456693
20
-1.6479546456692913
11
5.9133038976377952
21
-1.6648411417322835
0
LINE
8
BLACK
6
CONTINUOUS
10
5.9133038976377952
20
-1.6648411417322835
11
5.9022272834645664
21
-1.6808883858267716
0
LINE
8
BLACK
6
CONTINUOUS
10
5.9022272834645664
20
-1.6808883858267716
11
5.8898953149606301
21
-1.6959922834645669
0
LINE
8
BLACK
6
CONTINUOUS
10
5.8898953149606301
20
-1.6959922834645669
11
5.8763879921259843
21
-1.7100549212598424
0
LINE
8
BLACK
6
CONTINUOUS
10
5.8763879921259843
20
-1.7100549212598424
11
5.8617928740157481
21
-1.7229850787401575
0
LINE
8
BLACK
6
CONTINUOUS
10
5.8617928740157481
20
-1.7229850787401575
11
5.8462046456692915
21
-1.7346988582677165
0
LINE
8
BLACK
6
CONTINUOUS
10
5.8462046456692915
20
-1.7346988582677165
11
5.8297244094488185
21
-1.7451203149606298
0
LINE
8
BLACK
6
CONTINUOUS
10
5.8297244094488185
20
-1.7451203149606298
11
5.8124590157480309
21
-1.7541818897637795
0
LINE
8
BLACK
6
CONTINUOUS
10
5.8124590157480309
20
-1.7541818897637795
11
5.7945204724409445
21
-1.7618248031496062
0
LINE
8
BLACK
6
CONTINUOUS
10
5.7945204724409445
20
-1.7618248031496062
11
5.7760250787401572
21
-1.7679994488188977
0
LINE
8
BLACK
6
CONTINUOUS
10
5.7760250787401572
20
-1.7679994488188977
11
5.7570928346456691
21
-1.7726658661417323
0
LINE
8
BLACK
6
CONTINUOUS
10
5.7570928346456691
20
-1.7726658661417323
11
5.7378464960629918
21
-1.7757937007874016
0
LINE
8
BLACK
6
CONTINUOUS
10
5.7378464960629918
20
-1.7757937007874016
11
5.7184108661417321
21
-1.7773626771653543
0
LINE
8
BLACK
6
CONTINUOUS
10
5.7184108661417321
20
-1.7773626771653543
11
5.6989119685039364
21
-1.7773626771653543
0
LINE
8
BLACK
6
CONTINUOUS
10
5.6989119685039364
20
-1.7773626771653543
11
5.6794763385826768
21
-1.7757937007874016
0
LINE
8
BLACK
6
CONTINUOUS
10
5.6794763385826768
20
-1.7757937007874016
11
5.6602299999999994
21
-1.7726658661417323
0
LINE
8
BLACK
6
CONTINUOUS
10
5.6602299999999994
20
-1.7726658661417323
11
5.6412977559055113
21
-1.7679994488188977
0
LINE
8
BLACK
6
CONTINUOUS
10
5.6412977559055113
20
-1.7679994488188977
11
5.6228023622047241
21
-1.7618248031496062
0
LINE
8
BLACK
6
CONTINUOUS
10
5.6228023622047241
20
-1.7618248031496062
11
5.6048638188976376
21
-1.7541818897637795
0
LINE
8
BLACK
6
CONTINUOUS
10
5.6048638188976376
20
-1.7541818897637795
11
5.58759842519685
21
-1.7451203149606298
0
LINE
8
BLACK
6
CONTINUOUS
10
5.58759842519685
20
-1.7451203149606298
11
5.5711181889763779
21
-1.7346988582677165
0
LINE
8
BLACK
6
CONTINUOUS
10
5.5711181889763779
20
-1.7346988582677165
11
5.5555299606299213
21
-1.7229850787401575
0
LINE
8
BLACK
6
CONTINUOUS
10
5.5555299606299213
20
-1.7229850787401575
11
5.5409348425196852
21
-1.7100549212598424
0
LINE
8
BLACK
6
CONTINUOUS
10
5.5409348425196852
20
-1.7100549212598424
11
5.5274275196850393
21
-1.6959922834645669
0
LINE
8
BLACK
6
CONTINUOUS
10
5.5274275196850393
20
-1.6959922834645669
11
5.5150955511811022
21
-1.6808883858267716
0
LINE
8
BLACK
6
CONTINUOUS
10
5.5150955511811022
20
-1.6808883858267716
11
5.5040189370078743
21
-1.6648411417322835
0
LINE
8
BLACK
6
CONTINUOUS
10
5.5040189370078743
20
-1.6648411417322835
11
5.4942694881889764
21
-1.6479546456692913
0
LINE
8
BLACK
6
CONTINUOUS
10
5.4942694881889764
20
-1.6479546456692913
11
5.4859104724409447
21
-1.6303383858267717
0
LINE
8
BLACK
6
CONTINUOUS
10
5.4859104724409447
20
-1.6303383858267717
11
5.4789961023622045
21
-1.6121066141732283
0
LINE
8
BLACK
6
CONTINUOUS
10
5.4789961023622045
20
-1.6121066141732283
11
5.4735711811023622
21
-1.5933775984251968
0
LINE
8
BLACK
6
CONTINUOUS
10
5.4735711811023622
20
-1.5933775984251968
11
5.4696709055118111
21
-1.5742727952755906
0
LINE
8
BLACK
6
CONTINUOUS
10
5.4696709055118111
20
-1.5742727952755906
11
5.4673205905511812
21
-1.5549161023622047
0
LINE
8
BLACK
6
CONTINUOUS
10
5.4673205905511812
20
-1.5549161023622047
11
5.4665354330708658
21
-1.5354330708661417
0
LINE
8
BLACK
6
CONTINUOUS
10
5.4665354330708658
20
-1.5354330708661417
11
5.4673205905511812
21
-1.5159500393700787
0
LINE
8
BLACK
6
CONTINUOUS
10
5.4673205905511812
20
-1.5159500393700787
11
5.4696709055118111
21
-1.496593346456693
0
LINE
8
BLACK
6
CONTINUOUS
10
5.4696709055118111
20
-1.496593346456693
11
5.4735711811023622
21
-1.4774885433070866
0
LINE
8
BLACK
6
CONTINUOUS
10
5.4735711811023622
20
-1.4774885433070866
11
5.4789961023622045
21
-1.458759527559055
0
LINE
8
BLACK
6
CONTINUOUS
10
5.4789961023622045
20
-1.458759527559055
11
5.4859104724409447
21
-1.4405277559055119
0
LINE
8
BLACK
6
CONTINUOUS
10
5.4859104724409447
20
-1.4405277559055119
11
5.4942694881889764
21
-1.4229114960629921
0
LINE
8
BLACK
6
CONTINUOUS
10
5.4942694881889764
20
-1.4229114960629921
11
5.5040189370078743
21
-1.4060249999999999
0
LINE
8
BLACK
6
CONTINUOUS
10
5.5040189370078743
20
-1.4060249999999999
11
5.5150955511811022
21
-1.3899777559055118
0
LINE
8
BLACK
6
CONTINUOUS
10
5.5150955511811022
20
-1.3899777559055118
11
5.5274275196850393
21
-1.3748738582677165
0
LINE
8
BLACK
6
CONTINUOUS
10
5.5274275196850393
20
-1.3748738582677165
11
5.5409348425196852
21
-1.360811220472441
0
LINE
8
BLACK
6
CONTINUOUS
10
5.5409348425196852
20
-1.360811220472441
11
5.5555299606299213
21
-1.3478810629921258
0
LINE
8
BLACK
6
CONTINUOUS
10
5.5555299606299213
20
-1.3478810629921258
11
5.5711181889763779
21
-1.3361672834645668
0
LINE
8
BLACK
6
CONTINUOUS
10
5.5711181889763779
20
-1.3361672834645668
11
5.58759842519685
21
-1.3257458267716535
0
LINE
8
BLACK
6
CONTINUOUS
10
5.58759842519685
20
-1.3257458267716535
11
5.6048638188976376
21
-1.3166842519685038
0
LINE
8
BLACK
6
CONTINUOUS
10
5.6048638188976376
20
-1.3166842519685038
11
5.6228023622047241
21
-1.3090413385826771
0
LINE
8
BLACK
6
CONTINUOUS
10
5.6228023622047241
20
-1.3090413385826771
11
5.6412977559055113
21
-1.3028666929133859
0
LINE
8
BLACK
6
CONTINUOUS
10
5.6412977559055113
20
-1.3028666929133859
11
5.6602299999999994
21
-1.2982002755905511
0
LINE
8
BLACK
6
CONTINUOUS
10
5.6602299999999994
20
-1.2982002755905511
11
5.6794763385826768
21
-1.2950724409448819
0
LINE
8
BLACK
6
CONTINUOUS
10
5.6794763385826768
20
-1.2950724409448819
11
5.6989119685039364
21
-1.293503464566929
0
LINE
8
BLACK
6
CONTINUOUS
10
5.6989119685039364
20
-1.293503464566929
11
5.7184108661417321
21
-1.293503464566929
0
LINE
8
BLACK
6
CONTINUOUS
10
5.7184108661417321
20
-1.293503464566929
11
5.7378464960629918
21
-1.2950724409448819
0
LINE
8
BLACK
6
CONTINUOUS
10
5.471052086614173
20
-1.5546148818897638
11
5.4733661023622044
21
-1.5736722834645669
0
LINE
8
BLACK
6
CONTINUOUS
10
5.4733661023622044
20
-1.5736722834645669
11
5.477206062992126
21
-1.5924816929133858
0
LINE
8
BLACK
6
CONTINUOUS
10
5.477206062992126
20
-1.5924816929133858
11
5.482547086614173
21
-1.6109211417322835
0
LINE
8
BLACK
6
CONTINUOUS
10
5.482547086614173
20
-1.6109211417322835
11
5.4893545669291335
21
-1.6288709842519684
0
LINE
8
BLACK
6
CONTINUOUS
10
5.4893545669291335
20
-1.6288709842519684
11
5.4975843700787399
21
-1.646214842519685
0
LINE
8
BLACK
6
CONTINUOUS
10
5.4975843700787399
20
-1.646214842519685
11
5.507183031496063
21
-1.6628402755905511
0
LINE
8
BLACK
6
CONTINUOUS
10
5.507183031496063
20
-1.6628402755905511
11
5.518088385826772
21
-1.6786394094488188
0
LINE
8
BLACK
6
CONTINUOUS
10
5.518088385826772
20
-1.6786394094488188
11
5.5302296850393695
21
-1.6935098031496063
0
LINE
8
BLACK
6
CONTINUOUS
10
5.5302296850393695
20
-1.6935098031496063
11
5.5435281889763779
21
-1.707355
0
LINE
8
BLACK
6
CONTINUOUS
10
5.5435281889763779
20
-1.707355
11
5.5578976377952758
21
-1.7200851968503936
0
LINE
8
BLACK
6
CONTINUOUS
10
5.5578976377952758
20
-1.7200851968503936
11
5.573244842519685
21
-1.731617874015748
0
LINE
8
BLACK
6
CONTINUOUS
10
5.573244842519685
20
-1.731617874015748
11
5.589470236220472
21
-1.7418782283464567
0
LINE
8
BLACK
6
CONTINUOUS
10
5.589470236220472
20
-1.7418782283464567
11
5.606468700787401
21
-1.7507996850393701
0
LINE
8
BLACK
6
CONTINUOUS
10
5.606468700787401
20
-1.7507996850393701
11
5.6241298818897638
21
-1.7583244094488188
0
LINE
8
BLACK
6
CONTINUOUS
10
5.6241298818897638
20
-1.7583244094488188
11
5.6423392913385824
21
-1.7644036220472441
0
LINE
8
BLACK
6
CONTINUOUS
10
5.6423392913385824
20
-1.7644036220472441
11
5.6609788188976378
21
-1.7689978346456692
0
LINE
8
BLACK
6
CONTINUOUS
10
5.6609788188976378
20
-1.7689978346456692
11
5.6799275984251967
21
-1.7720773228346456
0
LINE
8
BLACK
6
CONTINUOUS
10
5.6799275984251967
20
-1.7720773228346456
11
5.6990627165354333
21
-1.7736220472440944
0
LINE
8
BLACK
6
CONTINUOUS
10
5.6990627165354333
20
-1.7736220472440944
11
5.7182601181102362
21
-1.7736220472440944
0
LINE
8
BLACK
6
CONTINUOUS
10
5.7182601181102362
20
-1.7736220472440944
11
5.7373952362204719
21
-1.7720773228346456
0
LINE
8
BLACK
6
CONTINUOUS
10
5.7373952362204719
20
-1.7720773228346456
11
5.7563440157480317
21
-1.7689978346456692
0
LINE
8
BLACK
6
CONTINUOUS
10
5.7563440157480317
20
-1.7689978346456692
11
5.7749835433070862
21
-1.7644036220472441
0
LINE
8
BLACK
6
CONTINUOUS
10
5.7749835433070862
20
-1.7644036220472441
11
5.7931929527559056
21
-1.7583244094488188
0
LINE
8
BLACK
6
CONTINUOUS
10
5.7931929527559056
20
-1.7583244094488188
11
5.8108541338582675
21
-1.7507996850393701
0
LINE
8
BLACK
6
CONTINUOUS
10
5.8108541338582675
20
-1.7507996850393701
11
5.8278525984251965
21
-1.7418782283464567
0
LINE
8
BLACK
6
CONTINUOUS
10
5.8278525984251965
20
-1.7418782283464567
11
5.8440779921259844
21
-1.731617874015748
0
LINE
8
BLACK
6
CONTINUOUS
10
5.8440779921259844
20
-1.731617874015748
11
5.8594251968503936
21
-1.7200851968503936
0
LINE
8
BLACK
6
CONTINUOUS
10
5.8594251968503936
20
-1.7200851968503936
11
5.8737946456692915
21
-1.707355
0
LINE
8
BLACK
6
CONTINUOUS
10
5.8737946456692915
20
-1.707355
11
5.887093149606299
21
-1.6935098031496063
0
LINE
8
BLACK
6
CONTINUOUS
10
5.887093149606299
20
-1.6935098031496063
11
5.8992344488188975
21
-1.6786394094488188
0
LINE
8
BLACK
6
CONTINUOUS
10
5.8992344488188975
20
-1.6786394094488188
11
5.9101398031496064
21
-1.6628402755905511
0
LINE
8
BLACK
6
CONTINUOUS
10
5.9101398031496064
20
-1.6628402755905511
11
5.9197384645669286
21
-1.646214842519685
0
LINE
8
BLACK
6
CONTINUOUS
10
5.9197384645669286
20
-1.646214842519685
11
5.9279682677165351
21
-1.6288709842519684
0
LINE
8
BLACK
6
CONTINUOUS
10
5.9279682677165351
20
-1.6288709842519684
11
5.9347757480314955
21
-1.6109211417322835
0
LINE
8
BLACK
6
CONTINUOUS
10
5.9347757480314955
20
-1.6109211417322835
11
5.9401167716535435
21
-1.5924816929133858
0
LINE
8
BLACK
6
CONTINUOUS
10
5.9401167716535435
20
-1.5924816929133858
11
5.9439567322834641
21
-1.5736722834645669
0
LINE
8
BLACK
6
CONTINUOUS
10
5.9439567322834641
20
-1.5736722834645669
11
5.9462707480314956
21
-1.5546148818897638
0
LINE
8
BLACK
6
CONTINUOUS
10
5.9462707480314956
20
-1.5546148818897638
11
5.9470437401574801
21
-1.5354330708661417
0
LINE
8
BLACK
6
CONTINUOUS
10
5.9470437401574801
20
-1.5354330708661417
11
5.9462707480314956
21
-1.5162512598425197
0
LINE
8
BLACK
6
CONTINUOUS
10
5.9462707480314956
20
-1.5162512598425197
11
5.9439567322834641
21
-1.4971938582677164
0
LINE
8
BLACK
6
CONTINUOUS
10
5.9439567322834641
20
-1.4971938582677164
11
5.9401167716535435
21
-1.4783844488188975
0
LINE
8
BLACK
6
CONTINUOUS
10
5.9401167716535435
20
-1.4783844488188975
11
5.9347757480314955
21
-1.459945
0
LINE
8
BLACK
6
CONTINUOUS
10
5.9347757480314955
20
-1.459945
11
5.9279682677165351
21
-1.4419951574803149
0
LINE
8
BLACK
6
CONTINUOUS
10
5.9279682677165351
20
-1.4419951574803149
11
5.9197384645669286
21
-1.4246512992125984
0
LINE
8
BLACK
6
CONTINUOUS
10
5.9197384645669286
20
-1.4246512992125984
11
5.9101398031496064
21
-1.4080258661417322
0
LINE
8
BLACK
6
CONTINUOUS
10
5.9101398031496064
20
-1.4080258661417322
11
5.8992344488188975
21
-1.3922267322834645
0
LINE
8
BLACK
6
CONTINUOUS
10
5.8992344488188975
20
-1.3922267322834645
11
5.887093149606299
21
-1.377356338582677
0
LINE
8
BLACK
6
CONTINUOUS
10
5.887093149606299
20
-1.377356338582677
11
5.8737946456692915
21
-1.3635111417322834
0
LINE
8
BLACK
6
CONTINUOUS
10
5.8737946456692915
20
-1.3635111417322834
11
5.8594251968503936
21
-1.3507809448818897
0
LINE
8
BLACK
6
CONTINUOUS
10
5.8594251968503936
20
-1.3507809448818897
11
5.8440779921259844
21
-1.3392482677165354
0
LINE
8
BLACK
6
CONTINUOUS
10
5.8440779921259844
20
-1.3392482677165354
11
5.8278525984251965
21
-1.3289879133858267
0
LINE
8
BLACK
6
CONTINUOUS
10
5.8278525984251965
20
-1.3289879133858267
11
5.8108541338582675
21
-1.3200664566929134
0
LINE
8
BLACK
6
CONTINUOUS
10
5.8108541338582675
20
-1.3200664566929134
11
5.7931929527559056
21
-1.3125417322834645
0
LINE
8
BLACK
6
CONTINUOUS
10
5.7931929527559056
20
-1.3125417322834645
11
5.7749835433070862
21
-1.3064625196850392
0
LINE
8
BLACK
6
CONTINUOUS
10
5.7749835433070862
20
-1.3064625196850392
11
5.7563440157480317
21
-1.3018683070866142
0
LINE
8
BLACK
6
CONTINUOUS
10
5.7563440157480317
20
-1.3018683070866142
11
5.7373952362204719
21
-1.2987888188976378
0
LINE
8
BLACK
6
CONTINUOUS
10
5.7373952362204719
20
-1.2987888188976378
11
5.7182601181102362
21
-1.2972440944881889
0
LINE
8
BLACK
6
CONTINUOUS
10
5.7182601181102362
20
-1.2972440944881889
11
5.6990627165354333
21
-1.2972440944881889
0
LINE
8
BLACK
6
CONTINUOUS
10
5.6990627165354333
20
-1.2972440944881889
11
5.6799275984251967
21
-1.2987888188976378
0
LINE
8
BLACK
6
CONTINUOUS
10
5.6799275984251967
20
-1.2987888188976378
11
5.6609788188976378
21
-1.3018683070866142
0
LINE
8
BLACK
6
CONTINUOUS
10
5.6609788188976378
20
-1.3018683070866142
11
5.6423392913385824
21
-1.3064625196850392
0
LINE
8
BLACK
6
CONTINUOUS
10
5.6423392913385824
20
-1.3064625196850392
11
5.6241298818897638
21
-1.3125417322834645
0
LINE
8
BLACK
6
CONTINUOUS
10
5.6241298818897638
20
-1.3125417322834645
11
5.606468700787401
21
-1.3200664566929134
0
LINE
8
BLACK
6
CONTINUOUS
10
5.606468700787401
20
-1.3200664566929134
11
5.5894702755905508
21
-1.3289879133858267
0
LINE
8
BLACK
6
CONTINUOUS
10
5.5894702755905508
20
-1.3289879133858267
11
5.573244842519685
21
-1.3392482677165354
0
LINE
8
BLACK
6
CONTINUOUS
10
5.573244842519685
20
-1.3392482677165354
11
5.5578976377952758
21
-1.3507809448818897
0
LINE
8
BLACK
6
CONTINUOUS
10
5.5578976377952758
20
-1.3507809448818897
11
5.5435281889763779
21
-1.3635111417322834
0
LINE
8
BLACK
6
CONTINUOUS
10
5.5435281889763779
20
-1.3635111417322834
11
5.5302296850393695
21
-1.377356338582677
0
LINE
8
BLACK
6
CONTINUOUS
10
5.5302296850393695
20
-1.377356338582677
11
5.518088385826772
21
-1.3922267322834645
0
LINE
8
BLACK
6
CONTINUOUS
10
5.518088385826772
20
-1.3922267322834645
11
5.507183031496063
21
-1.4080258661417322
0
LINE
8
BLACK
6
CONTINUOUS
10
5.507183031496063
20
-1.4080258661417322
11
5.4975843700787399
21
-1.4246512992125984
0
LINE
8
BLACK
6
CONTINUOUS
10
5.4975843700787399
20
-1.4246512992125984
11
5.4893545669291335
21
-1.4419951574803149
0
LINE
8
BLACK
6
CONTINUOUS
10
5.4893545669291335
20
-1.4419951574803149
11
5.482547086614173
21
-1.459945
0
LINE
8
BLACK
6
CONTINUOUS
10
5.482547086614173
20
-1.459945
11
5.477206062992126
21
-1.4783844488188975
0
LINE
8
BLACK
6
CONTINUOUS
10
5.477206062992126
20
-1.4783844488188975
11
5.4733661023622044
21
-1.4971938582677164
0
LINE
8
BLACK
6
CONTINUOUS
10
5.4733661023622044
20
-1.4971938582677164
11
5.471052086614173
21
-1.5162512598425197
0
LINE
8
BLACK
6
CONTINUOUS
10
5.471052086614173
20
-1.5162512598425197
11
5.4702790944881885
21
-1.5354330708661417
0
LINE
8
BLACK
6
CONTINUOUS
10
5.4702790944881885
20
-1.5354330708661417
11
5.471052086614173
21
-1.5546148818897638
0
LINE
8
BLACK
6
CONTINUOUS
10
3.7086614173228347
20
-0.9822834645669292
11
4.015748031496063
21
-0.9822834645669292
0
LINE
8
BLACK
6
CONTINUOUS
10
4.015748031496063
20
-0.9822834645669292
11
4.0162323622047245
21
-0.9823798031496063
0
LINE
8
BLACK
6
CONTINUOUS
10
4.0162323622047245
20
-0.9823798031496063
11
4.0163563385826775
21
-0.9823798031496063
0
LINE
8
BLACK
6
CONTINUOUS
10
4.0163563385826775
20
-0.9823798031496063
11
4.0164030708661418
21
-0.9824137401574803
0
LINE
8
BLACK
6
CONTINUOUS
10
4.0164030708661418
20
-0.9824137401574803
11
4.0165013385826773
21
-0.9824333070866141
0
LINE
8
BLACK
6
CONTINUOUS
10
4.0165013385826773
20
-0.9824333070866141
11
4.0166909448818897
21
-0.9826229133858267
0
LINE
8
BLACK
6
CONTINUOUS
10
4.0166909448818897
20
-0.9826229133858267
11
4.0173405905511812
21
-0.9830949212598425
0
LINE
8
BLACK
6
CONTINUOUS
10
4.0173405905511812
20
-0.9830949212598425
11
4.0174260629921257
21
-0.9833580314960629
0
LINE
8
BLACK
6
CONTINUOUS
10
4.0174260629921257
20
-0.9833580314960629
11
4.0175666929133858
21
-0.9834986614173228
0
LINE
8
BLACK
6
CONTINUOUS
10
4.0175666929133858
20
-0.9834986614173228
11
4.0175666929133858
21
-0.9837907874015748
0
LINE
8
BLACK
6
CONTINUOUS
10
4.0175666929133858
20
-0.9837907874015748
11
4.0177165354330704
21
-0.984251968503937
0
LINE
8
BLACK
6
CONTINUOUS
10
4.0177165354330704
20
-0.984251968503937
11
4.0177165354330704
21
-0.9927607086614173
0
LINE
8
BLACK
6
CONTINUOUS
10
4.0177165354330704
20
-0.9927607086614173
11
4.0191996850393696
21
-1.0097133858267717
0
LINE
8
BLACK
6
CONTINUOUS
10
4.0191996850393696
20
-1.0097133858267717
11
4.0221547637795272
21
-1.0264723228346457
0
LINE
8
BLACK
6
CONTINUOUS
10
4.0221547637795272
20
-1.0264723228346457
11
4.0265591732283461
21
-1.0429099212598425
0
LINE
8
BLACK
6
CONTINUOUS
10
4.0265591732283461
20
-1.0429099212598425
11
4.0323794881889761
21
-1.0589011023622048
0
LINE
8
BLACK
6
CONTINUOUS
10
4.0323794881889761
20
-1.0589011023622048
11
4.0395713779527558
21
-1.0743241338582676
0
LINE
8
BLACK
6
CONTINUOUS
10
4.0395713779527558
20
-1.0743241338582676
11
4.0480801181102359
21
-1.0890616929133858
0
LINE
8
BLACK
6
CONTINUOUS
10
4.0480801181102359
20
-1.0890616929133858
11
4.0578409448818897
21
-1.1030015748031496
0
LINE
8
BLACK
6
CONTINUOUS
10
4.0578409448818897
20
-1.1030015748031496
11
4.0687795275590553
21
-1.1160377165354332
0
LINE
8
BLACK
6
CONTINUOUS
10
4.0687795275590553
20
-1.1160377165354332
11
4.0808126771653539
21
-1.1280708661417322
0
LINE
8
BLACK
6
CONTINUOUS
10
4.0808126771653539
20
-1.1280708661417322
11
4.0938488188976381
21
-1.1390094488188975
0
LINE
8
BLACK
6
CONTINUOUS
10
4.0938488188976381
20
-1.1390094488188975
11
4.1077887007874017
21
-1.1487702755905511
0
LINE
8
BLACK
6
CONTINUOUS
10
4.1077887007874017
20
-1.1487702755905511
11
4.1225262598425196
21
-1.1572790157480315
0
LINE
8
BLACK
6
CONTINUOUS
10
4.1225262598425196
20
-1.1572790157480315
11
4.1379492913385825
21
-1.164470905511811
0
LINE
8
BLACK
6
CONTINUOUS
10
4.1379492913385825
20
-1.164470905511811
11
4.1539404724409446
21
-1.1702912204724409
0
LINE
8
BLACK
6
CONTINUOUS
10
4.1539404724409446
20
-1.1702912204724409
11
4.1703780708661418
21
-1.1746956299212599
0
LINE
8
BLACK
6
CONTINUOUS
10
4.1703780708661418
20
-1.1746956299212599
11
4.187137007874016
21
-1.1776507086614172
0
LINE
8
BLACK
6
CONTINUOUS
10
4.187137007874016
20
-1.1776507086614172
11
4.2040896850393699
21
-1.1791338582677164
0
LINE
8
BLACK
6
CONTINUOUS
10
4.2040896850393699
20
-1.1791338582677164
11
4.2211071653543302
21
-1.1791338582677164
0
LINE
8
BLACK
6
CONTINUOUS
10
4.2211071653543302
20
-1.1791338582677164
11
4.2380598425196849
21
-1.1776507086614172
0
LINE
8
BLACK
6
CONTINUOUS
10
4.2380598425196849
20
-1.1776507086614172
11
4.2548187795275592
21
-1.1746956299212599
0
LINE
8
BLACK
6
CONTINUOUS
10
4.2548187795275592
20
-1.1746956299212599
11
4.2712563779527555
21
-1.1702912204724409
0
LINE
8
BLACK
6
CONTINUOUS
10
4.2712563779527555
20
-1.1702912204724409
11
4.2872475590551185
21
-1.164470905511811
0
LINE
8
BLACK
6
CONTINUOUS
10
4.2872475590551185
20
-1.164470905511811
11
4.3026705905511813
21
-1.1572790157480315
0
LINE
8
BLACK
6
CONTINUOUS
10
4.3026705905511813
20
-1.1572790157480315
11
4.3174081496062993
21
-1.1487702755905511
0
LINE
8
BLACK
6
CONTINUOUS
10
4.3174081496062993
20
-1.1487702755905511
11
4.3313480314960628
21
-1.1390094488188975
0
LINE
8
BLACK
6
CONTINUOUS
10
4.3313480314960628
20
-1.1390094488188975
11
4.3443841732283461
21
-1.1280708661417322
0
LINE
8
BLACK
6
CONTINUOUS
10
4.3443841732283461
20
-1.1280708661417322
11
4.3564173228346457
21
-1.1160377165354332
0
LINE
8
BLACK
6
CONTINUOUS
10
4.3564173228346457
20
-1.1160377165354332
11
4.3673559055118112
21
-1.1030015748031496
0
LINE
8
BLACK
6
CONTINUOUS
10
4.3673559055118112
20
-1.1030015748031496
11
4.3771167322834641
21
-1.0890616929133858
0
LINE
8
BLACK
6
CONTINUOUS
10
4.3771167322834641
20
-1.0890616929133858
11
4.3856254724409451
21
-1.0743241338582676
0
LINE
8
BLACK
6
CONTINUOUS
10
4.3856254724409451
20
-1.0743241338582676
11
4.392817362204724
21
-1.0589011023622048
0
LINE
8
BLACK
6
CONTINUOUS
10
4.392817362204724
20
-1.0589011023622048
11
4.3986376771653539
21
-1.0429099212598425
0
LINE
8
BLACK
6
CONTINUOUS
10
4.3986376771653539
20
-1.0429099212598425
11
4.4030420866141728
21
-1.0264723228346457
0
LINE
8
BLACK
6
CONTINUOUS
10
4.4030420866141728
20
-1.0264723228346457
11
4.4059971653543304
21
-1.0097133858267717
0
LINE
8
BLACK
6
CONTINUOUS
10
4.4059971653543304
20
-1.0097133858267717
11
4.4074803149606296
21
-0.9927607086614173
0
LINE
8
BLACK
6
CONTINUOUS
10
4.4074803149606296
20
-0.9927607086614173
11
4.4074803149606296
21
-0.984251968503937
0
LINE
8
BLACK
6
CONTINUOUS
10
4.4074803149606296
20
-0.984251968503937
11
4.4076301574803152
21
-0.9837907874015748
0
LINE
8
BLACK
6
CONTINUOUS
10
4.4076301574803152
20
-0.9837907874015748
11
4.4076301574803152
21
-0.9834986614173228
0
LINE
8
BLACK
6
CONTINUOUS
10
4.4076301574803152
20
-0.9834986614173228
11
4.4077707480314956
21
-0.9833580314960629
0
LINE
8
BLACK
6
CONTINUOUS
10
4.4077707480314956
20
-0.9833580314960629
11
4.4078562598425197
21
-0.9830949212598425
0
LINE
8
BLACK
6
CONTINUOUS
10
4.4078562598425197
20
-0.9830949212598425
11
4.4085058661417325
21
-0.9826229133858267
0
LINE
8
BLACK
6
CONTINUOUS
10
4.4085058661417325
20
-0.9826229133858267
11
4.4086955118110236
21
-0.9824333070866141
0
LINE
8
BLACK
6
CONTINUOUS
10
4.4086955118110236
20
-0.9824333070866141
11
4.4087937401574804
21
-0.9824137401574803
0
LINE
8
BLACK
6
CONTINUOUS
10
4.4087937401574804
20
-0.9824137401574803
11
4.4088405118110234
21
-0.9823798031496063
0
LINE
8
BLACK
6
CONTINUOUS
10
4.4088405118110234
20
-0.9823798031496063
11
4.4089644881889765
21
-0.9823798031496063
0
LINE
8
BLACK
6
CONTINUOUS
10
4.4089644881889765
20
-0.9823798031496063
11
4.409448818897638
21
-0.9822834645669292
0
LINE
8
BLACK
6
CONTINUOUS
10
4.409448818897638
20
-0.9822834645669292
11
4.8897637795275593
21
-0.9822834645669292
0
LINE
8
BLACK
6
CONTINUOUS
10
4.8897637795275593
20
-0.9822834645669292
11
7.4409448818897639
21
-0.9822834645669292
0
LINE
8
BLACK
6
CONTINUOUS
10
7.4409448818897639
20
-0.9822834645669292
11
7.448123267716535
21
-0.9829114960629921
0
LINE
8
BLACK
6
CONTINUOUS
10
7.448123267716535
20
-0.9829114960629921
11
7.4550835039370078
21
-0.9847764960629921
0
LINE
8
BLACK
6
CONTINUOUS
10
7.4550835039370078
20
-0.9847764960629921
11
7.4616141732283463
21
-0.9878217716535432
0
LINE
8
BLACK
6
CONTINUOUS
10
7.4616141732283463
20
-0.9878217716535432
11
7.4675168110236223
21
-0.991954842519685
0
LINE
8
BLACK
6
CONTINUOUS
10
7.4675168110236223
20
-0.991954842519685
11
7.4726120866141734
21
-0.9970501181102362
0
LINE
8
BLACK
6
CONTINUOUS
10
7.4726120866141734
20
-0.9970501181102362
11
7.4767451574803152
21
-1.0029527559055118
0
LINE
8
BLACK
6
CONTINUOUS
10
7.4767451574803152
20
-1.0029527559055118
11
7.4797904330708658
21
-1.0094834251968503
0
LINE
8
BLACK
6
CONTINUOUS
10
7.4797904330708658
20
-1.0094834251968503
11
7.4816554330708662
21
-1.0164436614173229
0
LINE
8
BLACK
6
CONTINUOUS
10
7.4816554330708662
20
-1.0164436614173229
11
7.4822834645669287
21
-1.0236220472440944
0
LINE
8
BLACK
6
CONTINUOUS
10
7.4822834645669287
20
-1.0236220472440944
11
7.4822834645669287
21
-1.1023622047244095
0
LINE
8
BLACK
6
CONTINUOUS
10
7.4822834645669287
20
-1.1023622047244095
11
7.4822834645669287
21
-1.1088845669291338
0
LINE
8
BLACK
6
CONTINUOUS
10
7.4822834645669287
20
-1.1088845669291338
11
7.4837440157480311
21
-1.1218473228346457
0
LINE
8
BLACK
6
CONTINUOUS
10
7.4837440157480311
20
-1.1218473228346457
11
7.4866467716535432
21
-1.134565
0
LINE
8
BLACK
6
CONTINUOUS
10
7.4866467716535432
20
-1.134565
11
7.4909551574803146
21
-1.1468777559055119
0
LINE
8
BLACK
6
CONTINUOUS
10
7.4909551574803146
20
-1.1468777559055119
11
7.4966150787401569
21
-1.1586306692913386
0
LINE
8
BLACK
6
CONTINUOUS
10
7.4966150787401569
20
-1.1586306692913386
11
7.5035553149606296
21
-1.1696759842519684
0
LINE
8
BLACK
6
CONTINUOUS
10
7.5035553149606296
20
-1.1696759842519684
11
7.5116885826771655
21
-1.1798748031496062
0
LINE
8
BLACK
6
CONTINUOUS
10
7.5116885826771655
20
-1.1798748031496062
11
7.5209125984251965
21
-1.1890988188976377
0
LINE
8
BLACK
6
CONTINUOUS
10
7.5209125984251965
20
-1.1890988188976377
11
7.5311114173228342
21
-1.1972320866141732
0
LINE
8
BLACK
6
CONTINUOUS
10
7.5311114173228342
20
-1.1972320866141732
11
7.5421567322834644
21
-1.2041723228346457
0
LINE
8
BLACK
6
CONTINUOUS
10
7.5421567322834644
20
-1.2041723228346457
11
7.5539096456692914
21
-1.2098322440944882
0
LINE
8
BLACK
6
CONTINUOUS
10
7.5539096456692914
20
-1.2098322440944882
11
7.5662224015748034
21
-1.2141406299212598
0
LINE
8
BLACK
6
CONTINUOUS
10
7.5662224015748034
20
-1.2141406299212598
11
7.5789400787401577
21
-1.2170433858267715
0
LINE
8
BLACK
6
CONTINUOUS
10
7.5789400787401577
20
-1.2170433858267715
11
7.5919028346456692
21
-1.2185039370078741
0
LINE
8
BLACK
6
CONTINUOUS
10
7.5919028346456692
20
-1.2185039370078741
11
7.5984251968503935
21
-1.2185039370078741
0
LINE
8
BLACK
6
CONTINUOUS
10
7.5984251968503935
20
-1.2185039370078741
11
7.6056035826771655
21
-1.219131968503937
0
LINE
8
BLACK
6
CONTINUOUS
10
7.6056035826771655
20
-1.219131968503937
11
7.6125638188976374
21
-1.220996968503937
0
LINE
8
BLACK
6
CONTINUOUS
10
7.6125638188976374
20
-1.220996968503937
11
7.6190944881889759
21
-1.2240422440944883
0
LINE
8
BLACK
6
CONTINUOUS
10
7.6190944881889759
20
-1.2240422440944883
11
7.6249971259842519
21
-1.2281753149606298
0
LINE
8
BLACK
6
CONTINUOUS
10
7.6249971259842519
20
-1.2281753149606298
11
7.6300924015748031
21
-1.2332705905511812
0
LINE
8
BLACK
6
CONTINUOUS
10
7.6300924015748031
20
-1.2332705905511812
11
7.6342254724409448
21
-1.2391732283464567
0
LINE
8
BLACK
6
CONTINUOUS
10
7.6342254724409448
20
-1.2391732283464567
11
7.6372707480314963
21
-1.2457038976377952
0
LINE
8
BLACK
6
CONTINUOUS
10
7.6372707480314963
20
-1.2457038976377952
11
7.6391357480314959
21
-1.2526641338582676
0
LINE
8
BLACK
6
CONTINUOUS
10
7.6391357480314959
20
-1.2526641338582676
11
7.6397637795275593
21
-1.2598425196850394
0
LINE
8
BLACK
6
CONTINUOUS
10
7.6397637795275593
20
-1.2598425196850394
11
7.6397637795275593
21
-5.0787401574803148
0
LINE
8
BLACK
6
CONTINUOUS
10
7.6397637795275593
20
-5.0787401574803148
11
7.6391357480314959
21
-5.0859185433070868
0
LINE
8
BLACK
6
CONTINUOUS
10
7.6391357480314959
20
-5.0859185433070868
11
7.6372707480314963
21
-5.0928787795275587
0
LINE
8
BLACK
6
CONTINUOUS
10
7.6372707480314963
20
-5.0928787795275587
11
7.6342254724409448
21
-5.0994094488188972
0
LINE
8
BLACK
6
CONTINUOUS
10
7.6342254724409448
20
-5.0994094488188972
11
7.6300924015748031
21
-5.1053120866141732
0
LINE
8
BLACK
6
CONTINUOUS
10
7.6300924015748031
20
-5.1053120866141732
11
7.6249971259842519
21
-5.1104073622047244
0
LINE
8
BLACK
6
CONTINUOUS
10
7.6249971259842519
20
-5.1104073622047244
11
7.6190944881889759
21
-5.1145404330708661
0
LINE
8
BLACK
6
CONTINUOUS
10
7.6190944881889759
20
-5.1145404330708661
11
7.6125638188976374
21
-5.1175857086614176
0
LINE
8
BLACK
6
CONTINUOUS
10
7.6125638188976374
20
-5.1175857086614176
11
7.6056035826771655
21
-5.1194507086614172
0
LINE
8
BLACK
6
CONTINUOUS
10
7.6056035826771655
20
-5.1194507086614172
11
7.5984251968503935
21
-5.1200787401574805
0
LINE
8
BLACK
6
CONTINUOUS
10
7.5984251968503935
20
-5.1200787401574805
11
7.5919028346456692
21
-5.1200787401574805
0
LINE
8
BLACK
6
CONTINUOUS
10
7.5919028346456692
20
-5.1200787401574805
11
7.5789400787401577
21
-5.1215392913385829
0
LINE
8
BLACK
6
CONTINUOUS
10
7.5789400787401577
20
-5.1215392913385829
11
7.5662224015748034
21
-5.1244420472440941
0
LINE
8
BLACK
6
CONTINUOUS
10
7.5662224015748034
20
-5.1244420472440941
11
7.5539096456692914
21
-5.1287504330708664
0
LINE
8
BLACK
6
CONTINUOUS
10
7.5539096456692914
20
-5.1287504330708664
11
7.5421567322834644
21
-5.1344103543307087
0
LINE
8
BLACK
6
CONTINUOUS
10
7.5421567322834644
20
-5.1344103543307087
11
7.5311114173228342
21
-5.1413505905511814
0
LINE
8
BLACK
6
CONTINUOUS
10
7.5311114173228342
20
-5.1413505905511814
11
7.5209125984251965
21
-5.1494838582677165
0
LINE
8
BLACK
6
CONTINUOUS
10
7.5209125984251965
20
-5.1494838582677165
11
7.5116885826771655
21
-5.1587078740157475
0
LINE
8
BLACK
6
CONTINUOUS
10
7.5116885826771655
20
-5.1587078740157475
11
7.5035553149606296
21
-5.168906692913386
0
LINE
8
BLACK
6
CONTINUOUS
10
7.5035553149606296
20
-5.168906692913386
11
7.4966150787401569
21
-5.1799520078740153
0
LINE
8
BLACK
6
CONTINUOUS
10
7.4966150787401569
20
-5.1799520078740153
11
7.4909551574803146
21
-5.1917049212598423
0
LINE
8
BLACK
6
CONTINUOUS
10
7.4909551574803146
20
-5.1917049212598423
11
7.4866467716535432
21
-5.2040176771653543
0
LINE
8
BLACK
6
CONTINUOUS
10
7.4866467716535432
20
-5.2040176771653543
11
7.4837440157480311
21
-5.2167353543307087
0
LINE
8
BLACK
6
CONTINUOUS
10
7.4837440157480311
20
-5.2167353543307087
11
7.4822834645669287
21
-5.2296981102362201
0
LINE
8
BLACK
6
CONTINUOUS
10
7.4822834645669287
20
-5.2296981102362201
11
7.4822834645669287
21
-5.2362204724409445
0
LINE
8
BLACK
6
CONTINUOUS
10
7.4822834645669287
20
-5.2362204724409445
11
7.4822834645669287
21
-5.3149606299212593
0
LINE
8
BLACK
6
CONTINUOUS
10
7.4822834645669287
20
-5.3149606299212593
11
7.4816554330708662
21
-5.3221390157480313
0
LINE
8
BLACK
6
CONTINUOUS
10
7.4816554330708662
20
-5.3221390157480313
11
7.4797904330708658
21
-5.3290992519685041
0
LINE
8
BLACK
6
CONTINUOUS
10
7.4797904330708658
20
-5.3290992519685041
11
7.4767451574803152
21
-5.3356299212598426
0
LINE
8
BLACK
6
CONTINUOUS
10
7.4767451574803152
20
-5.3356299212598426
11
7.4726120866141734
21
-5.3415325590551177
0
LINE
8
BLACK
6
CONTINUOUS
10
7.4726120866141734
20
-5.3415325590551177
11
7.4675168110236223
21
-5.3466278346456688
0
LINE
8
BLACK
6
CONTINUOUS
10
7.4675168110236223
20
-5.3466278346456688
11
7.4616141732283463
21
-5.3507609055118106
0
LINE
8
BLACK
6
CONTINUOUS
10
7.4616141732283463
20
-5.3507609055118106
11
7.4550835039370078
21
-5.3538061811023621
0
LINE
8
BLACK
6
CONTINUOUS
10
7.4550835039370078
20
-5.3538061811023621
11
7.448123267716535
21
-5.3556711811023625
0
LINE
8
BLACK
6
CONTINUOUS
10
7.448123267716535
20
-5.3556711811023625
11
7.4409448818897639
21
-5.356299212598425
0
LINE
8
BLACK
6
CONTINUOUS
10
7.4409448818897639
20
-5.356299212598425
11
4.409448818897638
21
-5.356299212598425
0
LINE
8
BLACK
6
CONTINUOUS
10
4.409448818897638
20
-5.356299212598425
11
0.984251968503937
21
-5.356299212598425
0
LINE
8
BLACK
6
CONTINUOUS
10
0.984251968503937
20
-5.356299212598425
11
0.9770735826771654
21
-5.3556711811023625
0
LINE
8
BLACK
6
CONTINUOUS
10
0.9770735826771654
20
-5.3556711811023625
11
0.9701133464566929
21
-5.3538061811023621
0
LINE
8
BLACK
6
CONTINUOUS
10
0.9701133464566929
20
-5.3538061811023621
11
0.9635826771653543
21
-5.3507609055118106
0
LINE
8
BLACK
6
CONTINUOUS
10
0.9635826771653543
20
-5.3507609055118106
11
0.9576800393700787
21
-5.3466278346456688
0
LINE
8
BLACK
6
CONTINUOUS
10
0.9576800393700787
20
-5.3466278346456688
11
0.9525847637795275
21
-5.3415325590551177
0
LINE
8
BLACK
6
CONTINUOUS
10
0.9525847637795275
20
-5.3415325590551177
11
0.9484516929133858
21
-5.3356299212598426
0
LINE
8
BLACK
6
CONTINUOUS
10
0.9484516929133858
20
-5.3356299212598426
11
0.9454064173228346
21
-5.3290992519685041
0
LINE
8
BLACK
6
CONTINUOUS
10
0.9454064173228346
20
-5.3290992519685041
11
0.9435414173228346
21
-5.3221390157480313
0
LINE
8
BLACK
6
CONTINUOUS
10
0.9435414173228346
20
-5.3221390157480313
11
0.9429133858267716
21
-5.3149606299212593
0
LINE
8
BLACK
6
CONTINUOUS
10
0.9429133858267716
20
-5.3149606299212593
11
0.9429133858267716
21
-5.2362204724409445
0
LINE
8
BLACK
6
CONTINUOUS
10
0.9429133858267716
20
-5.2362204724409445
11
0.9429133858267716
21
-5.2296981102362201
0
LINE
8
BLACK
6
CONTINUOUS
10
0.9429133858267716
20
-5.2296981102362201
11
0.9414528346456693
21
-5.2167353543307087
0
LINE
8
BLACK
6
CONTINUOUS
10
0.9414528346456693
20
-5.2167353543307087
11
0.9385500787401575
21
-5.2040176771653543
0
LINE
8
BLACK
6
CONTINUOUS
10
0.9385500787401575
20
-5.2040176771653543
11
0.9342416929133858
21
-5.1917049212598423
0
LINE
8
BLACK
6
CONTINUOUS
10
0.9342416929133858
20
-5.1917049212598423
11
0.9285817716535433
21
-5.1799520078740153
0
LINE
8
BLACK
6
CONTINUOUS
10
0.9285817716535433
20
-5.1799520078740153
11
0.9216415354330708
21
-5.168906692913386
0
LINE
8
BLACK
6
CONTINUOUS
10
0.9216415354330708
20
-5.168906692913386
11
0.9135082677165354
21
-5.1587078740157475
0
LINE
8
BLACK
6
CONTINUOUS
10
0.9135082677165354
20
-5.1587078740157475
11
0.9042842519685039
21
-5.1494838582677165
0
LINE
8
BLACK
6
CONTINUOUS
10
0.9042842519685039
20
-5.1494838582677165
11
0.8940854330708661
21
-5.1413505905511814
0
LINE
8
BLACK
6
CONTINUOUS
10
0.8940854330708661
20
-5.1413505905511814
11
0.8830401181102362
21
-5.1344103543307087
0
LINE
8
BLACK
6
CONTINUOUS
10
0.8830401181102362
20
-5.1344103543307087
11
0.8712872047244095
21
-5.1287504330708664
0
LINE
8
BLACK
6
CONTINUOUS
10
0.8712872047244095
20
-5.1287504330708664
11
0.8589744488188976
21
-5.1244420472440941
0
LINE
8
BLACK
6
CONTINUOUS
10
0.8589744488188976
20
-5.1244420472440941
11
0.8462567716535433
21
-5.1215392913385829
0
LINE
8
BLACK
6
CONTINUOUS
10
0.8462567716535433
20
-5.1215392913385829
11
0.8332940157480315
21
-5.1200787401574805
0
LINE
8
BLACK
6
CONTINUOUS
10
0.8332940157480315
20
-5.1200787401574805
11
0.8267716535433071
21
-5.1200787401574805
0
LINE
8
BLACK
6
CONTINUOUS
10
0.8267716535433071
20
-5.1200787401574805
11
0.8195932677165354
21
-5.1194507086614172
0
LINE
8
BLACK
6
CONTINUOUS
10
0.8195932677165354
20
-5.1194507086614172
11
0.8126330314960629
21
-5.1175857086614176
0
LINE
8
BLACK
6
CONTINUOUS
10
0.8126330314960629
20
-5.1175857086614176
11
0.8061023622047244
21
-5.1145404330708661
0
LINE
8
BLACK
6
CONTINUOUS
10
0.8061023622047244
20
-5.1145404330708661
11
0.8001997244094488
21
-5.1104073622047244
0
LINE
8
BLACK
6
CONTINUOUS
10
0.8001997244094488
20
-5.1104073622047244
11
0.7951044488188976
21
-5.1053120866141732
0
LINE
8
BLACK
6
CONTINUOUS
10
0.7951044488188976
20
-5.1053120866141732
11
0.7909713779527558
21
-5.0994094488188972
0
LINE
8
BLACK
6
CONTINUOUS
10
0.7909713779527558
20
-5.0994094488188972
11
0.7879261023622047
21
-5.0928787795275587
0
LINE
8
BLACK
6
CONTINUOUS
10
0.7879261023622047
20
-5.0928787795275587
11
0.7860611023622047
21
-5.0859185433070868
0
LINE
8
BLACK
6
CONTINUOUS
10
0.7860611023622047
20
-5.0859185433070868
11
0.7854330708661417
21
-5.0787401574803148
0
LINE
8
BLACK
6
CONTINUOUS
10
0.7854330708661417
20
-5.0787401574803148
11
0.7854330708661417
21
-1.2598425196850394
0
LINE
8
BLACK
6
CONTINUOUS
10
0.7854330708661417
20
-1.2598425196850394
11
0.7860611023622047
21
-1.2526641338582676
0
LINE
8
BLACK
6
CONTINUOUS
10
0.7860611023622047
20
-1.2526641338582676
11
0.7879261023622047
21
-1.2457038976377952
0
LINE
8
BLACK
6
CONTINUOUS
10
0.7879261023622047
20
-1.2457038976377952
11
0.7909713779527558
21
-1.2391732283464567
0
LINE
8
BLACK
6
CONTINUOUS
10
0.7909713779527558
20
-1.2391732283464567
11
0.7951044488188976
21
-1.2332705905511812
0
LINE
8
BLACK
6
CONTINUOUS
10
0.7951044488188976
20
-1.2332705905511812
11
0.8001997244094488
21
-1.2281753149606298
0
LINE
8
BLACK
6
CONTINUOUS
10
0.8001997244094488
20
-1.2281753149606298
11
0.8061023622047244
21
-1.2240422440944883
0
LINE
8
BLACK
6
CONTINUOUS
10
0.8061023622047244
20
-1.2240422440944883
11
0.8126330314960629
21
-1.220996968503937
0
LINE
8
BLACK
6
CONTINUOUS
10
0.8126330314960629
20
-1.220996968503937
11
0.8195932677165354
21
-1.219131968503937
0
LINE
8
BLACK
6
CONTINUOUS
10
0.8195932677165354
20
-1.219131968503937
11
0.8267716535433071
21
-1.2185039370078741
0
LINE
8
BLACK
6
CONTINUOUS
10
0.8267716535433071
20
-1.2185039370078741
11
0.8332940157480315
21
-1.2185039370078741
0
LINE
8
BLACK
6
CONTINUOUS
10
0.8332940157480315
20
-1.2185039370078741
11
0.8462567716535433
21
-1.2170433858267715
0
LINE
8
BLACK
6
CONTINUOUS
10
0.8462567716535433
20
-1.2170433858267715
11
0.8589744488188976
21
-1.2141406299212598
0
LINE
8
BLACK
6
CONTINUOUS
10
0.8589744488188976
20
-1.2141406299212598
11
0.8712872047244095
21
-1.2098322440944882
0
LINE
8
BLACK
6
CONTINUOUS
10
0.8712872047244095
20
-1.2098322440944882
11
0.8830401181102362
21
-1.2041723228346457
0
LINE
8
BLACK
6
CONTINUOUS
10
0.8830401181102362
20
-1.2041723228346457
11
0.8940854330708661
21
-1.1972320866141732
0
LINE
8
BLACK
6
CONTINUOUS
10
0.8940854330708661
20
-1.1972320866141732
11
0.9042842519685039
21
-1.1890988188976377
0
LINE
8
BLACK
6
CONTINUOUS
10
0.9042842519685039
20
-1.1890988188976377
11
0.9135082677165354
21
-1.1798748031496062
0
LINE
8
BLACK
6
CONTINUOUS
10
0.9135082677165354
20
-1.1798748031496062
11
0.9216415354330708
21
-1.1696759842519684
0
LINE
8
BLACK
6
CONTINUOUS
10
0.9216415354330708
20
-1.1696759842519684
11
0.9285817716535433
21
-1.1586306692913386
0
LINE
8
BLACK
6
CONTINUOUS
10
0.9285817716535433
20
-1.1586306692913386
11
0.9342416929133858
21
-1.1468777559055119
0
LINE
8
BLACK
6
CONTINUOUS
10
0.9342416929133858
20
-1.1468777559055119
11
0.9385500787401575
21
-1.134565
0
LINE
8
BLACK
6
CONTINUOUS
10
0.9385500787401575
20
-1.134565
11
0.9414528346456693
21
-1.1218473228346457
0
LINE
8
BLACK
6
CONTINUOUS
10
0.9414528346456693
20
-1.1218473228346457
11
0.9429133858267716
21
-1.1088845669291338
0
LINE
8
BLACK
6
CONTINUOUS
10
0.9429133858267716
20
-1.1088845669291338
11
0.9429133858267716
21
-1.1023622047244095
0
LINE
8
BLACK
6
CONTINUOUS
10
0.9429133858267716
20
-1.1023622047244095
11
0.9429133858267716
21
-1.0236220472440944
0
LINE
8
BLACK
6
CONTINUOUS
10
0.9429133858267716
20
-1.0236220472440944
11
0.9435414173228346
21
-1.0164436614173229
0
LINE
8
BLACK
6
CONTINUOUS
10
0.9435414173228346
20
-1.0164436614173229
11
0.9454064173228346
21
-1.0094834251968503
0
LINE
8
BLACK
6
CONTINUOUS
10
0.9454064173228346
20
-1.0094834251968503
11
0.9484516929133858
21
-1.0029527559055118
0
LINE
8
BLACK
6
CONTINUOUS
10
0.9484516929133858
20
-1.0029527559055118
11
0.9525847637795275
21
-0.9970501181102362
0
LINE
8
BLACK
6
CONTINUOUS
10
0.9525847637795275
20
-0.9970501181102362
11
0.9576800393700787
21
-0.991954842519685
0
LINE
8
BLACK
6
CONTINUOUS
10
0.9576800393700787
20
-0.991954842519685
11
0.9635826771653543
21
-0.9878217716535432
0
LINE
8
BLACK
6
CONTINUOUS
10
0.9635826771653543
20
-0.9878217716535432
11
0.9701133464566929
21
-0.9847764960629921
0
LINE
8
BLACK
6
CONTINUOUS
10
0.9701133464566929
20
-0.9847764960629921
11
0.9770735826771654
21
-0.9829114960629921
0
LINE
8
BLACK
6
CONTINUOUS
10
0.9770735826771654
20
-0.9829114960629921
11
0.984251968503937
21
-0.9822834645669292
0
LINE
8
BLACK
6
CONTINUOUS
10
0.984251968503937
20
-0.9822834645669292
11
3.7086614173228347
21
-0.9822834645669292
0
LINE
8
BLACK
6
CONTINUOUS
10
0.984251968503937
20
-0.9862204724409449
11
0.9809797637795276
21
-0.9862204724409449
0
LINE
8
BLACK
6
CONTINUOUS
10
0.9809797637795276
20
-0.9862204724409449
11
0.9745347637795275
21
-0.9873568897637796
0
LINE
8
BLACK
6
CONTINUOUS
10
0.9745347637795275
20
-0.9873568897637796
11
0.9683849999999999
21
-0.9895952362204724
0
LINE
8
BLACK
6
CONTINUOUS
10
0.9683849999999999
20
-0.9895952362204724
11
0.9627173622047244
21
-0.9928674409448819
0
LINE
8
BLACK
6
CONTINUOUS
10
0.9627173622047244
20
-0.9928674409448819
11
0.9577040157480314
21
-0.997074094488189
0
LINE
8
BLACK
6
CONTINUOUS
10
0.9577040157480314
20
-0.997074094488189
11
0.9534973622047244
21
-1.0020874409448819
0
LINE
8
BLACK
6
CONTINUOUS
10
0.9534973622047244
20
-1.0020874409448819
11
0.9502251574803149
21
-1.0077550787401575
0
LINE
8
BLACK
6
CONTINUOUS
10
0.9502251574803149
20
-1.0077550787401575
11
0.947986811023622
21
-1.013904842519685
0
LINE
8
BLACK
6
CONTINUOUS
10
0.947986811023622
20
-1.013904842519685
11
0.9468503937007874
21
-1.0203498425196851
0
LINE
8
BLACK
6
CONTINUOUS
10
0.9468503937007874
20
-1.0203498425196851
11
0.9468503937007874
21
-1.0236220472440944
0
LINE
8
BLACK
6
CONTINUOUS
10
0.9468503937007874
20
-1.0236220472440944
11
0.9468503937007874
21
-1.1023622047244095
0
LINE
8
BLACK
6
CONTINUOUS
10
0.9468503937007874
20
-1.1023622047244095
11
0.9461925984251969
21
-1.1149138582677165
0
LINE
8
BLACK
6
CONTINUOUS
10
0.9461925984251969
20
-1.1149138582677165
11
0.9442263779527559
21
-1.1273279921259842
0
LINE
8
BLACK
6
CONTINUOUS
10
0.9442263779527559
20
-1.1273279921259842
11
0.9409733070866142
21
-1.1394685826771653
0
LINE
8
BLACK
6
CONTINUOUS
10
0.9409733070866142
20
-1.1394685826771653
11
0.9364690551181102
21
-1.1512026377952755
0
LINE
8
BLACK
6
CONTINUOUS
10
0.9364690551181102
20
-1.1512026377952755
11
0.930762874015748
21
-1.1624015748031495
0
LINE
8
BLACK
6
CONTINUOUS
10
0.930762874015748
20
-1.1624015748031495
11
0.9239174015748032
21
-1.1729427165354331
0
LINE
8
BLACK
6
CONTINUOUS
10
0.9239174015748032
20
-1.1729427165354331
11
0.9160075590551181
21
-1.1827105511811022
0
LINE
8
BLACK
6
CONTINUOUS
10
0.9160075590551181
20
-1.1827105511811022
11
0.9071199999999999
21
-1.1915981102362205
0
LINE
8
BLACK
6
CONTINUOUS
10
0.9071199999999999
20
-1.1915981102362205
11
0.8973521653543307
21
-1.1995079527559054
0
LINE
8
BLACK
6
CONTINUOUS
10
0.8973521653543307
20
-1.1995079527559054
11
0.8868110236220472
21
-1.2063534251968504
0
LINE
8
BLACK
6
CONTINUOUS
10
0.8868110236220472
20
-1.2063534251968504
11
0.8756120866141732
21
-1.2120596062992126
0
LINE
8
BLACK
6
CONTINUOUS
10
0.8756120866141732
20
-1.2120596062992126
11
0.863878031496063
21
-1.2165638582677165
0
LINE
8
BLACK
6
CONTINUOUS
10
0.863878031496063
20
-1.2165638582677165
11
0.8517374409448819
21
-1.2198169291338583
0
LINE
8
BLACK
6
CONTINUOUS
10
0.8517374409448819
20
-1.2198169291338583
11
0.8393233070866142
21
-1.2217831496062992
0
LINE
8
BLACK
6
CONTINUOUS
10
0.8393233070866142
20
-1.2217831496062992
11
0.8267716535433071
21
-1.2224409448818898
0
LINE
8
BLACK
6
CONTINUOUS
10
0.8267716535433071
20
-1.2224409448818898
11
0.8234994488188976
21
-1.2224409448818898
0
LINE
8
BLACK
6
CONTINUOUS
10
0.8234994488188976
20
-1.2224409448818898
11
0.8170544488188977
21
-1.2235773622047244
0
LINE
8
BLACK
6
CONTINUOUS
10
0.8170544488188977
20
-1.2235773622047244
11
0.8109046850393701
21
-1.2258157086614172
0
LINE
8
BLACK
6
CONTINUOUS
10
0.8109046850393701
20
-1.2258157086614172
11
0.8052370472440945
21
-1.2290879133858268
0
LINE
8
BLACK
6
CONTINUOUS
10
0.8052370472440945
20
-1.2290879133858268
11
0.8002237007874016
21
-1.2332945669291338
0
LINE
8
BLACK
6
CONTINUOUS
10
0.8002237007874016
20
-1.2332945669291338
11
0.7960170472440945
21
-1.2383079133858268
0
LINE
8
BLACK
6
CONTINUOUS
10
0.7960170472440945
20
-1.2383079133858268
11
0.792744842519685
21
-1.2439755511811024
0
LINE
8
BLACK
6
CONTINUOUS
10
0.792744842519685
20
-1.2439755511811024
11
0.7905064960629921
21
-1.25012531496063
0
LINE
8
BLACK
6
CONTINUOUS
10
0.7905064960629921
20
-1.25012531496063
11
0.7893700787401574
21
-1.25657031496063
0
LINE
8
BLACK
6
CONTINUOUS
10
0.7893700787401574
20
-1.25657031496063
11
0.7893700787401574
21
-1.2598425196850394
0
LINE
8
BLACK
6
CONTINUOUS
10
0.7893700787401574
20
-1.2598425196850394
11
0.7893700787401574
21
-5.0787401574803148
0
LINE
8
BLACK
6
CONTINUOUS
10
0.7893700787401574
20
-5.0787401574803148
11
0.7893700787401574
21
-5.0820123622047246
0
LINE
8
BLACK
6
CONTINUOUS
10
0.7893700787401574
20
-5.0820123622047246
11
0.7905064960629921
21
-5.088457362204724
0
LINE
8
BLACK
6
CONTINUOUS
10
0.7905064960629921
20
-5.088457362204724
11
0.792744842519685
21
-5.0946071259842522
0
LINE
8
BLACK
6
CONTINUOUS
10
0.792744842519685
20
-5.0946071259842522
11
0.7960170472440945
21
-5.1002747637795274
0
LINE
8
BLACK
6
CONTINUOUS
10
0.7960170472440945
20
-5.1002747637795274
11
0.8002237007874016
21
-5.10528811023622
0
LINE
8
BLACK
6
CONTINUOUS
10
0.8002237007874016
20
-5.10528811023622
11
0.8052370472440945
21
-5.1094947637795274
0
LINE
8
BLACK
6
CONTINUOUS
10
0.8052370472440945
20
-5.1094947637795274
11
0.8109046850393701
21
-5.1127669685039372
0
LINE
8
BLACK
6
CONTINUOUS
10
0.8109046850393701
20
-5.1127669685039372
11
0.8170544488188977
21
-5.11500531496063
0
LINE
8
BLACK
6
CONTINUOUS
10
0.8170544488188977
20
-5.11500531496063
11
0.8234994488188976
21
-5.1161417322834648
0
LINE
8
BLACK
6
CONTINUOUS
10
0.8234994488188976
20
-5.1161417322834648
11
0.8267716535433071
21
-5.1161417322834648
0
LINE
8
BLACK
6
CONTINUOUS
10
0.8267716535433071
20
-5.1161417322834648
11
0.8393233070866142
21
-5.1167995275590554
0
LINE
8
BLACK
6
CONTINUOUS
10
0.8393233070866142
20
-5.1167995275590554
11
0.8517374409448819
21
-5.1187657480314961
0
LINE
8
BLACK
6
CONTINUOUS
10
0.8517374409448819
20
-5.1187657480314961
11
0.863878031496063
21
-5.1220188188976374
0
LINE
8
BLACK
6
CONTINUOUS
10
0.863878031496063
20
-5.1220188188976374
11
0.8756120866141732
21
-5.126523070866142
0
LINE
8
BLACK
6
CONTINUOUS
10
0.8756120866141732
20
-5.126523070866142
11
0.8868110236220472
21
-5.1322292519685035
0
LINE
8
BLACK
6
CONTINUOUS
10
0.8868110236220472
20
-5.1322292519685035
11
0.8973521653543307
21
-5.1390747244094488
0
LINE
8
BLACK
6
CONTINUOUS
10
0.8973521653543307
20
-5.1390747244094488
11
0.9071199999999999
21
-5.1469845669291336
0
LINE
8
BLACK
6
CONTINUOUS
10
0.9071199999999999
20
-5.1469845669291336
11
0.9160075590551181
21
-5.1558721259842519
0
LINE
8
BLACK
6
CONTINUOUS
10
0.9160075590551181
20
-5.1558721259842519
11
0.9239174015748032
21
-5.165639960629921
0
LINE
8
BLACK
6
CONTINUOUS
10
0.9239174015748032
20
-5.165639960629921
11
0.930762874015748
21
-5.1761811023622046
0
LINE
8
BLACK
6
CONTINUOUS
10
0.930762874015748
20
-5.1761811023622046
11
0.9364690551181102
21
-5.1873800393700789
0
LINE
8
BLACK
6
CONTINUOUS
10
0.9364690551181102
20
-5.1873800393700789
11
0.9409733070866142
21
-5.1991140944881886
0
LINE
8
BLACK
6
CONTINUOUS
10
0.9409733070866142
20
-5.1991140944881886
11
0.9442263779527559
21
-5.2112546850393704
0
LINE
8
BLACK
6
CONTINUOUS
10
0.9442263779527559
20
-5.2112546850393704
11
0.9461925984251969
21
-5.2236688188976377
0
LINE
8
BLACK
6
CONTINUOUS
10
0.9461925984251969
20
-5.2236688188976377
11
0.9468503937007874
21
-5.2362204724409445
0
LINE
8
BLACK
6
CONTINUOUS
10
0.9468503937007874
20
-5.2362204724409445
11
0.9468503937007874
21
-5.3149606299212593
0
LINE
8
BLACK
6
CONTINUOUS
10
0.9468503937007874
20
-5.3149606299212593
11
0.9468503937007874
21
-5.3182328346456691
0
LINE
8
BLACK
6
CONTINUOUS
10
0.9468503937007874
20
-5.3182328346456691
11
0.947986811023622
21
-5.3246778346456693
0
LINE
8
BLACK
6
CONTINUOUS
10
0.947986811023622
20
-5.3246778346456693
11
0.9502251574803149
21
-5.3308275984251967
0
LINE
8
BLACK
6
CONTINUOUS
10
0.9502251574803149
20
-5.3308275984251967
11
0.9534973622047244
21
-5.3364952362204727
0
LINE
8
BLACK
6
CONTINUOUS
10
0.9534973622047244
20
-5.3364952362204727
11
0.9577040157480314
21
-5.3415085826771653
0
LINE
8
BLACK
6
CONTINUOUS
10
0.9577040157480314
20
-5.3415085826771653
11
0.9627173622047244
21
-5.3457152362204727
0
LINE
8
BLACK
6
CONTINUOUS
10
0.9627173622047244
20
-5.3457152362204727
11
0.9683849999999999
21
-5.3489874409448817
0
LINE
8
BLACK
6
CONTINUOUS
10
0.9683849999999999
20
-5.3489874409448817
11
0.9745347637795275
21
-5.3512257874015745
0
LINE
8
BLACK
6
CONTINUOUS
10
0.9745347637795275
20
-5.3512257874015745
11
0.9809797637795276
21
-5.3523622047244093
0
LINE
8
BLACK
6
CONTINUOUS
10
0.9809797637795276
20
-5.3523622047244093
11
0.984251968503937
21
-5.3523622047244093
0
LINE
8
BLACK
6
CONTINUOUS
10
0.984251968503937
20
-5.3523622047244093
11
4.409448818897638
21
-5.3523622047244093
0
LINE
8
BLACK
6
CONTINUOUS
10
4.409448818897638
20
-5.3523622047244093
11
7.4409448818897639
21
-5.3523622047244093
0
LINE
8
BLACK
6
CONTINUOUS
10
7.4409448818897639
20
-5.3523622047244093
11
7.4442170866141728
21
-5.3523622047244093
0
LINE
8
BLACK
6
CONTINUOUS
10
7.4442170866141728
20
-5.3523622047244093
11
7.4506620866141731
21
-5.3512257874015745
0
LINE
8
BLACK
6
CONTINUOUS
10
7.4506620866141731
20
-5.3512257874015745
11
7.4568118503937004
21
-5.3489874409448817
0
LINE
8
BLACK
6
CONTINUOUS
10
7.4568118503937004
20
-5.3489874409448817
11
7.4624794881889764
21
-5.3457152362204727
0
LINE
8
BLACK
6
CONTINUOUS
10
7.4624794881889764
20
-5.3457152362204727
11
7.467492834645669
21
-5.3415085826771653
0
LINE
8
BLACK
6
CONTINUOUS
10
7.467492834645669
20
-5.3415085826771653
11
7.4716994881889764
21
-5.3364952362204727
0
LINE
8
BLACK
6
CONTINUOUS
10
7.4716994881889764
20
-5.3364952362204727
11
7.4749716929133854
21
-5.3308275984251967
0
LINE
8
BLACK
6
CONTINUOUS
10
7.4749716929133854
20
-5.3308275984251967
11
7.4772100393700782
21
-5.3246778346456693
0
LINE
8
BLACK
6
CONTINUOUS
10
7.4772100393700782
20
-5.3246778346456693
11
7.478346456692913
21
-5.3182328346456691
0
LINE
8
BLACK
6
CONTINUOUS
10
7.478346456692913
20
-5.3182328346456691
11
7.478346456692913
21
-5.3149606299212593
0
LINE
8
BLACK
6
CONTINUOUS
10
7.478346456692913
20
-5.3149606299212593
11
7.478346456692913
21
-5.2362204724409445
0
LINE
8
BLACK
6
CONTINUOUS
10
7.478346456692913
20
-5.2362204724409445
11
7.4790042519685036
21
-5.2236688188976377
0
LINE
8
BLACK
6
CONTINUOUS
10
7.4790042519685036
20
-5.2236688188976377
11
7.4809704724409452
21
-5.2112546850393704
0
LINE
8
BLACK
6
CONTINUOUS
10
7.4809704724409452
20
-5.2112546850393704
11
7.4842235433070865
21
-5.1991140944881886
0
LINE
8
BLACK
6
CONTINUOUS
10
7.4842235433070865
20
-5.1991140944881886
11
7.4887277952755902
21
-5.1873800393700789
0
LINE
8
BLACK
6
CONTINUOUS
10
7.4887277952755902
20
-5.1873800393700789
11
7.4944339763779526
21
-5.1761811023622046
0
LINE
8
BLACK
6
CONTINUOUS
10
7.4944339763779526
20
-5.1761811023622046
11
7.5012794488188979
21
-5.165639960629921
0
LINE
8
BLACK
6
CONTINUOUS
10
7.5012794488188979
20
-5.165639960629921
11
7.5091892913385827
21
-5.1558721259842519
0
LINE
8
BLACK
6
CONTINUOUS
10
7.5091892913385827
20
-5.1558721259842519
11
7.518076850393701
21
-5.1469845669291336
0
LINE
8
BLACK
6
CONTINUOUS
10
7.518076850393701
20
-5.1469845669291336
11
7.5278446850393701
21
-5.1390747244094488
0
LINE
8
BLACK
6
CONTINUOUS
10
7.5278446850393701
20
-5.1390747244094488
11
7.5383858267716537
21
-5.1322292519685035
0
LINE
8
BLACK
6
CONTINUOUS
10
7.5383858267716537
20
-5.1322292519685035
11
7.549584763779527
21
-5.126523070866142
0
LINE
8
BLACK
6
CONTINUOUS
10
7.549584763779527
20
-5.126523070866142
11
7.5613188188976377
21
-5.1220188188976374
0
LINE
8
BLACK
6
CONTINUOUS
10
7.5613188188976377
20
-5.1220188188976374
11
7.5734594094488186
21
-5.1187657480314961
0
LINE
8
BLACK
6
CONTINUOUS
10
7.5734594094488186
20
-5.1187657480314961
11
7.5858735433070867
21
-5.1167995275590554
0
LINE
8
BLACK
6
CONTINUOUS
10
7.5858735433070867
20
-5.1167995275590554
11
7.5984251968503935
21
-5.1161417322834648
0
LINE
8
BLACK
6
CONTINUOUS
10
7.5984251968503935
20
-5.1161417322834648
11
7.6016974015748033
21
-5.1161417322834648
0
LINE
8
BLACK
6
CONTINUOUS
10
7.6016974015748033
20
-5.1161417322834648
11
7.6081424015748027
21
-5.11500531496063
0
LINE
8
BLACK
6
CONTINUOUS
10
7.6081424015748027
20
-5.11500531496063
11
7.614292165354331
21
-5.1127669685039372
0
LINE
8
BLACK
6
CONTINUOUS
10
7.614292165354331
20
-5.1127669685039372
11
7.6199598031496061
21
-5.1094947637795274
0
LINE
8
BLACK
6
CONTINUOUS
10
7.6199598031496061
20
-5.1094947637795274
11
7.6249731496062987
21
-5.10528811023622
0
LINE
8
BLACK
6
CONTINUOUS
10
7.6249731496062987
20
-5.10528811023622
11
7.6291798031496061
21
-5.1002747637795274
0
LINE
8
BLACK
6
CONTINUOUS
10
7.6291798031496061
20
-5.1002747637795274
11
7.6324520078740159
21
-5.0946071259842522
0
LINE
8
BLACK
6
CONTINUOUS
10
7.6324520078740159
20
-5.0946071259842522
11
7.6346903543307088
21
-5.088457362204724
0
LINE
8
BLACK
6
CONTINUOUS
10
7.6346903543307088
20
-5.088457362204724
11
7.6358267716535435
21
-5.0820123622047246
0
LINE
8
BLACK
6
CONTINUOUS
10
7.6358267716535435
20
-5.0820123622047246
11
7.6358267716535435
21
-5.0787401574803148
0
LINE
8
BLACK
6
CONTINUOUS
10
7.6358267716535435
20
-5.0787401574803148
11
7.6358267716535435
21
-1.2598425196850394
0
LINE
8
BLACK
6
CONTINUOUS
10
7.6358267716535435
20
-1.2598425196850394
11
7.6358267716535435
21
-1.25657031496063
0
LINE
8
BLACK
6
CONTINUOUS
10
7.6358267716535435
20
-1.25657031496063
11
7.6346903543307088
21
-1.25012531496063
0
LINE
8
BLACK
6
CONTINUOUS
10
7.6346903543307088
20
-1.25012531496063
11
7.6324520078740159
21
-1.2439755511811024
0
LINE
8
BLACK
6
CONTINUOUS
10
7.6324520078740159
20
-1.2439755511811024
11
7.6291798031496061
21
-1.2383079133858268
0
LINE
8
BLACK
6
CONTINUOUS
10
7.6291798031496061
20
-1.2383079133858268
11
7.6249731496062987
21
-1.2332945669291338
0
LINE
8
BLACK
6
CONTINUOUS
10
7.6249731496062987
20
-1.2332945669291338
11
7.6199598031496061
21
-1.2290879133858268
0
LINE
8
BLACK
6
CONTINUOUS
10
7.6199598031496061
20
-1.2290879133858268
11
7.614292165354331
21
-1.2258157086614172
0
LINE
8
BLACK
6
CONTINUOUS
10
7.614292165354331
20
-1.2258157086614172
11
7.6081424015748027
21
-1.2235773622047244
0
LINE
8
BLACK
6
CONTINUOUS
10
7.6081424015748027
20
-1.2235773622047244
11
7.6016974015748033
21
-1.2224409448818898
0
LINE
8
BLACK
6
CONTINUOUS
10
7.6016974015748033
20
-1.2224409448818898
11
7.5984251968503935
21
-1.2224409448818898
0
LINE
8
BLACK
6
CONTINUOUS
10
7.5984251968503935
20
-1.2224409448818898
11
7.5858735433070867
21
-1.2217831496062992
0
LINE
8
BLACK
6
CONTINUOUS
10
7.5858735433070867
20
-1.2217831496062992
11
7.5734594094488186
21
-1.2198169291338583
0
LINE
8
BLACK
6
CONTINUOUS
10
7.5734594094488186
20
-1.2198169291338583
11
7.5613188188976377
21
-1.2165638582677165
0
LINE
8
BLACK
6
CONTINUOUS
10
7.5613188188976377
20
-1.2165638582677165
11
7.549584763779527
21
-1.2120596062992126
0
LINE
8
BLACK
6
CONTINUOUS
10
7.549584763779527
20
-1.2120596062992126
11
7.5383858267716537
21
-1.2063534251968504
0
LINE
8
BLACK
6
CONTINUOUS
10
7.5383858267716537
20
-1.2063534251968504
11
7.5278446850393701
21
-1.1995079527559054
0
LINE
8
BLACK
6
CONTINUOUS
10
7.5278446850393701
20
-1.1995079527559054
11
7.518076850393701
21
-1.1915981102362205
0
LINE
8
BLACK
6
CONTINUOUS
10
7.518076850393701
20
-1.1915981102362205
11
7.5091892913385827
21
-1.1827105511811022
0
LINE
8
BLACK
6
CONTINUOUS
10
7.5091892913385827
20
-1.1827105511811022
11
7.5012794488188979
21
-1.1729427165354331
0
LINE
8
BLACK
6
CONTINUOUS
10
7.5012794488188979
20
-1.1729427165354331
11
7.4944339763779526
21
-1.1624015748031495
0
LINE
8
BLACK
6
CONTINUOUS
10
7.4944339763779526
20
-1.1624015748031495
11
7.4887277952755902
21
-1.1512026377952755
0
LINE
8
BLACK
6
CONTINUOUS
10
7.4887277952755902
20
-1.1512026377952755
11
7.4842235433070865
21
-1.1394685826771653
0
LINE
8
BLACK
6
CONTINUOUS
10
7.4842235433070865
20
-1.1394685826771653
11
7.4809704724409452
21
-1.1273279921259842
0
LINE
8
BLACK
6
CONTINUOUS
10
7.4809704724409452
20
-1.1273279921259842
11
7.4790042519685036
21
-1.1149138582677165
0
LINE
8
BLACK
6
CONTINUOUS
10
7.4790042519685036
20
-1.1149138582677165
11
7.478346456692913
21
-1.1023622047244095
0
LINE
8
BLACK
6
CONTINUOUS
10
7.478346456692913
20
-1.1023622047244095
11
7.478346456692913
21
-1.0236220472440944
0
LINE
8
BLACK
6
CONTINUOUS
10
7.478346456692913
20
-1.0236220472440944
11
7.478346456692913
21
-1.0203498425196851
0
LINE
8
BLACK
6
CONTINUOUS
10
7.478346456692913
20
-1.0203498425196851
11
7.4772100393700782
21
-1.013904842519685
0
LINE
8
BLACK
6
CONTINUOUS
10
7.4772100393700782
20
-1.013904842519685
11
7.4749716929133854
21
-1.0077550787401575
0
LINE
8
BLACK
6
CONTINUOUS
10
7.4749716929133854
20
-1.0077550787401575
11
7.4716994881889764
21
-1.0020874409448819
0
LINE
8
BLACK
6
CONTINUOUS
10
7.4716994881889764
20
-1.0020874409448819
11
7.467492834645669
21
-0.997074094488189
0
LINE
8
BLACK
6
CONTINUOUS
10
7.467492834645669
20
-0.997074094488189
11
7.4624794881889764
21
-0.9928674409448819
0
LINE
8
BLACK
6
CONTINUOUS
10
7.4624794881889764
20
-0.9928674409448819
11
7.4568118503937004
21
-0.9895952362204724
0
LINE
8
BLACK
6
CONTINUOUS
10
7.4568118503937004
20
-0.9895952362204724
11
7.4506620866141731
21
-0.9873568897637796
0
LINE
8
BLACK
6
CONTINUOUS
10
7.4506620866141731
20
-0.9873568897637796
11
7.4442170866141728
21
-0.9862204724409449
0
LINE
8
BLACK
6
CONTINUOUS
10
7.4442170866141728
20
-0.9862204724409449
11
7.4409448818897639
21
-0.9862204724409449
0
LINE
8
BLACK
6
CONTINUOUS
10
7.4409448818897639
20
-0.9862204724409449
11
4.8897637795275593
21
-0.9862204724409449
0
LINE
8
BLACK
6
CONTINUOUS
10
4.8897637795275593
20
-0.9862204724409449
11
4.4113313779527559
21
-0.9862204724409449
0
LINE
8
BLACK
6
CONTINUOUS
10
4.4113313779527559
20
-0.9862204724409449
11
4.4106607480314963
21
-1.0015801968503937
0
LINE
8
BLACK
6
CONTINUOUS
10
4.4106607480314963
20
-1.0015801968503937
11
4.4083968110236222
21
-1.0187764960629921
0
LINE
8
BLACK
6
CONTINUOUS
10
4.4083968110236222
20
-1.0187764960629921
11
4.4046427165354327
21
-1.0357100787401574
0
LINE
8
BLACK
6
CONTINUOUS
10
4.4046427165354327
20
-1.0357100787401574
11
4.3994270866141729
21
-1.0522520472440944
0
LINE
8
BLACK
6
CONTINUOUS
10
4.3994270866141729
20
-1.0522520472440944
11
4.3927895275590547
21
-1.0682764566929133
0
LINE
8
BLACK
6
CONTINUOUS
10
4.3927895275590547
20
-1.0682764566929133
11
4.3847806299212602
21
-1.0836614173228347
0
LINE
8
BLACK
6
CONTINUOUS
10
4.3847806299212602
20
-1.0836614173228347
11
4.3754613385826771
21
-1.0982898031496062
0
LINE
8
BLACK
6
CONTINUOUS
10
4.3754613385826771
20
-1.0982898031496062
11
4.3649025196850388
21
-1.1120502755905513
0
LINE
8
BLACK
6
CONTINUOUS
10
4.3649025196850388
20
-1.1120502755905513
11
4.3531846062992123
21
-1.1248381496062991
0
LINE
8
BLACK
6
CONTINUOUS
10
4.3531846062992123
20
-1.1248381496062991
11
4.3403967322834642
21
-1.1365560629921259
0
LINE
8
BLACK
6
CONTINUOUS
10
4.3403967322834642
20
-1.1365560629921259
11
4.3266362598425196
21
-1.1471148818897638
0
LINE
8
BLACK
6
CONTINUOUS
10
4.3266362598425196
20
-1.1471148818897638
11
4.3120078740157481
21
-1.1564341732283465
0
LINE
8
BLACK
6
CONTINUOUS
10
4.3120078740157481
20
-1.1564341732283465
11
4.2966229133858267
21
-1.1644430708661417
0
LINE
8
BLACK
6
CONTINUOUS
10
4.2966229133858267
20
-1.1644430708661417
11
4.280598503937008
21
-1.1710806299212597
0
LINE
8
BLACK
6
CONTINUOUS
10
4.280598503937008
20
-1.1710806299212597
11
4.2640565354330704
21
-1.1762962598425197
0
LINE
8
BLACK
6
CONTINUOUS
10
4.2640565354330704
20
-1.1762962598425197
11
4.2471229527559053
21
-1.1800503543307086
0
LINE
8
BLACK
6
CONTINUOUS
10
4.2471229527559053
20
-1.1800503543307086
11
4.2299266535433073
21
-1.1823142913385827
0
LINE
8
BLACK
6
CONTINUOUS
10
4.2299266535433073
20
-1.1823142913385827
11
4.21259842519685
21
-1.1830708661417322
0
LINE
8
BLACK
6
CONTINUOUS
10
4.21259842519685
20
-1.1830708661417322
11
4.1952701968503936
21
-1.1823142913385827
0
LINE
8
BLACK
6
CONTINUOUS
10
4.1952701968503936
20
-1.1823142913385827
11
4.1780738976377956
21
-1.1800503543307086
0
LINE
8
BLACK
6
CONTINUOUS
10
4.1780738976377956
20
-1.1800503543307086
11
4.1611403149606296
21
-1.1762962598425197
0
LINE
8
BLACK
6
CONTINUOUS
10
4.1611403149606296
20
-1.1762962598425197
11
4.1445983464566929
21
-1.1710806299212597
0
LINE
8
BLACK
6
CONTINUOUS
10
4.1445983464566929
20
-1.1710806299212597
11
4.1285739370078742
21
-1.1644430708661417
0
LINE
8
BLACK
6
CONTINUOUS
10
4.1285739370078742
20
-1.1644430708661417
11
4.1131889763779528
21
-1.1564341732283465
0
LINE
8
BLACK
6
CONTINUOUS
10
4.1131889763779528
20
-1.1564341732283465
11
4.0985605905511813
21
-1.1471148818897638
0
LINE
8
BLACK
6
CONTINUOUS
10
4.0985605905511813
20
-1.1471148818897638
11
4.0848001181102358
21
-1.1365560629921259
0
LINE
8
BLACK
6
CONTINUOUS
10
4.0848001181102358
20
-1.1365560629921259
11
4.0720122440944877
21
-1.1248381496062991
0
LINE
8
BLACK
6
CONTINUOUS
10
4.0720122440944877
20
-1.1248381496062991
11
4.0602943307086612
21
-1.1120502755905513
0
LINE
8
BLACK
6
CONTINUOUS
10
4.0602943307086612
20
-1.1120502755905513
11
4.0497355118110239
21
-1.0982898031496062
0
LINE
8
BLACK
6
CONTINUOUS
10
4.0497355118110239
20
-1.0982898031496062
11
4.0404162204724408
21
-1.0836614173228347
0
LINE
8
BLACK
6
CONTINUOUS
10
4.0404162204724408
20
-1.0836614173228347
11
4.0324073228346453
21
-1.0682764566929133
0
LINE
8
BLACK
6
CONTINUOUS
10
4.0324073228346453
20
-1.0682764566929133
11
4.0257697637795271
21
-1.0522520472440944
0
LINE
8
BLACK
6
CONTINUOUS
10
4.0257697637795271
20
-1.0522520472440944
11
4.0205541338582673
21
-1.0357100787401574
0
LINE
8
BLACK
6
CONTINUOUS
10
4.0205541338582673
20
-1.0357100787401574
11
4.0168000393700787
21
-1.0187764960629921
0
LINE
8
BLACK
6
CONTINUOUS
10
4.0168000393700787
20
-1.0187764960629921
11
4.0145361023622046
21
-1.0015801968503937
0
LINE
8
BLACK
6
CONTINUOUS
10
4.0145361023622046
20
-1.0015801968503937
11
4.013865472440945
21
-0.9862204724409449
0
LINE
8
BLACK
6
CONTINUOUS
10
4.013865472440945
20
-0.9862204724409449
11
3.7086614173228347
21
-0.9862204724409449
0
LINE
8
BLACK
6
CONTINUOUS
10
3.7086614173228347
20
-0.9862204724409449
11
0.984251968503937
21
-0.9862204724409449
  0
ENDSEC
  0
EOF
