  0
SECTION
  2
HEADER
  9
$ANGBASE
  50
0.0
  9
$ANGDIR
  70
1
  9
$MEASUREMENT
  70
0
  0
ENDSEC
  0
SECTION
  2
TABLES
  0
TABLE
  2
LTYPE
  70
4
  0
LTYPE
  5
40F
  2
CONTINUOUS
  70
0
  3
Solid line
  72
65
  73
0
  40
0.0
  0
LTYPE
  5
410
  2
DASHDOT
 70
0
  3
Dash Dot ____ _ ____ _
 72
65
 73
4
 40
2.0
 49
1.25
 49
-0.25
 49
0.25
 49
-0.25
  0
LTYPE
  5
411
  2
DASHED
 70
0
  3
Dashed __ __ __ __ __
 72
65
 73
2
 40
0.75
 49
0.5
 49
-0.25
  0
LTYPE
  5
43B
  2
DOTTED
 70
0
  3
Dotted .  .  .  .
 72
65
 73
2
 40
0.2
 49
0.0
 49
-0.2
  0
ENDTAB
  0
TABLE
  2
STYLE
  70
4
  0
STYLE
  2
KICAD
  70
0
  40
0
  41
1
  42
1
  50
0
  71
0
  3
isocp.shx
  0
STYLE
  2
KICADB
  70
0
  40
0
  41
1
  42
1
  50
0
  71
0
  3
isocp.shx
  0
STYLE
  2
KICADI
  70
0
  40
0
  41
1
  42
1
  50
15
  71
0
  3
isocp.shx
  0
STYLE
  2
KICADBI
  70
0
  40
0
  41
1
  42
1
  50
15
  71
0
  3
isocp.shx
  0
ENDTAB
  0
TABLE
  2
LAYER
  70
1
  0
LAYER
  2
BLACK
  70
0
  62
7
  6
CONTINUOUS
  0
ENDTAB
  0
ENDSEC
  0
SECTION
  2
ENTITIES
0
LINE
8
BLACK
6
CONTINUOUS
10
5.1867132677165353
20
-4.3492319685039371
11
5.1979670472440942
21
-4.3523851181102362
0
LINE
8
BLACK
6
CONTINUOUS
10
5.1979670472440942
20
-4.3523851181102362
11
5.2086866535433067
21
-4.3570413385826772
0
LINE
8
BLACK
6
CONTINUOUS
10
5.2086866535433067
20
-4.3570413385826772
11
5.2186724409448821
21
-4.3631137795275592
0
LINE
8
BLACK
6
CONTINUOUS
10
5.2186724409448821
20
-4.3631137795275592
11
5.2277383070866144
21
-4.3704894488188977
0
LINE
8
BLACK
6
CONTINUOUS
10
5.2277383070866144
20
-4.3704894488188977
11
5.2357154330708662
21
-4.3790308661417319
0
LINE
8
BLACK
6
CONTINUOUS
10
5.2357154330708662
20
-4.3790308661417319
11
5.2424551968503934
21
-4.3885789370078738
0
LINE
8
BLACK
6
CONTINUOUS
10
5.2424551968503934
20
-4.3885789370078738
11
5.2478320866141734
21
-4.3989558267716538
0
LINE
8
BLACK
6
CONTINUOUS
10
5.2478320866141734
20
-4.3989558267716538
11
5.2517458661417322
21
-4.4099681889763778
0
LINE
8
BLACK
6
CONTINUOUS
10
5.2517458661417322
20
-4.4099681889763778
11
5.2541237007874013
21
-4.4214109448818899
0
LINE
8
BLACK
6
CONTINUOUS
10
5.2541237007874013
20
-4.4214109448818899
11
5.2549212598425195
21
-4.4330708661417324
0
LINE
8
BLACK
6
CONTINUOUS
10
5.2549212598425195
20
-4.4330708661417324
11
5.2541237007874013
21
-4.4447307874015749
0
LINE
8
BLACK
6
CONTINUOUS
10
5.2541237007874013
20
-4.4447307874015749
11
5.2517458661417322
21
-4.4561735433070861
0
LINE
8
BLACK
6
CONTINUOUS
10
5.2517458661417322
20
-4.4561735433070861
11
5.2478320866141734
21
-4.4671859055118111
0
LINE
8
BLACK
6
CONTINUOUS
10
5.2478320866141734
20
-4.4671859055118111
11
5.2424551968503934
21
-4.4775627952755901
0
LINE
8
BLACK
6
CONTINUOUS
10
5.2424551968503934
20
-4.4775627952755901
11
5.2357154330708662
21
-4.487110866141732
0
LINE
8
BLACK
6
CONTINUOUS
10
5.2357154330708662
20
-4.487110866141732
11
5.2277383070866144
21
-4.4956522834645671
0
LINE
8
BLACK
6
CONTINUOUS
10
5.2277383070866144
20
-4.4956522834645671
11
5.2186724409448821
21
-4.5030279527559056
0
LINE
8
BLACK
6
CONTINUOUS
10
5.2186724409448821
20
-4.5030279527559056
11
5.2086866535433067
21
-4.5091003937007876
0
LINE
8
BLACK
6
CONTINUOUS
10
5.2086866535433067
20
-4.5091003937007876
11
5.1979670472440942
21
-4.5137566141732286
0
LINE
8
BLACK
6
CONTINUOUS
10
5.1979670472440942
20
-4.5137566141732286
11
5.1867132677165353
21
-4.5169097637795277
0
LINE
8
BLACK
6
CONTINUOUS
10
5.1867132677165353
20
-4.5169097637795277
11
5.1751349212598425
21
-4.5185011811023621
0
LINE
8
BLACK
6
CONTINUOUS
10
5.1751349212598425
20
-4.5185011811023621
11
5.1634477559055121
21
-4.5185011811023621
0
LINE
8
BLACK
6
CONTINUOUS
10
5.1634477559055121
20
-4.5185011811023621
11
5.1518694094488184
21
-4.5169097637795277
0
LINE
8
BLACK
6
CONTINUOUS
10
5.1518694094488184
20
-4.5169097637795277
11
5.1406156299212595
21
-4.5137566141732286
0
LINE
8
BLACK
6
CONTINUOUS
10
5.1406156299212595
20
-4.5137566141732286
11
5.129896023622047
21
-4.5091003937007876
0
LINE
8
BLACK
6
CONTINUOUS
10
5.129896023622047
20
-4.5091003937007876
11
5.1199102362204725
21
-4.5030279527559056
0
LINE
8
BLACK
6
CONTINUOUS
10
5.1199102362204725
20
-4.5030279527559056
11
5.1108443700787403
21
-4.4956522834645671
0
LINE
8
BLACK
6
CONTINUOUS
10
5.1108443700787403
20
-4.4956522834645671
11
5.1028672440944884
21
-4.487110866141732
0
LINE
8
BLACK
6
CONTINUOUS
10
5.1028672440944884
20
-4.487110866141732
11
5.0961274803149603
21
-4.4775627952755901
0
LINE
8
BLACK
6
CONTINUOUS
10
5.0961274803149603
20
-4.4775627952755901
11
5.0907505905511812
21
-4.4671859055118111
0
LINE
8
BLACK
6
CONTINUOUS
10
5.0907505905511812
20
-4.4671859055118111
11
5.0868368110236215
21
-4.4561735433070861
0
LINE
8
BLACK
6
CONTINUOUS
10
5.0868368110236215
20
-4.4561735433070861
11
5.0844589763779524
21
-4.4447307874015749
0
LINE
8
BLACK
6
CONTINUOUS
10
5.0844589763779524
20
-4.4447307874015749
11
5.0836614173228343
21
-4.4330708661417324
0
LINE
8
BLACK
6
CONTINUOUS
10
5.0836614173228343
20
-4.4330708661417324
11
5.0844589763779524
21
-4.4214109448818899
0
LINE
8
BLACK
6
CONTINUOUS
10
5.0844589763779524
20
-4.4214109448818899
11
5.0868368110236215
21
-4.4099681889763778
0
LINE
8
BLACK
6
CONTINUOUS
10
5.0868368110236215
20
-4.4099681889763778
11
5.0907505905511812
21
-4.3989558267716538
0
LINE
8
BLACK
6
CONTINUOUS
10
5.0907505905511812
20
-4.3989558267716538
11
5.0961274803149603
21
-4.3885789370078738
0
LINE
8
BLACK
6
CONTINUOUS
10
5.0961274803149603
20
-4.3885789370078738
11
5.1028672440944884
21
-4.3790308661417319
0
LINE
8
BLACK
6
CONTINUOUS
10
5.1028672440944884
20
-4.3790308661417319
11
5.1108443700787403
21
-4.3704894488188977
0
LINE
8
BLACK
6
CONTINUOUS
10
5.1108443700787403
20
-4.3704894488188977
11
5.1199102362204725
21
-4.3631137795275592
0
LINE
8
BLACK
6
CONTINUOUS
10
5.1199102362204725
20
-4.3631137795275592
11
5.129896023622047
21
-4.3570413385826772
0
LINE
8
BLACK
6
CONTINUOUS
10
5.129896023622047
20
-4.3570413385826772
11
5.1406156299212595
21
-4.3523851181102362
0
LINE
8
BLACK
6
CONTINUOUS
10
5.1406156299212595
20
-4.3523851181102362
11
5.1518694094488184
21
-4.3492319685039371
0
LINE
8
BLACK
6
CONTINUOUS
10
5.1518694094488184
20
-4.3492319685039371
11
5.1634477559055121
21
-4.3476405511811018
0
LINE
8
BLACK
6
CONTINUOUS
10
5.1634477559055121
20
-4.3476405511811018
11
5.1751349212598425
21
-4.3476405511811018
0
LINE
8
BLACK
6
CONTINUOUS
10
5.1751349212598425
20
-4.3476405511811018
11
5.1867132677165353
21
-4.3492319685039371
0
LINE
8
BLACK
6
CONTINUOUS
10
5.0901249212598421
20
-4.4439520472440943
11
5.0923439370078736
21
-4.4546305118110237
0
LINE
8
BLACK
6
CONTINUOUS
10
5.0923439370078736
20
-4.4546305118110237
11
5.095996338582677
21
-4.4649073622047242
0
LINE
8
BLACK
6
CONTINUOUS
10
5.095996338582677
20
-4.4649073622047242
11
5.101014094488189
21
-4.4745911811023618
0
LINE
8
BLACK
6
CONTINUOUS
10
5.101014094488189
20
-4.4745911811023618
11
5.1073037007874014
21
-4.4835015354330707
0
LINE
8
BLACK
6
CONTINUOUS
10
5.1073037007874014
20
-4.4835015354330707
11
5.1147480314960632
21
-4.4914724803149602
0
LINE
8
BLACK
6
CONTINUOUS
10
5.1147480314960632
20
-4.4914724803149602
11
5.1232083858267714
21
-4.4983555118110239
0
LINE
8
BLACK
6
CONTINUOUS
10
5.1232083858267714
20
-4.4983555118110239
11
5.1325272047244095
21
-4.5040224015748027
0
LINE
8
BLACK
6
CONTINUOUS
10
5.1325272047244095
20
-4.5040224015748027
11
5.1425308661417324
21
-4.5083675984251972
0
LINE
8
BLACK
6
CONTINUOUS
10
5.1425308661417324
20
-4.5083675984251972
11
5.1530330314960633
21
-4.5113101574803149
0
LINE
8
BLACK
6
CONTINUOUS
10
5.1530330314960633
20
-4.5113101574803149
11
5.1638380314960628
21
-4.5127952755905509
0
LINE
8
BLACK
6
CONTINUOUS
10
5.1638380314960628
20
-4.5127952755905509
11
5.1747446456692909
21
-4.5127952755905509
0
LINE
8
BLACK
6
CONTINUOUS
10
5.1747446456692909
20
-4.5127952755905509
11
5.1855496456692913
21
-4.5113101574803149
0
LINE
8
BLACK
6
CONTINUOUS
10
5.1855496456692913
20
-4.5113101574803149
11
5.1960518110236222
21
-4.5083675984251972
0
LINE
8
BLACK
6
CONTINUOUS
10
5.1960518110236222
20
-4.5083675984251972
11
5.2060554724409451
21
-4.5040224015748027
0
LINE
8
BLACK
6
CONTINUOUS
10
5.2060554724409451
20
-4.5040224015748027
11
5.2153742913385823
21
-4.4983555118110239
0
LINE
8
BLACK
6
CONTINUOUS
10
5.2153742913385823
20
-4.4983555118110239
11
5.2238346456692915
21
-4.4914724803149602
0
LINE
8
BLACK
6
CONTINUOUS
10
5.2238346456692915
20
-4.4914724803149602
11
5.2312789763779524
21
-4.4835015354330707
0
LINE
8
BLACK
6
CONTINUOUS
10
5.2312789763779524
20
-4.4835015354330707
11
5.2375685826771656
21
-4.4745911811023618
0
LINE
8
BLACK
6
CONTINUOUS
10
5.2375685826771656
20
-4.4745911811023618
11
5.2425863385826768
21
-4.4649073622047242
0
LINE
8
BLACK
6
CONTINUOUS
10
5.2425863385826768
20
-4.4649073622047242
11
5.2462387401574802
21
-4.4546305118110237
0
LINE
8
BLACK
6
CONTINUOUS
10
5.2462387401574802
20
-4.4546305118110237
11
5.2484577559055117
21
-4.4439520472440943
0
LINE
8
BLACK
6
CONTINUOUS
10
5.2484577559055117
20
-4.4439520472440943
11
5.2492020472440943
21
-4.4330708661417324
0
LINE
8
BLACK
6
CONTINUOUS
10
5.2492020472440943
20
-4.4330708661417324
11
5.2484577559055117
21
-4.4221896850393696
0
LINE
8
BLACK
6
CONTINUOUS
10
5.2484577559055117
20
-4.4221896850393696
11
5.2462387401574802
21
-4.4115112204724412
0
LINE
8
BLACK
6
CONTINUOUS
10
5.2462387401574802
20
-4.4115112204724412
11
5.2425863385826768
21
-4.4012343700787397
0
LINE
8
BLACK
6
CONTINUOUS
10
5.2425863385826768
20
-4.4012343700787397
11
5.2375685826771656
21
-4.3915505511811022
0
LINE
8
BLACK
6
CONTINUOUS
10
5.2375685826771656
20
-4.3915505511811022
11
5.2312789763779524
21
-4.3826401968503932
0
LINE
8
BLACK
6
CONTINUOUS
10
5.2312789763779524
20
-4.3826401968503932
11
5.2238346456692915
21
-4.3746692519685038
0
LINE
8
BLACK
6
CONTINUOUS
10
5.2238346456692915
20
-4.3746692519685038
11
5.2153742913385823
21
-4.3677862204724409
0
LINE
8
BLACK
6
CONTINUOUS
10
5.2153742913385823
20
-4.3677862204724409
11
5.2060554724409451
21
-4.3621193307086612
0
LINE
8
BLACK
6
CONTINUOUS
10
5.2060554724409451
20
-4.3621193307086612
11
5.1960518110236222
21
-4.3577741338582676
0
LINE
8
BLACK
6
CONTINUOUS
10
5.1960518110236222
20
-4.3577741338582676
11
5.1855496456692913
21
-4.3548315748031499
0
LINE
8
BLACK
6
CONTINUOUS
10
5.1855496456692913
20
-4.3548315748031499
11
5.1747446456692909
21
-4.353346456692913
0
LINE
8
BLACK
6
CONTINUOUS
10
5.1747446456692909
20
-4.353346456692913
11
5.1638380314960628
21
-4.353346456692913
0
LINE
8
BLACK
6
CONTINUOUS
10
5.1638380314960628
20
-4.353346456692913
11
5.1530330314960633
21
-4.3548315748031499
0
LINE
8
BLACK
6
CONTINUOUS
10
5.1530330314960633
20
-4.3548315748031499
11
5.1425308661417324
21
-4.3577741338582676
0
LINE
8
BLACK
6
CONTINUOUS
10
5.1425308661417324
20
-4.3577741338582676
11
5.1325272047244095
21
-4.3621193307086612
0
LINE
8
BLACK
6
CONTINUOUS
10
5.1325272047244095
20
-4.3621193307086612
11
5.1232083858267714
21
-4.3677862204724409
0
LINE
8
BLACK
6
CONTINUOUS
10
5.1232083858267714
20
-4.3677862204724409
11
5.1147480314960632
21
-4.3746692519685038
0
LINE
8
BLACK
6
CONTINUOUS
10
5.1147480314960632
20
-4.3746692519685038
11
5.1073037007874014
21
-4.3826401968503932
0
LINE
8
BLACK
6
CONTINUOUS
10
5.1073037007874014
20
-4.3826401968503932
11
5.101014094488189
21
-4.3915505511811022
0
LINE
8
BLACK
6
CONTINUOUS
10
5.101014094488189
20
-4.3915505511811022
11
5.095996338582677
21
-4.4012343700787397
0
LINE
8
BLACK
6
CONTINUOUS
10
5.095996338582677
20
-4.4012343700787397
11
5.0923439370078736
21
-4.4115112204724412
0
LINE
8
BLACK
6
CONTINUOUS
10
5.0923439370078736
20
-4.4115112204724412
11
5.0901249212598421
21
-4.4221896850393696
0
LINE
8
BLACK
6
CONTINUOUS
10
5.0901249212598421
20
-4.4221896850393696
11
5.0893806299212594
21
-4.4330708661417324
0
LINE
8
BLACK
6
CONTINUOUS
10
5.0893806299212594
20
-4.4330708661417324
11
5.0901249212598421
21
-4.4439520472440943
0
LINE
8
BLACK
6
CONTINUOUS
10
6.3678156299212594
20
-4.3492319685039371
11
6.3790694094488192
21
-4.3523851181102362
0
LINE
8
BLACK
6
CONTINUOUS
10
6.3790694094488192
20
-4.3523851181102362
11
6.3897890157480317
21
-4.3570413385826772
0
LINE
8
BLACK
6
CONTINUOUS
10
6.3897890157480317
20
-4.3570413385826772
11
6.3997748031496062
21
-4.3631137795275592
0
LINE
8
BLACK
6
CONTINUOUS
10
6.3997748031496062
20
-4.3631137795275592
11
6.4088406692913384
21
-4.3704894488188977
0
LINE
8
BLACK
6
CONTINUOUS
10
6.4088406692913384
20
-4.3704894488188977
11
6.4168177952755903
21
-4.3790308661417319
0
LINE
8
BLACK
6
CONTINUOUS
10
6.4168177952755903
20
-4.3790308661417319
11
6.4235575590551184
21
-4.3885789370078738
0
LINE
8
BLACK
6
CONTINUOUS
10
6.4235575590551184
20
-4.3885789370078738
11
6.4289344488188975
21
-4.3989558267716538
0
LINE
8
BLACK
6
CONTINUOUS
10
6.4289344488188975
20
-4.3989558267716538
11
6.4328482283464563
21
-4.4099681889763778
0
LINE
8
BLACK
6
CONTINUOUS
10
6.4328482283464563
20
-4.4099681889763778
11
6.4352260629921254
21
-4.4214109448818899
0
LINE
8
BLACK
6
CONTINUOUS
10
6.4352260629921254
20
-4.4214109448818899
11
6.4360236220472435
21
-4.4330708661417324
0
LINE
8
BLACK
6
CONTINUOUS
10
6.4360236220472435
20
-4.4330708661417324
11
6.4352260629921254
21
-4.4447307874015749
0
LINE
8
BLACK
6
CONTINUOUS
10
6.4352260629921254
20
-4.4447307874015749
11
6.4328482283464563
21
-4.4561735433070861
0
LINE
8
BLACK
6
CONTINUOUS
10
6.4328482283464563
20
-4.4561735433070861
11
6.4289344488188975
21
-4.4671859055118111
0
LINE
8
BLACK
6
CONTINUOUS
10
6.4289344488188975
20
-4.4671859055118111
11
6.4235575590551184
21
-4.4775627952755901
0
LINE
8
BLACK
6
CONTINUOUS
10
6.4235575590551184
20
-4.4775627952755901
11
6.4168177952755903
21
-4.487110866141732
0
LINE
8
BLACK
6
CONTINUOUS
10
6.4168177952755903
20
-4.487110866141732
11
6.4088406692913384
21
-4.4956522834645671
0
LINE
8
BLACK
6
CONTINUOUS
10
6.4088406692913384
20
-4.4956522834645671
11
6.3997748031496062
21
-4.5030279527559056
0
LINE
8
BLACK
6
CONTINUOUS
10
6.3997748031496062
20
-4.5030279527559056
11
6.3897890157480317
21
-4.5091003937007876
0
LINE
8
BLACK
6
CONTINUOUS
10
6.3897890157480317
20
-4.5091003937007876
11
6.3790694094488192
21
-4.5137566141732286
0
LINE
8
BLACK
6
CONTINUOUS
10
6.3790694094488192
20
-4.5137566141732286
11
6.3678156299212594
21
-4.5169097637795277
0
LINE
8
BLACK
6
CONTINUOUS
10
6.3678156299212594
20
-4.5169097637795277
11
6.3562372834645666
21
-4.5185011811023621
0
LINE
8
BLACK
6
CONTINUOUS
10
6.3562372834645666
20
-4.5185011811023621
11
6.3445501181102362
21
-4.5185011811023621
0
LINE
8
BLACK
6
CONTINUOUS
10
6.3445501181102362
20
-4.5185011811023621
11
6.3329717716535434
21
-4.5169097637795277
0
LINE
8
BLACK
6
CONTINUOUS
10
6.3329717716535434
20
-4.5169097637795277
11
6.3217179921259845
21
-4.5137566141732286
0
LINE
8
BLACK
6
CONTINUOUS
10
6.3217179921259845
20
-4.5137566141732286
11
6.3109983858267711
21
-4.5091003937007876
0
LINE
8
BLACK
6
CONTINUOUS
10
6.3109983858267711
20
-4.5091003937007876
11
6.3010125984251966
21
-4.5030279527559056
0
LINE
8
BLACK
6
CONTINUOUS
10
6.3010125984251966
20
-4.5030279527559056
11
6.2919467322834643
21
-4.4956522834645671
0
LINE
8
BLACK
6
CONTINUOUS
10
6.2919467322834643
20
-4.4956522834645671
11
6.2839696062992125
21
-4.487110866141732
0
LINE
8
BLACK
6
CONTINUOUS
10
6.2839696062992125
20
-4.487110866141732
11
6.2772298425196853
21
-4.4775627952755901
0
LINE
8
BLACK
6
CONTINUOUS
10
6.2772298425196853
20
-4.4775627952755901
11
6.2718529527559053
21
-4.4671859055118111
0
LINE
8
BLACK
6
CONTINUOUS
10
6.2718529527559053
20
-4.4671859055118111
11
6.2679391732283465
21
-4.4561735433070861
0
LINE
8
BLACK
6
CONTINUOUS
10
6.2679391732283465
20
-4.4561735433070861
11
6.2655613385826774
21
-4.4447307874015749
0
LINE
8
BLACK
6
CONTINUOUS
10
6.2655613385826774
20
-4.4447307874015749
11
6.2647637795275593
21
-4.4330708661417324
0
LINE
8
BLACK
6
CONTINUOUS
10
6.2647637795275593
20
-4.4330708661417324
11
6.2655613385826774
21
-4.4214109448818899
0
LINE
8
BLACK
6
CONTINUOUS
10
6.2655613385826774
20
-4.4214109448818899
11
6.2679391732283465
21
-4.4099681889763778
0
LINE
8
BLACK
6
CONTINUOUS
10
6.2679391732283465
20
-4.4099681889763778
11
6.2718529527559053
21
-4.3989558267716538
0
LINE
8
BLACK
6
CONTINUOUS
10
6.2718529527559053
20
-4.3989558267716538
11
6.2772298425196853
21
-4.3885789370078738
0
LINE
8
BLACK
6
CONTINUOUS
10
6.2772298425196853
20
-4.3885789370078738
11
6.2839696062992125
21
-4.3790308661417319
0
LINE
8
BLACK
6
CONTINUOUS
10
6.2839696062992125
20
-4.3790308661417319
11
6.2919467322834643
21
-4.3704894488188977
0
LINE
8
BLACK
6
CONTINUOUS
10
6.2919467322834643
20
-4.3704894488188977
11
6.3010125984251966
21
-4.3631137795275592
0
LINE
8
BLACK
6
CONTINUOUS
10
6.3010125984251966
20
-4.3631137795275592
11
6.3109983858267711
21
-4.3570413385826772
0
LINE
8
BLACK
6
CONTINUOUS
10
6.3109983858267711
20
-4.3570413385826772
11
6.3217179921259845
21
-4.3523851181102362
0
LINE
8
BLACK
6
CONTINUOUS
10
6.3217179921259845
20
-4.3523851181102362
11
6.3329717716535434
21
-4.3492319685039371
0
LINE
8
BLACK
6
CONTINUOUS
10
6.3329717716535434
20
-4.3492319685039371
11
6.3445501181102362
21
-4.3476405511811018
0
LINE
8
BLACK
6
CONTINUOUS
10
6.3445501181102362
20
-4.3476405511811018
11
6.3562372834645666
21
-4.3476405511811018
0
LINE
8
BLACK
6
CONTINUOUS
10
6.3562372834645666
20
-4.3476405511811018
11
6.3678156299212594
21
-4.3492319685039371
0
LINE
8
BLACK
6
CONTINUOUS
10
6.271227283464567
20
-4.4439520472440943
11
6.2734462992125986
21
-4.4546305118110237
0
LINE
8
BLACK
6
CONTINUOUS
10
6.2734462992125986
20
-4.4546305118110237
11
6.2770987007874011
21
-4.4649073622047242
0
LINE
8
BLACK
6
CONTINUOUS
10
6.2770987007874011
20
-4.4649073622047242
11
6.2821164566929131
21
-4.4745911811023618
0
LINE
8
BLACK
6
CONTINUOUS
10
6.2821164566929131
20
-4.4745911811023618
11
6.2884060629921255
21
-4.4835015354330707
0
LINE
8
BLACK
6
CONTINUOUS
10
6.2884060629921255
20
-4.4835015354330707
11
6.2958503937007873
21
-4.4914724803149602
0
LINE
8
BLACK
6
CONTINUOUS
10
6.2958503937007873
20
-4.4914724803149602
11
6.3043107480314955
21
-4.4983555118110239
0
LINE
8
BLACK
6
CONTINUOUS
10
6.3043107480314955
20
-4.4983555118110239
11
6.3136295669291336
21
-4.5040224015748027
0
LINE
8
BLACK
6
CONTINUOUS
10
6.3136295669291336
20
-4.5040224015748027
11
6.3236332283464565
21
-4.5083675984251972
0
LINE
8
BLACK
6
CONTINUOUS
10
6.3236332283464565
20
-4.5083675984251972
11
6.3341353937007874
21
-4.5113101574803149
0
LINE
8
BLACK
6
CONTINUOUS
10
6.3341353937007874
20
-4.5113101574803149
11
6.3449403937007869
21
-4.5127952755905509
0
LINE
8
BLACK
6
CONTINUOUS
10
6.3449403937007869
20
-4.5127952755905509
11
6.3558470078740159
21
-4.5127952755905509
0
LINE
8
BLACK
6
CONTINUOUS
10
6.3558470078740159
20
-4.5127952755905509
11
6.3666520078740154
21
-4.5113101574803149
0
LINE
8
BLACK
6
CONTINUOUS
10
6.3666520078740154
20
-4.5113101574803149
11
6.3771541732283463
21
-4.5083675984251972
0
LINE
8
BLACK
6
CONTINUOUS
10
6.3771541732283463
20
-4.5083675984251972
11
6.3871578346456692
21
-4.5040224015748027
0
LINE
8
BLACK
6
CONTINUOUS
10
6.3871578346456692
20
-4.5040224015748027
11
6.3964766535433073
21
-4.4983555118110239
0
LINE
8
BLACK
6
CONTINUOUS
10
6.3964766535433073
20
-4.4983555118110239
11
6.4049370078740155
21
-4.4914724803149602
0
LINE
8
BLACK
6
CONTINUOUS
10
6.4049370078740155
20
-4.4914724803149602
11
6.4123813385826773
21
-4.4835015354330707
0
LINE
8
BLACK
6
CONTINUOUS
10
6.4123813385826773
20
-4.4835015354330707
11
6.4186709448818897
21
-4.4745911811023618
0
LINE
8
BLACK
6
CONTINUOUS
10
6.4186709448818897
20
-4.4745911811023618
11
6.4236887007874017
21
-4.4649073622047242
0
LINE
8
BLACK
6
CONTINUOUS
10
6.4236887007874017
20
-4.4649073622047242
11
6.4273411023622042
21
-4.4546305118110237
0
LINE
8
BLACK
6
CONTINUOUS
10
6.4273411023622042
20
-4.4546305118110237
11
6.4295601181102358
21
-4.4439520472440943
0
LINE
8
BLACK
6
CONTINUOUS
10
6.4295601181102358
20
-4.4439520472440943
11
6.4303044094488184
21
-4.4330708661417324
0
LINE
8
BLACK
6
CONTINUOUS
10
6.4303044094488184
20
-4.4330708661417324
11
6.4295601181102358
21
-4.4221896850393696
0
LINE
8
BLACK
6
CONTINUOUS
10
6.4295601181102358
20
-4.4221896850393696
11
6.4273411023622042
21
-4.4115112204724412
0
LINE
8
BLACK
6
CONTINUOUS
10
6.4273411023622042
20
-4.4115112204724412
11
6.4236887007874017
21
-4.4012343700787397
0
LINE
8
BLACK
6
CONTINUOUS
10
6.4236887007874017
20
-4.4012343700787397
11
6.4186709448818897
21
-4.3915505511811022
0
LINE
8
BLACK
6
CONTINUOUS
10
6.4186709448818897
20
-4.3915505511811022
11
6.4123813385826773
21
-4.3826401968503932
0
LINE
8
BLACK
6
CONTINUOUS
10
6.4123813385826773
20
-4.3826401968503932
11
6.4049370078740155
21
-4.3746692519685038
0
LINE
8
BLACK
6
CONTINUOUS
10
6.4049370078740155
20
-4.3746692519685038
11
6.3964766535433073
21
-4.3677862204724409
0
LINE
8
BLACK
6
CONTINUOUS
10
6.3964766535433073
20
-4.3677862204724409
11
6.3871578346456692
21
-4.3621193307086612
0
LINE
8
BLACK
6
CONTINUOUS
10
6.3871578346456692
20
-4.3621193307086612
11
6.3771541732283463
21
-4.3577741338582676
0
LINE
8
BLACK
6
CONTINUOUS
10
6.3771541732283463
20
-4.3577741338582676
11
6.3666520078740154
21
-4.3548315748031499
0
LINE
8
BLACK
6
CONTINUOUS
10
6.3666520078740154
20
-4.3548315748031499
11
6.3558470078740159
21
-4.353346456692913
0
LINE
8
BLACK
6
CONTINUOUS
10
6.3558470078740159
20
-4.353346456692913
11
6.3449403937007869
21
-4.353346456692913
0
LINE
8
BLACK
6
CONTINUOUS
10
6.3449403937007869
20
-4.353346456692913
11
6.3341353937007874
21
-4.3548315748031499
0
LINE
8
BLACK
6
CONTINUOUS
10
6.3341353937007874
20
-4.3548315748031499
11
6.3236332283464565
21
-4.3577741338582676
0
LINE
8
BLACK
6
CONTINUOUS
10
6.3236332283464565
20
-4.3577741338582676
11
6.3136295669291336
21
-4.3621193307086612
0
LINE
8
BLACK
6
CONTINUOUS
10
6.3136295669291336
20
-4.3621193307086612
11
6.3043107480314955
21
-4.3677862204724409
0
LINE
8
BLACK
6
CONTINUOUS
10
6.3043107480314955
20
-4.3677862204724409
11
6.2958503937007873
21
-4.3746692519685038
0
LINE
8
BLACK
6
CONTINUOUS
10
6.2958503937007873
20
-4.3746692519685038
11
6.2884060629921255
21
-4.3826401968503932
0
LINE
8
BLACK
6
CONTINUOUS
10
6.2884060629921255
20
-4.3826401968503932
11
6.2821164566929131
21
-4.3915505511811022
0
LINE
8
BLACK
6
CONTINUOUS
10
6.2821164566929131
20
-4.3915505511811022
11
6.2770987007874011
21
-4.4012343700787397
0
LINE
8
BLACK
6
CONTINUOUS
10
6.2770987007874011
20
-4.4012343700787397
11
6.2734462992125986
21
-4.4115112204724412
0
LINE
8
BLACK
6
CONTINUOUS
10
6.2734462992125986
20
-4.4115112204724412
11
6.271227283464567
21
-4.4221896850393696
0
LINE
8
BLACK
6
CONTINUOUS
10
6.271227283464567
20
-4.4221896850393696
11
6.2704829921259844
21
-4.4330708661417324
0
LINE
8
BLACK
6
CONTINUOUS
10
6.2704829921259844
20
-4.4330708661417324
11
6.271227283464567
21
-4.4439520472440943
0
LINE
8
BLACK
6
CONTINUOUS
10
1.9170282283464566
20
-4.2783658267716538
11
1.9282820078740157
21
-4.2815189763779529
0
LINE
8
BLACK
6
CONTINUOUS
10
1.9282820078740157
20
-4.2815189763779529
11
1.9390016141732282
21
-4.2861751968503938
0
LINE
8
BLACK
6
CONTINUOUS
10
1.9390016141732282
20
-4.2861751968503938
11
1.9489874015748032
21
-4.2922476377952758
0
LINE
8
BLACK
6
CONTINUOUS
10
1.9489874015748032
20
-4.2922476377952758
11
1.9580532677165354
21
-4.2996233070866143
0
LINE
8
BLACK
6
CONTINUOUS
10
1.9580532677165354
20
-4.2996233070866143
11
1.9660303937007872
21
-4.3081647244094485
0
LINE
8
BLACK
6
CONTINUOUS
10
1.9660303937007872
20
-4.3081647244094485
11
1.9727701574803149
21
-4.3177127952755905
0
LINE
8
BLACK
6
CONTINUOUS
10
1.9727701574803149
20
-4.3177127952755905
11
1.9781470472440945
21
-4.3280896850393704
0
LINE
8
BLACK
6
CONTINUOUS
10
1.9781470472440945
20
-4.3280896850393704
11
1.9820608267716535
21
-4.3391020472440944
0
LINE
8
BLACK
6
CONTINUOUS
10
1.9820608267716535
20
-4.3391020472440944
11
1.9844386614173228
21
-4.3505448031496066
0
LINE
8
BLACK
6
CONTINUOUS
10
1.9844386614173228
20
-4.3505448031496066
11
1.985236220472441
21
-4.3622047244094491
0
LINE
8
BLACK
6
CONTINUOUS
10
1.985236220472441
20
-4.3622047244094491
11
1.9844386614173228
21
-4.3738646456692916
0
LINE
8
BLACK
6
CONTINUOUS
10
1.9844386614173228
20
-4.3738646456692916
11
1.9820608267716535
21
-4.3853074015748028
0
LINE
8
BLACK
6
CONTINUOUS
10
1.9820608267716535
20
-4.3853074015748028
11
1.9781470472440945
21
-4.3963197637795277
0
LINE
8
BLACK
6
CONTINUOUS
10
1.9781470472440945
20
-4.3963197637795277
11
1.9727701574803149
21
-4.4066966535433068
0
LINE
8
BLACK
6
CONTINUOUS
10
1.9727701574803149
20
-4.4066966535433068
11
1.9660303937007872
21
-4.4162447244094487
0
LINE
8
BLACK
6
CONTINUOUS
10
1.9660303937007872
20
-4.4162447244094487
11
1.9580532677165354
21
-4.4247861417322838
0
LINE
8
BLACK
6
CONTINUOUS
10
1.9580532677165354
20
-4.4247861417322838
11
1.9489874015748032
21
-4.4321618110236223
0
LINE
8
BLACK
6
CONTINUOUS
10
1.9489874015748032
20
-4.4321618110236223
11
1.9390016141732282
21
-4.4382342519685034
0
LINE
8
BLACK
6
CONTINUOUS
10
1.9390016141732282
20
-4.4382342519685034
11
1.9282820078740157
21
-4.4428904724409444
0
LINE
8
BLACK
6
CONTINUOUS
10
1.9282820078740157
20
-4.4428904724409444
11
1.9170282283464566
21
-4.4460436220472443
0
LINE
8
BLACK
6
CONTINUOUS
10
1.9170282283464566
20
-4.4460436220472443
11
1.9054498818897638
21
-4.4476350393700788
0
LINE
8
BLACK
6
CONTINUOUS
10
1.9054498818897638
20
-4.4476350393700788
11
1.8937627165354329
21
-4.4476350393700788
0
LINE
8
BLACK
6
CONTINUOUS
10
1.8937627165354329
20
-4.4476350393700788
11
1.8821843700787402
21
-4.4460436220472443
0
LINE
8
BLACK
6
CONTINUOUS
10
1.8821843700787402
20
-4.4460436220472443
11
1.870930590551181
21
-4.4428904724409444
0
LINE
8
BLACK
6
CONTINUOUS
10
1.870930590551181
20
-4.4428904724409444
11
1.8602109842519685
21
-4.4382342519685034
0
LINE
8
BLACK
6
CONTINUOUS
10
1.8602109842519685
20
-4.4382342519685034
11
1.8502251968503935
21
-4.4321618110236223
0
LINE
8
BLACK
6
CONTINUOUS
10
1.8502251968503935
20
-4.4321618110236223
11
1.8411593307086613
21
-4.4247861417322838
0
LINE
8
BLACK
6
CONTINUOUS
10
1.8411593307086613
20
-4.4247861417322838
11
1.8331822047244095
21
-4.4162447244094487
0
LINE
8
BLACK
6
CONTINUOUS
10
1.8331822047244095
20
-4.4162447244094487
11
1.8264424409448818
21
-4.4066966535433068
0
LINE
8
BLACK
6
CONTINUOUS
10
1.8264424409448818
20
-4.4066966535433068
11
1.8210655511811022
21
-4.3963197637795277
0
LINE
8
BLACK
6
CONTINUOUS
10
1.8210655511811022
20
-4.3963197637795277
11
1.8171517716535432
21
-4.3853074015748028
0
LINE
8
BLACK
6
CONTINUOUS
10
1.8171517716535432
20
-4.3853074015748028
11
1.8147739370078739
21
-4.3738646456692916
0
LINE
8
BLACK
6
CONTINUOUS
10
1.8147739370078739
20
-4.3738646456692916
11
1.8139763779527558
21
-4.3622047244094491
0
LINE
8
BLACK
6
CONTINUOUS
10
1.8139763779527558
20
-4.3622047244094491
11
1.8147739370078739
21
-4.3505448031496066
0
LINE
8
BLACK
6
CONTINUOUS
10
1.8147739370078739
20
-4.3505448031496066
11
1.8171517716535432
21
-4.3391020472440944
0
LINE
8
BLACK
6
CONTINUOUS
10
1.8171517716535432
20
-4.3391020472440944
11
1.8210655511811022
21
-4.3280896850393704
0
LINE
8
BLACK
6
CONTINUOUS
10
1.8210655511811022
20
-4.3280896850393704
11
1.8264424409448818
21
-4.3177127952755905
0
LINE
8
BLACK
6
CONTINUOUS
10
1.8264424409448818
20
-4.3177127952755905
11
1.8331822047244095
21
-4.3081647244094485
0
LINE
8
BLACK
6
CONTINUOUS
10
1.8331822047244095
20
-4.3081647244094485
11
1.8411593307086613
21
-4.2996233070866143
0
LINE
8
BLACK
6
CONTINUOUS
10
1.8411593307086613
20
-4.2996233070866143
11
1.8502251968503935
21
-4.2922476377952758
0
LINE
8
BLACK
6
CONTINUOUS
10
1.8502251968503935
20
-4.2922476377952758
11
1.8602109842519685
21
-4.2861751968503938
0
LINE
8
BLACK
6
CONTINUOUS
10
1.8602109842519685
20
-4.2861751968503938
11
1.870930590551181
21
-4.2815189763779529
0
LINE
8
BLACK
6
CONTINUOUS
10
1.870930590551181
20
-4.2815189763779529
11
1.8821843700787402
21
-4.2783658267716538
0
LINE
8
BLACK
6
CONTINUOUS
10
1.8821843700787402
20
-4.2783658267716538
11
1.8937627165354329
21
-4.2767744094488185
0
LINE
8
BLACK
6
CONTINUOUS
10
1.8937627165354329
20
-4.2767744094488185
11
1.9054498818897638
21
-4.2767744094488185
0
LINE
8
BLACK
6
CONTINUOUS
10
1.9054498818897638
20
-4.2767744094488185
11
1.9170282283464566
21
-4.2783658267716538
0
LINE
8
BLACK
6
CONTINUOUS
10
1.8204398818897638
20
-4.373085905511811
11
1.8226588976377953
21
-4.3837643700787403
0
LINE
8
BLACK
6
CONTINUOUS
10
1.8226588976377953
20
-4.3837643700787403
11
1.8263112992125985
21
-4.3940412204724408
0
LINE
8
BLACK
6
CONTINUOUS
10
1.8263112992125985
20
-4.3940412204724408
11
1.8313290551181103
21
-4.4037250393700784
0
LINE
8
BLACK
6
CONTINUOUS
10
1.8313290551181103
20
-4.4037250393700784
11
1.8376186614173229
21
-4.4126353937007874
0
LINE
8
BLACK
6
CONTINUOUS
10
1.8376186614173229
20
-4.4126353937007874
11
1.8450629921259842
21
-4.4206063385826768
0
LINE
8
BLACK
6
CONTINUOUS
10
1.8450629921259842
20
-4.4206063385826768
11
1.8535233464566929
21
-4.4274893700787397
0
LINE
8
BLACK
6
CONTINUOUS
10
1.8535233464566929
20
-4.4274893700787397
11
1.8628421653543306
21
-4.4331562598425194
0
LINE
8
BLACK
6
CONTINUOUS
10
1.8628421653543306
20
-4.4331562598425194
11
1.8728458267716535
21
-4.437501456692913
0
LINE
8
BLACK
6
CONTINUOUS
10
1.8728458267716535
20
-4.437501456692913
11
1.8833479921259841
21
-4.4404440157480316
0
LINE
8
BLACK
6
CONTINUOUS
10
1.8833479921259841
20
-4.4404440157480316
11
1.8941529921259843
21
-4.4419291338582676
0
LINE
8
BLACK
6
CONTINUOUS
10
1.8941529921259843
20
-4.4419291338582676
11
1.9050596062992124
21
-4.4419291338582676
0
LINE
8
BLACK
6
CONTINUOUS
10
1.9050596062992124
20
-4.4419291338582676
11
1.9158646062992126
21
-4.4404440157480316
0
LINE
8
BLACK
6
CONTINUOUS
10
1.9158646062992126
20
-4.4404440157480316
11
1.9263667716535433
21
-4.437501456692913
0
LINE
8
BLACK
6
CONTINUOUS
10
1.9263667716535433
20
-4.437501456692913
11
1.9363704330708662
21
-4.4331562598425194
0
LINE
8
BLACK
6
CONTINUOUS
10
1.9363704330708662
20
-4.4331562598425194
11
1.9456892519685038
21
-4.4274893700787397
0
LINE
8
BLACK
6
CONTINUOUS
10
1.9456892519685038
20
-4.4274893700787397
11
1.9541496062992125
21
-4.4206063385826768
0
LINE
8
BLACK
6
CONTINUOUS
10
1.9541496062992125
20
-4.4206063385826768
11
1.9615939370078739
21
-4.4126353937007874
0
LINE
8
BLACK
6
CONTINUOUS
10
1.9615939370078739
20
-4.4126353937007874
11
1.9678835433070865
21
-4.4037250393700784
0
LINE
8
BLACK
6
CONTINUOUS
10
1.9678835433070865
20
-4.4037250393700784
11
1.9729012992125983
21
-4.3940412204724408
0
LINE
8
BLACK
6
CONTINUOUS
10
1.9729012992125983
20
-4.3940412204724408
11
1.9765537007874014
21
-4.3837643700787403
0
LINE
8
BLACK
6
CONTINUOUS
10
1.9765537007874014
20
-4.3837643700787403
11
1.978772716535433
21
-4.373085905511811
0
LINE
8
BLACK
6
CONTINUOUS
10
1.978772716535433
20
-4.373085905511811
11
1.9795170078740156
21
-4.3622047244094491
0
LINE
8
BLACK
6
CONTINUOUS
10
1.9795170078740156
20
-4.3622047244094491
11
1.978772716535433
21
-4.3513235433070863
0
LINE
8
BLACK
6
CONTINUOUS
10
1.978772716535433
20
-4.3513235433070863
11
1.9765537007874014
21
-4.3406450787401578
0
LINE
8
BLACK
6
CONTINUOUS
10
1.9765537007874014
20
-4.3406450787401578
11
1.9729012992125983
21
-4.3303682283464564
0
LINE
8
BLACK
6
CONTINUOUS
10
1.9729012992125983
20
-4.3303682283464564
11
1.9678835433070865
21
-4.3206844094488188
0
LINE
8
BLACK
6
CONTINUOUS
10
1.9678835433070865
20
-4.3206844094488188
11
1.9615939370078739
21
-4.3117740551181098
0
LINE
8
BLACK
6
CONTINUOUS
10
1.9615939370078739
20
-4.3117740551181098
11
1.9541496062992125
21
-4.3038031102362204
0
LINE
8
BLACK
6
CONTINUOUS
10
1.9541496062992125
20
-4.3038031102362204
11
1.9456892519685038
21
-4.2969200787401576
0
LINE
8
BLACK
6
CONTINUOUS
10
1.9456892519685038
20
-4.2969200787401576
11
1.9363704330708662
21
-4.2912531889763779
0
LINE
8
BLACK
6
CONTINUOUS
10
1.9363704330708662
20
-4.2912531889763779
11
1.9263667716535433
21
-4.2869079921259843
0
LINE
8
BLACK
6
CONTINUOUS
10
1.9263667716535433
20
-4.2869079921259843
11
1.9158646062992126
21
-4.2839654330708656
0
LINE
8
BLACK
6
CONTINUOUS
10
1.9158646062992126
20
-4.2839654330708656
11
1.9050596062992124
21
-4.2824803149606296
0
LINE
8
BLACK
6
CONTINUOUS
10
1.9050596062992124
20
-4.2824803149606296
11
1.8941529921259843
21
-4.2824803149606296
0
LINE
8
BLACK
6
CONTINUOUS
10
1.8941529921259843
20
-4.2824803149606296
11
1.8833479921259841
21
-4.2839654330708656
0
LINE
8
BLACK
6
CONTINUOUS
10
1.8833479921259841
20
-4.2839654330708656
11
1.8728458267716535
21
-4.2869079921259843
0
LINE
8
BLACK
6
CONTINUOUS
10
1.8728458267716535
20
-4.2869079921259843
11
1.8628421653543306
21
-4.2912531889763779
0
LINE
8
BLACK
6
CONTINUOUS
10
1.8628421653543306
20
-4.2912531889763779
11
1.8535233464566929
21
-4.2969200787401576
0
LINE
8
BLACK
6
CONTINUOUS
10
1.8535233464566929
20
-4.2969200787401576
11
1.8450629921259842
21
-4.3038031102362204
0
LINE
8
BLACK
6
CONTINUOUS
10
1.8450629921259842
20
-4.3038031102362204
11
1.8376186614173229
21
-4.3117740551181098
0
LINE
8
BLACK
6
CONTINUOUS
10
1.8376186614173229
20
-4.3117740551181098
11
1.8313290551181103
21
-4.3206844094488188
0
LINE
8
BLACK
6
CONTINUOUS
10
1.8313290551181103
20
-4.3206844094488188
11
1.8263112992125985
21
-4.3303682283464564
0
LINE
8
BLACK
6
CONTINUOUS
10
1.8263112992125985
20
-4.3303682283464564
11
1.8226588976377953
21
-4.3406450787401578
0
LINE
8
BLACK
6
CONTINUOUS
10
1.8226588976377953
20
-4.3406450787401578
11
1.8204398818897638
21
-4.3513235433070863
0
LINE
8
BLACK
6
CONTINUOUS
10
1.8204398818897638
20
-4.3513235433070863
11
1.8196955905511811
21
-4.3622047244094491
0
LINE
8
BLACK
6
CONTINUOUS
10
1.8196955905511811
20
-4.3622047244094491
11
1.8204398818897638
21
-4.373085905511811
0
LINE
8
BLACK
6
CONTINUOUS
10
3.0981305905511811
20
-4.2783658267716538
11
3.10938437007874
21
-4.2815189763779529
0
LINE
8
BLACK
6
CONTINUOUS
10
3.10938437007874
20
-4.2815189763779529
11
3.1201039763779526
21
-4.2861751968503938
0
LINE
8
BLACK
6
CONTINUOUS
10
3.1201039763779526
20
-4.2861751968503938
11
3.1300897637795275
21
-4.2922476377952758
0
LINE
8
BLACK
6
CONTINUOUS
10
3.1300897637795275
20
-4.2922476377952758
11
3.1391556299212597
21
-4.2996233070866143
0
LINE
8
BLACK
6
CONTINUOUS
10
3.1391556299212597
20
-4.2996233070866143
11
3.1471327559055116
21
-4.3081647244094485
0
LINE
8
BLACK
6
CONTINUOUS
10
3.1471327559055116
20
-4.3081647244094485
11
3.1538725196850392
21
-4.3177127952755905
0
LINE
8
BLACK
6
CONTINUOUS
10
3.1538725196850392
20
-4.3177127952755905
11
3.1592494094488188
21
-4.3280896850393704
0
LINE
8
BLACK
6
CONTINUOUS
10
3.1592494094488188
20
-4.3280896850393704
11
3.163163188976378
21
-4.3391020472440944
0
LINE
8
BLACK
6
CONTINUOUS
10
3.163163188976378
20
-4.3391020472440944
11
3.1655410236220471
21
-4.3505448031496066
0
LINE
8
BLACK
6
CONTINUOUS
10
3.1655410236220471
20
-4.3505448031496066
11
3.1663385826771653
21
-4.3622047244094491
0
LINE
8
BLACK
6
CONTINUOUS
10
3.1663385826771653
20
-4.3622047244094491
11
3.1655410236220471
21
-4.3738646456692916
0
LINE
8
BLACK
6
CONTINUOUS
10
3.1655410236220471
20
-4.3738646456692916
11
3.163163188976378
21
-4.3853074015748028
0
LINE
8
BLACK
6
CONTINUOUS
10
3.163163188976378
20
-4.3853074015748028
11
3.1592494094488188
21
-4.3963197637795277
0
LINE
8
BLACK
6
CONTINUOUS
10
3.1592494094488188
20
-4.3963197637795277
11
3.1538725196850392
21
-4.4066966535433068
0
LINE
8
BLACK
6
CONTINUOUS
10
3.1538725196850392
20
-4.4066966535433068
11
3.1471327559055116
21
-4.4162447244094487
0
LINE
8
BLACK
6
CONTINUOUS
10
3.1471327559055116
20
-4.4162447244094487
11
3.1391556299212597
21
-4.4247861417322838
0
LINE
8
BLACK
6
CONTINUOUS
10
3.1391556299212597
20
-4.4247861417322838
11
3.1300897637795275
21
-4.4321618110236223
0
LINE
8
BLACK
6
CONTINUOUS
10
3.1300897637795275
20
-4.4321618110236223
11
3.1201039763779526
21
-4.4382342519685034
0
LINE
8
BLACK
6
CONTINUOUS
10
3.1201039763779526
20
-4.4382342519685034
11
3.10938437007874
21
-4.4428904724409444
0
LINE
8
BLACK
6
CONTINUOUS
10
3.10938437007874
20
-4.4428904724409444
11
3.0981305905511811
21
-4.4460436220472443
0
LINE
8
BLACK
6
CONTINUOUS
10
3.0981305905511811
20
-4.4460436220472443
11
3.0865522440944879
21
-4.4476350393700788
0
LINE
8
BLACK
6
CONTINUOUS
10
3.0865522440944879
20
-4.4476350393700788
11
3.0748650787401575
21
-4.4476350393700788
0
LINE
8
BLACK
6
CONTINUOUS
10
3.0748650787401575
20
-4.4476350393700788
11
3.0632867322834647
21
-4.4460436220472443
0
LINE
8
BLACK
6
CONTINUOUS
10
3.0632867322834647
20
-4.4460436220472443
11
3.0520329527559054
21
-4.4428904724409444
0
LINE
8
BLACK
6
CONTINUOUS
10
3.0520329527559054
20
-4.4428904724409444
11
3.0413133464566928
21
-4.4382342519685034
0
LINE
8
BLACK
6
CONTINUOUS
10
3.0413133464566928
20
-4.4382342519685034
11
3.0313275590551179
21
-4.4321618110236223
0
LINE
8
BLACK
6
CONTINUOUS
10
3.0313275590551179
20
-4.4321618110236223
11
3.0222616929133856
21
-4.4247861417322838
0
LINE
8
BLACK
6
CONTINUOUS
10
3.0222616929133856
20
-4.4247861417322838
11
3.0142845669291338
21
-4.4162447244094487
0
LINE
8
BLACK
6
CONTINUOUS
10
3.0142845669291338
20
-4.4162447244094487
11
3.0075448031496061
21
-4.4066966535433068
0
LINE
8
BLACK
6
CONTINUOUS
10
3.0075448031496061
20
-4.4066966535433068
11
3.0021679133858266
21
-4.3963197637795277
0
LINE
8
BLACK
6
CONTINUOUS
10
3.0021679133858266
20
-4.3963197637795277
11
2.9982541338582678
21
-4.3853074015748028
0
LINE
8
BLACK
6
CONTINUOUS
10
2.9982541338582678
20
-4.3853074015748028
11
2.9958762992125982
21
-4.3738646456692916
0
LINE
8
BLACK
6
CONTINUOUS
10
2.9958762992125982
20
-4.3738646456692916
11
2.9950787401574801
21
-4.3622047244094491
0
LINE
8
BLACK
6
CONTINUOUS
10
2.9950787401574801
20
-4.3622047244094491
11
2.9958762992125982
21
-4.3505448031496066
0
LINE
8
BLACK
6
CONTINUOUS
10
2.9958762992125982
20
-4.3505448031496066
11
2.9982541338582678
21
-4.3391020472440944
0
LINE
8
BLACK
6
CONTINUOUS
10
2.9982541338582678
20
-4.3391020472440944
11
3.0021679133858266
21
-4.3280896850393704
0
LINE
8
BLACK
6
CONTINUOUS
10
3.0021679133858266
20
-4.3280896850393704
11
3.0075448031496061
21
-4.3177127952755905
0
LINE
8
BLACK
6
CONTINUOUS
10
3.0075448031496061
20
-4.3177127952755905
11
3.0142845669291338
21
-4.3081647244094485
0
LINE
8
BLACK
6
CONTINUOUS
10
3.0142845669291338
20
-4.3081647244094485
11
3.0222616929133856
21
-4.2996233070866143
0
LINE
8
BLACK
6
CONTINUOUS
10
3.0222616929133856
20
-4.2996233070866143
11
3.0313275590551179
21
-4.2922476377952758
0
LINE
8
BLACK
6
CONTINUOUS
10
3.0313275590551179
20
-4.2922476377952758
11
3.0413133464566928
21
-4.2861751968503938
0
LINE
8
BLACK
6
CONTINUOUS
10
3.0413133464566928
20
-4.2861751968503938
11
3.0520329527559054
21
-4.2815189763779529
0
LINE
8
BLACK
6
CONTINUOUS
10
3.0520329527559054
20
-4.2815189763779529
11
3.0632867322834647
21
-4.2783658267716538
0
LINE
8
BLACK
6
CONTINUOUS
10
3.0632867322834647
20
-4.2783658267716538
11
3.0748650787401575
21
-4.2767744094488185
0
LINE
8
BLACK
6
CONTINUOUS
10
3.0748650787401575
20
-4.2767744094488185
11
3.0865522440944879
21
-4.2767744094488185
0
LINE
8
BLACK
6
CONTINUOUS
10
3.0865522440944879
20
-4.2767744094488185
11
3.0981305905511811
21
-4.2783658267716538
0
LINE
8
BLACK
6
CONTINUOUS
10
3.0015422440944883
20
-4.373085905511811
11
3.0037612598425194
21
-4.3837643700787403
0
LINE
8
BLACK
6
CONTINUOUS
10
3.0037612598425194
20
-4.3837643700787403
11
3.0074136614173228
21
-4.3940412204724408
0
LINE
8
BLACK
6
CONTINUOUS
10
3.0074136614173228
20
-4.3940412204724408
11
3.0124314173228344
21
-4.4037250393700784
0
LINE
8
BLACK
6
CONTINUOUS
10
3.0124314173228344
20
-4.4037250393700784
11
3.0187210236220472
21
-4.4126353937007874
0
LINE
8
BLACK
6
CONTINUOUS
10
3.0187210236220472
20
-4.4126353937007874
11
3.0261653543307085
21
-4.4206063385826768
0
LINE
8
BLACK
6
CONTINUOUS
10
3.0261653543307085
20
-4.4206063385826768
11
3.0346257086614172
21
-4.4274893700787397
0
LINE
8
BLACK
6
CONTINUOUS
10
3.0346257086614172
20
-4.4274893700787397
11
3.0439445275590549
21
-4.4331562598425194
0
LINE
8
BLACK
6
CONTINUOUS
10
3.0439445275590549
20
-4.4331562598425194
11
3.0539481889763778
21
-4.437501456692913
0
LINE
8
BLACK
6
CONTINUOUS
10
3.0539481889763778
20
-4.437501456692913
11
3.0644503543307087
21
-4.4404440157480316
0
LINE
8
BLACK
6
CONTINUOUS
10
3.0644503543307087
20
-4.4404440157480316
11
3.0752553543307086
21
-4.4419291338582676
0
LINE
8
BLACK
6
CONTINUOUS
10
3.0752553543307086
20
-4.4419291338582676
11
3.0861619685039368
21
-4.4419291338582676
0
LINE
8
BLACK
6
CONTINUOUS
10
3.0861619685039368
20
-4.4419291338582676
11
3.0969669685039372
21
-4.4404440157480316
0
LINE
8
BLACK
6
CONTINUOUS
10
3.0969669685039372
20
-4.4404440157480316
11
3.1074691338582676
21
-4.437501456692913
0
LINE
8
BLACK
6
CONTINUOUS
10
3.1074691338582676
20
-4.437501456692913
11
3.1174727952755905
21
-4.4331562598425194
0
LINE
8
BLACK
6
CONTINUOUS
10
3.1174727952755905
20
-4.4331562598425194
11
3.1267916141732282
21
-4.4274893700787397
0
LINE
8
BLACK
6
CONTINUOUS
10
3.1267916141732282
20
-4.4274893700787397
11
3.1352519685039368
21
-4.4206063385826768
0
LINE
8
BLACK
6
CONTINUOUS
10
3.1352519685039368
20
-4.4206063385826768
11
3.1426962992125982
21
-4.4126353937007874
0
LINE
8
BLACK
6
CONTINUOUS
10
3.1426962992125982
20
-4.4126353937007874
11
3.148985905511811
21
-4.4037250393700784
0
LINE
8
BLACK
6
CONTINUOUS
10
3.148985905511811
20
-4.4037250393700784
11
3.1540036614173226
21
-4.3940412204724408
0
LINE
8
BLACK
6
CONTINUOUS
10
3.1540036614173226
20
-4.3940412204724408
11
3.157656062992126
21
-4.3837643700787403
0
LINE
8
BLACK
6
CONTINUOUS
10
3.157656062992126
20
-4.3837643700787403
11
3.1598750787401575
21
-4.373085905511811
0
LINE
8
BLACK
6
CONTINUOUS
10
3.1598750787401575
20
-4.373085905511811
11
3.1606193700787402
21
-4.3622047244094491
0
LINE
8
BLACK
6
CONTINUOUS
10
3.1606193700787402
20
-4.3622047244094491
11
3.1598750787401575
21
-4.3513235433070863
0
LINE
8
BLACK
6
CONTINUOUS
10
3.1598750787401575
20
-4.3513235433070863
11
3.157656062992126
21
-4.3406450787401578
0
LINE
8
BLACK
6
CONTINUOUS
10
3.157656062992126
20
-4.3406450787401578
11
3.1540036614173226
21
-4.3303682283464564
0
LINE
8
BLACK
6
CONTINUOUS
10
3.1540036614173226
20
-4.3303682283464564
11
3.148985905511811
21
-4.3206844094488188
0
LINE
8
BLACK
6
CONTINUOUS
10
3.148985905511811
20
-4.3206844094488188
11
3.1426962992125982
21
-4.3117740551181098
0
LINE
8
BLACK
6
CONTINUOUS
10
3.1426962992125982
20
-4.3117740551181098
11
3.1352519685039368
21
-4.3038031102362204
0
LINE
8
BLACK
6
CONTINUOUS
10
3.1352519685039368
20
-4.3038031102362204
11
3.1267916141732282
21
-4.2969200787401576
0
LINE
8
BLACK
6
CONTINUOUS
10
3.1267916141732282
20
-4.2969200787401576
11
3.1174727952755905
21
-4.2912531889763779
0
LINE
8
BLACK
6
CONTINUOUS
10
3.1174727952755905
20
-4.2912531889763779
11
3.1074691338582676
21
-4.2869079921259843
0
LINE
8
BLACK
6
CONTINUOUS
10
3.1074691338582676
20
-4.2869079921259843
11
3.0969669685039372
21
-4.2839654330708656
0
LINE
8
BLACK
6
CONTINUOUS
10
3.0969669685039372
20
-4.2839654330708656
11
3.0861619685039368
21
-4.2824803149606296
0
LINE
8
BLACK
6
CONTINUOUS
10
3.0861619685039368
20
-4.2824803149606296
11
3.0752553543307086
21
-4.2824803149606296
0
LINE
8
BLACK
6
CONTINUOUS
10
3.0752553543307086
20
-4.2824803149606296
11
3.0644503543307087
21
-4.2839654330708656
0
LINE
8
BLACK
6
CONTINUOUS
10
3.0644503543307087
20
-4.2839654330708656
11
3.0539481889763778
21
-4.2869079921259843
0
LINE
8
BLACK
6
CONTINUOUS
10
3.0539481889763778
20
-4.2869079921259843
11
3.0439445275590549
21
-4.2912531889763779
0
LINE
8
BLACK
6
CONTINUOUS
10
3.0439445275590549
20
-4.2912531889763779
11
3.0346257086614172
21
-4.2969200787401576
0
LINE
8
BLACK
6
CONTINUOUS
10
3.0346257086614172
20
-4.2969200787401576
11
3.0261653543307085
21
-4.3038031102362204
0
LINE
8
BLACK
6
CONTINUOUS
10
3.0261653543307085
20
-4.3038031102362204
11
3.0187210236220472
21
-4.3117740551181098
0
LINE
8
BLACK
6
CONTINUOUS
10
3.0187210236220472
20
-4.3117740551181098
11
3.0124314173228344
21
-4.3206844094488188
0
LINE
8
BLACK
6
CONTINUOUS
10
3.0124314173228344
20
-4.3206844094488188
11
3.0074136614173228
21
-4.3303682283464564
0
LINE
8
BLACK
6
CONTINUOUS
10
3.0074136614173228
20
-4.3303682283464564
11
3.0037612598425194
21
-4.3406450787401578
0
LINE
8
BLACK
6
CONTINUOUS
10
3.0037612598425194
20
-4.3406450787401578
11
3.0015422440944883
21
-4.3513235433070863
0
LINE
8
BLACK
6
CONTINUOUS
10
3.0015422440944883
20
-4.3513235433070863
11
3.0007979527559057
21
-4.3622047244094491
0
LINE
8
BLACK
6
CONTINUOUS
10
3.0007979527559057
20
-4.3622047244094491
11
3.0015422440944883
21
-4.373085905511811
0
LINE
8
BLACK
6
CONTINUOUS
10
5.1867132677165353
20
-2.3019878740157478
11
5.1979670472440942
21
-2.3051410236220473
0
LINE
8
BLACK
6
CONTINUOUS
10
5.1979670472440942
20
-2.3051410236220473
11
5.2086866535433067
21
-2.3097972440944883
0
LINE
8
BLACK
6
CONTINUOUS
10
5.2086866535433067
20
-2.3097972440944883
11
5.2186724409448821
21
-2.3158696850393699
0
LINE
8
BLACK
6
CONTINUOUS
10
5.2186724409448821
20
-2.3158696850393699
11
5.2277383070866144
21
-2.3232453543307088
0
LINE
8
BLACK
6
CONTINUOUS
10
5.2277383070866144
20
-2.3232453543307088
11
5.2357154330708662
21
-2.3317867716535434
0
LINE
8
BLACK
6
CONTINUOUS
10
5.2357154330708662
20
-2.3317867716535434
11
5.2424551968503934
21
-2.3413348425196849
0
LINE
8
BLACK
6
CONTINUOUS
10
5.2424551968503934
20
-2.3413348425196849
11
5.2478320866141734
21
-2.3517117322834644
0
LINE
8
BLACK
6
CONTINUOUS
10
5.2478320866141734
20
-2.3517117322834644
11
5.2517458661417322
21
-2.3627240944881889
0
LINE
8
BLACK
6
CONTINUOUS
10
5.2517458661417322
20
-2.3627240944881889
11
5.2541237007874013
21
-2.3741668503937006
0
LINE
8
BLACK
6
CONTINUOUS
10
5.2541237007874013
20
-2.3741668503937006
11
5.2549212598425195
21
-2.3858267716535431
0
LINE
8
BLACK
6
CONTINUOUS
10
5.2549212598425195
20
-2.3858267716535431
11
5.2541237007874013
21
-2.3974866929133856
0
LINE
8
BLACK
6
CONTINUOUS
10
5.2541237007874013
20
-2.3974866929133856
11
5.2517458661417322
21
-2.4089294488188977
0
LINE
8
BLACK
6
CONTINUOUS
10
5.2517458661417322
20
-2.4089294488188977
11
5.2478320866141734
21
-2.4199418110236222
0
LINE
8
BLACK
6
CONTINUOUS
10
5.2478320866141734
20
-2.4199418110236222
11
5.2424551968503934
21
-2.4303187007874016
0
LINE
8
BLACK
6
CONTINUOUS
10
5.2424551968503934
20
-2.4303187007874016
11
5.2357154330708662
21
-2.4398667716535432
0
LINE
8
BLACK
6
CONTINUOUS
10
5.2357154330708662
20
-2.4398667716535432
11
5.2277383070866144
21
-2.4484081889763778
0
LINE
8
BLACK
6
CONTINUOUS
10
5.2277383070866144
20
-2.4484081889763778
11
5.2186724409448821
21
-2.4557838582677163
0
LINE
8
BLACK
6
CONTINUOUS
10
5.2186724409448821
20
-2.4557838582677163
11
5.2086866535433067
21
-2.4618562992125983
0
LINE
8
BLACK
6
CONTINUOUS
10
5.2086866535433067
20
-2.4618562992125983
11
5.1979670472440942
21
-2.4665125196850393
0
LINE
8
BLACK
6
CONTINUOUS
10
5.1979670472440942
20
-2.4665125196850393
11
5.1867132677165353
21
-2.4696656692913384
0
LINE
8
BLACK
6
CONTINUOUS
10
5.1867132677165353
20
-2.4696656692913384
11
5.1751349212598425
21
-2.4712570866141732
0
LINE
8
BLACK
6
CONTINUOUS
10
5.1751349212598425
20
-2.4712570866141732
11
5.1634477559055121
21
-2.4712570866141732
0
LINE
8
BLACK
6
CONTINUOUS
10
5.1634477559055121
20
-2.4712570866141732
11
5.1518694094488184
21
-2.4696656692913384
0
LINE
8
BLACK
6
CONTINUOUS
10
5.1518694094488184
20
-2.4696656692913384
11
5.1406156299212595
21
-2.4665125196850393
0
LINE
8
BLACK
6
CONTINUOUS
10
5.1406156299212595
20
-2.4665125196850393
11
5.129896023622047
21
-2.4618562992125983
0
LINE
8
BLACK
6
CONTINUOUS
10
5.129896023622047
20
-2.4618562992125983
11
5.1199102362204725
21
-2.4557838582677163
0
LINE
8
BLACK
6
CONTINUOUS
10
5.1199102362204725
20
-2.4557838582677163
11
5.1108443700787403
21
-2.4484081889763778
0
LINE
8
BLACK
6
CONTINUOUS
10
5.1108443700787403
20
-2.4484081889763778
11
5.1028672440944884
21
-2.4398667716535432
0
LINE
8
BLACK
6
CONTINUOUS
10
5.1028672440944884
20
-2.4398667716535432
11
5.0961274803149603
21
-2.4303187007874016
0
LINE
8
BLACK
6
CONTINUOUS
10
5.0961274803149603
20
-2.4303187007874016
11
5.0907505905511812
21
-2.4199418110236222
0
LINE
8
BLACK
6
CONTINUOUS
10
5.0907505905511812
20
-2.4199418110236222
11
5.0868368110236215
21
-2.4089294488188977
0
LINE
8
BLACK
6
CONTINUOUS
10
5.0868368110236215
20
-2.4089294488188977
11
5.0844589763779524
21
-2.3974866929133856
0
LINE
8
BLACK
6
CONTINUOUS
10
5.0844589763779524
20
-2.3974866929133856
11
5.0836614173228343
21
-2.3858267716535431
0
LINE
8
BLACK
6
CONTINUOUS
10
5.0836614173228343
20
-2.3858267716535431
11
5.0844589763779524
21
-2.3741668503937006
0
LINE
8
BLACK
6
CONTINUOUS
10
5.0844589763779524
20
-2.3741668503937006
11
5.0868368110236215
21
-2.3627240944881889
0
LINE
8
BLACK
6
CONTINUOUS
10
5.0868368110236215
20
-2.3627240944881889
11
5.0907505905511812
21
-2.3517117322834644
0
LINE
8
BLACK
6
CONTINUOUS
10
5.0907505905511812
20
-2.3517117322834644
11
5.0961274803149603
21
-2.3413348425196849
0
LINE
8
BLACK
6
CONTINUOUS
10
5.0961274803149603
20
-2.3413348425196849
11
5.1028672440944884
21
-2.3317867716535434
0
LINE
8
BLACK
6
CONTINUOUS
10
5.1028672440944884
20
-2.3317867716535434
11
5.1108443700787403
21
-2.3232453543307088
0
LINE
8
BLACK
6
CONTINUOUS
10
5.1108443700787403
20
-2.3232453543307088
11
5.1199102362204725
21
-2.3158696850393699
0
LINE
8
BLACK
6
CONTINUOUS
10
5.1199102362204725
20
-2.3158696850393699
11
5.129896023622047
21
-2.3097972440944883
0
LINE
8
BLACK
6
CONTINUOUS
10
5.129896023622047
20
-2.3097972440944883
11
5.1406156299212595
21
-2.3051410236220473
0
LINE
8
BLACK
6
CONTINUOUS
10
5.1406156299212595
20
-2.3051410236220473
11
5.1518694094488184
21
-2.3019878740157478
0
LINE
8
BLACK
6
CONTINUOUS
10
5.1518694094488184
20
-2.3019878740157478
11
5.1634477559055121
21
-2.3003964566929134
0
LINE
8
BLACK
6
CONTINUOUS
10
5.1634477559055121
20
-2.3003964566929134
11
5.1751349212598425
21
-2.3003964566929134
0
LINE
8
BLACK
6
CONTINUOUS
10
5.1751349212598425
20
-2.3003964566929134
11
5.1867132677165353
21
-2.3019878740157478
0
LINE
8
BLACK
6
CONTINUOUS
10
5.0901249212598421
20
-2.3967079527559054
11
5.0923439370078736
21
-2.4073864173228348
0
LINE
8
BLACK
6
CONTINUOUS
10
5.0923439370078736
20
-2.4073864173228348
11
5.095996338582677
21
-2.4176632677165353
0
LINE
8
BLACK
6
CONTINUOUS
10
5.095996338582677
20
-2.4176632677165353
11
5.101014094488189
21
-2.4273470866141733
0
LINE
8
BLACK
6
CONTINUOUS
10
5.101014094488189
20
-2.4273470866141733
11
5.1073037007874014
21
-2.4362574409448818
0
LINE
8
BLACK
6
CONTINUOUS
10
5.1073037007874014
20
-2.4362574409448818
11
5.1147480314960632
21
-2.4442283858267717
0
LINE
8
BLACK
6
CONTINUOUS
10
5.1147480314960632
20
-2.4442283858267717
11
5.1232083858267714
21
-2.4511114173228346
0
LINE
8
BLACK
6
CONTINUOUS
10
5.1232083858267714
20
-2.4511114173228346
11
5.1325272047244095
21
-2.4567783070866143
0
LINE
8
BLACK
6
CONTINUOUS
10
5.1325272047244095
20
-2.4567783070866143
11
5.1425308661417324
21
-2.4611235039370079
0
LINE
8
BLACK
6
CONTINUOUS
10
5.1425308661417324
20
-2.4611235039370079
11
5.1530330314960633
21
-2.464066062992126
0
LINE
8
BLACK
6
CONTINUOUS
10
5.1530330314960633
20
-2.464066062992126
11
5.1638380314960628
21
-2.465551181102362
0
LINE
8
BLACK
6
CONTINUOUS
10
5.1638380314960628
20
-2.465551181102362
11
5.1747446456692909
21
-2.465551181102362
0
LINE
8
BLACK
6
CONTINUOUS
10
5.1747446456692909
20
-2.465551181102362
11
5.1855496456692913
21
-2.464066062992126
0
LINE
8
BLACK
6
CONTINUOUS
10
5.1855496456692913
20
-2.464066062992126
11
5.1960518110236222
21
-2.4611235039370079
0
LINE
8
BLACK
6
CONTINUOUS
10
5.1960518110236222
20
-2.4611235039370079
11
5.2060554724409451
21
-2.4567783070866143
0
LINE
8
BLACK
6
CONTINUOUS
10
5.2060554724409451
20
-2.4567783070866143
11
5.2153742913385823
21
-2.4511114173228346
0
LINE
8
BLACK
6
CONTINUOUS
10
5.2153742913385823
20
-2.4511114173228346
11
5.2238346456692915
21
-2.4442283858267717
0
LINE
8
BLACK
6
CONTINUOUS
10
5.2238346456692915
20
-2.4442283858267717
11
5.2312789763779524
21
-2.4362574409448818
0
LINE
8
BLACK
6
CONTINUOUS
10
5.2312789763779524
20
-2.4362574409448818
11
5.2375685826771656
21
-2.4273470866141733
0
LINE
8
BLACK
6
CONTINUOUS
10
5.2375685826771656
20
-2.4273470866141733
11
5.2425863385826768
21
-2.4176632677165353
0
LINE
8
BLACK
6
CONTINUOUS
10
5.2425863385826768
20
-2.4176632677165353
11
5.2462387401574802
21
-2.4073864173228348
0
LINE
8
BLACK
6
CONTINUOUS
10
5.2462387401574802
20
-2.4073864173228348
11
5.2484577559055117
21
-2.3967079527559054
0
LINE
8
BLACK
6
CONTINUOUS
10
5.2484577559055117
20
-2.3967079527559054
11
5.2492020472440943
21
-2.3858267716535431
0
LINE
8
BLACK
6
CONTINUOUS
10
5.2492020472440943
20
-2.3858267716535431
11
5.2484577559055117
21
-2.3749455905511812
0
LINE
8
BLACK
6
CONTINUOUS
10
5.2484577559055117
20
-2.3749455905511812
11
5.2462387401574802
21
-2.3642671259842518
0
LINE
8
BLACK
6
CONTINUOUS
10
5.2462387401574802
20
-2.3642671259842518
11
5.2425863385826768
21
-2.3539902755905513
0
LINE
8
BLACK
6
CONTINUOUS
10
5.2425863385826768
20
-2.3539902755905513
11
5.2375685826771656
21
-2.3443064566929133
0
LINE
8
BLACK
6
CONTINUOUS
10
5.2375685826771656
20
-2.3443064566929133
11
5.2312789763779524
21
-2.3353961023622047
0
LINE
8
BLACK
6
CONTINUOUS
10
5.2312789763779524
20
-2.3353961023622047
11
5.2238346456692915
21
-2.3274251574803149
0
LINE
8
BLACK
6
CONTINUOUS
10
5.2238346456692915
20
-2.3274251574803149
11
5.2153742913385823
21
-2.320542125984252
0
LINE
8
BLACK
6
CONTINUOUS
10
5.2153742913385823
20
-2.320542125984252
11
5.2060554724409451
21
-2.3148752362204723
0
LINE
8
BLACK
6
CONTINUOUS
10
5.2060554724409451
20
-2.3148752362204723
11
5.1960518110236222
21
-2.3105300393700787
0
LINE
8
BLACK
6
CONTINUOUS
10
5.1960518110236222
20
-2.3105300393700787
11
5.1855496456692913
21
-2.3075874803149605
0
LINE
8
BLACK
6
CONTINUOUS
10
5.1855496456692913
20
-2.3075874803149605
11
5.1747446456692909
21
-2.3061023622047245
0
LINE
8
BLACK
6
CONTINUOUS
10
5.1747446456692909
20
-2.3061023622047245
11
5.1638380314960628
21
-2.3061023622047245
0
LINE
8
BLACK
6
CONTINUOUS
10
5.1638380314960628
20
-2.3061023622047245
11
5.1530330314960633
21
-2.3075874803149605
0
LINE
8
BLACK
6
CONTINUOUS
10
5.1530330314960633
20
-2.3075874803149605
11
5.1425308661417324
21
-2.3105300393700787
0
LINE
8
BLACK
6
CONTINUOUS
10
5.1425308661417324
20
-2.3105300393700787
11
5.1325272047244095
21
-2.3148752362204723
0
LINE
8
BLACK
6
CONTINUOUS
10
5.1325272047244095
20
-2.3148752362204723
11
5.1232083858267714
21
-2.320542125984252
0
LINE
8
BLACK
6
CONTINUOUS
10
5.1232083858267714
20
-2.320542125984252
11
5.1147480314960632
21
-2.3274251574803149
0
LINE
8
BLACK
6
CONTINUOUS
10
5.1147480314960632
20
-2.3274251574803149
11
5.1073037007874014
21
-2.3353961023622047
0
LINE
8
BLACK
6
CONTINUOUS
10
5.1073037007874014
20
-2.3353961023622047
11
5.101014094488189
21
-2.3443064566929133
0
LINE
8
BLACK
6
CONTINUOUS
10
5.101014094488189
20
-2.3443064566929133
11
5.095996338582677
21
-2.3539902755905513
0
LINE
8
BLACK
6
CONTINUOUS
10
5.095996338582677
20
-2.3539902755905513
11
5.0923439370078736
21
-2.3642671259842518
0
LINE
8
BLACK
6
CONTINUOUS
10
5.0923439370078736
20
-2.3642671259842518
11
5.0901249212598421
21
-2.3749455905511812
0
LINE
8
BLACK
6
CONTINUOUS
10
5.0901249212598421
20
-2.3749455905511812
11
5.0893806299212594
21
-2.3858267716535431
0
LINE
8
BLACK
6
CONTINUOUS
10
5.0893806299212594
20
-2.3858267716535431
11
5.0901249212598421
21
-2.3967079527559054
0
LINE
8
BLACK
6
CONTINUOUS
10
6.3678156299212594
20
-2.3019878740157478
11
6.3790694094488192
21
-2.3051410236220473
0
LINE
8
BLACK
6
CONTINUOUS
10
6.3790694094488192
20
-2.3051410236220473
11
6.3897890157480317
21
-2.3097972440944883
0
LINE
8
BLACK
6
CONTINUOUS
10
6.3897890157480317
20
-2.3097972440944883
11
6.3997748031496062
21
-2.3158696850393699
0
LINE
8
BLACK
6
CONTINUOUS
10
6.3997748031496062
20
-2.3158696850393699
11
6.4088406692913384
21
-2.3232453543307088
0
LINE
8
BLACK
6
CONTINUOUS
10
6.4088406692913384
20
-2.3232453543307088
11
6.4168177952755903
21
-2.3317867716535434
0
LINE
8
BLACK
6
CONTINUOUS
10
6.4168177952755903
20
-2.3317867716535434
11
6.4235575590551184
21
-2.3413348425196849
0
LINE
8
BLACK
6
CONTINUOUS
10
6.4235575590551184
20
-2.3413348425196849
11
6.4289344488188975
21
-2.3517117322834644
0
LINE
8
BLACK
6
CONTINUOUS
10
6.4289344488188975
20
-2.3517117322834644
11
6.4328482283464563
21
-2.3627240944881889
0
LINE
8
BLACK
6
CONTINUOUS
10
6.4328482283464563
20
-2.3627240944881889
11
6.4352260629921254
21
-2.3741668503937006
0
LINE
8
BLACK
6
CONTINUOUS
10
6.4352260629921254
20
-2.3741668503937006
11
6.4360236220472435
21
-2.3858267716535431
0
LINE
8
BLACK
6
CONTINUOUS
10
6.4360236220472435
20
-2.3858267716535431
11
6.4352260629921254
21
-2.3974866929133856
0
LINE
8
BLACK
6
CONTINUOUS
10
6.4352260629921254
20
-2.3974866929133856
11
6.4328482283464563
21
-2.4089294488188977
0
LINE
8
BLACK
6
CONTINUOUS
10
6.4328482283464563
20
-2.4089294488188977
11
6.4289344488188975
21
-2.4199418110236222
0
LINE
8
BLACK
6
CONTINUOUS
10
6.4289344488188975
20
-2.4199418110236222
11
6.4235575590551184
21
-2.4303187007874016
0
LINE
8
BLACK
6
CONTINUOUS
10
6.4235575590551184
20
-2.4303187007874016
11
6.4168177952755903
21
-2.4398667716535432
0
LINE
8
BLACK
6
CONTINUOUS
10
6.4168177952755903
20
-2.4398667716535432
11
6.4088406692913384
21
-2.4484081889763778
0
LINE
8
BLACK
6
CONTINUOUS
10
6.4088406692913384
20
-2.4484081889763778
11
6.3997748031496062
21
-2.4557838582677163
0
LINE
8
BLACK
6
CONTINUOUS
10
6.3997748031496062
20
-2.4557838582677163
11
6.3897890157480317
21
-2.4618562992125983
0
LINE
8
BLACK
6
CONTINUOUS
10
6.3897890157480317
20
-2.4618562992125983
11
6.3790694094488192
21
-2.4665125196850393
0
LINE
8
BLACK
6
CONTINUOUS
10
6.3790694094488192
20
-2.4665125196850393
11
6.3678156299212594
21
-2.4696656692913384
0
LINE
8
BLACK
6
CONTINUOUS
10
6.3678156299212594
20
-2.4696656692913384
11
6.3562372834645666
21
-2.4712570866141732
0
LINE
8
BLACK
6
CONTINUOUS
10
6.3562372834645666
20
-2.4712570866141732
11
6.3445501181102362
21
-2.4712570866141732
0
LINE
8
BLACK
6
CONTINUOUS
10
6.3445501181102362
20
-2.4712570866141732
11
6.3329717716535434
21
-2.4696656692913384
0
LINE
8
BLACK
6
CONTINUOUS
10
6.3329717716535434
20
-2.4696656692913384
11
6.3217179921259845
21
-2.4665125196850393
0
LINE
8
BLACK
6
CONTINUOUS
10
6.3217179921259845
20
-2.4665125196850393
11
6.3109983858267711
21
-2.4618562992125983
0
LINE
8
BLACK
6
CONTINUOUS
10
6.3109983858267711
20
-2.4618562992125983
11
6.3010125984251966
21
-2.4557838582677163
0
LINE
8
BLACK
6
CONTINUOUS
10
6.3010125984251966
20
-2.4557838582677163
11
6.2919467322834643
21
-2.4484081889763778
0
LINE
8
BLACK
6
CONTINUOUS
10
6.2919467322834643
20
-2.4484081889763778
11
6.2839696062992125
21
-2.4398667716535432
0
LINE
8
BLACK
6
CONTINUOUS
10
6.2839696062992125
20
-2.4398667716535432
11
6.2772298425196853
21
-2.4303187007874016
0
LINE
8
BLACK
6
CONTINUOUS
10
6.2772298425196853
20
-2.4303187007874016
11
6.2718529527559053
21
-2.4199418110236222
0
LINE
8
BLACK
6
CONTINUOUS
10
6.2718529527559053
20
-2.4199418110236222
11
6.2679391732283465
21
-2.4089294488188977
0
LINE
8
BLACK
6
CONTINUOUS
10
6.2679391732283465
20
-2.4089294488188977
11
6.2655613385826774
21
-2.3974866929133856
0
LINE
8
BLACK
6
CONTINUOUS
10
6.2655613385826774
20
-2.3974866929133856
11
6.2647637795275593
21
-2.3858267716535431
0
LINE
8
BLACK
6
CONTINUOUS
10
6.2647637795275593
20
-2.3858267716535431
11
6.2655613385826774
21
-2.3741668503937006
0
LINE
8
BLACK
6
CONTINUOUS
10
6.2655613385826774
20
-2.3741668503937006
11
6.2679391732283465
21
-2.3627240944881889
0
LINE
8
BLACK
6
CONTINUOUS
10
6.2679391732283465
20
-2.3627240944881889
11
6.2718529527559053
21
-2.3517117322834644
0
LINE
8
BLACK
6
CONTINUOUS
10
6.2718529527559053
20
-2.3517117322834644
11
6.2772298425196853
21
-2.3413348425196849
0
LINE
8
BLACK
6
CONTINUOUS
10
6.2772298425196853
20
-2.3413348425196849
11
6.2839696062992125
21
-2.3317867716535434
0
LINE
8
BLACK
6
CONTINUOUS
10
6.2839696062992125
20
-2.3317867716535434
11
6.2919467322834643
21
-2.3232453543307088
0
LINE
8
BLACK
6
CONTINUOUS
10
6.2919467322834643
20
-2.3232453543307088
11
6.3010125984251966
21
-2.3158696850393699
0
LINE
8
BLACK
6
CONTINUOUS
10
6.3010125984251966
20
-2.3158696850393699
11
6.3109983858267711
21
-2.3097972440944883
0
LINE
8
BLACK
6
CONTINUOUS
10
6.3109983858267711
20
-2.3097972440944883
11
6.3217179921259845
21
-2.3051410236220473
0
LINE
8
BLACK
6
CONTINUOUS
10
6.3217179921259845
20
-2.3051410236220473
11
6.3329717716535434
21
-2.3019878740157478
0
LINE
8
BLACK
6
CONTINUOUS
10
6.3329717716535434
20
-2.3019878740157478
11
6.3445501181102362
21
-2.3003964566929134
0
LINE
8
BLACK
6
CONTINUOUS
10
6.3445501181102362
20
-2.3003964566929134
11
6.3562372834645666
21
-2.3003964566929134
0
LINE
8
BLACK
6
CONTINUOUS
10
6.3562372834645666
20
-2.3003964566929134
11
6.3678156299212594
21
-2.3019878740157478
0
LINE
8
BLACK
6
CONTINUOUS
10
6.271227283464567
20
-2.3967079527559054
11
6.2734462992125986
21
-2.4073864173228348
0
LINE
8
BLACK
6
CONTINUOUS
10
6.2734462992125986
20
-2.4073864173228348
11
6.2770987007874011
21
-2.4176632677165353
0
LINE
8
BLACK
6
CONTINUOUS
10
6.2770987007874011
20
-2.4176632677165353
11
6.2821164566929131
21
-2.4273470866141733
0
LINE
8
BLACK
6
CONTINUOUS
10
6.2821164566929131
20
-2.4273470866141733
11
6.2884060629921255
21
-2.4362574409448818
0
LINE
8
BLACK
6
CONTINUOUS
10
6.2884060629921255
20
-2.4362574409448818
11
6.2958503937007873
21
-2.4442283858267717
0
LINE
8
BLACK
6
CONTINUOUS
10
6.2958503937007873
20
-2.4442283858267717
11
6.3043107480314955
21
-2.4511114173228346
0
LINE
8
BLACK
6
CONTINUOUS
10
6.3043107480314955
20
-2.4511114173228346
11
6.3136295669291336
21
-2.4567783070866143
0
LINE
8
BLACK
6
CONTINUOUS
10
6.3136295669291336
20
-2.4567783070866143
11
6.3236332283464565
21
-2.4611235039370079
0
LINE
8
BLACK
6
CONTINUOUS
10
6.3236332283464565
20
-2.4611235039370079
11
6.3341353937007874
21
-2.464066062992126
0
LINE
8
BLACK
6
CONTINUOUS
10
6.3341353937007874
20
-2.464066062992126
11
6.3449403937007869
21
-2.465551181102362
0
LINE
8
BLACK
6
CONTINUOUS
10
6.3449403937007869
20
-2.465551181102362
11
6.3558470078740159
21
-2.465551181102362
0
LINE
8
BLACK
6
CONTINUOUS
10
6.3558470078740159
20
-2.465551181102362
11
6.3666520078740154
21
-2.464066062992126
0
LINE
8
BLACK
6
CONTINUOUS
10
6.3666520078740154
20
-2.464066062992126
11
6.3771541732283463
21
-2.4611235039370079
0
LINE
8
BLACK
6
CONTINUOUS
10
6.3771541732283463
20
-2.4611235039370079
11
6.3871578346456692
21
-2.4567783070866143
0
LINE
8
BLACK
6
CONTINUOUS
10
6.3871578346456692
20
-2.4567783070866143
11
6.3964766535433073
21
-2.4511114173228346
0
LINE
8
BLACK
6
CONTINUOUS
10
6.3964766535433073
20
-2.4511114173228346
11
6.4049370078740155
21
-2.4442283858267717
0
LINE
8
BLACK
6
CONTINUOUS
10
6.4049370078740155
20
-2.4442283858267717
11
6.4123813385826773
21
-2.4362574409448818
0
LINE
8
BLACK
6
CONTINUOUS
10
6.4123813385826773
20
-2.4362574409448818
11
6.4186709448818897
21
-2.4273470866141733
0
LINE
8
BLACK
6
CONTINUOUS
10
6.4186709448818897
20
-2.4273470866141733
11
6.4236887007874017
21
-2.4176632677165353
0
LINE
8
BLACK
6
CONTINUOUS
10
6.4236887007874017
20
-2.4176632677165353
11
6.4273411023622042
21
-2.4073864173228348
0
LINE
8
BLACK
6
CONTINUOUS
10
6.4273411023622042
20
-2.4073864173228348
11
6.4295601181102358
21
-2.3967079527559054
0
LINE
8
BLACK
6
CONTINUOUS
10
6.4295601181102358
20
-2.3967079527559054
11
6.4303044094488184
21
-2.3858267716535431
0
LINE
8
BLACK
6
CONTINUOUS
10
6.4303044094488184
20
-2.3858267716535431
11
6.4295601181102358
21
-2.3749455905511812
0
LINE
8
BLACK
6
CONTINUOUS
10
6.4295601181102358
20
-2.3749455905511812
11
6.4273411023622042
21
-2.3642671259842518
0
LINE
8
BLACK
6
CONTINUOUS
10
6.4273411023622042
20
-2.3642671259842518
11
6.4236887007874017
21
-2.3539902755905513
0
LINE
8
BLACK
6
CONTINUOUS
10
6.4236887007874017
20
-2.3539902755905513
11
6.4186709448818897
21
-2.3443064566929133
0
LINE
8
BLACK
6
CONTINUOUS
10
6.4186709448818897
20
-2.3443064566929133
11
6.4123813385826773
21
-2.3353961023622047
0
LINE
8
BLACK
6
CONTINUOUS
10
6.4123813385826773
20
-2.3353961023622047
11
6.4049370078740155
21
-2.3274251574803149
0
LINE
8
BLACK
6
CONTINUOUS
10
6.4049370078740155
20
-2.3274251574803149
11
6.3964766535433073
21
-2.320542125984252
0
LINE
8
BLACK
6
CONTINUOUS
10
6.3964766535433073
20
-2.320542125984252
11
6.3871578346456692
21
-2.3148752362204723
0
LINE
8
BLACK
6
CONTINUOUS
10
6.3871578346456692
20
-2.3148752362204723
11
6.3771541732283463
21
-2.3105300393700787
0
LINE
8
BLACK
6
CONTINUOUS
10
6.3771541732283463
20
-2.3105300393700787
11
6.3666520078740154
21
-2.3075874803149605
0
LINE
8
BLACK
6
CONTINUOUS
10
6.3666520078740154
20
-2.3075874803149605
11
6.3558470078740159
21
-2.3061023622047245
0
LINE
8
BLACK
6
CONTINUOUS
10
6.3558470078740159
20
-2.3061023622047245
11
6.3449403937007869
21
-2.3061023622047245
0
LINE
8
BLACK
6
CONTINUOUS
10
6.3449403937007869
20
-2.3061023622047245
11
6.3341353937007874
21
-2.3075874803149605
0
LINE
8
BLACK
6
CONTINUOUS
10
6.3341353937007874
20
-2.3075874803149605
11
6.3236332283464565
21
-2.3105300393700787
0
LINE
8
BLACK
6
CONTINUOUS
10
6.3236332283464565
20
-2.3105300393700787
11
6.3136295669291336
21
-2.3148752362204723
0
LINE
8
BLACK
6
CONTINUOUS
10
6.3136295669291336
20
-2.3148752362204723
11
6.3043107480314955
21
-2.320542125984252
0
LINE
8
BLACK
6
CONTINUOUS
10
6.3043107480314955
20
-2.320542125984252
11
6.2958503937007873
21
-2.3274251574803149
0
LINE
8
BLACK
6
CONTINUOUS
10
6.2958503937007873
20
-2.3274251574803149
11
6.2884060629921255
21
-2.3353961023622047
0
LINE
8
BLACK
6
CONTINUOUS
10
6.2884060629921255
20
-2.3353961023622047
11
6.2821164566929131
21
-2.3443064566929133
0
LINE
8
BLACK
6
CONTINUOUS
10
6.2821164566929131
20
-2.3443064566929133
11
6.2770987007874011
21
-2.3539902755905513
0
LINE
8
BLACK
6
CONTINUOUS
10
6.2770987007874011
20
-2.3539902755905513
11
6.2734462992125986
21
-2.3642671259842518
0
LINE
8
BLACK
6
CONTINUOUS
10
6.2734462992125986
20
-2.3642671259842518
11
6.271227283464567
21
-2.3749455905511812
0
LINE
8
BLACK
6
CONTINUOUS
10
6.271227283464567
20
-2.3749455905511812
11
6.2704829921259844
21
-2.3858267716535431
0
LINE
8
BLACK
6
CONTINUOUS
10
6.2704829921259844
20
-2.3858267716535431
11
6.271227283464567
21
-2.3967079527559054
0
LINE
8
BLACK
6
CONTINUOUS
10
1.9170282283464566
20
-2.2311217322834644
11
1.9282820078740157
21
-2.2342748818897635
0
LINE
8
BLACK
6
CONTINUOUS
10
1.9282820078740157
20
-2.2342748818897635
11
1.9390016141732282
21
-2.2389311023622045
0
LINE
8
BLACK
6
CONTINUOUS
10
1.9390016141732282
20
-2.2389311023622045
11
1.9489874015748032
21
-2.2450035433070865
0
LINE
8
BLACK
6
CONTINUOUS
10
1.9489874015748032
20
-2.2450035433070865
11
1.9580532677165354
21
-2.252379212598425
0
LINE
8
BLACK
6
CONTINUOUS
10
1.9580532677165354
20
-2.252379212598425
11
1.9660303937007872
21
-2.2609206299212596
0
LINE
8
BLACK
6
CONTINUOUS
10
1.9660303937007872
20
-2.2609206299212596
11
1.9727701574803149
21
-2.2704687007874016
0
LINE
8
BLACK
6
CONTINUOUS
10
1.9727701574803149
20
-2.2704687007874016
11
1.9781470472440945
21
-2.2808455905511811
0
LINE
8
BLACK
6
CONTINUOUS
10
1.9781470472440945
20
-2.2808455905511811
11
1.9820608267716535
21
-2.2918579527559055
0
LINE
8
BLACK
6
CONTINUOUS
10
1.9820608267716535
20
-2.2918579527559055
11
1.9844386614173228
21
-2.3033007086614172
0
LINE
8
BLACK
6
CONTINUOUS
10
1.9844386614173228
20
-2.3033007086614172
11
1.985236220472441
21
-2.3149606299212597
0
LINE
8
BLACK
6
CONTINUOUS
10
1.985236220472441
20
-2.3149606299212597
11
1.9844386614173228
21
-2.3266205511811022
0
LINE
8
BLACK
6
CONTINUOUS
10
1.9844386614173228
20
-2.3266205511811022
11
1.9820608267716535
21
-2.3380633070866139
0
LINE
8
BLACK
6
CONTINUOUS
10
1.9820608267716535
20
-2.3380633070866139
11
1.9781470472440945
21
-2.3490756692913384
0
LINE
8
BLACK
6
CONTINUOUS
10
1.9781470472440945
20
-2.3490756692913384
11
1.9727701574803149
21
-2.3594525590551179
0
LINE
8
BLACK
6
CONTINUOUS
10
1.9727701574803149
20
-2.3594525590551179
11
1.9660303937007872
21
-2.3690006299212598
0
LINE
8
BLACK
6
CONTINUOUS
10
1.9660303937007872
20
-2.3690006299212598
11
1.9580532677165354
21
-2.3775420472440945
0
LINE
8
BLACK
6
CONTINUOUS
10
1.9580532677165354
20
-2.3775420472440945
11
1.9489874015748032
21
-2.3849177165354329
0
LINE
8
BLACK
6
CONTINUOUS
10
1.9489874015748032
20
-2.3849177165354329
11
1.9390016141732282
21
-2.390990157480315
0
LINE
8
BLACK
6
CONTINUOUS
10
1.9390016141732282
20
-2.390990157480315
11
1.9282820078740157
21
-2.3956463779527559
0
LINE
8
BLACK
6
CONTINUOUS
10
1.9282820078740157
20
-2.3956463779527559
11
1.9170282283464566
21
-2.398799527559055
0
LINE
8
BLACK
6
CONTINUOUS
10
1.9170282283464566
20
-2.398799527559055
11
1.9054498818897638
21
-2.4003909448818899
0
LINE
8
BLACK
6
CONTINUOUS
10
1.9054498818897638
20
-2.4003909448818899
11
1.8937627165354329
21
-2.4003909448818899
0
LINE
8
BLACK
6
CONTINUOUS
10
1.8937627165354329
20
-2.4003909448818899
11
1.8821843700787402
21
-2.398799527559055
0
LINE
8
BLACK
6
CONTINUOUS
10
1.8821843700787402
20
-2.398799527559055
11
1.870930590551181
21
-2.3956463779527559
0
LINE
8
BLACK
6
CONTINUOUS
10
1.870930590551181
20
-2.3956463779527559
11
1.8602109842519685
21
-2.390990157480315
0
LINE
8
BLACK
6
CONTINUOUS
10
1.8602109842519685
20
-2.390990157480315
11
1.8502251968503935
21
-2.3849177165354329
0
LINE
8
BLACK
6
CONTINUOUS
10
1.8502251968503935
20
-2.3849177165354329
11
1.8411593307086613
21
-2.3775420472440945
0
LINE
8
BLACK
6
CONTINUOUS
10
1.8411593307086613
20
-2.3775420472440945
11
1.8331822047244095
21
-2.3690006299212598
0
LINE
8
BLACK
6
CONTINUOUS
10
1.8331822047244095
20
-2.3690006299212598
11
1.8264424409448818
21
-2.3594525590551179
0
LINE
8
BLACK
6
CONTINUOUS
10
1.8264424409448818
20
-2.3594525590551179
11
1.8210655511811022
21
-2.3490756692913384
0
LINE
8
BLACK
6
CONTINUOUS
10
1.8210655511811022
20
-2.3490756692913384
11
1.8171517716535432
21
-2.3380633070866139
0
LINE
8
BLACK
6
CONTINUOUS
10
1.8171517716535432
20
-2.3380633070866139
11
1.8147739370078739
21
-2.3266205511811022
0
LINE
8
BLACK
6
CONTINUOUS
10
1.8147739370078739
20
-2.3266205511811022
11
1.8139763779527558
21
-2.3149606299212597
0
LINE
8
BLACK
6
CONTINUOUS
10
1.8139763779527558
20
-2.3149606299212597
11
1.8147739370078739
21
-2.3033007086614172
0
LINE
8
BLACK
6
CONTINUOUS
10
1.8147739370078739
20
-2.3033007086614172
11
1.8171517716535432
21
-2.2918579527559055
0
LINE
8
BLACK
6
CONTINUOUS
10
1.8171517716535432
20
-2.2918579527559055
11
1.8210655511811022
21
-2.2808455905511811
0
LINE
8
BLACK
6
CONTINUOUS
10
1.8210655511811022
20
-2.2808455905511811
11
1.8264424409448818
21
-2.2704687007874016
0
LINE
8
BLACK
6
CONTINUOUS
10
1.8264424409448818
20
-2.2704687007874016
11
1.8331822047244095
21
-2.2609206299212596
0
LINE
8
BLACK
6
CONTINUOUS
10
1.8331822047244095
20
-2.2609206299212596
11
1.8411593307086613
21
-2.252379212598425
0
LINE
8
BLACK
6
CONTINUOUS
10
1.8411593307086613
20
-2.252379212598425
11
1.8502251968503935
21
-2.2450035433070865
0
LINE
8
BLACK
6
CONTINUOUS
10
1.8502251968503935
20
-2.2450035433070865
11
1.8602109842519685
21
-2.2389311023622045
0
LINE
8
BLACK
6
CONTINUOUS
10
1.8602109842519685
20
-2.2389311023622045
11
1.870930590551181
21
-2.2342748818897635
0
LINE
8
BLACK
6
CONTINUOUS
10
1.870930590551181
20
-2.2342748818897635
11
1.8821843700787402
21
-2.2311217322834644
0
LINE
8
BLACK
6
CONTINUOUS
10
1.8821843700787402
20
-2.2311217322834644
11
1.8937627165354329
21
-2.22953031496063
0
LINE
8
BLACK
6
CONTINUOUS
10
1.8937627165354329
20
-2.22953031496063
11
1.9054498818897638
21
-2.22953031496063
0
LINE
8
BLACK
6
CONTINUOUS
10
1.9054498818897638
20
-2.22953031496063
11
1.9170282283464566
21
-2.2311217322834644
0
LINE
8
BLACK
6
CONTINUOUS
10
1.8204398818897638
20
-2.3258418110236221
11
1.8226588976377953
21
-2.336520275590551
0
LINE
8
BLACK
6
CONTINUOUS
10
1.8226588976377953
20
-2.336520275590551
11
1.8263112992125985
21
-2.3467971259842519
0
LINE
8
BLACK
6
CONTINUOUS
10
1.8263112992125985
20
-2.3467971259842519
11
1.8313290551181103
21
-2.3564809448818895
0
LINE
8
BLACK
6
CONTINUOUS
10
1.8313290551181103
20
-2.3564809448818895
11
1.8376186614173229
21
-2.3653912992125985
0
LINE
8
BLACK
6
CONTINUOUS
10
1.8376186614173229
20
-2.3653912992125985
11
1.8450629921259842
21
-2.3733622440944879
0
LINE
8
BLACK
6
CONTINUOUS
10
1.8450629921259842
20
-2.3733622440944879
11
1.8535233464566929
21
-2.3802452755905512
0
LINE
8
BLACK
6
CONTINUOUS
10
1.8535233464566929
20
-2.3802452755905512
11
1.8628421653543306
21
-2.3859121653543305
0
LINE
8
BLACK
6
CONTINUOUS
10
1.8628421653543306
20
-2.3859121653543305
11
1.8728458267716535
21
-2.3902573622047245
0
LINE
8
BLACK
6
CONTINUOUS
10
1.8728458267716535
20
-2.3902573622047245
11
1.8833479921259841
21
-2.3931999212598423
0
LINE
8
BLACK
6
CONTINUOUS
10
1.8833479921259841
20
-2.3931999212598423
11
1.8941529921259843
21
-2.3946850393700787
0
LINE
8
BLACK
6
CONTINUOUS
10
1.8941529921259843
20
-2.3946850393700787
11
1.9050596062992124
21
-2.3946850393700787
0
LINE
8
BLACK
6
CONTINUOUS
10
1.9050596062992124
20
-2.3946850393700787
11
1.9158646062992126
21
-2.3931999212598423
0
LINE
8
BLACK
6
CONTINUOUS
10
1.9158646062992126
20
-2.3931999212598423
11
1.9263667716535433
21
-2.3902573622047245
0
LINE
8
BLACK
6
CONTINUOUS
10
1.9263667716535433
20
-2.3902573622047245
11
1.9363704330708662
21
-2.3859121653543305
0
LINE
8
BLACK
6
CONTINUOUS
10
1.9363704330708662
20
-2.3859121653543305
11
1.9456892519685038
21
-2.3802452755905512
0
LINE
8
BLACK
6
CONTINUOUS
10
1.9456892519685038
20
-2.3802452755905512
11
1.9541496062992125
21
-2.3733622440944879
0
LINE
8
BLACK
6
CONTINUOUS
10
1.9541496062992125
20
-2.3733622440944879
11
1.9615939370078739
21
-2.3653912992125985
0
LINE
8
BLACK
6
CONTINUOUS
10
1.9615939370078739
20
-2.3653912992125985
11
1.9678835433070865
21
-2.3564809448818895
0
LINE
8
BLACK
6
CONTINUOUS
10
1.9678835433070865
20
-2.3564809448818895
11
1.9729012992125983
21
-2.3467971259842519
0
LINE
8
BLACK
6
CONTINUOUS
10
1.9729012992125983
20
-2.3467971259842519
11
1.9765537007874014
21
-2.336520275590551
0
LINE
8
BLACK
6
CONTINUOUS
10
1.9765537007874014
20
-2.336520275590551
11
1.978772716535433
21
-2.3258418110236221
0
LINE
8
BLACK
6
CONTINUOUS
10
1.978772716535433
20
-2.3258418110236221
11
1.9795170078740156
21
-2.3149606299212597
0
LINE
8
BLACK
6
CONTINUOUS
10
1.9795170078740156
20
-2.3149606299212597
11
1.978772716535433
21
-2.3040794488188974
0
LINE
8
BLACK
6
CONTINUOUS
10
1.978772716535433
20
-2.3040794488188974
11
1.9765537007874014
21
-2.2934009842519685
0
LINE
8
BLACK
6
CONTINUOUS
10
1.9765537007874014
20
-2.2934009842519685
11
1.9729012992125983
21
-2.2831241338582675
0
LINE
8
BLACK
6
CONTINUOUS
10
1.9729012992125983
20
-2.2831241338582675
11
1.9678835433070865
21
-2.2734403149606299
0
LINE
8
BLACK
6
CONTINUOUS
10
1.9678835433070865
20
-2.2734403149606299
11
1.9615939370078739
21
-2.2645299606299214
0
LINE
8
BLACK
6
CONTINUOUS
10
1.9615939370078739
20
-2.2645299606299214
11
1.9541496062992125
21
-2.2565590157480315
0
LINE
8
BLACK
6
CONTINUOUS
10
1.9541496062992125
20
-2.2565590157480315
11
1.9456892519685038
21
-2.2496759842519682
0
LINE
8
BLACK
6
CONTINUOUS
10
1.9456892519685038
20
-2.2496759842519682
11
1.9363704330708662
21
-2.244009094488189
0
LINE
8
BLACK
6
CONTINUOUS
10
1.9363704330708662
20
-2.244009094488189
11
1.9263667716535433
21
-2.2396638976377954
0
LINE
8
BLACK
6
CONTINUOUS
10
1.9263667716535433
20
-2.2396638976377954
11
1.9158646062992126
21
-2.2367213385826772
0
LINE
8
BLACK
6
CONTINUOUS
10
1.9158646062992126
20
-2.2367213385826772
11
1.9050596062992124
21
-2.2352362204724407
0
LINE
8
BLACK
6
CONTINUOUS
10
1.9050596062992124
20
-2.2352362204724407
11
1.8941529921259843
21
-2.2352362204724407
0
LINE
8
BLACK
6
CONTINUOUS
10
1.8941529921259843
20
-2.2352362204724407
11
1.8833479921259841
21
-2.2367213385826772
0
LINE
8
BLACK
6
CONTINUOUS
10
1.8833479921259841
20
-2.2367213385826772
11
1.8728458267716535
21
-2.2396638976377954
0
LINE
8
BLACK
6
CONTINUOUS
10
1.8728458267716535
20
-2.2396638976377954
11
1.8628421653543306
21
-2.244009094488189
0
LINE
8
BLACK
6
CONTINUOUS
10
1.8628421653543306
20
-2.244009094488189
11
1.8535233464566929
21
-2.2496759842519682
0
LINE
8
BLACK
6
CONTINUOUS
10
1.8535233464566929
20
-2.2496759842519682
11
1.8450629921259842
21
-2.2565590157480315
0
LINE
8
BLACK
6
CONTINUOUS
10
1.8450629921259842
20
-2.2565590157480315
11
1.8376186614173229
21
-2.2645299606299214
0
LINE
8
BLACK
6
CONTINUOUS
10
1.8376186614173229
20
-2.2645299606299214
11
1.8313290551181103
21
-2.2734403149606299
0
LINE
8
BLACK
6
CONTINUOUS
10
1.8313290551181103
20
-2.2734403149606299
11
1.8263112992125985
21
-2.2831241338582675
0
LINE
8
BLACK
6
CONTINUOUS
10
1.8263112992125985
20
-2.2831241338582675
11
1.8226588976377953
21
-2.2934009842519685
0
LINE
8
BLACK
6
CONTINUOUS
10
1.8226588976377953
20
-2.2934009842519685
11
1.8204398818897638
21
-2.3040794488188974
0
LINE
8
BLACK
6
CONTINUOUS
10
1.8204398818897638
20
-2.3040794488188974
11
1.8196955905511811
21
-2.3149606299212597
0
LINE
8
BLACK
6
CONTINUOUS
10
1.8196955905511811
20
-2.3149606299212597
11
1.8204398818897638
21
-2.3258418110236221
0
LINE
8
BLACK
6
CONTINUOUS
10
3.0981305905511811
20
-2.2311217322834644
11
3.10938437007874
21
-2.2342748818897635
0
LINE
8
BLACK
6
CONTINUOUS
10
3.10938437007874
20
-2.2342748818897635
11
3.1201039763779526
21
-2.2389311023622045
0
LINE
8
BLACK
6
CONTINUOUS
10
3.1201039763779526
20
-2.2389311023622045
11
3.1300897637795275
21
-2.2450035433070865
0
LINE
8
BLACK
6
CONTINUOUS
10
3.1300897637795275
20
-2.2450035433070865
11
3.1391556299212597
21
-2.252379212598425
0
LINE
8
BLACK
6
CONTINUOUS
10
3.1391556299212597
20
-2.252379212598425
11
3.1471327559055116
21
-2.2609206299212596
0
LINE
8
BLACK
6
CONTINUOUS
10
3.1471327559055116
20
-2.2609206299212596
11
3.1538725196850392
21
-2.2704687007874016
0
LINE
8
BLACK
6
CONTINUOUS
10
3.1538725196850392
20
-2.2704687007874016
11
3.1592494094488188
21
-2.2808455905511811
0
LINE
8
BLACK
6
CONTINUOUS
10
3.1592494094488188
20
-2.2808455905511811
11
3.163163188976378
21
-2.2918579527559055
0
LINE
8
BLACK
6
CONTINUOUS
10
3.163163188976378
20
-2.2918579527559055
11
3.1655410236220471
21
-2.3033007086614172
0
LINE
8
BLACK
6
CONTINUOUS
10
3.1655410236220471
20
-2.3033007086614172
11
3.1663385826771653
21
-2.3149606299212597
0
LINE
8
BLACK
6
CONTINUOUS
10
3.1663385826771653
20
-2.3149606299212597
11
3.1655410236220471
21
-2.3266205511811022
0
LINE
8
BLACK
6
CONTINUOUS
10
3.1655410236220471
20
-2.3266205511811022
11
3.163163188976378
21
-2.3380633070866139
0
LINE
8
BLACK
6
CONTINUOUS
10
3.163163188976378
20
-2.3380633070866139
11
3.1592494094488188
21
-2.3490756692913384
0
LINE
8
BLACK
6
CONTINUOUS
10
3.1592494094488188
20
-2.3490756692913384
11
3.1538725196850392
21
-2.3594525590551179
0
LINE
8
BLACK
6
CONTINUOUS
10
3.1538725196850392
20
-2.3594525590551179
11
3.1471327559055116
21
-2.3690006299212598
0
LINE
8
BLACK
6
CONTINUOUS
10
3.1471327559055116
20
-2.3690006299212598
11
3.1391556299212597
21
-2.3775420472440945
0
LINE
8
BLACK
6
CONTINUOUS
10
3.1391556299212597
20
-2.3775420472440945
11
3.1300897637795275
21
-2.3849177165354329
0
LINE
8
BLACK
6
CONTINUOUS
10
3.1300897637795275
20
-2.3849177165354329
11
3.1201039763779526
21
-2.390990157480315
0
LINE
8
BLACK
6
CONTINUOUS
10
3.1201039763779526
20
-2.390990157480315
11
3.10938437007874
21
-2.3956463779527559
0
LINE
8
BLACK
6
CONTINUOUS
10
3.10938437007874
20
-2.3956463779527559
11
3.0981305905511811
21
-2.398799527559055
0
LINE
8
BLACK
6
CONTINUOUS
10
3.0981305905511811
20
-2.398799527559055
11
3.0865522440944879
21
-2.4003909448818899
0
LINE
8
BLACK
6
CONTINUOUS
10
3.0865522440944879
20
-2.4003909448818899
11
3.0748650787401575
21
-2.4003909448818899
0
LINE
8
BLACK
6
CONTINUOUS
10
3.0748650787401575
20
-2.4003909448818899
11
3.0632867322834647
21
-2.398799527559055
0
LINE
8
BLACK
6
CONTINUOUS
10
3.0632867322834647
20
-2.398799527559055
11
3.0520329527559054
21
-2.3956463779527559
0
LINE
8
BLACK
6
CONTINUOUS
10
3.0520329527559054
20
-2.3956463779527559
11
3.0413133464566928
21
-2.390990157480315
0
LINE
8
BLACK
6
CONTINUOUS
10
3.0413133464566928
20
-2.390990157480315
11
3.0313275590551179
21
-2.3849177165354329
0
LINE
8
BLACK
6
CONTINUOUS
10
3.0313275590551179
20
-2.3849177165354329
11
3.0222616929133856
21
-2.3775420472440945
0
LINE
8
BLACK
6
CONTINUOUS
10
3.0222616929133856
20
-2.3775420472440945
11
3.0142845669291338
21
-2.3690006299212598
0
LINE
8
BLACK
6
CONTINUOUS
10
3.0142845669291338
20
-2.3690006299212598
11
3.0075448031496061
21
-2.3594525590551179
0
LINE
8
BLACK
6
CONTINUOUS
10
3.0075448031496061
20
-2.3594525590551179
11
3.0021679133858266
21
-2.3490756692913384
0
LINE
8
BLACK
6
CONTINUOUS
10
3.0021679133858266
20
-2.3490756692913384
11
2.9982541338582678
21
-2.3380633070866139
0
LINE
8
BLACK
6
CONTINUOUS
10
2.9982541338582678
20
-2.3380633070866139
11
2.9958762992125982
21
-2.3266205511811022
0
LINE
8
BLACK
6
CONTINUOUS
10
2.9958762992125982
20
-2.3266205511811022
11
2.9950787401574801
21
-2.3149606299212597
0
LINE
8
BLACK
6
CONTINUOUS
10
2.9950787401574801
20
-2.3149606299212597
11
2.9958762992125982
21
-2.3033007086614172
0
LINE
8
BLACK
6
CONTINUOUS
10
2.9958762992125982
20
-2.3033007086614172
11
2.9982541338582678
21
-2.2918579527559055
0
LINE
8
BLACK
6
CONTINUOUS
10
2.9982541338582678
20
-2.2918579527559055
11
3.0021679133858266
21
-2.2808455905511811
0
LINE
8
BLACK
6
CONTINUOUS
10
3.0021679133858266
20
-2.2808455905511811
11
3.0075448031496061
21
-2.2704687007874016
0
LINE
8
BLACK
6
CONTINUOUS
10
3.0075448031496061
20
-2.2704687007874016
11
3.0142845669291338
21
-2.2609206299212596
0
LINE
8
BLACK
6
CONTINUOUS
10
3.0142845669291338
20
-2.2609206299212596
11
3.0222616929133856
21
-2.252379212598425
0
LINE
8
BLACK
6
CONTINUOUS
10
3.0222616929133856
20
-2.252379212598425
11
3.0313275590551179
21
-2.2450035433070865
0
LINE
8
BLACK
6
CONTINUOUS
10
3.0313275590551179
20
-2.2450035433070865
11
3.0413133464566928
21
-2.2389311023622045
0
LINE
8
BLACK
6
CONTINUOUS
10
3.0413133464566928
20
-2.2389311023622045
11
3.0520329527559054
21
-2.2342748818897635
0
LINE
8
BLACK
6
CONTINUOUS
10
3.0520329527559054
20
-2.2342748818897635
11
3.0632867322834647
21
-2.2311217322834644
0
LINE
8
BLACK
6
CONTINUOUS
10
3.0632867322834647
20
-2.2311217322834644
11
3.0748650787401575
21
-2.22953031496063
0
LINE
8
BLACK
6
CONTINUOUS
10
3.0748650787401575
20
-2.22953031496063
11
3.0865522440944879
21
-2.22953031496063
0
LINE
8
BLACK
6
CONTINUOUS
10
3.0865522440944879
20
-2.22953031496063
11
3.0981305905511811
21
-2.2311217322834644
0
LINE
8
BLACK
6
CONTINUOUS
10
3.0015422440944883
20
-2.3258418110236221
11
3.0037612598425194
21
-2.336520275590551
0
LINE
8
BLACK
6
CONTINUOUS
10
3.0037612598425194
20
-2.336520275590551
11
3.0074136614173228
21
-2.3467971259842519
0
LINE
8
BLACK
6
CONTINUOUS
10
3.0074136614173228
20
-2.3467971259842519
11
3.0124314173228344
21
-2.3564809448818895
0
LINE
8
BLACK
6
CONTINUOUS
10
3.0124314173228344
20
-2.3564809448818895
11
3.0187210236220472
21
-2.3653912992125985
0
LINE
8
BLACK
6
CONTINUOUS
10
3.0187210236220472
20
-2.3653912992125985
11
3.0261653543307085
21
-2.3733622440944879
0
LINE
8
BLACK
6
CONTINUOUS
10
3.0261653543307085
20
-2.3733622440944879
11
3.0346257086614172
21
-2.3802452755905512
0
LINE
8
BLACK
6
CONTINUOUS
10
3.0346257086614172
20
-2.3802452755905512
11
3.0439445275590549
21
-2.3859121653543305
0
LINE
8
BLACK
6
CONTINUOUS
10
3.0439445275590549
20
-2.3859121653543305
11
3.0539481889763778
21
-2.3902573622047245
0
LINE
8
BLACK
6
CONTINUOUS
10
3.0539481889763778
20
-2.3902573622047245
11
3.0644503543307087
21
-2.3931999212598423
0
LINE
8
BLACK
6
CONTINUOUS
10
3.0644503543307087
20
-2.3931999212598423
11
3.0752553543307086
21
-2.3946850393700787
0
LINE
8
BLACK
6
CONTINUOUS
10
3.0752553543307086
20
-2.3946850393700787
11
3.0861619685039368
21
-2.3946850393700787
0
LINE
8
BLACK
6
CONTINUOUS
10
3.0861619685039368
20
-2.3946850393700787
11
3.0969669685039372
21
-2.3931999212598423
0
LINE
8
BLACK
6
CONTINUOUS
10
3.0969669685039372
20
-2.3931999212598423
11
3.1074691338582676
21
-2.3902573622047245
0
LINE
8
BLACK
6
CONTINUOUS
10
3.1074691338582676
20
-2.3902573622047245
11
3.1174727952755905
21
-2.3859121653543305
0
LINE
8
BLACK
6
CONTINUOUS
10
3.1174727952755905
20
-2.3859121653543305
11
3.1267916141732282
21
-2.3802452755905512
0
LINE
8
BLACK
6
CONTINUOUS
10
3.1267916141732282
20
-2.3802452755905512
11
3.1352519685039368
21
-2.3733622440944879
0
LINE
8
BLACK
6
CONTINUOUS
10
3.1352519685039368
20
-2.3733622440944879
11
3.1426962992125982
21
-2.3653912992125985
0
LINE
8
BLACK
6
CONTINUOUS
10
3.1426962992125982
20
-2.3653912992125985
11
3.148985905511811
21
-2.3564809448818895
0
LINE
8
BLACK
6
CONTINUOUS
10
3.148985905511811
20
-2.3564809448818895
11
3.1540036614173226
21
-2.3467971259842519
0
LINE
8
BLACK
6
CONTINUOUS
10
3.1540036614173226
20
-2.3467971259842519
11
3.157656062992126
21
-2.336520275590551
0
LINE
8
BLACK
6
CONTINUOUS
10
3.157656062992126
20
-2.336520275590551
11
3.1598750787401575
21
-2.3258418110236221
0
LINE
8
BLACK
6
CONTINUOUS
10
3.1598750787401575
20
-2.3258418110236221
11
3.1606193700787402
21
-2.3149606299212597
0
LINE
8
BLACK
6
CONTINUOUS
10
3.1606193700787402
20
-2.3149606299212597
11
3.1598750787401575
21
-2.3040794488188974
0
LINE
8
BLACK
6
CONTINUOUS
10
3.1598750787401575
20
-2.3040794488188974
11
3.157656062992126
21
-2.2934009842519685
0
LINE
8
BLACK
6
CONTINUOUS
10
3.157656062992126
20
-2.2934009842519685
11
3.1540036614173226
21
-2.2831241338582675
0
LINE
8
BLACK
6
CONTINUOUS
10
3.1540036614173226
20
-2.2831241338582675
11
3.148985905511811
21
-2.2734403149606299
0
LINE
8
BLACK
6
CONTINUOUS
10
3.148985905511811
20
-2.2734403149606299
11
3.1426962992125982
21
-2.2645299606299214
0
LINE
8
BLACK
6
CONTINUOUS
10
3.1426962992125982
20
-2.2645299606299214
11
3.1352519685039368
21
-2.2565590157480315
0
LINE
8
BLACK
6
CONTINUOUS
10
3.1352519685039368
20
-2.2565590157480315
11
3.1267916141732282
21
-2.2496759842519682
0
LINE
8
BLACK
6
CONTINUOUS
10
3.1267916141732282
20
-2.2496759842519682
11
3.1174727952755905
21
-2.244009094488189
0
LINE
8
BLACK
6
CONTINUOUS
10
3.1174727952755905
20
-2.244009094488189
11
3.1074691338582676
21
-2.2396638976377954
0
LINE
8
BLACK
6
CONTINUOUS
10
3.1074691338582676
20
-2.2396638976377954
11
3.0969669685039372
21
-2.2367213385826772
0
LINE
8
BLACK
6
CONTINUOUS
10
3.0969669685039372
20
-2.2367213385826772
11
3.0861619685039368
21
-2.2352362204724407
0
LINE
8
BLACK
6
CONTINUOUS
10
3.0861619685039368
20
-2.2352362204724407
11
3.0752553543307086
21
-2.2352362204724407
0
LINE
8
BLACK
6
CONTINUOUS
10
3.0752553543307086
20
-2.2352362204724407
11
3.0644503543307087
21
-2.2367213385826772
0
LINE
8
BLACK
6
CONTINUOUS
10
3.0644503543307087
20
-2.2367213385826772
11
3.0539481889763778
21
-2.2396638976377954
0
LINE
8
BLACK
6
CONTINUOUS
10
3.0539481889763778
20
-2.2396638976377954
11
3.0439445275590549
21
-2.244009094488189
0
LINE
8
BLACK
6
CONTINUOUS
10
3.0439445275590549
20
-2.244009094488189
11
3.0346257086614172
21
-2.2496759842519682
0
LINE
8
BLACK
6
CONTINUOUS
10
3.0346257086614172
20
-2.2496759842519682
11
3.0261653543307085
21
-2.2565590157480315
0
LINE
8
BLACK
6
CONTINUOUS
10
3.0261653543307085
20
-2.2565590157480315
11
3.0187210236220472
21
-2.2645299606299214
0
LINE
8
BLACK
6
CONTINUOUS
10
3.0187210236220472
20
-2.2645299606299214
11
3.0124314173228344
21
-2.2734403149606299
0
LINE
8
BLACK
6
CONTINUOUS
10
3.0124314173228344
20
-2.2734403149606299
11
3.0074136614173228
21
-2.2831241338582675
0
LINE
8
BLACK
6
CONTINUOUS
10
3.0074136614173228
20
-2.2831241338582675
11
3.0037612598425194
21
-2.2934009842519685
0
LINE
8
BLACK
6
CONTINUOUS
10
3.0037612598425194
20
-2.2934009842519685
11
3.0015422440944883
21
-2.3040794488188974
0
LINE
8
BLACK
6
CONTINUOUS
10
3.0015422440944883
20
-2.3040794488188974
11
3.0007979527559057
21
-2.3149606299212597
0
LINE
8
BLACK
6
CONTINUOUS
10
3.0007979527559057
20
-2.3149606299212597
11
3.0015422440944883
21
-2.3258418110236221
0
CIRCLE
8
BLACK
10
1.8996062992125984
20
-2.3149606299212597
40
0.0413385826771654
0
CIRCLE
8
BLACK
10
1.8996062992125984
20
-4.3622047244094491
40
0.0413385826771654
0
CIRCLE
8
BLACK
10
3.0807086614173227
20
-2.3149606299212597
40
0.0413385826771654
0
CIRCLE
8
BLACK
10
3.0807086614173227
20
-4.3622047244094491
40
0.0413385826771654
0
CIRCLE
8
BLACK
10
2.6392913385826771
20
-2.3414488188976379
40
0.0196850393700787
0
CIRCLE
8
BLACK
10
2.539291338582677
20
-2.3414488188976379
40
0.0196850393700787
0
CIRCLE
8
BLACK
10
2.4392913385826773
20
-2.3414488188976379
40
0.0196850393700787
0
CIRCLE
8
BLACK
10
2.3392913385826772
20
-2.3414488188976379
40
0.0196850393700787
0
CIRCLE
8
BLACK
10
5.1692913385826769
20
-2.3858267716535431
40
0.0413385826771654
0
CIRCLE
8
BLACK
10
5.1692913385826769
20
-4.4330708661417324
40
0.0413385826771654
0
CIRCLE
8
BLACK
10
6.3503937007874018
20
-2.3858267716535431
40
0.0413385826771654
0
CIRCLE
8
BLACK
10
6.3503937007874018
20
-4.4330708661417324
40
0.0413385826771654
0
CIRCLE
8
BLACK
10
5.9089763779527562
20
-2.4123149606299212
40
0.0196850393700787
0
CIRCLE
8
BLACK
10
5.8089763779527557
20
-2.4123149606299212
40
0.0196850393700787
0
CIRCLE
8
BLACK
10
5.708976377952756
20
-2.4123149606299212
40
0.0196850393700787
0
CIRCLE
8
BLACK
10
5.6089763779527555
20
-2.4123149606299212
40
0.0196850393700787
  0
ENDSEC
  0
EOF
