  0
SECTION
  2
HEADER
  9
$ANGBASE
  50
0.0
  9
$ANGDIR
  70
1
  9
$MEASUREMENT
  70
0
  0
ENDSEC
  0
SECTION
  2
TABLES
  0
TABLE
  2
LTYPE
  70
4
  0
LTYPE
  5
40F
  2
CONTINUOUS
  70
0
  3
Solid line
  72
65
  73
0
  40
0.0
  0
LTYPE
  5
410
  2
DASHDOT
 70
0
  3
Dash Dot ____ _ ____ _
 72
65
 73
4
 40
2.0
 49
1.25
 49
-0.25
 49
0.25
 49
-0.25
  0
LTYPE
  5
411
  2
DASHED
 70
0
  3
Dashed __ __ __ __ __
 72
65
 73
2
 40
0.75
 49
0.5
 49
-0.25
  0
LTYPE
  5
43B
  2
DOTTED
 70
0
  3
Dotted .  .  .  .
 72
65
 73
2
 40
0.2
 49
0.0
 49
-0.2
  0
ENDTAB
  0
TABLE
  2
STYLE
  70
4
  0
STYLE
  2
KICAD
  70
0
  40
0
  41
1
  42
1
  50
0
  71
0
  3
isocp.shx
  0
STYLE
  2
KICADB
  70
0
  40
0
  41
1
  42
1
  50
0
  71
0
  3
isocp.shx
  0
STYLE
  2
KICADI
  70
0
  40
0
  41
1
  42
1
  50
15
  71
0
  3
isocp.shx
  0
STYLE
  2
KICADBI
  70
0
  40
0
  41
1
  42
1
  50
15
  71
0
  3
isocp.shx
  0
ENDTAB
  0
TABLE
  2
LAYER
  70
1
  0
LAYER
  2
BLACK
  70
0
  62
7
  6
CONTINUOUS
  0
ENDTAB
  0
ENDSEC
  0
SECTION
  2
ENTITIES
0
LINE
8
BLACK
6
CONTINUOUS
10
2.1630912204724408
20
-4.9240351181102362
11
2.1743449999999998
21
-4.9271882677165353
0
LINE
8
BLACK
6
CONTINUOUS
10
2.1743449999999998
20
-4.9271882677165353
11
2.1850646062992127
21
-4.9318444881889762
0
LINE
8
BLACK
6
CONTINUOUS
10
2.1850646062992127
20
-4.9318444881889762
11
2.1950503937007873
21
-4.9379169291338583
0
LINE
8
BLACK
6
CONTINUOUS
10
2.1950503937007873
20
-4.9379169291338583
11
2.2041162598425195
21
-4.9452925984251968
0
LINE
8
BLACK
6
CONTINUOUS
10
2.2041162598425195
20
-4.9452925984251968
11
2.2120933858267717
21
-4.953834015748031
0
LINE
8
BLACK
6
CONTINUOUS
10
2.2120933858267717
20
-4.953834015748031
11
2.218833149606299
21
-4.9633820866141729
0
LINE
8
BLACK
6
CONTINUOUS
10
2.218833149606299
20
-4.9633820866141729
11
2.2242100393700786
21
-4.9737589763779528
0
LINE
8
BLACK
6
CONTINUOUS
10
2.2242100393700786
20
-4.9737589763779528
11
2.2281238188976378
21
-4.9847713385826768
0
LINE
8
BLACK
6
CONTINUOUS
10
2.2281238188976378
20
-4.9847713385826768
11
2.2305016535433069
21
-4.996214094488189
0
LINE
8
BLACK
6
CONTINUOUS
10
2.2305016535433069
20
-4.996214094488189
11
2.231299212598425
21
-5.0078740157480315
0
LINE
8
BLACK
6
CONTINUOUS
10
2.231299212598425
20
-5.0078740157480315
11
2.2305016535433069
21
-5.019533937007874
0
LINE
8
BLACK
6
CONTINUOUS
10
2.2305016535433069
20
-5.019533937007874
11
2.2281238188976378
21
-5.0309766929133861
0
LINE
8
BLACK
6
CONTINUOUS
10
2.2281238188976378
20
-5.0309766929133861
11
2.2242100393700786
21
-5.0419890551181101
0
LINE
8
BLACK
6
CONTINUOUS
10
2.2242100393700786
20
-5.0419890551181101
11
2.218833149606299
21
-5.0523659448818901
0
LINE
8
BLACK
6
CONTINUOUS
10
2.218833149606299
20
-5.0523659448818901
11
2.2120933858267717
21
-5.0619140157480311
0
LINE
8
BLACK
6
CONTINUOUS
10
2.2120933858267717
20
-5.0619140157480311
11
2.2041162598425195
21
-5.0704554330708662
0
LINE
8
BLACK
6
CONTINUOUS
10
2.2041162598425195
20
-5.0704554330708662
11
2.1950503937007873
21
-5.0778311023622047
0
LINE
8
BLACK
6
CONTINUOUS
10
2.1950503937007873
20
-5.0778311023622047
11
2.1850646062992127
21
-5.0839035433070867
0
LINE
8
BLACK
6
CONTINUOUS
10
2.1850646062992127
20
-5.0839035433070867
11
2.1743449999999998
21
-5.0885597637795277
0
LINE
8
BLACK
6
CONTINUOUS
10
2.1743449999999998
20
-5.0885597637795277
11
2.1630912204724408
21
-5.0917129133858268
0
LINE
8
BLACK
6
CONTINUOUS
10
2.1630912204724408
20
-5.0917129133858268
11
2.1515128740157481
21
-5.0933043307086612
0
LINE
8
BLACK
6
CONTINUOUS
10
2.1515128740157481
20
-5.0933043307086612
11
2.1398257086614172
21
-5.0933043307086612
0
LINE
8
BLACK
6
CONTINUOUS
10
2.1398257086614172
20
-5.0933043307086612
11
2.1282473622047244
21
-5.0917129133858268
0
LINE
8
BLACK
6
CONTINUOUS
10
2.1282473622047244
20
-5.0917129133858268
11
2.1169935826771651
21
-5.0885597637795277
0
LINE
8
BLACK
6
CONTINUOUS
10
2.1169935826771651
20
-5.0885597637795277
11
2.1062739763779526
21
-5.0839035433070867
0
LINE
8
BLACK
6
CONTINUOUS
10
2.1062739763779526
20
-5.0839035433070867
11
2.096288188976378
21
-5.0778311023622047
0
LINE
8
BLACK
6
CONTINUOUS
10
2.096288188976378
20
-5.0778311023622047
11
2.0872223228346458
21
-5.0704554330708662
0
LINE
8
BLACK
6
CONTINUOUS
10
2.0872223228346458
20
-5.0704554330708662
11
2.0792451968503936
21
-5.0619140157480311
0
LINE
8
BLACK
6
CONTINUOUS
10
2.0792451968503936
20
-5.0619140157480311
11
2.0725054330708659
21
-5.0523659448818901
0
LINE
8
BLACK
6
CONTINUOUS
10
2.0725054330708659
20
-5.0523659448818901
11
2.0671285433070867
21
-5.0419890551181101
0
LINE
8
BLACK
6
CONTINUOUS
10
2.0671285433070867
20
-5.0419890551181101
11
2.0632147637795275
21
-5.0309766929133861
0
LINE
8
BLACK
6
CONTINUOUS
10
2.0632147637795275
20
-5.0309766929133861
11
2.0608369291338584
21
-5.019533937007874
0
LINE
8
BLACK
6
CONTINUOUS
10
2.0608369291338584
20
-5.019533937007874
11
2.0600393700787403
21
-5.0078740157480315
0
LINE
8
BLACK
6
CONTINUOUS
10
2.0600393700787403
20
-5.0078740157480315
11
2.0608369291338584
21
-4.996214094488189
0
LINE
8
BLACK
6
CONTINUOUS
10
2.0608369291338584
20
-4.996214094488189
11
2.0632147637795275
21
-4.9847713385826768
0
LINE
8
BLACK
6
CONTINUOUS
10
2.0632147637795275
20
-4.9847713385826768
11
2.0671285433070867
21
-4.9737589763779528
0
LINE
8
BLACK
6
CONTINUOUS
10
2.0671285433070867
20
-4.9737589763779528
11
2.0725054330708659
21
-4.9633820866141729
0
LINE
8
BLACK
6
CONTINUOUS
10
2.0725054330708659
20
-4.9633820866141729
11
2.0792451968503936
21
-4.953834015748031
0
LINE
8
BLACK
6
CONTINUOUS
10
2.0792451968503936
20
-4.953834015748031
11
2.0872223228346458
21
-4.9452925984251968
0
LINE
8
BLACK
6
CONTINUOUS
10
2.0872223228346458
20
-4.9452925984251968
11
2.096288188976378
21
-4.9379169291338583
0
LINE
8
BLACK
6
CONTINUOUS
10
2.096288188976378
20
-4.9379169291338583
11
2.1062739763779526
21
-4.9318444881889762
0
LINE
8
BLACK
6
CONTINUOUS
10
2.1062739763779526
20
-4.9318444881889762
11
2.1169935826771651
21
-4.9271882677165353
0
LINE
8
BLACK
6
CONTINUOUS
10
2.1169935826771651
20
-4.9271882677165353
11
2.1282473622047244
21
-4.9240351181102362
0
LINE
8
BLACK
6
CONTINUOUS
10
2.1282473622047244
20
-4.9240351181102362
11
2.1398257086614172
21
-4.9224437007874018
0
LINE
8
BLACK
6
CONTINUOUS
10
2.1398257086614172
20
-4.9224437007874018
11
2.1515128740157481
21
-4.9224437007874018
0
LINE
8
BLACK
6
CONTINUOUS
10
2.1515128740157481
20
-4.9224437007874018
11
2.1630912204724408
21
-4.9240351181102362
0
LINE
8
BLACK
6
CONTINUOUS
10
2.0665028740157481
20
-5.0187551968503934
11
2.0687218897637796
21
-5.0294336614173227
0
LINE
8
BLACK
6
CONTINUOUS
10
2.0687218897637796
20
-5.0294336614173227
11
2.0723742913385825
21
-5.0397105118110233
0
LINE
8
BLACK
6
CONTINUOUS
10
2.0723742913385825
20
-5.0397105118110233
11
2.0773920472440945
21
-5.0493943307086617
0
LINE
8
BLACK
6
CONTINUOUS
10
2.0773920472440945
20
-5.0493943307086617
11
2.0836816535433069
21
-5.0583046850393698
0
LINE
8
BLACK
6
CONTINUOUS
10
2.0836816535433069
20
-5.0583046850393698
11
2.0911259842519683
21
-5.0662756299212601
0
LINE
8
BLACK
6
CONTINUOUS
10
2.0911259842519683
20
-5.0662756299212601
11
2.099586338582677
21
-5.073158661417323
0
LINE
8
BLACK
6
CONTINUOUS
10
2.099586338582677
20
-5.073158661417323
11
2.108905157480315
21
-5.0788255511811027
0
LINE
8
BLACK
6
CONTINUOUS
10
2.108905157480315
20
-5.0788255511811027
11
2.1189088188976379
21
-5.0831707480314963
0
LINE
8
BLACK
6
CONTINUOUS
10
2.1189088188976379
20
-5.0831707480314963
11
2.1294109842519684
21
-5.086113307086614
0
LINE
8
BLACK
6
CONTINUOUS
10
2.1294109842519684
20
-5.086113307086614
11
2.1402159842519684
21
-5.08759842519685
0
LINE
8
BLACK
6
CONTINUOUS
10
2.1402159842519684
20
-5.08759842519685
11
2.1511225984251969
21
-5.08759842519685
0
LINE
8
BLACK
6
CONTINUOUS
10
2.1511225984251969
20
-5.08759842519685
11
2.1619275984251969
21
-5.086113307086614
0
LINE
8
BLACK
6
CONTINUOUS
10
2.1619275984251969
20
-5.086113307086614
11
2.1724297637795273
21
-5.0831707480314963
0
LINE
8
BLACK
6
CONTINUOUS
10
2.1724297637795273
20
-5.0831707480314963
11
2.1824334251968502
21
-5.0788255511811027
0
LINE
8
BLACK
6
CONTINUOUS
10
2.1824334251968502
20
-5.0788255511811027
11
2.1917522440944883
21
-5.073158661417323
0
LINE
8
BLACK
6
CONTINUOUS
10
2.1917522440944883
20
-5.073158661417323
11
2.200212598425197
21
-5.0662756299212601
0
LINE
8
BLACK
6
CONTINUOUS
10
2.200212598425197
20
-5.0662756299212601
11
2.2076569291338584
21
-5.0583046850393698
0
LINE
8
BLACK
6
CONTINUOUS
10
2.2076569291338584
20
-5.0583046850393698
11
2.2139465354330707
21
-5.0493943307086617
0
LINE
8
BLACK
6
CONTINUOUS
10
2.2139465354330707
20
-5.0493943307086617
11
2.2189642913385828
21
-5.0397105118110233
0
LINE
8
BLACK
6
CONTINUOUS
10
2.2189642913385828
20
-5.0397105118110233
11
2.2226166929133857
21
-5.0294336614173227
0
LINE
8
BLACK
6
CONTINUOUS
10
2.2226166929133857
20
-5.0294336614173227
11
2.2248357086614172
21
-5.0187551968503934
0
LINE
8
BLACK
6
CONTINUOUS
10
2.2248357086614172
20
-5.0187551968503934
11
2.2255799999999999
21
-5.0078740157480315
0
LINE
8
BLACK
6
CONTINUOUS
10
2.2255799999999999
20
-5.0078740157480315
11
2.2248357086614172
21
-4.9969928346456696
0
LINE
8
BLACK
6
CONTINUOUS
10
2.2248357086614172
20
-4.9969928346456696
11
2.2226166929133857
21
-4.9863143700787402
0
LINE
8
BLACK
6
CONTINUOUS
10
2.2226166929133857
20
-4.9863143700787402
11
2.2189642913385828
21
-4.9760375196850388
0
LINE
8
BLACK
6
CONTINUOUS
10
2.2189642913385828
20
-4.9760375196850388
11
2.2139465354330707
21
-4.9663537007874012
0
LINE
8
BLACK
6
CONTINUOUS
10
2.2139465354330707
20
-4.9663537007874012
11
2.2076569291338584
21
-4.9574433464566932
0
LINE
8
BLACK
6
CONTINUOUS
10
2.2076569291338584
20
-4.9574433464566932
11
2.200212598425197
21
-4.9494724015748028
0
LINE
8
BLACK
6
CONTINUOUS
10
2.200212598425197
20
-4.9494724015748028
11
2.1917522440944883
21
-4.94258937007874
0
LINE
8
BLACK
6
CONTINUOUS
10
2.1917522440944883
20
-4.94258937007874
11
2.1824334251968502
21
-4.9369224803149603
0
LINE
8
BLACK
6
CONTINUOUS
10
2.1824334251968502
20
-4.9369224803149603
11
2.1724297637795273
21
-4.9325772834645667
0
LINE
8
BLACK
6
CONTINUOUS
10
2.1724297637795273
20
-4.9325772834645667
11
2.1619275984251969
21
-4.9296347244094489
0
LINE
8
BLACK
6
CONTINUOUS
10
2.1619275984251969
20
-4.9296347244094489
11
2.1511225984251969
21
-4.9281496062992121
0
LINE
8
BLACK
6
CONTINUOUS
10
2.1511225984251969
20
-4.9281496062992121
11
2.1402159842519684
21
-4.9281496062992121
0
LINE
8
BLACK
6
CONTINUOUS
10
2.1402159842519684
20
-4.9281496062992121
11
2.1294109842519684
21
-4.9296347244094489
0
LINE
8
BLACK
6
CONTINUOUS
10
2.1294109842519684
20
-4.9296347244094489
11
2.1189088188976379
21
-4.9325772834645667
0
LINE
8
BLACK
6
CONTINUOUS
10
2.1189088188976379
20
-4.9325772834645667
11
2.108905157480315
21
-4.9369224803149603
0
LINE
8
BLACK
6
CONTINUOUS
10
2.108905157480315
20
-4.9369224803149603
11
2.099586338582677
21
-4.94258937007874
0
LINE
8
BLACK
6
CONTINUOUS
10
2.099586338582677
20
-4.94258937007874
11
2.0911259842519683
21
-4.9494724015748028
0
LINE
8
BLACK
6
CONTINUOUS
10
2.0911259842519683
20
-4.9494724015748028
11
2.0836816535433069
21
-4.9574433464566932
0
LINE
8
BLACK
6
CONTINUOUS
10
2.0836816535433069
20
-4.9574433464566932
11
2.0773920472440945
21
-4.9663537007874012
0
LINE
8
BLACK
6
CONTINUOUS
10
2.0773920472440945
20
-4.9663537007874012
11
2.0723742913385825
21
-4.9760375196850388
0
LINE
8
BLACK
6
CONTINUOUS
10
2.0723742913385825
20
-4.9760375196850388
11
2.0687218897637796
21
-4.9863143700787402
0
LINE
8
BLACK
6
CONTINUOUS
10
2.0687218897637796
20
-4.9863143700787402
11
2.0665028740157481
21
-4.9969928346456696
0
LINE
8
BLACK
6
CONTINUOUS
10
2.0665028740157481
20
-4.9969928346456696
11
2.0657585826771654
21
-5.0078740157480315
0
LINE
8
BLACK
6
CONTINUOUS
10
2.0657585826771654
20
-5.0078740157480315
11
2.0665028740157481
21
-5.0187551968503934
0
LINE
8
BLACK
6
CONTINUOUS
10
3.3441935826771654
20
-4.9240351181102362
11
3.3554473622047243
21
-4.9271882677165353
0
LINE
8
BLACK
6
CONTINUOUS
10
3.3554473622047243
20
-4.9271882677165353
11
3.3661669685039368
21
-4.9318444881889762
0
LINE
8
BLACK
6
CONTINUOUS
10
3.3661669685039368
20
-4.9318444881889762
11
3.3761527559055118
21
-4.9379169291338583
0
LINE
8
BLACK
6
CONTINUOUS
10
3.3761527559055118
20
-4.9379169291338583
11
3.385218622047244
21
-4.9452925984251968
0
LINE
8
BLACK
6
CONTINUOUS
10
3.385218622047244
20
-4.9452925984251968
11
3.3931957480314958
21
-4.953834015748031
0
LINE
8
BLACK
6
CONTINUOUS
10
3.3931957480314958
20
-4.953834015748031
11
3.3999355118110235
21
-4.9633820866141729
0
LINE
8
BLACK
6
CONTINUOUS
10
3.3999355118110235
20
-4.9633820866141729
11
3.4053124015748031
21
-4.9737589763779528
0
LINE
8
BLACK
6
CONTINUOUS
10
3.4053124015748031
20
-4.9737589763779528
11
3.4092261811023623
21
-4.9847713385826768
0
LINE
8
BLACK
6
CONTINUOUS
10
3.4092261811023623
20
-4.9847713385826768
11
3.4116040157480314
21
-4.996214094488189
0
LINE
8
BLACK
6
CONTINUOUS
10
3.4116040157480314
20
-4.996214094488189
11
3.4124015748031495
21
-5.0078740157480315
0
LINE
8
BLACK
6
CONTINUOUS
10
3.4124015748031495
20
-5.0078740157480315
11
3.4116040157480314
21
-5.019533937007874
0
LINE
8
BLACK
6
CONTINUOUS
10
3.4116040157480314
20
-5.019533937007874
11
3.4092261811023623
21
-5.0309766929133861
0
LINE
8
BLACK
6
CONTINUOUS
10
3.4092261811023623
20
-5.0309766929133861
11
3.4053124015748031
21
-5.0419890551181101
0
LINE
8
BLACK
6
CONTINUOUS
10
3.4053124015748031
20
-5.0419890551181101
11
3.3999355118110235
21
-5.0523659448818901
0
LINE
8
BLACK
6
CONTINUOUS
10
3.3999355118110235
20
-5.0523659448818901
11
3.3931957480314958
21
-5.0619140157480311
0
LINE
8
BLACK
6
CONTINUOUS
10
3.3931957480314958
20
-5.0619140157480311
11
3.385218622047244
21
-5.0704554330708662
0
LINE
8
BLACK
6
CONTINUOUS
10
3.385218622047244
20
-5.0704554330708662
11
3.3761527559055118
21
-5.0778311023622047
0
LINE
8
BLACK
6
CONTINUOUS
10
3.3761527559055118
20
-5.0778311023622047
11
3.3661669685039368
21
-5.0839035433070867
0
LINE
8
BLACK
6
CONTINUOUS
10
3.3661669685039368
20
-5.0839035433070867
11
3.3554473622047243
21
-5.0885597637795277
0
LINE
8
BLACK
6
CONTINUOUS
10
3.3554473622047243
20
-5.0885597637795277
11
3.3441935826771654
21
-5.0917129133858268
0
LINE
8
BLACK
6
CONTINUOUS
10
3.3441935826771654
20
-5.0917129133858268
11
3.3326152362204722
21
-5.0933043307086612
0
LINE
8
BLACK
6
CONTINUOUS
10
3.3326152362204722
20
-5.0933043307086612
11
3.3209280708661417
21
-5.0933043307086612
0
LINE
8
BLACK
6
CONTINUOUS
10
3.3209280708661417
20
-5.0933043307086612
11
3.3093497244094485
21
-5.0917129133858268
0
LINE
8
BLACK
6
CONTINUOUS
10
3.3093497244094485
20
-5.0917129133858268
11
3.2980959448818896
21
-5.0885597637795277
0
LINE
8
BLACK
6
CONTINUOUS
10
3.2980959448818896
20
-5.0885597637795277
11
3.2873763385826771
21
-5.0839035433070867
0
LINE
8
BLACK
6
CONTINUOUS
10
3.2873763385826771
20
-5.0839035433070867
11
3.2773905511811021
21
-5.0778311023622047
0
LINE
8
BLACK
6
CONTINUOUS
10
3.2773905511811021
20
-5.0778311023622047
11
3.2683246850393699
21
-5.0704554330708662
0
LINE
8
BLACK
6
CONTINUOUS
10
3.2683246850393699
20
-5.0704554330708662
11
3.2603475590551181
21
-5.0619140157480311
0
LINE
8
BLACK
6
CONTINUOUS
10
3.2603475590551181
20
-5.0619140157480311
11
3.2536077952755904
21
-5.0523659448818901
0
LINE
8
BLACK
6
CONTINUOUS
10
3.2536077952755904
20
-5.0523659448818901
11
3.2482309055118108
21
-5.0419890551181101
0
LINE
8
BLACK
6
CONTINUOUS
10
3.2482309055118108
20
-5.0419890551181101
11
3.244317125984252
21
-5.0309766929133861
0
LINE
8
BLACK
6
CONTINUOUS
10
3.244317125984252
20
-5.0309766929133861
11
3.2419392913385825
21
-5.019533937007874
0
LINE
8
BLACK
6
CONTINUOUS
10
3.2419392913385825
20
-5.019533937007874
11
3.2411417322834644
21
-5.0078740157480315
0
LINE
8
BLACK
6
CONTINUOUS
10
3.2411417322834644
20
-5.0078740157480315
11
3.2419392913385825
21
-4.996214094488189
0
LINE
8
BLACK
6
CONTINUOUS
10
3.2419392913385825
20
-4.996214094488189
11
3.244317125984252
21
-4.9847713385826768
0
LINE
8
BLACK
6
CONTINUOUS
10
3.244317125984252
20
-4.9847713385826768
11
3.2482309055118108
21
-4.9737589763779528
0
LINE
8
BLACK
6
CONTINUOUS
10
3.2482309055118108
20
-4.9737589763779528
11
3.2536077952755904
21
-4.9633820866141729
0
LINE
8
BLACK
6
CONTINUOUS
10
3.2536077952755904
20
-4.9633820866141729
11
3.2603475590551181
21
-4.953834015748031
0
LINE
8
BLACK
6
CONTINUOUS
10
3.2603475590551181
20
-4.953834015748031
11
3.2683246850393699
21
-4.9452925984251968
0
LINE
8
BLACK
6
CONTINUOUS
10
3.2683246850393699
20
-4.9452925984251968
11
3.2773905511811021
21
-4.9379169291338583
0
LINE
8
BLACK
6
CONTINUOUS
10
3.2773905511811021
20
-4.9379169291338583
11
3.2873763385826771
21
-4.9318444881889762
0
LINE
8
BLACK
6
CONTINUOUS
10
3.2873763385826771
20
-4.9318444881889762
11
3.2980959448818896
21
-4.9271882677165353
0
LINE
8
BLACK
6
CONTINUOUS
10
3.2980959448818896
20
-4.9271882677165353
11
3.3093497244094485
21
-4.9240351181102362
0
LINE
8
BLACK
6
CONTINUOUS
10
3.3093497244094485
20
-4.9240351181102362
11
3.3209280708661417
21
-4.9224437007874018
0
LINE
8
BLACK
6
CONTINUOUS
10
3.3209280708661417
20
-4.9224437007874018
11
3.3326152362204722
21
-4.9224437007874018
0
LINE
8
BLACK
6
CONTINUOUS
10
3.3326152362204722
20
-4.9224437007874018
11
3.3441935826771654
21
-4.9240351181102362
0
LINE
8
BLACK
6
CONTINUOUS
10
3.2476052362204721
20
-5.0187551968503934
11
3.2498242519685037
21
-5.0294336614173227
0
LINE
8
BLACK
6
CONTINUOUS
10
3.2498242519685037
20
-5.0294336614173227
11
3.2534766535433071
21
-5.0397105118110233
0
LINE
8
BLACK
6
CONTINUOUS
10
3.2534766535433071
20
-5.0397105118110233
11
3.2584944094488186
21
-5.0493943307086617
0
LINE
8
BLACK
6
CONTINUOUS
10
3.2584944094488186
20
-5.0493943307086617
11
3.2647840157480315
21
-5.0583046850393698
0
LINE
8
BLACK
6
CONTINUOUS
10
3.2647840157480315
20
-5.0583046850393698
11
3.2722283464566928
21
-5.0662756299212601
0
LINE
8
BLACK
6
CONTINUOUS
10
3.2722283464566928
20
-5.0662756299212601
11
3.2806887007874015
21
-5.073158661417323
0
LINE
8
BLACK
6
CONTINUOUS
10
3.2806887007874015
20
-5.073158661417323
11
3.2900075196850391
21
-5.0788255511811027
0
LINE
8
BLACK
6
CONTINUOUS
10
3.2900075196850391
20
-5.0788255511811027
11
3.300011181102362
21
-5.0831707480314963
0
LINE
8
BLACK
6
CONTINUOUS
10
3.300011181102362
20
-5.0831707480314963
11
3.3105133464566929
21
-5.086113307086614
0
LINE
8
BLACK
6
CONTINUOUS
10
3.3105133464566929
20
-5.086113307086614
11
3.3213183464566929
21
-5.08759842519685
0
LINE
8
BLACK
6
CONTINUOUS
10
3.3213183464566929
20
-5.08759842519685
11
3.332224960629921
21
-5.08759842519685
0
LINE
8
BLACK
6
CONTINUOUS
10
3.332224960629921
20
-5.08759842519685
11
3.343029960629921
21
-5.086113307086614
0
LINE
8
BLACK
6
CONTINUOUS
10
3.343029960629921
20
-5.086113307086614
11
3.3535321259842519
21
-5.0831707480314963
0
LINE
8
BLACK
6
CONTINUOUS
10
3.3535321259842519
20
-5.0831707480314963
11
3.3635357874015748
21
-5.0788255511811027
0
LINE
8
BLACK
6
CONTINUOUS
10
3.3635357874015748
20
-5.0788255511811027
11
3.3728546062992124
21
-5.073158661417323
0
LINE
8
BLACK
6
CONTINUOUS
10
3.3728546062992124
20
-5.073158661417323
11
3.3813149606299211
21
-5.0662756299212601
0
LINE
8
BLACK
6
CONTINUOUS
10
3.3813149606299211
20
-5.0662756299212601
11
3.3887592913385824
21
-5.0583046850393698
0
LINE
8
BLACK
6
CONTINUOUS
10
3.3887592913385824
20
-5.0583046850393698
11
3.3950488976377953
21
-5.0493943307086617
0
LINE
8
BLACK
6
CONTINUOUS
10
3.3950488976377953
20
-5.0493943307086617
11
3.4000666535433068
21
-5.0397105118110233
0
LINE
8
BLACK
6
CONTINUOUS
10
3.4000666535433068
20
-5.0397105118110233
11
3.4037190551181102
21
-5.0294336614173227
0
LINE
8
BLACK
6
CONTINUOUS
10
3.4037190551181102
20
-5.0294336614173227
11
3.4059380708661418
21
-5.0187551968503934
0
LINE
8
BLACK
6
CONTINUOUS
10
3.4059380708661418
20
-5.0187551968503934
11
3.4066823622047244
21
-5.0078740157480315
0
LINE
8
BLACK
6
CONTINUOUS
10
3.4066823622047244
20
-5.0078740157480315
11
3.4059380708661418
21
-4.9969928346456696
0
LINE
8
BLACK
6
CONTINUOUS
10
3.4059380708661418
20
-4.9969928346456696
11
3.4037190551181102
21
-4.9863143700787402
0
LINE
8
BLACK
6
CONTINUOUS
10
3.4037190551181102
20
-4.9863143700787402
11
3.4000666535433068
21
-4.9760375196850388
0
LINE
8
BLACK
6
CONTINUOUS
10
3.4000666535433068
20
-4.9760375196850388
11
3.3950488976377953
21
-4.9663537007874012
0
LINE
8
BLACK
6
CONTINUOUS
10
3.3950488976377953
20
-4.9663537007874012
11
3.3887592913385824
21
-4.9574433464566932
0
LINE
8
BLACK
6
CONTINUOUS
10
3.3887592913385824
20
-4.9574433464566932
11
3.3813149606299211
21
-4.9494724015748028
0
LINE
8
BLACK
6
CONTINUOUS
10
3.3813149606299211
20
-4.9494724015748028
11
3.3728546062992124
21
-4.94258937007874
0
LINE
8
BLACK
6
CONTINUOUS
10
3.3728546062992124
20
-4.94258937007874
11
3.3635357874015748
21
-4.9369224803149603
0
LINE
8
BLACK
6
CONTINUOUS
10
3.3635357874015748
20
-4.9369224803149603
11
3.3535321259842519
21
-4.9325772834645667
0
LINE
8
BLACK
6
CONTINUOUS
10
3.3535321259842519
20
-4.9325772834645667
11
3.343029960629921
21
-4.9296347244094489
0
LINE
8
BLACK
6
CONTINUOUS
10
3.343029960629921
20
-4.9296347244094489
11
3.332224960629921
21
-4.9281496062992121
0
LINE
8
BLACK
6
CONTINUOUS
10
3.332224960629921
20
-4.9281496062992121
11
3.3213183464566929
21
-4.9281496062992121
0
LINE
8
BLACK
6
CONTINUOUS
10
3.3213183464566929
20
-4.9281496062992121
11
3.3105133464566929
21
-4.9296347244094489
0
LINE
8
BLACK
6
CONTINUOUS
10
3.3105133464566929
20
-4.9296347244094489
11
3.300011181102362
21
-4.9325772834645667
0
LINE
8
BLACK
6
CONTINUOUS
10
3.300011181102362
20
-4.9325772834645667
11
3.2900075196850391
21
-4.9369224803149603
0
LINE
8
BLACK
6
CONTINUOUS
10
3.2900075196850391
20
-4.9369224803149603
11
3.2806887007874015
21
-4.94258937007874
0
LINE
8
BLACK
6
CONTINUOUS
10
3.2806887007874015
20
-4.94258937007874
11
3.2722283464566928
21
-4.9494724015748028
0
LINE
8
BLACK
6
CONTINUOUS
10
3.2722283464566928
20
-4.9494724015748028
11
3.2647840157480315
21
-4.9574433464566932
0
LINE
8
BLACK
6
CONTINUOUS
10
3.2647840157480315
20
-4.9574433464566932
11
3.2584944094488186
21
-4.9663537007874012
0
LINE
8
BLACK
6
CONTINUOUS
10
3.2584944094488186
20
-4.9663537007874012
11
3.2534766535433071
21
-4.9760375196850388
0
LINE
8
BLACK
6
CONTINUOUS
10
3.2534766535433071
20
-4.9760375196850388
11
3.2498242519685037
21
-4.9863143700787402
0
LINE
8
BLACK
6
CONTINUOUS
10
3.2498242519685037
20
-4.9863143700787402
11
3.2476052362204721
21
-4.9969928346456696
0
LINE
8
BLACK
6
CONTINUOUS
10
3.2476052362204721
20
-4.9969928346456696
11
3.2468609448818895
21
-5.0078740157480315
0
LINE
8
BLACK
6
CONTINUOUS
10
3.2468609448818895
20
-5.0078740157480315
11
3.2476052362204721
21
-5.0187551968503934
0
LINE
8
BLACK
6
CONTINUOUS
10
5.115847125984252
20
-4.9240351181102362
11
5.1271009055118109
21
-4.9271882677165353
0
LINE
8
BLACK
6
CONTINUOUS
10
5.1271009055118109
20
-4.9271882677165353
11
5.1378205118110234
21
-4.9318444881889762
0
LINE
8
BLACK
6
CONTINUOUS
10
5.1378205118110234
20
-4.9318444881889762
11
5.1478062992125979
21
-4.9379169291338583
0
LINE
8
BLACK
6
CONTINUOUS
10
5.1478062992125979
20
-4.9379169291338583
11
5.156872165354331
21
-4.9452925984251968
0
LINE
8
BLACK
6
CONTINUOUS
10
5.156872165354331
20
-4.9452925984251968
11
5.1648492913385828
21
-4.953834015748031
0
LINE
8
BLACK
6
CONTINUOUS
10
5.1648492913385828
20
-4.953834015748031
11
5.1715890551181101
21
-4.9633820866141729
0
LINE
8
BLACK
6
CONTINUOUS
10
5.1715890551181101
20
-4.9633820866141729
11
5.1769659448818892
21
-4.9737589763779528
0
LINE
8
BLACK
6
CONTINUOUS
10
5.1769659448818892
20
-4.9737589763779528
11
5.1808797244094489
21
-4.9847713385826768
0
LINE
8
BLACK
6
CONTINUOUS
10
5.1808797244094489
20
-4.9847713385826768
11
5.183257559055118
21
-4.996214094488189
0
LINE
8
BLACK
6
CONTINUOUS
10
5.183257559055118
20
-4.996214094488189
11
5.1840551181102361
21
-5.0078740157480315
0
LINE
8
BLACK
6
CONTINUOUS
10
5.1840551181102361
20
-5.0078740157480315
11
5.183257559055118
21
-5.019533937007874
0
LINE
8
BLACK
6
CONTINUOUS
10
5.183257559055118
20
-5.019533937007874
11
5.1808797244094489
21
-5.0309766929133861
0
LINE
8
BLACK
6
CONTINUOUS
10
5.1808797244094489
20
-5.0309766929133861
11
5.1769659448818892
21
-5.0419890551181101
0
LINE
8
BLACK
6
CONTINUOUS
10
5.1769659448818892
20
-5.0419890551181101
11
5.1715890551181101
21
-5.0523659448818901
0
LINE
8
BLACK
6
CONTINUOUS
10
5.1715890551181101
20
-5.0523659448818901
11
5.1648492913385828
21
-5.0619140157480311
0
LINE
8
BLACK
6
CONTINUOUS
10
5.1648492913385828
20
-5.0619140157480311
11
5.156872165354331
21
-5.0704554330708662
0
LINE
8
BLACK
6
CONTINUOUS
10
5.156872165354331
20
-5.0704554330708662
11
5.1478062992125979
21
-5.0778311023622047
0
LINE
8
BLACK
6
CONTINUOUS
10
5.1478062992125979
20
-5.0778311023622047
11
5.1378205118110234
21
-5.0839035433070867
0
LINE
8
BLACK
6
CONTINUOUS
10
5.1378205118110234
20
-5.0839035433070867
11
5.1271009055118109
21
-5.0885597637795277
0
LINE
8
BLACK
6
CONTINUOUS
10
5.1271009055118109
20
-5.0885597637795277
11
5.115847125984252
21
-5.0917129133858268
0
LINE
8
BLACK
6
CONTINUOUS
10
5.115847125984252
20
-5.0917129133858268
11
5.1042687795275592
21
-5.0933043307086612
0
LINE
8
BLACK
6
CONTINUOUS
10
5.1042687795275592
20
-5.0933043307086612
11
5.0925816141732279
21
-5.0933043307086612
0
LINE
8
BLACK
6
CONTINUOUS
10
5.0925816141732279
20
-5.0933043307086612
11
5.0810032677165351
21
-5.0917129133858268
0
LINE
8
BLACK
6
CONTINUOUS
10
5.0810032677165351
20
-5.0917129133858268
11
5.0697494881889762
21
-5.0885597637795277
0
LINE
8
BLACK
6
CONTINUOUS
10
5.0697494881889762
20
-5.0885597637795277
11
5.0590298818897637
21
-5.0839035433070867
0
LINE
8
BLACK
6
CONTINUOUS
10
5.0590298818897637
20
-5.0839035433070867
11
5.0490440944881891
21
-5.0778311023622047
0
LINE
8
BLACK
6
CONTINUOUS
10
5.0490440944881891
20
-5.0778311023622047
11
5.0399782283464569
21
-5.0704554330708662
0
LINE
8
BLACK
6
CONTINUOUS
10
5.0399782283464569
20
-5.0704554330708662
11
5.0320011023622042
21
-5.0619140157480311
0
LINE
8
BLACK
6
CONTINUOUS
10
5.0320011023622042
20
-5.0619140157480311
11
5.025261338582677
21
-5.0523659448818901
0
LINE
8
BLACK
6
CONTINUOUS
10
5.025261338582677
20
-5.0523659448818901
11
5.0198844488188978
21
-5.0419890551181101
0
LINE
8
BLACK
6
CONTINUOUS
10
5.0198844488188978
20
-5.0419890551181101
11
5.0159706692913382
21
-5.0309766929133861
0
LINE
8
BLACK
6
CONTINUOUS
10
5.0159706692913382
20
-5.0309766929133861
11
5.0135928346456691
21
-5.019533937007874
0
LINE
8
BLACK
6
CONTINUOUS
10
5.0135928346456691
20
-5.019533937007874
11
5.0127952755905509
21
-5.0078740157480315
0
LINE
8
BLACK
6
CONTINUOUS
10
5.0127952755905509
20
-5.0078740157480315
11
5.0135928346456691
21
-4.996214094488189
0
LINE
8
BLACK
6
CONTINUOUS
10
5.0135928346456691
20
-4.996214094488189
11
5.0159706692913382
21
-4.9847713385826768
0
LINE
8
BLACK
6
CONTINUOUS
10
5.0159706692913382
20
-4.9847713385826768
11
5.0198844488188978
21
-4.9737589763779528
0
LINE
8
BLACK
6
CONTINUOUS
10
5.0198844488188978
20
-4.9737589763779528
11
5.025261338582677
21
-4.9633820866141729
0
LINE
8
BLACK
6
CONTINUOUS
10
5.025261338582677
20
-4.9633820866141729
11
5.0320011023622042
21
-4.953834015748031
0
LINE
8
BLACK
6
CONTINUOUS
10
5.0320011023622042
20
-4.953834015748031
11
5.0399782283464569
21
-4.9452925984251968
0
LINE
8
BLACK
6
CONTINUOUS
10
5.0399782283464569
20
-4.9452925984251968
11
5.0490440944881891
21
-4.9379169291338583
0
LINE
8
BLACK
6
CONTINUOUS
10
5.0490440944881891
20
-4.9379169291338583
11
5.0590298818897637
21
-4.9318444881889762
0
LINE
8
BLACK
6
CONTINUOUS
10
5.0590298818897637
20
-4.9318444881889762
11
5.0697494881889762
21
-4.9271882677165353
0
LINE
8
BLACK
6
CONTINUOUS
10
5.0697494881889762
20
-4.9271882677165353
11
5.0810032677165351
21
-4.9240351181102362
0
LINE
8
BLACK
6
CONTINUOUS
10
5.0810032677165351
20
-4.9240351181102362
11
5.0925816141732279
21
-4.9224437007874018
0
LINE
8
BLACK
6
CONTINUOUS
10
5.0925816141732279
20
-4.9224437007874018
11
5.1042687795275592
21
-4.9224437007874018
0
LINE
8
BLACK
6
CONTINUOUS
10
5.1042687795275592
20
-4.9224437007874018
11
5.115847125984252
21
-4.9240351181102362
0
LINE
8
BLACK
6
CONTINUOUS
10
5.0192587795275587
20
-5.0187551968503934
11
5.0214777952755902
21
-5.0294336614173227
0
LINE
8
BLACK
6
CONTINUOUS
10
5.0214777952755902
20
-5.0294336614173227
11
5.0251301968503936
21
-5.0397105118110233
0
LINE
8
BLACK
6
CONTINUOUS
10
5.0251301968503936
20
-5.0397105118110233
11
5.0301479527559056
21
-5.0493943307086617
0
LINE
8
BLACK
6
CONTINUOUS
10
5.0301479527559056
20
-5.0493943307086617
11
5.036437559055118
21
-5.0583046850393698
0
LINE
8
BLACK
6
CONTINUOUS
10
5.036437559055118
20
-5.0583046850393698
11
5.0438818897637798
21
-5.0662756299212601
0
LINE
8
BLACK
6
CONTINUOUS
10
5.0438818897637798
20
-5.0662756299212601
11
5.0523422440944881
21
-5.073158661417323
0
LINE
8
BLACK
6
CONTINUOUS
10
5.0523422440944881
20
-5.073158661417323
11
5.0616610629921261
21
-5.0788255511811027
0
LINE
8
BLACK
6
CONTINUOUS
10
5.0616610629921261
20
-5.0788255511811027
11
5.071664724409449
21
-5.0831707480314963
0
LINE
8
BLACK
6
CONTINUOUS
10
5.071664724409449
20
-5.0831707480314963
11
5.0821668897637791
21
-5.086113307086614
0
LINE
8
BLACK
6
CONTINUOUS
10
5.0821668897637791
20
-5.086113307086614
11
5.0929718897637795
21
-5.08759842519685
0
LINE
8
BLACK
6
CONTINUOUS
10
5.0929718897637795
20
-5.08759842519685
11
5.1038785039370076
21
-5.08759842519685
0
LINE
8
BLACK
6
CONTINUOUS
10
5.1038785039370076
20
-5.08759842519685
11
5.114683503937008
21
-5.086113307086614
0
LINE
8
BLACK
6
CONTINUOUS
10
5.114683503937008
20
-5.086113307086614
11
5.1251856692913389
21
-5.0831707480314963
0
LINE
8
BLACK
6
CONTINUOUS
10
5.1251856692913389
20
-5.0831707480314963
11
5.1351893307086609
21
-5.0788255511811027
0
LINE
8
BLACK
6
CONTINUOUS
10
5.1351893307086609
20
-5.0788255511811027
11
5.144508149606299
21
-5.073158661417323
0
LINE
8
BLACK
6
CONTINUOUS
10
5.144508149606299
20
-5.073158661417323
11
5.1529685039370081
21
-5.0662756299212601
0
LINE
8
BLACK
6
CONTINUOUS
10
5.1529685039370081
20
-5.0662756299212601
11
5.160412834645669
21
-5.0583046850393698
0
LINE
8
BLACK
6
CONTINUOUS
10
5.160412834645669
20
-5.0583046850393698
11
5.1667024409448814
21
-5.0493943307086617
0
LINE
8
BLACK
6
CONTINUOUS
10
5.1667024409448814
20
-5.0493943307086617
11
5.1717201968503934
21
-5.0397105118110233
0
LINE
8
BLACK
6
CONTINUOUS
10
5.1717201968503934
20
-5.0397105118110233
11
5.1753725984251968
21
-5.0294336614173227
0
LINE
8
BLACK
6
CONTINUOUS
10
5.1753725984251968
20
-5.0294336614173227
11
5.1775916141732283
21
-5.0187551968503934
0
LINE
8
BLACK
6
CONTINUOUS
10
5.1775916141732283
20
-5.0187551968503934
11
5.178335905511811
21
-5.0078740157480315
0
LINE
8
BLACK
6
CONTINUOUS
10
5.178335905511811
20
-5.0078740157480315
11
5.1775916141732283
21
-4.9969928346456696
0
LINE
8
BLACK
6
CONTINUOUS
10
5.1775916141732283
20
-4.9969928346456696
11
5.1753725984251968
21
-4.9863143700787402
0
LINE
8
BLACK
6
CONTINUOUS
10
5.1753725984251968
20
-4.9863143700787402
11
5.1717201968503934
21
-4.9760375196850388
0
LINE
8
BLACK
6
CONTINUOUS
10
5.1717201968503934
20
-4.9760375196850388
11
5.1667024409448814
21
-4.9663537007874012
0
LINE
8
BLACK
6
CONTINUOUS
10
5.1667024409448814
20
-4.9663537007874012
11
5.160412834645669
21
-4.9574433464566932
0
LINE
8
BLACK
6
CONTINUOUS
10
5.160412834645669
20
-4.9574433464566932
11
5.1529685039370081
21
-4.9494724015748028
0
LINE
8
BLACK
6
CONTINUOUS
10
5.1529685039370081
20
-4.9494724015748028
11
5.144508149606299
21
-4.94258937007874
0
LINE
8
BLACK
6
CONTINUOUS
10
5.144508149606299
20
-4.94258937007874
11
5.1351893307086609
21
-4.9369224803149603
0
LINE
8
BLACK
6
CONTINUOUS
10
5.1351893307086609
20
-4.9369224803149603
11
5.1251856692913389
21
-4.9325772834645667
0
LINE
8
BLACK
6
CONTINUOUS
10
5.1251856692913389
20
-4.9325772834645667
11
5.114683503937008
21
-4.9296347244094489
0
LINE
8
BLACK
6
CONTINUOUS
10
5.114683503937008
20
-4.9296347244094489
11
5.1038785039370076
21
-4.9281496062992121
0
LINE
8
BLACK
6
CONTINUOUS
10
5.1038785039370076
20
-4.9281496062992121
11
5.0929718897637795
21
-4.9281496062992121
0
LINE
8
BLACK
6
CONTINUOUS
10
5.0929718897637795
20
-4.9281496062992121
11
5.0821668897637791
21
-4.9296347244094489
0
LINE
8
BLACK
6
CONTINUOUS
10
5.0821668897637791
20
-4.9296347244094489
11
5.071664724409449
21
-4.9325772834645667
0
LINE
8
BLACK
6
CONTINUOUS
10
5.071664724409449
20
-4.9325772834645667
11
5.0616610629921261
21
-4.9369224803149603
0
LINE
8
BLACK
6
CONTINUOUS
10
5.0616610629921261
20
-4.9369224803149603
11
5.0523422440944881
21
-4.94258937007874
0
LINE
8
BLACK
6
CONTINUOUS
10
5.0523422440944881
20
-4.94258937007874
11
5.0438818897637798
21
-4.9494724015748028
0
LINE
8
BLACK
6
CONTINUOUS
10
5.0438818897637798
20
-4.9494724015748028
11
5.036437559055118
21
-4.9574433464566932
0
LINE
8
BLACK
6
CONTINUOUS
10
5.036437559055118
20
-4.9574433464566932
11
5.0301479527559056
21
-4.9663537007874012
0
LINE
8
BLACK
6
CONTINUOUS
10
5.0301479527559056
20
-4.9663537007874012
11
5.0251301968503936
21
-4.9760375196850388
0
LINE
8
BLACK
6
CONTINUOUS
10
5.0251301968503936
20
-4.9760375196850388
11
5.0214777952755902
21
-4.9863143700787402
0
LINE
8
BLACK
6
CONTINUOUS
10
5.0214777952755902
20
-4.9863143700787402
11
5.0192587795275587
21
-4.9969928346456696
0
LINE
8
BLACK
6
CONTINUOUS
10
5.0192587795275587
20
-4.9969928346456696
11
5.0185144881889761
21
-5.0078740157480315
0
LINE
8
BLACK
6
CONTINUOUS
10
5.0185144881889761
20
-5.0078740157480315
11
5.0192587795275587
21
-5.0187551968503934
0
LINE
8
BLACK
6
CONTINUOUS
10
6.296949488188976
20
-4.9240351181102362
11
6.3082032677165349
21
-4.9271882677165353
0
LINE
8
BLACK
6
CONTINUOUS
10
6.3082032677165349
20
-4.9271882677165353
11
6.3189228740157475
21
-4.9318444881889762
0
LINE
8
BLACK
6
CONTINUOUS
10
6.3189228740157475
20
-4.9318444881889762
11
6.3289086614173229
21
-4.9379169291338583
0
LINE
8
BLACK
6
CONTINUOUS
10
6.3289086614173229
20
-4.9379169291338583
11
6.3379745275590551
21
-4.9452925984251968
0
LINE
8
BLACK
6
CONTINUOUS
10
6.3379745275590551
20
-4.9452925984251968
11
6.3459516535433069
21
-4.953834015748031
0
LINE
8
BLACK
6
CONTINUOUS
10
6.3459516535433069
20
-4.953834015748031
11
6.3526914173228342
21
-4.9633820866141729
0
LINE
8
BLACK
6
CONTINUOUS
10
6.3526914173228342
20
-4.9633820866141729
11
6.3580683070866142
21
-4.9737589763779528
0
LINE
8
BLACK
6
CONTINUOUS
10
6.3580683070866142
20
-4.9737589763779528
11
6.361982086614173
21
-4.9847713385826768
0
LINE
8
BLACK
6
CONTINUOUS
10
6.361982086614173
20
-4.9847713385826768
11
6.3643599212598421
21
-4.996214094488189
0
LINE
8
BLACK
6
CONTINUOUS
10
6.3643599212598421
20
-4.996214094488189
11
6.3651574803149602
21
-5.0078740157480315
0
LINE
8
BLACK
6
CONTINUOUS
10
6.3651574803149602
20
-5.0078740157480315
11
6.3643599212598421
21
-5.019533937007874
0
LINE
8
BLACK
6
CONTINUOUS
10
6.3643599212598421
20
-5.019533937007874
11
6.361982086614173
21
-5.0309766929133861
0
LINE
8
BLACK
6
CONTINUOUS
10
6.361982086614173
20
-5.0309766929133861
11
6.3580683070866142
21
-5.0419890551181101
0
LINE
8
BLACK
6
CONTINUOUS
10
6.3580683070866142
20
-5.0419890551181101
11
6.3526914173228342
21
-5.0523659448818901
0
LINE
8
BLACK
6
CONTINUOUS
10
6.3526914173228342
20
-5.0523659448818901
11
6.3459516535433069
21
-5.0619140157480311
0
LINE
8
BLACK
6
CONTINUOUS
10
6.3459516535433069
20
-5.0619140157480311
11
6.3379745275590551
21
-5.0704554330708662
0
LINE
8
BLACK
6
CONTINUOUS
10
6.3379745275590551
20
-5.0704554330708662
11
6.3289086614173229
21
-5.0778311023622047
0
LINE
8
BLACK
6
CONTINUOUS
10
6.3289086614173229
20
-5.0778311023622047
11
6.3189228740157475
21
-5.0839035433070867
0
LINE
8
BLACK
6
CONTINUOUS
10
6.3189228740157475
20
-5.0839035433070867
11
6.3082032677165349
21
-5.0885597637795277
0
LINE
8
BLACK
6
CONTINUOUS
10
6.3082032677165349
20
-5.0885597637795277
11
6.296949488188976
21
-5.0917129133858268
0
LINE
8
BLACK
6
CONTINUOUS
10
6.296949488188976
20
-5.0917129133858268
11
6.2853711417322833
21
-5.0933043307086612
0
LINE
8
BLACK
6
CONTINUOUS
10
6.2853711417322833
20
-5.0933043307086612
11
6.2736839763779528
21
-5.0933043307086612
0
LINE
8
BLACK
6
CONTINUOUS
10
6.2736839763779528
20
-5.0933043307086612
11
6.2621056299212601
21
-5.0917129133858268
0
LINE
8
BLACK
6
CONTINUOUS
10
6.2621056299212601
20
-5.0917129133858268
11
6.2508518503937003
21
-5.0885597637795277
0
LINE
8
BLACK
6
CONTINUOUS
10
6.2508518503937003
20
-5.0885597637795277
11
6.2401322440944877
21
-5.0839035433070867
0
LINE
8
BLACK
6
CONTINUOUS
10
6.2401322440944877
20
-5.0839035433070867
11
6.2301464566929132
21
-5.0778311023622047
0
LINE
8
BLACK
6
CONTINUOUS
10
6.2301464566929132
20
-5.0778311023622047
11
6.221080590551181
21
-5.0704554330708662
0
LINE
8
BLACK
6
CONTINUOUS
10
6.221080590551181
20
-5.0704554330708662
11
6.2131034645669292
21
-5.0619140157480311
0
LINE
8
BLACK
6
CONTINUOUS
10
6.2131034645669292
20
-5.0619140157480311
11
6.2063637007874011
21
-5.0523659448818901
0
LINE
8
BLACK
6
CONTINUOUS
10
6.2063637007874011
20
-5.0523659448818901
11
6.2009868110236219
21
-5.0419890551181101
0
LINE
8
BLACK
6
CONTINUOUS
10
6.2009868110236219
20
-5.0419890551181101
11
6.1970730314960631
21
-5.0309766929133861
0
LINE
8
BLACK
6
CONTINUOUS
10
6.1970730314960631
20
-5.0309766929133861
11
6.1946951968503932
21
-5.019533937007874
0
LINE
8
BLACK
6
CONTINUOUS
10
6.1946951968503932
20
-5.019533937007874
11
6.193897637795275
21
-5.0078740157480315
0
LINE
8
BLACK
6
CONTINUOUS
10
6.193897637795275
20
-5.0078740157480315
11
6.1946951968503932
21
-4.996214094488189
0
LINE
8
BLACK
6
CONTINUOUS
10
6.1946951968503932
20
-4.996214094488189
11
6.1970730314960631
21
-4.9847713385826768
0
LINE
8
BLACK
6
CONTINUOUS
10
6.1970730314960631
20
-4.9847713385826768
11
6.2009868110236219
21
-4.9737589763779528
0
LINE
8
BLACK
6
CONTINUOUS
10
6.2009868110236219
20
-4.9737589763779528
11
6.2063637007874011
21
-4.9633820866141729
0
LINE
8
BLACK
6
CONTINUOUS
10
6.2063637007874011
20
-4.9633820866141729
11
6.2131034645669292
21
-4.953834015748031
0
LINE
8
BLACK
6
CONTINUOUS
10
6.2131034645669292
20
-4.953834015748031
11
6.221080590551181
21
-4.9452925984251968
0
LINE
8
BLACK
6
CONTINUOUS
10
6.221080590551181
20
-4.9452925984251968
11
6.2301464566929132
21
-4.9379169291338583
0
LINE
8
BLACK
6
CONTINUOUS
10
6.2301464566929132
20
-4.9379169291338583
11
6.2401322440944877
21
-4.9318444881889762
0
LINE
8
BLACK
6
CONTINUOUS
10
6.2401322440944877
20
-4.9318444881889762
11
6.2508518503937003
21
-4.9271882677165353
0
LINE
8
BLACK
6
CONTINUOUS
10
6.2508518503937003
20
-4.9271882677165353
11
6.2621056299212601
21
-4.9240351181102362
0
LINE
8
BLACK
6
CONTINUOUS
10
6.2621056299212601
20
-4.9240351181102362
11
6.2736839763779528
21
-4.9224437007874018
0
LINE
8
BLACK
6
CONTINUOUS
10
6.2736839763779528
20
-4.9224437007874018
11
6.2853711417322833
21
-4.9224437007874018
0
LINE
8
BLACK
6
CONTINUOUS
10
6.2853711417322833
20
-4.9224437007874018
11
6.296949488188976
21
-4.9240351181102362
0
LINE
8
BLACK
6
CONTINUOUS
10
6.2003611417322837
20
-5.0187551968503934
11
6.2025801574803152
21
-5.0294336614173227
0
LINE
8
BLACK
6
CONTINUOUS
10
6.2025801574803152
20
-5.0294336614173227
11
6.2062325590551177
21
-5.0397105118110233
0
LINE
8
BLACK
6
CONTINUOUS
10
6.2062325590551177
20
-5.0397105118110233
11
6.2112503149606297
21
-5.0493943307086617
0
LINE
8
BLACK
6
CONTINUOUS
10
6.2112503149606297
20
-5.0493943307086617
11
6.2175399212598421
21
-5.0583046850393698
0
LINE
8
BLACK
6
CONTINUOUS
10
6.2175399212598421
20
-5.0583046850393698
11
6.2249842519685039
21
-5.0662756299212601
0
LINE
8
BLACK
6
CONTINUOUS
10
6.2249842519685039
20
-5.0662756299212601
11
6.2334446062992122
21
-5.073158661417323
0
LINE
8
BLACK
6
CONTINUOUS
10
6.2334446062992122
20
-5.073158661417323
11
6.2427634251968502
21
-5.0788255511811027
0
LINE
8
BLACK
6
CONTINUOUS
10
6.2427634251968502
20
-5.0788255511811027
11
6.2527670866141731
21
-5.0831707480314963
0
LINE
8
BLACK
6
CONTINUOUS
10
6.2527670866141731
20
-5.0831707480314963
11
6.263269251968504
21
-5.086113307086614
0
LINE
8
BLACK
6
CONTINUOUS
10
6.263269251968504
20
-5.086113307086614
11
6.2740742519685035
21
-5.08759842519685
0
LINE
8
BLACK
6
CONTINUOUS
10
6.2740742519685035
20
-5.08759842519685
11
6.2849808661417326
21
-5.08759842519685
0
LINE
8
BLACK
6
CONTINUOUS
10
6.2849808661417326
20
-5.08759842519685
11
6.2957858661417321
21
-5.086113307086614
0
LINE
8
BLACK
6
CONTINUOUS
10
6.2957858661417321
20
-5.086113307086614
11
6.306288031496063
21
-5.0831707480314963
0
LINE
8
BLACK
6
CONTINUOUS
10
6.306288031496063
20
-5.0831707480314963
11
6.3162916929133859
21
-5.0788255511811027
0
LINE
8
BLACK
6
CONTINUOUS
10
6.3162916929133859
20
-5.0788255511811027
11
6.3256105118110231
21
-5.073158661417323
0
LINE
8
BLACK
6
CONTINUOUS
10
6.3256105118110231
20
-5.073158661417323
11
6.3340708661417322
21
-5.0662756299212601
0
LINE
8
BLACK
6
CONTINUOUS
10
6.3340708661417322
20
-5.0662756299212601
11
6.341515196850394
21
-5.0583046850393698
0
LINE
8
BLACK
6
CONTINUOUS
10
6.341515196850394
20
-5.0583046850393698
11
6.3478048031496064
21
-5.0493943307086617
0
LINE
8
BLACK
6
CONTINUOUS
10
6.3478048031496064
20
-5.0493943307086617
11
6.3528225590551184
21
-5.0397105118110233
0
LINE
8
BLACK
6
CONTINUOUS
10
6.3528225590551184
20
-5.0397105118110233
11
6.3564749606299209
21
-5.0294336614173227
0
LINE
8
BLACK
6
CONTINUOUS
10
6.3564749606299209
20
-5.0294336614173227
11
6.3586939763779524
21
-5.0187551968503934
0
LINE
8
BLACK
6
CONTINUOUS
10
6.3586939763779524
20
-5.0187551968503934
11
6.3594382677165351
21
-5.0078740157480315
0
LINE
8
BLACK
6
CONTINUOUS
10
6.3594382677165351
20
-5.0078740157480315
11
6.3586939763779524
21
-4.9969928346456696
0
LINE
8
BLACK
6
CONTINUOUS
10
6.3586939763779524
20
-4.9969928346456696
11
6.3564749606299209
21
-4.9863143700787402
0
LINE
8
BLACK
6
CONTINUOUS
10
6.3564749606299209
20
-4.9863143700787402
11
6.3528225590551184
21
-4.9760375196850388
0
LINE
8
BLACK
6
CONTINUOUS
10
6.3528225590551184
20
-4.9760375196850388
11
6.3478048031496064
21
-4.9663537007874012
0
LINE
8
BLACK
6
CONTINUOUS
10
6.3478048031496064
20
-4.9663537007874012
11
6.341515196850394
21
-4.9574433464566932
0
LINE
8
BLACK
6
CONTINUOUS
10
6.341515196850394
20
-4.9574433464566932
11
6.3340708661417322
21
-4.9494724015748028
0
LINE
8
BLACK
6
CONTINUOUS
10
6.3340708661417322
20
-4.9494724015748028
11
6.3256105118110231
21
-4.94258937007874
0
LINE
8
BLACK
6
CONTINUOUS
10
6.3256105118110231
20
-4.94258937007874
11
6.3162916929133859
21
-4.9369224803149603
0
LINE
8
BLACK
6
CONTINUOUS
10
6.3162916929133859
20
-4.9369224803149603
11
6.306288031496063
21
-4.9325772834645667
0
LINE
8
BLACK
6
CONTINUOUS
10
6.306288031496063
20
-4.9325772834645667
11
6.2957858661417321
21
-4.9296347244094489
0
LINE
8
BLACK
6
CONTINUOUS
10
6.2957858661417321
20
-4.9296347244094489
11
6.2849808661417326
21
-4.9281496062992121
0
LINE
8
BLACK
6
CONTINUOUS
10
6.2849808661417326
20
-4.9281496062992121
11
6.2740742519685035
21
-4.9281496062992121
0
LINE
8
BLACK
6
CONTINUOUS
10
6.2740742519685035
20
-4.9281496062992121
11
6.263269251968504
21
-4.9296347244094489
0
LINE
8
BLACK
6
CONTINUOUS
10
6.263269251968504
20
-4.9296347244094489
11
6.2527670866141731
21
-4.9325772834645667
0
LINE
8
BLACK
6
CONTINUOUS
10
6.2527670866141731
20
-4.9325772834645667
11
6.2427634251968502
21
-4.9369224803149603
0
LINE
8
BLACK
6
CONTINUOUS
10
6.2427634251968502
20
-4.9369224803149603
11
6.2334446062992122
21
-4.94258937007874
0
LINE
8
BLACK
6
CONTINUOUS
10
6.2334446062992122
20
-4.94258937007874
11
6.2249842519685039
21
-4.9494724015748028
0
LINE
8
BLACK
6
CONTINUOUS
10
6.2249842519685039
20
-4.9494724015748028
11
6.2175399212598421
21
-4.9574433464566932
0
LINE
8
BLACK
6
CONTINUOUS
10
6.2175399212598421
20
-4.9574433464566932
11
6.2112503149606297
21
-4.9663537007874012
0
LINE
8
BLACK
6
CONTINUOUS
10
6.2112503149606297
20
-4.9663537007874012
11
6.2062325590551177
21
-4.9760375196850388
0
LINE
8
BLACK
6
CONTINUOUS
10
6.2062325590551177
20
-4.9760375196850388
11
6.2025801574803152
21
-4.9863143700787402
0
LINE
8
BLACK
6
CONTINUOUS
10
6.2025801574803152
20
-4.9863143700787402
11
6.2003611417322837
21
-4.9969928346456696
0
LINE
8
BLACK
6
CONTINUOUS
10
6.2003611417322837
20
-4.9969928346456696
11
6.199616850393701
21
-5.0078740157480315
0
LINE
8
BLACK
6
CONTINUOUS
10
6.199616850393701
20
-5.0078740157480315
11
6.2003611417322837
21
-5.0187551968503934
0
LINE
8
BLACK
6
CONTINUOUS
10
2.1630912204724408
20
-2.8767910236220473
11
2.1743449999999998
21
-2.8799441732283464
0
LINE
8
BLACK
6
CONTINUOUS
10
2.1743449999999998
20
-2.8799441732283464
11
2.1850646062992127
21
-2.8846003937007874
0
LINE
8
BLACK
6
CONTINUOUS
10
2.1850646062992127
20
-2.8846003937007874
11
2.1950503937007873
21
-2.8906728346456694
0
LINE
8
BLACK
6
CONTINUOUS
10
2.1950503937007873
20
-2.8906728346456694
11
2.2041162598425195
21
-2.8980485039370079
0
LINE
8
BLACK
6
CONTINUOUS
10
2.2041162598425195
20
-2.8980485039370079
11
2.2120933858267717
21
-2.9065899212598425
0
LINE
8
BLACK
6
CONTINUOUS
10
2.2120933858267717
20
-2.9065899212598425
11
2.218833149606299
21
-2.916137992125984
0
LINE
8
BLACK
6
CONTINUOUS
10
2.218833149606299
20
-2.916137992125984
11
2.2242100393700786
21
-2.9265148818897635
0
LINE
8
BLACK
6
CONTINUOUS
10
2.2242100393700786
20
-2.9265148818897635
11
2.2281238188976378
21
-2.937527244094488
0
LINE
8
BLACK
6
CONTINUOUS
10
2.2281238188976378
20
-2.937527244094488
11
2.2305016535433069
21
-2.9489700000000001
0
LINE
8
BLACK
6
CONTINUOUS
10
2.2305016535433069
20
-2.9489700000000001
11
2.231299212598425
21
-2.9606299212598426
0
LINE
8
BLACK
6
CONTINUOUS
10
2.231299212598425
20
-2.9606299212598426
11
2.2305016535433069
21
-2.9722898425196851
0
LINE
8
BLACK
6
CONTINUOUS
10
2.2305016535433069
20
-2.9722898425196851
11
2.2281238188976378
21
-2.9837325984251968
0
LINE
8
BLACK
6
CONTINUOUS
10
2.2281238188976378
20
-2.9837325984251968
11
2.2242100393700786
21
-2.9947449606299212
0
LINE
8
BLACK
6
CONTINUOUS
10
2.2242100393700786
20
-2.9947449606299212
11
2.218833149606299
21
-3.0051218503937007
0
LINE
8
BLACK
6
CONTINUOUS
10
2.218833149606299
20
-3.0051218503937007
11
2.2120933858267717
21
-3.0146699212598422
0
LINE
8
BLACK
6
CONTINUOUS
10
2.2120933858267717
20
-3.0146699212598422
11
2.2041162598425195
21
-3.0232113385826769
0
LINE
8
BLACK
6
CONTINUOUS
10
2.2041162598425195
20
-3.0232113385826769
11
2.1950503937007873
21
-3.0305870078740158
0
LINE
8
BLACK
6
CONTINUOUS
10
2.1950503937007873
20
-3.0305870078740158
11
2.1850646062992127
21
-3.0366594488188974
0
LINE
8
BLACK
6
CONTINUOUS
10
2.1850646062992127
20
-3.0366594488188974
11
2.1743449999999998
21
-3.0413156692913383
0
LINE
8
BLACK
6
CONTINUOUS
10
2.1743449999999998
20
-3.0413156692913383
11
2.1630912204724408
21
-3.0444688188976379
0
LINE
8
BLACK
6
CONTINUOUS
10
2.1630912204724408
20
-3.0444688188976379
11
2.1515128740157481
21
-3.0460602362204723
0
LINE
8
BLACK
6
CONTINUOUS
10
2.1515128740157481
20
-3.0460602362204723
11
2.1398257086614172
21
-3.0460602362204723
0
LINE
8
BLACK
6
CONTINUOUS
10
2.1398257086614172
20
-3.0460602362204723
11
2.1282473622047244
21
-3.0444688188976379
0
LINE
8
BLACK
6
CONTINUOUS
10
2.1282473622047244
20
-3.0444688188976379
11
2.1169935826771651
21
-3.0413156692913383
0
LINE
8
BLACK
6
CONTINUOUS
10
2.1169935826771651
20
-3.0413156692913383
11
2.1062739763779526
21
-3.0366594488188974
0
LINE
8
BLACK
6
CONTINUOUS
10
2.1062739763779526
20
-3.0366594488188974
11
2.096288188976378
21
-3.0305870078740158
0
LINE
8
BLACK
6
CONTINUOUS
10
2.096288188976378
20
-3.0305870078740158
11
2.0872223228346458
21
-3.0232113385826769
0
LINE
8
BLACK
6
CONTINUOUS
10
2.0872223228346458
20
-3.0232113385826769
11
2.0792451968503936
21
-3.0146699212598422
0
LINE
8
BLACK
6
CONTINUOUS
10
2.0792451968503936
20
-3.0146699212598422
11
2.0725054330708659
21
-3.0051218503937007
0
LINE
8
BLACK
6
CONTINUOUS
10
2.0725054330708659
20
-3.0051218503937007
11
2.0671285433070867
21
-2.9947449606299212
0
LINE
8
BLACK
6
CONTINUOUS
10
2.0671285433070867
20
-2.9947449606299212
11
2.0632147637795275
21
-2.9837325984251968
0
LINE
8
BLACK
6
CONTINUOUS
10
2.0632147637795275
20
-2.9837325984251968
11
2.0608369291338584
21
-2.9722898425196851
0
LINE
8
BLACK
6
CONTINUOUS
10
2.0608369291338584
20
-2.9722898425196851
11
2.0600393700787403
21
-2.9606299212598426
0
LINE
8
BLACK
6
CONTINUOUS
10
2.0600393700787403
20
-2.9606299212598426
11
2.0608369291338584
21
-2.9489700000000001
0
LINE
8
BLACK
6
CONTINUOUS
10
2.0608369291338584
20
-2.9489700000000001
11
2.0632147637795275
21
-2.937527244094488
0
LINE
8
BLACK
6
CONTINUOUS
10
2.0632147637795275
20
-2.937527244094488
11
2.0671285433070867
21
-2.9265148818897635
0
LINE
8
BLACK
6
CONTINUOUS
10
2.0671285433070867
20
-2.9265148818897635
11
2.0725054330708659
21
-2.916137992125984
0
LINE
8
BLACK
6
CONTINUOUS
10
2.0725054330708659
20
-2.916137992125984
11
2.0792451968503936
21
-2.9065899212598425
0
LINE
8
BLACK
6
CONTINUOUS
10
2.0792451968503936
20
-2.9065899212598425
11
2.0872223228346458
21
-2.8980485039370079
0
LINE
8
BLACK
6
CONTINUOUS
10
2.0872223228346458
20
-2.8980485039370079
11
2.096288188976378
21
-2.8906728346456694
0
LINE
8
BLACK
6
CONTINUOUS
10
2.096288188976378
20
-2.8906728346456694
11
2.1062739763779526
21
-2.8846003937007874
0
LINE
8
BLACK
6
CONTINUOUS
10
2.1062739763779526
20
-2.8846003937007874
11
2.1169935826771651
21
-2.8799441732283464
0
LINE
8
BLACK
6
CONTINUOUS
10
2.1169935826771651
20
-2.8799441732283464
11
2.1282473622047244
21
-2.8767910236220473
0
LINE
8
BLACK
6
CONTINUOUS
10
2.1282473622047244
20
-2.8767910236220473
11
2.1398257086614172
21
-2.8751996062992125
0
LINE
8
BLACK
6
CONTINUOUS
10
2.1398257086614172
20
-2.8751996062992125
11
2.1515128740157481
21
-2.8751996062992125
0
LINE
8
BLACK
6
CONTINUOUS
10
2.1515128740157481
20
-2.8751996062992125
11
2.1630912204724408
21
-2.8767910236220473
0
LINE
8
BLACK
6
CONTINUOUS
10
2.0665028740157481
20
-2.9715111023622045
11
2.0687218897637796
21
-2.9821895669291338
0
LINE
8
BLACK
6
CONTINUOUS
10
2.0687218897637796
20
-2.9821895669291338
11
2.0723742913385825
21
-2.9924664173228344
0
LINE
8
BLACK
6
CONTINUOUS
10
2.0723742913385825
20
-2.9924664173228344
11
2.0773920472440945
21
-3.0021502362204724
0
LINE
8
BLACK
6
CONTINUOUS
10
2.0773920472440945
20
-3.0021502362204724
11
2.0836816535433069
21
-3.0110605905511809
0
LINE
8
BLACK
6
CONTINUOUS
10
2.0836816535433069
20
-3.0110605905511809
11
2.0911259842519683
21
-3.0190315354330708
0
LINE
8
BLACK
6
CONTINUOUS
10
2.0911259842519683
20
-3.0190315354330708
11
2.099586338582677
21
-3.0259145669291336
0
LINE
8
BLACK
6
CONTINUOUS
10
2.099586338582677
20
-3.0259145669291336
11
2.108905157480315
21
-3.0315814566929133
0
LINE
8
BLACK
6
CONTINUOUS
10
2.108905157480315
20
-3.0315814566929133
11
2.1189088188976379
21
-3.0359266535433069
0
LINE
8
BLACK
6
CONTINUOUS
10
2.1189088188976379
20
-3.0359266535433069
11
2.1294109842519684
21
-3.0388692125984251
0
LINE
8
BLACK
6
CONTINUOUS
10
2.1294109842519684
20
-3.0388692125984251
11
2.1402159842519684
21
-3.0403543307086616
0
LINE
8
BLACK
6
CONTINUOUS
10
2.1402159842519684
20
-3.0403543307086616
11
2.1511225984251969
21
-3.0403543307086616
0
LINE
8
BLACK
6
CONTINUOUS
10
2.1511225984251969
20
-3.0403543307086616
11
2.1619275984251969
21
-3.0388692125984251
0
LINE
8
BLACK
6
CONTINUOUS
10
2.1619275984251969
20
-3.0388692125984251
11
2.1724297637795273
21
-3.0359266535433069
0
LINE
8
BLACK
6
CONTINUOUS
10
2.1724297637795273
20
-3.0359266535433069
11
2.1824334251968502
21
-3.0315814566929133
0
LINE
8
BLACK
6
CONTINUOUS
10
2.1824334251968502
20
-3.0315814566929133
11
2.1917522440944883
21
-3.0259145669291336
0
LINE
8
BLACK
6
CONTINUOUS
10
2.1917522440944883
20
-3.0259145669291336
11
2.200212598425197
21
-3.0190315354330708
0
LINE
8
BLACK
6
CONTINUOUS
10
2.200212598425197
20
-3.0190315354330708
11
2.2076569291338584
21
-3.0110605905511809
0
LINE
8
BLACK
6
CONTINUOUS
10
2.2076569291338584
20
-3.0110605905511809
11
2.2139465354330707
21
-3.0021502362204724
0
LINE
8
BLACK
6
CONTINUOUS
10
2.2139465354330707
20
-3.0021502362204724
11
2.2189642913385828
21
-2.9924664173228344
0
LINE
8
BLACK
6
CONTINUOUS
10
2.2189642913385828
20
-2.9924664173228344
11
2.2226166929133857
21
-2.9821895669291338
0
LINE
8
BLACK
6
CONTINUOUS
10
2.2226166929133857
20
-2.9821895669291338
11
2.2248357086614172
21
-2.9715111023622045
0
LINE
8
BLACK
6
CONTINUOUS
10
2.2248357086614172
20
-2.9715111023622045
11
2.2255799999999999
21
-2.9606299212598426
0
LINE
8
BLACK
6
CONTINUOUS
10
2.2255799999999999
20
-2.9606299212598426
11
2.2248357086614172
21
-2.9497487401574802
0
LINE
8
BLACK
6
CONTINUOUS
10
2.2248357086614172
20
-2.9497487401574802
11
2.2226166929133857
21
-2.9390702755905509
0
LINE
8
BLACK
6
CONTINUOUS
10
2.2226166929133857
20
-2.9390702755905509
11
2.2189642913385828
21
-2.9287934251968504
0
LINE
8
BLACK
6
CONTINUOUS
10
2.2189642913385828
20
-2.9287934251968504
11
2.2139465354330707
21
-2.9191096062992123
0
LINE
8
BLACK
6
CONTINUOUS
10
2.2139465354330707
20
-2.9191096062992123
11
2.2076569291338584
21
-2.9101992519685038
0
LINE
8
BLACK
6
CONTINUOUS
10
2.2076569291338584
20
-2.9101992519685038
11
2.200212598425197
21
-2.9022283070866139
0
LINE
8
BLACK
6
CONTINUOUS
10
2.200212598425197
20
-2.9022283070866139
11
2.1917522440944883
21
-2.8953452755905511
0
LINE
8
BLACK
6
CONTINUOUS
10
2.1917522440944883
20
-2.8953452755905511
11
2.1824334251968502
21
-2.8896783858267714
0
LINE
8
BLACK
6
CONTINUOUS
10
2.1824334251968502
20
-2.8896783858267714
11
2.1724297637795273
21
-2.8853331889763778
0
LINE
8
BLACK
6
CONTINUOUS
10
2.1724297637795273
20
-2.8853331889763778
11
2.1619275984251969
21
-2.8823906299212596
0
LINE
8
BLACK
6
CONTINUOUS
10
2.1619275984251969
20
-2.8823906299212596
11
2.1511225984251969
21
-2.8809055118110236
0
LINE
8
BLACK
6
CONTINUOUS
10
2.1511225984251969
20
-2.8809055118110236
11
2.1402159842519684
21
-2.8809055118110236
0
LINE
8
BLACK
6
CONTINUOUS
10
2.1402159842519684
20
-2.8809055118110236
11
2.1294109842519684
21
-2.8823906299212596
0
LINE
8
BLACK
6
CONTINUOUS
10
2.1294109842519684
20
-2.8823906299212596
11
2.1189088188976379
21
-2.8853331889763778
0
LINE
8
BLACK
6
CONTINUOUS
10
2.1189088188976379
20
-2.8853331889763778
11
2.108905157480315
21
-2.8896783858267714
0
LINE
8
BLACK
6
CONTINUOUS
10
2.108905157480315
20
-2.8896783858267714
11
2.099586338582677
21
-2.8953452755905511
0
LINE
8
BLACK
6
CONTINUOUS
10
2.099586338582677
20
-2.8953452755905511
11
2.0911259842519683
21
-2.9022283070866139
0
LINE
8
BLACK
6
CONTINUOUS
10
2.0911259842519683
20
-2.9022283070866139
11
2.0836816535433069
21
-2.9101992519685038
0
LINE
8
BLACK
6
CONTINUOUS
10
2.0836816535433069
20
-2.9101992519685038
11
2.0773920472440945
21
-2.9191096062992123
0
LINE
8
BLACK
6
CONTINUOUS
10
2.0773920472440945
20
-2.9191096062992123
11
2.0723742913385825
21
-2.9287934251968504
0
LINE
8
BLACK
6
CONTINUOUS
10
2.0723742913385825
20
-2.9287934251968504
11
2.0687218897637796
21
-2.9390702755905509
0
LINE
8
BLACK
6
CONTINUOUS
10
2.0687218897637796
20
-2.9390702755905509
11
2.0665028740157481
21
-2.9497487401574802
0
LINE
8
BLACK
6
CONTINUOUS
10
2.0665028740157481
20
-2.9497487401574802
11
2.0657585826771654
21
-2.9606299212598426
0
LINE
8
BLACK
6
CONTINUOUS
10
2.0657585826771654
20
-2.9606299212598426
11
2.0665028740157481
21
-2.9715111023622045
0
LINE
8
BLACK
6
CONTINUOUS
10
3.3441935826771654
20
-2.8767910236220473
11
3.3554473622047243
21
-2.8799441732283464
0
LINE
8
BLACK
6
CONTINUOUS
10
3.3554473622047243
20
-2.8799441732283464
11
3.3661669685039368
21
-2.8846003937007874
0
LINE
8
BLACK
6
CONTINUOUS
10
3.3661669685039368
20
-2.8846003937007874
11
3.3761527559055118
21
-2.8906728346456694
0
LINE
8
BLACK
6
CONTINUOUS
10
3.3761527559055118
20
-2.8906728346456694
11
3.385218622047244
21
-2.8980485039370079
0
LINE
8
BLACK
6
CONTINUOUS
10
3.385218622047244
20
-2.8980485039370079
11
3.3931957480314958
21
-2.9065899212598425
0
LINE
8
BLACK
6
CONTINUOUS
10
3.3931957480314958
20
-2.9065899212598425
11
3.3999355118110235
21
-2.916137992125984
0
LINE
8
BLACK
6
CONTINUOUS
10
3.3999355118110235
20
-2.916137992125984
11
3.4053124015748031
21
-2.9265148818897635
0
LINE
8
BLACK
6
CONTINUOUS
10
3.4053124015748031
20
-2.9265148818897635
11
3.4092261811023623
21
-2.937527244094488
0
LINE
8
BLACK
6
CONTINUOUS
10
3.4092261811023623
20
-2.937527244094488
11
3.4116040157480314
21
-2.9489700000000001
0
LINE
8
BLACK
6
CONTINUOUS
10
3.4116040157480314
20
-2.9489700000000001
11
3.4124015748031495
21
-2.9606299212598426
0
LINE
8
BLACK
6
CONTINUOUS
10
3.4124015748031495
20
-2.9606299212598426
11
3.4116040157480314
21
-2.9722898425196851
0
LINE
8
BLACK
6
CONTINUOUS
10
3.4116040157480314
20
-2.9722898425196851
11
3.4092261811023623
21
-2.9837325984251968
0
LINE
8
BLACK
6
CONTINUOUS
10
3.4092261811023623
20
-2.9837325984251968
11
3.4053124015748031
21
-2.9947449606299212
0
LINE
8
BLACK
6
CONTINUOUS
10
3.4053124015748031
20
-2.9947449606299212
11
3.3999355118110235
21
-3.0051218503937007
0
LINE
8
BLACK
6
CONTINUOUS
10
3.3999355118110235
20
-3.0051218503937007
11
3.3931957480314958
21
-3.0146699212598422
0
LINE
8
BLACK
6
CONTINUOUS
10
3.3931957480314958
20
-3.0146699212598422
11
3.385218622047244
21
-3.0232113385826769
0
LINE
8
BLACK
6
CONTINUOUS
10
3.385218622047244
20
-3.0232113385826769
11
3.3761527559055118
21
-3.0305870078740158
0
LINE
8
BLACK
6
CONTINUOUS
10
3.3761527559055118
20
-3.0305870078740158
11
3.3661669685039368
21
-3.0366594488188974
0
LINE
8
BLACK
6
CONTINUOUS
10
3.3661669685039368
20
-3.0366594488188974
11
3.3554473622047243
21
-3.0413156692913383
0
LINE
8
BLACK
6
CONTINUOUS
10
3.3554473622047243
20
-3.0413156692913383
11
3.3441935826771654
21
-3.0444688188976379
0
LINE
8
BLACK
6
CONTINUOUS
10
3.3441935826771654
20
-3.0444688188976379
11
3.3326152362204722
21
-3.0460602362204723
0
LINE
8
BLACK
6
CONTINUOUS
10
3.3326152362204722
20
-3.0460602362204723
11
3.3209280708661417
21
-3.0460602362204723
0
LINE
8
BLACK
6
CONTINUOUS
10
3.3209280708661417
20
-3.0460602362204723
11
3.3093497244094485
21
-3.0444688188976379
0
LINE
8
BLACK
6
CONTINUOUS
10
3.3093497244094485
20
-3.0444688188976379
11
3.2980959448818896
21
-3.0413156692913383
0
LINE
8
BLACK
6
CONTINUOUS
10
3.2980959448818896
20
-3.0413156692913383
11
3.2873763385826771
21
-3.0366594488188974
0
LINE
8
BLACK
6
CONTINUOUS
10
3.2873763385826771
20
-3.0366594488188974
11
3.2773905511811021
21
-3.0305870078740158
0
LINE
8
BLACK
6
CONTINUOUS
10
3.2773905511811021
20
-3.0305870078740158
11
3.2683246850393699
21
-3.0232113385826769
0
LINE
8
BLACK
6
CONTINUOUS
10
3.2683246850393699
20
-3.0232113385826769
11
3.2603475590551181
21
-3.0146699212598422
0
LINE
8
BLACK
6
CONTINUOUS
10
3.2603475590551181
20
-3.0146699212598422
11
3.2536077952755904
21
-3.0051218503937007
0
LINE
8
BLACK
6
CONTINUOUS
10
3.2536077952755904
20
-3.0051218503937007
11
3.2482309055118108
21
-2.9947449606299212
0
LINE
8
BLACK
6
CONTINUOUS
10
3.2482309055118108
20
-2.9947449606299212
11
3.244317125984252
21
-2.9837325984251968
0
LINE
8
BLACK
6
CONTINUOUS
10
3.244317125984252
20
-2.9837325984251968
11
3.2419392913385825
21
-2.9722898425196851
0
LINE
8
BLACK
6
CONTINUOUS
10
3.2419392913385825
20
-2.9722898425196851
11
3.2411417322834644
21
-2.9606299212598426
0
LINE
8
BLACK
6
CONTINUOUS
10
3.2411417322834644
20
-2.9606299212598426
11
3.2419392913385825
21
-2.9489700000000001
0
LINE
8
BLACK
6
CONTINUOUS
10
3.2419392913385825
20
-2.9489700000000001
11
3.244317125984252
21
-2.937527244094488
0
LINE
8
BLACK
6
CONTINUOUS
10
3.244317125984252
20
-2.937527244094488
11
3.2482309055118108
21
-2.9265148818897635
0
LINE
8
BLACK
6
CONTINUOUS
10
3.2482309055118108
20
-2.9265148818897635
11
3.2536077952755904
21
-2.916137992125984
0
LINE
8
BLACK
6
CONTINUOUS
10
3.2536077952755904
20
-2.916137992125984
11
3.2603475590551181
21
-2.9065899212598425
0
LINE
8
BLACK
6
CONTINUOUS
10
3.2603475590551181
20
-2.9065899212598425
11
3.2683246850393699
21
-2.8980485039370079
0
LINE
8
BLACK
6
CONTINUOUS
10
3.2683246850393699
20
-2.8980485039370079
11
3.2773905511811021
21
-2.8906728346456694
0
LINE
8
BLACK
6
CONTINUOUS
10
3.2773905511811021
20
-2.8906728346456694
11
3.2873763385826771
21
-2.8846003937007874
0
LINE
8
BLACK
6
CONTINUOUS
10
3.2873763385826771
20
-2.8846003937007874
11
3.2980959448818896
21
-2.8799441732283464
0
LINE
8
BLACK
6
CONTINUOUS
10
3.2980959448818896
20
-2.8799441732283464
11
3.3093497244094485
21
-2.8767910236220473
0
LINE
8
BLACK
6
CONTINUOUS
10
3.3093497244094485
20
-2.8767910236220473
11
3.3209280708661417
21
-2.8751996062992125
0
LINE
8
BLACK
6
CONTINUOUS
10
3.3209280708661417
20
-2.8751996062992125
11
3.3326152362204722
21
-2.8751996062992125
0
LINE
8
BLACK
6
CONTINUOUS
10
3.3326152362204722
20
-2.8751996062992125
11
3.3441935826771654
21
-2.8767910236220473
0
LINE
8
BLACK
6
CONTINUOUS
10
3.2476052362204721
20
-2.9715111023622045
11
3.2498242519685037
21
-2.9821895669291338
0
LINE
8
BLACK
6
CONTINUOUS
10
3.2498242519685037
20
-2.9821895669291338
11
3.2534766535433071
21
-2.9924664173228344
0
LINE
8
BLACK
6
CONTINUOUS
10
3.2534766535433071
20
-2.9924664173228344
11
3.2584944094488186
21
-3.0021502362204724
0
LINE
8
BLACK
6
CONTINUOUS
10
3.2584944094488186
20
-3.0021502362204724
11
3.2647840157480315
21
-3.0110605905511809
0
LINE
8
BLACK
6
CONTINUOUS
10
3.2647840157480315
20
-3.0110605905511809
11
3.2722283464566928
21
-3.0190315354330708
0
LINE
8
BLACK
6
CONTINUOUS
10
3.2722283464566928
20
-3.0190315354330708
11
3.2806887007874015
21
-3.0259145669291336
0
LINE
8
BLACK
6
CONTINUOUS
10
3.2806887007874015
20
-3.0259145669291336
11
3.2900075196850391
21
-3.0315814566929133
0
LINE
8
BLACK
6
CONTINUOUS
10
3.2900075196850391
20
-3.0315814566929133
11
3.300011181102362
21
-3.0359266535433069
0
LINE
8
BLACK
6
CONTINUOUS
10
3.300011181102362
20
-3.0359266535433069
11
3.3105133464566929
21
-3.0388692125984251
0
LINE
8
BLACK
6
CONTINUOUS
10
3.3105133464566929
20
-3.0388692125984251
11
3.3213183464566929
21
-3.0403543307086616
0
LINE
8
BLACK
6
CONTINUOUS
10
3.3213183464566929
20
-3.0403543307086616
11
3.332224960629921
21
-3.0403543307086616
0
LINE
8
BLACK
6
CONTINUOUS
10
3.332224960629921
20
-3.0403543307086616
11
3.343029960629921
21
-3.0388692125984251
0
LINE
8
BLACK
6
CONTINUOUS
10
3.343029960629921
20
-3.0388692125984251
11
3.3535321259842519
21
-3.0359266535433069
0
LINE
8
BLACK
6
CONTINUOUS
10
3.3535321259842519
20
-3.0359266535433069
11
3.3635357874015748
21
-3.0315814566929133
0
LINE
8
BLACK
6
CONTINUOUS
10
3.3635357874015748
20
-3.0315814566929133
11
3.3728546062992124
21
-3.0259145669291336
0
LINE
8
BLACK
6
CONTINUOUS
10
3.3728546062992124
20
-3.0259145669291336
11
3.3813149606299211
21
-3.0190315354330708
0
LINE
8
BLACK
6
CONTINUOUS
10
3.3813149606299211
20
-3.0190315354330708
11
3.3887592913385824
21
-3.0110605905511809
0
LINE
8
BLACK
6
CONTINUOUS
10
3.3887592913385824
20
-3.0110605905511809
11
3.3950488976377953
21
-3.0021502362204724
0
LINE
8
BLACK
6
CONTINUOUS
10
3.3950488976377953
20
-3.0021502362204724
11
3.4000666535433068
21
-2.9924664173228344
0
LINE
8
BLACK
6
CONTINUOUS
10
3.4000666535433068
20
-2.9924664173228344
11
3.4037190551181102
21
-2.9821895669291338
0
LINE
8
BLACK
6
CONTINUOUS
10
3.4037190551181102
20
-2.9821895669291338
11
3.4059380708661418
21
-2.9715111023622045
0
LINE
8
BLACK
6
CONTINUOUS
10
3.4059380708661418
20
-2.9715111023622045
11
3.4066823622047244
21
-2.9606299212598426
0
LINE
8
BLACK
6
CONTINUOUS
10
3.4066823622047244
20
-2.9606299212598426
11
3.4059380708661418
21
-2.9497487401574802
0
LINE
8
BLACK
6
CONTINUOUS
10
3.4059380708661418
20
-2.9497487401574802
11
3.4037190551181102
21
-2.9390702755905509
0
LINE
8
BLACK
6
CONTINUOUS
10
3.4037190551181102
20
-2.9390702755905509
11
3.4000666535433068
21
-2.9287934251968504
0
LINE
8
BLACK
6
CONTINUOUS
10
3.4000666535433068
20
-2.9287934251968504
11
3.3950488976377953
21
-2.9191096062992123
0
LINE
8
BLACK
6
CONTINUOUS
10
3.3950488976377953
20
-2.9191096062992123
11
3.3887592913385824
21
-2.9101992519685038
0
LINE
8
BLACK
6
CONTINUOUS
10
3.3887592913385824
20
-2.9101992519685038
11
3.3813149606299211
21
-2.9022283070866139
0
LINE
8
BLACK
6
CONTINUOUS
10
3.3813149606299211
20
-2.9022283070866139
11
3.3728546062992124
21
-2.8953452755905511
0
LINE
8
BLACK
6
CONTINUOUS
10
3.3728546062992124
20
-2.8953452755905511
11
3.3635357874015748
21
-2.8896783858267714
0
LINE
8
BLACK
6
CONTINUOUS
10
3.3635357874015748
20
-2.8896783858267714
11
3.3535321259842519
21
-2.8853331889763778
0
LINE
8
BLACK
6
CONTINUOUS
10
3.3535321259842519
20
-2.8853331889763778
11
3.343029960629921
21
-2.8823906299212596
0
LINE
8
BLACK
6
CONTINUOUS
10
3.343029960629921
20
-2.8823906299212596
11
3.332224960629921
21
-2.8809055118110236
0
LINE
8
BLACK
6
CONTINUOUS
10
3.332224960629921
20
-2.8809055118110236
11
3.3213183464566929
21
-2.8809055118110236
0
LINE
8
BLACK
6
CONTINUOUS
10
3.3213183464566929
20
-2.8809055118110236
11
3.3105133464566929
21
-2.8823906299212596
0
LINE
8
BLACK
6
CONTINUOUS
10
3.3105133464566929
20
-2.8823906299212596
11
3.300011181102362
21
-2.8853331889763778
0
LINE
8
BLACK
6
CONTINUOUS
10
3.300011181102362
20
-2.8853331889763778
11
3.2900075196850391
21
-2.8896783858267714
0
LINE
8
BLACK
6
CONTINUOUS
10
3.2900075196850391
20
-2.8896783858267714
11
3.2806887007874015
21
-2.8953452755905511
0
LINE
8
BLACK
6
CONTINUOUS
10
3.2806887007874015
20
-2.8953452755905511
11
3.2722283464566928
21
-2.9022283070866139
0
LINE
8
BLACK
6
CONTINUOUS
10
3.2722283464566928
20
-2.9022283070866139
11
3.2647840157480315
21
-2.9101992519685038
0
LINE
8
BLACK
6
CONTINUOUS
10
3.2647840157480315
20
-2.9101992519685038
11
3.2584944094488186
21
-2.9191096062992123
0
LINE
8
BLACK
6
CONTINUOUS
10
3.2584944094488186
20
-2.9191096062992123
11
3.2534766535433071
21
-2.9287934251968504
0
LINE
8
BLACK
6
CONTINUOUS
10
3.2534766535433071
20
-2.9287934251968504
11
3.2498242519685037
21
-2.9390702755905509
0
LINE
8
BLACK
6
CONTINUOUS
10
3.2498242519685037
20
-2.9390702755905509
11
3.2476052362204721
21
-2.9497487401574802
0
LINE
8
BLACK
6
CONTINUOUS
10
3.2476052362204721
20
-2.9497487401574802
11
3.2468609448818895
21
-2.9606299212598426
0
LINE
8
BLACK
6
CONTINUOUS
10
3.2468609448818895
20
-2.9606299212598426
11
3.2476052362204721
21
-2.9715111023622045
0
LINE
8
BLACK
6
CONTINUOUS
10
5.115847125984252
20
-2.8767910236220473
11
5.1271009055118109
21
-2.8799441732283464
0
LINE
8
BLACK
6
CONTINUOUS
10
5.1271009055118109
20
-2.8799441732283464
11
5.1378205118110234
21
-2.8846003937007874
0
LINE
8
BLACK
6
CONTINUOUS
10
5.1378205118110234
20
-2.8846003937007874
11
5.1478062992125979
21
-2.8906728346456694
0
LINE
8
BLACK
6
CONTINUOUS
10
5.1478062992125979
20
-2.8906728346456694
11
5.156872165354331
21
-2.8980485039370079
0
LINE
8
BLACK
6
CONTINUOUS
10
5.156872165354331
20
-2.8980485039370079
11
5.1648492913385828
21
-2.9065899212598425
0
LINE
8
BLACK
6
CONTINUOUS
10
5.1648492913385828
20
-2.9065899212598425
11
5.1715890551181101
21
-2.916137992125984
0
LINE
8
BLACK
6
CONTINUOUS
10
5.1715890551181101
20
-2.916137992125984
11
5.1769659448818892
21
-2.9265148818897635
0
LINE
8
BLACK
6
CONTINUOUS
10
5.1769659448818892
20
-2.9265148818897635
11
5.1808797244094489
21
-2.937527244094488
0
LINE
8
BLACK
6
CONTINUOUS
10
5.1808797244094489
20
-2.937527244094488
11
5.183257559055118
21
-2.9489700000000001
0
LINE
8
BLACK
6
CONTINUOUS
10
5.183257559055118
20
-2.9489700000000001
11
5.1840551181102361
21
-2.9606299212598426
0
LINE
8
BLACK
6
CONTINUOUS
10
5.1840551181102361
20
-2.9606299212598426
11
5.183257559055118
21
-2.9722898425196851
0
LINE
8
BLACK
6
CONTINUOUS
10
5.183257559055118
20
-2.9722898425196851
11
5.1808797244094489
21
-2.9837325984251968
0
LINE
8
BLACK
6
CONTINUOUS
10
5.1808797244094489
20
-2.9837325984251968
11
5.1769659448818892
21
-2.9947449606299212
0
LINE
8
BLACK
6
CONTINUOUS
10
5.1769659448818892
20
-2.9947449606299212
11
5.1715890551181101
21
-3.0051218503937007
0
LINE
8
BLACK
6
CONTINUOUS
10
5.1715890551181101
20
-3.0051218503937007
11
5.1648492913385828
21
-3.0146699212598422
0
LINE
8
BLACK
6
CONTINUOUS
10
5.1648492913385828
20
-3.0146699212598422
11
5.156872165354331
21
-3.0232113385826769
0
LINE
8
BLACK
6
CONTINUOUS
10
5.156872165354331
20
-3.0232113385826769
11
5.1478062992125979
21
-3.0305870078740158
0
LINE
8
BLACK
6
CONTINUOUS
10
5.1478062992125979
20
-3.0305870078740158
11
5.1378205118110234
21
-3.0366594488188974
0
LINE
8
BLACK
6
CONTINUOUS
10
5.1378205118110234
20
-3.0366594488188974
11
5.1271009055118109
21
-3.0413156692913383
0
LINE
8
BLACK
6
CONTINUOUS
10
5.1271009055118109
20
-3.0413156692913383
11
5.115847125984252
21
-3.0444688188976379
0
LINE
8
BLACK
6
CONTINUOUS
10
5.115847125984252
20
-3.0444688188976379
11
5.1042687795275592
21
-3.0460602362204723
0
LINE
8
BLACK
6
CONTINUOUS
10
5.1042687795275592
20
-3.0460602362204723
11
5.0925816141732279
21
-3.0460602362204723
0
LINE
8
BLACK
6
CONTINUOUS
10
5.0925816141732279
20
-3.0460602362204723
11
5.0810032677165351
21
-3.0444688188976379
0
LINE
8
BLACK
6
CONTINUOUS
10
5.0810032677165351
20
-3.0444688188976379
11
5.0697494881889762
21
-3.0413156692913383
0
LINE
8
BLACK
6
CONTINUOUS
10
5.0697494881889762
20
-3.0413156692913383
11
5.0590298818897637
21
-3.0366594488188974
0
LINE
8
BLACK
6
CONTINUOUS
10
5.0590298818897637
20
-3.0366594488188974
11
5.0490440944881891
21
-3.0305870078740158
0
LINE
8
BLACK
6
CONTINUOUS
10
5.0490440944881891
20
-3.0305870078740158
11
5.0399782283464569
21
-3.0232113385826769
0
LINE
8
BLACK
6
CONTINUOUS
10
5.0399782283464569
20
-3.0232113385826769
11
5.0320011023622042
21
-3.0146699212598422
0
LINE
8
BLACK
6
CONTINUOUS
10
5.0320011023622042
20
-3.0146699212598422
11
5.025261338582677
21
-3.0051218503937007
0
LINE
8
BLACK
6
CONTINUOUS
10
5.025261338582677
20
-3.0051218503937007
11
5.0198844488188978
21
-2.9947449606299212
0
LINE
8
BLACK
6
CONTINUOUS
10
5.0198844488188978
20
-2.9947449606299212
11
5.0159706692913382
21
-2.9837325984251968
0
LINE
8
BLACK
6
CONTINUOUS
10
5.0159706692913382
20
-2.9837325984251968
11
5.0135928346456691
21
-2.9722898425196851
0
LINE
8
BLACK
6
CONTINUOUS
10
5.0135928346456691
20
-2.9722898425196851
11
5.0127952755905509
21
-2.9606299212598426
0
LINE
8
BLACK
6
CONTINUOUS
10
5.0127952755905509
20
-2.9606299212598426
11
5.0135928346456691
21
-2.9489700000000001
0
LINE
8
BLACK
6
CONTINUOUS
10
5.0135928346456691
20
-2.9489700000000001
11
5.0159706692913382
21
-2.937527244094488
0
LINE
8
BLACK
6
CONTINUOUS
10
5.0159706692913382
20
-2.937527244094488
11
5.0198844488188978
21
-2.9265148818897635
0
LINE
8
BLACK
6
CONTINUOUS
10
5.0198844488188978
20
-2.9265148818897635
11
5.025261338582677
21
-2.916137992125984
0
LINE
8
BLACK
6
CONTINUOUS
10
5.025261338582677
20
-2.916137992125984
11
5.0320011023622042
21
-2.9065899212598425
0
LINE
8
BLACK
6
CONTINUOUS
10
5.0320011023622042
20
-2.9065899212598425
11
5.0399782283464569
21
-2.8980485039370079
0
LINE
8
BLACK
6
CONTINUOUS
10
5.0399782283464569
20
-2.8980485039370079
11
5.0490440944881891
21
-2.8906728346456694
0
LINE
8
BLACK
6
CONTINUOUS
10
5.0490440944881891
20
-2.8906728346456694
11
5.0590298818897637
21
-2.8846003937007874
0
LINE
8
BLACK
6
CONTINUOUS
10
5.0590298818897637
20
-2.8846003937007874
11
5.0697494881889762
21
-2.8799441732283464
0
LINE
8
BLACK
6
CONTINUOUS
10
5.0697494881889762
20
-2.8799441732283464
11
5.0810032677165351
21
-2.8767910236220473
0
LINE
8
BLACK
6
CONTINUOUS
10
5.0810032677165351
20
-2.8767910236220473
11
5.0925816141732279
21
-2.8751996062992125
0
LINE
8
BLACK
6
CONTINUOUS
10
5.0925816141732279
20
-2.8751996062992125
11
5.1042687795275592
21
-2.8751996062992125
0
LINE
8
BLACK
6
CONTINUOUS
10
5.1042687795275592
20
-2.8751996062992125
11
5.115847125984252
21
-2.8767910236220473
0
LINE
8
BLACK
6
CONTINUOUS
10
5.0192587795275587
20
-2.9715111023622045
11
5.0214777952755902
21
-2.9821895669291338
0
LINE
8
BLACK
6
CONTINUOUS
10
5.0214777952755902
20
-2.9821895669291338
11
5.0251301968503936
21
-2.9924664173228344
0
LINE
8
BLACK
6
CONTINUOUS
10
5.0251301968503936
20
-2.9924664173228344
11
5.0301479527559056
21
-3.0021502362204724
0
LINE
8
BLACK
6
CONTINUOUS
10
5.0301479527559056
20
-3.0021502362204724
11
5.036437559055118
21
-3.0110605905511809
0
LINE
8
BLACK
6
CONTINUOUS
10
5.036437559055118
20
-3.0110605905511809
11
5.0438818897637798
21
-3.0190315354330708
0
LINE
8
BLACK
6
CONTINUOUS
10
5.0438818897637798
20
-3.0190315354330708
11
5.0523422440944881
21
-3.0259145669291336
0
LINE
8
BLACK
6
CONTINUOUS
10
5.0523422440944881
20
-3.0259145669291336
11
5.0616610629921261
21
-3.0315814566929133
0
LINE
8
BLACK
6
CONTINUOUS
10
5.0616610629921261
20
-3.0315814566929133
11
5.071664724409449
21
-3.0359266535433069
0
LINE
8
BLACK
6
CONTINUOUS
10
5.071664724409449
20
-3.0359266535433069
11
5.0821668897637791
21
-3.0388692125984251
0
LINE
8
BLACK
6
CONTINUOUS
10
5.0821668897637791
20
-3.0388692125984251
11
5.0929718897637795
21
-3.0403543307086616
0
LINE
8
BLACK
6
CONTINUOUS
10
5.0929718897637795
20
-3.0403543307086616
11
5.1038785039370076
21
-3.0403543307086616
0
LINE
8
BLACK
6
CONTINUOUS
10
5.1038785039370076
20
-3.0403543307086616
11
5.114683503937008
21
-3.0388692125984251
0
LINE
8
BLACK
6
CONTINUOUS
10
5.114683503937008
20
-3.0388692125984251
11
5.1251856692913389
21
-3.0359266535433069
0
LINE
8
BLACK
6
CONTINUOUS
10
5.1251856692913389
20
-3.0359266535433069
11
5.1351893307086609
21
-3.0315814566929133
0
LINE
8
BLACK
6
CONTINUOUS
10
5.1351893307086609
20
-3.0315814566929133
11
5.144508149606299
21
-3.0259145669291336
0
LINE
8
BLACK
6
CONTINUOUS
10
5.144508149606299
20
-3.0259145669291336
11
5.1529685039370081
21
-3.0190315354330708
0
LINE
8
BLACK
6
CONTINUOUS
10
5.1529685039370081
20
-3.0190315354330708
11
5.160412834645669
21
-3.0110605905511809
0
LINE
8
BLACK
6
CONTINUOUS
10
5.160412834645669
20
-3.0110605905511809
11
5.1667024409448814
21
-3.0021502362204724
0
LINE
8
BLACK
6
CONTINUOUS
10
5.1667024409448814
20
-3.0021502362204724
11
5.1717201968503934
21
-2.9924664173228344
0
LINE
8
BLACK
6
CONTINUOUS
10
5.1717201968503934
20
-2.9924664173228344
11
5.1753725984251968
21
-2.9821895669291338
0
LINE
8
BLACK
6
CONTINUOUS
10
5.1753725984251968
20
-2.9821895669291338
11
5.1775916141732283
21
-2.9715111023622045
0
LINE
8
BLACK
6
CONTINUOUS
10
5.1775916141732283
20
-2.9715111023622045
11
5.178335905511811
21
-2.9606299212598426
0
LINE
8
BLACK
6
CONTINUOUS
10
5.178335905511811
20
-2.9606299212598426
11
5.1775916141732283
21
-2.9497487401574802
0
LINE
8
BLACK
6
CONTINUOUS
10
5.1775916141732283
20
-2.9497487401574802
11
5.1753725984251968
21
-2.9390702755905509
0
LINE
8
BLACK
6
CONTINUOUS
10
5.1753725984251968
20
-2.9390702755905509
11
5.1717201968503934
21
-2.9287934251968504
0
LINE
8
BLACK
6
CONTINUOUS
10
5.1717201968503934
20
-2.9287934251968504
11
5.1667024409448814
21
-2.9191096062992123
0
LINE
8
BLACK
6
CONTINUOUS
10
5.1667024409448814
20
-2.9191096062992123
11
5.160412834645669
21
-2.9101992519685038
0
LINE
8
BLACK
6
CONTINUOUS
10
5.160412834645669
20
-2.9101992519685038
11
5.1529685039370081
21
-2.9022283070866139
0
LINE
8
BLACK
6
CONTINUOUS
10
5.1529685039370081
20
-2.9022283070866139
11
5.144508149606299
21
-2.8953452755905511
0
LINE
8
BLACK
6
CONTINUOUS
10
5.144508149606299
20
-2.8953452755905511
11
5.1351893307086609
21
-2.8896783858267714
0
LINE
8
BLACK
6
CONTINUOUS
10
5.1351893307086609
20
-2.8896783858267714
11
5.1251856692913389
21
-2.8853331889763778
0
LINE
8
BLACK
6
CONTINUOUS
10
5.1251856692913389
20
-2.8853331889763778
11
5.114683503937008
21
-2.8823906299212596
0
LINE
8
BLACK
6
CONTINUOUS
10
5.114683503937008
20
-2.8823906299212596
11
5.1038785039370076
21
-2.8809055118110236
0
LINE
8
BLACK
6
CONTINUOUS
10
5.1038785039370076
20
-2.8809055118110236
11
5.0929718897637795
21
-2.8809055118110236
0
LINE
8
BLACK
6
CONTINUOUS
10
5.0929718897637795
20
-2.8809055118110236
11
5.0821668897637791
21
-2.8823906299212596
0
LINE
8
BLACK
6
CONTINUOUS
10
5.0821668897637791
20
-2.8823906299212596
11
5.071664724409449
21
-2.8853331889763778
0
LINE
8
BLACK
6
CONTINUOUS
10
5.071664724409449
20
-2.8853331889763778
11
5.0616610629921261
21
-2.8896783858267714
0
LINE
8
BLACK
6
CONTINUOUS
10
5.0616610629921261
20
-2.8896783858267714
11
5.0523422440944881
21
-2.8953452755905511
0
LINE
8
BLACK
6
CONTINUOUS
10
5.0523422440944881
20
-2.8953452755905511
11
5.0438818897637798
21
-2.9022283070866139
0
LINE
8
BLACK
6
CONTINUOUS
10
5.0438818897637798
20
-2.9022283070866139
11
5.036437559055118
21
-2.9101992519685038
0
LINE
8
BLACK
6
CONTINUOUS
10
5.036437559055118
20
-2.9101992519685038
11
5.0301479527559056
21
-2.9191096062992123
0
LINE
8
BLACK
6
CONTINUOUS
10
5.0301479527559056
20
-2.9191096062992123
11
5.0251301968503936
21
-2.9287934251968504
0
LINE
8
BLACK
6
CONTINUOUS
10
5.0251301968503936
20
-2.9287934251968504
11
5.0214777952755902
21
-2.9390702755905509
0
LINE
8
BLACK
6
CONTINUOUS
10
5.0214777952755902
20
-2.9390702755905509
11
5.0192587795275587
21
-2.9497487401574802
0
LINE
8
BLACK
6
CONTINUOUS
10
5.0192587795275587
20
-2.9497487401574802
11
5.0185144881889761
21
-2.9606299212598426
0
LINE
8
BLACK
6
CONTINUOUS
10
5.0185144881889761
20
-2.9606299212598426
11
5.0192587795275587
21
-2.9715111023622045
0
LINE
8
BLACK
6
CONTINUOUS
10
6.296949488188976
20
-2.8767910236220473
11
6.3082032677165349
21
-2.8799441732283464
0
LINE
8
BLACK
6
CONTINUOUS
10
6.3082032677165349
20
-2.8799441732283464
11
6.3189228740157475
21
-2.8846003937007874
0
LINE
8
BLACK
6
CONTINUOUS
10
6.3189228740157475
20
-2.8846003937007874
11
6.3289086614173229
21
-2.8906728346456694
0
LINE
8
BLACK
6
CONTINUOUS
10
6.3289086614173229
20
-2.8906728346456694
11
6.3379745275590551
21
-2.8980485039370079
0
LINE
8
BLACK
6
CONTINUOUS
10
6.3379745275590551
20
-2.8980485039370079
11
6.3459516535433069
21
-2.9065899212598425
0
LINE
8
BLACK
6
CONTINUOUS
10
6.3459516535433069
20
-2.9065899212598425
11
6.3526914173228342
21
-2.916137992125984
0
LINE
8
BLACK
6
CONTINUOUS
10
6.3526914173228342
20
-2.916137992125984
11
6.3580683070866142
21
-2.9265148818897635
0
LINE
8
BLACK
6
CONTINUOUS
10
6.3580683070866142
20
-2.9265148818897635
11
6.361982086614173
21
-2.937527244094488
0
LINE
8
BLACK
6
CONTINUOUS
10
6.361982086614173
20
-2.937527244094488
11
6.3643599212598421
21
-2.9489700000000001
0
LINE
8
BLACK
6
CONTINUOUS
10
6.3643599212598421
20
-2.9489700000000001
11
6.3651574803149602
21
-2.9606299212598426
0
LINE
8
BLACK
6
CONTINUOUS
10
6.3651574803149602
20
-2.9606299212598426
11
6.3643599212598421
21
-2.9722898425196851
0
LINE
8
BLACK
6
CONTINUOUS
10
6.3643599212598421
20
-2.9722898425196851
11
6.361982086614173
21
-2.9837325984251968
0
LINE
8
BLACK
6
CONTINUOUS
10
6.361982086614173
20
-2.9837325984251968
11
6.3580683070866142
21
-2.9947449606299212
0
LINE
8
BLACK
6
CONTINUOUS
10
6.3580683070866142
20
-2.9947449606299212
11
6.3526914173228342
21
-3.0051218503937007
0
LINE
8
BLACK
6
CONTINUOUS
10
6.3526914173228342
20
-3.0051218503937007
11
6.3459516535433069
21
-3.0146699212598422
0
LINE
8
BLACK
6
CONTINUOUS
10
6.3459516535433069
20
-3.0146699212598422
11
6.3379745275590551
21
-3.0232113385826769
0
LINE
8
BLACK
6
CONTINUOUS
10
6.3379745275590551
20
-3.0232113385826769
11
6.3289086614173229
21
-3.0305870078740158
0
LINE
8
BLACK
6
CONTINUOUS
10
6.3289086614173229
20
-3.0305870078740158
11
6.3189228740157475
21
-3.0366594488188974
0
LINE
8
BLACK
6
CONTINUOUS
10
6.3189228740157475
20
-3.0366594488188974
11
6.3082032677165349
21
-3.0413156692913383
0
LINE
8
BLACK
6
CONTINUOUS
10
6.3082032677165349
20
-3.0413156692913383
11
6.296949488188976
21
-3.0444688188976379
0
LINE
8
BLACK
6
CONTINUOUS
10
6.296949488188976
20
-3.0444688188976379
11
6.2853711417322833
21
-3.0460602362204723
0
LINE
8
BLACK
6
CONTINUOUS
10
6.2853711417322833
20
-3.0460602362204723
11
6.2736839763779528
21
-3.0460602362204723
0
LINE
8
BLACK
6
CONTINUOUS
10
6.2736839763779528
20
-3.0460602362204723
11
6.2621056299212601
21
-3.0444688188976379
0
LINE
8
BLACK
6
CONTINUOUS
10
6.2621056299212601
20
-3.0444688188976379
11
6.2508518503937003
21
-3.0413156692913383
0
LINE
8
BLACK
6
CONTINUOUS
10
6.2508518503937003
20
-3.0413156692913383
11
6.2401322440944877
21
-3.0366594488188974
0
LINE
8
BLACK
6
CONTINUOUS
10
6.2401322440944877
20
-3.0366594488188974
11
6.2301464566929132
21
-3.0305870078740158
0
LINE
8
BLACK
6
CONTINUOUS
10
6.2301464566929132
20
-3.0305870078740158
11
6.221080590551181
21
-3.0232113385826769
0
LINE
8
BLACK
6
CONTINUOUS
10
6.221080590551181
20
-3.0232113385826769
11
6.2131034645669292
21
-3.0146699212598422
0
LINE
8
BLACK
6
CONTINUOUS
10
6.2131034645669292
20
-3.0146699212598422
11
6.2063637007874011
21
-3.0051218503937007
0
LINE
8
BLACK
6
CONTINUOUS
10
6.2063637007874011
20
-3.0051218503937007
11
6.2009868110236219
21
-2.9947449606299212
0
LINE
8
BLACK
6
CONTINUOUS
10
6.2009868110236219
20
-2.9947449606299212
11
6.1970730314960631
21
-2.9837325984251968
0
LINE
8
BLACK
6
CONTINUOUS
10
6.1970730314960631
20
-2.9837325984251968
11
6.1946951968503932
21
-2.9722898425196851
0
LINE
8
BLACK
6
CONTINUOUS
10
6.1946951968503932
20
-2.9722898425196851
11
6.193897637795275
21
-2.9606299212598426
0
LINE
8
BLACK
6
CONTINUOUS
10
6.193897637795275
20
-2.9606299212598426
11
6.1946951968503932
21
-2.9489700000000001
0
LINE
8
BLACK
6
CONTINUOUS
10
6.1946951968503932
20
-2.9489700000000001
11
6.1970730314960631
21
-2.937527244094488
0
LINE
8
BLACK
6
CONTINUOUS
10
6.1970730314960631
20
-2.937527244094488
11
6.2009868110236219
21
-2.9265148818897635
0
LINE
8
BLACK
6
CONTINUOUS
10
6.2009868110236219
20
-2.9265148818897635
11
6.2063637007874011
21
-2.916137992125984
0
LINE
8
BLACK
6
CONTINUOUS
10
6.2063637007874011
20
-2.916137992125984
11
6.2131034645669292
21
-2.9065899212598425
0
LINE
8
BLACK
6
CONTINUOUS
10
6.2131034645669292
20
-2.9065899212598425
11
6.221080590551181
21
-2.8980485039370079
0
LINE
8
BLACK
6
CONTINUOUS
10
6.221080590551181
20
-2.8980485039370079
11
6.2301464566929132
21
-2.8906728346456694
0
LINE
8
BLACK
6
CONTINUOUS
10
6.2301464566929132
20
-2.8906728346456694
11
6.2401322440944877
21
-2.8846003937007874
0
LINE
8
BLACK
6
CONTINUOUS
10
6.2401322440944877
20
-2.8846003937007874
11
6.2508518503937003
21
-2.8799441732283464
0
LINE
8
BLACK
6
CONTINUOUS
10
6.2508518503937003
20
-2.8799441732283464
11
6.2621056299212601
21
-2.8767910236220473
0
LINE
8
BLACK
6
CONTINUOUS
10
6.2621056299212601
20
-2.8767910236220473
11
6.2736839763779528
21
-2.8751996062992125
0
LINE
8
BLACK
6
CONTINUOUS
10
6.2736839763779528
20
-2.8751996062992125
11
6.2853711417322833
21
-2.8751996062992125
0
LINE
8
BLACK
6
CONTINUOUS
10
6.2853711417322833
20
-2.8751996062992125
11
6.296949488188976
21
-2.8767910236220473
0
LINE
8
BLACK
6
CONTINUOUS
10
6.2003611417322837
20
-2.9715111023622045
11
6.2025801574803152
21
-2.9821895669291338
0
LINE
8
BLACK
6
CONTINUOUS
10
6.2025801574803152
20
-2.9821895669291338
11
6.2062325590551177
21
-2.9924664173228344
0
LINE
8
BLACK
6
CONTINUOUS
10
6.2062325590551177
20
-2.9924664173228344
11
6.2112503149606297
21
-3.0021502362204724
0
LINE
8
BLACK
6
CONTINUOUS
10
6.2112503149606297
20
-3.0021502362204724
11
6.2175399212598421
21
-3.0110605905511809
0
LINE
8
BLACK
6
CONTINUOUS
10
6.2175399212598421
20
-3.0110605905511809
11
6.2249842519685039
21
-3.0190315354330708
0
LINE
8
BLACK
6
CONTINUOUS
10
6.2249842519685039
20
-3.0190315354330708
11
6.2334446062992122
21
-3.0259145669291336
0
LINE
8
BLACK
6
CONTINUOUS
10
6.2334446062992122
20
-3.0259145669291336
11
6.2427634251968502
21
-3.0315814566929133
0
LINE
8
BLACK
6
CONTINUOUS
10
6.2427634251968502
20
-3.0315814566929133
11
6.2527670866141731
21
-3.0359266535433069
0
LINE
8
BLACK
6
CONTINUOUS
10
6.2527670866141731
20
-3.0359266535433069
11
6.263269251968504
21
-3.0388692125984251
0
LINE
8
BLACK
6
CONTINUOUS
10
6.263269251968504
20
-3.0388692125984251
11
6.2740742519685035
21
-3.0403543307086616
0
LINE
8
BLACK
6
CONTINUOUS
10
6.2740742519685035
20
-3.0403543307086616
11
6.2849808661417326
21
-3.0403543307086616
0
LINE
8
BLACK
6
CONTINUOUS
10
6.2849808661417326
20
-3.0403543307086616
11
6.2957858661417321
21
-3.0388692125984251
0
LINE
8
BLACK
6
CONTINUOUS
10
6.2957858661417321
20
-3.0388692125984251
11
6.306288031496063
21
-3.0359266535433069
0
LINE
8
BLACK
6
CONTINUOUS
10
6.306288031496063
20
-3.0359266535433069
11
6.3162916929133859
21
-3.0315814566929133
0
LINE
8
BLACK
6
CONTINUOUS
10
6.3162916929133859
20
-3.0315814566929133
11
6.3256105118110231
21
-3.0259145669291336
0
LINE
8
BLACK
6
CONTINUOUS
10
6.3256105118110231
20
-3.0259145669291336
11
6.3340708661417322
21
-3.0190315354330708
0
LINE
8
BLACK
6
CONTINUOUS
10
6.3340708661417322
20
-3.0190315354330708
11
6.341515196850394
21
-3.0110605905511809
0
LINE
8
BLACK
6
CONTINUOUS
10
6.341515196850394
20
-3.0110605905511809
11
6.3478048031496064
21
-3.0021502362204724
0
LINE
8
BLACK
6
CONTINUOUS
10
6.3478048031496064
20
-3.0021502362204724
11
6.3528225590551184
21
-2.9924664173228344
0
LINE
8
BLACK
6
CONTINUOUS
10
6.3528225590551184
20
-2.9924664173228344
11
6.3564749606299209
21
-2.9821895669291338
0
LINE
8
BLACK
6
CONTINUOUS
10
6.3564749606299209
20
-2.9821895669291338
11
6.3586939763779524
21
-2.9715111023622045
0
LINE
8
BLACK
6
CONTINUOUS
10
6.3586939763779524
20
-2.9715111023622045
11
6.3594382677165351
21
-2.9606299212598426
0
LINE
8
BLACK
6
CONTINUOUS
10
6.3594382677165351
20
-2.9606299212598426
11
6.3586939763779524
21
-2.9497487401574802
0
LINE
8
BLACK
6
CONTINUOUS
10
6.3586939763779524
20
-2.9497487401574802
11
6.3564749606299209
21
-2.9390702755905509
0
LINE
8
BLACK
6
CONTINUOUS
10
6.3564749606299209
20
-2.9390702755905509
11
6.3528225590551184
21
-2.9287934251968504
0
LINE
8
BLACK
6
CONTINUOUS
10
6.3528225590551184
20
-2.9287934251968504
11
6.3478048031496064
21
-2.9191096062992123
0
LINE
8
BLACK
6
CONTINUOUS
10
6.3478048031496064
20
-2.9191096062992123
11
6.341515196850394
21
-2.9101992519685038
0
LINE
8
BLACK
6
CONTINUOUS
10
6.341515196850394
20
-2.9101992519685038
11
6.3340708661417322
21
-2.9022283070866139
0
LINE
8
BLACK
6
CONTINUOUS
10
6.3340708661417322
20
-2.9022283070866139
11
6.3256105118110231
21
-2.8953452755905511
0
LINE
8
BLACK
6
CONTINUOUS
10
6.3256105118110231
20
-2.8953452755905511
11
6.3162916929133859
21
-2.8896783858267714
0
LINE
8
BLACK
6
CONTINUOUS
10
6.3162916929133859
20
-2.8896783858267714
11
6.306288031496063
21
-2.8853331889763778
0
LINE
8
BLACK
6
CONTINUOUS
10
6.306288031496063
20
-2.8853331889763778
11
6.2957858661417321
21
-2.8823906299212596
0
LINE
8
BLACK
6
CONTINUOUS
10
6.2957858661417321
20
-2.8823906299212596
11
6.2849808661417326
21
-2.8809055118110236
0
LINE
8
BLACK
6
CONTINUOUS
10
6.2849808661417326
20
-2.8809055118110236
11
6.2740742519685035
21
-2.8809055118110236
0
LINE
8
BLACK
6
CONTINUOUS
10
6.2740742519685035
20
-2.8809055118110236
11
6.263269251968504
21
-2.8823906299212596
0
LINE
8
BLACK
6
CONTINUOUS
10
6.263269251968504
20
-2.8823906299212596
11
6.2527670866141731
21
-2.8853331889763778
0
LINE
8
BLACK
6
CONTINUOUS
10
6.2527670866141731
20
-2.8853331889763778
11
6.2427634251968502
21
-2.8896783858267714
0
LINE
8
BLACK
6
CONTINUOUS
10
6.2427634251968502
20
-2.8896783858267714
11
6.2334446062992122
21
-2.8953452755905511
0
LINE
8
BLACK
6
CONTINUOUS
10
6.2334446062992122
20
-2.8953452755905511
11
6.2249842519685039
21
-2.9022283070866139
0
LINE
8
BLACK
6
CONTINUOUS
10
6.2249842519685039
20
-2.9022283070866139
11
6.2175399212598421
21
-2.9101992519685038
0
LINE
8
BLACK
6
CONTINUOUS
10
6.2175399212598421
20
-2.9101992519685038
11
6.2112503149606297
21
-2.9191096062992123
0
LINE
8
BLACK
6
CONTINUOUS
10
6.2112503149606297
20
-2.9191096062992123
11
6.2062325590551177
21
-2.9287934251968504
0
LINE
8
BLACK
6
CONTINUOUS
10
6.2062325590551177
20
-2.9287934251968504
11
6.2025801574803152
21
-2.9390702755905509
0
LINE
8
BLACK
6
CONTINUOUS
10
6.2025801574803152
20
-2.9390702755905509
11
6.2003611417322837
21
-2.9497487401574802
0
LINE
8
BLACK
6
CONTINUOUS
10
6.2003611417322837
20
-2.9497487401574802
11
6.199616850393701
21
-2.9606299212598426
0
LINE
8
BLACK
6
CONTINUOUS
10
6.199616850393701
20
-2.9606299212598426
11
6.2003611417322837
21
-2.9715111023622045
0
CIRCLE
8
BLACK
10
2.1456692913385824
20
-2.9606299212598426
40
0.0413385826771654
0
CIRCLE
8
BLACK
10
2.1456692913385824
20
-5.0078740157480315
40
0.0413385826771654
0
CIRCLE
8
BLACK
10
3.326771653543307
20
-2.9606299212598426
40
0.0413385826771654
0
CIRCLE
8
BLACK
10
3.326771653543307
20
-5.0078740157480315
40
0.0413385826771654
0
CIRCLE
8
BLACK
10
2.8853543307086613
20
-2.9871181102362203
40
0.0196850393700787
0
CIRCLE
8
BLACK
10
2.7853543307086612
20
-2.9871181102362203
40
0.0196850393700787
0
CIRCLE
8
BLACK
10
2.6853543307086611
20
-2.9871181102362203
40
0.0196850393700787
0
CIRCLE
8
BLACK
10
2.5853543307086615
20
-2.9871181102362203
40
0.0196850393700787
0
CIRCLE
8
BLACK
10
5.0984251968503935
20
-2.9606299212598426
40
0.0413385826771654
0
CIRCLE
8
BLACK
10
5.0984251968503935
20
-5.0078740157480315
40
0.0413385826771654
0
CIRCLE
8
BLACK
10
6.2795275590551176
20
-2.9606299212598426
40
0.0413385826771654
0
CIRCLE
8
BLACK
10
6.2795275590551176
20
-5.0078740157480315
40
0.0413385826771654
0
CIRCLE
8
BLACK
10
5.838110236220472
20
-2.9871181102362203
40
0.0196850393700787
0
CIRCLE
8
BLACK
10
5.7381102362204723
20
-2.9871181102362203
40
0.0196850393700787
0
CIRCLE
8
BLACK
10
5.6381102362204727
20
-2.9871181102362203
40
0.0196850393700787
0
CIRCLE
8
BLACK
10
5.5381102362204722
20
-2.9871181102362203
40
0.0196850393700787
  0
ENDSEC
  0
EOF
