  0
SECTION
  2
HEADER
  9
$ANGBASE
  50
0.0
  9
$ANGDIR
  70
1
  9
$MEASUREMENT
  70
0
  0
ENDSEC
  0
SECTION
  2
TABLES
  0
TABLE
  2
LTYPE
  70
4
  0
LTYPE
  5
40F
  2
CONTINUOUS
  70
0
  3
Solid line
  72
65
  73
0
  40
0.0
  0
LTYPE
  5
410
  2
DASHDOT
 70
0
  3
Dash Dot ____ _ ____ _
 72
65
 73
4
 40
2.0
 49
1.25
 49
-0.25
 49
0.25
 49
-0.25
  0
LTYPE
  5
411
  2
DASHED
 70
0
  3
Dashed __ __ __ __ __
 72
65
 73
2
 40
0.75
 49
0.5
 49
-0.25
  0
LTYPE
  5
43B
  2
DOTTED
 70
0
  3
Dotted .  .  .  .
 72
65
 73
2
 40
0.2
 49
0.0
 49
-0.2
  0
ENDTAB
  0
TABLE
  2
STYLE
  70
4
  0
STYLE
  2
KICAD
  70
0
  40
0
  41
1
  42
1
  50
0
  71
0
  3
isocp.shx
  0
STYLE
  2
KICADB
  70
0
  40
0
  41
1
  42
1
  50
0
  71
0
  3
isocp.shx
  0
STYLE
  2
KICADI
  70
0
  40
0
  41
1
  42
1
  50
15
  71
0
  3
isocp.shx
  0
STYLE
  2
KICADBI
  70
0
  40
0
  41
1
  42
1
  50
15
  71
0
  3
isocp.shx
  0
ENDTAB
  0
TABLE
  2
LAYER
  70
1
  0
LAYER
  2
BLACK
  70
0
  62
7
  6
CONTINUOUS
  0
ENDTAB
  0
ENDSEC
  0
SECTION
  2
ENTITIES
0
LINE
8
BLACK
6
CONTINUOUS
10
1.7492649212598426
20
-5.1362748818897632
11
1.7603484645669292
21
-5.1388046456692908
0
LINE
8
BLACK
6
CONTINUOUS
10
1.7603484645669292
20
-5.1388046456692908
11
1.7710791338582677
21
-5.1425594488188979
0
LINE
8
BLACK
6
CONTINUOUS
10
1.7710791338582677
20
-5.1425594488188979
11
1.7813218897637795
21
-5.1474921259842521
0
LINE
8
BLACK
6
CONTINUOUS
10
1.7813218897637795
20
-5.1474921259842521
11
1.7909479921259841
21
-5.1535405905511809
0
LINE
8
BLACK
6
CONTINUOUS
10
1.7909479921259841
20
-5.1535405905511809
11
1.7998362992125985
21
-5.1606287795275589
0
LINE
8
BLACK
6
CONTINUOUS
10
1.7998362992125985
20
-5.1606287795275589
11
1.8078751574803149
21
-5.1686676377952754
0
LINE
8
BLACK
6
CONTINUOUS
10
1.8078751574803149
20
-5.1686676377952754
11
1.8149633464566928
21
-5.17755594488189
0
LINE
8
BLACK
6
CONTINUOUS
10
1.8149633464566928
20
-5.17755594488189
11
1.821011811023622
21
-5.1871820472440939
0
LINE
8
BLACK
6
CONTINUOUS
10
1.821011811023622
20
-5.1871820472440939
11
1.8259444881889764
21
-5.1974248031496062
0
LINE
8
BLACK
6
CONTINUOUS
10
1.8259444881889764
20
-5.1974248031496062
11
1.8296992913385826
21
-5.2081554724409447
0
LINE
8
BLACK
6
CONTINUOUS
10
1.8296992913385826
20
-5.2081554724409447
11
1.8322290551181102
21
-5.2192390157480313
0
LINE
8
BLACK
6
CONTINUOUS
10
1.8322290551181102
20
-5.2192390157480313
11
1.8335019291338581
21
-5.2305361811023623
0
LINE
8
BLACK
6
CONTINUOUS
10
1.8335019291338581
20
-5.2305361811023623
11
1.8335019291338581
21
-5.2419047637795275
0
LINE
8
BLACK
6
CONTINUOUS
10
1.8335019291338581
20
-5.2419047637795275
11
1.8322290551181102
21
-5.2532019291338585
0
LINE
8
BLACK
6
CONTINUOUS
10
1.8322290551181102
20
-5.2532019291338585
11
1.8296992913385826
21
-5.2642854724409451
0
LINE
8
BLACK
6
CONTINUOUS
10
1.8296992913385826
20
-5.2642854724409451
11
1.8259444881889764
21
-5.2750161417322836
0
LINE
8
BLACK
6
CONTINUOUS
10
1.8259444881889764
20
-5.2750161417322836
11
1.821011811023622
21
-5.285258897637795
0
LINE
8
BLACK
6
CONTINUOUS
10
1.821011811023622
20
-5.285258897637795
11
1.8149633464566928
21
-5.2948849999999998
0
LINE
8
BLACK
6
CONTINUOUS
10
1.8149633464566928
20
-5.2948849999999998
11
1.8078751574803149
21
-5.3037733070866144
0
LINE
8
BLACK
6
CONTINUOUS
10
1.8078751574803149
20
-5.3037733070866144
11
1.7998362992125985
21
-5.3118121653543309
0
LINE
8
BLACK
6
CONTINUOUS
10
1.7998362992125985
20
-5.3118121653543309
11
1.7909479921259841
21
-5.318900354330709
0
LINE
8
BLACK
6
CONTINUOUS
10
1.7909479921259841
20
-5.318900354330709
11
1.7813218897637795
21
-5.3249488188976377
0
LINE
8
BLACK
6
CONTINUOUS
10
1.7813218897637795
20
-5.3249488188976377
11
1.7710791338582677
21
-5.3298814960629919
0
LINE
8
BLACK
6
CONTINUOUS
10
1.7710791338582677
20
-5.3298814960629919
11
1.7603484645669292
21
-5.3336362992125981
0
LINE
8
BLACK
6
CONTINUOUS
10
1.7603484645669292
20
-5.3336362992125981
11
1.7492649212598426
21
-5.3361660629921257
0
LINE
8
BLACK
6
CONTINUOUS
10
1.7492649212598426
20
-5.3361660629921257
11
1.7379677559055118
21
-5.3374389370078736
0
LINE
8
BLACK
6
CONTINUOUS
10
1.7379677559055118
20
-5.3374389370078736
11
1.7265991732283463
21
-5.3374389370078736
0
LINE
8
BLACK
6
CONTINUOUS
10
1.7265991732283463
20
-5.3374389370078736
11
1.7153020078740158
21
-5.3361660629921257
0
LINE
8
BLACK
6
CONTINUOUS
10
1.7153020078740158
20
-5.3361660629921257
11
1.7042184645669292
21
-5.3336362992125981
0
LINE
8
BLACK
6
CONTINUOUS
10
1.7042184645669292
20
-5.3336362992125981
11
1.6934877952755905
21
-5.3298814960629919
0
LINE
8
BLACK
6
CONTINUOUS
10
1.6934877952755905
20
-5.3298814960629919
11
1.6832450393700786
21
-5.3249488188976377
0
LINE
8
BLACK
6
CONTINUOUS
10
1.6832450393700786
20
-5.3249488188976377
11
1.673618937007874
21
-5.318900354330709
0
LINE
8
BLACK
6
CONTINUOUS
10
1.673618937007874
20
-5.318900354330709
11
1.6647306299212599
21
-5.3118121653543309
0
LINE
8
BLACK
6
CONTINUOUS
10
1.6647306299212599
20
-5.3118121653543309
11
1.6566917716535432
21
-5.3037733070866144
0
LINE
8
BLACK
6
CONTINUOUS
10
1.6566917716535432
20
-5.3037733070866144
11
1.6496035826771653
21
-5.2948849999999998
0
LINE
8
BLACK
6
CONTINUOUS
10
1.6496035826771653
20
-5.2948849999999998
11
1.6435551181102361
21
-5.285258897637795
0
LINE
8
BLACK
6
CONTINUOUS
10
1.6435551181102361
20
-5.285258897637795
11
1.6386224409448817
21
-5.2750161417322836
0
LINE
8
BLACK
6
CONTINUOUS
10
1.6386224409448817
20
-5.2750161417322836
11
1.6348676377952756
21
-5.2642854724409451
0
LINE
8
BLACK
6
CONTINUOUS
10
1.6348676377952756
20
-5.2642854724409451
11
1.6323378740157479
21
-5.2532019291338585
0
LINE
8
BLACK
6
CONTINUOUS
10
1.6323378740157479
20
-5.2532019291338585
11
1.631065
21
-5.2419047637795275
0
LINE
8
BLACK
6
CONTINUOUS
10
1.631065
20
-5.2419047637795275
11
1.631065
21
-5.230858858267716
0
LINE
8
BLACK
6
CONTINUOUS
10
1.631065
20
-5.230858858267716
11
1.631065
21
-5.2305361811023623
0
LINE
8
BLACK
6
CONTINUOUS
10
1.631065
20
-5.2305361811023623
11
1.6323378740157479
21
-5.2192390157480313
0
LINE
8
BLACK
6
CONTINUOUS
10
1.6323378740157479
20
-5.2192390157480313
11
1.6348676377952756
21
-5.2081554724409447
0
LINE
8
BLACK
6
CONTINUOUS
10
1.6348676377952756
20
-5.2081554724409447
11
1.6386224409448817
21
-5.1974248031496062
0
LINE
8
BLACK
6
CONTINUOUS
10
1.6386224409448817
20
-5.1974248031496062
11
1.6435551181102361
21
-5.1871820472440939
0
LINE
8
BLACK
6
CONTINUOUS
10
1.6435551181102361
20
-5.1871820472440939
11
1.6496035826771653
21
-5.17755594488189
0
LINE
8
BLACK
6
CONTINUOUS
10
1.6496035826771653
20
-5.17755594488189
11
1.6566917716535432
21
-5.1686676377952754
0
LINE
8
BLACK
6
CONTINUOUS
10
1.6566917716535432
20
-5.1686676377952754
11
1.6647306299212599
21
-5.1606287795275589
0
LINE
8
BLACK
6
CONTINUOUS
10
1.6647306299212599
20
-5.1606287795275589
11
1.673618937007874
21
-5.1535405905511809
0
LINE
8
BLACK
6
CONTINUOUS
10
1.673618937007874
20
-5.1535405905511809
11
1.6832450393700786
21
-5.1474921259842521
0
LINE
8
BLACK
6
CONTINUOUS
10
1.6832450393700786
20
-5.1474921259842521
11
1.6934877952755905
21
-5.1425594488188979
0
LINE
8
BLACK
6
CONTINUOUS
10
1.6934877952755905
20
-5.1425594488188979
11
1.7042184645669292
21
-5.1388046456692908
0
LINE
8
BLACK
6
CONTINUOUS
10
1.7042184645669292
20
-5.1388046456692908
11
1.7153020078740158
21
-5.1362748818897632
0
LINE
8
BLACK
6
CONTINUOUS
10
1.7153020078740158
20
-5.1362748818897632
11
1.7265991732283463
21
-5.1350020078740153
0
LINE
8
BLACK
6
CONTINUOUS
10
1.7265991732283463
20
-5.1350020078740153
11
1.7379677559055118
21
-5.1350020078740153
0
LINE
8
BLACK
6
CONTINUOUS
10
1.7379677559055118
20
-5.1350020078740153
11
1.7492649212598426
21
-5.1362748818897632
0
LINE
8
BLACK
6
CONTINUOUS
10
1.6368110236220472
20
-5.2415820866141729
11
1.6380116535433071
21
-5.2522379133858266
0
LINE
8
BLACK
6
CONTINUOUS
10
1.6380116535433071
20
-5.2522379133858266
11
1.6403977952755906
21
-5.2626922834645669
0
LINE
8
BLACK
6
CONTINUOUS
10
1.6403977952755906
20
-5.2626922834645669
11
1.6439394488188976
21
-5.2728137795275591
0
LINE
8
BLACK
6
CONTINUOUS
10
1.6439394488188976
20
-5.2728137795275591
11
1.6485920866141732
21
-5.2824750787401573
0
LINE
8
BLACK
6
CONTINUOUS
10
1.6485920866141732
20
-5.2824750787401573
11
1.6542972047244093
21
-5.2915546850393698
0
LINE
8
BLACK
6
CONTINUOUS
10
1.6542972047244093
20
-5.2915546850393698
11
1.660983031496063
21
-5.299938464566929
0
LINE
8
BLACK
6
CONTINUOUS
10
1.660983031496063
20
-5.299938464566929
11
1.6685654724409449
21
-5.3075209055118107
0
LINE
8
BLACK
6
CONTINUOUS
10
1.6685654724409449
20
-5.3075209055118107
11
1.6769492519685039
21
-5.3142067322834645
0
LINE
8
BLACK
6
CONTINUOUS
10
1.6769492519685039
20
-5.3142067322834645
11
1.6860288582677165
21
-5.3199118503937006
0
LINE
8
BLACK
6
CONTINUOUS
10
1.6860288582677165
20
-5.3199118503937006
11
1.6956901574803149
21
-5.324564488188976
0
LINE
8
BLACK
6
CONTINUOUS
10
1.6956901574803149
20
-5.324564488188976
11
1.705811653543307
21
-5.3281061417322837
0
LINE
8
BLACK
6
CONTINUOUS
10
1.705811653543307
20
-5.3281061417322837
11
1.7162660236220473
21
-5.3304922834645669
0
LINE
8
BLACK
6
CONTINUOUS
10
1.7162660236220473
20
-5.3304922834645669
11
1.7269218503937007
21
-5.3316929133858268
0
LINE
8
BLACK
6
CONTINUOUS
10
1.7269218503937007
20
-5.3316929133858268
11
1.7376450787401574
21
-5.3316929133858268
0
LINE
8
BLACK
6
CONTINUOUS
10
1.7376450787401574
20
-5.3316929133858268
11
1.7483009055118111
21
-5.3304922834645669
0
LINE
8
BLACK
6
CONTINUOUS
10
1.7483009055118111
20
-5.3304922834645669
11
1.7587552755905511
21
-5.3281061417322837
0
LINE
8
BLACK
6
CONTINUOUS
10
1.7587552755905511
20
-5.3281061417322837
11
1.7688767716535432
21
-5.324564488188976
0
LINE
8
BLACK
6
CONTINUOUS
10
1.7688767716535432
20
-5.324564488188976
11
1.7785380708661418
21
-5.3199118503937006
0
LINE
8
BLACK
6
CONTINUOUS
10
1.7785380708661418
20
-5.3199118503937006
11
1.7876176771653542
21
-5.3142067322834645
0
LINE
8
BLACK
6
CONTINUOUS
10
1.7876176771653542
20
-5.3142067322834645
11
1.7960014566929134
21
-5.3075209055118107
0
LINE
8
BLACK
6
CONTINUOUS
10
1.7960014566929134
20
-5.3075209055118107
11
1.8035838976377951
21
-5.299938464566929
0
LINE
8
BLACK
6
CONTINUOUS
10
1.8035838976377951
20
-5.299938464566929
11
1.8102697244094488
21
-5.2915546850393698
0
LINE
8
BLACK
6
CONTINUOUS
10
1.8102697244094488
20
-5.2915546850393698
11
1.8159748425196851
21
-5.2824750787401573
0
LINE
8
BLACK
6
CONTINUOUS
10
1.8159748425196851
20
-5.2824750787401573
11
1.8206274803149607
21
-5.2728137795275591
0
LINE
8
BLACK
6
CONTINUOUS
10
1.8206274803149607
20
-5.2728137795275591
11
1.8241691338582677
21
-5.2626922834645669
0
LINE
8
BLACK
6
CONTINUOUS
10
1.8241691338582677
20
-5.2626922834645669
11
1.8265552755905512
21
-5.2522379133858266
0
LINE
8
BLACK
6
CONTINUOUS
10
1.8265552755905512
20
-5.2522379133858266
11
1.8277559055118109
21
-5.2415820866141729
0
LINE
8
BLACK
6
CONTINUOUS
10
1.8277559055118109
20
-5.2415820866141729
11
1.8277559055118109
21
-5.230858858267716
0
LINE
8
BLACK
6
CONTINUOUS
10
1.8277559055118109
20
-5.230858858267716
11
1.8265552755905512
21
-5.2202030314960632
0
LINE
8
BLACK
6
CONTINUOUS
10
1.8265552755905512
20
-5.2202030314960632
11
1.8241691338582677
21
-5.209748661417323
0
LINE
8
BLACK
6
CONTINUOUS
10
1.8241691338582677
20
-5.209748661417323
11
1.8206274803149607
21
-5.1996271653543307
0
LINE
8
BLACK
6
CONTINUOUS
10
1.8206274803149607
20
-5.1996271653543307
11
1.8159748425196851
21
-5.1899658661417325
0
LINE
8
BLACK
6
CONTINUOUS
10
1.8159748425196851
20
-5.1899658661417325
11
1.8102697244094488
21
-5.1808862598425192
0
LINE
8
BLACK
6
CONTINUOUS
10
1.8102697244094488
20
-5.1808862598425192
11
1.8035838976377951
21
-5.1725024803149608
0
LINE
8
BLACK
6
CONTINUOUS
10
1.8035838976377951
20
-5.1725024803149608
11
1.7960014566929134
21
-5.1649200393700783
0
LINE
8
BLACK
6
CONTINUOUS
10
1.7960014566929134
20
-5.1649200393700783
11
1.7876176771653542
21
-5.1582342125984253
0
LINE
8
BLACK
6
CONTINUOUS
10
1.7876176771653542
20
-5.1582342125984253
11
1.7785380708661418
21
-5.1525290944881892
0
LINE
8
BLACK
6
CONTINUOUS
10
1.7785380708661418
20
-5.1525290944881892
11
1.7688767716535432
21
-5.1478764566929129
0
LINE
8
BLACK
6
CONTINUOUS
10
1.7688767716535432
20
-5.1478764566929129
11
1.7587552755905511
21
-5.1443348031496061
0
LINE
8
BLACK
6
CONTINUOUS
10
1.7587552755905511
20
-5.1443348031496061
11
1.7483009055118111
21
-5.1419486614173229
0
LINE
8
BLACK
6
CONTINUOUS
10
1.7483009055118111
20
-5.1419486614173229
11
1.7376450787401574
21
-5.140748031496063
0
LINE
8
BLACK
6
CONTINUOUS
10
1.7376450787401574
20
-5.140748031496063
11
1.7269218503937007
21
-5.140748031496063
0
LINE
8
BLACK
6
CONTINUOUS
10
1.7269218503937007
20
-5.140748031496063
11
1.7162660236220473
21
-5.1419486614173229
0
LINE
8
BLACK
6
CONTINUOUS
10
1.7162660236220473
20
-5.1419486614173229
11
1.705811653543307
21
-5.1443348031496061
0
LINE
8
BLACK
6
CONTINUOUS
10
1.705811653543307
20
-5.1443348031496061
11
1.6956901574803149
21
-5.1478764566929129
0
LINE
8
BLACK
6
CONTINUOUS
10
1.6956901574803149
20
-5.1478764566929129
11
1.6860288582677165
21
-5.1525290944881892
0
LINE
8
BLACK
6
CONTINUOUS
10
1.6860288582677165
20
-5.1525290944881892
11
1.6769492519685039
21
-5.1582342125984253
0
LINE
8
BLACK
6
CONTINUOUS
10
1.6769492519685039
20
-5.1582342125984253
11
1.6685654724409449
21
-5.1649200393700783
0
LINE
8
BLACK
6
CONTINUOUS
10
1.6685654724409449
20
-5.1649200393700783
11
1.660983031496063
21
-5.1725024803149608
0
LINE
8
BLACK
6
CONTINUOUS
10
1.660983031496063
20
-5.1725024803149608
11
1.6542972047244093
21
-5.1808862598425192
0
LINE
8
BLACK
6
CONTINUOUS
10
1.6542972047244093
20
-5.1808862598425192
11
1.6485920866141732
21
-5.1899658661417325
0
LINE
8
BLACK
6
CONTINUOUS
10
1.6485920866141732
20
-5.1899658661417325
11
1.6439394488188976
21
-5.1996271653543307
0
LINE
8
BLACK
6
CONTINUOUS
10
1.6439394488188976
20
-5.1996271653543307
11
1.6403977952755906
21
-5.209748661417323
0
LINE
8
BLACK
6
CONTINUOUS
10
1.6403977952755906
20
-5.209748661417323
11
1.6380116535433071
21
-5.2202030314960632
0
LINE
8
BLACK
6
CONTINUOUS
10
1.6380116535433071
20
-5.2202030314960632
11
1.6368110236220472
21
-5.230858858267716
0
LINE
8
BLACK
6
CONTINUOUS
10
1.6368110236220472
20
-5.230858858267716
11
1.6368110236220472
21
-5.2415820866141729
0
LINE
8
BLACK
6
CONTINUOUS
10
6.7098948425196845
20
-5.1362748818897632
11
6.7209783858267711
21
-5.1388046456692908
0
LINE
8
BLACK
6
CONTINUOUS
10
6.7209783858267711
20
-5.1388046456692908
11
6.7317090551181105
21
-5.1425594488188979
0
LINE
8
BLACK
6
CONTINUOUS
10
6.7317090551181105
20
-5.1425594488188979
11
6.7419518110236218
21
-5.1474921259842521
0
LINE
8
BLACK
6
CONTINUOUS
10
6.7419518110236218
20
-5.1474921259842521
11
6.7515779133858267
21
-5.1535405905511809
0
LINE
8
BLACK
6
CONTINUOUS
10
6.7515779133858267
20
-5.1535405905511809
11
6.7604662204724404
21
-5.1606287795275589
0
LINE
8
BLACK
6
CONTINUOUS
10
6.7604662204724404
20
-5.1606287795275589
11
6.7685050787401577
21
-5.1686676377952754
0
LINE
8
BLACK
6
CONTINUOUS
10
6.7685050787401577
20
-5.1686676377952754
11
6.7755932677165349
21
-5.17755594488189
0
LINE
8
BLACK
6
CONTINUOUS
10
6.7755932677165349
20
-5.17755594488189
11
6.7816417322834646
21
-5.1871820472440939
0
LINE
8
BLACK
6
CONTINUOUS
10
6.7816417322834646
20
-5.1871820472440939
11
6.7865744094488187
21
-5.1974248031496062
0
LINE
8
BLACK
6
CONTINUOUS
10
6.7865744094488187
20
-5.1974248031496062
11
6.7903292125984249
21
-5.2081554724409447
0
LINE
8
BLACK
6
CONTINUOUS
10
6.7903292125984249
20
-5.2081554724409447
11
6.7928589763779526
21
-5.2192390157480313
0
LINE
8
BLACK
6
CONTINUOUS
10
6.7928589763779526
20
-5.2192390157480313
11
6.7941318503937005
21
-5.2305361811023623
0
LINE
8
BLACK
6
CONTINUOUS
10
6.7941318503937005
20
-5.2305361811023623
11
6.7941318503937005
21
-5.2419047637795275
0
LINE
8
BLACK
6
CONTINUOUS
10
6.7941318503937005
20
-5.2419047637795275
11
6.7928589763779526
21
-5.2532019291338585
0
LINE
8
BLACK
6
CONTINUOUS
10
6.7928589763779526
20
-5.2532019291338585
11
6.7903292125984249
21
-5.2642854724409451
0
LINE
8
BLACK
6
CONTINUOUS
10
6.7903292125984249
20
-5.2642854724409451
11
6.7865744094488187
21
-5.2750161417322836
0
LINE
8
BLACK
6
CONTINUOUS
10
6.7865744094488187
20
-5.2750161417322836
11
6.7816417322834646
21
-5.285258897637795
0
LINE
8
BLACK
6
CONTINUOUS
10
6.7816417322834646
20
-5.285258897637795
11
6.7755932677165349
21
-5.2948849999999998
0
LINE
8
BLACK
6
CONTINUOUS
10
6.7755932677165349
20
-5.2948849999999998
11
6.7685050787401577
21
-5.3037733070866144
0
LINE
8
BLACK
6
CONTINUOUS
10
6.7685050787401577
20
-5.3037733070866144
11
6.7604662204724404
21
-5.3118121653543309
0
LINE
8
BLACK
6
CONTINUOUS
10
6.7604662204724404
20
-5.3118121653543309
11
6.7515779133858267
21
-5.318900354330709
0
LINE
8
BLACK
6
CONTINUOUS
10
6.7515779133858267
20
-5.318900354330709
11
6.7419518110236218
21
-5.3249488188976377
0
LINE
8
BLACK
6
CONTINUOUS
10
6.7419518110236218
20
-5.3249488188976377
11
6.7317090551181105
21
-5.3298814960629919
0
LINE
8
BLACK
6
CONTINUOUS
10
6.7317090551181105
20
-5.3298814960629919
11
6.7209783858267711
21
-5.3336362992125981
0
LINE
8
BLACK
6
CONTINUOUS
10
6.7209783858267711
20
-5.3336362992125981
11
6.7098948425196845
21
-5.3361660629921257
0
LINE
8
BLACK
6
CONTINUOUS
10
6.7098948425196845
20
-5.3361660629921257
11
6.6985976771653544
21
-5.3374389370078736
0
LINE
8
BLACK
6
CONTINUOUS
10
6.6985976771653544
20
-5.3374389370078736
11
6.6872290944881891
21
-5.3374389370078736
0
LINE
8
BLACK
6
CONTINUOUS
10
6.6872290944881891
20
-5.3374389370078736
11
6.6759319291338581
21
-5.3361660629921257
0
LINE
8
BLACK
6
CONTINUOUS
10
6.6759319291338581
20
-5.3361660629921257
11
6.6648483858267715
21
-5.3336362992125981
0
LINE
8
BLACK
6
CONTINUOUS
10
6.6648483858267715
20
-5.3336362992125981
11
6.654117716535433
21
-5.3298814960629919
0
LINE
8
BLACK
6
CONTINUOUS
10
6.654117716535433
20
-5.3298814960629919
11
6.6438749606299208
21
-5.3249488188976377
0
LINE
8
BLACK
6
CONTINUOUS
10
6.6438749606299208
20
-5.3249488188976377
11
6.6342488582677168
21
-5.318900354330709
0
LINE
8
BLACK
6
CONTINUOUS
10
6.6342488582677168
20
-5.318900354330709
11
6.6253605511811022
21
-5.3118121653543309
0
LINE
8
BLACK
6
CONTINUOUS
10
6.6253605511811022
20
-5.3118121653543309
11
6.6173216929133858
21
-5.3037733070866144
0
LINE
8
BLACK
6
CONTINUOUS
10
6.6173216929133858
20
-5.3037733070866144
11
6.6102335039370077
21
-5.2948849999999998
0
LINE
8
BLACK
6
CONTINUOUS
10
6.6102335039370077
20
-5.2948849999999998
11
6.6041850393700789
21
-5.285258897637795
0
LINE
8
BLACK
6
CONTINUOUS
10
6.6041850393700789
20
-5.285258897637795
11
6.5992523622047239
21
-5.2750161417322836
0
LINE
8
BLACK
6
CONTINUOUS
10
6.5992523622047239
20
-5.2750161417322836
11
6.5954975590551177
21
-5.2642854724409451
0
LINE
8
BLACK
6
CONTINUOUS
10
6.5954975590551177
20
-5.2642854724409451
11
6.5929677952755901
21
-5.2532019291338585
0
LINE
8
BLACK
6
CONTINUOUS
10
6.5929677952755901
20
-5.2532019291338585
11
6.5916949212598421
21
-5.2419047637795275
0
LINE
8
BLACK
6
CONTINUOUS
10
6.5916949212598421
20
-5.2419047637795275
11
6.5916949212598421
21
-5.230858858267716
0
LINE
8
BLACK
6
CONTINUOUS
10
6.5916949212598421
20
-5.230858858267716
11
6.5916949212598421
21
-5.2305361811023623
0
LINE
8
BLACK
6
CONTINUOUS
10
6.5916949212598421
20
-5.2305361811023623
11
6.5929677952755901
21
-5.2192390157480313
0
LINE
8
BLACK
6
CONTINUOUS
10
6.5929677952755901
20
-5.2192390157480313
11
6.5954975590551177
21
-5.2081554724409447
0
LINE
8
BLACK
6
CONTINUOUS
10
6.5954975590551177
20
-5.2081554724409447
11
6.5992523622047239
21
-5.1974248031496062
0
LINE
8
BLACK
6
CONTINUOUS
10
6.5992523622047239
20
-5.1974248031496062
11
6.6041850393700789
21
-5.1871820472440939
0
LINE
8
BLACK
6
CONTINUOUS
10
6.6041850393700789
20
-5.1871820472440939
11
6.6102335039370077
21
-5.17755594488189
0
LINE
8
BLACK
6
CONTINUOUS
10
6.6102335039370077
20
-5.17755594488189
11
6.6173216929133858
21
-5.1686676377952754
0
LINE
8
BLACK
6
CONTINUOUS
10
6.6173216929133858
20
-5.1686676377952754
11
6.6253605511811022
21
-5.1606287795275589
0
LINE
8
BLACK
6
CONTINUOUS
10
6.6253605511811022
20
-5.1606287795275589
11
6.6342488582677168
21
-5.1535405905511809
0
LINE
8
BLACK
6
CONTINUOUS
10
6.6342488582677168
20
-5.1535405905511809
11
6.6438749606299208
21
-5.1474921259842521
0
LINE
8
BLACK
6
CONTINUOUS
10
6.6438749606299208
20
-5.1474921259842521
11
6.654117716535433
21
-5.1425594488188979
0
LINE
8
BLACK
6
CONTINUOUS
10
6.654117716535433
20
-5.1425594488188979
11
6.6648483858267715
21
-5.1388046456692908
0
LINE
8
BLACK
6
CONTINUOUS
10
6.6648483858267715
20
-5.1388046456692908
11
6.6759319291338581
21
-5.1362748818897632
0
LINE
8
BLACK
6
CONTINUOUS
10
6.6759319291338581
20
-5.1362748818897632
11
6.6872290944881891
21
-5.1350020078740153
0
LINE
8
BLACK
6
CONTINUOUS
10
6.6872290944881891
20
-5.1350020078740153
11
6.6985976771653544
21
-5.1350020078740153
0
LINE
8
BLACK
6
CONTINUOUS
10
6.6985976771653544
20
-5.1350020078740153
11
6.7098948425196845
21
-5.1362748818897632
0
LINE
8
BLACK
6
CONTINUOUS
10
6.5974409448818898
20
-5.2415820866141729
11
6.5986415748031497
21
-5.2522379133858266
0
LINE
8
BLACK
6
CONTINUOUS
10
6.5986415748031497
20
-5.2522379133858266
11
6.601027716535433
21
-5.2626922834645669
0
LINE
8
BLACK
6
CONTINUOUS
10
6.601027716535433
20
-5.2626922834645669
11
6.6045693700787398
21
-5.2728137795275591
0
LINE
8
BLACK
6
CONTINUOUS
10
6.6045693700787398
20
-5.2728137795275591
11
6.609222007874016
21
-5.2824750787401573
0
LINE
8
BLACK
6
CONTINUOUS
10
6.609222007874016
20
-5.2824750787401573
11
6.6149271259842521
21
-5.2915546850393698
0
LINE
8
BLACK
6
CONTINUOUS
10
6.6149271259842521
20
-5.2915546850393698
11
6.6216129527559051
21
-5.299938464566929
0
LINE
8
BLACK
6
CONTINUOUS
10
6.6216129527559051
20
-5.299938464566929
11
6.6291953937007868
21
-5.3075209055118107
0
LINE
8
BLACK
6
CONTINUOUS
10
6.6291953937007868
20
-5.3075209055118107
11
6.637579173228346
21
-5.3142067322834645
0
LINE
8
BLACK
6
CONTINUOUS
10
6.637579173228346
20
-5.3142067322834645
11
6.6466587795275593
21
-5.3199118503937006
0
LINE
8
BLACK
6
CONTINUOUS
10
6.6466587795275593
20
-5.3199118503937006
11
6.6563200787401575
21
-5.324564488188976
0
LINE
8
BLACK
6
CONTINUOUS
10
6.6563200787401575
20
-5.324564488188976
11
6.6664415748031498
21
-5.3281061417322837
0
LINE
8
BLACK
6
CONTINUOUS
10
6.6664415748031498
20
-5.3281061417322837
11
6.6768959448818892
21
-5.3304922834645669
0
LINE
8
BLACK
6
CONTINUOUS
10
6.6768959448818892
20
-5.3304922834645669
11
6.6875517716535429
21
-5.3316929133858268
0
LINE
8
BLACK
6
CONTINUOUS
10
6.6875517716535429
20
-5.3316929133858268
11
6.6982749999999998
21
-5.3316929133858268
0
LINE
8
BLACK
6
CONTINUOUS
10
6.6982749999999998
20
-5.3316929133858268
11
6.7089308267716534
21
-5.3304922834645669
0
LINE
8
BLACK
6
CONTINUOUS
10
6.7089308267716534
20
-5.3304922834645669
11
6.7193851968503937
21
-5.3281061417322837
0
LINE
8
BLACK
6
CONTINUOUS
10
6.7193851968503937
20
-5.3281061417322837
11
6.729506692913386
21
-5.324564488188976
0
LINE
8
BLACK
6
CONTINUOUS
10
6.729506692913386
20
-5.324564488188976
11
6.7391679921259842
21
-5.3199118503937006
0
LINE
8
BLACK
6
CONTINUOUS
10
6.7391679921259842
20
-5.3199118503937006
11
6.7482475984251966
21
-5.3142067322834645
0
LINE
8
BLACK
6
CONTINUOUS
10
6.7482475984251966
20
-5.3142067322834645
11
6.7566313779527558
21
-5.3075209055118107
0
LINE
8
BLACK
6
CONTINUOUS
10
6.7566313779527558
20
-5.3075209055118107
11
6.7642138188976375
21
-5.299938464566929
0
LINE
8
BLACK
6
CONTINUOUS
10
6.7642138188976375
20
-5.299938464566929
11
6.7708996456692914
21
-5.2915546850393698
0
LINE
8
BLACK
6
CONTINUOUS
10
6.7708996456692914
20
-5.2915546850393698
11
6.7766047637795275
21
-5.2824750787401573
0
LINE
8
BLACK
6
CONTINUOUS
10
6.7766047637795275
20
-5.2824750787401573
11
6.7812574015748028
21
-5.2728137795275591
0
LINE
8
BLACK
6
CONTINUOUS
10
6.7812574015748028
20
-5.2728137795275591
11
6.7847990551181097
21
-5.2626922834645669
0
LINE
8
BLACK
6
CONTINUOUS
10
6.7847990551181097
20
-5.2626922834645669
11
6.7871851968503938
21
-5.2522379133858266
0
LINE
8
BLACK
6
CONTINUOUS
10
6.7871851968503938
20
-5.2522379133858266
11
6.7883858267716537
21
-5.2415820866141729
0
LINE
8
BLACK
6
CONTINUOUS
10
6.7883858267716537
20
-5.2415820866141729
11
6.7883858267716537
21
-5.230858858267716
0
LINE
8
BLACK
6
CONTINUOUS
10
6.7883858267716537
20
-5.230858858267716
11
6.7871851968503938
21
-5.2202030314960632
0
LINE
8
BLACK
6
CONTINUOUS
10
6.7871851968503938
20
-5.2202030314960632
11
6.7847990551181097
21
-5.209748661417323
0
LINE
8
BLACK
6
CONTINUOUS
10
6.7847990551181097
20
-5.209748661417323
11
6.7812574015748028
21
-5.1996271653543307
0
LINE
8
BLACK
6
CONTINUOUS
10
6.7812574015748028
20
-5.1996271653543307
11
6.7766047637795275
21
-5.1899658661417325
0
LINE
8
BLACK
6
CONTINUOUS
10
6.7766047637795275
20
-5.1899658661417325
11
6.7708996456692914
21
-5.1808862598425192
0
LINE
8
BLACK
6
CONTINUOUS
10
6.7708996456692914
20
-5.1808862598425192
11
6.7642138188976375
21
-5.1725024803149608
0
LINE
8
BLACK
6
CONTINUOUS
10
6.7642138188976375
20
-5.1725024803149608
11
6.7566313779527558
21
-5.1649200393700783
0
LINE
8
BLACK
6
CONTINUOUS
10
6.7566313779527558
20
-5.1649200393700783
11
6.7482475984251966
21
-5.1582342125984253
0
LINE
8
BLACK
6
CONTINUOUS
10
6.7482475984251966
20
-5.1582342125984253
11
6.7391679921259842
21
-5.1525290944881892
0
LINE
8
BLACK
6
CONTINUOUS
10
6.7391679921259842
20
-5.1525290944881892
11
6.729506692913386
21
-5.1478764566929129
0
LINE
8
BLACK
6
CONTINUOUS
10
6.729506692913386
20
-5.1478764566929129
11
6.7193851968503937
21
-5.1443348031496061
0
LINE
8
BLACK
6
CONTINUOUS
10
6.7193851968503937
20
-5.1443348031496061
11
6.7089308267716534
21
-5.1419486614173229
0
LINE
8
BLACK
6
CONTINUOUS
10
6.7089308267716534
20
-5.1419486614173229
11
6.6982749999999998
21
-5.140748031496063
0
LINE
8
BLACK
6
CONTINUOUS
10
6.6982749999999998
20
-5.140748031496063
11
6.6875517716535429
21
-5.140748031496063
0
LINE
8
BLACK
6
CONTINUOUS
10
6.6875517716535429
20
-5.140748031496063
11
6.6768959448818892
21
-5.1419486614173229
0
LINE
8
BLACK
6
CONTINUOUS
10
6.6768959448818892
20
-5.1419486614173229
11
6.6664415748031498
21
-5.1443348031496061
0
LINE
8
BLACK
6
CONTINUOUS
10
6.6664415748031498
20
-5.1443348031496061
11
6.6563200787401575
21
-5.1478764566929129
0
LINE
8
BLACK
6
CONTINUOUS
10
6.6563200787401575
20
-5.1478764566929129
11
6.6466587795275593
21
-5.1525290944881892
0
LINE
8
BLACK
6
CONTINUOUS
10
6.6466587795275593
20
-5.1525290944881892
11
6.637579173228346
21
-5.1582342125984253
0
LINE
8
BLACK
6
CONTINUOUS
10
6.637579173228346
20
-5.1582342125984253
11
6.6291953937007868
21
-5.1649200393700783
0
LINE
8
BLACK
6
CONTINUOUS
10
6.6291953937007868
20
-5.1649200393700783
11
6.6216129527559051
21
-5.1725024803149608
0
LINE
8
BLACK
6
CONTINUOUS
10
6.6216129527559051
20
-5.1725024803149608
11
6.6149271259842521
21
-5.1808862598425192
0
LINE
8
BLACK
6
CONTINUOUS
10
6.6149271259842521
20
-5.1808862598425192
11
6.609222007874016
21
-5.1899658661417325
0
LINE
8
BLACK
6
CONTINUOUS
10
6.609222007874016
20
-5.1899658661417325
11
6.6045693700787398
21
-5.1996271653543307
0
LINE
8
BLACK
6
CONTINUOUS
10
6.6045693700787398
20
-5.1996271653543307
11
6.601027716535433
21
-5.209748661417323
0
LINE
8
BLACK
6
CONTINUOUS
10
6.601027716535433
20
-5.209748661417323
11
6.5986415748031497
21
-5.2202030314960632
0
LINE
8
BLACK
6
CONTINUOUS
10
6.5986415748031497
20
-5.2202030314960632
11
6.5974409448818898
21
-5.230858858267716
0
LINE
8
BLACK
6
CONTINUOUS
10
6.5974409448818898
20
-5.230858858267716
11
6.5974409448818898
21
-5.2415820866141729
0
LINE
8
BLACK
6
CONTINUOUS
10
4.2295798818897641
20
-3.9551725196850391
11
4.2406634251968507
21
-3.9577022834645668
0
LINE
8
BLACK
6
CONTINUOUS
10
4.2406634251968507
20
-3.9577022834645668
11
4.2513940944881892
21
-3.961457086614173
0
LINE
8
BLACK
6
CONTINUOUS
10
4.2513940944881892
20
-3.961457086614173
11
4.2616368503937005
21
-3.9663897637795276
0
LINE
8
BLACK
6
CONTINUOUS
10
4.2616368503937005
20
-3.9663897637795276
11
4.2712629527559054
21
-3.9724382283464568
0
LINE
8
BLACK
6
CONTINUOUS
10
4.2712629527559054
20
-3.9724382283464568
11
4.28015125984252
21
-3.9795264173228344
0
LINE
8
BLACK
6
CONTINUOUS
10
4.28015125984252
20
-3.9795264173228344
11
4.2881901181102364
21
-3.9875652755905513
0
LINE
8
BLACK
6
CONTINUOUS
10
4.2881901181102364
20
-3.9875652755905513
11
4.2952783070866145
21
-3.9964535826771654
0
LINE
8
BLACK
6
CONTINUOUS
10
4.2952783070866145
20
-3.9964535826771654
11
4.3013267716535433
21
-4.0060796850393698
0
LINE
8
BLACK
6
CONTINUOUS
10
4.3013267716535433
20
-4.0060796850393698
11
4.3062594488188974
21
-4.0163224409448821
0
LINE
8
BLACK
6
CONTINUOUS
10
4.3062594488188974
20
-4.0163224409448821
11
4.3100142519685036
21
-4.0270531102362206
0
LINE
8
BLACK
6
CONTINUOUS
10
4.3100142519685036
20
-4.0270531102362206
11
4.3125440157480313
21
-4.0381366535433072
0
LINE
8
BLACK
6
CONTINUOUS
10
4.3125440157480313
20
-4.0381366535433072
11
4.3138168897637792
21
-4.0494338188976373
0
LINE
8
BLACK
6
CONTINUOUS
10
4.3138168897637792
20
-4.0494338188976373
11
4.3138168897637792
21
-4.0608024015748034
0
LINE
8
BLACK
6
CONTINUOUS
10
4.3138168897637792
20
-4.0608024015748034
11
4.3125440157480313
21
-4.0720995669291336
0
LINE
8
BLACK
6
CONTINUOUS
10
4.3125440157480313
20
-4.0720995669291336
11
4.3100142519685036
21
-4.0831831102362202
0
LINE
8
BLACK
6
CONTINUOUS
10
4.3100142519685036
20
-4.0831831102362202
11
4.3062594488188974
21
-4.0939137795275586
0
LINE
8
BLACK
6
CONTINUOUS
10
4.3062594488188974
20
-4.0939137795275586
11
4.3013267716535433
21
-4.1041565354330709
0
LINE
8
BLACK
6
CONTINUOUS
10
4.3013267716535433
20
-4.1041565354330709
11
4.2952783070866145
21
-4.1137826377952758
0
LINE
8
BLACK
6
CONTINUOUS
10
4.2952783070866145
20
-4.1137826377952758
11
4.2881901181102364
21
-4.1226709448818895
0
LINE
8
BLACK
6
CONTINUOUS
10
4.2881901181102364
20
-4.1226709448818895
11
4.28015125984252
21
-4.1307098031496059
0
LINE
8
BLACK
6
CONTINUOUS
10
4.28015125984252
20
-4.1307098031496059
11
4.2712629527559054
21
-4.137797992125984
0
LINE
8
BLACK
6
CONTINUOUS
10
4.2712629527559054
20
-4.137797992125984
11
4.2616368503937005
21
-4.1438464566929136
0
LINE
8
BLACK
6
CONTINUOUS
10
4.2616368503937005
20
-4.1438464566929136
11
4.2513940944881892
21
-4.1487791338582678
0
LINE
8
BLACK
6
CONTINUOUS
10
4.2513940944881892
20
-4.1487791338582678
11
4.2406634251968507
21
-4.152533937007874
0
LINE
8
BLACK
6
CONTINUOUS
10
4.2406634251968507
20
-4.152533937007874
11
4.2295798818897641
21
-4.1550637007874016
0
LINE
8
BLACK
6
CONTINUOUS
10
4.2295798818897641
20
-4.1550637007874016
11
4.2182827165354331
21
-4.1563365748031496
0
LINE
8
BLACK
6
CONTINUOUS
10
4.2182827165354331
20
-4.1563365748031496
11
4.2069141338582678
21
-4.1563365748031496
0
LINE
8
BLACK
6
CONTINUOUS
10
4.2069141338582678
20
-4.1563365748031496
11
4.1956169685039368
21
-4.1550637007874016
0
LINE
8
BLACK
6
CONTINUOUS
10
4.1956169685039368
20
-4.1550637007874016
11
4.1845334251968502
21
-4.152533937007874
0
LINE
8
BLACK
6
CONTINUOUS
10
4.1845334251968502
20
-4.152533937007874
11
4.1738027559055118
21
-4.1487791338582678
0
LINE
8
BLACK
6
CONTINUOUS
10
4.1738027559055118
20
-4.1487791338582678
11
4.1635599999999995
21
-4.1438464566929136
0
LINE
8
BLACK
6
CONTINUOUS
10
4.1635599999999995
20
-4.1438464566929136
11
4.1539338976377955
21
-4.137797992125984
0
LINE
8
BLACK
6
CONTINUOUS
10
4.1539338976377955
20
-4.137797992125984
11
4.1450455905511809
21
-4.1307098031496059
0
LINE
8
BLACK
6
CONTINUOUS
10
4.1450455905511809
20
-4.1307098031496059
11
4.1370067322834645
21
-4.1226709448818895
0
LINE
8
BLACK
6
CONTINUOUS
10
4.1370067322834645
20
-4.1226709448818895
11
4.1299185433070864
21
-4.1137826377952758
0
LINE
8
BLACK
6
CONTINUOUS
10
4.1299185433070864
20
-4.1137826377952758
11
4.1238700787401577
21
-4.1041565354330709
0
LINE
8
BLACK
6
CONTINUOUS
10
4.1238700787401577
20
-4.1041565354330709
11
4.1189374015748035
21
-4.0939137795275586
0
LINE
8
BLACK
6
CONTINUOUS
10
4.1189374015748035
20
-4.0939137795275586
11
4.1151825984251964
21
-4.0831831102362202
0
LINE
8
BLACK
6
CONTINUOUS
10
4.1151825984251964
20
-4.0831831102362202
11
4.1126528346456688
21
-4.0720995669291336
0
LINE
8
BLACK
6
CONTINUOUS
10
4.1126528346456688
20
-4.0720995669291336
11
4.1113799606299208
21
-4.0608024015748034
0
LINE
8
BLACK
6
CONTINUOUS
10
4.1113799606299208
20
-4.0608024015748034
11
4.1113799606299208
21
-4.0497564960629919
0
LINE
8
BLACK
6
CONTINUOUS
10
4.1113799606299208
20
-4.0497564960629919
11
4.1113799606299208
21
-4.0494338188976373
0
LINE
8
BLACK
6
CONTINUOUS
10
4.1113799606299208
20
-4.0494338188976373
11
4.1126528346456688
21
-4.0381366535433072
0
LINE
8
BLACK
6
CONTINUOUS
10
4.1126528346456688
20
-4.0381366535433072
11
4.1151825984251964
21
-4.0270531102362206
0
LINE
8
BLACK
6
CONTINUOUS
10
4.1151825984251964
20
-4.0270531102362206
11
4.1189374015748035
21
-4.0163224409448821
0
LINE
8
BLACK
6
CONTINUOUS
10
4.1189374015748035
20
-4.0163224409448821
11
4.1238700787401577
21
-4.0060796850393698
0
LINE
8
BLACK
6
CONTINUOUS
10
4.1238700787401577
20
-4.0060796850393698
11
4.1299185433070864
21
-3.9964535826771654
0
LINE
8
BLACK
6
CONTINUOUS
10
4.1299185433070864
20
-3.9964535826771654
11
4.1370067322834645
21
-3.9875652755905513
0
LINE
8
BLACK
6
CONTINUOUS
10
4.1370067322834645
20
-3.9875652755905513
11
4.1450455905511809
21
-3.9795264173228344
0
LINE
8
BLACK
6
CONTINUOUS
10
4.1450455905511809
20
-3.9795264173228344
11
4.1539338976377955
21
-3.9724382283464568
0
LINE
8
BLACK
6
CONTINUOUS
10
4.1539338976377955
20
-3.9724382283464568
11
4.1635599999999995
21
-3.9663897637795276
0
LINE
8
BLACK
6
CONTINUOUS
10
4.1635599999999995
20
-3.9663897637795276
11
4.1738027559055118
21
-3.961457086614173
0
LINE
8
BLACK
6
CONTINUOUS
10
4.1738027559055118
20
-3.961457086614173
11
4.1845334251968502
21
-3.9577022834645668
0
LINE
8
BLACK
6
CONTINUOUS
10
4.1845334251968502
20
-3.9577022834645668
11
4.1956169685039368
21
-3.9551725196850391
0
LINE
8
BLACK
6
CONTINUOUS
10
4.1956169685039368
20
-3.9551725196850391
11
4.2069141338582678
21
-3.9538996456692912
0
LINE
8
BLACK
6
CONTINUOUS
10
4.2069141338582678
20
-3.9538996456692912
11
4.2182827165354331
21
-3.9538996456692912
0
LINE
8
BLACK
6
CONTINUOUS
10
4.2182827165354331
20
-3.9538996456692912
11
4.2295798818897641
21
-3.9551725196850391
0
LINE
8
BLACK
6
CONTINUOUS
10
4.1171259842519685
20
-4.0604797244094488
11
4.1183266141732284
21
-4.0711355511811025
0
LINE
8
BLACK
6
CONTINUOUS
10
4.1183266141732284
20
-4.0711355511811025
11
4.1207127559055117
21
-4.0815899212598428
0
LINE
8
BLACK
6
CONTINUOUS
10
4.1207127559055117
20
-4.0815899212598428
11
4.1242544094488185
21
-4.0917114173228342
0
LINE
8
BLACK
6
CONTINUOUS
10
4.1242544094488185
20
-4.0917114173228342
11
4.1289070472440947
21
-4.1013727165354332
0
LINE
8
BLACK
6
CONTINUOUS
10
4.1289070472440947
20
-4.1013727165354332
11
4.1346121653543308
21
-4.1104523228346457
0
LINE
8
BLACK
6
CONTINUOUS
10
4.1346121653543308
20
-4.1104523228346457
11
4.1412979921259838
21
-4.1188361023622049
0
LINE
8
BLACK
6
CONTINUOUS
10
4.1412979921259838
20
-4.1188361023622049
11
4.1488804330708664
21
-4.1264185433070866
0
LINE
8
BLACK
6
CONTINUOUS
10
4.1488804330708664
20
-4.1264185433070866
11
4.1572642125984247
21
-4.1331043700787404
0
LINE
8
BLACK
6
CONTINUOUS
10
4.1572642125984247
20
-4.1331043700787404
11
4.1663438188976381
21
-4.1388094881889765
0
LINE
8
BLACK
6
CONTINUOUS
10
4.1663438188976381
20
-4.1388094881889765
11
4.1760051181102362
21
-4.1434621259842519
0
LINE
8
BLACK
6
CONTINUOUS
10
4.1760051181102362
20
-4.1434621259842519
11
4.1861266141732285
21
-4.1470037795275587
0
LINE
8
BLACK
6
CONTINUOUS
10
4.1861266141732285
20
-4.1470037795275587
11
4.1965809842519688
21
-4.1493899212598429
0
LINE
8
BLACK
6
CONTINUOUS
10
4.1965809842519688
20
-4.1493899212598429
11
4.2072368110236216
21
-4.1505905511811019
0
LINE
8
BLACK
6
CONTINUOUS
10
4.2072368110236216
20
-4.1505905511811019
11
4.2179600393700785
21
-4.1505905511811019
0
LINE
8
BLACK
6
CONTINUOUS
10
4.2179600393700785
20
-4.1505905511811019
11
4.2286158661417321
21
-4.1493899212598429
0
LINE
8
BLACK
6
CONTINUOUS
10
4.2286158661417321
20
-4.1493899212598429
11
4.2390702362204724
21
-4.1470037795275587
0
LINE
8
BLACK
6
CONTINUOUS
10
4.2390702362204724
20
-4.1470037795275587
11
4.2491917322834647
21
-4.1434621259842519
0
LINE
8
BLACK
6
CONTINUOUS
10
4.2491917322834647
20
-4.1434621259842519
11
4.2588530314960629
21
-4.1388094881889765
0
LINE
8
BLACK
6
CONTINUOUS
10
4.2588530314960629
20
-4.1388094881889765
11
4.2679326377952753
21
-4.1331043700787404
0
LINE
8
BLACK
6
CONTINUOUS
10
4.2679326377952753
20
-4.1331043700787404
11
4.2763164173228345
21
-4.1264185433070866
0
LINE
8
BLACK
6
CONTINUOUS
10
4.2763164173228345
20
-4.1264185433070866
11
4.2838988582677162
21
-4.1188361023622049
0
LINE
8
BLACK
6
CONTINUOUS
10
4.2838988582677162
20
-4.1188361023622049
11
4.2905846850393701
21
-4.1104523228346457
0
LINE
8
BLACK
6
CONTINUOUS
10
4.2905846850393701
20
-4.1104523228346457
11
4.2962898031496062
21
-4.1013727165354332
0
LINE
8
BLACK
6
CONTINUOUS
10
4.2962898031496062
20
-4.1013727165354332
11
4.3009424409448815
21
-4.0917114173228342
0
LINE
8
BLACK
6
CONTINUOUS
10
4.3009424409448815
20
-4.0917114173228342
11
4.3044840944881892
21
-4.0815899212598428
0
LINE
8
BLACK
6
CONTINUOUS
10
4.3044840944881892
20
-4.0815899212598428
11
4.3068702362204725
21
-4.0711355511811025
0
LINE
8
BLACK
6
CONTINUOUS
10
4.3068702362204725
20
-4.0711355511811025
11
4.3080708661417324
21
-4.0604797244094488
0
LINE
8
BLACK
6
CONTINUOUS
10
4.3080708661417324
20
-4.0604797244094488
11
4.3080708661417324
21
-4.0497564960629919
0
LINE
8
BLACK
6
CONTINUOUS
10
4.3080708661417324
20
-4.0497564960629919
11
4.3068702362204725
21
-4.0391006692913383
0
LINE
8
BLACK
6
CONTINUOUS
10
4.3068702362204725
20
-4.0391006692913383
11
4.3044840944881892
21
-4.028646299212598
0
LINE
8
BLACK
6
CONTINUOUS
10
4.3044840944881892
20
-4.028646299212598
11
4.3009424409448815
21
-4.0185248031496066
0
LINE
8
BLACK
6
CONTINUOUS
10
4.3009424409448815
20
-4.0185248031496066
11
4.2962898031496062
21
-4.0088635039370075
0
LINE
8
BLACK
6
CONTINUOUS
10
4.2962898031496062
20
-4.0088635039370075
11
4.2905846850393701
21
-3.9997838976377951
0
LINE
8
BLACK
6
CONTINUOUS
10
4.2905846850393701
20
-3.9997838976377951
11
4.2838988582677162
21
-3.9914001181102363
0
LINE
8
BLACK
6
CONTINUOUS
10
4.2838988582677162
20
-3.9914001181102363
11
4.2763164173228345
21
-3.9838176771653542
0
LINE
8
BLACK
6
CONTINUOUS
10
4.2763164173228345
20
-3.9838176771653542
11
4.2679326377952753
21
-3.9771318503937008
0
LINE
8
BLACK
6
CONTINUOUS
10
4.2679326377952753
20
-3.9771318503937008
11
4.2588530314960629
21
-3.9714267322834647
0
LINE
8
BLACK
6
CONTINUOUS
10
4.2588530314960629
20
-3.9714267322834647
11
4.2491917322834647
21
-3.9667740944881889
0
LINE
8
BLACK
6
CONTINUOUS
10
4.2491917322834647
20
-3.9667740944881889
11
4.2390702362204724
21
-3.9632324409448816
0
LINE
8
BLACK
6
CONTINUOUS
10
4.2390702362204724
20
-3.9632324409448816
11
4.2286158661417321
21
-3.9608462992125983
0
LINE
8
BLACK
6
CONTINUOUS
10
4.2286158661417321
20
-3.9608462992125983
11
4.2179600393700785
21
-3.9596456692913384
0
LINE
8
BLACK
6
CONTINUOUS
10
4.2179600393700785
20
-3.9596456692913384
11
4.2072368110236216
21
-3.9596456692913384
0
LINE
8
BLACK
6
CONTINUOUS
10
4.2072368110236216
20
-3.9596456692913384
11
4.1965809842519688
21
-3.9608462992125983
0
LINE
8
BLACK
6
CONTINUOUS
10
4.1965809842519688
20
-3.9608462992125983
11
4.1861266141732285
21
-3.9632324409448816
0
LINE
8
BLACK
6
CONTINUOUS
10
4.1861266141732285
20
-3.9632324409448816
11
4.1760051181102362
21
-3.9667740944881889
0
LINE
8
BLACK
6
CONTINUOUS
10
4.1760051181102362
20
-3.9667740944881889
11
4.1663438188976381
21
-3.9714267322834647
0
LINE
8
BLACK
6
CONTINUOUS
10
4.1663438188976381
20
-3.9714267322834647
11
4.1572642125984247
21
-3.9771318503937008
0
LINE
8
BLACK
6
CONTINUOUS
10
4.1572642125984247
20
-3.9771318503937008
11
4.1488804330708664
21
-3.9838176771653542
0
LINE
8
BLACK
6
CONTINUOUS
10
4.1488804330708664
20
-3.9838176771653542
11
4.1412979921259838
21
-3.9914001181102363
0
LINE
8
BLACK
6
CONTINUOUS
10
4.1412979921259838
20
-3.9914001181102363
11
4.1346121653543308
21
-3.9997838976377951
0
LINE
8
BLACK
6
CONTINUOUS
10
4.1346121653543308
20
-3.9997838976377951
11
4.1289070472440947
21
-4.0088635039370075
0
LINE
8
BLACK
6
CONTINUOUS
10
4.1289070472440947
20
-4.0088635039370075
11
4.1242544094488185
21
-4.0185248031496066
0
LINE
8
BLACK
6
CONTINUOUS
10
4.1242544094488185
20
-4.0185248031496066
11
4.1207127559055117
21
-4.028646299212598
0
LINE
8
BLACK
6
CONTINUOUS
10
4.1207127559055117
20
-4.028646299212598
11
4.1183266141732284
21
-4.0391006692913383
0
LINE
8
BLACK
6
CONTINUOUS
10
4.1183266141732284
20
-4.0391006692913383
11
4.1171259842519685
21
-4.0497564960629919
0
LINE
8
BLACK
6
CONTINUOUS
10
4.1171259842519685
20
-4.0497564960629919
11
4.1171259842519685
21
-4.0604797244094488
0
LINE
8
BLACK
6
CONTINUOUS
10
1.0799735826771653
20
-1.0024166141732282
11
1.0910571259842519
21
-1.0049463779527559
0
LINE
8
BLACK
6
CONTINUOUS
10
1.0910571259842519
20
-1.0049463779527559
11
1.1017877952755906
21
-1.0087011811023623
0
LINE
8
BLACK
6
CONTINUOUS
10
1.1017877952755906
20
-1.0087011811023623
11
1.1120305511811024
21
-1.0136338582677165
0
LINE
8
BLACK
6
CONTINUOUS
10
1.1120305511811024
20
-1.0136338582677165
11
1.121656653543307
21
-1.0196823228346457
0
LINE
8
BLACK
6
CONTINUOUS
10
1.121656653543307
20
-1.0196823228346457
11
1.1305449606299212
21
-1.0267705118110235
0
LINE
8
BLACK
6
CONTINUOUS
10
1.1305449606299212
20
-1.0267705118110235
11
1.1385838188976378
21
-1.0348093700787402
0
LINE
8
BLACK
6
CONTINUOUS
10
1.1385838188976378
20
-1.0348093700787402
11
1.1456720078740157
21
-1.0436976771653543
0
LINE
8
BLACK
6
CONTINUOUS
10
1.1456720078740157
20
-1.0436976771653543
11
1.1517204724409449
21
-1.053323779527559
0
LINE
8
BLACK
6
CONTINUOUS
10
1.1517204724409449
20
-1.053323779527559
11
1.1566531496062993
21
-1.0635665354330708
0
LINE
8
BLACK
6
CONTINUOUS
10
1.1566531496062993
20
-1.0635665354330708
11
1.1604079527559055
21
-1.0742972047244095
0
LINE
8
BLACK
6
CONTINUOUS
10
1.1604079527559055
20
-1.0742972047244095
11
1.1629377165354331
21
-1.0853807480314961
0
LINE
8
BLACK
6
CONTINUOUS
10
1.1629377165354331
20
-1.0853807480314961
11
1.164210590551181
21
-1.0966779133858267
0
LINE
8
BLACK
6
CONTINUOUS
10
1.164210590551181
20
-1.0966779133858267
11
1.164210590551181
21
-1.1080464960629921
0
LINE
8
BLACK
6
CONTINUOUS
10
1.164210590551181
20
-1.1080464960629921
11
1.1629377165354331
21
-1.1193436614173229
0
LINE
8
BLACK
6
CONTINUOUS
10
1.1629377165354331
20
-1.1193436614173229
11
1.1604079527559055
21
-1.1304272047244095
0
LINE
8
BLACK
6
CONTINUOUS
10
1.1604079527559055
20
-1.1304272047244095
11
1.1566531496062993
21
-1.141157874015748
0
LINE
8
BLACK
6
CONTINUOUS
10
1.1566531496062993
20
-1.141157874015748
11
1.1517204724409449
21
-1.1514006299212598
0
LINE
8
BLACK
6
CONTINUOUS
10
1.1517204724409449
20
-1.1514006299212598
11
1.1456720078740157
21
-1.1610267322834646
0
LINE
8
BLACK
6
CONTINUOUS
10
1.1456720078740157
20
-1.1610267322834646
11
1.1385838188976378
21
-1.1699150393700788
0
LINE
8
BLACK
6
CONTINUOUS
10
1.1385838188976378
20
-1.1699150393700788
11
1.1305449606299212
21
-1.1779538976377952
0
LINE
8
BLACK
6
CONTINUOUS
10
1.1305449606299212
20
-1.1779538976377952
11
1.121656653543307
21
-1.1850420866141731
0
LINE
8
BLACK
6
CONTINUOUS
10
1.121656653543307
20
-1.1850420866141731
11
1.1120305511811024
21
-1.1910905511811023
0
LINE
8
BLACK
6
CONTINUOUS
10
1.1120305511811024
20
-1.1910905511811023
11
1.1017877952755906
21
-1.1960232283464567
0
LINE
8
BLACK
6
CONTINUOUS
10
1.1017877952755906
20
-1.1960232283464567
11
1.0910571259842519
21
-1.1997780314960629
0
LINE
8
BLACK
6
CONTINUOUS
10
1.0910571259842519
20
-1.1997780314960629
11
1.0799735826771653
21
-1.2023077952755905
0
LINE
8
BLACK
6
CONTINUOUS
10
1.0799735826771653
20
-1.2023077952755905
11
1.0686764173228347
21
-1.2035806692913384
0
LINE
8
BLACK
6
CONTINUOUS
10
1.0686764173228347
20
-1.2035806692913384
11
1.0573078346456692
21
-1.2035806692913384
0
LINE
8
BLACK
6
CONTINUOUS
10
1.0573078346456692
20
-1.2035806692913384
11
1.0460106692913385
21
-1.2023077952755905
0
LINE
8
BLACK
6
CONTINUOUS
10
1.0460106692913385
20
-1.2023077952755905
11
1.0349271259842518
21
-1.1997780314960629
0
LINE
8
BLACK
6
CONTINUOUS
10
1.0349271259842518
20
-1.1997780314960629
11
1.0241964566929134
21
-1.1960232283464567
0
LINE
8
BLACK
6
CONTINUOUS
10
1.0241964566929134
20
-1.1960232283464567
11
1.0139537007874015
21
-1.1910905511811023
0
LINE
8
BLACK
6
CONTINUOUS
10
1.0139537007874015
20
-1.1910905511811023
11
1.0043275984251969
21
-1.1850420866141731
0
LINE
8
BLACK
6
CONTINUOUS
10
1.0043275984251969
20
-1.1850420866141731
11
0.9954392913385827
21
-1.1779538976377952
0
LINE
8
BLACK
6
CONTINUOUS
10
0.9954392913385827
20
-1.1779538976377952
11
0.9874004330708661
21
-1.1699150393700788
0
LINE
8
BLACK
6
CONTINUOUS
10
0.9874004330708661
20
-1.1699150393700788
11
0.9803122440944881
21
-1.1610267322834646
0
LINE
8
BLACK
6
CONTINUOUS
10
0.9803122440944881
20
-1.1610267322834646
11
0.974263779527559
21
-1.1514006299212598
0
LINE
8
BLACK
6
CONTINUOUS
10
0.974263779527559
20
-1.1514006299212598
11
0.9693311023622047
21
-1.141157874015748
0
LINE
8
BLACK
6
CONTINUOUS
10
0.9693311023622047
20
-1.141157874015748
11
0.9655762992125984
21
-1.1304272047244095
0
LINE
8
BLACK
6
CONTINUOUS
10
0.9655762992125984
20
-1.1304272047244095
11
0.9630465354330708
21
-1.1193436614173229
0
LINE
8
BLACK
6
CONTINUOUS
10
0.9630465354330708
20
-1.1193436614173229
11
0.9617736614173228
21
-1.1080464960629921
0
LINE
8
BLACK
6
CONTINUOUS
10
0.9617736614173228
20
-1.1080464960629921
11
0.9617736614173228
21
-1.097000590551181
0
LINE
8
BLACK
6
CONTINUOUS
10
0.9617736614173228
20
-1.097000590551181
11
0.9617736614173228
21
-1.0966779133858267
0
LINE
8
BLACK
6
CONTINUOUS
10
0.9617736614173228
20
-1.0966779133858267
11
0.9630465354330708
21
-1.0853807480314961
0
LINE
8
BLACK
6
CONTINUOUS
10
0.9630465354330708
20
-1.0853807480314961
11
0.9655762992125984
21
-1.0742972047244095
0
LINE
8
BLACK
6
CONTINUOUS
10
0.9655762992125984
20
-1.0742972047244095
11
0.9693311023622047
21
-1.0635665354330708
0
LINE
8
BLACK
6
CONTINUOUS
10
0.9693311023622047
20
-1.0635665354330708
11
0.974263779527559
21
-1.053323779527559
0
LINE
8
BLACK
6
CONTINUOUS
10
0.974263779527559
20
-1.053323779527559
11
0.9803122440944881
21
-1.0436976771653543
0
LINE
8
BLACK
6
CONTINUOUS
10
0.9803122440944881
20
-1.0436976771653543
11
0.9874004330708661
21
-1.0348093700787402
0
LINE
8
BLACK
6
CONTINUOUS
10
0.9874004330708661
20
-1.0348093700787402
11
0.9954392913385827
21
-1.0267705118110235
0
LINE
8
BLACK
6
CONTINUOUS
10
0.9954392913385827
20
-1.0267705118110235
11
1.0043275984251969
21
-1.0196823228346457
0
LINE
8
BLACK
6
CONTINUOUS
10
1.0043275984251969
20
-1.0196823228346457
11
1.0139537007874015
21
-1.0136338582677165
0
LINE
8
BLACK
6
CONTINUOUS
10
1.0139537007874015
20
-1.0136338582677165
11
1.0241964566929134
21
-1.0087011811023623
0
LINE
8
BLACK
6
CONTINUOUS
10
1.0241964566929134
20
-1.0087011811023623
11
1.0349271259842518
21
-1.0049463779527559
0
LINE
8
BLACK
6
CONTINUOUS
10
1.0349271259842518
20
-1.0049463779527559
11
1.0460106692913385
21
-1.0024166141732282
0
LINE
8
BLACK
6
CONTINUOUS
10
1.0460106692913385
20
-1.0024166141732282
11
1.0573078346456692
21
-1.0011437401574803
0
LINE
8
BLACK
6
CONTINUOUS
10
1.0573078346456692
20
-1.0011437401574803
11
1.0686764173228347
21
-1.0011437401574803
0
LINE
8
BLACK
6
CONTINUOUS
10
1.0686764173228347
20
-1.0011437401574803
11
1.0799735826771653
21
-1.0024166141732282
0
LINE
8
BLACK
6
CONTINUOUS
10
0.96751968503937
20
-1.1077238188976377
11
0.9687203149606299
21
-1.1183796456692914
0
LINE
8
BLACK
6
CONTINUOUS
10
0.9687203149606299
20
-1.1183796456692914
11
0.9711064566929134
21
-1.1288340157480314
0
LINE
8
BLACK
6
CONTINUOUS
10
0.9711064566929134
20
-1.1288340157480314
11
0.9746481102362204
21
-1.1389555118110235
0
LINE
8
BLACK
6
CONTINUOUS
10
0.9746481102362204
20
-1.1389555118110235
11
0.979300748031496
21
-1.1486168110236221
0
LINE
8
BLACK
6
CONTINUOUS
10
0.979300748031496
20
-1.1486168110236221
11
0.9850058661417322
21
-1.1576964173228346
0
LINE
8
BLACK
6
CONTINUOUS
10
0.9850058661417322
20
-1.1576964173228346
11
0.9916916929133858
21
-1.1660801968503938
0
LINE
8
BLACK
6
CONTINUOUS
10
0.9916916929133858
20
-1.1660801968503938
11
0.9992741338582677
21
-1.1736626377952755
0
LINE
8
BLACK
6
CONTINUOUS
10
0.9992741338582677
20
-1.1736626377952755
11
1.0076579133858268
21
-1.1803484645669291
0
LINE
8
BLACK
6
CONTINUOUS
10
1.0076579133858268
20
-1.1803484645669291
11
1.0167375196850394
21
-1.1860535826771654
0
LINE
8
BLACK
6
CONTINUOUS
10
1.0167375196850394
20
-1.1860535826771654
11
1.0263988188976378
21
-1.190706220472441
0
LINE
8
BLACK
6
CONTINUOUS
10
1.0263988188976378
20
-1.190706220472441
11
1.0365203149606299
21
-1.1942478740157481
0
LINE
8
BLACK
6
CONTINUOUS
10
1.0365203149606299
20
-1.1942478740157481
11
1.04697468503937
21
-1.1966340157480315
0
LINE
8
BLACK
6
CONTINUOUS
10
1.04697468503937
20
-1.1966340157480315
11
1.0576305118110236
21
-1.1978346456692912
0
LINE
8
BLACK
6
CONTINUOUS
10
1.0576305118110236
20
-1.1978346456692912
11
1.0683537401574803
21
-1.1978346456692912
0
LINE
8
BLACK
6
CONTINUOUS
10
1.0683537401574803
20
-1.1978346456692912
11
1.0790095669291337
21
-1.1966340157480315
0
LINE
8
BLACK
6
CONTINUOUS
10
1.0790095669291337
20
-1.1966340157480315
11
1.089463937007874
21
-1.1942478740157481
0
LINE
8
BLACK
6
CONTINUOUS
10
1.089463937007874
20
-1.1942478740157481
11
1.0995854330708661
21
-1.190706220472441
0
LINE
8
BLACK
6
CONTINUOUS
10
1.0995854330708661
20
-1.190706220472441
11
1.1092467322834645
21
-1.1860535826771654
0
LINE
8
BLACK
6
CONTINUOUS
10
1.1092467322834645
20
-1.1860535826771654
11
1.1183263385826772
21
-1.1803484645669291
0
LINE
8
BLACK
6
CONTINUOUS
10
1.1183263385826772
20
-1.1803484645669291
11
1.1267101181102361
21
-1.1736626377952755
0
LINE
8
BLACK
6
CONTINUOUS
10
1.1267101181102361
20
-1.1736626377952755
11
1.1342925590551181
21
-1.1660801968503938
0
LINE
8
BLACK
6
CONTINUOUS
10
1.1342925590551181
20
-1.1660801968503938
11
1.1409783858267717
21
-1.1576964173228346
0
LINE
8
BLACK
6
CONTINUOUS
10
1.1409783858267717
20
-1.1576964173228346
11
1.1466835039370078
21
-1.1486168110236221
0
LINE
8
BLACK
6
CONTINUOUS
10
1.1466835039370078
20
-1.1486168110236221
11
1.1513361417322834
21
-1.1389555118110235
0
LINE
8
BLACK
6
CONTINUOUS
10
1.1513361417322834
20
-1.1389555118110235
11
1.1548777952755904
21
-1.1288340157480314
0
LINE
8
BLACK
6
CONTINUOUS
10
1.1548777952755904
20
-1.1288340157480314
11
1.1572639370078739
21
-1.1183796456692914
0
LINE
8
BLACK
6
CONTINUOUS
10
1.1572639370078739
20
-1.1183796456692914
11
1.1584645669291338
21
-1.1077238188976377
0
LINE
8
BLACK
6
CONTINUOUS
10
1.1584645669291338
20
-1.1077238188976377
11
1.1584645669291338
21
-1.097000590551181
0
LINE
8
BLACK
6
CONTINUOUS
10
1.1584645669291338
20
-1.097000590551181
11
1.1572639370078739
21
-1.0863447637795276
0
LINE
8
BLACK
6
CONTINUOUS
10
1.1572639370078739
20
-1.0863447637795276
11
1.1548777952755904
21
-1.0758903937007873
0
LINE
8
BLACK
6
CONTINUOUS
10
1.1548777952755904
20
-1.0758903937007873
11
1.1513361417322834
21
-1.0657688976377953
0
LINE
8
BLACK
6
CONTINUOUS
10
1.1513361417322834
20
-1.0657688976377953
11
1.1466835039370078
21
-1.0561075984251969
0
LINE
8
BLACK
6
CONTINUOUS
10
1.1466835039370078
20
-1.0561075984251969
11
1.1409783858267717
21
-1.0470279921259842
0
LINE
8
BLACK
6
CONTINUOUS
10
1.1409783858267717
20
-1.0470279921259842
11
1.1342925590551181
21
-1.0386442125984252
0
LINE
8
BLACK
6
CONTINUOUS
10
1.1342925590551181
20
-1.0386442125984252
11
1.1267101181102361
21
-1.0310617716535433
0
LINE
8
BLACK
6
CONTINUOUS
10
1.1267101181102361
20
-1.0310617716535433
11
1.1183263385826772
21
-1.0243759448818897
0
LINE
8
BLACK
6
CONTINUOUS
10
1.1183263385826772
20
-1.0243759448818897
11
1.1092467322834645
21
-1.0186708267716535
0
LINE
8
BLACK
6
CONTINUOUS
10
1.1092467322834645
20
-1.0186708267716535
11
1.0995854330708661
21
-1.014018188976378
0
LINE
8
BLACK
6
CONTINUOUS
10
1.0995854330708661
20
-1.014018188976378
11
1.089463937007874
21
-1.0104765354330709
0
LINE
8
BLACK
6
CONTINUOUS
10
1.089463937007874
20
-1.0104765354330709
11
1.0790095669291337
21
-1.0080903937007875
0
LINE
8
BLACK
6
CONTINUOUS
10
1.0790095669291337
20
-1.0080903937007875
11
1.0683537401574803
21
-1.0068897637795275
0
LINE
8
BLACK
6
CONTINUOUS
10
1.0683537401574803
20
-1.0068897637795275
11
1.0576305118110236
21
-1.0068897637795275
0
LINE
8
BLACK
6
CONTINUOUS
10
1.0576305118110236
20
-1.0068897637795275
11
1.04697468503937
21
-1.0080903937007875
0
LINE
8
BLACK
6
CONTINUOUS
10
1.04697468503937
20
-1.0080903937007875
11
1.0365203149606299
21
-1.0104765354330709
0
LINE
8
BLACK
6
CONTINUOUS
10
1.0365203149606299
20
-1.0104765354330709
11
1.0263988188976378
21
-1.014018188976378
0
LINE
8
BLACK
6
CONTINUOUS
10
1.0263988188976378
20
-1.014018188976378
11
1.0167375196850394
21
-1.0186708267716535
0
LINE
8
BLACK
6
CONTINUOUS
10
1.0167375196850394
20
-1.0186708267716535
11
1.0076579133858268
21
-1.0243759448818897
0
LINE
8
BLACK
6
CONTINUOUS
10
1.0076579133858268
20
-1.0243759448818897
11
0.9992741338582677
21
-1.0310617716535433
0
LINE
8
BLACK
6
CONTINUOUS
10
0.9992741338582677
20
-1.0310617716535433
11
0.9916916929133858
21
-1.0386442125984252
0
LINE
8
BLACK
6
CONTINUOUS
10
0.9916916929133858
20
-1.0386442125984252
11
0.9850058661417322
21
-1.0470279921259842
0
LINE
8
BLACK
6
CONTINUOUS
10
0.9850058661417322
20
-1.0470279921259842
11
0.979300748031496
21
-1.0561075984251969
0
LINE
8
BLACK
6
CONTINUOUS
10
0.979300748031496
20
-1.0561075984251969
11
0.9746481102362204
21
-1.0657688976377953
0
LINE
8
BLACK
6
CONTINUOUS
10
0.9746481102362204
20
-1.0657688976377953
11
0.9711064566929134
21
-1.0758903937007873
0
LINE
8
BLACK
6
CONTINUOUS
10
0.9711064566929134
20
-1.0758903937007873
11
0.9687203149606299
21
-1.0863447637795276
0
LINE
8
BLACK
6
CONTINUOUS
10
0.9687203149606299
20
-1.0863447637795276
11
0.96751968503937
21
-1.097000590551181
0
LINE
8
BLACK
6
CONTINUOUS
10
0.96751968503937
20
-1.097000590551181
11
0.96751968503937
21
-1.1077238188976377
0
LINE
8
BLACK
6
CONTINUOUS
10
7.3791861811023622
20
-1.0024166141732282
11
7.3902697244094488
21
-1.0049463779527559
0
LINE
8
BLACK
6
CONTINUOUS
10
7.3902697244094488
20
-1.0049463779527559
11
7.4010003937007873
21
-1.0087011811023623
0
LINE
8
BLACK
6
CONTINUOUS
10
7.4010003937007873
20
-1.0087011811023623
11
7.4112431496062987
21
-1.0136338582677165
0
LINE
8
BLACK
6
CONTINUOUS
10
7.4112431496062987
20
-1.0136338582677165
11
7.4208692519685036
21
-1.0196823228346457
0
LINE
8
BLACK
6
CONTINUOUS
10
7.4208692519685036
20
-1.0196823228346457
11
7.4297575590551181
21
-1.0267705118110235
0
LINE
8
BLACK
6
CONTINUOUS
10
7.4297575590551181
20
-1.0267705118110235
11
7.4377964173228346
21
-1.0348093700787402
0
LINE
8
BLACK
6
CONTINUOUS
10
7.4377964173228346
20
-1.0348093700787402
11
7.4448846062992127
21
-1.0436976771653543
0
LINE
8
BLACK
6
CONTINUOUS
10
7.4448846062992127
20
-1.0436976771653543
11
7.4509330708661414
21
-1.053323779527559
0
LINE
8
BLACK
6
CONTINUOUS
10
7.4509330708661414
20
-1.053323779527559
11
7.4558657480314956
21
-1.0635665354330708
0
LINE
8
BLACK
6
CONTINUOUS
10
7.4558657480314956
20
-1.0635665354330708
11
7.4596205511811018
21
-1.0742972047244095
0
LINE
8
BLACK
6
CONTINUOUS
10
7.4596205511811018
20
-1.0742972047244095
11
7.4621503149606294
21
-1.0853807480314961
0
LINE
8
BLACK
6
CONTINUOUS
10
7.4621503149606294
20
-1.0853807480314961
11
7.4634231889763774
21
-1.0966779133858267
0
LINE
8
BLACK
6
CONTINUOUS
10
7.4634231889763774
20
-1.0966779133858267
11
7.4634231889763774
21
-1.1080464960629921
0
LINE
8
BLACK
6
CONTINUOUS
10
7.4634231889763774
20
-1.1080464960629921
11
7.4621503149606294
21
-1.1193436614173229
0
LINE
8
BLACK
6
CONTINUOUS
10
7.4621503149606294
20
-1.1193436614173229
11
7.4596205511811018
21
-1.1304272047244095
0
LINE
8
BLACK
6
CONTINUOUS
10
7.4596205511811018
20
-1.1304272047244095
11
7.4558657480314956
21
-1.141157874015748
0
LINE
8
BLACK
6
CONTINUOUS
10
7.4558657480314956
20
-1.141157874015748
11
7.4509330708661414
21
-1.1514006299212598
0
LINE
8
BLACK
6
CONTINUOUS
10
7.4509330708661414
20
-1.1514006299212598
11
7.4448846062992127
21
-1.1610267322834646
0
LINE
8
BLACK
6
CONTINUOUS
10
7.4448846062992127
20
-1.1610267322834646
11
7.4377964173228346
21
-1.1699150393700788
0
LINE
8
BLACK
6
CONTINUOUS
10
7.4377964173228346
20
-1.1699150393700788
11
7.4297575590551181
21
-1.1779538976377952
0
LINE
8
BLACK
6
CONTINUOUS
10
7.4297575590551181
20
-1.1779538976377952
11
7.4208692519685036
21
-1.1850420866141731
0
LINE
8
BLACK
6
CONTINUOUS
10
7.4208692519685036
20
-1.1850420866141731
11
7.4112431496062987
21
-1.1910905511811023
0
LINE
8
BLACK
6
CONTINUOUS
10
7.4112431496062987
20
-1.1910905511811023
11
7.4010003937007873
21
-1.1960232283464567
0
LINE
8
BLACK
6
CONTINUOUS
10
7.4010003937007873
20
-1.1960232283464567
11
7.3902697244094488
21
-1.1997780314960629
0
LINE
8
BLACK
6
CONTINUOUS
10
7.3902697244094488
20
-1.1997780314960629
11
7.3791861811023622
21
-1.2023077952755905
0
LINE
8
BLACK
6
CONTINUOUS
10
7.3791861811023622
20
-1.2023077952755905
11
7.3678890157480312
21
-1.2035806692913384
0
LINE
8
BLACK
6
CONTINUOUS
10
7.3678890157480312
20
-1.2035806692913384
11
7.356520433070866
21
-1.2035806692913384
0
LINE
8
BLACK
6
CONTINUOUS
10
7.356520433070866
20
-1.2035806692913384
11
7.345223267716535
21
-1.2023077952755905
0
LINE
8
BLACK
6
CONTINUOUS
10
7.345223267716535
20
-1.2023077952755905
11
7.3341397244094484
21
-1.1997780314960629
0
LINE
8
BLACK
6
CONTINUOUS
10
7.3341397244094484
20
-1.1997780314960629
11
7.3234090551181099
21
-1.1960232283464567
0
LINE
8
BLACK
6
CONTINUOUS
10
7.3234090551181099
20
-1.1960232283464567
11
7.3131662992125985
21
-1.1910905511811023
0
LINE
8
BLACK
6
CONTINUOUS
10
7.3131662992125985
20
-1.1910905511811023
11
7.3035401968503937
21
-1.1850420866141731
0
LINE
8
BLACK
6
CONTINUOUS
10
7.3035401968503937
20
-1.1850420866141731
11
7.2946518897637791
21
-1.1779538976377952
0
LINE
8
BLACK
6
CONTINUOUS
10
7.2946518897637791
20
-1.1779538976377952
11
7.2866130314960627
21
-1.1699150393700788
0
LINE
8
BLACK
6
CONTINUOUS
10
7.2866130314960627
20
-1.1699150393700788
11
7.2795248425196846
21
-1.1610267322834646
0
LINE
8
BLACK
6
CONTINUOUS
10
7.2795248425196846
20
-1.1610267322834646
11
7.2734763779527558
21
-1.1514006299212598
0
LINE
8
BLACK
6
CONTINUOUS
10
7.2734763779527558
20
-1.1514006299212598
11
7.2685437007874016
21
-1.141157874015748
0
LINE
8
BLACK
6
CONTINUOUS
10
7.2685437007874016
20
-1.141157874015748
11
7.2647888976377955
21
-1.1304272047244095
0
LINE
8
BLACK
6
CONTINUOUS
10
7.2647888976377955
20
-1.1304272047244095
11
7.2622591338582678
21
-1.1193436614173229
0
LINE
8
BLACK
6
CONTINUOUS
10
7.2622591338582678
20
-1.1193436614173229
11
7.2609862598425199
21
-1.1080464960629921
0
LINE
8
BLACK
6
CONTINUOUS
10
7.2609862598425199
20
-1.1080464960629921
11
7.2609862598425199
21
-1.097000590551181
0
LINE
8
BLACK
6
CONTINUOUS
10
7.2609862598425199
20
-1.097000590551181
11
7.2609862598425199
21
-1.0966779133858267
0
LINE
8
BLACK
6
CONTINUOUS
10
7.2609862598425199
20
-1.0966779133858267
11
7.2622591338582678
21
-1.0853807480314961
0
LINE
8
BLACK
6
CONTINUOUS
10
7.2622591338582678
20
-1.0853807480314961
11
7.2647888976377955
21
-1.0742972047244095
0
LINE
8
BLACK
6
CONTINUOUS
10
7.2647888976377955
20
-1.0742972047244095
11
7.2685437007874016
21
-1.0635665354330708
0
LINE
8
BLACK
6
CONTINUOUS
10
7.2685437007874016
20
-1.0635665354330708
11
7.2734763779527558
21
-1.053323779527559
0
LINE
8
BLACK
6
CONTINUOUS
10
7.2734763779527558
20
-1.053323779527559
11
7.2795248425196846
21
-1.0436976771653543
0
LINE
8
BLACK
6
CONTINUOUS
10
7.2795248425196846
20
-1.0436976771653543
11
7.2866130314960627
21
-1.0348093700787402
0
LINE
8
BLACK
6
CONTINUOUS
10
7.2866130314960627
20
-1.0348093700787402
11
7.2946518897637791
21
-1.0267705118110235
0
LINE
8
BLACK
6
CONTINUOUS
10
7.2946518897637791
20
-1.0267705118110235
11
7.3035401968503937
21
-1.0196823228346457
0
LINE
8
BLACK
6
CONTINUOUS
10
7.3035401968503937
20
-1.0196823228346457
11
7.3131662992125985
21
-1.0136338582677165
0
LINE
8
BLACK
6
CONTINUOUS
10
7.3131662992125985
20
-1.0136338582677165
11
7.3234090551181099
21
-1.0087011811023623
0
LINE
8
BLACK
6
CONTINUOUS
10
7.3234090551181099
20
-1.0087011811023623
11
7.3341397244094484
21
-1.0049463779527559
0
LINE
8
BLACK
6
CONTINUOUS
10
7.3341397244094484
20
-1.0049463779527559
11
7.345223267716535
21
-1.0024166141732282
0
LINE
8
BLACK
6
CONTINUOUS
10
7.345223267716535
20
-1.0024166141732282
11
7.356520433070866
21
-1.0011437401574803
0
LINE
8
BLACK
6
CONTINUOUS
10
7.356520433070866
20
-1.0011437401574803
11
7.3678890157480312
21
-1.0011437401574803
0
LINE
8
BLACK
6
CONTINUOUS
10
7.3678890157480312
20
-1.0011437401574803
11
7.3791861811023622
21
-1.0024166141732282
0
LINE
8
BLACK
6
CONTINUOUS
10
7.2667322834645667
20
-1.1077238188976377
11
7.2679329133858266
21
-1.1183796456692914
0
LINE
8
BLACK
6
CONTINUOUS
10
7.2679329133858266
20
-1.1183796456692914
11
7.2703190551181098
21
-1.1288340157480314
0
LINE
8
BLACK
6
CONTINUOUS
10
7.2703190551181098
20
-1.1288340157480314
11
7.2738607086614175
21
-1.1389555118110235
0
LINE
8
BLACK
6
CONTINUOUS
10
7.2738607086614175
20
-1.1389555118110235
11
7.2785133464566929
21
-1.1486168110236221
0
LINE
8
BLACK
6
CONTINUOUS
10
7.2785133464566929
20
-1.1486168110236221
11
7.284218464566929
21
-1.1576964173228346
0
LINE
8
BLACK
6
CONTINUOUS
10
7.284218464566929
20
-1.1576964173228346
11
7.2909042913385829
21
-1.1660801968503938
0
LINE
8
BLACK
6
CONTINUOUS
10
7.2909042913385829
20
-1.1660801968503938
11
7.2984867322834646
21
-1.1736626377952755
0
LINE
8
BLACK
6
CONTINUOUS
10
7.2984867322834646
20
-1.1736626377952755
11
7.3068705118110238
21
-1.1803484645669291
0
LINE
8
BLACK
6
CONTINUOUS
10
7.3068705118110238
20
-1.1803484645669291
11
7.3159501181102362
21
-1.1860535826771654
0
LINE
8
BLACK
6
CONTINUOUS
10
7.3159501181102362
20
-1.1860535826771654
11
7.3256114173228344
21
-1.190706220472441
0
LINE
8
BLACK
6
CONTINUOUS
10
7.3256114173228344
20
-1.190706220472441
11
7.3357329133858267
21
-1.1942478740157481
0
LINE
8
BLACK
6
CONTINUOUS
10
7.3357329133858267
20
-1.1942478740157481
11
7.346187283464567
21
-1.1966340157480315
0
LINE
8
BLACK
6
CONTINUOUS
10
7.346187283464567
20
-1.1966340157480315
11
7.3568431102362206
21
-1.1978346456692912
0
LINE
8
BLACK
6
CONTINUOUS
10
7.3568431102362206
20
-1.1978346456692912
11
7.3675663385826766
21
-1.1978346456692912
0
LINE
8
BLACK
6
CONTINUOUS
10
7.3675663385826766
20
-1.1978346456692912
11
7.3782221653543303
21
-1.1966340157480315
0
LINE
8
BLACK
6
CONTINUOUS
10
7.3782221653543303
20
-1.1966340157480315
11
7.3886765354330706
21
-1.1942478740157481
0
LINE
8
BLACK
6
CONTINUOUS
10
7.3886765354330706
20
-1.1942478740157481
11
7.3987980314960629
21
-1.190706220472441
0
LINE
8
BLACK
6
CONTINUOUS
10
7.3987980314960629
20
-1.190706220472441
11
7.408459330708661
21
-1.1860535826771654
0
LINE
8
BLACK
6
CONTINUOUS
10
7.408459330708661
20
-1.1860535826771654
11
7.4175389370078735
21
-1.1803484645669291
0
LINE
8
BLACK
6
CONTINUOUS
10
7.4175389370078735
20
-1.1803484645669291
11
7.4259227165354327
21
-1.1736626377952755
0
LINE
8
BLACK
6
CONTINUOUS
10
7.4259227165354327
20
-1.1736626377952755
11
7.4335051574803144
21
-1.1660801968503938
0
LINE
8
BLACK
6
CONTINUOUS
10
7.4335051574803144
20
-1.1660801968503938
11
7.4401909842519682
21
-1.1576964173228346
0
LINE
8
BLACK
6
CONTINUOUS
10
7.4401909842519682
20
-1.1576964173228346
11
7.4458961023622043
21
-1.1486168110236221
0
LINE
8
BLACK
6
CONTINUOUS
10
7.4458961023622043
20
-1.1486168110236221
11
7.4505487401574806
21
-1.1389555118110235
0
LINE
8
BLACK
6
CONTINUOUS
10
7.4505487401574806
20
-1.1389555118110235
11
7.4540903937007874
21
-1.1288340157480314
0
LINE
8
BLACK
6
CONTINUOUS
10
7.4540903937007874
20
-1.1288340157480314
11
7.4564765354330707
21
-1.1183796456692914
0
LINE
8
BLACK
6
CONTINUOUS
10
7.4564765354330707
20
-1.1183796456692914
11
7.4576771653543306
21
-1.1077238188976377
0
LINE
8
BLACK
6
CONTINUOUS
10
7.4576771653543306
20
-1.1077238188976377
11
7.4576771653543306
21
-1.097000590551181
0
LINE
8
BLACK
6
CONTINUOUS
10
7.4576771653543306
20
-1.097000590551181
11
7.4564765354330707
21
-1.0863447637795276
0
LINE
8
BLACK
6
CONTINUOUS
10
7.4564765354330707
20
-1.0863447637795276
11
7.4540903937007874
21
-1.0758903937007873
0
LINE
8
BLACK
6
CONTINUOUS
10
7.4540903937007874
20
-1.0758903937007873
11
7.4505487401574806
21
-1.0657688976377953
0
LINE
8
BLACK
6
CONTINUOUS
10
7.4505487401574806
20
-1.0657688976377953
11
7.4458961023622043
21
-1.0561075984251969
0
LINE
8
BLACK
6
CONTINUOUS
10
7.4458961023622043
20
-1.0561075984251969
11
7.4401909842519682
21
-1.0470279921259842
0
LINE
8
BLACK
6
CONTINUOUS
10
7.4401909842519682
20
-1.0470279921259842
11
7.4335051574803144
21
-1.0386442125984252
0
LINE
8
BLACK
6
CONTINUOUS
10
7.4335051574803144
20
-1.0386442125984252
11
7.4259227165354327
21
-1.0310617716535433
0
LINE
8
BLACK
6
CONTINUOUS
10
7.4259227165354327
20
-1.0310617716535433
11
7.4175389370078735
21
-1.0243759448818897
0
LINE
8
BLACK
6
CONTINUOUS
10
7.4175389370078735
20
-1.0243759448818897
11
7.408459330708661
21
-1.0186708267716535
0
LINE
8
BLACK
6
CONTINUOUS
10
7.408459330708661
20
-1.0186708267716535
11
7.3987980314960629
21
-1.014018188976378
0
LINE
8
BLACK
6
CONTINUOUS
10
7.3987980314960629
20
-1.014018188976378
11
7.3886765354330706
21
-1.0104765354330709
0
LINE
8
BLACK
6
CONTINUOUS
10
7.3886765354330706
20
-1.0104765354330709
11
7.3782221653543303
21
-1.0080903937007875
0
LINE
8
BLACK
6
CONTINUOUS
10
7.3782221653543303
20
-1.0080903937007875
11
7.3675663385826766
21
-1.0068897637795275
0
LINE
8
BLACK
6
CONTINUOUS
10
7.3675663385826766
20
-1.0068897637795275
11
7.3568431102362206
21
-1.0068897637795275
0
LINE
8
BLACK
6
CONTINUOUS
10
7.3568431102362206
20
-1.0068897637795275
11
7.346187283464567
21
-1.0080903937007875
0
LINE
8
BLACK
6
CONTINUOUS
10
7.346187283464567
20
-1.0080903937007875
11
7.3357329133858267
21
-1.0104765354330709
0
LINE
8
BLACK
6
CONTINUOUS
10
7.3357329133858267
20
-1.0104765354330709
11
7.3256114173228344
21
-1.014018188976378
0
LINE
8
BLACK
6
CONTINUOUS
10
7.3256114173228344
20
-1.014018188976378
11
7.3159501181102362
21
-1.0186708267716535
0
LINE
8
BLACK
6
CONTINUOUS
10
7.3159501181102362
20
-1.0186708267716535
11
7.3068705118110238
21
-1.0243759448818897
0
LINE
8
BLACK
6
CONTINUOUS
10
7.3068705118110238
20
-1.0243759448818897
11
7.2984867322834646
21
-1.0310617716535433
0
LINE
8
BLACK
6
CONTINUOUS
10
7.2984867322834646
20
-1.0310617716535433
11
7.2909042913385829
21
-1.0386442125984252
0
LINE
8
BLACK
6
CONTINUOUS
10
7.2909042913385829
20
-1.0386442125984252
11
7.284218464566929
21
-1.0470279921259842
0
LINE
8
BLACK
6
CONTINUOUS
10
7.284218464566929
20
-1.0470279921259842
11
7.2785133464566929
21
-1.0561075984251969
0
LINE
8
BLACK
6
CONTINUOUS
10
7.2785133464566929
20
-1.0561075984251969
11
7.2738607086614175
21
-1.0657688976377953
0
LINE
8
BLACK
6
CONTINUOUS
10
7.2738607086614175
20
-1.0657688976377953
11
7.2703190551181098
21
-1.0758903937007873
0
LINE
8
BLACK
6
CONTINUOUS
10
7.2703190551181098
20
-1.0758903937007873
11
7.2679329133858266
21
-1.0863447637795276
0
LINE
8
BLACK
6
CONTINUOUS
10
7.2679329133858266
20
-1.0863447637795276
11
7.2667322834645667
21
-1.097000590551181
0
LINE
8
BLACK
6
CONTINUOUS
10
7.2667322834645667
20
-1.097000590551181
11
7.2667322834645667
21
-1.1077238188976377
0
CIRCLE
8
BLACK
10
6.6929133858267713
20
-5.2362204724409445
40
0.0492125984251968
0
CIRCLE
8
BLACK
10
7.3622047244094491
20
-1.1023622047244095
40
0.0492125984251968
0
CIRCLE
8
BLACK
10
2.1456692913385824
20
-2.9606299212598426
40
0.0334645669291339
0
CIRCLE
8
BLACK
10
2.1456692913385824
20
-5.0078740157480315
40
0.0334645669291339
0
CIRCLE
8
BLACK
10
3.326771653543307
20
-2.9606299212598426
40
0.0334645669291339
0
CIRCLE
8
BLACK
10
3.326771653543307
20
-5.0078740157480315
40
0.0334645669291339
0
CIRCLE
8
BLACK
10
1.7322834645669292
20
-5.2362204724409445
40
0.0492125984251968
0
CIRCLE
8
BLACK
10
4.21259842519685
20
-4.0551181102362204
40
0.0492125984251968
0
CIRCLE
8
BLACK
10
1.0629921259842519
20
-1.1023622047244095
40
0.0492125984251968
0
CIRCLE
8
BLACK
10
5.0984251968503935
20
-2.9606299212598426
40
0.0334645669291339
0
CIRCLE
8
BLACK
10
5.0984251968503935
20
-5.0078740157480315
40
0.0334645669291339
0
CIRCLE
8
BLACK
10
6.2795275590551176
20
-2.9606299212598426
40
0.0334645669291339
0
CIRCLE
8
BLACK
10
6.2795275590551176
20
-5.0078740157480315
40
0.0334645669291339
  0
ENDSEC
  0
EOF
