G04 #@! TF.GenerationSoftware,KiCad,Pcbnew,8.0.4+1*
G04 #@! TF.CreationDate,2024-10-05T14:06:02+00:00*
G04 #@! TF.ProjectId,pedalboard-display,70656461-6c62-46f6-9172-642d64697370,0.0.0-RC1*
G04 #@! TF.SameCoordinates,Original*
G04 #@! TF.FileFunction,Soldermask,Bot*
G04 #@! TF.FilePolarity,Negative*
%FSLAX46Y46*%
G04 Gerber Fmt 4.6, Leading zero omitted, Abs format (unit mm)*
G04 Created by KiCad (PCBNEW 8.0.4+1) date 2024-10-05 14:06:02*
%MOMM*%
%LPD*%
G01*
G04 APERTURE LIST*
G04 APERTURE END LIST*
G36*
G01*
X22700000Y-108500000D02*
X27700000Y-108500000D01*
G75*
G02*
X27950000Y-108750000I0J-250000D01*
G01*
X27950000Y-109250000D01*
G75*
G02*
X27700000Y-109500000I-250000J0D01*
G01*
X22700000Y-109500000D01*
G75*
G02*
X22450000Y-109250000I0J250000D01*
G01*
X22450000Y-108750000D01*
G75*
G02*
X22700000Y-108500000I250000J0D01*
G01*
G37*
G36*
G01*
X22700000Y-110500000D02*
X27700000Y-110500000D01*
G75*
G02*
X27950000Y-110750000I0J-250000D01*
G01*
X27950000Y-111250000D01*
G75*
G02*
X27700000Y-111500000I-250000J0D01*
G01*
X22700000Y-111500000D01*
G75*
G02*
X22450000Y-111250000I0J250000D01*
G01*
X22450000Y-110750000D01*
G75*
G02*
X22700000Y-110500000I250000J0D01*
G01*
G37*
G36*
G01*
X22700000Y-112500000D02*
X27700000Y-112500000D01*
G75*
G02*
X27950000Y-112750000I0J-250000D01*
G01*
X27950000Y-113250000D01*
G75*
G02*
X27700000Y-113500000I-250000J0D01*
G01*
X22700000Y-113500000D01*
G75*
G02*
X22450000Y-113250000I0J250000D01*
G01*
X22450000Y-112750000D01*
G75*
G02*
X22700000Y-112500000I250000J0D01*
G01*
G37*
G36*
G01*
X21700000Y-105800000D02*
X24200000Y-105800000D01*
G75*
G02*
X24450000Y-106050000I0J-250000D01*
G01*
X24450000Y-107150000D01*
G75*
G02*
X24200000Y-107400000I-250000J0D01*
G01*
X21700000Y-107400000D01*
G75*
G02*
X21450000Y-107150000I0J250000D01*
G01*
X21450000Y-106050000D01*
G75*
G02*
X21700000Y-105800000I250000J0D01*
G01*
G37*
G36*
G01*
X21700000Y-114600000D02*
X24200000Y-114600000D01*
G75*
G02*
X24450000Y-114850000I0J-250000D01*
G01*
X24450000Y-115950000D01*
G75*
G02*
X24200000Y-116200000I-250000J0D01*
G01*
X21700000Y-116200000D01*
G75*
G02*
X21450000Y-115950000I0J250000D01*
G01*
X21450000Y-114850000D01*
G75*
G02*
X21700000Y-114600000I250000J0D01*
G01*
G37*
G36*
G01*
X109500000Y-33000000D02*
X109500000Y-38000000D01*
G75*
G02*
X109250000Y-38250000I-250000J0D01*
G01*
X108750000Y-38250000D01*
G75*
G02*
X108500000Y-38000000I0J250000D01*
G01*
X108500000Y-33000000D01*
G75*
G02*
X108750000Y-32750000I250000J0D01*
G01*
X109250000Y-32750000D01*
G75*
G02*
X109500000Y-33000000I0J-250000D01*
G01*
G37*
G36*
G01*
X107500000Y-33000000D02*
X107500000Y-38000000D01*
G75*
G02*
X107250000Y-38250000I-250000J0D01*
G01*
X106750000Y-38250000D01*
G75*
G02*
X106500000Y-38000000I0J250000D01*
G01*
X106500000Y-33000000D01*
G75*
G02*
X106750000Y-32750000I250000J0D01*
G01*
X107250000Y-32750000D01*
G75*
G02*
X107500000Y-33000000I0J-250000D01*
G01*
G37*
G36*
G01*
X105500000Y-33000000D02*
X105500000Y-38000000D01*
G75*
G02*
X105250000Y-38250000I-250000J0D01*
G01*
X104750000Y-38250000D01*
G75*
G02*
X104500000Y-38000000I0J250000D01*
G01*
X104500000Y-33000000D01*
G75*
G02*
X104750000Y-32750000I250000J0D01*
G01*
X105250000Y-32750000D01*
G75*
G02*
X105500000Y-33000000I0J-250000D01*
G01*
G37*
G36*
G01*
X112200000Y-32000000D02*
X112200000Y-34500000D01*
G75*
G02*
X111950000Y-34750000I-250000J0D01*
G01*
X110850000Y-34750000D01*
G75*
G02*
X110600000Y-34500000I0J250000D01*
G01*
X110600000Y-32000000D01*
G75*
G02*
X110850000Y-31750000I250000J0D01*
G01*
X111950000Y-31750000D01*
G75*
G02*
X112200000Y-32000000I0J-250000D01*
G01*
G37*
G36*
G01*
X103400000Y-32000000D02*
X103400000Y-34500000D01*
G75*
G02*
X103150000Y-34750000I-250000J0D01*
G01*
X102050000Y-34750000D01*
G75*
G02*
X101800000Y-34500000I0J250000D01*
G01*
X101800000Y-32000000D01*
G75*
G02*
X102050000Y-31750000I250000J0D01*
G01*
X103150000Y-31750000D01*
G75*
G02*
X103400000Y-32000000I0J-250000D01*
G01*
G37*
M02*
