%TF.GenerationSoftware,KiCad,Pcbnew,8.0.4+1*%
%TF.CreationDate,2024-10-04T17:30:48+00:00*%
%TF.ProjectId,pedalboard-display,70656461-6c62-46f6-9172-642d64697370,0.0.0-RC1*%
%TF.SameCoordinates,Original*%
%TF.FileFunction,Drillmap*%
%TF.FilePolarity,Positive*%
%FSLAX45Y45*%
G04 Gerber Fmt 4.5, Leading zero omitted, Abs format (unit mm)*
G04 Created by KiCad (PCBNEW 8.0.4+1) date 2024-10-04 17:30:48*
%MOMM*%
%LPD*%
G01*
G04 APERTURE LIST*
%ADD10C,0.100000*%
%ADD11C,0.200000*%
G04 APERTURE END LIST*
D10*
X2500000Y-13600000D02*
X11200000Y-13600000D01*
X18810000Y-12400000D02*
G75*
G02*
X17590000Y-12400000I-610000J0D01*
G01*
X17590000Y-12400000D02*
G75*
G02*
X18810000Y-12400000I610000J0D01*
G01*
X2400000Y-2600000D02*
G75*
G02*
X2500000Y-2500000I100000J0D01*
G01*
X2000000Y-3200000D02*
G75*
G02*
X2100000Y-3100000I100000J0D01*
G01*
X12420000Y-2500000D02*
X18900000Y-2500000D01*
X2400000Y-13300000D02*
X2400000Y-13500000D01*
X19000000Y-2600000D02*
X19000000Y-2800000D01*
X19300000Y-3100000D02*
G75*
G02*
X19400000Y-3200000I0J-100000D01*
G01*
X2100000Y-13000000D02*
G75*
G02*
X2000000Y-12900000I0J100000D01*
G01*
X11200000Y-2500000D02*
G75*
G02*
X10200000Y-2500000I-500000J0D01*
G01*
X11200000Y-13600000D02*
X18900000Y-13600000D01*
X15110000Y-3900000D02*
G75*
G02*
X13890000Y-3900000I-610000J0D01*
G01*
X13890000Y-3900000D02*
G75*
G02*
X15110000Y-3900000I610000J0D01*
G01*
X2400000Y-2800000D02*
G75*
G02*
X2100000Y-3100000I-300000J0D01*
G01*
X9420000Y-2500000D02*
X10200000Y-2500000D01*
X7610000Y-3900000D02*
G75*
G02*
X6390000Y-3900000I-610000J0D01*
G01*
X6390000Y-3900000D02*
G75*
G02*
X7610000Y-3900000I610000J0D01*
G01*
X18810000Y-7200000D02*
G75*
G02*
X17590000Y-7200000I-610000J0D01*
G01*
X17590000Y-7200000D02*
G75*
G02*
X18810000Y-7200000I610000J0D01*
G01*
X3810000Y-12400000D02*
G75*
G02*
X2590000Y-12400000I-610000J0D01*
G01*
X2590000Y-12400000D02*
G75*
G02*
X3810000Y-12400000I610000J0D01*
G01*
X11310000Y-7200000D02*
G75*
G02*
X10090000Y-7200000I-610000J0D01*
G01*
X10090000Y-7200000D02*
G75*
G02*
X11310000Y-7200000I610000J0D01*
G01*
X19400000Y-3200000D02*
X19400000Y-12900000D01*
X19000000Y-13500000D02*
G75*
G02*
X18900000Y-13600000I-100000J0D01*
G01*
X3810000Y-7200000D02*
G75*
G02*
X2590000Y-7200000I-610000J0D01*
G01*
X2590000Y-7200000D02*
G75*
G02*
X3810000Y-7200000I610000J0D01*
G01*
X11200000Y-2500000D02*
X12420000Y-2500000D01*
X2500000Y-13600000D02*
G75*
G02*
X2400000Y-13500000I0J100000D01*
G01*
X19400000Y-12900000D02*
G75*
G02*
X19300000Y-13000000I-100000J0D01*
G01*
X18900000Y-2500000D02*
G75*
G02*
X19000000Y-2600000I0J-100000D01*
G01*
X19300000Y-3100000D02*
G75*
G02*
X19000000Y-2800000I0J300000D01*
G01*
X2000000Y-12900000D02*
X2000000Y-3200000D01*
X9420000Y-2500000D02*
X2500000Y-2500000D01*
X19000000Y-13300000D02*
X19000000Y-13500000D01*
X19000000Y-13300000D02*
G75*
G02*
X19300000Y-13000000I300000J0D01*
G01*
X2400000Y-2600000D02*
X2400000Y-2800000D01*
X11310000Y-12400000D02*
G75*
G02*
X10090000Y-12400000I-610000J0D01*
G01*
X10090000Y-12400000D02*
G75*
G02*
X11310000Y-12400000I610000J0D01*
G01*
X2100000Y-13000000D02*
G75*
G02*
X2400000Y-13300000I0J-300000D01*
G01*
D11*
X2255777Y-13916484D02*
X2255777Y-13716484D01*
X2255777Y-13716484D02*
X2303396Y-13716484D01*
X2303396Y-13716484D02*
X2331967Y-13726008D01*
X2331967Y-13726008D02*
X2351015Y-13745055D01*
X2351015Y-13745055D02*
X2360539Y-13764103D01*
X2360539Y-13764103D02*
X2370063Y-13802198D01*
X2370063Y-13802198D02*
X2370063Y-13830769D01*
X2370063Y-13830769D02*
X2360539Y-13868865D01*
X2360539Y-13868865D02*
X2351015Y-13887912D01*
X2351015Y-13887912D02*
X2331967Y-13906960D01*
X2331967Y-13906960D02*
X2303396Y-13916484D01*
X2303396Y-13916484D02*
X2255777Y-13916484D01*
X2455777Y-13916484D02*
X2455777Y-13783150D01*
X2455777Y-13821246D02*
X2465301Y-13802198D01*
X2465301Y-13802198D02*
X2474824Y-13792674D01*
X2474824Y-13792674D02*
X2493872Y-13783150D01*
X2493872Y-13783150D02*
X2512920Y-13783150D01*
X2579586Y-13916484D02*
X2579586Y-13783150D01*
X2579586Y-13716484D02*
X2570063Y-13726008D01*
X2570063Y-13726008D02*
X2579586Y-13735531D01*
X2579586Y-13735531D02*
X2589110Y-13726008D01*
X2589110Y-13726008D02*
X2579586Y-13716484D01*
X2579586Y-13716484D02*
X2579586Y-13735531D01*
X2703396Y-13916484D02*
X2684348Y-13906960D01*
X2684348Y-13906960D02*
X2674824Y-13887912D01*
X2674824Y-13887912D02*
X2674824Y-13716484D01*
X2808158Y-13916484D02*
X2789110Y-13906960D01*
X2789110Y-13906960D02*
X2779586Y-13887912D01*
X2779586Y-13887912D02*
X2779586Y-13716484D01*
X3036729Y-13916484D02*
X3036729Y-13716484D01*
X3036729Y-13716484D02*
X3103396Y-13859341D01*
X3103396Y-13859341D02*
X3170062Y-13716484D01*
X3170062Y-13716484D02*
X3170062Y-13916484D01*
X3351015Y-13916484D02*
X3351015Y-13811722D01*
X3351015Y-13811722D02*
X3341491Y-13792674D01*
X3341491Y-13792674D02*
X3322443Y-13783150D01*
X3322443Y-13783150D02*
X3284348Y-13783150D01*
X3284348Y-13783150D02*
X3265301Y-13792674D01*
X3351015Y-13906960D02*
X3331967Y-13916484D01*
X3331967Y-13916484D02*
X3284348Y-13916484D01*
X3284348Y-13916484D02*
X3265301Y-13906960D01*
X3265301Y-13906960D02*
X3255777Y-13887912D01*
X3255777Y-13887912D02*
X3255777Y-13868865D01*
X3255777Y-13868865D02*
X3265301Y-13849817D01*
X3265301Y-13849817D02*
X3284348Y-13840293D01*
X3284348Y-13840293D02*
X3331967Y-13840293D01*
X3331967Y-13840293D02*
X3351015Y-13830769D01*
X3446253Y-13783150D02*
X3446253Y-13983150D01*
X3446253Y-13792674D02*
X3465301Y-13783150D01*
X3465301Y-13783150D02*
X3503396Y-13783150D01*
X3503396Y-13783150D02*
X3522443Y-13792674D01*
X3522443Y-13792674D02*
X3531967Y-13802198D01*
X3531967Y-13802198D02*
X3541491Y-13821246D01*
X3541491Y-13821246D02*
X3541491Y-13878388D01*
X3541491Y-13878388D02*
X3531967Y-13897436D01*
X3531967Y-13897436D02*
X3522443Y-13906960D01*
X3522443Y-13906960D02*
X3503396Y-13916484D01*
X3503396Y-13916484D02*
X3465301Y-13916484D01*
X3465301Y-13916484D02*
X3446253Y-13906960D01*
X3627205Y-13897436D02*
X3636729Y-13906960D01*
X3636729Y-13906960D02*
X3627205Y-13916484D01*
X3627205Y-13916484D02*
X3617682Y-13906960D01*
X3617682Y-13906960D02*
X3627205Y-13897436D01*
X3627205Y-13897436D02*
X3627205Y-13916484D01*
X3627205Y-13792674D02*
X3636729Y-13802198D01*
X3636729Y-13802198D02*
X3627205Y-13811722D01*
X3627205Y-13811722D02*
X3617682Y-13802198D01*
X3617682Y-13802198D02*
X3627205Y-13792674D01*
X3627205Y-13792674D02*
X3627205Y-13811722D01*
M02*
