<?xml version="1.0" standalone="no"?>
 <!DOCTYPE svg PUBLIC "-//W3C//DTD SVG 1.1//EN" 
 "http://www.w3.org/Graphics/SVG/1.1/DTD/svg11.dtd"> 
<svg
  xmlns:svg="http://www.w3.org/2000/svg"
  xmlns="http://www.w3.org/2000/svg"
  xmlns:xlink="http://www.w3.org/1999/xlink"
  version="1.1"
  width="297.0022mm" height="210.0072mm" viewBox="0.0000 0.0000 297.0022 210.0072">
<title>SVG Image created as pedalboard-display-B_Courtyard.svg date 2024/10/09 09:12:35 </title>
  <desc>Image generated by PCBNEW </desc>
<g style="fill:#000000; fill-opacity:1.0000;stroke:#000000; stroke-opacity:1.0000;
stroke-linecap:round; stroke-linejoin:round;"
 transform="translate(0 0) scale(1 1)">
</g>
<g style="fill:none; 
stroke:#000000; stroke-width:0.0500; stroke-opacity:1; 
stroke-linecap:round; stroke-linejoin:round;">
<path d="M63.8880 74.0728
L75.0880 74.0728
" />
<path d="M63.8880 77.6728
L63.8880 74.0728
" />
<path d="M75.0880 74.0728
L75.0880 77.6728
" />
<path d="M75.0880 77.6728
L63.8880 77.6728
" />
<path d="M138.8880 74.0728
L150.0880 74.0728
" />
<path d="M138.8880 77.6728
L138.8880 74.0728
" />
<path d="M150.0880 74.0728
L150.0880 77.6728
" />
<path d="M150.0880 77.6728
L138.8880 77.6728
" />
<path d="M134.8000 74.2325
L136.7000 74.2325
" />
<path d="M134.8000 77.5925
L134.8000 74.2325
" />
<path d="M136.7000 74.2325
L136.7000 77.5925
" />
<path d="M136.7000 77.5925
L134.8000 77.5925
" />
<path d="M136.8000 74.2325
L138.7000 74.2325
" />
<path d="M136.8000 77.5925
L136.8000 74.2325
" />
<path d="M138.7000 74.2325
L138.7000 77.5925
" />
<path d="M138.7000 77.5925
L136.8000 77.5925
" />
<path d="M137.3000 63.2500
L137.3000 71.7500
" />
<path d="M137.3000 71.7500
L150.7000 71.7500
" />
<path d="M150.7000 63.2500
L137.3000 63.2500
" />
<path d="M150.7000 71.7500
L150.7000 63.2500
" />
<path d="M101.3000 44.0000
L101.3000 52.5000
" />
<path d="M101.3000 52.5000
L112.7000 52.5000
" />
<path d="M112.7000 44.0000
L101.3000 44.0000
" />
<path d="M112.7000 52.5000
L112.7000 44.0000
" />
<path d="M101.3000 52.5000
L101.3000 61.0000
" />
<path d="M101.3000 61.0000
L112.7000 61.0000
" />
<path d="M112.7000 52.5000
L101.3000 52.5000
" />
<path d="M112.7000 61.0000
L112.7000 52.5000
" />
</g>
<g style="fill:#000000; fill-opacity:1.0000; stroke:none;">
<circle cx="170.0000" cy="133.0000" r="1.2500" /> 
</g>
<g style="fill:#000000; fill-opacity:1.0000; stroke:none;">
<circle cx="170.0000" cy="28.0000" r="1.2500" /> 
</g>
<g style="fill:#000000; fill-opacity:1.0000; stroke:none;">
<circle cx="54.5000" cy="75.2000" r="0.8500" /> 
</g>
<g style="fill:#000000; fill-opacity:1.0000; stroke:none;">
<circle cx="54.5000" cy="127.2000" r="0.8500" /> 
</g>
<g style="fill:#000000; fill-opacity:1.0000; stroke:none;">
<circle cx="84.5000" cy="75.2000" r="0.8500" /> 
</g>
<g style="fill:#000000; fill-opacity:1.0000; stroke:none;">
<circle cx="84.5000" cy="127.2000" r="0.8500" /> 
</g>
<g style="fill:#000000; fill-opacity:1.0000; stroke:none;">
<circle cx="44.0000" cy="133.0000" r="1.2500" /> 
</g>
<g style="fill:#000000; fill-opacity:1.0000; stroke:none;">
<circle cx="107.0000" cy="103.0000" r="1.2500" /> 
</g>
<g style="fill:#000000; fill-opacity:1.0000; stroke:none;">
<circle cx="44.0000" cy="28.0000" r="1.2500" /> 
</g>
<g style="fill:#000000; fill-opacity:1.0000; stroke:none;">
<circle cx="129.5000" cy="75.2000" r="0.8500" /> 
</g>
<g style="fill:#000000; fill-opacity:1.0000; stroke:none;">
<circle cx="129.5000" cy="127.2000" r="0.8500" /> 
</g>
<g style="fill:#000000; fill-opacity:1.0000; stroke:none;">
<circle cx="159.5000" cy="75.2000" r="0.8500" /> 
</g>
<g style="fill:#000000; fill-opacity:1.0000; stroke:none;">
<circle cx="159.5000" cy="127.2000" r="0.8500" /> 
</g> 
</svg>
