<?xml version="1.0" standalone="no"?>
 <!DOCTYPE svg PUBLIC "-//W3C//DTD SVG 1.1//EN" 
 "http://www.w3.org/Graphics/SVG/1.1/DTD/svg11.dtd"> 
<svg
  xmlns:svg="http://www.w3.org/2000/svg"
  xmlns="http://www.w3.org/2000/svg"
  xmlns:xlink="http://www.w3.org/1999/xlink"
  version="1.1"
  width="297.0022mm" height="210.0072mm" viewBox="0.0000 0.0000 297.0022 210.0072">
<title>SVG Image created as pedalboard-display-B_Silkscreen.svg date 2024/10/08 08:44:06 </title>
  <desc>Image generated by PCBNEW </desc>
<g style="fill:#000000; fill-opacity:1.0000;stroke:#000000; stroke-opacity:1.0000;
stroke-linecap:round; stroke-linejoin:round;"
 transform="translate(0 0) scale(1 1)">
</g>
<g style="fill:none; 
stroke:#000000; stroke-width:0.1000; stroke-opacity:1; 
stroke-linecap:round; stroke-linejoin:round;">
<circle cx="182.0000" cy="124.0000" r="7.0500" /> 
<circle cx="182.0000" cy="72.0000" r="7.0500" /> 
<circle cx="145.0000" cy="39.0000" r="7.0500" /> 
<circle cx="70.0000" cy="39.0000" r="7.0500" /> 
<circle cx="32.0000" cy="124.0000" r="7.0500" /> 
<circle cx="32.0000" cy="72.0000" r="7.0500" /> 
</g>
<g style="fill:none; 
stroke:#000000; stroke-width:0.1500; stroke-opacity:1; 
stroke-linecap:round; stroke-linejoin:round;">
<circle cx="107.0000" cy="124.0000" r="7.0000" /> 
</g>
<g style="fill:none; 
stroke:#000000; stroke-width:0.1000; stroke-opacity:1; 
stroke-linecap:round; stroke-linejoin:round;">
<circle cx="107.0000" cy="72.0000" r="7.0500" /> 
<text x="32.0000" y="56.7461"
transform="scale(-1 1) translate(-64.000000 0)"
textLength="11.3267" font-size="0.9333" lengthAdjust="spacingAndGlyphs"
text-anchor="middle" opacity="0" stroke-opacity="0">Pedalboard LED Ring</text>
<g class="stroked-text"><desc>Pedalboard LED Ring</desc>
<path d="M37.4167 56.6552
L37.4167 55.9552
" />
<path d="M37.4167 55.9552
L37.1500 55.9552
" />
<path d="M37.1500 55.9552
L37.0833 55.9885
" />
<path d="M37.0833 55.9885
L37.0500 56.0219
" />
<path d="M37.0500 56.0219
L37.0167 56.0885
" />
<path d="M37.0167 56.0885
L37.0167 56.1885
" />
<path d="M37.0167 56.1885
L37.0500 56.2552
" />
<path d="M37.0500 56.2552
L37.0833 56.2885
" />
<path d="M37.0833 56.2885
L37.1500 56.3219
" />
<path d="M37.1500 56.3219
L37.4167 56.3219
" />
<path d="M36.4500 56.6219
L36.5167 56.6552
" />
<path d="M36.5167 56.6552
L36.6500 56.6552
" />
<path d="M36.6500 56.6552
L36.7167 56.6219
" />
<path d="M36.7167 56.6219
L36.7500 56.5552
" />
<path d="M36.7500 56.5552
L36.7500 56.2885
" />
<path d="M36.7500 56.2885
L36.7167 56.2219
" />
<path d="M36.7167 56.2219
L36.6500 56.1885
" />
<path d="M36.6500 56.1885
L36.5167 56.1885
" />
<path d="M36.5167 56.1885
L36.4500 56.2219
" />
<path d="M36.4500 56.2219
L36.4167 56.2885
" />
<path d="M36.4167 56.2885
L36.4167 56.3552
" />
<path d="M36.4167 56.3552
L36.7500 56.4219
" />
<path d="M35.8167 56.6552
L35.8167 55.9552
" />
<path d="M35.8167 56.6219
L35.8833 56.6552
" />
<path d="M35.8833 56.6552
L36.0167 56.6552
" />
<path d="M36.0167 56.6552
L36.0833 56.6219
" />
<path d="M36.0833 56.6219
L36.1167 56.5885
" />
<path d="M36.1167 56.5885
L36.1500 56.5219
" />
<path d="M36.1500 56.5219
L36.1500 56.3219
" />
<path d="M36.1500 56.3219
L36.1167 56.2552
" />
<path d="M36.1167 56.2552
L36.0833 56.2219
" />
<path d="M36.0833 56.2219
L36.0167 56.1885
" />
<path d="M36.0167 56.1885
L35.8833 56.1885
" />
<path d="M35.8833 56.1885
L35.8167 56.2219
" />
<path d="M35.1833 56.6552
L35.1833 56.2885
" />
<path d="M35.1833 56.2885
L35.2167 56.2219
" />
<path d="M35.2167 56.2219
L35.2833 56.1885
" />
<path d="M35.2833 56.1885
L35.4167 56.1885
" />
<path d="M35.4167 56.1885
L35.4833 56.2219
" />
<path d="M35.1833 56.6219
L35.2500 56.6552
" />
<path d="M35.2500 56.6552
L35.4167 56.6552
" />
<path d="M35.4167 56.6552
L35.4833 56.6219
" />
<path d="M35.4833 56.6219
L35.5167 56.5552
" />
<path d="M35.5167 56.5552
L35.5167 56.4885
" />
<path d="M35.5167 56.4885
L35.4833 56.4219
" />
<path d="M35.4833 56.4219
L35.4167 56.3885
" />
<path d="M35.4167 56.3885
L35.2500 56.3885
" />
<path d="M35.2500 56.3885
L35.1833 56.3552
" />
<path d="M34.7500 56.6552
L34.8167 56.6219
" />
<path d="M34.8167 56.6219
L34.8500 56.5552
" />
<path d="M34.8500 56.5552
L34.8500 55.9552
" />
<path d="M34.4833 56.6552
L34.4833 55.9552
" />
<path d="M34.4833 56.2219
L34.4167 56.1885
" />
<path d="M34.4167 56.1885
L34.2833 56.1885
" />
<path d="M34.2833 56.1885
L34.2167 56.2219
" />
<path d="M34.2167 56.2219
L34.1833 56.2552
" />
<path d="M34.1833 56.2552
L34.1500 56.3219
" />
<path d="M34.1500 56.3219
L34.1500 56.5219
" />
<path d="M34.1500 56.5219
L34.1833 56.5885
" />
<path d="M34.1833 56.5885
L34.2167 56.6219
" />
<path d="M34.2167 56.6219
L34.2833 56.6552
" />
<path d="M34.2833 56.6552
L34.4167 56.6552
" />
<path d="M34.4167 56.6552
L34.4833 56.6219
" />
<path d="M33.7500 56.6552
L33.8167 56.6219
" />
<path d="M33.8167 56.6219
L33.8500 56.5885
" />
<path d="M33.8500 56.5885
L33.8833 56.5219
" />
<path d="M33.8833 56.5219
L33.8833 56.3219
" />
<path d="M33.8833 56.3219
L33.8500 56.2552
" />
<path d="M33.8500 56.2552
L33.8167 56.2219
" />
<path d="M33.8167 56.2219
L33.7500 56.1885
" />
<path d="M33.7500 56.1885
L33.6500 56.1885
" />
<path d="M33.6500 56.1885
L33.5833 56.2219
" />
<path d="M33.5833 56.2219
L33.5500 56.2552
" />
<path d="M33.5500 56.2552
L33.5167 56.3219
" />
<path d="M33.5167 56.3219
L33.5167 56.5219
" />
<path d="M33.5167 56.5219
L33.5500 56.5885
" />
<path d="M33.5500 56.5885
L33.5833 56.6219
" />
<path d="M33.5833 56.6219
L33.6500 56.6552
" />
<path d="M33.6500 56.6552
L33.7500 56.6552
" />
<path d="M32.9167 56.6552
L32.9167 56.2885
" />
<path d="M32.9167 56.2885
L32.9500 56.2219
" />
<path d="M32.9500 56.2219
L33.0167 56.1885
" />
<path d="M33.0167 56.1885
L33.1500 56.1885
" />
<path d="M33.1500 56.1885
L33.2167 56.2219
" />
<path d="M32.9167 56.6219
L32.9833 56.6552
" />
<path d="M32.9833 56.6552
L33.1500 56.6552
" />
<path d="M33.1500 56.6552
L33.2167 56.6219
" />
<path d="M33.2167 56.6219
L33.2500 56.5552
" />
<path d="M33.2500 56.5552
L33.2500 56.4885
" />
<path d="M33.2500 56.4885
L33.2167 56.4219
" />
<path d="M33.2167 56.4219
L33.1500 56.3885
" />
<path d="M33.1500 56.3885
L32.9833 56.3885
" />
<path d="M32.9833 56.3885
L32.9167 56.3552
" />
<path d="M32.5833 56.6552
L32.5833 56.1885
" />
<path d="M32.5833 56.3219
L32.5500 56.2552
" />
<path d="M32.5500 56.2552
L32.5167 56.2219
" />
<path d="M32.5167 56.2219
L32.4500 56.1885
" />
<path d="M32.4500 56.1885
L32.3833 56.1885
" />
<path d="M31.8500 56.6552
L31.8500 55.9552
" />
<path d="M31.8500 56.6219
L31.9167 56.6552
" />
<path d="M31.9167 56.6552
L32.0500 56.6552
" />
<path d="M32.0500 56.6552
L32.1167 56.6219
" />
<path d="M32.1167 56.6219
L32.1500 56.5885
" />
<path d="M32.1500 56.5885
L32.1833 56.5219
" />
<path d="M32.1833 56.5219
L32.1833 56.3219
" />
<path d="M32.1833 56.3219
L32.1500 56.2552
" />
<path d="M32.1500 56.2552
L32.1167 56.2219
" />
<path d="M32.1167 56.2219
L32.0500 56.1885
" />
<path d="M32.0500 56.1885
L31.9167 56.1885
" />
<path d="M31.9167 56.1885
L31.8500 56.2219
" />
<path d="M30.6500 56.6552
L30.9833 56.6552
" />
<path d="M30.9833 56.6552
L30.9833 55.9552
" />
<path d="M30.4167 56.2885
L30.1833 56.2885
" />
<path d="M30.0833 56.6552
L30.4167 56.6552
" />
<path d="M30.4167 56.6552
L30.4167 55.9552
" />
<path d="M30.4167 55.9552
L30.0833 55.9552
" />
<path d="M29.7833 56.6552
L29.7833 55.9552
" />
<path d="M29.7833 55.9552
L29.6167 55.9552
" />
<path d="M29.6167 55.9552
L29.5167 55.9885
" />
<path d="M29.5167 55.9885
L29.4500 56.0552
" />
<path d="M29.4500 56.0552
L29.4167 56.1219
" />
<path d="M29.4167 56.1219
L29.3833 56.2552
" />
<path d="M29.3833 56.2552
L29.3833 56.3552
" />
<path d="M29.3833 56.3552
L29.4167 56.4885
" />
<path d="M29.4167 56.4885
L29.4500 56.5552
" />
<path d="M29.4500 56.5552
L29.5167 56.6219
" />
<path d="M29.5167 56.6219
L29.6167 56.6552
" />
<path d="M29.6167 56.6552
L29.7833 56.6552
" />
<path d="M28.1500 56.6552
L28.3833 56.3219
" />
<path d="M28.5500 56.6552
L28.5500 55.9552
" />
<path d="M28.5500 55.9552
L28.2833 55.9552
" />
<path d="M28.2833 55.9552
L28.2167 55.9885
" />
<path d="M28.2167 55.9885
L28.1833 56.0219
" />
<path d="M28.1833 56.0219
L28.1500 56.0885
" />
<path d="M28.1500 56.0885
L28.1500 56.1885
" />
<path d="M28.1500 56.1885
L28.1833 56.2552
" />
<path d="M28.1833 56.2552
L28.2167 56.2885
" />
<path d="M28.2167 56.2885
L28.2833 56.3219
" />
<path d="M28.2833 56.3219
L28.5500 56.3219
" />
<path d="M27.8500 56.6552
L27.8500 56.1885
" />
<path d="M27.8500 55.9552
L27.8833 55.9885
" />
<path d="M27.8833 55.9885
L27.8500 56.0219
" />
<path d="M27.8500 56.0219
L27.8167 55.9885
" />
<path d="M27.8167 55.9885
L27.8500 55.9552
" />
<path d="M27.8500 55.9552
L27.8500 56.0219
" />
<path d="M27.5167 56.1885
L27.5167 56.6552
" />
<path d="M27.5167 56.2552
L27.4833 56.2219
" />
<path d="M27.4833 56.2219
L27.4167 56.1885
" />
<path d="M27.4167 56.1885
L27.3167 56.1885
" />
<path d="M27.3167 56.1885
L27.2500 56.2219
" />
<path d="M27.2500 56.2219
L27.2167 56.2885
" />
<path d="M27.2167 56.2885
L27.2167 56.6552
" />
<path d="M26.5833 56.1885
L26.5833 56.7552
" />
<path d="M26.5833 56.7552
L26.6167 56.8219
" />
<path d="M26.6167 56.8219
L26.6500 56.8552
" />
<path d="M26.6500 56.8552
L26.7167 56.8885
" />
<path d="M26.7167 56.8885
L26.8167 56.8885
" />
<path d="M26.8167 56.8885
L26.8833 56.8552
" />
<path d="M26.5833 56.6219
L26.6500 56.6552
" />
<path d="M26.6500 56.6552
L26.7833 56.6552
" />
<path d="M26.7833 56.6552
L26.8500 56.6219
" />
<path d="M26.8500 56.6219
L26.8833 56.5885
" />
<path d="M26.8833 56.5885
L26.9167 56.5219
" />
<path d="M26.9167 56.5219
L26.9167 56.3219
" />
<path d="M26.9167 56.3219
L26.8833 56.2552
" />
<path d="M26.8833 56.2552
L26.8500 56.2219
" />
<path d="M26.8500 56.2219
L26.7833 56.1885
" />
<path d="M26.7833 56.1885
L26.6500 56.1885
" />
<path d="M26.6500 56.1885
L26.5833 56.2219
" />
</g><text x="32.0000" y="57.8730"
transform="scale(-1 1) translate(-64.000000 0)"
textLength="16.9267" font-size="0.9333" lengthAdjust="spacingAndGlyphs"
text-anchor="middle" opacity="0" stroke-opacity="0">https://github.com/pedalboard</text>
<g class="stroked-text"><desc>https://github.com/pedalboard</desc>
<path d="M40.2167 57.7822
L40.2167 57.0822
" />
<path d="M39.9167 57.7822
L39.9167 57.4155
" />
<path d="M39.9167 57.4155
L39.9500 57.3488
" />
<path d="M39.9500 57.3488
L40.0167 57.3155
" />
<path d="M40.0167 57.3155
L40.1167 57.3155
" />
<path d="M40.1167 57.3155
L40.1833 57.3488
" />
<path d="M40.1833 57.3488
L40.2167 57.3822
" />
<path d="M39.6833 57.3155
L39.4167 57.3155
" />
<path d="M39.5833 57.0822
L39.5833 57.6822
" />
<path d="M39.5833 57.6822
L39.5500 57.7488
" />
<path d="M39.5500 57.7488
L39.4833 57.7822
" />
<path d="M39.4833 57.7822
L39.4167 57.7822
" />
<path d="M39.2833 57.3155
L39.0167 57.3155
" />
<path d="M39.1833 57.0822
L39.1833 57.6822
" />
<path d="M39.1833 57.6822
L39.1500 57.7488
" />
<path d="M39.1500 57.7488
L39.0833 57.7822
" />
<path d="M39.0833 57.7822
L39.0167 57.7822
" />
<path d="M38.7833 57.3155
L38.7833 58.0155
" />
<path d="M38.7833 57.3488
L38.7167 57.3155
" />
<path d="M38.7167 57.3155
L38.5833 57.3155
" />
<path d="M38.5833 57.3155
L38.5167 57.3488
" />
<path d="M38.5167 57.3488
L38.4833 57.3822
" />
<path d="M38.4833 57.3822
L38.4500 57.4488
" />
<path d="M38.4500 57.4488
L38.4500 57.6488
" />
<path d="M38.4500 57.6488
L38.4833 57.7155
" />
<path d="M38.4833 57.7155
L38.5167 57.7488
" />
<path d="M38.5167 57.7488
L38.5833 57.7822
" />
<path d="M38.5833 57.7822
L38.7167 57.7822
" />
<path d="M38.7167 57.7822
L38.7833 57.7488
" />
<path d="M38.1833 57.7488
L38.1167 57.7822
" />
<path d="M38.1167 57.7822
L37.9833 57.7822
" />
<path d="M37.9833 57.7822
L37.9167 57.7488
" />
<path d="M37.9167 57.7488
L37.8833 57.6822
" />
<path d="M37.8833 57.6822
L37.8833 57.6488
" />
<path d="M37.8833 57.6488
L37.9167 57.5822
" />
<path d="M37.9167 57.5822
L37.9833 57.5488
" />
<path d="M37.9833 57.5488
L38.0833 57.5488
" />
<path d="M38.0833 57.5488
L38.1500 57.5155
" />
<path d="M38.1500 57.5155
L38.1833 57.4488
" />
<path d="M38.1833 57.4488
L38.1833 57.4155
" />
<path d="M38.1833 57.4155
L38.1500 57.3488
" />
<path d="M38.1500 57.3488
L38.0833 57.3155
" />
<path d="M38.0833 57.3155
L37.9833 57.3155
" />
<path d="M37.9833 57.3155
L37.9167 57.3488
" />
<path d="M37.5833 57.7155
L37.5500 57.7488
" />
<path d="M37.5500 57.7488
L37.5833 57.7822
" />
<path d="M37.5833 57.7822
L37.6167 57.7488
" />
<path d="M37.6167 57.7488
L37.5833 57.7155
" />
<path d="M37.5833 57.7155
L37.5833 57.7822
" />
<path d="M37.5833 57.3488
L37.5500 57.3822
" />
<path d="M37.5500 57.3822
L37.5833 57.4155
" />
<path d="M37.5833 57.4155
L37.6167 57.3822
" />
<path d="M37.6167 57.3822
L37.5833 57.3488
" />
<path d="M37.5833 57.3488
L37.5833 57.4155
" />
<path d="M36.7500 57.0488
L37.3500 57.9488
" />
<path d="M36.0167 57.0488
L36.6167 57.9488
" />
<path d="M35.4833 57.3155
L35.4833 57.8822
" />
<path d="M35.4833 57.8822
L35.5167 57.9488
" />
<path d="M35.5167 57.9488
L35.5500 57.9822
" />
<path d="M35.5500 57.9822
L35.6167 58.0155
" />
<path d="M35.6167 58.0155
L35.7167 58.0155
" />
<path d="M35.7167 58.0155
L35.7833 57.9822
" />
<path d="M35.4833 57.7488
L35.5500 57.7822
" />
<path d="M35.5500 57.7822
L35.6833 57.7822
" />
<path d="M35.6833 57.7822
L35.7500 57.7488
" />
<path d="M35.7500 57.7488
L35.7833 57.7155
" />
<path d="M35.7833 57.7155
L35.8167 57.6488
" />
<path d="M35.8167 57.6488
L35.8167 57.4488
" />
<path d="M35.8167 57.4488
L35.7833 57.3822
" />
<path d="M35.7833 57.3822
L35.7500 57.3488
" />
<path d="M35.7500 57.3488
L35.6833 57.3155
" />
<path d="M35.6833 57.3155
L35.5500 57.3155
" />
<path d="M35.5500 57.3155
L35.4833 57.3488
" />
<path d="M35.1500 57.7822
L35.1500 57.3155
" />
<path d="M35.1500 57.0822
L35.1833 57.1155
" />
<path d="M35.1833 57.1155
L35.1500 57.1488
" />
<path d="M35.1500 57.1488
L35.1167 57.1155
" />
<path d="M35.1167 57.1155
L35.1500 57.0822
" />
<path d="M35.1500 57.0822
L35.1500 57.1488
" />
<path d="M34.9167 57.3155
L34.6500 57.3155
" />
<path d="M34.8167 57.0822
L34.8167 57.6822
" />
<path d="M34.8167 57.6822
L34.7833 57.7488
" />
<path d="M34.7833 57.7488
L34.7167 57.7822
" />
<path d="M34.7167 57.7822
L34.6500 57.7822
" />
<path d="M34.4167 57.7822
L34.4167 57.0822
" />
<path d="M34.1167 57.7822
L34.1167 57.4155
" />
<path d="M34.1167 57.4155
L34.1500 57.3488
" />
<path d="M34.1500 57.3488
L34.2167 57.3155
" />
<path d="M34.2167 57.3155
L34.3167 57.3155
" />
<path d="M34.3167 57.3155
L34.3833 57.3488
" />
<path d="M34.3833 57.3488
L34.4167 57.3822
" />
<path d="M33.4833 57.3155
L33.4833 57.7822
" />
<path d="M33.7833 57.3155
L33.7833 57.6822
" />
<path d="M33.7833 57.6822
L33.7500 57.7488
" />
<path d="M33.7500 57.7488
L33.6833 57.7822
" />
<path d="M33.6833 57.7822
L33.5833 57.7822
" />
<path d="M33.5833 57.7822
L33.5167 57.7488
" />
<path d="M33.5167 57.7488
L33.4833 57.7155
" />
<path d="M33.1500 57.7822
L33.1500 57.0822
" />
<path d="M33.1500 57.3488
L33.0833 57.3155
" />
<path d="M33.0833 57.3155
L32.9500 57.3155
" />
<path d="M32.9500 57.3155
L32.8833 57.3488
" />
<path d="M32.8833 57.3488
L32.8500 57.3822
" />
<path d="M32.8500 57.3822
L32.8167 57.4488
" />
<path d="M32.8167 57.4488
L32.8167 57.6488
" />
<path d="M32.8167 57.6488
L32.8500 57.7155
" />
<path d="M32.8500 57.7155
L32.8833 57.7488
" />
<path d="M32.8833 57.7488
L32.9500 57.7822
" />
<path d="M32.9500 57.7822
L33.0833 57.7822
" />
<path d="M33.0833 57.7822
L33.1500 57.7488
" />
<path d="M32.5167 57.7155
L32.4833 57.7488
" />
<path d="M32.4833 57.7488
L32.5167 57.7822
" />
<path d="M32.5167 57.7822
L32.5500 57.7488
" />
<path d="M32.5500 57.7488
L32.5167 57.7155
" />
<path d="M32.5167 57.7155
L32.5167 57.7822
" />
<path d="M31.8833 57.7488
L31.9500 57.7822
" />
<path d="M31.9500 57.7822
L32.0833 57.7822
" />
<path d="M32.0833 57.7822
L32.1500 57.7488
" />
<path d="M32.1500 57.7488
L32.1833 57.7155
" />
<path d="M32.1833 57.7155
L32.2167 57.6488
" />
<path d="M32.2167 57.6488
L32.2167 57.4488
" />
<path d="M32.2167 57.4488
L32.1833 57.3822
" />
<path d="M32.1833 57.3822
L32.1500 57.3488
" />
<path d="M32.1500 57.3488
L32.0833 57.3155
" />
<path d="M32.0833 57.3155
L31.9500 57.3155
" />
<path d="M31.9500 57.3155
L31.8833 57.3488
" />
<path d="M31.4833 57.7822
L31.5500 57.7488
" />
<path d="M31.5500 57.7488
L31.5833 57.7155
" />
<path d="M31.5833 57.7155
L31.6167 57.6488
" />
<path d="M31.6167 57.6488
L31.6167 57.4488
" />
<path d="M31.6167 57.4488
L31.5833 57.3822
" />
<path d="M31.5833 57.3822
L31.5500 57.3488
" />
<path d="M31.5500 57.3488
L31.4833 57.3155
" />
<path d="M31.4833 57.3155
L31.3833 57.3155
" />
<path d="M31.3833 57.3155
L31.3167 57.3488
" />
<path d="M31.3167 57.3488
L31.2833 57.3822
" />
<path d="M31.2833 57.3822
L31.2500 57.4488
" />
<path d="M31.2500 57.4488
L31.2500 57.6488
" />
<path d="M31.2500 57.6488
L31.2833 57.7155
" />
<path d="M31.2833 57.7155
L31.3167 57.7488
" />
<path d="M31.3167 57.7488
L31.3833 57.7822
" />
<path d="M31.3833 57.7822
L31.4833 57.7822
" />
<path d="M30.9500 57.7822
L30.9500 57.3155
" />
<path d="M30.9500 57.3822
L30.9167 57.3488
" />
<path d="M30.9167 57.3488
L30.8500 57.3155
" />
<path d="M30.8500 57.3155
L30.7500 57.3155
" />
<path d="M30.7500 57.3155
L30.6833 57.3488
" />
<path d="M30.6833 57.3488
L30.6500 57.4155
" />
<path d="M30.6500 57.4155
L30.6500 57.7822
" />
<path d="M30.6500 57.4155
L30.6167 57.3488
" />
<path d="M30.6167 57.3488
L30.5500 57.3155
" />
<path d="M30.5500 57.3155
L30.4500 57.3155
" />
<path d="M30.4500 57.3155
L30.3833 57.3488
" />
<path d="M30.3833 57.3488
L30.3500 57.4155
" />
<path d="M30.3500 57.4155
L30.3500 57.7822
" />
<path d="M29.5167 57.0488
L30.1167 57.9488
" />
<path d="M29.2833 57.3155
L29.2833 58.0155
" />
<path d="M29.2833 57.3488
L29.2167 57.3155
" />
<path d="M29.2167 57.3155
L29.0833 57.3155
" />
<path d="M29.0833 57.3155
L29.0167 57.3488
" />
<path d="M29.0167 57.3488
L28.9833 57.3822
" />
<path d="M28.9833 57.3822
L28.9500 57.4488
" />
<path d="M28.9500 57.4488
L28.9500 57.6488
" />
<path d="M28.9500 57.6488
L28.9833 57.7155
" />
<path d="M28.9833 57.7155
L29.0167 57.7488
" />
<path d="M29.0167 57.7488
L29.0833 57.7822
" />
<path d="M29.0833 57.7822
L29.2167 57.7822
" />
<path d="M29.2167 57.7822
L29.2833 57.7488
" />
<path d="M28.3833 57.7488
L28.4500 57.7822
" />
<path d="M28.4500 57.7822
L28.5833 57.7822
" />
<path d="M28.5833 57.7822
L28.6500 57.7488
" />
<path d="M28.6500 57.7488
L28.6833 57.6822
" />
<path d="M28.6833 57.6822
L28.6833 57.4155
" />
<path d="M28.6833 57.4155
L28.6500 57.3488
" />
<path d="M28.6500 57.3488
L28.5833 57.3155
" />
<path d="M28.5833 57.3155
L28.4500 57.3155
" />
<path d="M28.4500 57.3155
L28.3833 57.3488
" />
<path d="M28.3833 57.3488
L28.3500 57.4155
" />
<path d="M28.3500 57.4155
L28.3500 57.4822
" />
<path d="M28.3500 57.4822
L28.6833 57.5488
" />
<path d="M27.7500 57.7822
L27.7500 57.0822
" />
<path d="M27.7500 57.7488
L27.8167 57.7822
" />
<path d="M27.8167 57.7822
L27.9500 57.7822
" />
<path d="M27.9500 57.7822
L28.0167 57.7488
" />
<path d="M28.0167 57.7488
L28.0500 57.7155
" />
<path d="M28.0500 57.7155
L28.0833 57.6488
" />
<path d="M28.0833 57.6488
L28.0833 57.4488
" />
<path d="M28.0833 57.4488
L28.0500 57.3822
" />
<path d="M28.0500 57.3822
L28.0167 57.3488
" />
<path d="M28.0167 57.3488
L27.9500 57.3155
" />
<path d="M27.9500 57.3155
L27.8167 57.3155
" />
<path d="M27.8167 57.3155
L27.7500 57.3488
" />
<path d="M27.1167 57.7822
L27.1167 57.4155
" />
<path d="M27.1167 57.4155
L27.1500 57.3488
" />
<path d="M27.1500 57.3488
L27.2167 57.3155
" />
<path d="M27.2167 57.3155
L27.3500 57.3155
" />
<path d="M27.3500 57.3155
L27.4167 57.3488
" />
<path d="M27.1167 57.7488
L27.1833 57.7822
" />
<path d="M27.1833 57.7822
L27.3500 57.7822
" />
<path d="M27.3500 57.7822
L27.4167 57.7488
" />
<path d="M27.4167 57.7488
L27.4500 57.6822
" />
<path d="M27.4500 57.6822
L27.4500 57.6155
" />
<path d="M27.4500 57.6155
L27.4167 57.5488
" />
<path d="M27.4167 57.5488
L27.3500 57.5155
" />
<path d="M27.3500 57.5155
L27.1833 57.5155
" />
<path d="M27.1833 57.5155
L27.1167 57.4822
" />
<path d="M26.6833 57.7822
L26.7500 57.7488
" />
<path d="M26.7500 57.7488
L26.7833 57.6822
" />
<path d="M26.7833 57.6822
L26.7833 57.0822
" />
<path d="M26.4167 57.7822
L26.4167 57.0822
" />
<path d="M26.4167 57.3488
L26.3500 57.3155
" />
<path d="M26.3500 57.3155
L26.2167 57.3155
" />
<path d="M26.2167 57.3155
L26.1500 57.3488
" />
<path d="M26.1500 57.3488
L26.1167 57.3822
" />
<path d="M26.1167 57.3822
L26.0833 57.4488
" />
<path d="M26.0833 57.4488
L26.0833 57.6488
" />
<path d="M26.0833 57.6488
L26.1167 57.7155
" />
<path d="M26.1167 57.7155
L26.1500 57.7488
" />
<path d="M26.1500 57.7488
L26.2167 57.7822
" />
<path d="M26.2167 57.7822
L26.3500 57.7822
" />
<path d="M26.3500 57.7822
L26.4167 57.7488
" />
<path d="M25.6833 57.7822
L25.7500 57.7488
" />
<path d="M25.7500 57.7488
L25.7833 57.7155
" />
<path d="M25.7833 57.7155
L25.8167 57.6488
" />
<path d="M25.8167 57.6488
L25.8167 57.4488
" />
<path d="M25.8167 57.4488
L25.7833 57.3822
" />
<path d="M25.7833 57.3822
L25.7500 57.3488
" />
<path d="M25.7500 57.3488
L25.6833 57.3155
" />
<path d="M25.6833 57.3155
L25.5833 57.3155
" />
<path d="M25.5833 57.3155
L25.5167 57.3488
" />
<path d="M25.5167 57.3488
L25.4833 57.3822
" />
<path d="M25.4833 57.3822
L25.4500 57.4488
" />
<path d="M25.4500 57.4488
L25.4500 57.6488
" />
<path d="M25.4500 57.6488
L25.4833 57.7155
" />
<path d="M25.4833 57.7155
L25.5167 57.7488
" />
<path d="M25.5167 57.7488
L25.5833 57.7822
" />
<path d="M25.5833 57.7822
L25.6833 57.7822
" />
<path d="M24.8500 57.7822
L24.8500 57.4155
" />
<path d="M24.8500 57.4155
L24.8833 57.3488
" />
<path d="M24.8833 57.3488
L24.9500 57.3155
" />
<path d="M24.9500 57.3155
L25.0833 57.3155
" />
<path d="M25.0833 57.3155
L25.1500 57.3488
" />
<path d="M24.8500 57.7488
L24.9167 57.7822
" />
<path d="M24.9167 57.7822
L25.0833 57.7822
" />
<path d="M25.0833 57.7822
L25.1500 57.7488
" />
<path d="M25.1500 57.7488
L25.1833 57.6822
" />
<path d="M25.1833 57.6822
L25.1833 57.6155
" />
<path d="M25.1833 57.6155
L25.1500 57.5488
" />
<path d="M25.1500 57.5488
L25.0833 57.5155
" />
<path d="M25.0833 57.5155
L24.9167 57.5155
" />
<path d="M24.9167 57.5155
L24.8500 57.4822
" />
<path d="M24.5167 57.7822
L24.5167 57.3155
" />
<path d="M24.5167 57.4488
L24.4833 57.3822
" />
<path d="M24.4833 57.3822
L24.4500 57.3488
" />
<path d="M24.4500 57.3488
L24.3833 57.3155
" />
<path d="M24.3833 57.3155
L24.3167 57.3155
" />
<path d="M23.7833 57.7822
L23.7833 57.0822
" />
<path d="M23.7833 57.7488
L23.8500 57.7822
" />
<path d="M23.8500 57.7822
L23.9833 57.7822
" />
<path d="M23.9833 57.7822
L24.0500 57.7488
" />
<path d="M24.0500 57.7488
L24.0833 57.7155
" />
<path d="M24.0833 57.7155
L24.1167 57.6488
" />
<path d="M24.1167 57.6488
L24.1167 57.4488
" />
<path d="M24.1167 57.4488
L24.0833 57.3822
" />
<path d="M24.0833 57.3822
L24.0500 57.3488
" />
<path d="M24.0500 57.3488
L23.9833 57.3155
" />
<path d="M23.9833 57.3155
L23.8500 57.3155
" />
<path d="M23.8500 57.3155
L23.7833 57.3488
" />
</g><text x="32.0000" y="59.0000"
transform="scale(-1 1) translate(-64.000000 0)"
textLength="16.2933" font-size="0.9333" lengthAdjust="spacingAndGlyphs"
text-anchor="middle" opacity="0" stroke-opacity="0">PCB: v0.0.0-RC1 ($:858d2dd)</text>
<g class="stroked-text"><desc>PCB: v0.0.0-RC1 ($:858d2dd)</desc>
<path d="M39.9000 58.9091
L39.9000 58.2091
" />
<path d="M39.9000 58.2091
L39.6333 58.2091
" />
<path d="M39.6333 58.2091
L39.5667 58.2425
" />
<path d="M39.5667 58.2425
L39.5333 58.2758
" />
<path d="M39.5333 58.2758
L39.5000 58.3425
" />
<path d="M39.5000 58.3425
L39.5000 58.4425
" />
<path d="M39.5000 58.4425
L39.5333 58.5091
" />
<path d="M39.5333 58.5091
L39.5667 58.5425
" />
<path d="M39.5667 58.5425
L39.6333 58.5758
" />
<path d="M39.6333 58.5758
L39.9000 58.5758
" />
<path d="M38.8000 58.8425
L38.8333 58.8758
" />
<path d="M38.8333 58.8758
L38.9333 58.9091
" />
<path d="M38.9333 58.9091
L39.0000 58.9091
" />
<path d="M39.0000 58.9091
L39.1000 58.8758
" />
<path d="M39.1000 58.8758
L39.1667 58.8091
" />
<path d="M39.1667 58.8091
L39.2000 58.7425
" />
<path d="M39.2000 58.7425
L39.2333 58.6091
" />
<path d="M39.2333 58.6091
L39.2333 58.5091
" />
<path d="M39.2333 58.5091
L39.2000 58.3758
" />
<path d="M39.2000 58.3758
L39.1667 58.3091
" />
<path d="M39.1667 58.3091
L39.1000 58.2425
" />
<path d="M39.1000 58.2425
L39.0000 58.2091
" />
<path d="M39.0000 58.2091
L38.9333 58.2091
" />
<path d="M38.9333 58.2091
L38.8333 58.2425
" />
<path d="M38.8333 58.2425
L38.8000 58.2758
" />
<path d="M38.2667 58.5425
L38.1667 58.5758
" />
<path d="M38.1667 58.5758
L38.1333 58.6091
" />
<path d="M38.1333 58.6091
L38.1000 58.6758
" />
<path d="M38.1000 58.6758
L38.1000 58.7758
" />
<path d="M38.1000 58.7758
L38.1333 58.8425
" />
<path d="M38.1333 58.8425
L38.1667 58.8758
" />
<path d="M38.1667 58.8758
L38.2333 58.9091
" />
<path d="M38.2333 58.9091
L38.5000 58.9091
" />
<path d="M38.5000 58.9091
L38.5000 58.2091
" />
<path d="M38.5000 58.2091
L38.2667 58.2091
" />
<path d="M38.2667 58.2091
L38.2000 58.2425
" />
<path d="M38.2000 58.2425
L38.1667 58.2758
" />
<path d="M38.1667 58.2758
L38.1333 58.3425
" />
<path d="M38.1333 58.3425
L38.1333 58.4091
" />
<path d="M38.1333 58.4091
L38.1667 58.4758
" />
<path d="M38.1667 58.4758
L38.2000 58.5091
" />
<path d="M38.2000 58.5091
L38.2667 58.5425
" />
<path d="M38.2667 58.5425
L38.5000 58.5425
" />
<path d="M37.8000 58.8425
L37.7667 58.8758
" />
<path d="M37.7667 58.8758
L37.8000 58.9091
" />
<path d="M37.8000 58.9091
L37.8333 58.8758
" />
<path d="M37.8333 58.8758
L37.8000 58.8425
" />
<path d="M37.8000 58.8425
L37.8000 58.9091
" />
<path d="M37.8000 58.4758
L37.7667 58.5091
" />
<path d="M37.7667 58.5091
L37.8000 58.5425
" />
<path d="M37.8000 58.5425
L37.8333 58.5091
" />
<path d="M37.8333 58.5091
L37.8000 58.4758
" />
<path d="M37.8000 58.4758
L37.8000 58.5425
" />
<path d="M37.0000 58.4425
L36.8333 58.9091
" />
<path d="M36.8333 58.9091
L36.6667 58.4425
" />
<path d="M36.2667 58.2091
L36.2000 58.2091
" />
<path d="M36.2000 58.2091
L36.1333 58.2425
" />
<path d="M36.1333 58.2425
L36.1000 58.2758
" />
<path d="M36.1000 58.2758
L36.0667 58.3425
" />
<path d="M36.0667 58.3425
L36.0333 58.4758
" />
<path d="M36.0333 58.4758
L36.0333 58.6425
" />
<path d="M36.0333 58.6425
L36.0667 58.7758
" />
<path d="M36.0667 58.7758
L36.1000 58.8425
" />
<path d="M36.1000 58.8425
L36.1333 58.8758
" />
<path d="M36.1333 58.8758
L36.2000 58.9091
" />
<path d="M36.2000 58.9091
L36.2667 58.9091
" />
<path d="M36.2667 58.9091
L36.3333 58.8758
" />
<path d="M36.3333 58.8758
L36.3667 58.8425
" />
<path d="M36.3667 58.8425
L36.4000 58.7758
" />
<path d="M36.4000 58.7758
L36.4333 58.6425
" />
<path d="M36.4333 58.6425
L36.4333 58.4758
" />
<path d="M36.4333 58.4758
L36.4000 58.3425
" />
<path d="M36.4000 58.3425
L36.3667 58.2758
" />
<path d="M36.3667 58.2758
L36.3333 58.2425
" />
<path d="M36.3333 58.2425
L36.2667 58.2091
" />
<path d="M35.7333 58.8425
L35.7000 58.8758
" />
<path d="M35.7000 58.8758
L35.7333 58.9091
" />
<path d="M35.7333 58.9091
L35.7667 58.8758
" />
<path d="M35.7667 58.8758
L35.7333 58.8425
" />
<path d="M35.7333 58.8425
L35.7333 58.9091
" />
<path d="M35.2667 58.2091
L35.2000 58.2091
" />
<path d="M35.2000 58.2091
L35.1333 58.2425
" />
<path d="M35.1333 58.2425
L35.1000 58.2758
" />
<path d="M35.1000 58.2758
L35.0667 58.3425
" />
<path d="M35.0667 58.3425
L35.0333 58.4758
" />
<path d="M35.0333 58.4758
L35.0333 58.6425
" />
<path d="M35.0333 58.6425
L35.0667 58.7758
" />
<path d="M35.0667 58.7758
L35.1000 58.8425
" />
<path d="M35.1000 58.8425
L35.1333 58.8758
" />
<path d="M35.1333 58.8758
L35.2000 58.9091
" />
<path d="M35.2000 58.9091
L35.2667 58.9091
" />
<path d="M35.2667 58.9091
L35.3333 58.8758
" />
<path d="M35.3333 58.8758
L35.3667 58.8425
" />
<path d="M35.3667 58.8425
L35.4000 58.7758
" />
<path d="M35.4000 58.7758
L35.4333 58.6425
" />
<path d="M35.4333 58.6425
L35.4333 58.4758
" />
<path d="M35.4333 58.4758
L35.4000 58.3425
" />
<path d="M35.4000 58.3425
L35.3667 58.2758
" />
<path d="M35.3667 58.2758
L35.3333 58.2425
" />
<path d="M35.3333 58.2425
L35.2667 58.2091
" />
<path d="M34.7333 58.8425
L34.7000 58.8758
" />
<path d="M34.7000 58.8758
L34.7333 58.9091
" />
<path d="M34.7333 58.9091
L34.7667 58.8758
" />
<path d="M34.7667 58.8758
L34.7333 58.8425
" />
<path d="M34.7333 58.8425
L34.7333 58.9091
" />
<path d="M34.2667 58.2091
L34.2000 58.2091
" />
<path d="M34.2000 58.2091
L34.1333 58.2425
" />
<path d="M34.1333 58.2425
L34.1000 58.2758
" />
<path d="M34.1000 58.2758
L34.0667 58.3425
" />
<path d="M34.0667 58.3425
L34.0333 58.4758
" />
<path d="M34.0333 58.4758
L34.0333 58.6425
" />
<path d="M34.0333 58.6425
L34.0667 58.7758
" />
<path d="M34.0667 58.7758
L34.1000 58.8425
" />
<path d="M34.1000 58.8425
L34.1333 58.8758
" />
<path d="M34.1333 58.8758
L34.2000 58.9091
" />
<path d="M34.2000 58.9091
L34.2667 58.9091
" />
<path d="M34.2667 58.9091
L34.3333 58.8758
" />
<path d="M34.3333 58.8758
L34.3667 58.8425
" />
<path d="M34.3667 58.8425
L34.4000 58.7758
" />
<path d="M34.4000 58.7758
L34.4333 58.6425
" />
<path d="M34.4333 58.6425
L34.4333 58.4758
" />
<path d="M34.4333 58.4758
L34.4000 58.3425
" />
<path d="M34.4000 58.3425
L34.3667 58.2758
" />
<path d="M34.3667 58.2758
L34.3333 58.2425
" />
<path d="M34.3333 58.2425
L34.2667 58.2091
" />
<path d="M33.7333 58.6425
L33.2000 58.6425
" />
<path d="M32.4667 58.9091
L32.7000 58.5758
" />
<path d="M32.8667 58.9091
L32.8667 58.2091
" />
<path d="M32.8667 58.2091
L32.6000 58.2091
" />
<path d="M32.6000 58.2091
L32.5333 58.2425
" />
<path d="M32.5333 58.2425
L32.5000 58.2758
" />
<path d="M32.5000 58.2758
L32.4667 58.3425
" />
<path d="M32.4667 58.3425
L32.4667 58.4425
" />
<path d="M32.4667 58.4425
L32.5000 58.5091
" />
<path d="M32.5000 58.5091
L32.5333 58.5425
" />
<path d="M32.5333 58.5425
L32.6000 58.5758
" />
<path d="M32.6000 58.5758
L32.8667 58.5758
" />
<path d="M31.7667 58.8425
L31.8000 58.8758
" />
<path d="M31.8000 58.8758
L31.9000 58.9091
" />
<path d="M31.9000 58.9091
L31.9667 58.9091
" />
<path d="M31.9667 58.9091
L32.0667 58.8758
" />
<path d="M32.0667 58.8758
L32.1333 58.8091
" />
<path d="M32.1333 58.8091
L32.1667 58.7425
" />
<path d="M32.1667 58.7425
L32.2000 58.6091
" />
<path d="M32.2000 58.6091
L32.2000 58.5091
" />
<path d="M32.2000 58.5091
L32.1667 58.3758
" />
<path d="M32.1667 58.3758
L32.1333 58.3091
" />
<path d="M32.1333 58.3091
L32.0667 58.2425
" />
<path d="M32.0667 58.2425
L31.9667 58.2091
" />
<path d="M31.9667 58.2091
L31.9000 58.2091
" />
<path d="M31.9000 58.2091
L31.8000 58.2425
" />
<path d="M31.8000 58.2425
L31.7667 58.2758
" />
<path d="M31.1000 58.9091
L31.5000 58.9091
" />
<path d="M31.3000 58.9091
L31.3000 58.2091
" />
<path d="M31.3000 58.2091
L31.3667 58.3091
" />
<path d="M31.3667 58.3091
L31.4333 58.3758
" />
<path d="M31.4333 58.3758
L31.5000 58.4091
" />
<path d="M30.0667 59.1758
L30.1000 59.1425
" />
<path d="M30.1000 59.1425
L30.1667 59.0425
" />
<path d="M30.1667 59.0425
L30.2000 58.9758
" />
<path d="M30.2000 58.9758
L30.2333 58.8758
" />
<path d="M30.2333 58.8758
L30.2667 58.7091
" />
<path d="M30.2667 58.7091
L30.2667 58.5758
" />
<path d="M30.2667 58.5758
L30.2333 58.4091
" />
<path d="M30.2333 58.4091
L30.2000 58.3091
" />
<path d="M30.2000 58.3091
L30.1667 58.2425
" />
<path d="M30.1667 58.2425
L30.1000 58.1425
" />
<path d="M30.1000 58.1425
L30.0667 58.1091
" />
<path d="M29.8333 58.8758
L29.7333 58.9091
" />
<path d="M29.7333 58.9091
L29.5667 58.9091
" />
<path d="M29.5667 58.9091
L29.5000 58.8758
" />
<path d="M29.5000 58.8758
L29.4667 58.8425
" />
<path d="M29.4667 58.8425
L29.4333 58.7758
" />
<path d="M29.4333 58.7758
L29.4333 58.7091
" />
<path d="M29.4333 58.7091
L29.4667 58.6425
" />
<path d="M29.4667 58.6425
L29.5000 58.6091
" />
<path d="M29.5000 58.6091
L29.5667 58.5758
" />
<path d="M29.5667 58.5758
L29.7000 58.5425
" />
<path d="M29.7000 58.5425
L29.7667 58.5091
" />
<path d="M29.7667 58.5091
L29.8000 58.4758
" />
<path d="M29.8000 58.4758
L29.8333 58.4091
" />
<path d="M29.8333 58.4091
L29.8333 58.3425
" />
<path d="M29.8333 58.3425
L29.8000 58.2758
" />
<path d="M29.8000 58.2758
L29.7667 58.2425
" />
<path d="M29.7667 58.2425
L29.7000 58.2091
" />
<path d="M29.7000 58.2091
L29.5333 58.2091
" />
<path d="M29.5333 58.2091
L29.4333 58.2425
" />
<path d="M29.6333 58.1091
L29.6333 59.0091
" />
<path d="M29.1333 58.8425
L29.1000 58.8758
" />
<path d="M29.1000 58.8758
L29.1333 58.9091
" />
<path d="M29.1333 58.9091
L29.1667 58.8758
" />
<path d="M29.1667 58.8758
L29.1333 58.8425
" />
<path d="M29.1333 58.8425
L29.1333 58.9091
" />
<path d="M29.1333 58.4758
L29.1000 58.5091
" />
<path d="M29.1000 58.5091
L29.1333 58.5425
" />
<path d="M29.1333 58.5425
L29.1667 58.5091
" />
<path d="M29.1667 58.5091
L29.1333 58.4758
" />
<path d="M29.1333 58.4758
L29.1333 58.5425
" />
<path d="M28.7000 58.5091
L28.7667 58.4758
" />
<path d="M28.7667 58.4758
L28.8000 58.4425
" />
<path d="M28.8000 58.4425
L28.8333 58.3758
" />
<path d="M28.8333 58.3758
L28.8333 58.3425
" />
<path d="M28.8333 58.3425
L28.8000 58.2758
" />
<path d="M28.8000 58.2758
L28.7667 58.2425
" />
<path d="M28.7667 58.2425
L28.7000 58.2091
" />
<path d="M28.7000 58.2091
L28.5667 58.2091
" />
<path d="M28.5667 58.2091
L28.5000 58.2425
" />
<path d="M28.5000 58.2425
L28.4667 58.2758
" />
<path d="M28.4667 58.2758
L28.4333 58.3425
" />
<path d="M28.4333 58.3425
L28.4333 58.3758
" />
<path d="M28.4333 58.3758
L28.4667 58.4425
" />
<path d="M28.4667 58.4425
L28.5000 58.4758
" />
<path d="M28.5000 58.4758
L28.5667 58.5091
" />
<path d="M28.5667 58.5091
L28.7000 58.5091
" />
<path d="M28.7000 58.5091
L28.7667 58.5425
" />
<path d="M28.7667 58.5425
L28.8000 58.5758
" />
<path d="M28.8000 58.5758
L28.8333 58.6425
" />
<path d="M28.8333 58.6425
L28.8333 58.7758
" />
<path d="M28.8333 58.7758
L28.8000 58.8425
" />
<path d="M28.8000 58.8425
L28.7667 58.8758
" />
<path d="M28.7667 58.8758
L28.7000 58.9091
" />
<path d="M28.7000 58.9091
L28.5667 58.9091
" />
<path d="M28.5667 58.9091
L28.5000 58.8758
" />
<path d="M28.5000 58.8758
L28.4667 58.8425
" />
<path d="M28.4667 58.8425
L28.4333 58.7758
" />
<path d="M28.4333 58.7758
L28.4333 58.6425
" />
<path d="M28.4333 58.6425
L28.4667 58.5758
" />
<path d="M28.4667 58.5758
L28.5000 58.5425
" />
<path d="M28.5000 58.5425
L28.5667 58.5091
" />
<path d="M27.8000 58.2091
L28.1333 58.2091
" />
<path d="M28.1333 58.2091
L28.1667 58.5425
" />
<path d="M28.1667 58.5425
L28.1333 58.5091
" />
<path d="M28.1333 58.5091
L28.0667 58.4758
" />
<path d="M28.0667 58.4758
L27.9000 58.4758
" />
<path d="M27.9000 58.4758
L27.8333 58.5091
" />
<path d="M27.8333 58.5091
L27.8000 58.5425
" />
<path d="M27.8000 58.5425
L27.7667 58.6091
" />
<path d="M27.7667 58.6091
L27.7667 58.7758
" />
<path d="M27.7667 58.7758
L27.8000 58.8425
" />
<path d="M27.8000 58.8425
L27.8333 58.8758
" />
<path d="M27.8333 58.8758
L27.9000 58.9091
" />
<path d="M27.9000 58.9091
L28.0667 58.9091
" />
<path d="M28.0667 58.9091
L28.1333 58.8758
" />
<path d="M28.1333 58.8758
L28.1667 58.8425
" />
<path d="M27.3667 58.5091
L27.4333 58.4758
" />
<path d="M27.4333 58.4758
L27.4667 58.4425
" />
<path d="M27.4667 58.4425
L27.5000 58.3758
" />
<path d="M27.5000 58.3758
L27.5000 58.3425
" />
<path d="M27.5000 58.3425
L27.4667 58.2758
" />
<path d="M27.4667 58.2758
L27.4333 58.2425
" />
<path d="M27.4333 58.2425
L27.3667 58.2091
" />
<path d="M27.3667 58.2091
L27.2333 58.2091
" />
<path d="M27.2333 58.2091
L27.1667 58.2425
" />
<path d="M27.1667 58.2425
L27.1333 58.2758
" />
<path d="M27.1333 58.2758
L27.1000 58.3425
" />
<path d="M27.1000 58.3425
L27.1000 58.3758
" />
<path d="M27.1000 58.3758
L27.1333 58.4425
" />
<path d="M27.1333 58.4425
L27.1667 58.4758
" />
<path d="M27.1667 58.4758
L27.2333 58.5091
" />
<path d="M27.2333 58.5091
L27.3667 58.5091
" />
<path d="M27.3667 58.5091
L27.4333 58.5425
" />
<path d="M27.4333 58.5425
L27.4667 58.5758
" />
<path d="M27.4667 58.5758
L27.5000 58.6425
" />
<path d="M27.5000 58.6425
L27.5000 58.7758
" />
<path d="M27.5000 58.7758
L27.4667 58.8425
" />
<path d="M27.4667 58.8425
L27.4333 58.8758
" />
<path d="M27.4333 58.8758
L27.3667 58.9091
" />
<path d="M27.3667 58.9091
L27.2333 58.9091
" />
<path d="M27.2333 58.9091
L27.1667 58.8758
" />
<path d="M27.1667 58.8758
L27.1333 58.8425
" />
<path d="M27.1333 58.8425
L27.1000 58.7758
" />
<path d="M27.1000 58.7758
L27.1000 58.6425
" />
<path d="M27.1000 58.6425
L27.1333 58.5758
" />
<path d="M27.1333 58.5758
L27.1667 58.5425
" />
<path d="M27.1667 58.5425
L27.2333 58.5091
" />
<path d="M26.5000 58.9091
L26.5000 58.2091
" />
<path d="M26.5000 58.8758
L26.5667 58.9091
" />
<path d="M26.5667 58.9091
L26.7000 58.9091
" />
<path d="M26.7000 58.9091
L26.7667 58.8758
" />
<path d="M26.7667 58.8758
L26.8000 58.8425
" />
<path d="M26.8000 58.8425
L26.8333 58.7758
" />
<path d="M26.8333 58.7758
L26.8333 58.5758
" />
<path d="M26.8333 58.5758
L26.8000 58.5091
" />
<path d="M26.8000 58.5091
L26.7667 58.4758
" />
<path d="M26.7667 58.4758
L26.7000 58.4425
" />
<path d="M26.7000 58.4425
L26.5667 58.4425
" />
<path d="M26.5667 58.4425
L26.5000 58.4758
" />
<path d="M26.2000 58.2758
L26.1667 58.2425
" />
<path d="M26.1667 58.2425
L26.1000 58.2091
" />
<path d="M26.1000 58.2091
L25.9333 58.2091
" />
<path d="M25.9333 58.2091
L25.8667 58.2425
" />
<path d="M25.8667 58.2425
L25.8333 58.2758
" />
<path d="M25.8333 58.2758
L25.8000 58.3425
" />
<path d="M25.8000 58.3425
L25.8000 58.4091
" />
<path d="M25.8000 58.4091
L25.8333 58.5091
" />
<path d="M25.8333 58.5091
L26.2333 58.9091
" />
<path d="M26.2333 58.9091
L25.8000 58.9091
" />
<path d="M25.2000 58.9091
L25.2000 58.2091
" />
<path d="M25.2000 58.8758
L25.2667 58.9091
" />
<path d="M25.2667 58.9091
L25.4000 58.9091
" />
<path d="M25.4000 58.9091
L25.4667 58.8758
" />
<path d="M25.4667 58.8758
L25.5000 58.8425
" />
<path d="M25.5000 58.8425
L25.5333 58.7758
" />
<path d="M25.5333 58.7758
L25.5333 58.5758
" />
<path d="M25.5333 58.5758
L25.5000 58.5091
" />
<path d="M25.5000 58.5091
L25.4667 58.4758
" />
<path d="M25.4667 58.4758
L25.4000 58.4425
" />
<path d="M25.4000 58.4425
L25.2667 58.4425
" />
<path d="M25.2667 58.4425
L25.2000 58.4758
" />
<path d="M24.5667 58.9091
L24.5667 58.2091
" />
<path d="M24.5667 58.8758
L24.6333 58.9091
" />
<path d="M24.6333 58.9091
L24.7667 58.9091
" />
<path d="M24.7667 58.9091
L24.8333 58.8758
" />
<path d="M24.8333 58.8758
L24.8667 58.8425
" />
<path d="M24.8667 58.8425
L24.9000 58.7758
" />
<path d="M24.9000 58.7758
L24.9000 58.5758
" />
<path d="M24.9000 58.5758
L24.8667 58.5091
" />
<path d="M24.8667 58.5091
L24.8333 58.4758
" />
<path d="M24.8333 58.4758
L24.7667 58.4425
" />
<path d="M24.7667 58.4425
L24.6333 58.4425
" />
<path d="M24.6333 58.4425
L24.5667 58.4758
" />
<path d="M24.3000 59.1758
L24.2667 59.1425
" />
<path d="M24.2667 59.1425
L24.2000 59.0425
" />
<path d="M24.2000 59.0425
L24.1667 58.9758
" />
<path d="M24.1667 58.9758
L24.1333 58.8758
" />
<path d="M24.1333 58.8758
L24.1000 58.7091
" />
<path d="M24.1000 58.7091
L24.1000 58.5758
" />
<path d="M24.1000 58.5758
L24.1333 58.4091
" />
<path d="M24.1333 58.4091
L24.1667 58.3091
" />
<path d="M24.1667 58.3091
L24.2000 58.2425
" />
<path d="M24.2000 58.2425
L24.2667 58.1425
" />
<path d="M24.2667 58.1425
L24.3000 58.1091
" />
</g></g>
<g style="fill:none; 
stroke:#000000; stroke-width:0.1500; stroke-opacity:1; 
stroke-linecap:round; stroke-linejoin:round;">
<g transform="rotate(-90.000000 135.7500 73.2750)">
<text x="135.7500" y="73.7750"
transform="scale(-1 1) translate(-271.500000 0)"
textLength="2.2024" font-size="1.3333" lengthAdjust="spacingAndGlyphs"
text-anchor="middle" opacity="0" stroke-opacity="0">R3</text>
</g>
<g class="stroked-text"><desc>R3</desc>
<path d="M136.2048 73.1083
L135.7286 72.7750
" />
<path d="M136.2048 72.5369
L135.2048 72.5369
" />
<path d="M135.2048 72.5369
L135.2048 72.9179
" />
<path d="M135.2048 72.9179
L135.2524 73.0131
" />
<path d="M135.2524 73.0131
L135.3001 73.0607
" />
<path d="M135.3001 73.0607
L135.3953 73.1083
" />
<path d="M135.3953 73.1083
L135.5382 73.1083
" />
<path d="M135.5382 73.1083
L135.6334 73.0607
" />
<path d="M135.6334 73.0607
L135.6810 73.0131
" />
<path d="M135.6810 73.0131
L135.7286 72.9179
" />
<path d="M135.7286 72.9179
L135.7286 72.5369
" />
<path d="M135.2048 73.4417
L135.2048 74.0607
" />
<path d="M135.2048 74.0607
L135.5858 73.7274
" />
<path d="M135.5858 73.7274
L135.5858 73.8702
" />
<path d="M135.5858 73.8702
L135.6334 73.9655
" />
<path d="M135.6334 73.9655
L135.6810 74.0131
" />
<path d="M135.6810 74.0131
L135.7762 74.0607
" />
<path d="M135.7762 74.0607
L136.0143 74.0607
" />
<path d="M136.0143 74.0607
L136.1096 74.0131
" />
<path d="M136.1096 74.0131
L136.1572 73.9655
" />
<path d="M136.1572 73.9655
L136.2048 73.8702
" />
<path d="M136.2048 73.8702
L136.2048 73.5845
" />
<path d="M136.2048 73.5845
L136.1572 73.4893
" />
<path d="M136.1572 73.4893
L136.1096 73.4417
" />
</g><g transform="rotate(-90.000000 137.7000 73.3250)">
<text x="137.7000" y="73.8250"
transform="scale(-1 1) translate(-275.400000 0)"
textLength="2.2024" font-size="1.3333" lengthAdjust="spacingAndGlyphs"
text-anchor="middle" opacity="0" stroke-opacity="0">R2</text>
</g>
<g class="stroked-text"><desc>R2</desc>
<path d="M138.1548 73.1583
L137.6786 72.8250
" />
<path d="M138.1548 72.5869
L137.1548 72.5869
" />
<path d="M137.1548 72.5869
L137.1548 72.9679
" />
<path d="M137.1548 72.9679
L137.2024 73.0631
" />
<path d="M137.2024 73.0631
L137.2501 73.1107
" />
<path d="M137.2501 73.1107
L137.3453 73.1583
" />
<path d="M137.3453 73.1583
L137.4882 73.1583
" />
<path d="M137.4882 73.1583
L137.5834 73.1107
" />
<path d="M137.5834 73.1107
L137.6310 73.0631
" />
<path d="M137.6310 73.0631
L137.6786 72.9679
" />
<path d="M137.6786 72.9679
L137.6786 72.5869
" />
<path d="M137.2501 73.5393
L137.2024 73.5869
" />
<path d="M137.2024 73.5869
L137.1548 73.6821
" />
<path d="M137.1548 73.6821
L137.1548 73.9202
" />
<path d="M137.1548 73.9202
L137.2024 74.0155
" />
<path d="M137.2024 74.0155
L137.2501 74.0631
" />
<path d="M137.2501 74.0631
L137.3453 74.1107
" />
<path d="M137.3453 74.1107
L137.4405 74.1107
" />
<path d="M137.4405 74.1107
L137.5834 74.0631
" />
<path d="M137.5834 74.0631
L138.1548 73.4917
" />
<path d="M138.1548 73.4917
L138.1548 74.1107
" />
</g><text x="144.0000" y="63.0500"
transform="scale(-1 1) translate(-288.000000 0)"
textLength="1.9643" font-size="1.3333" lengthAdjust="spacingAndGlyphs"
text-anchor="middle" opacity="0" stroke-opacity="0">J3</text>
<g class="stroked-text"><desc>J3</desc>
<path d="M144.3333 62.0048
L144.3333 62.7191
" />
<path d="M144.3333 62.7191
L144.3810 62.8620
" />
<path d="M144.3810 62.8620
L144.4762 62.9572
" />
<path d="M144.4762 62.9572
L144.6190 63.0048
" />
<path d="M144.6190 63.0048
L144.7143 63.0048
" />
<path d="M143.9524 62.0048
L143.3333 62.0048
" />
<path d="M143.3333 62.0048
L143.6667 62.3858
" />
<path d="M143.6667 62.3858
L143.5238 62.3858
" />
<path d="M143.5238 62.3858
L143.4286 62.4334
" />
<path d="M143.4286 62.4334
L143.3810 62.4810
" />
<path d="M143.3810 62.4810
L143.3333 62.5762
" />
<path d="M143.3333 62.5762
L143.3333 62.8143
" />
<path d="M143.3333 62.8143
L143.3810 62.9096
" />
<path d="M143.3810 62.9096
L143.4286 62.9572
" />
<path d="M143.4286 62.9572
L143.5238 63.0048
" />
<path d="M143.5238 63.0048
L143.8095 63.0048
" />
<path d="M143.8095 63.0048
L143.9048 62.9572
" />
<path d="M143.9048 62.9572
L143.9524 62.9096
" />
</g><g transform="rotate(-90.000000 19.2500 111.0000)">
<text x="19.2500" y="111.5000"
transform="scale(-1 1) translate(-38.500000 0)"
textLength="1.9643" font-size="1.3333" lengthAdjust="spacingAndGlyphs"
text-anchor="middle" opacity="0" stroke-opacity="0">J2</text>
</g>
<g class="stroked-text"><desc>J2</desc>
<path d="M18.7048 110.6667
L19.4191 110.6667
" />
<path d="M19.4191 110.6667
L19.5620 110.6190
" />
<path d="M19.5620 110.6190
L19.6572 110.5238
" />
<path d="M19.6572 110.5238
L19.7048 110.3810
" />
<path d="M19.7048 110.3810
L19.7048 110.2857
" />
<path d="M18.8001 111.0952
L18.7524 111.1429
" />
<path d="M18.7524 111.1429
L18.7048 111.2381
" />
<path d="M18.7048 111.2381
L18.7048 111.4762
" />
<path d="M18.7048 111.4762
L18.7524 111.5714
" />
<path d="M18.7524 111.5714
L18.8001 111.6190
" />
<path d="M18.8001 111.6190
L18.8953 111.6667
" />
<path d="M18.8953 111.6667
L18.9905 111.6667
" />
<path d="M18.9905 111.6667
L19.1334 111.6190
" />
<path d="M19.1334 111.6190
L19.7048 111.0476
" />
<path d="M19.7048 111.0476
L19.7048 111.6667
" />
</g><text x="112.0000" y="58.5000"
transform="scale(-1 1) translate(-224.000000 0)"
textLength="1.9643" font-size="1.3333" lengthAdjust="spacingAndGlyphs"
text-anchor="middle" opacity="0" stroke-opacity="0">J1</text>
<g class="stroked-text"><desc>J1</desc>
<path d="M112.3333 57.4548
L112.3333 58.1691
" />
<path d="M112.3333 58.1691
L112.3810 58.3120
" />
<path d="M112.3810 58.3120
L112.4762 58.4072
" />
<path d="M112.4762 58.4072
L112.6190 58.4548
" />
<path d="M112.6190 58.4548
L112.7143 58.4548
" />
<path d="M111.3333 58.4548
L111.9048 58.4548
" />
<path d="M111.6190 58.4548
L111.6190 57.4548
" />
<path d="M111.6190 57.4548
L111.7143 57.5977
" />
<path d="M111.7143 57.5977
L111.8095 57.6929
" />
<path d="M111.8095 57.6929
L111.9048 57.7405
" />
</g></g>
<g style="fill:none; 
stroke:#000000; stroke-width:0.1200; stroke-opacity:1; 
stroke-linecap:round; stroke-linejoin:round;">
<path d="M64.3380 77.2028
L64.3380 74.5428
" />
<path d="M72.0180 77.2028
L72.0180 74.5428
" />
<path d="M74.3000 77.2000
L74.6180 77.2028
" />
<path d="M74.6180 77.2028
L74.6180 75.8728
" />
<path d="M139.3380 77.2028
L139.3380 74.5428
" />
<path d="M147.0180 77.2028
L147.0180 74.5428
" />
<path d="M149.3000 77.2000
L149.6180 77.2028
" />
<path d="M149.6180 77.2028
L149.6180 75.8728
" />
<path d="M135.0150 75.6854
L135.0150 76.1396
" />
<path d="M136.4850 75.6854
L136.4850 76.1396
" />
<path d="M137.0150 75.6854
L137.0150 76.1396
" />
<path d="M138.4850 75.6854
L138.4850 76.1396
" />
<path d="M137.9150 63.6400
L150.0850 63.6400
" />
<path d="M137.9150 64.4900
L137.9150 63.6400
" />
<path d="M137.9150 68.8600
L137.9150 68.0100
" />
<path d="M140.2400 68.8600
L137.9150 68.8600
" />
<path d="M147.7600 68.8600
L150.0850 68.8600
" />
<path d="M147.7600 71.2500
L147.7600 68.8600
" />
<path d="M150.0850 63.6400
L150.0850 64.4900
" />
<path d="M150.0850 68.8600
L150.0850 68.0100
" />
<path d="M20.3400 105.9150
L21.1900 105.9150
" />
<path d="M20.3400 116.0850
L20.3400 105.9150
" />
<path d="M21.1900 116.0850
L20.3400 116.0850
" />
<path d="M25.5600 105.9150
L24.7100 105.9150
" />
<path d="M25.5600 108.2400
L25.5600 105.9150
" />
<path d="M25.5600 113.7600
L25.5600 116.0850
" />
<path d="M25.5600 116.0850
L24.7100 116.0850
" />
<path d="M27.9500 108.2400
L25.5600 108.2400
" />
<path d="M101.9150 48.6400
L112.0850 48.6400
" />
<path d="M101.9150 49.4900
L101.9150 48.6400
" />
<path d="M101.9150 53.8600
L101.9150 53.0100
" />
<path d="M104.2400 53.8600
L101.9150 53.8600
" />
<path d="M109.7600 53.8600
L112.0850 53.8600
" />
<path d="M109.7600 56.2500
L109.7600 53.8600
" />
<path d="M112.0850 48.6400
L112.0850 49.4900
" />
<path d="M112.0850 53.8600
L112.0850 53.0100
" />
</g>
<g style="fill:#000000; fill-opacity:1.0000; stroke:none;">
<circle cx="170.0000" cy="133.0000" r="1.2500" /> 
</g>
<g style="fill:#000000; fill-opacity:1.0000; stroke:none;">
<circle cx="170.0000" cy="28.0000" r="1.2500" /> 
</g>
<g style="fill:#000000; fill-opacity:1.0000; stroke:none;">
<circle cx="54.5000" cy="75.2000" r="1.0500" /> 
</g>
<g style="fill:#000000; fill-opacity:1.0000; stroke:none;">
<circle cx="54.5000" cy="127.2000" r="1.0500" /> 
</g>
<g style="fill:#000000; fill-opacity:1.0000; stroke:none;">
<circle cx="84.5000" cy="75.2000" r="1.0500" /> 
</g>
<g style="fill:#000000; fill-opacity:1.0000; stroke:none;">
<circle cx="84.5000" cy="127.2000" r="1.0500" /> 
</g>
<g style="fill:#000000; fill-opacity:1.0000; stroke:none;">
<circle cx="44.0000" cy="133.0000" r="1.2500" /> 
</g>
<g style="fill:#000000; fill-opacity:1.0000; stroke:none;">
<circle cx="107.0000" cy="103.0000" r="1.2500" /> 
</g>
<g style="fill:#000000; fill-opacity:1.0000; stroke:none;">
<circle cx="44.0000" cy="28.0000" r="1.2500" /> 
</g>
<g style="fill:#000000; fill-opacity:1.0000; stroke:none;">
<circle cx="129.5000" cy="75.2000" r="1.0500" /> 
</g>
<g style="fill:#000000; fill-opacity:1.0000; stroke:none;">
<circle cx="129.5000" cy="127.2000" r="1.0500" /> 
</g>
<g style="fill:#000000; fill-opacity:1.0000; stroke:none;">
<circle cx="159.5000" cy="75.2000" r="1.0500" /> 
</g>
<g style="fill:#000000; fill-opacity:1.0000; stroke:none;">
<circle cx="159.5000" cy="127.2000" r="1.0500" /> 
</g> 
</svg>
