<?xml version="1.0" standalone="no"?>
 <!DOCTYPE svg PUBLIC "-//W3C//DTD SVG 1.1//EN" 
 "http://www.w3.org/Graphics/SVG/1.1/DTD/svg11.dtd"> 
<svg
  xmlns:svg="http://www.w3.org/2000/svg"
  xmlns="http://www.w3.org/2000/svg"
  xmlns:xlink="http://www.w3.org/1999/xlink"
  version="1.1"
  width="297.0022mm" height="210.0072mm" viewBox="0.0000 0.0000 297.0022 210.0072">
<title>SVG Image created as pedalboard-display-B_Fab.svg date 2024/10/06 11:16:24 </title>
  <desc>Image generated by PCBNEW </desc>
<g style="fill:#000000; fill-opacity:1.0000;stroke:#000000; stroke-opacity:1.0000;
stroke-linecap:round; stroke-linejoin:round;"
 transform="translate(0 0) scale(1 1)">
</g>
<g style="fill:none; 
stroke:#000000; stroke-width:0.1500; stroke-opacity:1; 
stroke-linecap:round; stroke-linejoin:round;">
<text x="63.2280" y="59.9728"
transform="scale(-1 1) translate(-126.456000 0)"
textLength="2.2500" font-size="1.3333" lengthAdjust="spacingAndGlyphs"
text-anchor="middle" opacity="0" stroke-opacity="0">U1</text>
<g class="stroked-text"><desc>U1</desc>
<path d="M63.9899 58.9276
L63.9899 59.7371
" />
<path d="M63.9899 59.7371
L63.9423 59.8324
" />
<path d="M63.9423 59.8324
L63.8947 59.8800
" />
<path d="M63.8947 59.8800
L63.7994 59.9276
" />
<path d="M63.7994 59.9276
L63.6090 59.9276
" />
<path d="M63.6090 59.9276
L63.5137 59.8800
" />
<path d="M63.5137 59.8800
L63.4661 59.8324
" />
<path d="M63.4661 59.8324
L63.4185 59.7371
" />
<path d="M63.4185 59.7371
L63.4185 58.9276
" />
<path d="M62.4185 59.9276
L62.9899 59.9276
" />
<path d="M62.7042 59.9276
L62.7042 58.9276
" />
<path d="M62.7042 58.9276
L62.7994 59.0705
" />
<path d="M62.7994 59.0705
L62.8947 59.1657
" />
<path d="M62.8947 59.1657
L62.9899 59.2133
" />
</g><text x="146.2780" y="61.7728"
transform="scale(-1 1) translate(-292.556000 0)"
textLength="2.2500" font-size="1.3333" lengthAdjust="spacingAndGlyphs"
text-anchor="middle" opacity="0" stroke-opacity="0">U2</text>
<g class="stroked-text"><desc>U2</desc>
<path d="M147.0399 60.7276
L147.0399 61.5371
" />
<path d="M147.0399 61.5371
L146.9923 61.6324
" />
<path d="M146.9923 61.6324
L146.9447 61.6800
" />
<path d="M146.9447 61.6800
L146.8494 61.7276
" />
<path d="M146.8494 61.7276
L146.6590 61.7276
" />
<path d="M146.6590 61.7276
L146.5637 61.6800
" />
<path d="M146.5637 61.6800
L146.5161 61.6324
" />
<path d="M146.5161 61.6324
L146.4685 61.5371
" />
<path d="M146.4685 61.5371
L146.4685 60.7276
" />
<path d="M146.0399 60.8229
L145.9923 60.7752
" />
<path d="M145.9923 60.7752
L145.8970 60.7276
" />
<path d="M145.8970 60.7276
L145.6590 60.7276
" />
<path d="M145.6590 60.7276
L145.5637 60.7752
" />
<path d="M145.5637 60.7752
L145.5161 60.8229
" />
<path d="M145.5161 60.8229
L145.4685 60.9181
" />
<path d="M145.4685 60.9181
L145.4685 61.0133
" />
<path d="M145.4685 61.0133
L145.5161 61.1562
" />
<path d="M145.5161 61.1562
L146.0875 61.7276
" />
<path d="M146.0875 61.7276
L145.4685 61.7276
" />
</g><text x="127.0000" y="40.4000"
transform="scale(-1 1) translate(-254.000000 0)"
textLength="4.0119" font-size="1.3333" lengthAdjust="spacingAndGlyphs"
text-anchor="middle" opacity="0" stroke-opacity="0">OLED</text>
<g class="stroked-text"><desc>OLED</desc>
<path d="M128.4524 39.3548
L128.2619 39.3548
" />
<path d="M128.2619 39.3548
L128.1667 39.4024
" />
<path d="M128.1667 39.4024
L128.0714 39.4977
" />
<path d="M128.0714 39.4977
L128.0238 39.6882
" />
<path d="M128.0238 39.6882
L128.0238 40.0215
" />
<path d="M128.0238 40.0215
L128.0714 40.2120
" />
<path d="M128.0714 40.2120
L128.1667 40.3072
" />
<path d="M128.1667 40.3072
L128.2619 40.3548
" />
<path d="M128.2619 40.3548
L128.4524 40.3548
" />
<path d="M128.4524 40.3548
L128.5476 40.3072
" />
<path d="M128.5476 40.3072
L128.6429 40.2120
" />
<path d="M128.6429 40.2120
L128.6905 40.0215
" />
<path d="M128.6905 40.0215
L128.6905 39.6882
" />
<path d="M128.6905 39.6882
L128.6429 39.4977
" />
<path d="M128.6429 39.4977
L128.5476 39.4024
" />
<path d="M128.5476 39.4024
L128.4524 39.3548
" />
<path d="M127.1190 40.3548
L127.5952 40.3548
" />
<path d="M127.5952 40.3548
L127.5952 39.3548
" />
<path d="M126.7857 39.8310
L126.4524 39.8310
" />
<path d="M126.3095 40.3548
L126.7857 40.3548
" />
<path d="M126.7857 40.3548
L126.7857 39.3548
" />
<path d="M126.7857 39.3548
L126.3095 39.3548
" />
<path d="M125.8810 40.3548
L125.8810 39.3548
" />
<path d="M125.8810 39.3548
L125.6429 39.3548
" />
<path d="M125.6429 39.3548
L125.5000 39.4024
" />
<path d="M125.5000 39.4024
L125.4048 39.4977
" />
<path d="M125.4048 39.4977
L125.3571 39.5929
" />
<path d="M125.3571 39.5929
L125.3095 39.7834
" />
<path d="M125.3095 39.7834
L125.3095 39.9262
" />
<path d="M125.3095 39.9262
L125.3571 40.1167
" />
<path d="M125.3571 40.1167
L125.4048 40.2120
" />
<path d="M125.4048 40.2120
L125.5000 40.3072
" />
<path d="M125.5000 40.3072
L125.6429 40.3548
" />
<path d="M125.6429 40.3548
L125.8810 40.3548
" />
</g><text x="127.0000" y="34.9500"
transform="scale(-1 1) translate(-254.000000 0)"
textLength="1.9643" font-size="1.3333" lengthAdjust="spacingAndGlyphs"
text-anchor="middle" opacity="0" stroke-opacity="0">J3</text>
<g class="stroked-text"><desc>J3</desc>
<path d="M127.3333 33.9048
L127.3333 34.6191
" />
<path d="M127.3333 34.6191
L127.3810 34.7620
" />
<path d="M127.3810 34.7620
L127.4762 34.8572
" />
<path d="M127.4762 34.8572
L127.6190 34.9048
" />
<path d="M127.6190 34.9048
L127.7143 34.9048
" />
<path d="M126.9524 33.9048
L126.3333 33.9048
" />
<path d="M126.3333 33.9048
L126.6667 34.2858
" />
<path d="M126.6667 34.2858
L126.5238 34.2858
" />
<path d="M126.5238 34.2858
L126.4286 34.3334
" />
<path d="M126.4286 34.3334
L126.3810 34.3810
" />
<path d="M126.3810 34.3810
L126.3333 34.4762
" />
<path d="M126.3333 34.4762
L126.3333 34.7143
" />
<path d="M126.3333 34.7143
L126.3810 34.8096
" />
<path d="M126.3810 34.8096
L126.4286 34.8572
" />
<path d="M126.4286 34.8572
L126.5238 34.9048
" />
<path d="M126.5238 34.9048
L126.8095 34.9048
" />
<path d="M126.8095 34.9048
L126.9048 34.8572
" />
<path d="M126.9048 34.8572
L126.9524 34.8096
" />
</g><g transform="rotate(-90.000000 29.1500 111.0000)">
<text x="29.1500" y="111.5000"
transform="scale(-1 1) translate(-58.300000 0)"
textLength="12.4881" font-size="1.3333" lengthAdjust="spacingAndGlyphs"
text-anchor="middle" opacity="0" stroke-opacity="0">Conn_01x03_Pin</text>
</g>
<g class="stroked-text"><desc>Conn_01x03_Pin</desc>
<path d="M29.5096 105.6905
L29.5572 105.6429
" />
<path d="M29.5572 105.6429
L29.6048 105.5000
" />
<path d="M29.6048 105.5000
L29.6048 105.4048
" />
<path d="M29.6048 105.4048
L29.5572 105.2619
" />
<path d="M29.5572 105.2619
L29.4620 105.1667
" />
<path d="M29.4620 105.1667
L29.3667 105.1190
" />
<path d="M29.3667 105.1190
L29.1762 105.0714
" />
<path d="M29.1762 105.0714
L29.0334 105.0714
" />
<path d="M29.0334 105.0714
L28.8429 105.1190
" />
<path d="M28.8429 105.1190
L28.7477 105.1667
" />
<path d="M28.7477 105.1667
L28.6524 105.2619
" />
<path d="M28.6524 105.2619
L28.6048 105.4048
" />
<path d="M28.6048 105.4048
L28.6048 105.5000
" />
<path d="M28.6048 105.5000
L28.6524 105.6429
" />
<path d="M28.6524 105.6429
L28.7001 105.6905
" />
<path d="M29.6048 106.2619
L29.5572 106.1667
" />
<path d="M29.5572 106.1667
L29.5096 106.1190
" />
<path d="M29.5096 106.1190
L29.4143 106.0714
" />
<path d="M29.4143 106.0714
L29.1286 106.0714
" />
<path d="M29.1286 106.0714
L29.0334 106.1190
" />
<path d="M29.0334 106.1190
L28.9858 106.1667
" />
<path d="M28.9858 106.1667
L28.9382 106.2619
" />
<path d="M28.9382 106.2619
L28.9382 106.4048
" />
<path d="M28.9382 106.4048
L28.9858 106.5000
" />
<path d="M28.9858 106.5000
L29.0334 106.5476
" />
<path d="M29.0334 106.5476
L29.1286 106.5952
" />
<path d="M29.1286 106.5952
L29.4143 106.5952
" />
<path d="M29.4143 106.5952
L29.5096 106.5476
" />
<path d="M29.5096 106.5476
L29.5572 106.5000
" />
<path d="M29.5572 106.5000
L29.6048 106.4048
" />
<path d="M29.6048 106.4048
L29.6048 106.2619
" />
<path d="M28.9382 107.0238
L29.6048 107.0238
" />
<path d="M29.0334 107.0238
L28.9858 107.0714
" />
<path d="M28.9858 107.0714
L28.9382 107.1667
" />
<path d="M28.9382 107.1667
L28.9382 107.3095
" />
<path d="M28.9382 107.3095
L28.9858 107.4048
" />
<path d="M28.9858 107.4048
L29.0810 107.4524
" />
<path d="M29.0810 107.4524
L29.6048 107.4524
" />
<path d="M28.9382 107.9286
L29.6048 107.9286
" />
<path d="M29.0334 107.9286
L28.9858 107.9762
" />
<path d="M28.9858 107.9762
L28.9382 108.0714
" />
<path d="M28.9382 108.0714
L28.9382 108.2143
" />
<path d="M28.9382 108.2143
L28.9858 108.3095
" />
<path d="M28.9858 108.3095
L29.0810 108.3571
" />
<path d="M29.0810 108.3571
L29.6048 108.3571
" />
<path d="M29.7001 108.5952
L29.7001 109.3571
" />
<path d="M28.6048 109.7857
L28.6048 109.8810
" />
<path d="M28.6048 109.8810
L28.6524 109.9762
" />
<path d="M28.6524 109.9762
L28.7001 110.0238
" />
<path d="M28.7001 110.0238
L28.7953 110.0714
" />
<path d="M28.7953 110.0714
L28.9858 110.1190
" />
<path d="M28.9858 110.1190
L29.2239 110.1190
" />
<path d="M29.2239 110.1190
L29.4143 110.0714
" />
<path d="M29.4143 110.0714
L29.5096 110.0238
" />
<path d="M29.5096 110.0238
L29.5572 109.9762
" />
<path d="M29.5572 109.9762
L29.6048 109.8810
" />
<path d="M29.6048 109.8810
L29.6048 109.7857
" />
<path d="M29.6048 109.7857
L29.5572 109.6905
" />
<path d="M29.5572 109.6905
L29.5096 109.6429
" />
<path d="M29.5096 109.6429
L29.4143 109.5952
" />
<path d="M29.4143 109.5952
L29.2239 109.5476
" />
<path d="M29.2239 109.5476
L28.9858 109.5476
" />
<path d="M28.9858 109.5476
L28.7953 109.5952
" />
<path d="M28.7953 109.5952
L28.7001 109.6429
" />
<path d="M28.7001 109.6429
L28.6524 109.6905
" />
<path d="M28.6524 109.6905
L28.6048 109.7857
" />
<path d="M29.6048 111.0714
L29.6048 110.5000
" />
<path d="M29.6048 110.7857
L28.6048 110.7857
" />
<path d="M28.6048 110.7857
L28.7477 110.6905
" />
<path d="M28.7477 110.6905
L28.8429 110.5952
" />
<path d="M28.8429 110.5952
L28.8905 110.5000
" />
<path d="M29.6048 111.4048
L28.9382 111.9286
" />
<path d="M28.9382 111.4048
L29.6048 111.9286
" />
<path d="M28.6048 112.5000
L28.6048 112.5952
" />
<path d="M28.6048 112.5952
L28.6524 112.6905
" />
<path d="M28.6524 112.6905
L28.7001 112.7381
" />
<path d="M28.7001 112.7381
L28.7953 112.7857
" />
<path d="M28.7953 112.7857
L28.9858 112.8333
" />
<path d="M28.9858 112.8333
L29.2239 112.8333
" />
<path d="M29.2239 112.8333
L29.4143 112.7857
" />
<path d="M29.4143 112.7857
L29.5096 112.7381
" />
<path d="M29.5096 112.7381
L29.5572 112.6905
" />
<path d="M29.5572 112.6905
L29.6048 112.5952
" />
<path d="M29.6048 112.5952
L29.6048 112.5000
" />
<path d="M29.6048 112.5000
L29.5572 112.4048
" />
<path d="M29.5572 112.4048
L29.5096 112.3571
" />
<path d="M29.5096 112.3571
L29.4143 112.3095
" />
<path d="M29.4143 112.3095
L29.2239 112.2619
" />
<path d="M29.2239 112.2619
L28.9858 112.2619
" />
<path d="M28.9858 112.2619
L28.7953 112.3095
" />
<path d="M28.7953 112.3095
L28.7001 112.3571
" />
<path d="M28.7001 112.3571
L28.6524 112.4048
" />
<path d="M28.6524 112.4048
L28.6048 112.5000
" />
<path d="M28.6048 113.1667
L28.6048 113.7857
" />
<path d="M28.6048 113.7857
L28.9858 113.4524
" />
<path d="M28.9858 113.4524
L28.9858 113.5952
" />
<path d="M28.9858 113.5952
L29.0334 113.6905
" />
<path d="M29.0334 113.6905
L29.0810 113.7381
" />
<path d="M29.0810 113.7381
L29.1762 113.7857
" />
<path d="M29.1762 113.7857
L29.4143 113.7857
" />
<path d="M29.4143 113.7857
L29.5096 113.7381
" />
<path d="M29.5096 113.7381
L29.5572 113.6905
" />
<path d="M29.5572 113.6905
L29.6048 113.5952
" />
<path d="M29.6048 113.5952
L29.6048 113.3095
" />
<path d="M29.6048 113.3095
L29.5572 113.2143
" />
<path d="M29.5572 113.2143
L29.5096 113.1667
" />
<path d="M29.7001 113.9762
L29.7001 114.7381
" />
<path d="M29.6048 114.9762
L28.6048 114.9762
" />
<path d="M28.6048 114.9762
L28.6048 115.3571
" />
<path d="M28.6048 115.3571
L28.6524 115.4524
" />
<path d="M28.6524 115.4524
L28.7001 115.5000
" />
<path d="M28.7001 115.5000
L28.7953 115.5476
" />
<path d="M28.7953 115.5476
L28.9382 115.5476
" />
<path d="M28.9382 115.5476
L29.0334 115.5000
" />
<path d="M29.0334 115.5000
L29.0810 115.4524
" />
<path d="M29.0810 115.4524
L29.1286 115.3571
" />
<path d="M29.1286 115.3571
L29.1286 114.9762
" />
<path d="M29.6048 115.9762
L28.9382 115.9762
" />
<path d="M28.6048 115.9762
L28.6524 115.9286
" />
<path d="M28.6524 115.9286
L28.7001 115.9762
" />
<path d="M28.7001 115.9762
L28.6524 116.0238
" />
<path d="M28.6524 116.0238
L28.6048 115.9762
" />
<path d="M28.6048 115.9762
L28.7001 115.9762
" />
<path d="M28.9382 116.4524
L29.6048 116.4524
" />
<path d="M29.0334 116.4524
L28.9858 116.5000
" />
<path d="M28.9858 116.5000
L28.9382 116.5952
" />
<path d="M28.9382 116.5952
L28.9382 116.7381
" />
<path d="M28.9382 116.7381
L28.9858 116.8333
" />
<path d="M28.9858 116.8333
L29.0810 116.8810
" />
<path d="M29.0810 116.8810
L29.6048 116.8810
" />
</g><g transform="rotate(-90.000000 23.7000 111.0000)">
<text x="23.7000" y="111.5000"
transform="scale(-1 1) translate(-47.400000 0)"
textLength="1.9643" font-size="1.3333" lengthAdjust="spacingAndGlyphs"
text-anchor="middle" opacity="0" stroke-opacity="0">J2</text>
</g>
<g class="stroked-text"><desc>J2</desc>
<path d="M23.1548 110.6667
L23.8691 110.6667
" />
<path d="M23.8691 110.6667
L24.0120 110.6190
" />
<path d="M24.0120 110.6190
L24.1072 110.5238
" />
<path d="M24.1072 110.5238
L24.1548 110.3810
" />
<path d="M24.1548 110.3810
L24.1548 110.2857
" />
<path d="M23.2501 111.0952
L23.2024 111.1429
" />
<path d="M23.2024 111.1429
L23.1548 111.2381
" />
<path d="M23.1548 111.2381
L23.1548 111.4762
" />
<path d="M23.1548 111.4762
L23.2024 111.5714
" />
<path d="M23.2024 111.5714
L23.2501 111.6190
" />
<path d="M23.2501 111.6190
L23.3453 111.6667
" />
<path d="M23.3453 111.6667
L23.4405 111.6667
" />
<path d="M23.4405 111.6667
L23.5834 111.6190
" />
<path d="M23.5834 111.6190
L24.1548 111.0476
" />
<path d="M24.1548 111.0476
L24.1548 111.6667
" />
</g><text x="107.0000" y="39.9500"
transform="scale(-1 1) translate(-214.000000 0)"
textLength="12.4881" font-size="1.3333" lengthAdjust="spacingAndGlyphs"
text-anchor="middle" opacity="0" stroke-opacity="0">Conn_01x03_Pin</text>
<g class="stroked-text"><desc>Conn_01x03_Pin</desc>
<path d="M112.3095 39.8096
L112.3571 39.8572
" />
<path d="M112.3571 39.8572
L112.5000 39.9048
" />
<path d="M112.5000 39.9048
L112.5952 39.9048
" />
<path d="M112.5952 39.9048
L112.7381 39.8572
" />
<path d="M112.7381 39.8572
L112.8333 39.7620
" />
<path d="M112.8333 39.7620
L112.8810 39.6667
" />
<path d="M112.8810 39.6667
L112.9286 39.4762
" />
<path d="M112.9286 39.4762
L112.9286 39.3334
" />
<path d="M112.9286 39.3334
L112.8810 39.1429
" />
<path d="M112.8810 39.1429
L112.8333 39.0477
" />
<path d="M112.8333 39.0477
L112.7381 38.9524
" />
<path d="M112.7381 38.9524
L112.5952 38.9048
" />
<path d="M112.5952 38.9048
L112.5000 38.9048
" />
<path d="M112.5000 38.9048
L112.3571 38.9524
" />
<path d="M112.3571 38.9524
L112.3095 39.0001
" />
<path d="M111.7381 39.9048
L111.8333 39.8572
" />
<path d="M111.8333 39.8572
L111.8810 39.8096
" />
<path d="M111.8810 39.8096
L111.9286 39.7143
" />
<path d="M111.9286 39.7143
L111.9286 39.4286
" />
<path d="M111.9286 39.4286
L111.8810 39.3334
" />
<path d="M111.8810 39.3334
L111.8333 39.2858
" />
<path d="M111.8333 39.2858
L111.7381 39.2382
" />
<path d="M111.7381 39.2382
L111.5952 39.2382
" />
<path d="M111.5952 39.2382
L111.5000 39.2858
" />
<path d="M111.5000 39.2858
L111.4524 39.3334
" />
<path d="M111.4524 39.3334
L111.4048 39.4286
" />
<path d="M111.4048 39.4286
L111.4048 39.7143
" />
<path d="M111.4048 39.7143
L111.4524 39.8096
" />
<path d="M111.4524 39.8096
L111.5000 39.8572
" />
<path d="M111.5000 39.8572
L111.5952 39.9048
" />
<path d="M111.5952 39.9048
L111.7381 39.9048
" />
<path d="M110.9762 39.2382
L110.9762 39.9048
" />
<path d="M110.9762 39.3334
L110.9286 39.2858
" />
<path d="M110.9286 39.2858
L110.8333 39.2382
" />
<path d="M110.8333 39.2382
L110.6905 39.2382
" />
<path d="M110.6905 39.2382
L110.5952 39.2858
" />
<path d="M110.5952 39.2858
L110.5476 39.3810
" />
<path d="M110.5476 39.3810
L110.5476 39.9048
" />
<path d="M110.0714 39.2382
L110.0714 39.9048
" />
<path d="M110.0714 39.3334
L110.0238 39.2858
" />
<path d="M110.0238 39.2858
L109.9286 39.2382
" />
<path d="M109.9286 39.2382
L109.7857 39.2382
" />
<path d="M109.7857 39.2382
L109.6905 39.2858
" />
<path d="M109.6905 39.2858
L109.6429 39.3810
" />
<path d="M109.6429 39.3810
L109.6429 39.9048
" />
<path d="M109.4048 40.0001
L108.6429 40.0001
" />
<path d="M108.2143 38.9048
L108.1190 38.9048
" />
<path d="M108.1190 38.9048
L108.0238 38.9524
" />
<path d="M108.0238 38.9524
L107.9762 39.0001
" />
<path d="M107.9762 39.0001
L107.9286 39.0953
" />
<path d="M107.9286 39.0953
L107.8810 39.2858
" />
<path d="M107.8810 39.2858
L107.8810 39.5239
" />
<path d="M107.8810 39.5239
L107.9286 39.7143
" />
<path d="M107.9286 39.7143
L107.9762 39.8096
" />
<path d="M107.9762 39.8096
L108.0238 39.8572
" />
<path d="M108.0238 39.8572
L108.1190 39.9048
" />
<path d="M108.1190 39.9048
L108.2143 39.9048
" />
<path d="M108.2143 39.9048
L108.3095 39.8572
" />
<path d="M108.3095 39.8572
L108.3571 39.8096
" />
<path d="M108.3571 39.8096
L108.4048 39.7143
" />
<path d="M108.4048 39.7143
L108.4524 39.5239
" />
<path d="M108.4524 39.5239
L108.4524 39.2858
" />
<path d="M108.4524 39.2858
L108.4048 39.0953
" />
<path d="M108.4048 39.0953
L108.3571 39.0001
" />
<path d="M108.3571 39.0001
L108.3095 38.9524
" />
<path d="M108.3095 38.9524
L108.2143 38.9048
" />
<path d="M106.9286 39.9048
L107.5000 39.9048
" />
<path d="M107.2143 39.9048
L107.2143 38.9048
" />
<path d="M107.2143 38.9048
L107.3095 39.0477
" />
<path d="M107.3095 39.0477
L107.4048 39.1429
" />
<path d="M107.4048 39.1429
L107.5000 39.1905
" />
<path d="M106.5952 39.9048
L106.0714 39.2382
" />
<path d="M106.5952 39.2382
L106.0714 39.9048
" />
<path d="M105.5000 38.9048
L105.4048 38.9048
" />
<path d="M105.4048 38.9048
L105.3095 38.9524
" />
<path d="M105.3095 38.9524
L105.2619 39.0001
" />
<path d="M105.2619 39.0001
L105.2143 39.0953
" />
<path d="M105.2143 39.0953
L105.1667 39.2858
" />
<path d="M105.1667 39.2858
L105.1667 39.5239
" />
<path d="M105.1667 39.5239
L105.2143 39.7143
" />
<path d="M105.2143 39.7143
L105.2619 39.8096
" />
<path d="M105.2619 39.8096
L105.3095 39.8572
" />
<path d="M105.3095 39.8572
L105.4048 39.9048
" />
<path d="M105.4048 39.9048
L105.5000 39.9048
" />
<path d="M105.5000 39.9048
L105.5952 39.8572
" />
<path d="M105.5952 39.8572
L105.6429 39.8096
" />
<path d="M105.6429 39.8096
L105.6905 39.7143
" />
<path d="M105.6905 39.7143
L105.7381 39.5239
" />
<path d="M105.7381 39.5239
L105.7381 39.2858
" />
<path d="M105.7381 39.2858
L105.6905 39.0953
" />
<path d="M105.6905 39.0953
L105.6429 39.0001
" />
<path d="M105.6429 39.0001
L105.5952 38.9524
" />
<path d="M105.5952 38.9524
L105.5000 38.9048
" />
<path d="M104.8333 38.9048
L104.2143 38.9048
" />
<path d="M104.2143 38.9048
L104.5476 39.2858
" />
<path d="M104.5476 39.2858
L104.4048 39.2858
" />
<path d="M104.4048 39.2858
L104.3095 39.3334
" />
<path d="M104.3095 39.3334
L104.2619 39.3810
" />
<path d="M104.2619 39.3810
L104.2143 39.4762
" />
<path d="M104.2143 39.4762
L104.2143 39.7143
" />
<path d="M104.2143 39.7143
L104.2619 39.8096
" />
<path d="M104.2619 39.8096
L104.3095 39.8572
" />
<path d="M104.3095 39.8572
L104.4048 39.9048
" />
<path d="M104.4048 39.9048
L104.6905 39.9048
" />
<path d="M104.6905 39.9048
L104.7857 39.8572
" />
<path d="M104.7857 39.8572
L104.8333 39.8096
" />
<path d="M104.0238 40.0001
L103.2619 40.0001
" />
<path d="M103.0238 39.9048
L103.0238 38.9048
" />
<path d="M103.0238 38.9048
L102.6429 38.9048
" />
<path d="M102.6429 38.9048
L102.5476 38.9524
" />
<path d="M102.5476 38.9524
L102.5000 39.0001
" />
<path d="M102.5000 39.0001
L102.4524 39.0953
" />
<path d="M102.4524 39.0953
L102.4524 39.2382
" />
<path d="M102.4524 39.2382
L102.5000 39.3334
" />
<path d="M102.5000 39.3334
L102.5476 39.3810
" />
<path d="M102.5476 39.3810
L102.6429 39.4286
" />
<path d="M102.6429 39.4286
L103.0238 39.4286
" />
<path d="M102.0238 39.9048
L102.0238 39.2382
" />
<path d="M102.0238 38.9048
L102.0714 38.9524
" />
<path d="M102.0714 38.9524
L102.0238 39.0001
" />
<path d="M102.0238 39.0001
L101.9762 38.9524
" />
<path d="M101.9762 38.9524
L102.0238 38.9048
" />
<path d="M102.0238 38.9048
L102.0238 39.0001
" />
<path d="M101.5476 39.2382
L101.5476 39.9048
" />
<path d="M101.5476 39.3334
L101.5000 39.2858
" />
<path d="M101.5000 39.2858
L101.4048 39.2382
" />
<path d="M101.4048 39.2382
L101.2619 39.2382
" />
<path d="M101.2619 39.2382
L101.1667 39.2858
" />
<path d="M101.1667 39.2858
L101.1190 39.3810
" />
<path d="M101.1190 39.3810
L101.1190 39.9048
" />
</g><text x="107.0000" y="34.5000"
transform="scale(-1 1) translate(-214.000000 0)"
textLength="1.9643" font-size="1.3333" lengthAdjust="spacingAndGlyphs"
text-anchor="middle" opacity="0" stroke-opacity="0">J1</text>
<g class="stroked-text"><desc>J1</desc>
<path d="M107.3333 33.4548
L107.3333 34.1691
" />
<path d="M107.3333 34.1691
L107.3810 34.3120
" />
<path d="M107.3810 34.3120
L107.4762 34.4072
" />
<path d="M107.4762 34.4072
L107.6190 34.4548
" />
<path d="M107.6190 34.4548
L107.7143 34.4548
" />
<path d="M106.3333 34.4548
L106.9048 34.4548
" />
<path d="M106.6190 34.4548
L106.6190 33.4548
" />
<path d="M106.6190 33.4548
L106.7143 33.5977
" />
<path d="M106.7143 33.5977
L106.8095 33.6929
" />
<path d="M106.8095 33.6929
L106.9048 33.7405
" />
</g></g>
<g style="fill:none; 
stroke:#000000; stroke-width:0.1000; stroke-opacity:1; 
stroke-linecap:round; stroke-linejoin:round;">
<path d="M58.1480 58.2028
L58.1480 60.7428
" />
<path d="M58.1480 60.7428
L67.6730 60.7428
" />
<path d="M67.6730 60.7428
L68.3080 60.1078
" />
<path d="M68.3080 58.2028
L58.1480 58.2028
" />
<path d="M68.3080 60.1078
L68.3080 58.2028
" />
<path d="M141.1980 60.0028
L141.1980 62.5428
" />
<path d="M141.1980 62.5428
L150.7230 62.5428
" />
<path d="M150.7230 62.5428
L151.3580 61.9078
" />
<path d="M151.3580 60.0028
L141.1980 60.0028
" />
<path d="M151.3580 61.9078
L151.3580 60.0028
" />
<path d="M121.0250 31.2000
L121.0250 36.2000
" />
<path d="M121.0250 31.2000
L132.9750 31.2000
" />
<path d="M121.0250 36.2000
L132.9750 36.2000
" />
<path d="M123.7500 32.7000
L123.7500 33.2000
" />
<path d="M123.7500 33.2000
L124.2500 33.2000
" />
<path d="M124.2500 32.7000
L123.7500 32.7000
" />
<path d="M124.2500 33.2000
L124.2500 32.7000
" />
<path d="M125.7500 32.7000
L125.7500 33.2000
" />
<path d="M125.7500 33.2000
L126.2500 33.2000
" />
<path d="M126.2500 32.7000
L125.7500 32.7000
" />
<path d="M126.2500 33.2000
L126.2500 32.7000
" />
<path d="M127.7500 32.7000
L127.7500 33.2000
" />
<path d="M127.7500 33.2000
L128.2500 33.2000
" />
<path d="M128.2500 32.7000
L127.7500 32.7000
" />
<path d="M128.2500 33.2000
L128.2500 32.7000
" />
<path d="M129.5000 36.2000
L130.0000 35.4929
" />
<path d="M129.7500 32.7000
L129.7500 33.2000
" />
<path d="M129.7500 33.2000
L130.2500 33.2000
" />
<path d="M130.0000 35.4929
L130.5000 36.2000
" />
<path d="M130.2500 32.7000
L129.7500 32.7000
" />
<path d="M130.2500 33.2000
L130.2500 32.7000
" />
<path d="M132.9750 31.2000
L132.9750 36.2000
" />
<path d="M20.4500 106.0250
L20.4500 115.9750
" />
<path d="M21.9500 108.7500
L22.4500 108.7500
" />
<path d="M21.9500 109.2500
L21.9500 108.7500
" />
<path d="M21.9500 110.7500
L22.4500 110.7500
" />
<path d="M21.9500 111.2500
L21.9500 110.7500
" />
<path d="M21.9500 112.7500
L22.4500 112.7500
" />
<path d="M21.9500 113.2500
L21.9500 112.7500
" />
<path d="M22.4500 108.7500
L22.4500 109.2500
" />
<path d="M22.4500 109.2500
L21.9500 109.2500
" />
<path d="M22.4500 110.7500
L22.4500 111.2500
" />
<path d="M22.4500 111.2500
L21.9500 111.2500
" />
<path d="M22.4500 112.7500
L22.4500 113.2500
" />
<path d="M22.4500 113.2500
L21.9500 113.2500
" />
<path d="M24.7429 109.0000
L25.4500 109.5000
" />
<path d="M25.4500 106.0250
L20.4500 106.0250
" />
<path d="M25.4500 106.0250
L25.4500 115.9750
" />
<path d="M25.4500 108.5000
L24.7429 109.0000
" />
<path d="M25.4500 115.9750
L20.4500 115.9750
" />
<path d="M102.0250 35.7500
L102.0250 30.7500
" />
<path d="M104.7500 32.2500
L105.2500 32.2500
" />
<path d="M104.7500 32.7500
L104.7500 32.2500
" />
<path d="M105.2500 32.2500
L105.2500 32.7500
" />
<path d="M105.2500 32.7500
L104.7500 32.7500
" />
<path d="M106.7500 32.2500
L107.2500 32.2500
" />
<path d="M106.7500 32.7500
L106.7500 32.2500
" />
<path d="M107.2500 32.2500
L107.2500 32.7500
" />
<path d="M107.2500 32.7500
L106.7500 32.7500
" />
<path d="M108.7500 32.2500
L109.2500 32.2500
" />
<path d="M108.7500 32.7500
L108.7500 32.2500
" />
<path d="M109.0000 35.0429
L108.5000 35.7500
" />
<path d="M109.2500 32.2500
L109.2500 32.7500
" />
<path d="M109.2500 32.7500
L108.7500 32.7500
" />
<path d="M109.5000 35.7500
L109.0000 35.0429
" />
<path d="M111.9750 30.7500
L102.0250 30.7500
" />
<path d="M111.9750 35.7500
L102.0250 35.7500
" />
<path d="M111.9750 35.7500
L111.9750 30.7500
" />
</g>
<g style="fill:#000000; fill-opacity:1.0000; stroke:none;">
<circle cx="48.2500" cy="58.8000" r="1.0500" /> 
</g>
<g style="fill:#000000; fill-opacity:1.0000; stroke:none;">
<circle cx="48.2500" cy="110.8000" r="1.0500" /> 
</g>
<g style="fill:#000000; fill-opacity:1.0000; stroke:none;">
<circle cx="78.2500" cy="58.8000" r="1.0500" /> 
</g>
<g style="fill:#000000; fill-opacity:1.0000; stroke:none;">
<circle cx="78.2500" cy="110.8000" r="1.0500" /> 
</g>
<g style="fill:#000000; fill-opacity:1.0000; stroke:none;">
<circle cx="67.0380" cy="59.4728" r="0.5000" /> 
</g>
<g style="fill:#000000; fill-opacity:1.0000; stroke:none;">
<circle cx="64.4980" cy="59.4728" r="0.5000" /> 
</g>
<g style="fill:#000000; fill-opacity:1.0000; stroke:none;">
<circle cx="61.9580" cy="59.4728" r="0.5000" /> 
</g>
<g style="fill:#000000; fill-opacity:1.0000; stroke:none;">
<circle cx="59.4180" cy="59.4728" r="0.5000" /> 
</g>
<g style="fill:#000000; fill-opacity:1.0000; stroke:none;">
<circle cx="131.3000" cy="60.6000" r="1.0500" /> 
</g>
<g style="fill:#000000; fill-opacity:1.0000; stroke:none;">
<circle cx="131.3000" cy="112.6000" r="1.0500" /> 
</g>
<g style="fill:#000000; fill-opacity:1.0000; stroke:none;">
<circle cx="161.3000" cy="60.6000" r="1.0500" /> 
</g>
<g style="fill:#000000; fill-opacity:1.0000; stroke:none;">
<circle cx="161.3000" cy="112.6000" r="1.0500" /> 
</g>
<g style="fill:#000000; fill-opacity:1.0000; stroke:none;">
<circle cx="150.0880" cy="61.2728" r="0.5000" /> 
</g>
<g style="fill:#000000; fill-opacity:1.0000; stroke:none;">
<circle cx="147.5480" cy="61.2728" r="0.5000" /> 
</g>
<g style="fill:#000000; fill-opacity:1.0000; stroke:none;">
<circle cx="145.0080" cy="61.2728" r="0.5000" /> 
</g>
<g style="fill:#000000; fill-opacity:1.0000; stroke:none;">
<circle cx="142.4680" cy="61.2728" r="0.5000" /> 
</g> 
</svg>
