<?xml version="1.0" standalone="no"?>
 <!DOCTYPE svg PUBLIC "-//W3C//DTD SVG 1.1//EN" 
 "http://www.w3.org/Graphics/SVG/1.1/DTD/svg11.dtd"> 
<svg
  xmlns:svg="http://www.w3.org/2000/svg"
  xmlns="http://www.w3.org/2000/svg"
  xmlns:xlink="http://www.w3.org/1999/xlink"
  version="1.1"
  width="297.0022mm" height="210.0072mm" viewBox="0.0000 0.0000 297.0022 210.0072">
<title>SVG Image created as pedalboard-display-B_Mask.svg date 2024/10/06 11:16:24 </title>
  <desc>Image generated by PCBNEW </desc>
<g style="fill:#000000; fill-opacity:1.0000;stroke:#000000; stroke-opacity:1.0000;
stroke-linecap:round; stroke-linejoin:round;"
 transform="translate(0 0) scale(1 1)">
</g>
<g style="fill:#000000; fill-opacity:1.0000; stroke:none;">
<circle cx="48.2500" cy="58.8000" r="1.0500" /> 
</g>
<g style="fill:#000000; fill-opacity:1.0000; stroke:none;">
<circle cx="48.2500" cy="110.8000" r="1.0500" /> 
</g>
<g style="fill:#000000; fill-opacity:1.0000; stroke:none;">
<circle cx="78.2500" cy="58.8000" r="1.0500" /> 
</g>
<g style="fill:#000000; fill-opacity:1.0000; stroke:none;">
<circle cx="78.2500" cy="110.8000" r="1.0500" /> 
<path style="fill:#000000; fill-opacity:1.0000; stroke:none;fill-rule:evenodd;"
d="M 66.1880,57.6728
67.8880,57.6728
67.8880,61.2728
66.1880,61.2728
Z" /> 
</g>
<g style="fill:none; 
stroke:#000000; stroke-width:1.7000; stroke-opacity:1; 
stroke-linecap:round; stroke-linejoin:round;">
<path d="M64.4980 58.5728
L64.4980 60.3728
" />
<path d="M61.9580 58.5728
L61.9580 60.3728
" />
<path d="M59.4180 58.5728
L59.4180 60.3728
" />
</g>
<g style="fill:#000000; fill-opacity:1.0000; stroke:none;">
<circle cx="131.3000" cy="60.6000" r="1.0500" /> 
</g>
<g style="fill:#000000; fill-opacity:1.0000; stroke:none;">
<circle cx="131.3000" cy="112.6000" r="1.0500" /> 
</g>
<g style="fill:#000000; fill-opacity:1.0000; stroke:none;">
<circle cx="161.3000" cy="60.6000" r="1.0500" /> 
</g>
<g style="fill:#000000; fill-opacity:1.0000; stroke:none;">
<circle cx="161.3000" cy="112.6000" r="1.0500" /> 
<path style="fill:#000000; fill-opacity:1.0000; stroke:none;fill-rule:evenodd;"
d="M 149.2380,59.4728
150.9380,59.4728
150.9380,63.0728
149.2380,63.0728
Z" /> 
</g>
<g style="fill:none; 
stroke:#000000; stroke-width:1.7000; stroke-opacity:1; 
stroke-linecap:round; stroke-linejoin:round;">
<path d="M147.5480 60.3728
L147.5480 62.1728
" />
<path d="M145.0080 60.3728
L145.0080 62.1728
" />
<path d="M142.4680 60.3728
L142.4680 62.1728
" />
<path style="fill:#000000; fill-opacity:1.0000; stroke:none;fill-rule:evenodd;"
d="M 130.5000,38.4500
130.4810,38.5457
130.4268,38.6268
130.3457,38.6810
130.2500,38.7000
129.7500,38.7000
129.6543,38.6810
129.5732,38.6268
129.5190,38.5457
129.5000,38.4500
129.5000,33.4500
129.5190,33.3543
129.5732,33.2732
129.6543,33.2190
129.7500,33.2000
130.2500,33.2000
130.3457,33.2190
130.4268,33.2732
130.4810,33.3543
130.5000,33.4500
Z" /> 
<path style="fill:#000000; fill-opacity:1.0000; stroke:none;fill-rule:evenodd;"
d="M 128.5000,38.4500
128.4810,38.5457
128.4268,38.6268
128.3457,38.6810
128.2500,38.7000
127.7500,38.7000
127.6543,38.6810
127.5732,38.6268
127.5190,38.5457
127.5000,38.4500
127.5000,33.4500
127.5190,33.3543
127.5732,33.2732
127.6543,33.2190
127.7500,33.2000
128.2500,33.2000
128.3457,33.2190
128.4268,33.2732
128.4810,33.3543
128.5000,33.4500
Z" /> 
<path style="fill:#000000; fill-opacity:1.0000; stroke:none;fill-rule:evenodd;"
d="M 126.5000,38.4500
126.4810,38.5457
126.4268,38.6268
126.3457,38.6810
126.2500,38.7000
125.7500,38.7000
125.6543,38.6810
125.5732,38.6268
125.5190,38.5457
125.5000,38.4500
125.5000,33.4500
125.5190,33.3543
125.5732,33.2732
125.6543,33.2190
125.7500,33.2000
126.2500,33.2000
126.3457,33.2190
126.4268,33.2732
126.4810,33.3543
126.5000,33.4500
Z" /> 
<path style="fill:#000000; fill-opacity:1.0000; stroke:none;fill-rule:evenodd;"
d="M 124.5000,38.4500
124.4810,38.5457
124.4268,38.6268
124.3457,38.6810
124.2500,38.7000
123.7500,38.7000
123.6543,38.6810
123.5732,38.6268
123.5190,38.5457
123.5000,38.4500
123.5000,33.4500
123.5190,33.3543
123.5732,33.2732
123.6543,33.2190
123.7500,33.2000
124.2500,33.2000
124.3457,33.2190
124.4268,33.2732
124.4810,33.3543
124.5000,33.4500
Z" /> 
<path style="fill:#000000; fill-opacity:1.0000; stroke:none;fill-rule:evenodd;"
d="M 133.2000,34.9500
133.1810,35.0457
133.1268,35.1268
133.0457,35.1810
132.9500,35.2000
131.8500,35.2000
131.7543,35.1810
131.6732,35.1268
131.6190,35.0457
131.6000,34.9500
131.6000,32.4500
131.6190,32.3543
131.6732,32.2732
131.7543,32.2190
131.8500,32.2000
132.9500,32.2000
133.0457,32.2190
133.1268,32.2732
133.1810,32.3543
133.2000,32.4500
Z" /> 
<path style="fill:#000000; fill-opacity:1.0000; stroke:none;fill-rule:evenodd;"
d="M 122.4000,34.9500
122.3810,35.0457
122.3268,35.1268
122.2457,35.1810
122.1500,35.2000
121.0500,35.2000
120.9543,35.1810
120.8732,35.1268
120.8190,35.0457
120.8000,34.9500
120.8000,32.4500
120.8190,32.3543
120.8732,32.2732
120.9543,32.2190
121.0500,32.2000
122.1500,32.2000
122.2457,32.2190
122.3268,32.2732
122.3810,32.3543
122.4000,32.4500
Z" /> 
<path style="fill:#000000; fill-opacity:1.0000; stroke:none;fill-rule:evenodd;"
d="M 27.7000,108.5000
27.7957,108.5190
27.8768,108.5732
27.9310,108.6543
27.9500,108.7500
27.9500,109.2500
27.9310,109.3457
27.8768,109.4268
27.7957,109.4810
27.7000,109.5000
22.7000,109.5000
22.6043,109.4810
22.5232,109.4268
22.4690,109.3457
22.4500,109.2500
22.4500,108.7500
22.4690,108.6543
22.5232,108.5732
22.6043,108.5190
22.7000,108.5000
Z" /> 
<path style="fill:#000000; fill-opacity:1.0000; stroke:none;fill-rule:evenodd;"
d="M 27.7000,110.5000
27.7957,110.5190
27.8768,110.5732
27.9310,110.6543
27.9500,110.7500
27.9500,111.2500
27.9310,111.3457
27.8768,111.4268
27.7957,111.4810
27.7000,111.5000
22.7000,111.5000
22.6043,111.4810
22.5232,111.4268
22.4690,111.3457
22.4500,111.2500
22.4500,110.7500
22.4690,110.6543
22.5232,110.5732
22.6043,110.5190
22.7000,110.5000
Z" /> 
<path style="fill:#000000; fill-opacity:1.0000; stroke:none;fill-rule:evenodd;"
d="M 27.7000,112.5000
27.7957,112.5190
27.8768,112.5732
27.9310,112.6543
27.9500,112.7500
27.9500,113.2500
27.9310,113.3457
27.8768,113.4268
27.7957,113.4810
27.7000,113.5000
22.7000,113.5000
22.6043,113.4810
22.5232,113.4268
22.4690,113.3457
22.4500,113.2500
22.4500,112.7500
22.4690,112.6543
22.5232,112.5732
22.6043,112.5190
22.7000,112.5000
Z" /> 
<path style="fill:#000000; fill-opacity:1.0000; stroke:none;fill-rule:evenodd;"
d="M 24.2000,105.8000
24.2957,105.8190
24.3768,105.8732
24.4310,105.9543
24.4500,106.0500
24.4500,107.1500
24.4310,107.2457
24.3768,107.3268
24.2957,107.3810
24.2000,107.4000
21.7000,107.4000
21.6043,107.3810
21.5232,107.3268
21.4690,107.2457
21.4500,107.1500
21.4500,106.0500
21.4690,105.9543
21.5232,105.8732
21.6043,105.8190
21.7000,105.8000
Z" /> 
<path style="fill:#000000; fill-opacity:1.0000; stroke:none;fill-rule:evenodd;"
d="M 24.2000,114.6000
24.2957,114.6190
24.3768,114.6732
24.4310,114.7543
24.4500,114.8500
24.4500,115.9500
24.4310,116.0457
24.3768,116.1268
24.2957,116.1810
24.2000,116.2000
21.7000,116.2000
21.6043,116.1810
21.5232,116.1268
21.4690,116.0457
21.4500,115.9500
21.4500,114.8500
21.4690,114.7543
21.5232,114.6732
21.6043,114.6190
21.7000,114.6000
Z" /> 
<path style="fill:#000000; fill-opacity:1.0000; stroke:none;fill-rule:evenodd;"
d="M 109.5000,38.0000
109.4810,38.0957
109.4268,38.1768
109.3457,38.2310
109.2500,38.2500
108.7500,38.2500
108.6543,38.2310
108.5732,38.1768
108.5190,38.0957
108.5000,38.0000
108.5000,33.0000
108.5190,32.9043
108.5732,32.8232
108.6543,32.7690
108.7500,32.7500
109.2500,32.7500
109.3457,32.7690
109.4268,32.8232
109.4810,32.9043
109.5000,33.0000
Z" /> 
<path style="fill:#000000; fill-opacity:1.0000; stroke:none;fill-rule:evenodd;"
d="M 107.5000,38.0000
107.4810,38.0957
107.4268,38.1768
107.3457,38.2310
107.2500,38.2500
106.7500,38.2500
106.6543,38.2310
106.5732,38.1768
106.5190,38.0957
106.5000,38.0000
106.5000,33.0000
106.5190,32.9043
106.5732,32.8232
106.6543,32.7690
106.7500,32.7500
107.2500,32.7500
107.3457,32.7690
107.4268,32.8232
107.4810,32.9043
107.5000,33.0000
Z" /> 
<path style="fill:#000000; fill-opacity:1.0000; stroke:none;fill-rule:evenodd;"
d="M 105.5000,38.0000
105.4810,38.0957
105.4268,38.1768
105.3457,38.2310
105.2500,38.2500
104.7500,38.2500
104.6543,38.2310
104.5732,38.1768
104.5190,38.0957
104.5000,38.0000
104.5000,33.0000
104.5190,32.9043
104.5732,32.8232
104.6543,32.7690
104.7500,32.7500
105.2500,32.7500
105.3457,32.7690
105.4268,32.8232
105.4810,32.9043
105.5000,33.0000
Z" /> 
<path style="fill:#000000; fill-opacity:1.0000; stroke:none;fill-rule:evenodd;"
d="M 112.2000,34.5000
112.1810,34.5957
112.1268,34.6768
112.0457,34.7310
111.9500,34.7500
110.8500,34.7500
110.7543,34.7310
110.6732,34.6768
110.6190,34.5957
110.6000,34.5000
110.6000,32.0000
110.6190,31.9043
110.6732,31.8232
110.7543,31.7690
110.8500,31.7500
111.9500,31.7500
112.0457,31.7690
112.1268,31.8232
112.1810,31.9043
112.2000,32.0000
Z" /> 
<path style="fill:#000000; fill-opacity:1.0000; stroke:none;fill-rule:evenodd;"
d="M 103.4000,34.5000
103.3810,34.5957
103.3268,34.6768
103.2457,34.7310
103.1500,34.7500
102.0500,34.7500
101.9543,34.7310
101.8732,34.6768
101.8190,34.5957
101.8000,34.5000
101.8000,32.0000
101.8190,31.9043
101.8732,31.8232
101.9543,31.7690
102.0500,31.7500
103.1500,31.7500
103.2457,31.7690
103.3268,31.8232
103.3810,31.9043
103.4000,32.0000
Z" /> 
</g> 
</svg>
