<?xml version="1.0" standalone="no"?>
 <!DOCTYPE svg PUBLIC "-//W3C//DTD SVG 1.1//EN" 
 "http://www.w3.org/Graphics/SVG/1.1/DTD/svg11.dtd"> 
<svg
  xmlns:svg="http://www.w3.org/2000/svg"
  xmlns="http://www.w3.org/2000/svg"
  xmlns:xlink="http://www.w3.org/1999/xlink"
  version="1.1"
  width="297.0022mm" height="210.0072mm" viewBox="0.0000 0.0000 297.0022 210.0072">
<title>SVG Image created as pedalboard-display-B_Mask.svg date 2024/10/08 08:59:56 </title>
  <desc>Image generated by PCBNEW </desc>
<g style="fill:#000000; fill-opacity:1.0000;stroke:#000000; stroke-opacity:1.0000;
stroke-linecap:round; stroke-linejoin:round;"
 transform="translate(0 0) scale(1 1)">
</g>
<g style="fill:#000000; fill-opacity:1.0000; stroke:none;">
<circle cx="170.0000" cy="133.0000" r="1.2500" /> 
</g>
<g style="fill:#000000; fill-opacity:1.0000; stroke:none;">
<circle cx="170.0000" cy="28.0000" r="1.2500" /> 
</g>
<g style="fill:#000000; fill-opacity:1.0000; stroke:none;">
<circle cx="54.5000" cy="75.2000" r="1.0500" /> 
</g>
<g style="fill:#000000; fill-opacity:1.0000; stroke:none;">
<circle cx="54.5000" cy="127.2000" r="1.0500" /> 
</g>
<g style="fill:#000000; fill-opacity:1.0000; stroke:none;">
<circle cx="84.5000" cy="75.2000" r="1.0500" /> 
</g>
<g style="fill:#000000; fill-opacity:1.0000; stroke:none;">
<circle cx="84.5000" cy="127.2000" r="1.0500" /> 
<path style="fill:#000000; fill-opacity:1.0000; stroke:none;fill-rule:evenodd;"
d="M 72.4380,74.0728
74.1380,74.0728
74.1380,77.6728
72.4380,77.6728
Z" /> 
</g>
<g style="fill:none; 
stroke:#000000; stroke-width:1.7000; stroke-opacity:1; 
stroke-linecap:round; stroke-linejoin:round;">
<path d="M70.7480 74.9728
L70.7480 76.7728
" />
<path d="M68.2080 74.9728
L68.2080 76.7728
" />
<path d="M65.6680 74.9728
L65.6680 76.7728
" />
</g>
<g style="fill:#000000; fill-opacity:1.0000; stroke:none;">
<circle cx="44.0000" cy="133.0000" r="1.2500" /> 
</g>
<g style="fill:#000000; fill-opacity:1.0000; stroke:none;">
<circle cx="107.0000" cy="103.0000" r="1.2500" /> 
</g>
<g style="fill:#000000; fill-opacity:1.0000; stroke:none;">
<circle cx="44.0000" cy="28.0000" r="1.2500" /> 
</g>
<g style="fill:#000000; fill-opacity:1.0000; stroke:none;">
<circle cx="129.5000" cy="75.2000" r="1.0500" /> 
</g>
<g style="fill:#000000; fill-opacity:1.0000; stroke:none;">
<circle cx="129.5000" cy="127.2000" r="1.0500" /> 
</g>
<g style="fill:#000000; fill-opacity:1.0000; stroke:none;">
<circle cx="159.5000" cy="75.2000" r="1.0500" /> 
</g>
<g style="fill:#000000; fill-opacity:1.0000; stroke:none;">
<circle cx="159.5000" cy="127.2000" r="1.0500" /> 
<path style="fill:#000000; fill-opacity:1.0000; stroke:none;fill-rule:evenodd;"
d="M 147.4380,74.0728
149.1380,74.0728
149.1380,77.6728
147.4380,77.6728
Z" /> 
</g>
<g style="fill:none; 
stroke:#000000; stroke-width:1.7000; stroke-opacity:1; 
stroke-linecap:round; stroke-linejoin:round;">
<path d="M145.7480 74.9728
L145.7480 76.7728
" />
<path d="M143.2080 74.9728
L143.2080 76.7728
" />
<path d="M140.6680 74.9728
L140.6680 76.7728
" />
<path style="fill:#000000; fill-opacity:1.0000; stroke:none;fill-rule:evenodd;"
d="M 135.3000,77.3375
135.2043,77.3185
135.1232,77.2643
135.0690,77.1832
135.0500,77.0875
135.0500,76.5625
135.0690,76.4668
135.1232,76.3857
135.2043,76.3315
135.3000,76.3125
136.2000,76.3125
136.2957,76.3315
136.3768,76.3857
136.4310,76.4668
136.4500,76.5625
136.4500,77.0875
136.4310,77.1832
136.3768,77.2643
136.2957,77.3185
136.2000,77.3375
Z" /> 
<path style="fill:#000000; fill-opacity:1.0000; stroke:none;fill-rule:evenodd;"
d="M 135.3000,75.5125
135.2043,75.4935
135.1232,75.4393
135.0690,75.3582
135.0500,75.2625
135.0500,74.7375
135.0690,74.6418
135.1232,74.5607
135.2043,74.5065
135.3000,74.4875
136.2000,74.4875
136.2957,74.5065
136.3768,74.5607
136.4310,74.6418
136.4500,74.7375
136.4500,75.2625
136.4310,75.3582
136.3768,75.4393
136.2957,75.4935
136.2000,75.5125
Z" /> 
<path style="fill:#000000; fill-opacity:1.0000; stroke:none;fill-rule:evenodd;"
d="M 137.3000,77.3375
137.2043,77.3185
137.1232,77.2643
137.0690,77.1832
137.0500,77.0875
137.0500,76.5625
137.0690,76.4668
137.1232,76.3857
137.2043,76.3315
137.3000,76.3125
138.2000,76.3125
138.2957,76.3315
138.3768,76.3857
138.4310,76.4668
138.4500,76.5625
138.4500,77.0875
138.4310,77.1832
138.3768,77.2643
138.2957,77.3185
138.2000,77.3375
Z" /> 
<path style="fill:#000000; fill-opacity:1.0000; stroke:none;fill-rule:evenodd;"
d="M 137.3000,75.5125
137.2043,75.4935
137.1232,75.4393
137.0690,75.3582
137.0500,75.2625
137.0500,74.7375
137.0690,74.6418
137.1232,74.5607
137.2043,74.5065
137.3000,74.4875
138.2000,74.4875
138.2957,74.5065
138.3768,74.5607
138.4310,74.6418
138.4500,74.7375
138.4500,75.2625
138.4310,75.3582
138.3768,75.4393
138.2957,75.4935
138.2000,75.5125
Z" /> 
<path style="fill:#000000; fill-opacity:1.0000; stroke:none;fill-rule:evenodd;"
d="M 147.5000,71.0000
147.4810,71.0957
147.4268,71.1768
147.3457,71.2310
147.2500,71.2500
146.7500,71.2500
146.6543,71.2310
146.5732,71.1768
146.5190,71.0957
146.5000,71.0000
146.5000,66.0000
146.5190,65.9043
146.5732,65.8232
146.6543,65.7690
146.7500,65.7500
147.2500,65.7500
147.3457,65.7690
147.4268,65.8232
147.4810,65.9043
147.5000,66.0000
Z" /> 
<path style="fill:#000000; fill-opacity:1.0000; stroke:none;fill-rule:evenodd;"
d="M 145.5000,71.0000
145.4810,71.0957
145.4268,71.1768
145.3457,71.2310
145.2500,71.2500
144.7500,71.2500
144.6543,71.2310
144.5732,71.1768
144.5190,71.0957
144.5000,71.0000
144.5000,66.0000
144.5190,65.9043
144.5732,65.8232
144.6543,65.7690
144.7500,65.7500
145.2500,65.7500
145.3457,65.7690
145.4268,65.8232
145.4810,65.9043
145.5000,66.0000
Z" /> 
<path style="fill:#000000; fill-opacity:1.0000; stroke:none;fill-rule:evenodd;"
d="M 143.5000,71.0000
143.4810,71.0957
143.4268,71.1768
143.3457,71.2310
143.2500,71.2500
142.7500,71.2500
142.6543,71.2310
142.5732,71.1768
142.5190,71.0957
142.5000,71.0000
142.5000,66.0000
142.5190,65.9043
142.5732,65.8232
142.6543,65.7690
142.7500,65.7500
143.2500,65.7500
143.3457,65.7690
143.4268,65.8232
143.4810,65.9043
143.5000,66.0000
Z" /> 
<path style="fill:#000000; fill-opacity:1.0000; stroke:none;fill-rule:evenodd;"
d="M 141.5000,71.0000
141.4810,71.0957
141.4268,71.1768
141.3457,71.2310
141.2500,71.2500
140.7500,71.2500
140.6543,71.2310
140.5732,71.1768
140.5190,71.0957
140.5000,71.0000
140.5000,66.0000
140.5190,65.9043
140.5732,65.8232
140.6543,65.7690
140.7500,65.7500
141.2500,65.7500
141.3457,65.7690
141.4268,65.8232
141.4810,65.9043
141.5000,66.0000
Z" /> 
<path style="fill:#000000; fill-opacity:1.0000; stroke:none;fill-rule:evenodd;"
d="M 150.2000,67.5000
150.1810,67.5957
150.1268,67.6768
150.0457,67.7310
149.9500,67.7500
148.8500,67.7500
148.7543,67.7310
148.6732,67.6768
148.6190,67.5957
148.6000,67.5000
148.6000,65.0000
148.6190,64.9043
148.6732,64.8232
148.7543,64.7690
148.8500,64.7500
149.9500,64.7500
150.0457,64.7690
150.1268,64.8232
150.1810,64.9043
150.2000,65.0000
Z" /> 
<path style="fill:#000000; fill-opacity:1.0000; stroke:none;fill-rule:evenodd;"
d="M 139.4000,67.5000
139.3810,67.5957
139.3268,67.6768
139.2457,67.7310
139.1500,67.7500
138.0500,67.7500
137.9543,67.7310
137.8732,67.6768
137.8190,67.5957
137.8000,67.5000
137.8000,65.0000
137.8190,64.9043
137.8732,64.8232
137.9543,64.7690
138.0500,64.7500
139.1500,64.7500
139.2457,64.7690
139.3268,64.8232
139.3810,64.9043
139.4000,65.0000
Z" /> 
<path style="fill:#000000; fill-opacity:1.0000; stroke:none;fill-rule:evenodd;"
d="M 27.7000,108.5000
27.7957,108.5190
27.8768,108.5732
27.9310,108.6543
27.9500,108.7500
27.9500,109.2500
27.9310,109.3457
27.8768,109.4268
27.7957,109.4810
27.7000,109.5000
22.7000,109.5000
22.6043,109.4810
22.5232,109.4268
22.4690,109.3457
22.4500,109.2500
22.4500,108.7500
22.4690,108.6543
22.5232,108.5732
22.6043,108.5190
22.7000,108.5000
Z" /> 
<path style="fill:#000000; fill-opacity:1.0000; stroke:none;fill-rule:evenodd;"
d="M 27.7000,110.5000
27.7957,110.5190
27.8768,110.5732
27.9310,110.6543
27.9500,110.7500
27.9500,111.2500
27.9310,111.3457
27.8768,111.4268
27.7957,111.4810
27.7000,111.5000
22.7000,111.5000
22.6043,111.4810
22.5232,111.4268
22.4690,111.3457
22.4500,111.2500
22.4500,110.7500
22.4690,110.6543
22.5232,110.5732
22.6043,110.5190
22.7000,110.5000
Z" /> 
<path style="fill:#000000; fill-opacity:1.0000; stroke:none;fill-rule:evenodd;"
d="M 27.7000,112.5000
27.7957,112.5190
27.8768,112.5732
27.9310,112.6543
27.9500,112.7500
27.9500,113.2500
27.9310,113.3457
27.8768,113.4268
27.7957,113.4810
27.7000,113.5000
22.7000,113.5000
22.6043,113.4810
22.5232,113.4268
22.4690,113.3457
22.4500,113.2500
22.4500,112.7500
22.4690,112.6543
22.5232,112.5732
22.6043,112.5190
22.7000,112.5000
Z" /> 
<path style="fill:#000000; fill-opacity:1.0000; stroke:none;fill-rule:evenodd;"
d="M 24.2000,105.8000
24.2957,105.8190
24.3768,105.8732
24.4310,105.9543
24.4500,106.0500
24.4500,107.1500
24.4310,107.2457
24.3768,107.3268
24.2957,107.3810
24.2000,107.4000
21.7000,107.4000
21.6043,107.3810
21.5232,107.3268
21.4690,107.2457
21.4500,107.1500
21.4500,106.0500
21.4690,105.9543
21.5232,105.8732
21.6043,105.8190
21.7000,105.8000
Z" /> 
<path style="fill:#000000; fill-opacity:1.0000; stroke:none;fill-rule:evenodd;"
d="M 24.2000,114.6000
24.2957,114.6190
24.3768,114.6732
24.4310,114.7543
24.4500,114.8500
24.4500,115.9500
24.4310,116.0457
24.3768,116.1268
24.2957,116.1810
24.2000,116.2000
21.7000,116.2000
21.6043,116.1810
21.5232,116.1268
21.4690,116.0457
21.4500,115.9500
21.4500,114.8500
21.4690,114.7543
21.5232,114.6732
21.6043,114.6190
21.7000,114.6000
Z" /> 
<path style="fill:#000000; fill-opacity:1.0000; stroke:none;fill-rule:evenodd;"
d="M 109.5000,56.0000
109.4810,56.0957
109.4268,56.1768
109.3457,56.2310
109.2500,56.2500
108.7500,56.2500
108.6543,56.2310
108.5732,56.1768
108.5190,56.0957
108.5000,56.0000
108.5000,51.0000
108.5190,50.9043
108.5732,50.8232
108.6543,50.7690
108.7500,50.7500
109.2500,50.7500
109.3457,50.7690
109.4268,50.8232
109.4810,50.9043
109.5000,51.0000
Z" /> 
<path style="fill:#000000; fill-opacity:1.0000; stroke:none;fill-rule:evenodd;"
d="M 107.5000,56.0000
107.4810,56.0957
107.4268,56.1768
107.3457,56.2310
107.2500,56.2500
106.7500,56.2500
106.6543,56.2310
106.5732,56.1768
106.5190,56.0957
106.5000,56.0000
106.5000,51.0000
106.5190,50.9043
106.5732,50.8232
106.6543,50.7690
106.7500,50.7500
107.2500,50.7500
107.3457,50.7690
107.4268,50.8232
107.4810,50.9043
107.5000,51.0000
Z" /> 
<path style="fill:#000000; fill-opacity:1.0000; stroke:none;fill-rule:evenodd;"
d="M 105.5000,56.0000
105.4810,56.0957
105.4268,56.1768
105.3457,56.2310
105.2500,56.2500
104.7500,56.2500
104.6543,56.2310
104.5732,56.1768
104.5190,56.0957
104.5000,56.0000
104.5000,51.0000
104.5190,50.9043
104.5732,50.8232
104.6543,50.7690
104.7500,50.7500
105.2500,50.7500
105.3457,50.7690
105.4268,50.8232
105.4810,50.9043
105.5000,51.0000
Z" /> 
<path style="fill:#000000; fill-opacity:1.0000; stroke:none;fill-rule:evenodd;"
d="M 112.2000,52.5000
112.1810,52.5957
112.1268,52.6768
112.0457,52.7310
111.9500,52.7500
110.8500,52.7500
110.7543,52.7310
110.6732,52.6768
110.6190,52.5957
110.6000,52.5000
110.6000,50.0000
110.6190,49.9043
110.6732,49.8232
110.7543,49.7690
110.8500,49.7500
111.9500,49.7500
112.0457,49.7690
112.1268,49.8232
112.1810,49.9043
112.2000,50.0000
Z" /> 
<path style="fill:#000000; fill-opacity:1.0000; stroke:none;fill-rule:evenodd;"
d="M 103.4000,52.5000
103.3810,52.5957
103.3268,52.6768
103.2457,52.7310
103.1500,52.7500
102.0500,52.7500
101.9543,52.7310
101.8732,52.6768
101.8190,52.5957
101.8000,52.5000
101.8000,50.0000
101.8190,49.9043
101.8732,49.8232
101.9543,49.7690
102.0500,49.7500
103.1500,49.7500
103.2457,49.7690
103.3268,49.8232
103.3810,49.9043
103.4000,50.0000
Z" /> 
</g> 
</svg>
