<?xml version="1.0" standalone="no"?>
 <!DOCTYPE svg PUBLIC "-//W3C//DTD SVG 1.1//EN" 
 "http://www.w3.org/Graphics/SVG/1.1/DTD/svg11.dtd"> 
<svg
  xmlns:svg="http://www.w3.org/2000/svg"
  xmlns="http://www.w3.org/2000/svg"
  xmlns:xlink="http://www.w3.org/1999/xlink"
  version="1.1"
  width="297.0022mm" height="210.0072mm" viewBox="0.0000 0.0000 297.0022 210.0072">
<title>SVG Image created as pedalboard-display-B_Fab.svg date 2024/10/16 16:53:56 </title>
  <desc>Image generated by PCBNEW </desc>
<g style="fill:#000000; fill-opacity:1.0000;stroke:#000000; stroke-opacity:1.0000;
stroke-linecap:round; stroke-linejoin:round;"
 transform="translate(0 0) scale(1 1)">
</g>
<g style="fill:none; 
stroke:#000000; stroke-width:0.1500; stroke-opacity:1; 
stroke-linecap:round; stroke-linejoin:round;">
<text x="69.4780" y="76.3728"
transform="scale(-1 1) translate(-138.956000 0)"
textLength="2.2500" font-size="1.3333" lengthAdjust="spacingAndGlyphs"
text-anchor="middle" opacity="0" stroke-opacity="0">U1</text>
<g class="stroked-text"><desc>U1</desc>
<path d="M70.2399 75.3276
L70.2399 76.1371
" />
<path d="M70.2399 76.1371
L70.1923 76.2324
" />
<path d="M70.1923 76.2324
L70.1447 76.2800
" />
<path d="M70.1447 76.2800
L70.0494 76.3276
" />
<path d="M70.0494 76.3276
L69.8590 76.3276
" />
<path d="M69.8590 76.3276
L69.7637 76.2800
" />
<path d="M69.7637 76.2800
L69.7161 76.2324
" />
<path d="M69.7161 76.2324
L69.6685 76.1371
" />
<path d="M69.6685 76.1371
L69.6685 75.3276
" />
<path d="M68.6685 76.3276
L69.2399 76.3276
" />
<path d="M68.9542 76.3276
L68.9542 75.3276
" />
<path d="M68.9542 75.3276
L69.0494 75.4705
" />
<path d="M69.0494 75.4705
L69.1447 75.5657
" />
<path d="M69.1447 75.5657
L69.2399 75.6133
" />
</g><text x="144.4780" y="76.3728"
transform="scale(-1 1) translate(-288.956000 0)"
textLength="2.2500" font-size="1.3333" lengthAdjust="spacingAndGlyphs"
text-anchor="middle" opacity="0" stroke-opacity="0">U2</text>
<g class="stroked-text"><desc>U2</desc>
<path d="M145.2399 75.3276
L145.2399 76.1371
" />
<path d="M145.2399 76.1371
L145.1923 76.2324
" />
<path d="M145.1923 76.2324
L145.1447 76.2800
" />
<path d="M145.1447 76.2800
L145.0494 76.3276
" />
<path d="M145.0494 76.3276
L144.8590 76.3276
" />
<path d="M144.8590 76.3276
L144.7637 76.2800
" />
<path d="M144.7637 76.2800
L144.7161 76.2324
" />
<path d="M144.7161 76.2324
L144.6685 76.1371
" />
<path d="M144.6685 76.1371
L144.6685 75.3276
" />
<path d="M144.2399 75.4229
L144.1923 75.3752
" />
<path d="M144.1923 75.3752
L144.0970 75.3276
" />
<path d="M144.0970 75.3276
L143.8590 75.3276
" />
<path d="M143.8590 75.3276
L143.7637 75.3752
" />
<path d="M143.7637 75.3752
L143.7161 75.4229
" />
<path d="M143.7161 75.4229
L143.6685 75.5181
" />
<path d="M143.6685 75.5181
L143.6685 75.6133
" />
<path d="M143.6685 75.6133
L143.7161 75.7562
" />
<path d="M143.7161 75.7562
L144.2875 76.3276
" />
<path d="M144.2875 76.3276
L143.6685 76.3276
" />
</g><g transform="rotate(-90.000000 134.1000 75.9125)">
<text x="134.1000" y="76.4125"
transform="scale(-1 1) translate(-268.200000 0)"
textLength="3.1548" font-size="1.3333" lengthAdjust="spacingAndGlyphs"
text-anchor="middle" opacity="0" stroke-opacity="0">3K3</text>
</g>
<g class="stroked-text"><desc>3K3</desc>
<path d="M133.5548 74.6030
L133.5548 75.2220
" />
<path d="M133.5548 75.2220
L133.9358 74.8887
" />
<path d="M133.9358 74.8887
L133.9358 75.0315
" />
<path d="M133.9358 75.0315
L133.9834 75.1268
" />
<path d="M133.9834 75.1268
L134.0310 75.1744
" />
<path d="M134.0310 75.1744
L134.1262 75.2220
" />
<path d="M134.1262 75.2220
L134.3643 75.2220
" />
<path d="M134.3643 75.2220
L134.4596 75.1744
" />
<path d="M134.4596 75.1744
L134.5072 75.1268
" />
<path d="M134.5072 75.1268
L134.5548 75.0315
" />
<path d="M134.5548 75.0315
L134.5548 74.7458
" />
<path d="M134.5548 74.7458
L134.5072 74.6506
" />
<path d="M134.5072 74.6506
L134.4596 74.6030
" />
<path d="M134.5548 75.6506
L133.5548 75.6506
" />
<path d="M134.5548 76.2220
L133.9834 75.7935
" />
<path d="M133.5548 76.2220
L134.1262 75.6506
" />
<path d="M133.5548 76.5554
L133.5548 77.1744
" />
<path d="M133.5548 77.1744
L133.9358 76.8411
" />
<path d="M133.9358 76.8411
L133.9358 76.9839
" />
<path d="M133.9358 76.9839
L133.9834 77.0792
" />
<path d="M133.9834 77.0792
L134.0310 77.1268
" />
<path d="M134.0310 77.1268
L134.1262 77.1744
" />
<path d="M134.1262 77.1744
L134.3643 77.1744
" />
<path d="M134.3643 77.1744
L134.4596 77.1268
" />
<path d="M134.4596 77.1268
L134.5072 77.0792
" />
<path d="M134.5072 77.0792
L134.5548 76.9839
" />
<path d="M134.5548 76.9839
L134.5548 76.6982
" />
<path d="M134.5548 76.6982
L134.5072 76.6030
" />
<path d="M134.5072 76.6030
L134.4596 76.5554
" />
</g></g>
<g style="fill:none; 
stroke:#000000; stroke-width:0.0800; stroke-opacity:1; 
stroke-linecap:round; stroke-linejoin:round;">
<g transform="rotate(-90.000000 135.7500 75.9125)">
<text x="135.7500" y="76.1625"
transform="scale(-1 1) translate(-271.500000 0)"
textLength="1.1162" font-size="0.6667" lengthAdjust="spacingAndGlyphs"
text-anchor="middle" opacity="0" stroke-opacity="0">R3</text>
</g>
<g class="stroked-text"><desc>R3</desc>
<path d="M135.9771 75.8292
L135.7391 75.6625
" />
<path d="M135.9771 75.5435
L135.4771 75.5435
" />
<path d="M135.4771 75.5435
L135.4771 75.7339
" />
<path d="M135.4771 75.7339
L135.5010 75.7815
" />
<path d="M135.5010 75.7815
L135.5248 75.8054
" />
<path d="M135.5248 75.8054
L135.5724 75.8292
" />
<path d="M135.5724 75.8292
L135.6438 75.8292
" />
<path d="M135.6438 75.8292
L135.6914 75.8054
" />
<path d="M135.6914 75.8054
L135.7152 75.7815
" />
<path d="M135.7152 75.7815
L135.7391 75.7339
" />
<path d="M135.7391 75.7339
L135.7391 75.5435
" />
<path d="M135.4771 75.9958
L135.4771 76.3054
" />
<path d="M135.4771 76.3054
L135.6676 76.1387
" />
<path d="M135.6676 76.1387
L135.6676 76.2101
" />
<path d="M135.6676 76.2101
L135.6914 76.2577
" />
<path d="M135.6914 76.2577
L135.7152 76.2815
" />
<path d="M135.7152 76.2815
L135.7629 76.3054
" />
<path d="M135.7629 76.3054
L135.8819 76.3054
" />
<path d="M135.8819 76.3054
L135.9295 76.2815
" />
<path d="M135.9295 76.2815
L135.9533 76.2577
" />
<path d="M135.9533 76.2577
L135.9771 76.2101
" />
<path d="M135.9771 76.2101
L135.9771 76.0673
" />
<path d="M135.9771 76.0673
L135.9533 76.0196
" />
<path d="M135.9533 76.0196
L135.9295 75.9958
" />
</g></g>
<g style="fill:none; 
stroke:#000000; stroke-width:0.1500; stroke-opacity:1; 
stroke-linecap:round; stroke-linejoin:round;">
<g transform="rotate(-90.000000 136.1000 75.9125)">
<text x="136.1000" y="76.4125"
transform="scale(-1 1) translate(-272.200000 0)"
textLength="3.1548" font-size="1.3333" lengthAdjust="spacingAndGlyphs"
text-anchor="middle" opacity="0" stroke-opacity="0">3K3</text>
</g>
<g class="stroked-text"><desc>3K3</desc>
<path d="M135.5548 74.6030
L135.5548 75.2220
" />
<path d="M135.5548 75.2220
L135.9358 74.8887
" />
<path d="M135.9358 74.8887
L135.9358 75.0315
" />
<path d="M135.9358 75.0315
L135.9834 75.1268
" />
<path d="M135.9834 75.1268
L136.0310 75.1744
" />
<path d="M136.0310 75.1744
L136.1262 75.2220
" />
<path d="M136.1262 75.2220
L136.3643 75.2220
" />
<path d="M136.3643 75.2220
L136.4596 75.1744
" />
<path d="M136.4596 75.1744
L136.5072 75.1268
" />
<path d="M136.5072 75.1268
L136.5548 75.0315
" />
<path d="M136.5548 75.0315
L136.5548 74.7458
" />
<path d="M136.5548 74.7458
L136.5072 74.6506
" />
<path d="M136.5072 74.6506
L136.4596 74.6030
" />
<path d="M136.5548 75.6506
L135.5548 75.6506
" />
<path d="M136.5548 76.2220
L135.9834 75.7935
" />
<path d="M135.5548 76.2220
L136.1262 75.6506
" />
<path d="M135.5548 76.5554
L135.5548 77.1744
" />
<path d="M135.5548 77.1744
L135.9358 76.8411
" />
<path d="M135.9358 76.8411
L135.9358 76.9839
" />
<path d="M135.9358 76.9839
L135.9834 77.0792
" />
<path d="M135.9834 77.0792
L136.0310 77.1268
" />
<path d="M136.0310 77.1268
L136.1262 77.1744
" />
<path d="M136.1262 77.1744
L136.3643 77.1744
" />
<path d="M136.3643 77.1744
L136.4596 77.1268
" />
<path d="M136.4596 77.1268
L136.5072 77.0792
" />
<path d="M136.5072 77.0792
L136.5548 76.9839
" />
<path d="M136.5548 76.9839
L136.5548 76.6982
" />
<path d="M136.5548 76.6982
L136.5072 76.6030
" />
<path d="M136.5072 76.6030
L136.4596 76.5554
" />
</g></g>
<g style="fill:none; 
stroke:#000000; stroke-width:0.0800; stroke-opacity:1; 
stroke-linecap:round; stroke-linejoin:round;">
<g transform="rotate(-90.000000 137.7500 75.9125)">
<text x="137.7500" y="76.1625"
transform="scale(-1 1) translate(-275.500000 0)"
textLength="1.1162" font-size="0.6667" lengthAdjust="spacingAndGlyphs"
text-anchor="middle" opacity="0" stroke-opacity="0">R2</text>
</g>
<g class="stroked-text"><desc>R2</desc>
<path d="M137.9771 75.8292
L137.7391 75.6625
" />
<path d="M137.9771 75.5435
L137.4771 75.5435
" />
<path d="M137.4771 75.5435
L137.4771 75.7339
" />
<path d="M137.4771 75.7339
L137.5010 75.7815
" />
<path d="M137.5010 75.7815
L137.5248 75.8054
" />
<path d="M137.5248 75.8054
L137.5724 75.8292
" />
<path d="M137.5724 75.8292
L137.6438 75.8292
" />
<path d="M137.6438 75.8292
L137.6914 75.8054
" />
<path d="M137.6914 75.8054
L137.7152 75.7815
" />
<path d="M137.7152 75.7815
L137.7391 75.7339
" />
<path d="M137.7391 75.7339
L137.7391 75.5435
" />
<path d="M137.5248 76.0196
L137.5010 76.0435
" />
<path d="M137.5010 76.0435
L137.4771 76.0911
" />
<path d="M137.4771 76.0911
L137.4771 76.2101
" />
<path d="M137.4771 76.2101
L137.5010 76.2577
" />
<path d="M137.5010 76.2577
L137.5248 76.2815
" />
<path d="M137.5248 76.2815
L137.5724 76.3054
" />
<path d="M137.5724 76.3054
L137.6200 76.3054
" />
<path d="M137.6200 76.3054
L137.6914 76.2815
" />
<path d="M137.6914 76.2815
L137.9771 75.9958
" />
<path d="M137.9771 75.9958
L137.9771 76.3054
" />
</g></g>
<g style="fill:none; 
stroke:#000000; stroke-width:0.1500; stroke-opacity:1; 
stroke-linecap:round; stroke-linejoin:round;">
<text x="144.0000" y="72.9500"
transform="scale(-1 1) translate(-288.000000 0)"
textLength="4.0119" font-size="1.3333" lengthAdjust="spacingAndGlyphs"
text-anchor="middle" opacity="0" stroke-opacity="0">OLED</text>
<g class="stroked-text"><desc>OLED</desc>
<path d="M145.4524 71.9048
L145.2619 71.9048
" />
<path d="M145.2619 71.9048
L145.1667 71.9524
" />
<path d="M145.1667 71.9524
L145.0714 72.0477
" />
<path d="M145.0714 72.0477
L145.0238 72.2382
" />
<path d="M145.0238 72.2382
L145.0238 72.5715
" />
<path d="M145.0238 72.5715
L145.0714 72.7620
" />
<path d="M145.0714 72.7620
L145.1667 72.8572
" />
<path d="M145.1667 72.8572
L145.2619 72.9048
" />
<path d="M145.2619 72.9048
L145.4524 72.9048
" />
<path d="M145.4524 72.9048
L145.5476 72.8572
" />
<path d="M145.5476 72.8572
L145.6429 72.7620
" />
<path d="M145.6429 72.7620
L145.6905 72.5715
" />
<path d="M145.6905 72.5715
L145.6905 72.2382
" />
<path d="M145.6905 72.2382
L145.6429 72.0477
" />
<path d="M145.6429 72.0477
L145.5476 71.9524
" />
<path d="M145.5476 71.9524
L145.4524 71.9048
" />
<path d="M144.1190 72.9048
L144.5952 72.9048
" />
<path d="M144.5952 72.9048
L144.5952 71.9048
" />
<path d="M143.7857 72.3810
L143.4524 72.3810
" />
<path d="M143.3095 72.9048
L143.7857 72.9048
" />
<path d="M143.7857 72.9048
L143.7857 71.9048
" />
<path d="M143.7857 71.9048
L143.3095 71.9048
" />
<path d="M142.8810 72.9048
L142.8810 71.9048
" />
<path d="M142.8810 71.9048
L142.6429 71.9048
" />
<path d="M142.6429 71.9048
L142.5000 71.9524
" />
<path d="M142.5000 71.9524
L142.4048 72.0477
" />
<path d="M142.4048 72.0477
L142.3571 72.1429
" />
<path d="M142.3571 72.1429
L142.3095 72.3334
" />
<path d="M142.3095 72.3334
L142.3095 72.4762
" />
<path d="M142.3095 72.4762
L142.3571 72.6667
" />
<path d="M142.3571 72.6667
L142.4048 72.7620
" />
<path d="M142.4048 72.7620
L142.5000 72.8572
" />
<path d="M142.5000 72.8572
L142.6429 72.9048
" />
<path d="M142.6429 72.9048
L142.8810 72.9048
" />
</g><text x="144.0000" y="67.5000"
transform="scale(-1 1) translate(-288.000000 0)"
textLength="1.9643" font-size="1.3333" lengthAdjust="spacingAndGlyphs"
text-anchor="middle" opacity="0" stroke-opacity="0">J3</text>
<g class="stroked-text"><desc>J3</desc>
<path d="M144.3333 66.4548
L144.3333 67.1691
" />
<path d="M144.3333 67.1691
L144.3810 67.3120
" />
<path d="M144.3810 67.3120
L144.4762 67.4072
" />
<path d="M144.4762 67.4072
L144.6190 67.4548
" />
<path d="M144.6190 67.4548
L144.7143 67.4548
" />
<path d="M143.9524 66.4548
L143.3333 66.4548
" />
<path d="M143.3333 66.4548
L143.6667 66.8358
" />
<path d="M143.6667 66.8358
L143.5238 66.8358
" />
<path d="M143.5238 66.8358
L143.4286 66.8834
" />
<path d="M143.4286 66.8834
L143.3810 66.9310
" />
<path d="M143.3810 66.9310
L143.3333 67.0262
" />
<path d="M143.3333 67.0262
L143.3333 67.2643
" />
<path d="M143.3333 67.2643
L143.3810 67.3596
" />
<path d="M143.3810 67.3596
L143.4286 67.4072
" />
<path d="M143.4286 67.4072
L143.5238 67.4548
" />
<path d="M143.5238 67.4548
L143.8095 67.4548
" />
<path d="M143.8095 67.4548
L143.9048 67.4072
" />
<path d="M143.9048 67.4072
L143.9524 67.3596
" />
</g><text x="107.0000" y="53.7000"
transform="scale(-1 1) translate(-214.000000 0)"
textLength="7.0595" font-size="1.3333" lengthAdjust="spacingAndGlyphs"
text-anchor="middle" opacity="0" stroke-opacity="0">LED-OUT</text>
<g class="stroked-text"><desc>LED-OUT</desc>
<path d="M109.6905 53.6548
L110.1667 53.6548
" />
<path d="M110.1667 53.6548
L110.1667 52.6548
" />
<path d="M109.3571 53.1310
L109.0238 53.1310
" />
<path d="M108.8810 53.6548
L109.3571 53.6548
" />
<path d="M109.3571 53.6548
L109.3571 52.6548
" />
<path d="M109.3571 52.6548
L108.8810 52.6548
" />
<path d="M108.4524 53.6548
L108.4524 52.6548
" />
<path d="M108.4524 52.6548
L108.2143 52.6548
" />
<path d="M108.2143 52.6548
L108.0714 52.7024
" />
<path d="M108.0714 52.7024
L107.9762 52.7977
" />
<path d="M107.9762 52.7977
L107.9286 52.8929
" />
<path d="M107.9286 52.8929
L107.8810 53.0834
" />
<path d="M107.8810 53.0834
L107.8810 53.2262
" />
<path d="M107.8810 53.2262
L107.9286 53.4167
" />
<path d="M107.9286 53.4167
L107.9762 53.5120
" />
<path d="M107.9762 53.5120
L108.0714 53.6072
" />
<path d="M108.0714 53.6072
L108.2143 53.6548
" />
<path d="M108.2143 53.6548
L108.4524 53.6548
" />
<path d="M107.4524 53.2739
L106.6905 53.2739
" />
<path d="M106.0238 52.6548
L105.8333 52.6548
" />
<path d="M105.8333 52.6548
L105.7381 52.7024
" />
<path d="M105.7381 52.7024
L105.6429 52.7977
" />
<path d="M105.6429 52.7977
L105.5952 52.9882
" />
<path d="M105.5952 52.9882
L105.5952 53.3215
" />
<path d="M105.5952 53.3215
L105.6429 53.5120
" />
<path d="M105.6429 53.5120
L105.7381 53.6072
" />
<path d="M105.7381 53.6072
L105.8333 53.6548
" />
<path d="M105.8333 53.6548
L106.0238 53.6548
" />
<path d="M106.0238 53.6548
L106.1190 53.6072
" />
<path d="M106.1190 53.6072
L106.2143 53.5120
" />
<path d="M106.2143 53.5120
L106.2619 53.3215
" />
<path d="M106.2619 53.3215
L106.2619 52.9882
" />
<path d="M106.2619 52.9882
L106.2143 52.7977
" />
<path d="M106.2143 52.7977
L106.1190 52.7024
" />
<path d="M106.1190 52.7024
L106.0238 52.6548
" />
<path d="M105.1667 52.6548
L105.1667 53.4643
" />
<path d="M105.1667 53.4643
L105.1190 53.5596
" />
<path d="M105.1190 53.5596
L105.0714 53.6072
" />
<path d="M105.0714 53.6072
L104.9762 53.6548
" />
<path d="M104.9762 53.6548
L104.7857 53.6548
" />
<path d="M104.7857 53.6548
L104.6905 53.6072
" />
<path d="M104.6905 53.6072
L104.6429 53.5596
" />
<path d="M104.6429 53.5596
L104.5952 53.4643
" />
<path d="M104.5952 53.4643
L104.5952 52.6548
" />
<path d="M104.2619 52.6548
L103.6905 52.6548
" />
<path d="M103.9762 53.6548
L103.9762 52.6548
" />
</g><text x="107.0000" y="48.2500"
transform="scale(-1 1) translate(-214.000000 0)"
textLength="1.9643" font-size="1.3333" lengthAdjust="spacingAndGlyphs"
text-anchor="middle" opacity="0" stroke-opacity="0">J2</text>
<g class="stroked-text"><desc>J2</desc>
<path d="M107.3333 47.2048
L107.3333 47.9191
" />
<path d="M107.3333 47.9191
L107.3810 48.0620
" />
<path d="M107.3810 48.0620
L107.4762 48.1572
" />
<path d="M107.4762 48.1572
L107.6190 48.2048
" />
<path d="M107.6190 48.2048
L107.7143 48.2048
" />
<path d="M106.9048 47.3001
L106.8571 47.2524
" />
<path d="M106.8571 47.2524
L106.7619 47.2048
" />
<path d="M106.7619 47.2048
L106.5238 47.2048
" />
<path d="M106.5238 47.2048
L106.4286 47.2524
" />
<path d="M106.4286 47.2524
L106.3810 47.3001
" />
<path d="M106.3810 47.3001
L106.3333 47.3953
" />
<path d="M106.3333 47.3953
L106.3333 47.4905
" />
<path d="M106.3333 47.4905
L106.3810 47.6334
" />
<path d="M106.3810 47.6334
L106.9524 48.2048
" />
<path d="M106.9524 48.2048
L106.3333 48.2048
" />
</g><text x="107.0000" y="62.2000"
transform="scale(-1 1) translate(-214.000000 0)"
textLength="5.7262" font-size="1.3333" lengthAdjust="spacingAndGlyphs"
text-anchor="middle" opacity="0" stroke-opacity="0">LED-IN</text>
<g class="stroked-text"><desc>LED-IN</desc>
<path d="M109.0238 62.1548
L109.5000 62.1548
" />
<path d="M109.5000 62.1548
L109.5000 61.1548
" />
<path d="M108.6905 61.6310
L108.3571 61.6310
" />
<path d="M108.2143 62.1548
L108.6905 62.1548
" />
<path d="M108.6905 62.1548
L108.6905 61.1548
" />
<path d="M108.6905 61.1548
L108.2143 61.1548
" />
<path d="M107.7857 62.1548
L107.7857 61.1548
" />
<path d="M107.7857 61.1548
L107.5476 61.1548
" />
<path d="M107.5476 61.1548
L107.4048 61.2024
" />
<path d="M107.4048 61.2024
L107.3095 61.2977
" />
<path d="M107.3095 61.2977
L107.2619 61.3929
" />
<path d="M107.2619 61.3929
L107.2143 61.5834
" />
<path d="M107.2143 61.5834
L107.2143 61.7262
" />
<path d="M107.2143 61.7262
L107.2619 61.9167
" />
<path d="M107.2619 61.9167
L107.3095 62.0120
" />
<path d="M107.3095 62.0120
L107.4048 62.1072
" />
<path d="M107.4048 62.1072
L107.5476 62.1548
" />
<path d="M107.5476 62.1548
L107.7857 62.1548
" />
<path d="M106.7857 61.7739
L106.0238 61.7739
" />
<path d="M105.5476 62.1548
L105.5476 61.1548
" />
<path d="M105.0714 62.1548
L105.0714 61.1548
" />
<path d="M105.0714 61.1548
L104.5000 62.1548
" />
<path d="M104.5000 62.1548
L104.5000 61.1548
" />
</g><text x="107.0000" y="56.7500"
transform="scale(-1 1) translate(-214.000000 0)"
textLength="1.9643" font-size="1.3333" lengthAdjust="spacingAndGlyphs"
text-anchor="middle" opacity="0" stroke-opacity="0">J1</text>
<g class="stroked-text"><desc>J1</desc>
<path d="M107.3333 55.7048
L107.3333 56.4191
" />
<path d="M107.3333 56.4191
L107.3810 56.5620
" />
<path d="M107.3810 56.5620
L107.4762 56.6572
" />
<path d="M107.4762 56.6572
L107.6190 56.7048
" />
<path d="M107.6190 56.7048
L107.7143 56.7048
" />
<path d="M106.3333 56.7048
L106.9048 56.7048
" />
<path d="M106.6190 56.7048
L106.6190 55.7048
" />
<path d="M106.6190 55.7048
L106.7143 55.8477
" />
<path d="M106.7143 55.8477
L106.8095 55.9429
" />
<path d="M106.8095 55.9429
L106.9048 55.9905
" />
</g></g>
<g style="fill:none; 
stroke:#000000; stroke-width:0.1000; stroke-opacity:1; 
stroke-linecap:round; stroke-linejoin:round;">
<path d="M64.3980 74.6028
L64.3980 77.1428
" />
<path d="M64.3980 77.1428
L73.9230 77.1428
" />
<path d="M73.9230 77.1428
L74.5580 76.5078
" />
<path d="M74.5580 74.6028
L64.3980 74.6028
" />
<path d="M74.5580 76.5078
L74.5580 74.6028
" />
<path d="M139.3980 74.6028
L139.3980 77.1428
" />
<path d="M139.3980 77.1428
L148.9230 77.1428
" />
<path d="M148.9230 77.1428
L149.5580 76.5078
" />
<path d="M149.5580 74.6028
L139.3980 74.6028
" />
<path d="M149.5580 76.5078
L149.5580 74.6028
" />
<path d="M135.1250 74.9125
L136.3750 74.9125
" />
<path d="M135.1250 76.9125
L135.1250 74.9125
" />
<path d="M136.3750 74.9125
L136.3750 76.9125
" />
<path d="M136.3750 76.9125
L135.1250 76.9125
" />
<path d="M137.1250 74.9125
L138.3750 74.9125
" />
<path d="M137.1250 76.9125
L137.1250 74.9125
" />
<path d="M138.3750 74.9125
L138.3750 76.9125
" />
<path d="M138.3750 76.9125
L137.1250 76.9125
" />
<path d="M138.0250 63.7500
L138.0250 68.7500
" />
<path d="M138.0250 63.7500
L149.9750 63.7500
" />
<path d="M138.0250 68.7500
L149.9750 68.7500
" />
<path d="M140.7500 65.2500
L140.7500 65.7500
" />
<path d="M140.7500 65.7500
L141.2500 65.7500
" />
<path d="M141.2500 65.2500
L140.7500 65.2500
" />
<path d="M141.2500 65.7500
L141.2500 65.2500
" />
<path d="M142.7500 65.2500
L142.7500 65.7500
" />
<path d="M142.7500 65.7500
L143.2500 65.7500
" />
<path d="M143.2500 65.2500
L142.7500 65.2500
" />
<path d="M143.2500 65.7500
L143.2500 65.2500
" />
<path d="M144.7500 65.2500
L144.7500 65.7500
" />
<path d="M144.7500 65.7500
L145.2500 65.7500
" />
<path d="M145.2500 65.2500
L144.7500 65.2500
" />
<path d="M145.2500 65.7500
L145.2500 65.2500
" />
<path d="M146.5000 68.7500
L147.0000 68.0429
" />
<path d="M146.7500 65.2500
L146.7500 65.7500
" />
<path d="M146.7500 65.7500
L147.2500 65.7500
" />
<path d="M147.0000 68.0429
L147.5000 68.7500
" />
<path d="M147.2500 65.2500
L146.7500 65.2500
" />
<path d="M147.2500 65.7500
L147.2500 65.2500
" />
<path d="M149.9750 63.7500
L149.9750 68.7500
" />
<path d="M102.0250 44.5000
L102.0250 49.5000
" />
<path d="M102.0250 44.5000
L111.9750 44.5000
" />
<path d="M102.0250 49.5000
L111.9750 49.5000
" />
<path d="M104.7500 46.0000
L104.7500 46.5000
" />
<path d="M104.7500 46.5000
L105.2500 46.5000
" />
<path d="M105.2500 46.0000
L104.7500 46.0000
" />
<path d="M105.2500 46.5000
L105.2500 46.0000
" />
<path d="M106.7500 46.0000
L106.7500 46.5000
" />
<path d="M106.7500 46.5000
L107.2500 46.5000
" />
<path d="M107.2500 46.0000
L106.7500 46.0000
" />
<path d="M107.2500 46.5000
L107.2500 46.0000
" />
<path d="M108.5000 49.5000
L109.0000 48.7929
" />
<path d="M108.7500 46.0000
L108.7500 46.5000
" />
<path d="M108.7500 46.5000
L109.2500 46.5000
" />
<path d="M109.0000 48.7929
L109.5000 49.5000
" />
<path d="M109.2500 46.0000
L108.7500 46.0000
" />
<path d="M109.2500 46.5000
L109.2500 46.0000
" />
<path d="M111.9750 44.5000
L111.9750 49.5000
" />
<path d="M102.0250 53.0000
L102.0250 58.0000
" />
<path d="M102.0250 53.0000
L111.9750 53.0000
" />
<path d="M102.0250 58.0000
L111.9750 58.0000
" />
<path d="M104.7500 54.5000
L104.7500 55.0000
" />
<path d="M104.7500 55.0000
L105.2500 55.0000
" />
<path d="M105.2500 54.5000
L104.7500 54.5000
" />
<path d="M105.2500 55.0000
L105.2500 54.5000
" />
<path d="M106.7500 54.5000
L106.7500 55.0000
" />
<path d="M106.7500 55.0000
L107.2500 55.0000
" />
<path d="M107.2500 54.5000
L106.7500 54.5000
" />
<path d="M107.2500 55.0000
L107.2500 54.5000
" />
<path d="M108.5000 58.0000
L109.0000 57.2929
" />
<path d="M108.7500 54.5000
L108.7500 55.0000
" />
<path d="M108.7500 55.0000
L109.2500 55.0000
" />
<path d="M109.0000 57.2929
L109.5000 58.0000
" />
<path d="M109.2500 54.5000
L108.7500 54.5000
" />
<path d="M109.2500 55.0000
L109.2500 54.5000
" />
<path d="M111.9750 53.0000
L111.9750 58.0000
" />
</g>
<g style="fill:#000000; fill-opacity:1.0000; stroke:none;">
<circle cx="170.0000" cy="133.0000" r="1.2500" /> 
</g>
<g style="fill:#000000; fill-opacity:1.0000; stroke:none;">
<circle cx="187.0000" cy="28.0000" r="1.2500" /> 
</g>
<g style="fill:#000000; fill-opacity:1.0000; stroke:none;">
<circle cx="54.5000" cy="75.2000" r="0.8500" /> 
</g>
<g style="fill:#000000; fill-opacity:1.0000; stroke:none;">
<circle cx="54.5000" cy="127.2000" r="0.8500" /> 
</g>
<g style="fill:#000000; fill-opacity:1.0000; stroke:none;">
<circle cx="84.5000" cy="75.2000" r="0.8500" /> 
</g>
<g style="fill:#000000; fill-opacity:1.0000; stroke:none;">
<circle cx="84.5000" cy="127.2000" r="0.8500" /> 
</g>
<g style="fill:#000000; fill-opacity:1.0000; stroke:none;">
<circle cx="44.0000" cy="133.0000" r="1.2500" /> 
</g>
<g style="fill:#000000; fill-opacity:1.0000; stroke:none;">
<circle cx="107.0000" cy="103.0000" r="1.2500" /> 
</g>
<g style="fill:#000000; fill-opacity:1.0000; stroke:none;">
<circle cx="27.0000" cy="28.0000" r="1.2500" /> 
</g>
<g style="fill:#000000; fill-opacity:1.0000; stroke:none;">
<circle cx="129.5000" cy="75.2000" r="0.8500" /> 
</g>
<g style="fill:#000000; fill-opacity:1.0000; stroke:none;">
<circle cx="129.5000" cy="127.2000" r="0.8500" /> 
</g>
<g style="fill:#000000; fill-opacity:1.0000; stroke:none;">
<circle cx="159.5000" cy="75.2000" r="0.8500" /> 
</g>
<g style="fill:#000000; fill-opacity:1.0000; stroke:none;">
<circle cx="159.5000" cy="127.2000" r="0.8500" /> 
</g> 
</svg>
