<?xml version="1.0" standalone="no"?>
 <!DOCTYPE svg PUBLIC "-//W3C//DTD SVG 1.1//EN" 
 "http://www.w3.org/Graphics/SVG/1.1/DTD/svg11.dtd"> 
<svg
  xmlns:svg="http://www.w3.org/2000/svg"
  xmlns="http://www.w3.org/2000/svg"
  xmlns:xlink="http://www.w3.org/1999/xlink"
  version="1.1"
  width="297.0022mm" height="210.0072mm" viewBox="0.0000 0.0000 297.0022 210.0072">
<title>SVG Image created as pedalboard-display-B_Courtyard.svg date 2024/10/05 20:36:43 </title>
  <desc>Image generated by PCBNEW </desc>
<g style="fill:#000000; fill-opacity:1.0000;stroke:#000000; stroke-opacity:1.0000;
stroke-linecap:round; stroke-linejoin:round;"
 transform="translate(0 0) scale(1 1)">
</g>
<g style="fill:none; 
stroke:#000000; stroke-width:0.0500; stroke-opacity:1; 
stroke-linecap:round; stroke-linejoin:round;">
<path d="M57.6380 57.6728
L68.8380 57.6728
" />
<path d="M57.6380 61.2728
L57.6380 57.6728
" />
<path d="M68.8380 57.6728
L68.8380 61.2728
" />
<path d="M68.8380 61.2728
L57.6380 61.2728
" />
<path d="M140.6880 59.4728
L151.8880 59.4728
" />
<path d="M140.6880 63.0728
L140.6880 59.4728
" />
<path d="M151.8880 59.4728
L151.8880 63.0728
" />
<path d="M151.8880 63.0728
L140.6880 63.0728
" />
<path d="M120.3000 30.7000
L120.3000 39.2000
" />
<path d="M120.3000 39.2000
L133.7000 39.2000
" />
<path d="M133.7000 30.7000
L120.3000 30.7000
" />
<path d="M133.7000 39.2000
L133.7000 30.7000
" />
<path d="M19.9500 105.3000
L28.4500 105.3000
" />
<path d="M19.9500 116.7000
L19.9500 105.3000
" />
<path d="M28.4500 105.3000
L28.4500 116.7000
" />
<path d="M28.4500 116.7000
L19.9500 116.7000
" />
<path d="M101.3000 30.2500
L112.7000 30.2500
" />
<path d="M101.3000 38.7500
L101.3000 30.2500
" />
<path d="M112.7000 30.2500
L112.7000 38.7500
" />
<path d="M112.7000 38.7500
L101.3000 38.7500
" />
</g>
<g style="fill:#000000; fill-opacity:1.0000; stroke:none;">
<circle cx="48.2500" cy="58.8000" r="1.0500" /> 
</g>
<g style="fill:#000000; fill-opacity:1.0000; stroke:none;">
<circle cx="48.2500" cy="110.8000" r="1.0500" /> 
</g>
<g style="fill:#000000; fill-opacity:1.0000; stroke:none;">
<circle cx="78.2500" cy="58.8000" r="1.0500" /> 
</g>
<g style="fill:#000000; fill-opacity:1.0000; stroke:none;">
<circle cx="78.2500" cy="110.8000" r="1.0500" /> 
</g>
<g style="fill:#000000; fill-opacity:1.0000; stroke:none;">
<circle cx="67.0380" cy="59.4728" r="0.5000" /> 
</g>
<g style="fill:#000000; fill-opacity:1.0000; stroke:none;">
<circle cx="64.4980" cy="59.4728" r="0.5000" /> 
</g>
<g style="fill:#000000; fill-opacity:1.0000; stroke:none;">
<circle cx="61.9580" cy="59.4728" r="0.5000" /> 
</g>
<g style="fill:#000000; fill-opacity:1.0000; stroke:none;">
<circle cx="59.4180" cy="59.4728" r="0.5000" /> 
</g>
<g style="fill:#000000; fill-opacity:1.0000; stroke:none;">
<circle cx="131.3000" cy="60.6000" r="1.0500" /> 
</g>
<g style="fill:#000000; fill-opacity:1.0000; stroke:none;">
<circle cx="131.3000" cy="112.6000" r="1.0500" /> 
</g>
<g style="fill:#000000; fill-opacity:1.0000; stroke:none;">
<circle cx="161.3000" cy="60.6000" r="1.0500" /> 
</g>
<g style="fill:#000000; fill-opacity:1.0000; stroke:none;">
<circle cx="161.3000" cy="112.6000" r="1.0500" /> 
</g>
<g style="fill:#000000; fill-opacity:1.0000; stroke:none;">
<circle cx="150.0880" cy="61.2728" r="0.5000" /> 
</g>
<g style="fill:#000000; fill-opacity:1.0000; stroke:none;">
<circle cx="147.5480" cy="61.2728" r="0.5000" /> 
</g>
<g style="fill:#000000; fill-opacity:1.0000; stroke:none;">
<circle cx="145.0080" cy="61.2728" r="0.5000" /> 
</g>
<g style="fill:#000000; fill-opacity:1.0000; stroke:none;">
<circle cx="142.4680" cy="61.2728" r="0.5000" /> 
</g> 
</svg>
