<?xml version="1.0" standalone="no"?>
 <!DOCTYPE svg PUBLIC "-//W3C//DTD SVG 1.1//EN" 
 "http://www.w3.org/Graphics/SVG/1.1/DTD/svg11.dtd"> 
<svg
  xmlns:svg="http://www.w3.org/2000/svg"
  xmlns="http://www.w3.org/2000/svg"
  xmlns:xlink="http://www.w3.org/1999/xlink"
  version="1.1"
  width="297.0022mm" height="210.0072mm" viewBox="0.0000 0.0000 297.0022 210.0072">
<title>SVG Image created as pedalboard-display-Edge_Cuts.svg date 2024/10/08 22:17:58 </title>
  <desc>Image generated by PCBNEW </desc>
<g style="fill:#000000; fill-opacity:1.0000;stroke:#000000; stroke-opacity:1.0000;
stroke-linecap:round; stroke-linejoin:round;"
 transform="translate(0 0) scale(1 1)">
</g>
<g style="fill:none; 
stroke:#000000; stroke-width:0.1000; stroke-opacity:1; 
stroke-linecap:round; stroke-linejoin:round;">
<path d="M272.0022 136.0000
L185.0022 136.0000
" />
<circle cx="115.0022" cy="124.0000" r="6.1000" /> 
<path d="M273.0022 26.0000 A1.0000 1.0000 0.0 0 0 272.0022 25.0000" />
<path d="M277.0022 32.0000 A1.0000 1.0000 0.0 0 0 276.0022 31.0000" />
<path d="M172.8022 25.0000
L108.0022 25.0000
" />
<path d="M273.0022 133.0000
L273.0022 135.0000
" />
<path d="M107.0022 26.0000
L107.0022 28.0000
" />
<path d="M104.0022 31.0000 A1.0000 1.0000 0.0 0 0 103.0022 32.0000" />
<path d="M276.0022 130.0000 A1.0000 1.0000 0.0 0 0 277.0022 129.0000" />
<path d="M185.0022 25.0000 A5.0000 5.0000 0.0 0 0 195.0022 25.0000" />
<path d="M185.0022 136.0000
L108.0022 136.0000
" />
<circle cx="152.0022" cy="39.0000" r="6.1000" /> 
<path d="M273.0022 28.0000 A3.0000 3.0000 0.0 0 0 276.0022 31.0000" />
<path d="M202.8022 25.0000
L195.0022 25.0000
" />
<circle cx="227.0022" cy="39.0000" r="6.1000" /> 
<circle cx="115.0022" cy="72.0000" r="6.1000" /> 
<circle cx="265.0022" cy="124.0000" r="6.1000" /> 
<circle cx="190.0022" cy="72.0000" r="6.1000" /> 
<path d="M103.0022 32.0000
L103.0022 129.0000
" />
<path d="M107.0022 135.0000 A1.0000 1.0000 0.0 0 0 108.0022 136.0000" />
<circle cx="265.0022" cy="72.0000" r="6.1000" /> 
<path d="M185.0022 25.0000
L172.8022 25.0000
" />
<path d="M272.0022 136.0000 A1.0000 1.0000 0.0 0 0 273.0022 135.0000" />
<path d="M103.0022 129.0000 A1.0000 1.0000 0.0 0 0 104.0022 130.0000" />
<path d="M108.0022 25.0000 A1.0000 1.0000 0.0 0 0 107.0022 26.0000" />
<path d="M104.0022 31.0000 A3.0000 3.0000 0.0 0 0 107.0022 28.0000" />
<path d="M277.0022 129.0000
L277.0022 32.0000
" />
<path d="M202.8022 25.0000
L272.0022 25.0000
" />
<path d="M107.0022 133.0000
L107.0022 135.0000
" />
<path d="M107.0022 133.0000 A3.0000 3.0000 0.0 0 0 104.0022 130.0000" />
<path d="M273.0022 26.0000
L273.0022 28.0000
" />
<circle cx="190.0022" cy="124.0000" r="6.1000" /> 
<path d="M276.0022 130.0000 A3.0000 3.0000 0.0 0 0 273.0022 133.0000" />
<path style="fill:none; 
stroke:#000000; stroke-width:0.0500; stroke-opacity:1; 
stroke-linecap:round; stroke-linejoin:round;fill:none"
d="M 244.8022,78.2000
210.2022,78.2000
210.2022,124.2000
244.8022,124.2000
Z" /> 
<path style="fill:none; 
stroke:#000000; stroke-width:0.0500; stroke-opacity:1; 
stroke-linecap:round; stroke-linejoin:round;fill:none"
d="M 169.8022,78.2000
135.2022,78.2000
135.2022,124.2000
169.8022,124.2000
Z" /> 
</g> 
</svg>
