  0
SECTION
  2
HEADER
  9
$ANGBASE
  50
0.0
  9
$ANGDIR
  70
1
  9
$MEASUREMENT
  70
1
  0
ENDSEC
  0
SECTION
  2
TABLES
  0
TABLE
  2
LTYPE
  70
4
  0
LTYPE
  5
40F
  2
CONTINUOUS
  70
0
  3
Solid line
  72
65
  73
0
  40
0.0
  0
LTYPE
  5
410
  2
DASHDOT
 70
0
  3
Dash Dot ____ _ ____ _
 72
65
 73
4
 40
2.0
 49
1.25
 49
-0.25
 49
0.25
 49
-0.25
  0
LTYPE
  5
411
  2
DASHED
 70
0
  3
Dashed __ __ __ __ __
 72
65
 73
2
 40
0.75
 49
0.5
 49
-0.25
  0
LTYPE
  5
43B
  2
DOTTED
 70
0
  3
Dotted .  .  .  .
 72
65
 73
2
 40
0.2
 49
0.0
 49
-0.2
  0
ENDTAB
  0
TABLE
  2
STYLE
  70
4
  0
STYLE
  2
KICAD
  70
0
  40
0
  41
1
  42
1
  50
0
  71
0
  3
isocp.shx
  0
STYLE
  2
KICADB
  70
0
  40
0
  41
1
  42
1
  50
0
  71
0
  3
isocp.shx
  0
STYLE
  2
KICADI
  70
0
  40
0
  41
1
  42
1
  50
15
  71
0
  3
isocp.shx
  0
STYLE
  2
KICADBI
  70
0
  40
0
  41
1
  42
1
  50
15
  71
0
  3
isocp.shx
  0
ENDTAB
  0
TABLE
  2
LAYER
  70
1
  0
LAYER
  2
BLACK
  70
0
  62
7
  6
CONTINUOUS
  0
ENDTAB
  0
ENDSEC
  0
SECTION
  2
ENTITIES
0
LINE
8
BLACK
6
CONTINUOUS
10
74.137999999999991
20
-77.6727999999999952
11
72.4380000000000024
21
-77.6727999999999952
0
LINE
8
BLACK
6
CONTINUOUS
10
72.4380000000000024
20
-77.6727999999999952
11
72.4380000000000024
21
-74.0728000000000009
0
LINE
8
BLACK
6
CONTINUOUS
10
72.4380000000000024
20
-74.0728000000000009
11
74.137999999999991
21
-74.0728000000000009
0
LINE
8
BLACK
6
CONTINUOUS
10
74.137999999999991
20
-74.0728000000000009
11
74.137999999999991
21
-77.6727999999999952
0
LINE
8
BLACK
6
CONTINUOUS
10
149.1380000000000052
20
-77.6727999999999952
11
147.4379999999999882
21
-77.6727999999999952
0
LINE
8
BLACK
6
CONTINUOUS
10
147.4379999999999882
20
-77.6727999999999952
11
147.4379999999999882
21
-74.0728000000000009
0
LINE
8
BLACK
6
CONTINUOUS
10
147.4379999999999882
20
-74.0728000000000009
11
149.1380000000000052
21
-74.0728000000000009
0
LINE
8
BLACK
6
CONTINUOUS
10
149.1380000000000052
20
-74.0728000000000009
11
149.1380000000000052
21
-77.6727999999999952
0
LINE
8
BLACK
6
CONTINUOUS
10
65.9147420000000039
20
-74.1594010000000026
11
66.0686869999999971
21
-74.2231670000000037
0
LINE
8
BLACK
6
CONTINUOUS
10
66.0686869999999971
20
-74.2231670000000037
11
66.2072339999999997
21
-74.3157410000000027
0
LINE
8
BLACK
6
CONTINUOUS
10
66.2072339999999997
20
-74.3157410000000027
11
66.325058999999996
21
-74.433565999999999
0
LINE
8
BLACK
6
CONTINUOUS
10
66.325058999999996
20
-74.433565999999999
11
66.417632999999995
21
-74.5721130000000016
0
LINE
8
BLACK
6
CONTINUOUS
10
66.417632999999995
20
-74.5721130000000016
11
66.4813989999999961
21
-74.7260579999999948
0
LINE
8
BLACK
6
CONTINUOUS
10
66.4813989999999961
20
-74.7260579999999948
11
66.5139070000000032
21
-74.8894849999999934
0
LINE
8
BLACK
6
CONTINUOUS
10
66.5139070000000032
20
-74.8894849999999934
11
66.5180000000000007
21
-74.9727999999999923
0
LINE
8
BLACK
6
CONTINUOUS
10
66.5180000000000007
20
-74.9727999999999923
11
66.5180000000000007
21
-76.7727999999999895
0
LINE
8
BLACK
6
CONTINUOUS
10
66.5180000000000007
20
-76.7727999999999895
11
66.5139070000000032
21
-76.8561150000000026
0
LINE
8
BLACK
6
CONTINUOUS
10
66.5139070000000032
20
-76.8561150000000026
11
66.4813989999999961
21
-77.0195420000000013
0
LINE
8
BLACK
6
CONTINUOUS
10
66.4813989999999961
20
-77.0195420000000013
11
66.417632999999995
21
-77.1734869999999944
0
LINE
8
BLACK
6
CONTINUOUS
10
66.417632999999995
20
-77.1734869999999944
11
66.325058999999996
21
-77.312033999999997
0
LINE
8
BLACK
6
CONTINUOUS
10
66.325058999999996
20
-77.312033999999997
11
66.2072339999999997
21
-77.4298589999999933
0
LINE
8
BLACK
6
CONTINUOUS
10
66.2072339999999997
20
-77.4298589999999933
11
66.0686869999999971
21
-77.5224329999999924
0
LINE
8
BLACK
6
CONTINUOUS
10
66.0686869999999971
20
-77.5224329999999924
11
65.9147420000000039
21
-77.5861989999999935
0
LINE
8
BLACK
6
CONTINUOUS
10
65.9147420000000039
20
-77.5861989999999935
11
65.7513149999999911
21
-77.6187070000000006
0
LINE
8
BLACK
6
CONTINUOUS
10
65.7513149999999911
20
-77.6187070000000006
11
65.5846849999999932
21
-77.6187070000000006
0
LINE
8
BLACK
6
CONTINUOUS
10
65.5846849999999932
20
-77.6187070000000006
11
65.4212579999999946
21
-77.5861989999999935
0
LINE
8
BLACK
6
CONTINUOUS
10
65.4212579999999946
20
-77.5861989999999935
11
65.2673130000000015
21
-77.5224329999999924
0
LINE
8
BLACK
6
CONTINUOUS
10
65.2673130000000015
20
-77.5224329999999924
11
65.1287659999999988
21
-77.4298589999999933
0
LINE
8
BLACK
6
CONTINUOUS
10
65.1287659999999988
20
-77.4298589999999933
11
65.0109410000000025
21
-77.312033999999997
0
LINE
8
BLACK
6
CONTINUOUS
10
65.0109410000000025
20
-77.312033999999997
11
64.9183670000000035
21
-77.1734869999999944
0
LINE
8
BLACK
6
CONTINUOUS
10
64.9183670000000035
20
-77.1734869999999944
11
64.8546010000000024
21
-77.0195420000000013
0
LINE
8
BLACK
6
CONTINUOUS
10
64.8546010000000024
20
-77.0195420000000013
11
64.8220929999999953
21
-76.8561150000000026
0
LINE
8
BLACK
6
CONTINUOUS
10
64.8220929999999953
20
-76.8561150000000026
11
64.8179999999999978
21
-76.7727999999999895
0
LINE
8
BLACK
6
CONTINUOUS
10
64.8179999999999978
20
-76.7727999999999895
11
64.8179999999999978
21
-74.9727999999999923
0
LINE
8
BLACK
6
CONTINUOUS
10
64.8179999999999978
20
-74.9727999999999923
11
64.8220929999999953
21
-74.8894849999999934
0
LINE
8
BLACK
6
CONTINUOUS
10
64.8220929999999953
20
-74.8894849999999934
11
64.8546010000000024
21
-74.7260579999999948
0
LINE
8
BLACK
6
CONTINUOUS
10
64.8546010000000024
20
-74.7260579999999948
11
64.9183670000000035
21
-74.5721130000000016
0
LINE
8
BLACK
6
CONTINUOUS
10
64.9183670000000035
20
-74.5721130000000016
11
65.0109410000000025
21
-74.433565999999999
0
LINE
8
BLACK
6
CONTINUOUS
10
65.0109410000000025
20
-74.433565999999999
11
65.1287659999999988
21
-74.3157410000000027
0
LINE
8
BLACK
6
CONTINUOUS
10
65.1287659999999988
20
-74.3157410000000027
11
65.2673130000000015
21
-74.2231670000000037
0
LINE
8
BLACK
6
CONTINUOUS
10
65.2673130000000015
20
-74.2231670000000037
11
65.4212579999999946
21
-74.1594010000000026
0
LINE
8
BLACK
6
CONTINUOUS
10
65.4212579999999946
20
-74.1594010000000026
11
65.5846849999999932
21
-74.1268929999999955
0
LINE
8
BLACK
6
CONTINUOUS
10
65.5846849999999932
20
-74.1268929999999955
11
65.7513149999999911
21
-74.1268929999999955
0
LINE
8
BLACK
6
CONTINUOUS
10
65.7513149999999911
20
-74.1268929999999955
11
65.9147420000000039
21
-74.1594010000000026
0
LINE
8
BLACK
6
CONTINUOUS
10
68.454741999999996
20
-74.1594010000000026
11
68.6086870000000033
21
-74.2231670000000037
0
LINE
8
BLACK
6
CONTINUOUS
10
68.6086870000000033
20
-74.2231670000000037
11
68.7472339999999917
21
-74.3157410000000027
0
LINE
8
BLACK
6
CONTINUOUS
10
68.7472339999999917
20
-74.3157410000000027
11
68.8650590000000022
21
-74.433565999999999
0
LINE
8
BLACK
6
CONTINUOUS
10
68.8650590000000022
20
-74.433565999999999
11
68.9576330000000013
21
-74.5721130000000016
0
LINE
8
BLACK
6
CONTINUOUS
10
68.9576330000000013
20
-74.5721130000000016
11
69.0213990000000024
21
-74.7260579999999948
0
LINE
8
BLACK
6
CONTINUOUS
10
69.0213990000000024
20
-74.7260579999999948
11
69.0539069999999953
21
-74.8894849999999934
0
LINE
8
BLACK
6
CONTINUOUS
10
69.0539069999999953
20
-74.8894849999999934
11
69.0579999999999927
21
-74.9727999999999923
0
LINE
8
BLACK
6
CONTINUOUS
10
69.0579999999999927
20
-74.9727999999999923
11
69.0579999999999927
21
-76.7727999999999895
0
LINE
8
BLACK
6
CONTINUOUS
10
69.0579999999999927
20
-76.7727999999999895
11
69.0539069999999953
21
-76.8561150000000026
0
LINE
8
BLACK
6
CONTINUOUS
10
69.0539069999999953
20
-76.8561150000000026
11
69.0213990000000024
21
-77.0195420000000013
0
LINE
8
BLACK
6
CONTINUOUS
10
69.0213990000000024
20
-77.0195420000000013
11
68.9576330000000013
21
-77.1734869999999944
0
LINE
8
BLACK
6
CONTINUOUS
10
68.9576330000000013
20
-77.1734869999999944
11
68.8650590000000022
21
-77.312033999999997
0
LINE
8
BLACK
6
CONTINUOUS
10
68.8650590000000022
20
-77.312033999999997
11
68.7472339999999917
21
-77.4298589999999933
0
LINE
8
BLACK
6
CONTINUOUS
10
68.7472339999999917
20
-77.4298589999999933
11
68.6086870000000033
21
-77.5224329999999924
0
LINE
8
BLACK
6
CONTINUOUS
10
68.6086870000000033
20
-77.5224329999999924
11
68.454741999999996
21
-77.5861989999999935
0
LINE
8
BLACK
6
CONTINUOUS
10
68.454741999999996
20
-77.5861989999999935
11
68.2913149999999973
21
-77.6187070000000006
0
LINE
8
BLACK
6
CONTINUOUS
10
68.2913149999999973
20
-77.6187070000000006
11
68.1246849999999995
21
-77.6187070000000006
0
LINE
8
BLACK
6
CONTINUOUS
10
68.1246849999999995
20
-77.6187070000000006
11
67.9612580000000008
21
-77.5861989999999935
0
LINE
8
BLACK
6
CONTINUOUS
10
67.9612580000000008
20
-77.5861989999999935
11
67.8073129999999935
21
-77.5224329999999924
0
LINE
8
BLACK
6
CONTINUOUS
10
67.8073129999999935
20
-77.5224329999999924
11
67.6687659999999909
21
-77.4298589999999933
0
LINE
8
BLACK
6
CONTINUOUS
10
67.6687659999999909
20
-77.4298589999999933
11
67.5509409999999946
21
-77.312033999999997
0
LINE
8
BLACK
6
CONTINUOUS
10
67.5509409999999946
20
-77.312033999999997
11
67.4583669999999955
21
-77.1734869999999944
0
LINE
8
BLACK
6
CONTINUOUS
10
67.4583669999999955
20
-77.1734869999999944
11
67.3946009999999944
21
-77.0195420000000013
0
LINE
8
BLACK
6
CONTINUOUS
10
67.3946009999999944
20
-77.0195420000000013
11
67.3620930000000016
21
-76.8561150000000026
0
LINE
8
BLACK
6
CONTINUOUS
10
67.3620930000000016
20
-76.8561150000000026
11
67.3579999999999899
21
-76.7727999999999895
0
LINE
8
BLACK
6
CONTINUOUS
10
67.3579999999999899
20
-76.7727999999999895
11
67.3579999999999899
21
-74.9727999999999923
0
LINE
8
BLACK
6
CONTINUOUS
10
67.3579999999999899
20
-74.9727999999999923
11
67.3620930000000016
21
-74.8894849999999934
0
LINE
8
BLACK
6
CONTINUOUS
10
67.3620930000000016
20
-74.8894849999999934
11
67.3946009999999944
21
-74.7260579999999948
0
LINE
8
BLACK
6
CONTINUOUS
10
67.3946009999999944
20
-74.7260579999999948
11
67.4583669999999955
21
-74.5721130000000016
0
LINE
8
BLACK
6
CONTINUOUS
10
67.4583669999999955
20
-74.5721130000000016
11
67.5509409999999946
21
-74.433565999999999
0
LINE
8
BLACK
6
CONTINUOUS
10
67.5509409999999946
20
-74.433565999999999
11
67.6687659999999909
21
-74.3157410000000027
0
LINE
8
BLACK
6
CONTINUOUS
10
67.6687659999999909
20
-74.3157410000000027
11
67.8073129999999935
21
-74.2231670000000037
0
LINE
8
BLACK
6
CONTINUOUS
10
67.8073129999999935
20
-74.2231670000000037
11
67.9612580000000008
21
-74.1594010000000026
0
LINE
8
BLACK
6
CONTINUOUS
10
67.9612580000000008
20
-74.1594010000000026
11
68.1246849999999995
21
-74.1268929999999955
0
LINE
8
BLACK
6
CONTINUOUS
10
68.1246849999999995
20
-74.1268929999999955
11
68.2913149999999973
21
-74.1268929999999955
0
LINE
8
BLACK
6
CONTINUOUS
10
68.2913149999999973
20
-74.1268929999999955
11
68.454741999999996
21
-74.1594010000000026
0
LINE
8
BLACK
6
CONTINUOUS
10
70.9947420000000022
20
-74.1594010000000026
11
71.1486869999999954
21
-74.2231670000000037
0
LINE
8
BLACK
6
CONTINUOUS
10
71.1486869999999954
20
-74.2231670000000037
11
71.287233999999998
21
-74.3157410000000027
0
LINE
8
BLACK
6
CONTINUOUS
10
71.287233999999998
20
-74.3157410000000027
11
71.4050589999999943
21
-74.433565999999999
0
LINE
8
BLACK
6
CONTINUOUS
10
71.4050589999999943
20
-74.433565999999999
11
71.4976329999999933
21
-74.5721130000000016
0
LINE
8
BLACK
6
CONTINUOUS
10
71.4976329999999933
20
-74.5721130000000016
11
71.5613989999999944
21
-74.7260579999999948
0
LINE
8
BLACK
6
CONTINUOUS
10
71.5613989999999944
20
-74.7260579999999948
11
71.5939070000000015
21
-74.8894849999999934
0
LINE
8
BLACK
6
CONTINUOUS
10
71.5939070000000015
20
-74.8894849999999934
11
71.597999999999999
21
-74.9727999999999923
0
LINE
8
BLACK
6
CONTINUOUS
10
71.597999999999999
20
-74.9727999999999923
11
71.597999999999999
21
-76.7727999999999895
0
LINE
8
BLACK
6
CONTINUOUS
10
71.597999999999999
20
-76.7727999999999895
11
71.5939070000000015
21
-76.8561150000000026
0
LINE
8
BLACK
6
CONTINUOUS
10
71.5939070000000015
20
-76.8561150000000026
11
71.5613989999999944
21
-77.0195420000000013
0
LINE
8
BLACK
6
CONTINUOUS
10
71.5613989999999944
20
-77.0195420000000013
11
71.4976329999999933
21
-77.1734869999999944
0
LINE
8
BLACK
6
CONTINUOUS
10
71.4976329999999933
20
-77.1734869999999944
11
71.4050589999999943
21
-77.312033999999997
0
LINE
8
BLACK
6
CONTINUOUS
10
71.4050589999999943
20
-77.312033999999997
11
71.287233999999998
21
-77.4298589999999933
0
LINE
8
BLACK
6
CONTINUOUS
10
71.287233999999998
20
-77.4298589999999933
11
71.1486869999999954
21
-77.5224329999999924
0
LINE
8
BLACK
6
CONTINUOUS
10
71.1486869999999954
20
-77.5224329999999924
11
70.9947420000000022
21
-77.5861989999999935
0
LINE
8
BLACK
6
CONTINUOUS
10
70.9947420000000022
20
-77.5861989999999935
11
70.8313150000000036
21
-77.6187070000000006
0
LINE
8
BLACK
6
CONTINUOUS
10
70.8313150000000036
20
-77.6187070000000006
11
70.6646849999999915
21
-77.6187070000000006
0
LINE
8
BLACK
6
CONTINUOUS
10
70.6646849999999915
20
-77.6187070000000006
11
70.5012579999999929
21
-77.5861989999999935
0
LINE
8
BLACK
6
CONTINUOUS
10
70.5012579999999929
20
-77.5861989999999935
11
70.3473129999999998
21
-77.5224329999999924
0
LINE
8
BLACK
6
CONTINUOUS
10
70.3473129999999998
20
-77.5224329999999924
11
70.2087659999999971
21
-77.4298589999999933
0
LINE
8
BLACK
6
CONTINUOUS
10
70.2087659999999971
20
-77.4298589999999933
11
70.0909410000000008
21
-77.312033999999997
0
LINE
8
BLACK
6
CONTINUOUS
10
70.0909410000000008
20
-77.312033999999997
11
69.9983670000000018
21
-77.1734869999999944
0
LINE
8
BLACK
6
CONTINUOUS
10
69.9983670000000018
20
-77.1734869999999944
11
69.9346010000000007
21
-77.0195420000000013
0
LINE
8
BLACK
6
CONTINUOUS
10
69.9346010000000007
20
-77.0195420000000013
11
69.9020929999999936
21
-76.8561150000000026
0
LINE
8
BLACK
6
CONTINUOUS
10
69.9020929999999936
20
-76.8561150000000026
11
69.8979999999999961
21
-76.7727999999999895
0
LINE
8
BLACK
6
CONTINUOUS
10
69.8979999999999961
20
-76.7727999999999895
11
69.8979999999999961
21
-74.9727999999999923
0
LINE
8
BLACK
6
CONTINUOUS
10
69.8979999999999961
20
-74.9727999999999923
11
69.9020929999999936
21
-74.8894849999999934
0
LINE
8
BLACK
6
CONTINUOUS
10
69.9020929999999936
20
-74.8894849999999934
11
69.9346010000000007
21
-74.7260579999999948
0
LINE
8
BLACK
6
CONTINUOUS
10
69.9346010000000007
20
-74.7260579999999948
11
69.9983670000000018
21
-74.5721130000000016
0
LINE
8
BLACK
6
CONTINUOUS
10
69.9983670000000018
20
-74.5721130000000016
11
70.0909410000000008
21
-74.433565999999999
0
LINE
8
BLACK
6
CONTINUOUS
10
70.0909410000000008
20
-74.433565999999999
11
70.2087659999999971
21
-74.3157410000000027
0
LINE
8
BLACK
6
CONTINUOUS
10
70.2087659999999971
20
-74.3157410000000027
11
70.3473129999999998
21
-74.2231670000000037
0
LINE
8
BLACK
6
CONTINUOUS
10
70.3473129999999998
20
-74.2231670000000037
11
70.5012579999999929
21
-74.1594010000000026
0
LINE
8
BLACK
6
CONTINUOUS
10
70.5012579999999929
20
-74.1594010000000026
11
70.6646849999999915
21
-74.1268929999999955
0
LINE
8
BLACK
6
CONTINUOUS
10
70.6646849999999915
20
-74.1268929999999955
11
70.8313150000000036
21
-74.1268929999999955
0
LINE
8
BLACK
6
CONTINUOUS
10
70.8313150000000036
20
-74.1268929999999955
11
70.9947420000000022
21
-74.1594010000000026
0
LINE
8
BLACK
6
CONTINUOUS
10
140.9147419999999897
20
-74.1594010000000026
11
141.0686869999999828
21
-74.2231670000000037
0
LINE
8
BLACK
6
CONTINUOUS
10
141.0686869999999828
20
-74.2231670000000037
11
141.2072339999999997
21
-74.3157410000000027
0
LINE
8
BLACK
6
CONTINUOUS
10
141.2072339999999997
20
-74.3157410000000027
11
141.3250589999999818
21
-74.433565999999999
0
LINE
8
BLACK
6
CONTINUOUS
10
141.3250589999999818
20
-74.433565999999999
11
141.417632999999995
21
-74.5721130000000016
0
LINE
8
BLACK
6
CONTINUOUS
10
141.417632999999995
20
-74.5721130000000016
11
141.4813989999999819
21
-74.7260579999999948
0
LINE
8
BLACK
6
CONTINUOUS
10
141.4813989999999819
20
-74.7260579999999948
11
141.513906999999989
21
-74.8894849999999934
0
LINE
8
BLACK
6
CONTINUOUS
10
141.513906999999989
20
-74.8894849999999934
11
141.5180000000000007
21
-74.9727999999999923
0
LINE
8
BLACK
6
CONTINUOUS
10
141.5180000000000007
20
-74.9727999999999923
11
141.5180000000000007
21
-76.7727999999999895
0
LINE
8
BLACK
6
CONTINUOUS
10
141.5180000000000007
20
-76.7727999999999895
11
141.513906999999989
21
-76.8561150000000026
0
LINE
8
BLACK
6
CONTINUOUS
10
141.513906999999989
20
-76.8561150000000026
11
141.4813989999999819
21
-77.0195420000000013
0
LINE
8
BLACK
6
CONTINUOUS
10
141.4813989999999819
20
-77.0195420000000013
11
141.417632999999995
21
-77.1734869999999944
0
LINE
8
BLACK
6
CONTINUOUS
10
141.417632999999995
20
-77.1734869999999944
11
141.3250589999999818
21
-77.312033999999997
0
LINE
8
BLACK
6
CONTINUOUS
10
141.3250589999999818
20
-77.312033999999997
11
141.2072339999999997
21
-77.4298589999999933
0
LINE
8
BLACK
6
CONTINUOUS
10
141.2072339999999997
20
-77.4298589999999933
11
141.0686869999999828
21
-77.5224329999999924
0
LINE
8
BLACK
6
CONTINUOUS
10
141.0686869999999828
20
-77.5224329999999924
11
140.9147419999999897
21
-77.5861989999999935
0
LINE
8
BLACK
6
CONTINUOUS
10
140.9147419999999897
20
-77.5861989999999935
11
140.7513150000000053
21
-77.6187070000000006
0
LINE
8
BLACK
6
CONTINUOUS
10
140.7513150000000053
20
-77.6187070000000006
11
140.5846850000000074
21
-77.6187070000000006
0
LINE
8
BLACK
6
CONTINUOUS
10
140.5846850000000074
20
-77.6187070000000006
11
140.4212579999999946
21
-77.5861989999999935
0
LINE
8
BLACK
6
CONTINUOUS
10
140.4212579999999946
20
-77.5861989999999935
11
140.2673130000000015
21
-77.5224329999999924
0
LINE
8
BLACK
6
CONTINUOUS
10
140.2673130000000015
20
-77.5224329999999924
11
140.1287659999999846
21
-77.4298589999999933
0
LINE
8
BLACK
6
CONTINUOUS
10
140.1287659999999846
20
-77.4298589999999933
11
140.0109410000000025
21
-77.312033999999997
0
LINE
8
BLACK
6
CONTINUOUS
10
140.0109410000000025
20
-77.312033999999997
11
139.9183669999999893
21
-77.1734869999999944
0
LINE
8
BLACK
6
CONTINUOUS
10
139.9183669999999893
20
-77.1734869999999944
11
139.8546010000000024
21
-77.0195420000000013
0
LINE
8
BLACK
6
CONTINUOUS
10
139.8546010000000024
20
-77.0195420000000013
11
139.8220929999999953
21
-76.8561150000000026
0
LINE
8
BLACK
6
CONTINUOUS
10
139.8220929999999953
20
-76.8561150000000026
11
139.8179999999999836
21
-76.7727999999999895
0
LINE
8
BLACK
6
CONTINUOUS
10
139.8179999999999836
20
-76.7727999999999895
11
139.8179999999999836
21
-74.9727999999999923
0
LINE
8
BLACK
6
CONTINUOUS
10
139.8179999999999836
20
-74.9727999999999923
11
139.8220929999999953
21
-74.8894849999999934
0
LINE
8
BLACK
6
CONTINUOUS
10
139.8220929999999953
20
-74.8894849999999934
11
139.8546010000000024
21
-74.7260579999999948
0
LINE
8
BLACK
6
CONTINUOUS
10
139.8546010000000024
20
-74.7260579999999948
11
139.9183669999999893
21
-74.5721130000000016
0
LINE
8
BLACK
6
CONTINUOUS
10
139.9183669999999893
20
-74.5721130000000016
11
140.0109410000000025
21
-74.433565999999999
0
LINE
8
BLACK
6
CONTINUOUS
10
140.0109410000000025
20
-74.433565999999999
11
140.1287659999999846
21
-74.3157410000000027
0
LINE
8
BLACK
6
CONTINUOUS
10
140.1287659999999846
20
-74.3157410000000027
11
140.2673130000000015
21
-74.2231670000000037
0
LINE
8
BLACK
6
CONTINUOUS
10
140.2673130000000015
20
-74.2231670000000037
11
140.4212579999999946
21
-74.1594010000000026
0
LINE
8
BLACK
6
CONTINUOUS
10
140.4212579999999946
20
-74.1594010000000026
11
140.5846850000000074
21
-74.1268929999999955
0
LINE
8
BLACK
6
CONTINUOUS
10
140.5846850000000074
20
-74.1268929999999955
11
140.7513150000000053
21
-74.1268929999999955
0
LINE
8
BLACK
6
CONTINUOUS
10
140.7513150000000053
20
-74.1268929999999955
11
140.9147419999999897
21
-74.1594010000000026
0
LINE
8
BLACK
6
CONTINUOUS
10
143.4547419999999818
20
-74.1594010000000026
11
143.6086870000000033
21
-74.2231670000000037
0
LINE
8
BLACK
6
CONTINUOUS
10
143.6086870000000033
20
-74.2231670000000037
11
143.7472339999999917
21
-74.3157410000000027
0
LINE
8
BLACK
6
CONTINUOUS
10
143.7472339999999917
20
-74.3157410000000027
11
143.8650590000000022
21
-74.433565999999999
0
LINE
8
BLACK
6
CONTINUOUS
10
143.8650590000000022
20
-74.433565999999999
11
143.9576329999999871
21
-74.5721130000000016
0
LINE
8
BLACK
6
CONTINUOUS
10
143.9576329999999871
20
-74.5721130000000016
11
144.0213990000000024
21
-74.7260579999999948
0
LINE
8
BLACK
6
CONTINUOUS
10
144.0213990000000024
20
-74.7260579999999948
11
144.0539069999999811
21
-74.8894849999999934
0
LINE
8
BLACK
6
CONTINUOUS
10
144.0539069999999811
20
-74.8894849999999934
11
144.0579999999999927
21
-74.9727999999999923
0
LINE
8
BLACK
6
CONTINUOUS
10
144.0579999999999927
20
-74.9727999999999923
11
144.0579999999999927
21
-76.7727999999999895
0
LINE
8
BLACK
6
CONTINUOUS
10
144.0579999999999927
20
-76.7727999999999895
11
144.0539069999999811
21
-76.8561150000000026
0
LINE
8
BLACK
6
CONTINUOUS
10
144.0539069999999811
20
-76.8561150000000026
11
144.0213990000000024
21
-77.0195420000000013
0
LINE
8
BLACK
6
CONTINUOUS
10
144.0213990000000024
20
-77.0195420000000013
11
143.9576329999999871
21
-77.1734869999999944
0
LINE
8
BLACK
6
CONTINUOUS
10
143.9576329999999871
20
-77.1734869999999944
11
143.8650590000000022
21
-77.312033999999997
0
LINE
8
BLACK
6
CONTINUOUS
10
143.8650590000000022
20
-77.312033999999997
11
143.7472339999999917
21
-77.4298589999999933
0
LINE
8
BLACK
6
CONTINUOUS
10
143.7472339999999917
20
-77.4298589999999933
11
143.6086870000000033
21
-77.5224329999999924
0
LINE
8
BLACK
6
CONTINUOUS
10
143.6086870000000033
20
-77.5224329999999924
11
143.4547419999999818
21
-77.5861989999999935
0
LINE
8
BLACK
6
CONTINUOUS
10
143.4547419999999818
20
-77.5861989999999935
11
143.2913149999999973
21
-77.6187070000000006
0
LINE
8
BLACK
6
CONTINUOUS
10
143.2913149999999973
20
-77.6187070000000006
11
143.1246849999999995
21
-77.6187070000000006
0
LINE
8
BLACK
6
CONTINUOUS
10
143.1246849999999995
20
-77.6187070000000006
11
142.9612579999999866
21
-77.5861989999999935
0
LINE
8
BLACK
6
CONTINUOUS
10
142.9612579999999866
20
-77.5861989999999935
11
142.8073129999999935
21
-77.5224329999999924
0
LINE
8
BLACK
6
CONTINUOUS
10
142.8073129999999935
20
-77.5224329999999924
11
142.6687660000000051
21
-77.4298589999999933
0
LINE
8
BLACK
6
CONTINUOUS
10
142.6687660000000051
20
-77.4298589999999933
11
142.5509409999999946
21
-77.312033999999997
0
LINE
8
BLACK
6
CONTINUOUS
10
142.5509409999999946
20
-77.312033999999997
11
142.4583669999999813
21
-77.1734869999999944
0
LINE
8
BLACK
6
CONTINUOUS
10
142.4583669999999813
20
-77.1734869999999944
11
142.3946009999999944
21
-77.0195420000000013
0
LINE
8
BLACK
6
CONTINUOUS
10
142.3946009999999944
20
-77.0195420000000013
11
142.3620929999999873
21
-76.8561150000000026
0
LINE
8
BLACK
6
CONTINUOUS
10
142.3620929999999873
20
-76.8561150000000026
11
142.3580000000000041
21
-76.7727999999999895
0
LINE
8
BLACK
6
CONTINUOUS
10
142.3580000000000041
20
-76.7727999999999895
11
142.3580000000000041
21
-74.9727999999999923
0
LINE
8
BLACK
6
CONTINUOUS
10
142.3580000000000041
20
-74.9727999999999923
11
142.3620929999999873
21
-74.8894849999999934
0
LINE
8
BLACK
6
CONTINUOUS
10
142.3620929999999873
20
-74.8894849999999934
11
142.3946009999999944
21
-74.7260579999999948
0
LINE
8
BLACK
6
CONTINUOUS
10
142.3946009999999944
20
-74.7260579999999948
11
142.4583669999999813
21
-74.5721130000000016
0
LINE
8
BLACK
6
CONTINUOUS
10
142.4583669999999813
20
-74.5721130000000016
11
142.5509409999999946
21
-74.433565999999999
0
LINE
8
BLACK
6
CONTINUOUS
10
142.5509409999999946
20
-74.433565999999999
11
142.6687660000000051
21
-74.3157410000000027
0
LINE
8
BLACK
6
CONTINUOUS
10
142.6687660000000051
20
-74.3157410000000027
11
142.8073129999999935
21
-74.2231670000000037
0
LINE
8
BLACK
6
CONTINUOUS
10
142.8073129999999935
20
-74.2231670000000037
11
142.9612579999999866
21
-74.1594010000000026
0
LINE
8
BLACK
6
CONTINUOUS
10
142.9612579999999866
20
-74.1594010000000026
11
143.1246849999999995
21
-74.1268929999999955
0
LINE
8
BLACK
6
CONTINUOUS
10
143.1246849999999995
20
-74.1268929999999955
11
143.2913149999999973
21
-74.1268929999999955
0
LINE
8
BLACK
6
CONTINUOUS
10
143.2913149999999973
20
-74.1268929999999955
11
143.4547419999999818
21
-74.1594010000000026
0
LINE
8
BLACK
6
CONTINUOUS
10
145.9947420000000022
20
-74.1594010000000026
11
146.1486869999999954
21
-74.2231670000000037
0
LINE
8
BLACK
6
CONTINUOUS
10
146.1486869999999954
20
-74.2231670000000037
11
146.2872339999999838
21
-74.3157410000000027
0
LINE
8
BLACK
6
CONTINUOUS
10
146.2872339999999838
20
-74.3157410000000027
11
146.4050589999999943
21
-74.433565999999999
0
LINE
8
BLACK
6
CONTINUOUS
10
146.4050589999999943
20
-74.433565999999999
11
146.4976330000000075
21
-74.5721130000000016
0
LINE
8
BLACK
6
CONTINUOUS
10
146.4976330000000075
20
-74.5721130000000016
11
146.5613989999999944
21
-74.7260579999999948
0
LINE
8
BLACK
6
CONTINUOUS
10
146.5613989999999944
20
-74.7260579999999948
11
146.5939070000000015
21
-74.8894849999999934
0
LINE
8
BLACK
6
CONTINUOUS
10
146.5939070000000015
20
-74.8894849999999934
11
146.5979999999999848
21
-74.9727999999999923
0
LINE
8
BLACK
6
CONTINUOUS
10
146.5979999999999848
20
-74.9727999999999923
11
146.5979999999999848
21
-76.7727999999999895
0
LINE
8
BLACK
6
CONTINUOUS
10
146.5979999999999848
20
-76.7727999999999895
11
146.5939070000000015
21
-76.8561150000000026
0
LINE
8
BLACK
6
CONTINUOUS
10
146.5939070000000015
20
-76.8561150000000026
11
146.5613989999999944
21
-77.0195420000000013
0
LINE
8
BLACK
6
CONTINUOUS
10
146.5613989999999944
20
-77.0195420000000013
11
146.4976330000000075
21
-77.1734869999999944
0
LINE
8
BLACK
6
CONTINUOUS
10
146.4976330000000075
20
-77.1734869999999944
11
146.4050589999999943
21
-77.312033999999997
0
LINE
8
BLACK
6
CONTINUOUS
10
146.4050589999999943
20
-77.312033999999997
11
146.2872339999999838
21
-77.4298589999999933
0
LINE
8
BLACK
6
CONTINUOUS
10
146.2872339999999838
20
-77.4298589999999933
11
146.1486869999999954
21
-77.5224329999999924
0
LINE
8
BLACK
6
CONTINUOUS
10
146.1486869999999954
20
-77.5224329999999924
11
145.9947420000000022
21
-77.5861989999999935
0
LINE
8
BLACK
6
CONTINUOUS
10
145.9947420000000022
20
-77.5861989999999935
11
145.8313149999999894
21
-77.6187070000000006
0
LINE
8
BLACK
6
CONTINUOUS
10
145.8313149999999894
20
-77.6187070000000006
11
145.6646849999999915
21
-77.6187070000000006
0
LINE
8
BLACK
6
CONTINUOUS
10
145.6646849999999915
20
-77.6187070000000006
11
145.5012580000000071
21
-77.5861989999999935
0
LINE
8
BLACK
6
CONTINUOUS
10
145.5012580000000071
20
-77.5861989999999935
11
145.3473129999999855
21
-77.5224329999999924
0
LINE
8
BLACK
6
CONTINUOUS
10
145.3473129999999855
20
-77.5224329999999924
11
145.2087659999999971
21
-77.4298589999999933
0
LINE
8
BLACK
6
CONTINUOUS
10
145.2087659999999971
20
-77.4298589999999933
11
145.0909409999999866
21
-77.312033999999997
0
LINE
8
BLACK
6
CONTINUOUS
10
145.0909409999999866
20
-77.312033999999997
11
144.9983670000000018
21
-77.1734869999999944
0
LINE
8
BLACK
6
CONTINUOUS
10
144.9983670000000018
20
-77.1734869999999944
11
144.9346009999999865
21
-77.0195420000000013
0
LINE
8
BLACK
6
CONTINUOUS
10
144.9346009999999865
20
-77.0195420000000013
11
144.9020929999999794
21
-76.8561150000000026
0
LINE
8
BLACK
6
CONTINUOUS
10
144.9020929999999794
20
-76.8561150000000026
11
144.8979999999999961
21
-76.7727999999999895
0
LINE
8
BLACK
6
CONTINUOUS
10
144.8979999999999961
20
-76.7727999999999895
11
144.8979999999999961
21
-74.9727999999999923
0
LINE
8
BLACK
6
CONTINUOUS
10
144.8979999999999961
20
-74.9727999999999923
11
144.9020929999999794
21
-74.8894849999999934
0
LINE
8
BLACK
6
CONTINUOUS
10
144.9020929999999794
20
-74.8894849999999934
11
144.9346009999999865
21
-74.7260579999999948
0
LINE
8
BLACK
6
CONTINUOUS
10
144.9346009999999865
20
-74.7260579999999948
11
144.9983670000000018
21
-74.5721130000000016
0
LINE
8
BLACK
6
CONTINUOUS
10
144.9983670000000018
20
-74.5721130000000016
11
145.0909409999999866
21
-74.433565999999999
0
LINE
8
BLACK
6
CONTINUOUS
10
145.0909409999999866
20
-74.433565999999999
11
145.2087659999999971
21
-74.3157410000000027
0
LINE
8
BLACK
6
CONTINUOUS
10
145.2087659999999971
20
-74.3157410000000027
11
145.3473129999999855
21
-74.2231670000000037
0
LINE
8
BLACK
6
CONTINUOUS
10
145.3473129999999855
20
-74.2231670000000037
11
145.5012580000000071
21
-74.1594010000000026
0
LINE
8
BLACK
6
CONTINUOUS
10
145.5012580000000071
20
-74.1594010000000026
11
145.6646849999999915
21
-74.1268929999999955
0
LINE
8
BLACK
6
CONTINUOUS
10
145.6646849999999915
20
-74.1268929999999955
11
145.8313149999999894
21
-74.1268929999999955
0
LINE
8
BLACK
6
CONTINUOUS
10
145.8313149999999894
20
-74.1268929999999955
11
145.9947420000000022
21
-74.1594010000000026
0
LINE
8
BLACK
6
CONTINUOUS
10
136.2956709999999987
20
-76.3315300000000008
11
136.3767770000000041
21
-76.3857229999999987
0
LINE
8
BLACK
6
CONTINUOUS
10
136.3767770000000041
20
-76.3857229999999987
11
136.4309700000000021
21
-76.4668289999999899
0
LINE
8
BLACK
6
CONTINUOUS
10
136.4309700000000021
20
-76.4668289999999899
11
136.4499999999999886
21
-76.5625
0
LINE
8
BLACK
6
CONTINUOUS
10
136.4499999999999886
20
-76.5625
11
136.4499999999999886
21
-77.0874999999999915
0
LINE
8
BLACK
6
CONTINUOUS
10
136.4499999999999886
20
-77.0874999999999915
11
136.4309700000000021
21
-77.1831710000000015
0
LINE
8
BLACK
6
CONTINUOUS
10
136.4309700000000021
20
-77.1831710000000015
11
136.3767770000000041
21
-77.2642769999999928
0
LINE
8
BLACK
6
CONTINUOUS
10
136.3767770000000041
20
-77.2642769999999928
11
136.2956709999999987
21
-77.3184699999999907
0
LINE
8
BLACK
6
CONTINUOUS
10
136.2956709999999987
20
-77.3184699999999907
11
136.1999999999999886
21
-77.3374999999999915
0
LINE
8
BLACK
6
CONTINUOUS
10
136.1999999999999886
20
-77.3374999999999915
11
135.2999999999999829
21
-77.3374999999999915
0
LINE
8
BLACK
6
CONTINUOUS
10
135.2999999999999829
20
-77.3374999999999915
11
135.2043290000000013
21
-77.3184699999999907
0
LINE
8
BLACK
6
CONTINUOUS
10
135.2043290000000013
20
-77.3184699999999907
11
135.1232229999999959
21
-77.2642769999999928
0
LINE
8
BLACK
6
CONTINUOUS
10
135.1232229999999959
20
-77.2642769999999928
11
135.0690299999999979
21
-77.1831710000000015
0
LINE
8
BLACK
6
CONTINUOUS
10
135.0690299999999979
20
-77.1831710000000015
11
135.0499999999999829
21
-77.0874999999999915
0
LINE
8
BLACK
6
CONTINUOUS
10
135.0499999999999829
20
-77.0874999999999915
11
135.0499999999999829
21
-76.5625
0
LINE
8
BLACK
6
CONTINUOUS
10
135.0499999999999829
20
-76.5625
11
135.0690299999999979
21
-76.4668289999999899
0
LINE
8
BLACK
6
CONTINUOUS
10
135.0690299999999979
20
-76.4668289999999899
11
135.1232229999999959
21
-76.3857229999999987
0
LINE
8
BLACK
6
CONTINUOUS
10
135.1232229999999959
20
-76.3857229999999987
11
135.2043290000000013
21
-76.3315300000000008
0
LINE
8
BLACK
6
CONTINUOUS
10
135.2043290000000013
20
-76.3315300000000008
11
135.2999999999999829
21
-76.3125
0
LINE
8
BLACK
6
CONTINUOUS
10
135.2999999999999829
20
-76.3125
11
136.1999999999999886
21
-76.3125
0
LINE
8
BLACK
6
CONTINUOUS
10
136.1999999999999886
20
-76.3125
11
136.2956709999999987
21
-76.3315300000000008
0
LINE
8
BLACK
6
CONTINUOUS
10
138.2956709999999987
20
-76.3315300000000008
11
138.3767770000000041
21
-76.3857229999999987
0
LINE
8
BLACK
6
CONTINUOUS
10
138.3767770000000041
20
-76.3857229999999987
11
138.4309700000000021
21
-76.4668289999999899
0
LINE
8
BLACK
6
CONTINUOUS
10
138.4309700000000021
20
-76.4668289999999899
11
138.4499999999999886
21
-76.5625
0
LINE
8
BLACK
6
CONTINUOUS
10
138.4499999999999886
20
-76.5625
11
138.4499999999999886
21
-77.0874999999999915
0
LINE
8
BLACK
6
CONTINUOUS
10
138.4499999999999886
20
-77.0874999999999915
11
138.4309700000000021
21
-77.1831710000000015
0
LINE
8
BLACK
6
CONTINUOUS
10
138.4309700000000021
20
-77.1831710000000015
11
138.3767770000000041
21
-77.2642769999999928
0
LINE
8
BLACK
6
CONTINUOUS
10
138.3767770000000041
20
-77.2642769999999928
11
138.2956709999999987
21
-77.3184699999999907
0
LINE
8
BLACK
6
CONTINUOUS
10
138.2956709999999987
20
-77.3184699999999907
11
138.1999999999999886
21
-77.3374999999999915
0
LINE
8
BLACK
6
CONTINUOUS
10
138.1999999999999886
20
-77.3374999999999915
11
137.2999999999999829
21
-77.3374999999999915
0
LINE
8
BLACK
6
CONTINUOUS
10
137.2999999999999829
20
-77.3374999999999915
11
137.2043290000000013
21
-77.3184699999999907
0
LINE
8
BLACK
6
CONTINUOUS
10
137.2043290000000013
20
-77.3184699999999907
11
137.1232229999999959
21
-77.2642769999999928
0
LINE
8
BLACK
6
CONTINUOUS
10
137.1232229999999959
20
-77.2642769999999928
11
137.0690299999999979
21
-77.1831710000000015
0
LINE
8
BLACK
6
CONTINUOUS
10
137.0690299999999979
20
-77.1831710000000015
11
137.0499999999999829
21
-77.0874999999999915
0
LINE
8
BLACK
6
CONTINUOUS
10
137.0499999999999829
20
-77.0874999999999915
11
137.0499999999999829
21
-76.5625
0
LINE
8
BLACK
6
CONTINUOUS
10
137.0499999999999829
20
-76.5625
11
137.0690299999999979
21
-76.4668289999999899
0
LINE
8
BLACK
6
CONTINUOUS
10
137.0690299999999979
20
-76.4668289999999899
11
137.1232229999999959
21
-76.3857229999999987
0
LINE
8
BLACK
6
CONTINUOUS
10
137.1232229999999959
20
-76.3857229999999987
11
137.2043290000000013
21
-76.3315300000000008
0
LINE
8
BLACK
6
CONTINUOUS
10
137.2043290000000013
20
-76.3315300000000008
11
137.2999999999999829
21
-76.3125
0
LINE
8
BLACK
6
CONTINUOUS
10
137.2999999999999829
20
-76.3125
11
138.1999999999999886
21
-76.3125
0
LINE
8
BLACK
6
CONTINUOUS
10
138.1999999999999886
20
-76.3125
11
138.2956709999999987
21
-76.3315300000000008
0
LINE
8
BLACK
6
CONTINUOUS
10
136.2956709999999987
20
-74.5065299999999979
11
136.3767770000000041
21
-74.5607229999999959
0
LINE
8
BLACK
6
CONTINUOUS
10
136.3767770000000041
20
-74.5607229999999959
11
136.4309700000000021
21
-74.6418290000000013
0
LINE
8
BLACK
6
CONTINUOUS
10
136.4309700000000021
20
-74.6418290000000013
11
136.4499999999999886
21
-74.7374999999999972
0
LINE
8
BLACK
6
CONTINUOUS
10
136.4499999999999886
20
-74.7374999999999972
11
136.4499999999999886
21
-75.2625000000000028
0
LINE
8
BLACK
6
CONTINUOUS
10
136.4499999999999886
20
-75.2625000000000028
11
136.4309700000000021
21
-75.3581709999999987
0
LINE
8
BLACK
6
CONTINUOUS
10
136.4309700000000021
20
-75.3581709999999987
11
136.3767770000000041
21
-75.4392769999999899
0
LINE
8
BLACK
6
CONTINUOUS
10
136.3767770000000041
20
-75.4392769999999899
11
136.2956709999999987
21
-75.4934700000000021
0
LINE
8
BLACK
6
CONTINUOUS
10
136.2956709999999987
20
-75.4934700000000021
11
136.1999999999999886
21
-75.5125000000000028
0
LINE
8
BLACK
6
CONTINUOUS
10
136.1999999999999886
20
-75.5125000000000028
11
135.2999999999999829
21
-75.5125000000000028
0
LINE
8
BLACK
6
CONTINUOUS
10
135.2999999999999829
20
-75.5125000000000028
11
135.2043290000000013
21
-75.4934700000000021
0
LINE
8
BLACK
6
CONTINUOUS
10
135.2043290000000013
20
-75.4934700000000021
11
135.1232229999999959
21
-75.4392769999999899
0
LINE
8
BLACK
6
CONTINUOUS
10
135.1232229999999959
20
-75.4392769999999899
11
135.0690299999999979
21
-75.3581709999999987
0
LINE
8
BLACK
6
CONTINUOUS
10
135.0690299999999979
20
-75.3581709999999987
11
135.0499999999999829
21
-75.2625000000000028
0
LINE
8
BLACK
6
CONTINUOUS
10
135.0499999999999829
20
-75.2625000000000028
11
135.0499999999999829
21
-74.7374999999999972
0
LINE
8
BLACK
6
CONTINUOUS
10
135.0499999999999829
20
-74.7374999999999972
11
135.0690299999999979
21
-74.6418290000000013
0
LINE
8
BLACK
6
CONTINUOUS
10
135.0690299999999979
20
-74.6418290000000013
11
135.1232229999999959
21
-74.5607229999999959
0
LINE
8
BLACK
6
CONTINUOUS
10
135.1232229999999959
20
-74.5607229999999959
11
135.2043290000000013
21
-74.5065299999999979
0
LINE
8
BLACK
6
CONTINUOUS
10
135.2043290000000013
20
-74.5065299999999979
11
135.2999999999999829
21
-74.4874999999999972
0
LINE
8
BLACK
6
CONTINUOUS
10
135.2999999999999829
20
-74.4874999999999972
11
136.1999999999999886
21
-74.4874999999999972
0
LINE
8
BLACK
6
CONTINUOUS
10
136.1999999999999886
20
-74.4874999999999972
11
136.2956709999999987
21
-74.5065299999999979
0
LINE
8
BLACK
6
CONTINUOUS
10
138.2956709999999987
20
-74.5065299999999979
11
138.3767770000000041
21
-74.5607229999999959
0
LINE
8
BLACK
6
CONTINUOUS
10
138.3767770000000041
20
-74.5607229999999959
11
138.4309700000000021
21
-74.6418290000000013
0
LINE
8
BLACK
6
CONTINUOUS
10
138.4309700000000021
20
-74.6418290000000013
11
138.4499999999999886
21
-74.7374999999999972
0
LINE
8
BLACK
6
CONTINUOUS
10
138.4499999999999886
20
-74.7374999999999972
11
138.4499999999999886
21
-75.2625000000000028
0
LINE
8
BLACK
6
CONTINUOUS
10
138.4499999999999886
20
-75.2625000000000028
11
138.4309700000000021
21
-75.3581709999999987
0
LINE
8
BLACK
6
CONTINUOUS
10
138.4309700000000021
20
-75.3581709999999987
11
138.3767770000000041
21
-75.4392769999999899
0
LINE
8
BLACK
6
CONTINUOUS
10
138.3767770000000041
20
-75.4392769999999899
11
138.2956709999999987
21
-75.4934700000000021
0
LINE
8
BLACK
6
CONTINUOUS
10
138.2956709999999987
20
-75.4934700000000021
11
138.1999999999999886
21
-75.5125000000000028
0
LINE
8
BLACK
6
CONTINUOUS
10
138.1999999999999886
20
-75.5125000000000028
11
137.2999999999999829
21
-75.5125000000000028
0
LINE
8
BLACK
6
CONTINUOUS
10
137.2999999999999829
20
-75.5125000000000028
11
137.2043290000000013
21
-75.4934700000000021
0
LINE
8
BLACK
6
CONTINUOUS
10
137.2043290000000013
20
-75.4934700000000021
11
137.1232229999999959
21
-75.4392769999999899
0
LINE
8
BLACK
6
CONTINUOUS
10
137.1232229999999959
20
-75.4392769999999899
11
137.0690299999999979
21
-75.3581709999999987
0
LINE
8
BLACK
6
CONTINUOUS
10
137.0690299999999979
20
-75.3581709999999987
11
137.0499999999999829
21
-75.2625000000000028
0
LINE
8
BLACK
6
CONTINUOUS
10
137.0499999999999829
20
-75.2625000000000028
11
137.0499999999999829
21
-74.7374999999999972
0
LINE
8
BLACK
6
CONTINUOUS
10
137.0499999999999829
20
-74.7374999999999972
11
137.0690299999999979
21
-74.6418290000000013
0
LINE
8
BLACK
6
CONTINUOUS
10
137.0690299999999979
20
-74.6418290000000013
11
137.1232229999999959
21
-74.5607229999999959
0
LINE
8
BLACK
6
CONTINUOUS
10
137.1232229999999959
20
-74.5607229999999959
11
137.2043290000000013
21
-74.5065299999999979
0
LINE
8
BLACK
6
CONTINUOUS
10
137.2043290000000013
20
-74.5065299999999979
11
137.2999999999999829
21
-74.4874999999999972
0
LINE
8
BLACK
6
CONTINUOUS
10
137.2999999999999829
20
-74.4874999999999972
11
138.1999999999999886
21
-74.4874999999999972
0
LINE
8
BLACK
6
CONTINUOUS
10
138.1999999999999886
20
-74.4874999999999972
11
138.2956709999999987
21
-74.5065299999999979
0
LINE
8
BLACK
6
CONTINUOUS
10
141.3456709999999816
20
-65.7690300000000008
11
141.4267769999999871
21
-65.8232229999999987
0
LINE
8
BLACK
6
CONTINUOUS
10
141.4267769999999871
20
-65.8232229999999987
11
141.480969999999985
21
-65.9043289999999899
0
LINE
8
BLACK
6
CONTINUOUS
10
141.480969999999985
20
-65.9043289999999899
11
141.5
21
-66.
0
LINE
8
BLACK
6
CONTINUOUS
10
141.5
20
-66.
11
141.5
21
-71.
0
LINE
8
BLACK
6
CONTINUOUS
10
141.5
20
-71.
11
141.480969999999985
21
-71.0956709999999958
0
LINE
8
BLACK
6
CONTINUOUS
10
141.480969999999985
20
-71.0956709999999958
11
141.4267769999999871
21
-71.1767770000000013
0
LINE
8
BLACK
6
CONTINUOUS
10
141.4267769999999871
20
-71.1767770000000013
11
141.3456709999999816
21
-71.2309699999999992
0
LINE
8
BLACK
6
CONTINUOUS
10
141.3456709999999816
20
-71.2309699999999992
11
141.25
21
-71.25
0
LINE
8
BLACK
6
CONTINUOUS
10
141.25
20
-71.25
11
140.75
21
-71.25
0
LINE
8
BLACK
6
CONTINUOUS
10
140.75
20
-71.25
11
140.6543289999999899
21
-71.2309699999999992
0
LINE
8
BLACK
6
CONTINUOUS
10
140.6543289999999899
20
-71.2309699999999992
11
140.5732229999999845
21
-71.1767770000000013
0
LINE
8
BLACK
6
CONTINUOUS
10
140.5732229999999845
20
-71.1767770000000013
11
140.5190299999999866
21
-71.0956709999999958
0
LINE
8
BLACK
6
CONTINUOUS
10
140.5190299999999866
20
-71.0956709999999958
11
140.5
21
-71.
0
LINE
8
BLACK
6
CONTINUOUS
10
140.5
20
-71.
11
140.5
21
-66.
0
LINE
8
BLACK
6
CONTINUOUS
10
140.5
20
-66.
11
140.5190299999999866
21
-65.9043289999999899
0
LINE
8
BLACK
6
CONTINUOUS
10
140.5190299999999866
20
-65.9043289999999899
11
140.5732229999999845
21
-65.8232229999999987
0
LINE
8
BLACK
6
CONTINUOUS
10
140.5732229999999845
20
-65.8232229999999987
11
140.6543289999999899
21
-65.7690300000000008
0
LINE
8
BLACK
6
CONTINUOUS
10
140.6543289999999899
20
-65.7690300000000008
11
140.75
21
-65.75
0
LINE
8
BLACK
6
CONTINUOUS
10
140.75
20
-65.75
11
141.25
21
-65.75
0
LINE
8
BLACK
6
CONTINUOUS
10
141.25
20
-65.75
11
141.3456709999999816
21
-65.7690300000000008
0
LINE
8
BLACK
6
CONTINUOUS
10
143.3456709999999816
20
-65.7690300000000008
11
143.4267769999999871
21
-65.8232229999999987
0
LINE
8
BLACK
6
CONTINUOUS
10
143.4267769999999871
20
-65.8232229999999987
11
143.480969999999985
21
-65.9043289999999899
0
LINE
8
BLACK
6
CONTINUOUS
10
143.480969999999985
20
-65.9043289999999899
11
143.5
21
-66.
0
LINE
8
BLACK
6
CONTINUOUS
10
143.5
20
-66.
11
143.5
21
-71.
0
LINE
8
BLACK
6
CONTINUOUS
10
143.5
20
-71.
11
143.480969999999985
21
-71.0956709999999958
0
LINE
8
BLACK
6
CONTINUOUS
10
143.480969999999985
20
-71.0956709999999958
11
143.4267769999999871
21
-71.1767770000000013
0
LINE
8
BLACK
6
CONTINUOUS
10
143.4267769999999871
20
-71.1767770000000013
11
143.3456709999999816
21
-71.2309699999999992
0
LINE
8
BLACK
6
CONTINUOUS
10
143.3456709999999816
20
-71.2309699999999992
11
143.25
21
-71.25
0
LINE
8
BLACK
6
CONTINUOUS
10
143.25
20
-71.25
11
142.75
21
-71.25
0
LINE
8
BLACK
6
CONTINUOUS
10
142.75
20
-71.25
11
142.6543289999999899
21
-71.2309699999999992
0
LINE
8
BLACK
6
CONTINUOUS
10
142.6543289999999899
20
-71.2309699999999992
11
142.5732229999999845
21
-71.1767770000000013
0
LINE
8
BLACK
6
CONTINUOUS
10
142.5732229999999845
20
-71.1767770000000013
11
142.5190299999999866
21
-71.0956709999999958
0
LINE
8
BLACK
6
CONTINUOUS
10
142.5190299999999866
20
-71.0956709999999958
11
142.5
21
-71.
0
LINE
8
BLACK
6
CONTINUOUS
10
142.5
20
-71.
11
142.5
21
-66.
0
LINE
8
BLACK
6
CONTINUOUS
10
142.5
20
-66.
11
142.5190299999999866
21
-65.9043289999999899
0
LINE
8
BLACK
6
CONTINUOUS
10
142.5190299999999866
20
-65.9043289999999899
11
142.5732229999999845
21
-65.8232229999999987
0
LINE
8
BLACK
6
CONTINUOUS
10
142.5732229999999845
20
-65.8232229999999987
11
142.6543289999999899
21
-65.7690300000000008
0
LINE
8
BLACK
6
CONTINUOUS
10
142.6543289999999899
20
-65.7690300000000008
11
142.75
21
-65.75
0
LINE
8
BLACK
6
CONTINUOUS
10
142.75
20
-65.75
11
143.25
21
-65.75
0
LINE
8
BLACK
6
CONTINUOUS
10
143.25
20
-65.75
11
143.3456709999999816
21
-65.7690300000000008
0
LINE
8
BLACK
6
CONTINUOUS
10
145.3456709999999816
20
-65.7690300000000008
11
145.4267769999999871
21
-65.8232229999999987
0
LINE
8
BLACK
6
CONTINUOUS
10
145.4267769999999871
20
-65.8232229999999987
11
145.480969999999985
21
-65.9043289999999899
0
LINE
8
BLACK
6
CONTINUOUS
10
145.480969999999985
20
-65.9043289999999899
11
145.5
21
-66.
0
LINE
8
BLACK
6
CONTINUOUS
10
145.5
20
-66.
11
145.5
21
-71.
0
LINE
8
BLACK
6
CONTINUOUS
10
145.5
20
-71.
11
145.480969999999985
21
-71.0956709999999958
0
LINE
8
BLACK
6
CONTINUOUS
10
145.480969999999985
20
-71.0956709999999958
11
145.4267769999999871
21
-71.1767770000000013
0
LINE
8
BLACK
6
CONTINUOUS
10
145.4267769999999871
20
-71.1767770000000013
11
145.3456709999999816
21
-71.2309699999999992
0
LINE
8
BLACK
6
CONTINUOUS
10
145.3456709999999816
20
-71.2309699999999992
11
145.25
21
-71.25
0
LINE
8
BLACK
6
CONTINUOUS
10
145.25
20
-71.25
11
144.75
21
-71.25
0
LINE
8
BLACK
6
CONTINUOUS
10
144.75
20
-71.25
11
144.6543289999999899
21
-71.2309699999999992
0
LINE
8
BLACK
6
CONTINUOUS
10
144.6543289999999899
20
-71.2309699999999992
11
144.5732229999999845
21
-71.1767770000000013
0
LINE
8
BLACK
6
CONTINUOUS
10
144.5732229999999845
20
-71.1767770000000013
11
144.5190299999999866
21
-71.0956709999999958
0
LINE
8
BLACK
6
CONTINUOUS
10
144.5190299999999866
20
-71.0956709999999958
11
144.5
21
-71.
0
LINE
8
BLACK
6
CONTINUOUS
10
144.5
20
-71.
11
144.5
21
-66.
0
LINE
8
BLACK
6
CONTINUOUS
10
144.5
20
-66.
11
144.5190299999999866
21
-65.9043289999999899
0
LINE
8
BLACK
6
CONTINUOUS
10
144.5190299999999866
20
-65.9043289999999899
11
144.5732229999999845
21
-65.8232229999999987
0
LINE
8
BLACK
6
CONTINUOUS
10
144.5732229999999845
20
-65.8232229999999987
11
144.6543289999999899
21
-65.7690300000000008
0
LINE
8
BLACK
6
CONTINUOUS
10
144.6543289999999899
20
-65.7690300000000008
11
144.75
21
-65.75
0
LINE
8
BLACK
6
CONTINUOUS
10
144.75
20
-65.75
11
145.25
21
-65.75
0
LINE
8
BLACK
6
CONTINUOUS
10
145.25
20
-65.75
11
145.3456709999999816
21
-65.7690300000000008
0
LINE
8
BLACK
6
CONTINUOUS
10
147.3456709999999816
20
-65.7690300000000008
11
147.4267769999999871
21
-65.8232229999999987
0
LINE
8
BLACK
6
CONTINUOUS
10
147.4267769999999871
20
-65.8232229999999987
11
147.480969999999985
21
-65.9043289999999899
0
LINE
8
BLACK
6
CONTINUOUS
10
147.480969999999985
20
-65.9043289999999899
11
147.5
21
-66.
0
LINE
8
BLACK
6
CONTINUOUS
10
147.5
20
-66.
11
147.5
21
-71.
0
LINE
8
BLACK
6
CONTINUOUS
10
147.5
20
-71.
11
147.480969999999985
21
-71.0956709999999958
0
LINE
8
BLACK
6
CONTINUOUS
10
147.480969999999985
20
-71.0956709999999958
11
147.4267769999999871
21
-71.1767770000000013
0
LINE
8
BLACK
6
CONTINUOUS
10
147.4267769999999871
20
-71.1767770000000013
11
147.3456709999999816
21
-71.2309699999999992
0
LINE
8
BLACK
6
CONTINUOUS
10
147.3456709999999816
20
-71.2309699999999992
11
147.25
21
-71.25
0
LINE
8
BLACK
6
CONTINUOUS
10
147.25
20
-71.25
11
146.75
21
-71.25
0
LINE
8
BLACK
6
CONTINUOUS
10
146.75
20
-71.25
11
146.6543289999999899
21
-71.2309699999999992
0
LINE
8
BLACK
6
CONTINUOUS
10
146.6543289999999899
20
-71.2309699999999992
11
146.5732229999999845
21
-71.1767770000000013
0
LINE
8
BLACK
6
CONTINUOUS
10
146.5732229999999845
20
-71.1767770000000013
11
146.5190299999999866
21
-71.0956709999999958
0
LINE
8
BLACK
6
CONTINUOUS
10
146.5190299999999866
20
-71.0956709999999958
11
146.5
21
-71.
0
LINE
8
BLACK
6
CONTINUOUS
10
146.5
20
-71.
11
146.5
21
-66.
0
LINE
8
BLACK
6
CONTINUOUS
10
146.5
20
-66.
11
146.5190299999999866
21
-65.9043289999999899
0
LINE
8
BLACK
6
CONTINUOUS
10
146.5190299999999866
20
-65.9043289999999899
11
146.5732229999999845
21
-65.8232229999999987
0
LINE
8
BLACK
6
CONTINUOUS
10
146.5732229999999845
20
-65.8232229999999987
11
146.6543289999999899
21
-65.7690300000000008
0
LINE
8
BLACK
6
CONTINUOUS
10
146.6543289999999899
20
-65.7690300000000008
11
146.75
21
-65.75
0
LINE
8
BLACK
6
CONTINUOUS
10
146.75
20
-65.75
11
147.25
21
-65.75
0
LINE
8
BLACK
6
CONTINUOUS
10
147.25
20
-65.75
11
147.3456709999999816
21
-65.7690300000000008
0
LINE
8
BLACK
6
CONTINUOUS
10
139.2456709999999873
20
-64.7690300000000008
11
139.3267769999999928
21
-64.8232229999999987
0
LINE
8
BLACK
6
CONTINUOUS
10
139.3267769999999928
20
-64.8232229999999987
11
139.3809699999999907
21
-64.9043290000000042
0
LINE
8
BLACK
6
CONTINUOUS
10
139.3809699999999907
20
-64.9043290000000042
11
139.4000000000000057
21
-65.
0
LINE
8
BLACK
6
CONTINUOUS
10
139.4000000000000057
20
-65.
11
139.4000000000000057
21
-67.5
0
LINE
8
BLACK
6
CONTINUOUS
10
139.4000000000000057
20
-67.5
11
139.3809699999999907
21
-67.5956709999999958
0
LINE
8
BLACK
6
CONTINUOUS
10
139.3809699999999907
20
-67.5956709999999958
11
139.3267769999999928
21
-67.6767770000000013
0
LINE
8
BLACK
6
CONTINUOUS
10
139.3267769999999928
20
-67.6767770000000013
11
139.2456709999999873
21
-67.7309699999999992
0
LINE
8
BLACK
6
CONTINUOUS
10
139.2456709999999873
20
-67.7309699999999992
11
139.1500000000000057
21
-67.75
0
LINE
8
BLACK
6
CONTINUOUS
10
139.1500000000000057
20
-67.75
11
138.0499999999999829
21
-67.75
0
LINE
8
BLACK
6
CONTINUOUS
10
138.0499999999999829
20
-67.75
11
137.9543290000000013
21
-67.7309699999999992
0
LINE
8
BLACK
6
CONTINUOUS
10
137.9543290000000013
20
-67.7309699999999992
11
137.8732229999999959
21
-67.6767770000000013
0
LINE
8
BLACK
6
CONTINUOUS
10
137.8732229999999959
20
-67.6767770000000013
11
137.8190299999999979
21
-67.5956709999999958
0
LINE
8
BLACK
6
CONTINUOUS
10
137.8190299999999979
20
-67.5956709999999958
11
137.7999999999999829
21
-67.5
0
LINE
8
BLACK
6
CONTINUOUS
10
137.7999999999999829
20
-67.5
11
137.7999999999999829
21
-65.
0
LINE
8
BLACK
6
CONTINUOUS
10
137.7999999999999829
20
-65.
11
137.8190299999999979
21
-64.9043290000000042
0
LINE
8
BLACK
6
CONTINUOUS
10
137.8190299999999979
20
-64.9043290000000042
11
137.8732229999999959
21
-64.8232229999999987
0
LINE
8
BLACK
6
CONTINUOUS
10
137.8732229999999959
20
-64.8232229999999987
11
137.9543290000000013
21
-64.7690300000000008
0
LINE
8
BLACK
6
CONTINUOUS
10
137.9543290000000013
20
-64.7690300000000008
11
138.0499999999999829
21
-64.75
0
LINE
8
BLACK
6
CONTINUOUS
10
138.0499999999999829
20
-64.75
11
139.1500000000000057
21
-64.75
0
LINE
8
BLACK
6
CONTINUOUS
10
139.1500000000000057
20
-64.75
11
139.2456709999999873
21
-64.7690300000000008
0
LINE
8
BLACK
6
CONTINUOUS
10
150.0456709999999987
20
-64.7690300000000008
11
150.1267770000000041
21
-64.8232229999999987
0
LINE
8
BLACK
6
CONTINUOUS
10
150.1267770000000041
20
-64.8232229999999987
11
150.1809700000000021
21
-64.9043290000000042
0
LINE
8
BLACK
6
CONTINUOUS
10
150.1809700000000021
20
-64.9043290000000042
11
150.1999999999999886
21
-65.
0
LINE
8
BLACK
6
CONTINUOUS
10
150.1999999999999886
20
-65.
11
150.1999999999999886
21
-67.5
0
LINE
8
BLACK
6
CONTINUOUS
10
150.1999999999999886
20
-67.5
11
150.1809700000000021
21
-67.5956709999999958
0
LINE
8
BLACK
6
CONTINUOUS
10
150.1809700000000021
20
-67.5956709999999958
11
150.1267770000000041
21
-67.6767770000000013
0
LINE
8
BLACK
6
CONTINUOUS
10
150.1267770000000041
20
-67.6767770000000013
11
150.0456709999999987
21
-67.7309699999999992
0
LINE
8
BLACK
6
CONTINUOUS
10
150.0456709999999987
20
-67.7309699999999992
11
149.9499999999999886
21
-67.75
0
LINE
8
BLACK
6
CONTINUOUS
10
149.9499999999999886
20
-67.75
11
148.8499999999999943
21
-67.75
0
LINE
8
BLACK
6
CONTINUOUS
10
148.8499999999999943
20
-67.75
11
148.7543289999999843
21
-67.7309699999999992
0
LINE
8
BLACK
6
CONTINUOUS
10
148.7543289999999843
20
-67.7309699999999992
11
148.6732230000000072
21
-67.6767770000000013
0
LINE
8
BLACK
6
CONTINUOUS
10
148.6732230000000072
20
-67.6767770000000013
11
148.6190299999999809
21
-67.5956709999999958
0
LINE
8
BLACK
6
CONTINUOUS
10
148.6190299999999809
20
-67.5956709999999958
11
148.5999999999999943
21
-67.5
0
LINE
8
BLACK
6
CONTINUOUS
10
148.5999999999999943
20
-67.5
11
148.5999999999999943
21
-65.
0
LINE
8
BLACK
6
CONTINUOUS
10
148.5999999999999943
20
-65.
11
148.6190299999999809
21
-64.9043290000000042
0
LINE
8
BLACK
6
CONTINUOUS
10
148.6190299999999809
20
-64.9043290000000042
11
148.6732230000000072
21
-64.8232229999999987
0
LINE
8
BLACK
6
CONTINUOUS
10
148.6732230000000072
20
-64.8232229999999987
11
148.7543289999999843
21
-64.7690300000000008
0
LINE
8
BLACK
6
CONTINUOUS
10
148.7543289999999843
20
-64.7690300000000008
11
148.8499999999999943
21
-64.75
0
LINE
8
BLACK
6
CONTINUOUS
10
148.8499999999999943
20
-64.75
11
149.9499999999999886
21
-64.75
0
LINE
8
BLACK
6
CONTINUOUS
10
149.9499999999999886
20
-64.75
11
150.0456709999999987
21
-64.7690300000000008
0
LINE
8
BLACK
6
CONTINUOUS
10
105.3456709999999958
20
-55.0190300000000008
11
105.4267770000000013
21
-55.0732229999999987
0
LINE
8
BLACK
6
CONTINUOUS
10
105.4267770000000013
20
-55.0732229999999987
11
105.4809699999999992
21
-55.1543289999999971
0
LINE
8
BLACK
6
CONTINUOUS
10
105.4809699999999992
20
-55.1543289999999971
11
105.5
21
-55.25
0
LINE
8
BLACK
6
CONTINUOUS
10
105.5
20
-55.25
11
105.5
21
-60.25
0
LINE
8
BLACK
6
CONTINUOUS
10
105.5
20
-60.25
11
105.4809699999999992
21
-60.3456709999999958
0
LINE
8
BLACK
6
CONTINUOUS
10
105.4809699999999992
20
-60.3456709999999958
11
105.4267770000000013
21
-60.4267769999999942
0
LINE
8
BLACK
6
CONTINUOUS
10
105.4267770000000013
20
-60.4267769999999942
11
105.3456709999999958
21
-60.4809699999999992
0
LINE
8
BLACK
6
CONTINUOUS
10
105.3456709999999958
20
-60.4809699999999992
11
105.25
21
-60.5
0
LINE
8
BLACK
6
CONTINUOUS
10
105.25
20
-60.5
11
104.75
21
-60.5
0
LINE
8
BLACK
6
CONTINUOUS
10
104.75
20
-60.5
11
104.6543289999999899
21
-60.4809699999999992
0
LINE
8
BLACK
6
CONTINUOUS
10
104.6543289999999899
20
-60.4809699999999992
11
104.5732229999999987
21
-60.4267769999999942
0
LINE
8
BLACK
6
CONTINUOUS
10
104.5732229999999987
20
-60.4267769999999942
11
104.5190300000000008
21
-60.3456709999999958
0
LINE
8
BLACK
6
CONTINUOUS
10
104.5190300000000008
20
-60.3456709999999958
11
104.5
21
-60.25
0
LINE
8
BLACK
6
CONTINUOUS
10
104.5
20
-60.25
11
104.5
21
-55.25
0
LINE
8
BLACK
6
CONTINUOUS
10
104.5
20
-55.25
11
104.5190300000000008
21
-55.1543289999999971
0
LINE
8
BLACK
6
CONTINUOUS
10
104.5190300000000008
20
-55.1543289999999971
11
104.5732229999999987
21
-55.0732229999999987
0
LINE
8
BLACK
6
CONTINUOUS
10
104.5732229999999987
20
-55.0732229999999987
11
104.6543289999999899
21
-55.0190300000000008
0
LINE
8
BLACK
6
CONTINUOUS
10
104.6543289999999899
20
-55.0190300000000008
11
104.75
21
-55.
0
LINE
8
BLACK
6
CONTINUOUS
10
104.75
20
-55.
11
105.25
21
-55.
0
LINE
8
BLACK
6
CONTINUOUS
10
105.25
20
-55.
11
105.3456709999999958
21
-55.0190300000000008
0
LINE
8
BLACK
6
CONTINUOUS
10
107.3456709999999958
20
-55.0190300000000008
11
107.4267770000000013
21
-55.0732229999999987
0
LINE
8
BLACK
6
CONTINUOUS
10
107.4267770000000013
20
-55.0732229999999987
11
107.4809699999999992
21
-55.1543289999999971
0
LINE
8
BLACK
6
CONTINUOUS
10
107.4809699999999992
20
-55.1543289999999971
11
107.5
21
-55.25
0
LINE
8
BLACK
6
CONTINUOUS
10
107.5
20
-55.25
11
107.5
21
-60.25
0
LINE
8
BLACK
6
CONTINUOUS
10
107.5
20
-60.25
11
107.4809699999999992
21
-60.3456709999999958
0
LINE
8
BLACK
6
CONTINUOUS
10
107.4809699999999992
20
-60.3456709999999958
11
107.4267770000000013
21
-60.4267769999999942
0
LINE
8
BLACK
6
CONTINUOUS
10
107.4267770000000013
20
-60.4267769999999942
11
107.3456709999999958
21
-60.4809699999999992
0
LINE
8
BLACK
6
CONTINUOUS
10
107.3456709999999958
20
-60.4809699999999992
11
107.25
21
-60.5
0
LINE
8
BLACK
6
CONTINUOUS
10
107.25
20
-60.5
11
106.75
21
-60.5
0
LINE
8
BLACK
6
CONTINUOUS
10
106.75
20
-60.5
11
106.6543289999999899
21
-60.4809699999999992
0
LINE
8
BLACK
6
CONTINUOUS
10
106.6543289999999899
20
-60.4809699999999992
11
106.5732229999999987
21
-60.4267769999999942
0
LINE
8
BLACK
6
CONTINUOUS
10
106.5732229999999987
20
-60.4267769999999942
11
106.5190300000000008
21
-60.3456709999999958
0
LINE
8
BLACK
6
CONTINUOUS
10
106.5190300000000008
20
-60.3456709999999958
11
106.5
21
-60.25
0
LINE
8
BLACK
6
CONTINUOUS
10
106.5
20
-60.25
11
106.5
21
-55.25
0
LINE
8
BLACK
6
CONTINUOUS
10
106.5
20
-55.25
11
106.5190300000000008
21
-55.1543289999999971
0
LINE
8
BLACK
6
CONTINUOUS
10
106.5190300000000008
20
-55.1543289999999971
11
106.5732229999999987
21
-55.0732229999999987
0
LINE
8
BLACK
6
CONTINUOUS
10
106.5732229999999987
20
-55.0732229999999987
11
106.6543289999999899
21
-55.0190300000000008
0
LINE
8
BLACK
6
CONTINUOUS
10
106.6543289999999899
20
-55.0190300000000008
11
106.75
21
-55.
0
LINE
8
BLACK
6
CONTINUOUS
10
106.75
20
-55.
11
107.25
21
-55.
0
LINE
8
BLACK
6
CONTINUOUS
10
107.25
20
-55.
11
107.3456709999999958
21
-55.0190300000000008
0
LINE
8
BLACK
6
CONTINUOUS
10
109.3456709999999958
20
-55.0190300000000008
11
109.4267770000000013
21
-55.0732229999999987
0
LINE
8
BLACK
6
CONTINUOUS
10
109.4267770000000013
20
-55.0732229999999987
11
109.4809699999999992
21
-55.1543289999999971
0
LINE
8
BLACK
6
CONTINUOUS
10
109.4809699999999992
20
-55.1543289999999971
11
109.5
21
-55.25
0
LINE
8
BLACK
6
CONTINUOUS
10
109.5
20
-55.25
11
109.5
21
-60.25
0
LINE
8
BLACK
6
CONTINUOUS
10
109.5
20
-60.25
11
109.4809699999999992
21
-60.3456709999999958
0
LINE
8
BLACK
6
CONTINUOUS
10
109.4809699999999992
20
-60.3456709999999958
11
109.4267770000000013
21
-60.4267769999999942
0
LINE
8
BLACK
6
CONTINUOUS
10
109.4267770000000013
20
-60.4267769999999942
11
109.3456709999999958
21
-60.4809699999999992
0
LINE
8
BLACK
6
CONTINUOUS
10
109.3456709999999958
20
-60.4809699999999992
11
109.25
21
-60.5
0
LINE
8
BLACK
6
CONTINUOUS
10
109.25
20
-60.5
11
108.75
21
-60.5
0
LINE
8
BLACK
6
CONTINUOUS
10
108.75
20
-60.5
11
108.6543289999999899
21
-60.4809699999999992
0
LINE
8
BLACK
6
CONTINUOUS
10
108.6543289999999899
20
-60.4809699999999992
11
108.5732229999999987
21
-60.4267769999999942
0
LINE
8
BLACK
6
CONTINUOUS
10
108.5732229999999987
20
-60.4267769999999942
11
108.5190300000000008
21
-60.3456709999999958
0
LINE
8
BLACK
6
CONTINUOUS
10
108.5190300000000008
20
-60.3456709999999958
11
108.5
21
-60.25
0
LINE
8
BLACK
6
CONTINUOUS
10
108.5
20
-60.25
11
108.5
21
-55.25
0
LINE
8
BLACK
6
CONTINUOUS
10
108.5
20
-55.25
11
108.5190300000000008
21
-55.1543289999999971
0
LINE
8
BLACK
6
CONTINUOUS
10
108.5190300000000008
20
-55.1543289999999971
11
108.5732229999999987
21
-55.0732229999999987
0
LINE
8
BLACK
6
CONTINUOUS
10
108.5732229999999987
20
-55.0732229999999987
11
108.6543289999999899
21
-55.0190300000000008
0
LINE
8
BLACK
6
CONTINUOUS
10
108.6543289999999899
20
-55.0190300000000008
11
108.75
21
-55.
0
LINE
8
BLACK
6
CONTINUOUS
10
108.75
20
-55.
11
109.25
21
-55.
0
LINE
8
BLACK
6
CONTINUOUS
10
109.25
20
-55.
11
109.3456709999999958
21
-55.0190300000000008
0
LINE
8
BLACK
6
CONTINUOUS
10
103.2456710000000015
20
-54.0190300000000008
11
103.3267769999999928
21
-54.0732229999999987
0
LINE
8
BLACK
6
CONTINUOUS
10
103.3267769999999928
20
-54.0732229999999987
11
103.3809699999999907
21
-54.1543289999999971
0
LINE
8
BLACK
6
CONTINUOUS
10
103.3809699999999907
20
-54.1543289999999971
11
103.3999999999999915
21
-54.25
0
LINE
8
BLACK
6
CONTINUOUS
10
103.3999999999999915
20
-54.25
11
103.3999999999999915
21
-56.75
0
LINE
8
BLACK
6
CONTINUOUS
10
103.3999999999999915
20
-56.75
11
103.3809699999999907
21
-56.8456709999999958
0
LINE
8
BLACK
6
CONTINUOUS
10
103.3809699999999907
20
-56.8456709999999958
11
103.3267769999999928
21
-56.9267769999999942
0
LINE
8
BLACK
6
CONTINUOUS
10
103.3267769999999928
20
-56.9267769999999942
11
103.2456710000000015
21
-56.9809699999999992
0
LINE
8
BLACK
6
CONTINUOUS
10
103.2456710000000015
20
-56.9809699999999992
11
103.1499999999999915
21
-57.
0
LINE
8
BLACK
6
CONTINUOUS
10
103.1499999999999915
20
-57.
11
102.0499999999999972
21
-57.
0
LINE
8
BLACK
6
CONTINUOUS
10
102.0499999999999972
20
-57.
11
101.9543290000000013
21
-56.9809699999999992
0
LINE
8
BLACK
6
CONTINUOUS
10
101.9543290000000013
20
-56.9809699999999992
11
101.8732229999999959
21
-56.9267769999999942
0
LINE
8
BLACK
6
CONTINUOUS
10
101.8732229999999959
20
-56.9267769999999942
11
101.8190299999999979
21
-56.8456709999999958
0
LINE
8
BLACK
6
CONTINUOUS
10
101.8190299999999979
20
-56.8456709999999958
11
101.7999999999999972
21
-56.75
0
LINE
8
BLACK
6
CONTINUOUS
10
101.7999999999999972
20
-56.75
11
101.7999999999999972
21
-54.25
0
LINE
8
BLACK
6
CONTINUOUS
10
101.7999999999999972
20
-54.25
11
101.8190299999999979
21
-54.1543289999999971
0
LINE
8
BLACK
6
CONTINUOUS
10
101.8190299999999979
20
-54.1543289999999971
11
101.8732229999999959
21
-54.0732229999999987
0
LINE
8
BLACK
6
CONTINUOUS
10
101.8732229999999959
20
-54.0732229999999987
11
101.9543290000000013
21
-54.0190300000000008
0
LINE
8
BLACK
6
CONTINUOUS
10
101.9543290000000013
20
-54.0190300000000008
11
102.0499999999999972
21
-54.
0
LINE
8
BLACK
6
CONTINUOUS
10
102.0499999999999972
20
-54.
11
103.1499999999999915
21
-54.
0
LINE
8
BLACK
6
CONTINUOUS
10
103.1499999999999915
20
-54.
11
103.2456710000000015
21
-54.0190300000000008
0
LINE
8
BLACK
6
CONTINUOUS
10
112.0456709999999987
20
-54.0190300000000008
11
112.1267769999999899
21
-54.0732229999999987
0
LINE
8
BLACK
6
CONTINUOUS
10
112.1267769999999899
20
-54.0732229999999987
11
112.1809699999999879
21
-54.1543289999999971
0
LINE
8
BLACK
6
CONTINUOUS
10
112.1809699999999879
20
-54.1543289999999971
11
112.1999999999999886
21
-54.25
0
LINE
8
BLACK
6
CONTINUOUS
10
112.1999999999999886
20
-54.25
11
112.1999999999999886
21
-56.75
0
LINE
8
BLACK
6
CONTINUOUS
10
112.1999999999999886
20
-56.75
11
112.1809699999999879
21
-56.8456709999999958
0
LINE
8
BLACK
6
CONTINUOUS
10
112.1809699999999879
20
-56.8456709999999958
11
112.1267769999999899
21
-56.9267769999999942
0
LINE
8
BLACK
6
CONTINUOUS
10
112.1267769999999899
20
-56.9267769999999942
11
112.0456709999999987
21
-56.9809699999999992
0
LINE
8
BLACK
6
CONTINUOUS
10
112.0456709999999987
20
-56.9809699999999992
11
111.9499999999999886
21
-57.
0
LINE
8
BLACK
6
CONTINUOUS
10
111.9499999999999886
20
-57.
11
110.8499999999999943
21
-57.
0
LINE
8
BLACK
6
CONTINUOUS
10
110.8499999999999943
20
-57.
11
110.7543289999999985
21
-56.9809699999999992
0
LINE
8
BLACK
6
CONTINUOUS
10
110.7543289999999985
20
-56.9809699999999992
11
110.673222999999993
21
-56.9267769999999942
0
LINE
8
BLACK
6
CONTINUOUS
10
110.673222999999993
20
-56.9267769999999942
11
110.6190299999999951
21
-56.8456709999999958
0
LINE
8
BLACK
6
CONTINUOUS
10
110.6190299999999951
20
-56.8456709999999958
11
110.5999999999999943
21
-56.75
0
LINE
8
BLACK
6
CONTINUOUS
10
110.5999999999999943
20
-56.75
11
110.5999999999999943
21
-54.25
0
LINE
8
BLACK
6
CONTINUOUS
10
110.5999999999999943
20
-54.25
11
110.6190299999999951
21
-54.1543289999999971
0
LINE
8
BLACK
6
CONTINUOUS
10
110.6190299999999951
20
-54.1543289999999971
11
110.673222999999993
21
-54.0732229999999987
0
LINE
8
BLACK
6
CONTINUOUS
10
110.673222999999993
20
-54.0732229999999987
11
110.7543289999999985
21
-54.0190300000000008
0
LINE
8
BLACK
6
CONTINUOUS
10
110.7543289999999985
20
-54.0190300000000008
11
110.8499999999999943
21
-54.
0
LINE
8
BLACK
6
CONTINUOUS
10
110.8499999999999943
20
-54.
11
111.9499999999999886
21
-54.
0
LINE
8
BLACK
6
CONTINUOUS
10
111.9499999999999886
20
-54.
11
112.0456709999999987
21
-54.0190300000000008
0
LINE
8
BLACK
6
CONTINUOUS
10
105.3456709999999958
20
-46.5190300000000008
11
105.4267770000000013
21
-46.5732229999999987
0
LINE
8
BLACK
6
CONTINUOUS
10
105.4267770000000013
20
-46.5732229999999987
11
105.4809699999999992
21
-46.6543289999999971
0
LINE
8
BLACK
6
CONTINUOUS
10
105.4809699999999992
20
-46.6543289999999971
11
105.5
21
-46.75
0
LINE
8
BLACK
6
CONTINUOUS
10
105.5
20
-46.75
11
105.5
21
-51.75
0
LINE
8
BLACK
6
CONTINUOUS
10
105.5
20
-51.75
11
105.4809699999999992
21
-51.8456709999999958
0
LINE
8
BLACK
6
CONTINUOUS
10
105.4809699999999992
20
-51.8456709999999958
11
105.4267770000000013
21
-51.9267769999999942
0
LINE
8
BLACK
6
CONTINUOUS
10
105.4267770000000013
20
-51.9267769999999942
11
105.3456709999999958
21
-51.9809699999999992
0
LINE
8
BLACK
6
CONTINUOUS
10
105.3456709999999958
20
-51.9809699999999992
11
105.25
21
-52.
0
LINE
8
BLACK
6
CONTINUOUS
10
105.25
20
-52.
11
104.75
21
-52.
0
LINE
8
BLACK
6
CONTINUOUS
10
104.75
20
-52.
11
104.6543289999999899
21
-51.9809699999999992
0
LINE
8
BLACK
6
CONTINUOUS
10
104.6543289999999899
20
-51.9809699999999992
11
104.5732229999999987
21
-51.9267769999999942
0
LINE
8
BLACK
6
CONTINUOUS
10
104.5732229999999987
20
-51.9267769999999942
11
104.5190300000000008
21
-51.8456709999999958
0
LINE
8
BLACK
6
CONTINUOUS
10
104.5190300000000008
20
-51.8456709999999958
11
104.5
21
-51.75
0
LINE
8
BLACK
6
CONTINUOUS
10
104.5
20
-51.75
11
104.5
21
-46.75
0
LINE
8
BLACK
6
CONTINUOUS
10
104.5
20
-46.75
11
104.5190300000000008
21
-46.6543289999999971
0
LINE
8
BLACK
6
CONTINUOUS
10
104.5190300000000008
20
-46.6543289999999971
11
104.5732229999999987
21
-46.5732229999999987
0
LINE
8
BLACK
6
CONTINUOUS
10
104.5732229999999987
20
-46.5732229999999987
11
104.6543289999999899
21
-46.5190300000000008
0
LINE
8
BLACK
6
CONTINUOUS
10
104.6543289999999899
20
-46.5190300000000008
11
104.75
21
-46.5
0
LINE
8
BLACK
6
CONTINUOUS
10
104.75
20
-46.5
11
105.25
21
-46.5
0
LINE
8
BLACK
6
CONTINUOUS
10
105.25
20
-46.5
11
105.3456709999999958
21
-46.5190300000000008
0
LINE
8
BLACK
6
CONTINUOUS
10
107.3456709999999958
20
-46.5190300000000008
11
107.4267770000000013
21
-46.5732229999999987
0
LINE
8
BLACK
6
CONTINUOUS
10
107.4267770000000013
20
-46.5732229999999987
11
107.4809699999999992
21
-46.6543289999999971
0
LINE
8
BLACK
6
CONTINUOUS
10
107.4809699999999992
20
-46.6543289999999971
11
107.5
21
-46.75
0
LINE
8
BLACK
6
CONTINUOUS
10
107.5
20
-46.75
11
107.5
21
-51.75
0
LINE
8
BLACK
6
CONTINUOUS
10
107.5
20
-51.75
11
107.4809699999999992
21
-51.8456709999999958
0
LINE
8
BLACK
6
CONTINUOUS
10
107.4809699999999992
20
-51.8456709999999958
11
107.4267770000000013
21
-51.9267769999999942
0
LINE
8
BLACK
6
CONTINUOUS
10
107.4267770000000013
20
-51.9267769999999942
11
107.3456709999999958
21
-51.9809699999999992
0
LINE
8
BLACK
6
CONTINUOUS
10
107.3456709999999958
20
-51.9809699999999992
11
107.25
21
-52.
0
LINE
8
BLACK
6
CONTINUOUS
10
107.25
20
-52.
11
106.75
21
-52.
0
LINE
8
BLACK
6
CONTINUOUS
10
106.75
20
-52.
11
106.6543289999999899
21
-51.9809699999999992
0
LINE
8
BLACK
6
CONTINUOUS
10
106.6543289999999899
20
-51.9809699999999992
11
106.5732229999999987
21
-51.9267769999999942
0
LINE
8
BLACK
6
CONTINUOUS
10
106.5732229999999987
20
-51.9267769999999942
11
106.5190300000000008
21
-51.8456709999999958
0
LINE
8
BLACK
6
CONTINUOUS
10
106.5190300000000008
20
-51.8456709999999958
11
106.5
21
-51.75
0
LINE
8
BLACK
6
CONTINUOUS
10
106.5
20
-51.75
11
106.5
21
-46.75
0
LINE
8
BLACK
6
CONTINUOUS
10
106.5
20
-46.75
11
106.5190300000000008
21
-46.6543289999999971
0
LINE
8
BLACK
6
CONTINUOUS
10
106.5190300000000008
20
-46.6543289999999971
11
106.5732229999999987
21
-46.5732229999999987
0
LINE
8
BLACK
6
CONTINUOUS
10
106.5732229999999987
20
-46.5732229999999987
11
106.6543289999999899
21
-46.5190300000000008
0
LINE
8
BLACK
6
CONTINUOUS
10
106.6543289999999899
20
-46.5190300000000008
11
106.75
21
-46.5
0
LINE
8
BLACK
6
CONTINUOUS
10
106.75
20
-46.5
11
107.25
21
-46.5
0
LINE
8
BLACK
6
CONTINUOUS
10
107.25
20
-46.5
11
107.3456709999999958
21
-46.5190300000000008
0
LINE
8
BLACK
6
CONTINUOUS
10
109.3456709999999958
20
-46.5190300000000008
11
109.4267770000000013
21
-46.5732229999999987
0
LINE
8
BLACK
6
CONTINUOUS
10
109.4267770000000013
20
-46.5732229999999987
11
109.4809699999999992
21
-46.6543289999999971
0
LINE
8
BLACK
6
CONTINUOUS
10
109.4809699999999992
20
-46.6543289999999971
11
109.5
21
-46.75
0
LINE
8
BLACK
6
CONTINUOUS
10
109.5
20
-46.75
11
109.5
21
-51.75
0
LINE
8
BLACK
6
CONTINUOUS
10
109.5
20
-51.75
11
109.4809699999999992
21
-51.8456709999999958
0
LINE
8
BLACK
6
CONTINUOUS
10
109.4809699999999992
20
-51.8456709999999958
11
109.4267770000000013
21
-51.9267769999999942
0
LINE
8
BLACK
6
CONTINUOUS
10
109.4267770000000013
20
-51.9267769999999942
11
109.3456709999999958
21
-51.9809699999999992
0
LINE
8
BLACK
6
CONTINUOUS
10
109.3456709999999958
20
-51.9809699999999992
11
109.25
21
-52.
0
LINE
8
BLACK
6
CONTINUOUS
10
109.25
20
-52.
11
108.75
21
-52.
0
LINE
8
BLACK
6
CONTINUOUS
10
108.75
20
-52.
11
108.6543289999999899
21
-51.9809699999999992
0
LINE
8
BLACK
6
CONTINUOUS
10
108.6543289999999899
20
-51.9809699999999992
11
108.5732229999999987
21
-51.9267769999999942
0
LINE
8
BLACK
6
CONTINUOUS
10
108.5732229999999987
20
-51.9267769999999942
11
108.5190300000000008
21
-51.8456709999999958
0
LINE
8
BLACK
6
CONTINUOUS
10
108.5190300000000008
20
-51.8456709999999958
11
108.5
21
-51.75
0
LINE
8
BLACK
6
CONTINUOUS
10
108.5
20
-51.75
11
108.5
21
-46.75
0
LINE
8
BLACK
6
CONTINUOUS
10
108.5
20
-46.75
11
108.5190300000000008
21
-46.6543289999999971
0
LINE
8
BLACK
6
CONTINUOUS
10
108.5190300000000008
20
-46.6543289999999971
11
108.5732229999999987
21
-46.5732229999999987
0
LINE
8
BLACK
6
CONTINUOUS
10
108.5732229999999987
20
-46.5732229999999987
11
108.6543289999999899
21
-46.5190300000000008
0
LINE
8
BLACK
6
CONTINUOUS
10
108.6543289999999899
20
-46.5190300000000008
11
108.75
21
-46.5
0
LINE
8
BLACK
6
CONTINUOUS
10
108.75
20
-46.5
11
109.25
21
-46.5
0
LINE
8
BLACK
6
CONTINUOUS
10
109.25
20
-46.5
11
109.3456709999999958
21
-46.5190300000000008
0
LINE
8
BLACK
6
CONTINUOUS
10
103.2456710000000015
20
-45.5190300000000008
11
103.3267769999999928
21
-45.5732229999999987
0
LINE
8
BLACK
6
CONTINUOUS
10
103.3267769999999928
20
-45.5732229999999987
11
103.3809699999999907
21
-45.6543289999999971
0
LINE
8
BLACK
6
CONTINUOUS
10
103.3809699999999907
20
-45.6543289999999971
11
103.3999999999999915
21
-45.75
0
LINE
8
BLACK
6
CONTINUOUS
10
103.3999999999999915
20
-45.75
11
103.3999999999999915
21
-48.25
0
LINE
8
BLACK
6
CONTINUOUS
10
103.3999999999999915
20
-48.25
11
103.3809699999999907
21
-48.3456709999999958
0
LINE
8
BLACK
6
CONTINUOUS
10
103.3809699999999907
20
-48.3456709999999958
11
103.3267769999999928
21
-48.4267770000000013
0
LINE
8
BLACK
6
CONTINUOUS
10
103.3267769999999928
20
-48.4267770000000013
11
103.2456710000000015
21
-48.4809699999999992
0
LINE
8
BLACK
6
CONTINUOUS
10
103.2456710000000015
20
-48.4809699999999992
11
103.1499999999999915
21
-48.5
0
LINE
8
BLACK
6
CONTINUOUS
10
103.1499999999999915
20
-48.5
11
102.0499999999999972
21
-48.5
0
LINE
8
BLACK
6
CONTINUOUS
10
102.0499999999999972
20
-48.5
11
101.9543290000000013
21
-48.4809699999999992
0
LINE
8
BLACK
6
CONTINUOUS
10
101.9543290000000013
20
-48.4809699999999992
11
101.8732229999999959
21
-48.4267770000000013
0
LINE
8
BLACK
6
CONTINUOUS
10
101.8732229999999959
20
-48.4267770000000013
11
101.8190299999999979
21
-48.3456709999999958
0
LINE
8
BLACK
6
CONTINUOUS
10
101.8190299999999979
20
-48.3456709999999958
11
101.7999999999999972
21
-48.25
0
LINE
8
BLACK
6
CONTINUOUS
10
101.7999999999999972
20
-48.25
11
101.7999999999999972
21
-45.75
0
LINE
8
BLACK
6
CONTINUOUS
10
101.7999999999999972
20
-45.75
11
101.8190299999999979
21
-45.6543289999999971
0
LINE
8
BLACK
6
CONTINUOUS
10
101.8190299999999979
20
-45.6543289999999971
11
101.8732229999999959
21
-45.5732229999999987
0
LINE
8
BLACK
6
CONTINUOUS
10
101.8732229999999959
20
-45.5732229999999987
11
101.9543290000000013
21
-45.5190300000000008
0
LINE
8
BLACK
6
CONTINUOUS
10
101.9543290000000013
20
-45.5190300000000008
11
102.0499999999999972
21
-45.5
0
LINE
8
BLACK
6
CONTINUOUS
10
102.0499999999999972
20
-45.5
11
103.1499999999999915
21
-45.5
0
LINE
8
BLACK
6
CONTINUOUS
10
103.1499999999999915
20
-45.5
11
103.2456710000000015
21
-45.5190300000000008
0
LINE
8
BLACK
6
CONTINUOUS
10
112.0456709999999987
20
-45.5190300000000008
11
112.1267769999999899
21
-45.5732229999999987
0
LINE
8
BLACK
6
CONTINUOUS
10
112.1267769999999899
20
-45.5732229999999987
11
112.1809699999999879
21
-45.6543289999999971
0
LINE
8
BLACK
6
CONTINUOUS
10
112.1809699999999879
20
-45.6543289999999971
11
112.1999999999999886
21
-45.75
0
LINE
8
BLACK
6
CONTINUOUS
10
112.1999999999999886
20
-45.75
11
112.1999999999999886
21
-48.25
0
LINE
8
BLACK
6
CONTINUOUS
10
112.1999999999999886
20
-48.25
11
112.1809699999999879
21
-48.3456709999999958
0
LINE
8
BLACK
6
CONTINUOUS
10
112.1809699999999879
20
-48.3456709999999958
11
112.1267769999999899
21
-48.4267770000000013
0
LINE
8
BLACK
6
CONTINUOUS
10
112.1267769999999899
20
-48.4267770000000013
11
112.0456709999999987
21
-48.4809699999999992
0
LINE
8
BLACK
6
CONTINUOUS
10
112.0456709999999987
20
-48.4809699999999992
11
111.9499999999999886
21
-48.5
0
LINE
8
BLACK
6
CONTINUOUS
10
111.9499999999999886
20
-48.5
11
110.8499999999999943
21
-48.5
0
LINE
8
BLACK
6
CONTINUOUS
10
110.8499999999999943
20
-48.5
11
110.7543289999999985
21
-48.4809699999999992
0
LINE
8
BLACK
6
CONTINUOUS
10
110.7543289999999985
20
-48.4809699999999992
11
110.673222999999993
21
-48.4267770000000013
0
LINE
8
BLACK
6
CONTINUOUS
10
110.673222999999993
20
-48.4267770000000013
11
110.6190299999999951
21
-48.3456709999999958
0
LINE
8
BLACK
6
CONTINUOUS
10
110.6190299999999951
20
-48.3456709999999958
11
110.5999999999999943
21
-48.25
0
LINE
8
BLACK
6
CONTINUOUS
10
110.5999999999999943
20
-48.25
11
110.5999999999999943
21
-45.75
0
LINE
8
BLACK
6
CONTINUOUS
10
110.5999999999999943
20
-45.75
11
110.6190299999999951
21
-45.6543289999999971
0
LINE
8
BLACK
6
CONTINUOUS
10
110.6190299999999951
20
-45.6543289999999971
11
110.673222999999993
21
-45.5732229999999987
0
LINE
8
BLACK
6
CONTINUOUS
10
110.673222999999993
20
-45.5732229999999987
11
110.7543289999999985
21
-45.5190300000000008
0
LINE
8
BLACK
6
CONTINUOUS
10
110.7543289999999985
20
-45.5190300000000008
11
110.8499999999999943
21
-45.5
0
LINE
8
BLACK
6
CONTINUOUS
10
110.8499999999999943
20
-45.5
11
111.9499999999999886
21
-45.5
0
LINE
8
BLACK
6
CONTINUOUS
10
111.9499999999999886
20
-45.5
11
112.0456709999999987
21
-45.5190300000000008
  0
ENDSEC
  0
EOF
