<?xml version="1.0" standalone="no"?>
 <!DOCTYPE svg PUBLIC "-//W3C//DTD SVG 1.1//EN" 
 "http://www.w3.org/Graphics/SVG/1.1/DTD/svg11.dtd"> 
<svg
  xmlns:svg="http://www.w3.org/2000/svg"
  xmlns="http://www.w3.org/2000/svg"
  xmlns:xlink="http://www.w3.org/1999/xlink"
  version="1.1"
  width="297.0022mm" height="210.0072mm" viewBox="0.0000 0.0000 297.0022 210.0072">
<title>SVG Image created as pedalboard-display-B_Courtyard.svg date 2024/10/06 14:15:56 </title>
  <desc>Image generated by PCBNEW </desc>
<g style="fill:#000000; fill-opacity:1.0000;stroke:#000000; stroke-opacity:1.0000;
stroke-linecap:round; stroke-linejoin:round;"
 transform="translate(0 0) scale(1 1)">
</g>
<g style="fill:none; 
stroke:#000000; stroke-width:0.0500; stroke-opacity:1; 
stroke-linecap:round; stroke-linejoin:round;">
<path d="M233.1142 74.0728
L221.9142 74.0728
" />
<path d="M233.1142 77.6728
L233.1142 74.0728
" />
<path d="M221.9142 74.0728
L221.9142 77.6728
" />
<path d="M221.9142 77.6728
L233.1142 77.6728
" />
<path d="M158.1142 74.0728
L146.9142 74.0728
" />
<path d="M158.1142 77.6728
L158.1142 74.0728
" />
<path d="M146.9142 74.0728
L146.9142 77.6728
" />
<path d="M146.9142 77.6728
L158.1142 77.6728
" />
<path d="M159.7022 63.2500
L159.7022 71.7500
" />
<path d="M159.7022 71.7500
L146.3022 71.7500
" />
<path d="M146.3022 63.2500
L159.7022 63.2500
" />
<path d="M146.3022 71.7500
L146.3022 63.2500
" />
<path d="M277.0522 105.3000
L277.0522 116.7000
" />
<path d="M277.0522 116.7000
L268.5522 116.7000
" />
<path d="M268.5522 105.3000
L277.0522 105.3000
" />
<path d="M268.5522 116.7000
L268.5522 105.3000
" />
<path d="M195.7022 30.2500
L195.7022 38.7500
" />
<path d="M195.7022 38.7500
L184.3022 38.7500
" />
<path d="M184.3022 30.2500
L195.7022 30.2500
" />
<path d="M184.3022 38.7500
L184.3022 30.2500
" />
</g> 
</svg>
