M48
INCH,TZ
T1C0.0157
%
G90
G05
T1
X8346Y-44567
X8690Y-28817
X8690Y-49290
X8740Y-42913
X8978Y-26800
X8978Y-47272
X9449Y-30709
X9449Y-51181
X9921Y-42913
X10236Y-25197
X10236Y-45669
X11052Y-31967
X11052Y-52439
X11063Y-42913
X12127Y-24438
X12127Y-44910
X12795Y-25394
X12795Y-45906
X13069Y-32255
X13069Y-52728
X13386Y-52126
X13543Y-25079
X13543Y-45551
X14145Y-24726
X14145Y-45198
X14961Y-31472
X14961Y-51945
X15748Y-25984
X15748Y-46457
X16307Y-29799
X16307Y-50272
X16516Y-27772
X16516Y-48244
X23650Y-15825
X23939Y-13808
X24409Y-17717
X25197Y-12205
X25591Y-29921
X25827Y-30433
X26013Y-18975
X26102Y-29921
X27088Y-11446
X27756Y-12402
X28030Y-19263
X28504Y-12087
X29106Y-11734
X29921Y-18480
X30709Y-12992
X31268Y-16807
X31476Y-14780
X37047Y-14173
X37303Y-13070
X38217Y-28817
X38217Y-49290
X38505Y-26800
X38505Y-47272
X38976Y-30709
X38976Y-51181
X39764Y-25197
X39764Y-45669
X40579Y-31967
X40579Y-52439
X41655Y-24438
X41655Y-44910
X42323Y-25394
X42323Y-45866
X42597Y-32255
X42597Y-52728
X42913Y-12795
X42913Y-13976
X42913Y-15157
X43071Y-25079
X43071Y-45551
X43673Y-24726
X43673Y-45198
X44488Y-31472
X44488Y-51945
X45276Y-25984
X45276Y-46457
X45787Y-29921
X45835Y-50272
X46043Y-27772
X46043Y-48244
X46043Y-28474
X46284Y-28999
X46850Y-14370
X53178Y-15825
X53466Y-13808
X53937Y-17717
X54724Y-12205
X54794Y-28434
X55086Y-28726
X55118Y-29921
X55394Y-30472
X55512Y-25787
X55512Y-26969
X55512Y-28150
X55540Y-18975
X55630Y-29921
X56616Y-11446
X57165Y-29291
X57283Y-12480
X57558Y-19263
X58031Y-12087
X58346Y-29173
X58633Y-11734
X59449Y-18480
X60236Y-12992
X60795Y-16807
X61004Y-14780
X67745Y-28817
X67745Y-49290
X68033Y-26800
X68033Y-47272
X68386Y-27402
X68504Y-30709
X68504Y-51181
X69291Y-25197
X69291Y-45669
X70107Y-31967
X70107Y-52439
X71183Y-24438
X71183Y-44910
X71850Y-25433
X71850Y-45984
X72124Y-32255
X72124Y-52728
X72402Y-24291
X72598Y-25079
X72598Y-45551
X73200Y-24726
X73200Y-45198
X74016Y-31472
X74016Y-51945
X74803Y-25984
X74803Y-46457
X75362Y-29799
X75362Y-50272
X75571Y-27772
X75571Y-48244
X75669Y-27217
M30
