G04 #@! TF.GenerationSoftware,KiCad,Pcbnew,8.0.4+1*
G04 #@! TF.CreationDate,2024-10-09T13:56:52+00:00*
G04 #@! TF.ProjectId,pedalboard-display,70656461-6c62-46f6-9172-642d64697370,0.0.0-RC1*
G04 #@! TF.SameCoordinates,Original*
G04 #@! TF.FileFunction,Soldermask,Bot*
G04 #@! TF.FilePolarity,Negative*
%FSLAX46Y46*%
G04 Gerber Fmt 4.6, Leading zero omitted, Abs format (unit mm)*
G04 Created by KiCad (PCBNEW 8.0.4+1) date 2024-10-09 13:56:52*
%MOMM*%
%LPD*%
G01*
G04 APERTURE LIST*
%ADD10C,2.500000*%
%ADD11C,3.400000*%
%ADD12R,1.700000X3.600000*%
%ADD13O,1.700000X3.500000*%
G04 APERTURE END LIST*
D10*
X170000000Y-133000000D03*
X170000000Y-28000000D03*
D11*
X54500000Y-75200000D03*
X54500000Y-127200000D03*
X84500000Y-75200000D03*
X84500000Y-127200000D03*
D12*
X73288000Y-75872800D03*
D13*
X70748000Y-75872800D03*
X68208000Y-75872800D03*
X65668000Y-75872800D03*
D10*
X44000000Y-133000000D03*
X107000000Y-103000000D03*
X44000000Y-28000000D03*
D11*
X129500000Y-75200000D03*
X129500000Y-127200000D03*
X159500000Y-75200000D03*
X159500000Y-127200000D03*
D12*
X148288000Y-75872800D03*
D13*
X145748000Y-75872800D03*
X143208000Y-75872800D03*
X140668000Y-75872800D03*
G36*
G01*
X136200000Y-77337500D02*
X135300000Y-77337500D01*
G75*
G02*
X135050000Y-77087500I0J250000D01*
G01*
X135050000Y-76562500D01*
G75*
G02*
X135300000Y-76312500I250000J0D01*
G01*
X136200000Y-76312500D01*
G75*
G02*
X136450000Y-76562500I0J-250000D01*
G01*
X136450000Y-77087500D01*
G75*
G02*
X136200000Y-77337500I-250000J0D01*
G01*
G37*
G36*
G01*
X136200000Y-75512500D02*
X135300000Y-75512500D01*
G75*
G02*
X135050000Y-75262500I0J250000D01*
G01*
X135050000Y-74737500D01*
G75*
G02*
X135300000Y-74487500I250000J0D01*
G01*
X136200000Y-74487500D01*
G75*
G02*
X136450000Y-74737500I0J-250000D01*
G01*
X136450000Y-75262500D01*
G75*
G02*
X136200000Y-75512500I-250000J0D01*
G01*
G37*
G36*
G01*
X138200000Y-77337500D02*
X137300000Y-77337500D01*
G75*
G02*
X137050000Y-77087500I0J250000D01*
G01*
X137050000Y-76562500D01*
G75*
G02*
X137300000Y-76312500I250000J0D01*
G01*
X138200000Y-76312500D01*
G75*
G02*
X138450000Y-76562500I0J-250000D01*
G01*
X138450000Y-77087500D01*
G75*
G02*
X138200000Y-77337500I-250000J0D01*
G01*
G37*
G36*
G01*
X138200000Y-75512500D02*
X137300000Y-75512500D01*
G75*
G02*
X137050000Y-75262500I0J250000D01*
G01*
X137050000Y-74737500D01*
G75*
G02*
X137300000Y-74487500I250000J0D01*
G01*
X138200000Y-74487500D01*
G75*
G02*
X138450000Y-74737500I0J-250000D01*
G01*
X138450000Y-75262500D01*
G75*
G02*
X138200000Y-75512500I-250000J0D01*
G01*
G37*
G36*
G01*
X147500000Y-66000000D02*
X147500000Y-71000000D01*
G75*
G02*
X147250000Y-71250000I-250000J0D01*
G01*
X146750000Y-71250000D01*
G75*
G02*
X146500000Y-71000000I0J250000D01*
G01*
X146500000Y-66000000D01*
G75*
G02*
X146750000Y-65750000I250000J0D01*
G01*
X147250000Y-65750000D01*
G75*
G02*
X147500000Y-66000000I0J-250000D01*
G01*
G37*
G36*
G01*
X145500000Y-66000000D02*
X145500000Y-71000000D01*
G75*
G02*
X145250000Y-71250000I-250000J0D01*
G01*
X144750000Y-71250000D01*
G75*
G02*
X144500000Y-71000000I0J250000D01*
G01*
X144500000Y-66000000D01*
G75*
G02*
X144750000Y-65750000I250000J0D01*
G01*
X145250000Y-65750000D01*
G75*
G02*
X145500000Y-66000000I0J-250000D01*
G01*
G37*
G36*
G01*
X143500000Y-66000000D02*
X143500000Y-71000000D01*
G75*
G02*
X143250000Y-71250000I-250000J0D01*
G01*
X142750000Y-71250000D01*
G75*
G02*
X142500000Y-71000000I0J250000D01*
G01*
X142500000Y-66000000D01*
G75*
G02*
X142750000Y-65750000I250000J0D01*
G01*
X143250000Y-65750000D01*
G75*
G02*
X143500000Y-66000000I0J-250000D01*
G01*
G37*
G36*
G01*
X141500000Y-66000000D02*
X141500000Y-71000000D01*
G75*
G02*
X141250000Y-71250000I-250000J0D01*
G01*
X140750000Y-71250000D01*
G75*
G02*
X140500000Y-71000000I0J250000D01*
G01*
X140500000Y-66000000D01*
G75*
G02*
X140750000Y-65750000I250000J0D01*
G01*
X141250000Y-65750000D01*
G75*
G02*
X141500000Y-66000000I0J-250000D01*
G01*
G37*
G36*
G01*
X150200000Y-65000000D02*
X150200000Y-67500000D01*
G75*
G02*
X149950000Y-67750000I-250000J0D01*
G01*
X148850000Y-67750000D01*
G75*
G02*
X148600000Y-67500000I0J250000D01*
G01*
X148600000Y-65000000D01*
G75*
G02*
X148850000Y-64750000I250000J0D01*
G01*
X149950000Y-64750000D01*
G75*
G02*
X150200000Y-65000000I0J-250000D01*
G01*
G37*
G36*
G01*
X139400000Y-65000000D02*
X139400000Y-67500000D01*
G75*
G02*
X139150000Y-67750000I-250000J0D01*
G01*
X138050000Y-67750000D01*
G75*
G02*
X137800000Y-67500000I0J250000D01*
G01*
X137800000Y-65000000D01*
G75*
G02*
X138050000Y-64750000I250000J0D01*
G01*
X139150000Y-64750000D01*
G75*
G02*
X139400000Y-65000000I0J-250000D01*
G01*
G37*
G36*
G01*
X109500000Y-46750000D02*
X109500000Y-51750000D01*
G75*
G02*
X109250000Y-52000000I-250000J0D01*
G01*
X108750000Y-52000000D01*
G75*
G02*
X108500000Y-51750000I0J250000D01*
G01*
X108500000Y-46750000D01*
G75*
G02*
X108750000Y-46500000I250000J0D01*
G01*
X109250000Y-46500000D01*
G75*
G02*
X109500000Y-46750000I0J-250000D01*
G01*
G37*
G36*
G01*
X107500000Y-46750000D02*
X107500000Y-51750000D01*
G75*
G02*
X107250000Y-52000000I-250000J0D01*
G01*
X106750000Y-52000000D01*
G75*
G02*
X106500000Y-51750000I0J250000D01*
G01*
X106500000Y-46750000D01*
G75*
G02*
X106750000Y-46500000I250000J0D01*
G01*
X107250000Y-46500000D01*
G75*
G02*
X107500000Y-46750000I0J-250000D01*
G01*
G37*
G36*
G01*
X105500000Y-46750000D02*
X105500000Y-51750000D01*
G75*
G02*
X105250000Y-52000000I-250000J0D01*
G01*
X104750000Y-52000000D01*
G75*
G02*
X104500000Y-51750000I0J250000D01*
G01*
X104500000Y-46750000D01*
G75*
G02*
X104750000Y-46500000I250000J0D01*
G01*
X105250000Y-46500000D01*
G75*
G02*
X105500000Y-46750000I0J-250000D01*
G01*
G37*
G36*
G01*
X112200000Y-45750000D02*
X112200000Y-48250000D01*
G75*
G02*
X111950000Y-48500000I-250000J0D01*
G01*
X110850000Y-48500000D01*
G75*
G02*
X110600000Y-48250000I0J250000D01*
G01*
X110600000Y-45750000D01*
G75*
G02*
X110850000Y-45500000I250000J0D01*
G01*
X111950000Y-45500000D01*
G75*
G02*
X112200000Y-45750000I0J-250000D01*
G01*
G37*
G36*
G01*
X103400000Y-45750000D02*
X103400000Y-48250000D01*
G75*
G02*
X103150000Y-48500000I-250000J0D01*
G01*
X102050000Y-48500000D01*
G75*
G02*
X101800000Y-48250000I0J250000D01*
G01*
X101800000Y-45750000D01*
G75*
G02*
X102050000Y-45500000I250000J0D01*
G01*
X103150000Y-45500000D01*
G75*
G02*
X103400000Y-45750000I0J-250000D01*
G01*
G37*
G36*
G01*
X109500000Y-55250000D02*
X109500000Y-60250000D01*
G75*
G02*
X109250000Y-60500000I-250000J0D01*
G01*
X108750000Y-60500000D01*
G75*
G02*
X108500000Y-60250000I0J250000D01*
G01*
X108500000Y-55250000D01*
G75*
G02*
X108750000Y-55000000I250000J0D01*
G01*
X109250000Y-55000000D01*
G75*
G02*
X109500000Y-55250000I0J-250000D01*
G01*
G37*
G36*
G01*
X107500000Y-55250000D02*
X107500000Y-60250000D01*
G75*
G02*
X107250000Y-60500000I-250000J0D01*
G01*
X106750000Y-60500000D01*
G75*
G02*
X106500000Y-60250000I0J250000D01*
G01*
X106500000Y-55250000D01*
G75*
G02*
X106750000Y-55000000I250000J0D01*
G01*
X107250000Y-55000000D01*
G75*
G02*
X107500000Y-55250000I0J-250000D01*
G01*
G37*
G36*
G01*
X105500000Y-55250000D02*
X105500000Y-60250000D01*
G75*
G02*
X105250000Y-60500000I-250000J0D01*
G01*
X104750000Y-60500000D01*
G75*
G02*
X104500000Y-60250000I0J250000D01*
G01*
X104500000Y-55250000D01*
G75*
G02*
X104750000Y-55000000I250000J0D01*
G01*
X105250000Y-55000000D01*
G75*
G02*
X105500000Y-55250000I0J-250000D01*
G01*
G37*
G36*
G01*
X112200000Y-54250000D02*
X112200000Y-56750000D01*
G75*
G02*
X111950000Y-57000000I-250000J0D01*
G01*
X110850000Y-57000000D01*
G75*
G02*
X110600000Y-56750000I0J250000D01*
G01*
X110600000Y-54250000D01*
G75*
G02*
X110850000Y-54000000I250000J0D01*
G01*
X111950000Y-54000000D01*
G75*
G02*
X112200000Y-54250000I0J-250000D01*
G01*
G37*
G36*
G01*
X103400000Y-54250000D02*
X103400000Y-56750000D01*
G75*
G02*
X103150000Y-57000000I-250000J0D01*
G01*
X102050000Y-57000000D01*
G75*
G02*
X101800000Y-56750000I0J250000D01*
G01*
X101800000Y-54250000D01*
G75*
G02*
X102050000Y-54000000I250000J0D01*
G01*
X103150000Y-54000000D01*
G75*
G02*
X103400000Y-54250000I0J-250000D01*
G01*
G37*
M02*
