<?xml version="1.0" standalone="no"?>
 <!DOCTYPE svg PUBLIC "-//W3C//DTD SVG 1.1//EN" 
 "http://www.w3.org/Graphics/SVG/1.1/DTD/svg11.dtd"> 
<svg
  xmlns:svg="http://www.w3.org/2000/svg"
  xmlns="http://www.w3.org/2000/svg"
  xmlns:xlink="http://www.w3.org/1999/xlink"
  version="1.1"
  width="297.0022mm" height="210.0072mm" viewBox="0.0000 0.0000 297.0022 210.0072">
<title>SVG Image created as pedalboard-display-B_Fab.svg date 2024/10/05 16:28:41 </title>
  <desc>Image generated by PCBNEW </desc>
<g style="fill:#000000; fill-opacity:1.0000;stroke:#000000; stroke-opacity:1.0000;
stroke-linecap:round; stroke-linejoin:round;"
 transform="translate(0 0) scale(1 1)">
</g>
<g style="fill:none; 
stroke:#000000; stroke-width:0.1500; stroke-opacity:1; 
stroke-linecap:round; stroke-linejoin:round;">
<g transform="rotate(90.000000 267.8522 111.0000)">
<text x="267.8522" y="111.5000"
textLength="12.4881" font-size="1.3333" lengthAdjust="spacingAndGlyphs"
text-anchor="middle" opacity="0" stroke-opacity="0">Conn_01x03_Pin</text>
</g>
<g class="stroked-text"><desc>Conn_01x03_Pin</desc>
<path d="M267.4926 105.6905
L267.4450 105.6429
" />
<path d="M267.4450 105.6429
L267.3974 105.5000
" />
<path d="M267.3974 105.5000
L267.3974 105.4048
" />
<path d="M267.3974 105.4048
L267.4450 105.2619
" />
<path d="M267.4450 105.2619
L267.5402 105.1667
" />
<path d="M267.5402 105.1667
L267.6355 105.1190
" />
<path d="M267.6355 105.1190
L267.8260 105.0714
" />
<path d="M267.8260 105.0714
L267.9688 105.0714
" />
<path d="M267.9688 105.0714
L268.1593 105.1190
" />
<path d="M268.1593 105.1190
L268.2545 105.1667
" />
<path d="M268.2545 105.1667
L268.3498 105.2619
" />
<path d="M268.3498 105.2619
L268.3974 105.4048
" />
<path d="M268.3974 105.4048
L268.3974 105.5000
" />
<path d="M268.3974 105.5000
L268.3498 105.6429
" />
<path d="M268.3498 105.6429
L268.3021 105.6905
" />
<path d="M267.3974 106.2619
L267.4450 106.1667
" />
<path d="M267.4450 106.1667
L267.4926 106.1190
" />
<path d="M267.4926 106.1190
L267.5879 106.0714
" />
<path d="M267.5879 106.0714
L267.8736 106.0714
" />
<path d="M267.8736 106.0714
L267.9688 106.1190
" />
<path d="M267.9688 106.1190
L268.0164 106.1667
" />
<path d="M268.0164 106.1667
L268.0640 106.2619
" />
<path d="M268.0640 106.2619
L268.0640 106.4048
" />
<path d="M268.0640 106.4048
L268.0164 106.5000
" />
<path d="M268.0164 106.5000
L267.9688 106.5476
" />
<path d="M267.9688 106.5476
L267.8736 106.5952
" />
<path d="M267.8736 106.5952
L267.5879 106.5952
" />
<path d="M267.5879 106.5952
L267.4926 106.5476
" />
<path d="M267.4926 106.5476
L267.4450 106.5000
" />
<path d="M267.4450 106.5000
L267.3974 106.4048
" />
<path d="M267.3974 106.4048
L267.3974 106.2619
" />
<path d="M268.0640 107.0238
L267.3974 107.0238
" />
<path d="M267.9688 107.0238
L268.0164 107.0714
" />
<path d="M268.0164 107.0714
L268.0640 107.1667
" />
<path d="M268.0640 107.1667
L268.0640 107.3095
" />
<path d="M268.0640 107.3095
L268.0164 107.4048
" />
<path d="M268.0164 107.4048
L267.9212 107.4524
" />
<path d="M267.9212 107.4524
L267.3974 107.4524
" />
<path d="M268.0640 107.9286
L267.3974 107.9286
" />
<path d="M267.9688 107.9286
L268.0164 107.9762
" />
<path d="M268.0164 107.9762
L268.0640 108.0714
" />
<path d="M268.0640 108.0714
L268.0640 108.2143
" />
<path d="M268.0640 108.2143
L268.0164 108.3095
" />
<path d="M268.0164 108.3095
L267.9212 108.3571
" />
<path d="M267.9212 108.3571
L267.3974 108.3571
" />
<path d="M267.3021 108.5952
L267.3021 109.3571
" />
<path d="M268.3974 109.7857
L268.3974 109.8810
" />
<path d="M268.3974 109.8810
L268.3498 109.9762
" />
<path d="M268.3498 109.9762
L268.3021 110.0238
" />
<path d="M268.3021 110.0238
L268.2069 110.0714
" />
<path d="M268.2069 110.0714
L268.0164 110.1190
" />
<path d="M268.0164 110.1190
L267.7783 110.1190
" />
<path d="M267.7783 110.1190
L267.5879 110.0714
" />
<path d="M267.5879 110.0714
L267.4926 110.0238
" />
<path d="M267.4926 110.0238
L267.4450 109.9762
" />
<path d="M267.4450 109.9762
L267.3974 109.8810
" />
<path d="M267.3974 109.8810
L267.3974 109.7857
" />
<path d="M267.3974 109.7857
L267.4450 109.6905
" />
<path d="M267.4450 109.6905
L267.4926 109.6429
" />
<path d="M267.4926 109.6429
L267.5879 109.5952
" />
<path d="M267.5879 109.5952
L267.7783 109.5476
" />
<path d="M267.7783 109.5476
L268.0164 109.5476
" />
<path d="M268.0164 109.5476
L268.2069 109.5952
" />
<path d="M268.2069 109.5952
L268.3021 109.6429
" />
<path d="M268.3021 109.6429
L268.3498 109.6905
" />
<path d="M268.3498 109.6905
L268.3974 109.7857
" />
<path d="M267.3974 111.0714
L267.3974 110.5000
" />
<path d="M267.3974 110.7857
L268.3974 110.7857
" />
<path d="M268.3974 110.7857
L268.2545 110.6905
" />
<path d="M268.2545 110.6905
L268.1593 110.5952
" />
<path d="M268.1593 110.5952
L268.1117 110.5000
" />
<path d="M267.3974 111.4048
L268.0640 111.9286
" />
<path d="M268.0640 111.4048
L267.3974 111.9286
" />
<path d="M268.3974 112.5000
L268.3974 112.5952
" />
<path d="M268.3974 112.5952
L268.3498 112.6905
" />
<path d="M268.3498 112.6905
L268.3021 112.7381
" />
<path d="M268.3021 112.7381
L268.2069 112.7857
" />
<path d="M268.2069 112.7857
L268.0164 112.8333
" />
<path d="M268.0164 112.8333
L267.7783 112.8333
" />
<path d="M267.7783 112.8333
L267.5879 112.7857
" />
<path d="M267.5879 112.7857
L267.4926 112.7381
" />
<path d="M267.4926 112.7381
L267.4450 112.6905
" />
<path d="M267.4450 112.6905
L267.3974 112.5952
" />
<path d="M267.3974 112.5952
L267.3974 112.5000
" />
<path d="M267.3974 112.5000
L267.4450 112.4048
" />
<path d="M267.4450 112.4048
L267.4926 112.3571
" />
<path d="M267.4926 112.3571
L267.5879 112.3095
" />
<path d="M267.5879 112.3095
L267.7783 112.2619
" />
<path d="M267.7783 112.2619
L268.0164 112.2619
" />
<path d="M268.0164 112.2619
L268.2069 112.3095
" />
<path d="M268.2069 112.3095
L268.3021 112.3571
" />
<path d="M268.3021 112.3571
L268.3498 112.4048
" />
<path d="M268.3498 112.4048
L268.3974 112.5000
" />
<path d="M268.3974 113.1667
L268.3974 113.7857
" />
<path d="M268.3974 113.7857
L268.0164 113.4524
" />
<path d="M268.0164 113.4524
L268.0164 113.5952
" />
<path d="M268.0164 113.5952
L267.9688 113.6905
" />
<path d="M267.9688 113.6905
L267.9212 113.7381
" />
<path d="M267.9212 113.7381
L267.8260 113.7857
" />
<path d="M267.8260 113.7857
L267.5879 113.7857
" />
<path d="M267.5879 113.7857
L267.4926 113.7381
" />
<path d="M267.4926 113.7381
L267.4450 113.6905
" />
<path d="M267.4450 113.6905
L267.3974 113.5952
" />
<path d="M267.3974 113.5952
L267.3974 113.3095
" />
<path d="M267.3974 113.3095
L267.4450 113.2143
" />
<path d="M267.4450 113.2143
L267.4926 113.1667
" />
<path d="M267.3021 113.9762
L267.3021 114.7381
" />
<path d="M267.3974 114.9762
L268.3974 114.9762
" />
<path d="M268.3974 114.9762
L268.3974 115.3571
" />
<path d="M268.3974 115.3571
L268.3498 115.4524
" />
<path d="M268.3498 115.4524
L268.3021 115.5000
" />
<path d="M268.3021 115.5000
L268.2069 115.5476
" />
<path d="M268.2069 115.5476
L268.0640 115.5476
" />
<path d="M268.0640 115.5476
L267.9688 115.5000
" />
<path d="M267.9688 115.5000
L267.9212 115.4524
" />
<path d="M267.9212 115.4524
L267.8736 115.3571
" />
<path d="M267.8736 115.3571
L267.8736 114.9762
" />
<path d="M267.3974 115.9762
L268.0640 115.9762
" />
<path d="M268.3974 115.9762
L268.3498 115.9286
" />
<path d="M268.3498 115.9286
L268.3021 115.9762
" />
<path d="M268.3021 115.9762
L268.3498 116.0238
" />
<path d="M268.3498 116.0238
L268.3974 115.9762
" />
<path d="M268.3974 115.9762
L268.3021 115.9762
" />
<path d="M268.0640 116.4524
L267.3974 116.4524
" />
<path d="M267.9688 116.4524
L268.0164 116.5000
" />
<path d="M268.0164 116.5000
L268.0640 116.5952
" />
<path d="M268.0640 116.5952
L268.0640 116.7381
" />
<path d="M268.0640 116.7381
L268.0164 116.8333
" />
<path d="M268.0164 116.8333
L267.9212 116.8810
" />
<path d="M267.9212 116.8810
L267.3974 116.8810
" />
</g><g transform="rotate(90.000000 273.3022 111.0000)">
<text x="273.3022" y="111.5000"
textLength="1.9643" font-size="1.3333" lengthAdjust="spacingAndGlyphs"
text-anchor="middle" opacity="0" stroke-opacity="0">J2</text>
</g>
<g class="stroked-text"><desc>J2</desc>
<path d="M273.8474 110.6667
L273.1331 110.6667
" />
<path d="M273.1331 110.6667
L272.9902 110.6190
" />
<path d="M272.9902 110.6190
L272.8950 110.5238
" />
<path d="M272.8950 110.5238
L272.8474 110.3810
" />
<path d="M272.8474 110.3810
L272.8474 110.2857
" />
<path d="M273.7521 111.0952
L273.7998 111.1429
" />
<path d="M273.7998 111.1429
L273.8474 111.2381
" />
<path d="M273.8474 111.2381
L273.8474 111.4762
" />
<path d="M273.8474 111.4762
L273.7998 111.5714
" />
<path d="M273.7998 111.5714
L273.7521 111.6190
" />
<path d="M273.7521 111.6190
L273.6569 111.6667
" />
<path d="M273.6569 111.6667
L273.5617 111.6667
" />
<path d="M273.5617 111.6667
L273.4188 111.6190
" />
<path d="M273.4188 111.6190
L272.8474 111.0476
" />
<path d="M272.8474 111.0476
L272.8474 111.6667
" />
</g><text x="190.0022" y="39.9500"
textLength="12.4881" font-size="1.3333" lengthAdjust="spacingAndGlyphs"
text-anchor="middle" opacity="0" stroke-opacity="0">Conn_01x03_Pin</text>
<g class="stroked-text"><desc>Conn_01x03_Pin</desc>
<path d="M184.6927 39.8096
L184.6451 39.8572
" />
<path d="M184.6451 39.8572
L184.5022 39.9048
" />
<path d="M184.5022 39.9048
L184.4070 39.9048
" />
<path d="M184.4070 39.9048
L184.2641 39.8572
" />
<path d="M184.2641 39.8572
L184.1689 39.7620
" />
<path d="M184.1689 39.7620
L184.1212 39.6667
" />
<path d="M184.1212 39.6667
L184.0736 39.4762
" />
<path d="M184.0736 39.4762
L184.0736 39.3334
" />
<path d="M184.0736 39.3334
L184.1212 39.1429
" />
<path d="M184.1212 39.1429
L184.1689 39.0477
" />
<path d="M184.1689 39.0477
L184.2641 38.9524
" />
<path d="M184.2641 38.9524
L184.4070 38.9048
" />
<path d="M184.4070 38.9048
L184.5022 38.9048
" />
<path d="M184.5022 38.9048
L184.6451 38.9524
" />
<path d="M184.6451 38.9524
L184.6927 39.0001
" />
<path d="M185.2641 39.9048
L185.1689 39.8572
" />
<path d="M185.1689 39.8572
L185.1212 39.8096
" />
<path d="M185.1212 39.8096
L185.0736 39.7143
" />
<path d="M185.0736 39.7143
L185.0736 39.4286
" />
<path d="M185.0736 39.4286
L185.1212 39.3334
" />
<path d="M185.1212 39.3334
L185.1689 39.2858
" />
<path d="M185.1689 39.2858
L185.2641 39.2382
" />
<path d="M185.2641 39.2382
L185.4070 39.2382
" />
<path d="M185.4070 39.2382
L185.5022 39.2858
" />
<path d="M185.5022 39.2858
L185.5498 39.3334
" />
<path d="M185.5498 39.3334
L185.5974 39.4286
" />
<path d="M185.5974 39.4286
L185.5974 39.7143
" />
<path d="M185.5974 39.7143
L185.5498 39.8096
" />
<path d="M185.5498 39.8096
L185.5022 39.8572
" />
<path d="M185.5022 39.8572
L185.4070 39.9048
" />
<path d="M185.4070 39.9048
L185.2641 39.9048
" />
<path d="M186.0260 39.2382
L186.0260 39.9048
" />
<path d="M186.0260 39.3334
L186.0736 39.2858
" />
<path d="M186.0736 39.2858
L186.1689 39.2382
" />
<path d="M186.1689 39.2382
L186.3117 39.2382
" />
<path d="M186.3117 39.2382
L186.4070 39.2858
" />
<path d="M186.4070 39.2858
L186.4546 39.3810
" />
<path d="M186.4546 39.3810
L186.4546 39.9048
" />
<path d="M186.9308 39.2382
L186.9308 39.9048
" />
<path d="M186.9308 39.3334
L186.9784 39.2858
" />
<path d="M186.9784 39.2858
L187.0736 39.2382
" />
<path d="M187.0736 39.2382
L187.2165 39.2382
" />
<path d="M187.2165 39.2382
L187.3117 39.2858
" />
<path d="M187.3117 39.2858
L187.3593 39.3810
" />
<path d="M187.3593 39.3810
L187.3593 39.9048
" />
<path d="M187.5974 40.0001
L188.3593 40.0001
" />
<path d="M188.7879 38.9048
L188.8832 38.9048
" />
<path d="M188.8832 38.9048
L188.9784 38.9524
" />
<path d="M188.9784 38.9524
L189.0260 39.0001
" />
<path d="M189.0260 39.0001
L189.0736 39.0953
" />
<path d="M189.0736 39.0953
L189.1212 39.2858
" />
<path d="M189.1212 39.2858
L189.1212 39.5239
" />
<path d="M189.1212 39.5239
L189.0736 39.7143
" />
<path d="M189.0736 39.7143
L189.0260 39.8096
" />
<path d="M189.0260 39.8096
L188.9784 39.8572
" />
<path d="M188.9784 39.8572
L188.8832 39.9048
" />
<path d="M188.8832 39.9048
L188.7879 39.9048
" />
<path d="M188.7879 39.9048
L188.6927 39.8572
" />
<path d="M188.6927 39.8572
L188.6451 39.8096
" />
<path d="M188.6451 39.8096
L188.5974 39.7143
" />
<path d="M188.5974 39.7143
L188.5498 39.5239
" />
<path d="M188.5498 39.5239
L188.5498 39.2858
" />
<path d="M188.5498 39.2858
L188.5974 39.0953
" />
<path d="M188.5974 39.0953
L188.6451 39.0001
" />
<path d="M188.6451 39.0001
L188.6927 38.9524
" />
<path d="M188.6927 38.9524
L188.7879 38.9048
" />
<path d="M190.0736 39.9048
L189.5022 39.9048
" />
<path d="M189.7879 39.9048
L189.7879 38.9048
" />
<path d="M189.7879 38.9048
L189.6927 39.0477
" />
<path d="M189.6927 39.0477
L189.5974 39.1429
" />
<path d="M189.5974 39.1429
L189.5022 39.1905
" />
<path d="M190.4070 39.9048
L190.9308 39.2382
" />
<path d="M190.4070 39.2382
L190.9308 39.9048
" />
<path d="M191.5022 38.9048
L191.5974 38.9048
" />
<path d="M191.5974 38.9048
L191.6927 38.9524
" />
<path d="M191.6927 38.9524
L191.7403 39.0001
" />
<path d="M191.7403 39.0001
L191.7879 39.0953
" />
<path d="M191.7879 39.0953
L191.8355 39.2858
" />
<path d="M191.8355 39.2858
L191.8355 39.5239
" />
<path d="M191.8355 39.5239
L191.7879 39.7143
" />
<path d="M191.7879 39.7143
L191.7403 39.8096
" />
<path d="M191.7403 39.8096
L191.6927 39.8572
" />
<path d="M191.6927 39.8572
L191.5974 39.9048
" />
<path d="M191.5974 39.9048
L191.5022 39.9048
" />
<path d="M191.5022 39.9048
L191.4070 39.8572
" />
<path d="M191.4070 39.8572
L191.3593 39.8096
" />
<path d="M191.3593 39.8096
L191.3117 39.7143
" />
<path d="M191.3117 39.7143
L191.2641 39.5239
" />
<path d="M191.2641 39.5239
L191.2641 39.2858
" />
<path d="M191.2641 39.2858
L191.3117 39.0953
" />
<path d="M191.3117 39.0953
L191.3593 39.0001
" />
<path d="M191.3593 39.0001
L191.4070 38.9524
" />
<path d="M191.4070 38.9524
L191.5022 38.9048
" />
<path d="M192.1689 38.9048
L192.7879 38.9048
" />
<path d="M192.7879 38.9048
L192.4546 39.2858
" />
<path d="M192.4546 39.2858
L192.5974 39.2858
" />
<path d="M192.5974 39.2858
L192.6927 39.3334
" />
<path d="M192.6927 39.3334
L192.7403 39.3810
" />
<path d="M192.7403 39.3810
L192.7879 39.4762
" />
<path d="M192.7879 39.4762
L192.7879 39.7143
" />
<path d="M192.7879 39.7143
L192.7403 39.8096
" />
<path d="M192.7403 39.8096
L192.6927 39.8572
" />
<path d="M192.6927 39.8572
L192.5974 39.9048
" />
<path d="M192.5974 39.9048
L192.3117 39.9048
" />
<path d="M192.3117 39.9048
L192.2165 39.8572
" />
<path d="M192.2165 39.8572
L192.1689 39.8096
" />
<path d="M192.9784 40.0001
L193.7403 40.0001
" />
<path d="M193.9784 39.9048
L193.9784 38.9048
" />
<path d="M193.9784 38.9048
L194.3593 38.9048
" />
<path d="M194.3593 38.9048
L194.4546 38.9524
" />
<path d="M194.4546 38.9524
L194.5022 39.0001
" />
<path d="M194.5022 39.0001
L194.5498 39.0953
" />
<path d="M194.5498 39.0953
L194.5498 39.2382
" />
<path d="M194.5498 39.2382
L194.5022 39.3334
" />
<path d="M194.5022 39.3334
L194.4546 39.3810
" />
<path d="M194.4546 39.3810
L194.3593 39.4286
" />
<path d="M194.3593 39.4286
L193.9784 39.4286
" />
<path d="M194.9784 39.9048
L194.9784 39.2382
" />
<path d="M194.9784 38.9048
L194.9308 38.9524
" />
<path d="M194.9308 38.9524
L194.9784 39.0001
" />
<path d="M194.9784 39.0001
L195.0260 38.9524
" />
<path d="M195.0260 38.9524
L194.9784 38.9048
" />
<path d="M194.9784 38.9048
L194.9784 39.0001
" />
<path d="M195.4546 39.2382
L195.4546 39.9048
" />
<path d="M195.4546 39.3334
L195.5022 39.2858
" />
<path d="M195.5022 39.2858
L195.5974 39.2382
" />
<path d="M195.5974 39.2382
L195.7403 39.2382
" />
<path d="M195.7403 39.2382
L195.8355 39.2858
" />
<path d="M195.8355 39.2858
L195.8832 39.3810
" />
<path d="M195.8832 39.3810
L195.8832 39.9048
" />
</g><text x="190.0022" y="34.5000"
textLength="1.9643" font-size="1.3333" lengthAdjust="spacingAndGlyphs"
text-anchor="middle" opacity="0" stroke-opacity="0">J1</text>
<g class="stroked-text"><desc>J1</desc>
<path d="M189.6689 33.4548
L189.6689 34.1691
" />
<path d="M189.6689 34.1691
L189.6212 34.3120
" />
<path d="M189.6212 34.3120
L189.5260 34.4072
" />
<path d="M189.5260 34.4072
L189.3832 34.4548
" />
<path d="M189.3832 34.4548
L189.2879 34.4548
" />
<path d="M190.6689 34.4548
L190.0974 34.4548
" />
<path d="M190.3832 34.4548
L190.3832 33.4548
" />
<path d="M190.3832 33.4548
L190.2879 33.5977
" />
<path d="M190.2879 33.5977
L190.1927 33.6929
" />
<path d="M190.1927 33.6929
L190.0974 33.7405
" />
</g></g>
<g style="fill:none; 
stroke:#000000; stroke-width:0.1000; stroke-opacity:1; 
stroke-linecap:round; stroke-linejoin:round;">
<path d="M276.5522 106.0250
L276.5522 115.9750
" />
<path d="M275.0522 108.7500
L274.5522 108.7500
" />
<path d="M275.0522 109.2500
L275.0522 108.7500
" />
<path d="M275.0522 110.7500
L274.5522 110.7500
" />
<path d="M275.0522 111.2500
L275.0522 110.7500
" />
<path d="M275.0522 112.7500
L274.5522 112.7500
" />
<path d="M275.0522 113.2500
L275.0522 112.7500
" />
<path d="M274.5522 108.7500
L274.5522 109.2500
" />
<path d="M274.5522 109.2500
L275.0522 109.2500
" />
<path d="M274.5522 110.7500
L274.5522 111.2500
" />
<path d="M274.5522 111.2500
L275.0522 111.2500
" />
<path d="M274.5522 112.7500
L274.5522 113.2500
" />
<path d="M274.5522 113.2500
L275.0522 113.2500
" />
<path d="M272.2593 109.0000
L271.5522 109.5000
" />
<path d="M271.5522 106.0250
L276.5522 106.0250
" />
<path d="M271.5522 106.0250
L271.5522 115.9750
" />
<path d="M271.5522 108.5000
L272.2593 109.0000
" />
<path d="M271.5522 115.9750
L276.5522 115.9750
" />
<path d="M194.9772 35.7500
L194.9772 30.7500
" />
<path d="M192.2522 32.2500
L191.7522 32.2500
" />
<path d="M192.2522 32.7500
L192.2522 32.2500
" />
<path d="M191.7522 32.2500
L191.7522 32.7500
" />
<path d="M191.7522 32.7500
L192.2522 32.7500
" />
<path d="M190.2522 32.2500
L189.7522 32.2500
" />
<path d="M190.2522 32.7500
L190.2522 32.2500
" />
<path d="M189.7522 32.2500
L189.7522 32.7500
" />
<path d="M189.7522 32.7500
L190.2522 32.7500
" />
<path d="M188.2522 32.2500
L187.7522 32.2500
" />
<path d="M188.2522 32.7500
L188.2522 32.2500
" />
<path d="M188.0022 35.0429
L188.5022 35.7500
" />
<path d="M187.7522 32.2500
L187.7522 32.7500
" />
<path d="M187.7522 32.7500
L188.2522 32.7500
" />
<path d="M187.5022 35.7500
L188.0022 35.0429
" />
<path d="M185.0272 30.7500
L194.9772 30.7500
" />
<path d="M185.0272 35.7500
L194.9772 35.7500
" />
<path d="M185.0272 35.7500
L185.0272 30.7500
" />
</g> 
</svg>
