<?xml version='1.0' encoding='ASCII' standalone='yes'?>
<svg xmlns="http://www.w3.org/2000/svg" version="1.1" width="297.0022mm" height="210.0072mm" viewBox="0.0000 0.0000 297.0022 210.0072">
            <title>Picture generated by PcbDraw </title>
            <desc>Picture generated by PcbDraw</desc>
        <defs><clipPath id="cut-off"><path d="M127.2000 124.2000 L127.2000 78.2000 M 112.0 136.0 L 189.0 136.0 A 1 1 0 0 0 190.0 135.0 L 190.0 133.0 A 3 3 0 0 1 193.0 130.0 A 1 1 0 0 0 194.0 129.0 L 194.0 32.0 A 1 1 0 0 0 193.0 31.0 A 3 3 0 0 1 190.0 28.0 L 190.0 26.0 A 1 1 0 0 0 189.0 25.0 L 124.2 25.0 L 112.0 25.0 A 5 5 0 0 1 102.0 25.0 L 94.2 25.0 L 25.0 25.0 A 1 1 0 0 0 24.0 26.0 L 24.0 28.0 A 3 3 0 0 1 21.0 31.0 A 1 1 0 0 0 20.0 32.0 L 20.0 129.0 A 1 1 0 0 0 21.0 130.0 A 3 3 0 0 1 24.0 133.0 L 24.0 135.0 A 1 1 0 0 0 25.0 136.0 L 112.0 136.0  M 86.8 78.2 L 86.8 124.2 L 52.2 124.2 L 52.2 78.2 L 86.8 78.2  M 161.8 78.2 L 161.8 124.2 L 127.2 124.2 L 127.2 78.2 L 161.8 78.2 " style="fill-rule: evenodd;"/></clipPath><mask id="pads-mask-silkscreen"><rect x="19.925" y="24.95" width="174.15" height="111.125" fill="white"/><g style="fill:#000000; fill-opacity:1.0000; stroke:none;">
<circle cx="170.0000" cy="133.0000" r="1.2500"/> 
</g>
<g style="fill:#000000; fill-opacity:1.0000; stroke:none;">
<circle cx="170.0000" cy="28.0000" r="1.2500"/> 
</g>
<g style="fill:#000000; fill-opacity:1.0000; stroke:none;">
<circle cx="54.5000" cy="75.2000" r="1.6500"/> 
</g>
<g style="fill:#000000; fill-opacity:1.0000; stroke:none;">
<circle cx="54.5000" cy="127.2000" r="1.6500"/> 
</g>
<g style="fill:#000000; fill-opacity:1.0000; stroke:none;">
<circle cx="84.5000" cy="75.2000" r="1.6500"/> 
</g>
<g style="fill:#000000; fill-opacity:1.0000; stroke:none;">
<circle cx="84.5000" cy="127.2000" r="1.6500"/> 
<path style="fill:#000000; fill-opacity:1.0000; stroke:none;fill-rule:evenodd;" d="M 72.4380,74.0728 74.1380,74.0728 74.1380,77.6728 72.4380,77.6728 Z"/> 
</g>
<g style="fill:none;  stroke:#000000; stroke-width:1.7000; stroke-opacity:1;  stroke-linecap:round; stroke-linejoin:round;">
<path d="M70.7480 74.9728 L70.7480 76.7728 "/>
<path d="M68.2080 74.9728 L68.2080 76.7728 "/>
<path d="M65.6680 74.9728 L65.6680 76.7728 "/>
</g>
<g style="fill:#000000; fill-opacity:1.0000; stroke:none;">
<circle cx="44.0000" cy="133.0000" r="1.2500"/> 
</g>
<g style="fill:#000000; fill-opacity:1.0000; stroke:none;">
<circle cx="107.0000" cy="103.0000" r="1.2500"/> 
</g>
<g style="fill:#000000; fill-opacity:1.0000; stroke:none;">
<circle cx="44.0000" cy="28.0000" r="1.2500"/> 
</g>
<g style="fill:#000000; fill-opacity:1.0000; stroke:none;">
<circle cx="129.5000" cy="75.2000" r="1.6500"/> 
</g>
<g style="fill:#000000; fill-opacity:1.0000; stroke:none;">
<circle cx="129.5000" cy="127.2000" r="1.6500"/> 
</g>
<g style="fill:#000000; fill-opacity:1.0000; stroke:none;">
<circle cx="159.5000" cy="75.2000" r="1.6500"/> 
</g>
<g style="fill:#000000; fill-opacity:1.0000; stroke:none;">
<circle cx="159.5000" cy="127.2000" r="1.6500"/> 
<path style="fill:#000000; fill-opacity:1.0000; stroke:none;fill-rule:evenodd;" d="M 147.4380,74.0728 149.1380,74.0728 149.1380,77.6728 147.4380,77.6728 Z"/> 
</g>
<g style="fill:none;  stroke:#000000; stroke-width:1.7000; stroke-opacity:1;  stroke-linecap:round; stroke-linejoin:round;">
<path d="M145.7480 74.9728 L145.7480 76.7728 "/>
<path d="M143.2080 74.9728 L143.2080 76.7728 "/>
<path d="M140.6680 74.9728 L140.6680 76.7728 "/>
<path style="fill:#000000; fill-opacity:1.0000; stroke:none;fill-rule:evenodd;" d="M 135.3000,77.3375 135.2043,77.3185 135.1232,77.2643 135.0690,77.1832 135.0500,77.0875 135.0500,76.5625 135.0690,76.4668 135.1232,76.3857 135.2043,76.3315 135.3000,76.3125 136.2000,76.3125 136.2957,76.3315 136.3768,76.3857 136.4310,76.4668 136.4500,76.5625 136.4500,77.0875 136.4310,77.1832 136.3768,77.2643 136.2957,77.3185 136.2000,77.3375 Z"/> 
<path style="fill:#000000; fill-opacity:1.0000; stroke:none;fill-rule:evenodd;" d="M 135.3000,75.5125 135.2043,75.4935 135.1232,75.4393 135.0690,75.3582 135.0500,75.2625 135.0500,74.7375 135.0690,74.6418 135.1232,74.5607 135.2043,74.5065 135.3000,74.4875 136.2000,74.4875 136.2957,74.5065 136.3768,74.5607 136.4310,74.6418 136.4500,74.7375 136.4500,75.2625 136.4310,75.3582 136.3768,75.4393 136.2957,75.4935 136.2000,75.5125 Z"/> 
<path style="fill:#000000; fill-opacity:1.0000; stroke:none;fill-rule:evenodd;" d="M 137.3000,77.3375 137.2043,77.3185 137.1232,77.2643 137.0690,77.1832 137.0500,77.0875 137.0500,76.5625 137.0690,76.4668 137.1232,76.3857 137.2043,76.3315 137.3000,76.3125 138.2000,76.3125 138.2957,76.3315 138.3768,76.3857 138.4310,76.4668 138.4500,76.5625 138.4500,77.0875 138.4310,77.1832 138.3768,77.2643 138.2957,77.3185 138.2000,77.3375 Z"/> 
<path style="fill:#000000; fill-opacity:1.0000; stroke:none;fill-rule:evenodd;" d="M 137.3000,75.5125 137.2043,75.4935 137.1232,75.4393 137.0690,75.3582 137.0500,75.2625 137.0500,74.7375 137.0690,74.6418 137.1232,74.5607 137.2043,74.5065 137.3000,74.4875 138.2000,74.4875 138.2957,74.5065 138.3768,74.5607 138.4310,74.6418 138.4500,74.7375 138.4500,75.2625 138.4310,75.3582 138.3768,75.4393 138.2957,75.4935 138.2000,75.5125 Z"/> 
<path style="fill:#000000; fill-opacity:1.0000; stroke:none;fill-rule:evenodd;" d="M 147.5000,71.0000 147.4810,71.0957 147.4268,71.1768 147.3457,71.2310 147.2500,71.2500 146.7500,71.2500 146.6543,71.2310 146.5732,71.1768 146.5190,71.0957 146.5000,71.0000 146.5000,66.0000 146.5190,65.9043 146.5732,65.8232 146.6543,65.7690 146.7500,65.7500 147.2500,65.7500 147.3457,65.7690 147.4268,65.8232 147.4810,65.9043 147.5000,66.0000 Z"/> 
<path style="fill:#000000; fill-opacity:1.0000; stroke:none;fill-rule:evenodd;" d="M 145.5000,71.0000 145.4810,71.0957 145.4268,71.1768 145.3457,71.2310 145.2500,71.2500 144.7500,71.2500 144.6543,71.2310 144.5732,71.1768 144.5190,71.0957 144.5000,71.0000 144.5000,66.0000 144.5190,65.9043 144.5732,65.8232 144.6543,65.7690 144.7500,65.7500 145.2500,65.7500 145.3457,65.7690 145.4268,65.8232 145.4810,65.9043 145.5000,66.0000 Z"/> 
<path style="fill:#000000; fill-opacity:1.0000; stroke:none;fill-rule:evenodd;" d="M 143.5000,71.0000 143.4810,71.0957 143.4268,71.1768 143.3457,71.2310 143.2500,71.2500 142.7500,71.2500 142.6543,71.2310 142.5732,71.1768 142.5190,71.0957 142.5000,71.0000 142.5000,66.0000 142.5190,65.9043 142.5732,65.8232 142.6543,65.7690 142.7500,65.7500 143.2500,65.7500 143.3457,65.7690 143.4268,65.8232 143.4810,65.9043 143.5000,66.0000 Z"/> 
<path style="fill:#000000; fill-opacity:1.0000; stroke:none;fill-rule:evenodd;" d="M 141.5000,71.0000 141.4810,71.0957 141.4268,71.1768 141.3457,71.2310 141.2500,71.2500 140.7500,71.2500 140.6543,71.2310 140.5732,71.1768 140.5190,71.0957 140.5000,71.0000 140.5000,66.0000 140.5190,65.9043 140.5732,65.8232 140.6543,65.7690 140.7500,65.7500 141.2500,65.7500 141.3457,65.7690 141.4268,65.8232 141.4810,65.9043 141.5000,66.0000 Z"/> 
<path style="fill:#000000; fill-opacity:1.0000; stroke:none;fill-rule:evenodd;" d="M 150.2000,67.5000 150.1810,67.5957 150.1268,67.6768 150.0457,67.7310 149.9500,67.7500 148.8500,67.7500 148.7543,67.7310 148.6732,67.6768 148.6190,67.5957 148.6000,67.5000 148.6000,65.0000 148.6190,64.9043 148.6732,64.8232 148.7543,64.7690 148.8500,64.7500 149.9500,64.7500 150.0457,64.7690 150.1268,64.8232 150.1810,64.9043 150.2000,65.0000 Z"/> 
<path style="fill:#000000; fill-opacity:1.0000; stroke:none;fill-rule:evenodd;" d="M 139.4000,67.5000 139.3810,67.5957 139.3268,67.6768 139.2457,67.7310 139.1500,67.7500 138.0500,67.7500 137.9543,67.7310 137.8732,67.6768 137.8190,67.5957 137.8000,67.5000 137.8000,65.0000 137.8190,64.9043 137.8732,64.8232 137.9543,64.7690 138.0500,64.7500 139.1500,64.7500 139.2457,64.7690 139.3268,64.8232 139.3810,64.9043 139.4000,65.0000 Z"/> 
<path style="fill:#000000; fill-opacity:1.0000; stroke:none;fill-rule:evenodd;" d="M 109.5000,51.7500 109.4810,51.8457 109.4268,51.9268 109.3457,51.9810 109.2500,52.0000 108.7500,52.0000 108.6543,51.9810 108.5732,51.9268 108.5190,51.8457 108.5000,51.7500 108.5000,46.7500 108.5190,46.6543 108.5732,46.5732 108.6543,46.5190 108.7500,46.5000 109.2500,46.5000 109.3457,46.5190 109.4268,46.5732 109.4810,46.6543 109.5000,46.7500 Z"/> 
<path style="fill:#000000; fill-opacity:1.0000; stroke:none;fill-rule:evenodd;" d="M 107.5000,51.7500 107.4810,51.8457 107.4268,51.9268 107.3457,51.9810 107.2500,52.0000 106.7500,52.0000 106.6543,51.9810 106.5732,51.9268 106.5190,51.8457 106.5000,51.7500 106.5000,46.7500 106.5190,46.6543 106.5732,46.5732 106.6543,46.5190 106.7500,46.5000 107.2500,46.5000 107.3457,46.5190 107.4268,46.5732 107.4810,46.6543 107.5000,46.7500 Z"/> 
<path style="fill:#000000; fill-opacity:1.0000; stroke:none;fill-rule:evenodd;" d="M 105.5000,51.7500 105.4810,51.8457 105.4268,51.9268 105.3457,51.9810 105.2500,52.0000 104.7500,52.0000 104.6543,51.9810 104.5732,51.9268 104.5190,51.8457 104.5000,51.7500 104.5000,46.7500 104.5190,46.6543 104.5732,46.5732 104.6543,46.5190 104.7500,46.5000 105.2500,46.5000 105.3457,46.5190 105.4268,46.5732 105.4810,46.6543 105.5000,46.7500 Z"/> 
<path style="fill:#000000; fill-opacity:1.0000; stroke:none;fill-rule:evenodd;" d="M 112.2000,48.2500 112.1810,48.3457 112.1268,48.4268 112.0457,48.4810 111.9500,48.5000 110.8500,48.5000 110.7543,48.4810 110.6732,48.4268 110.6190,48.3457 110.6000,48.2500 110.6000,45.7500 110.6190,45.6543 110.6732,45.5732 110.7543,45.5190 110.8500,45.5000 111.9500,45.5000 112.0457,45.5190 112.1268,45.5732 112.1810,45.6543 112.2000,45.7500 Z"/> 
<path style="fill:#000000; fill-opacity:1.0000; stroke:none;fill-rule:evenodd;" d="M 103.4000,48.2500 103.3810,48.3457 103.3268,48.4268 103.2457,48.4810 103.1500,48.5000 102.0500,48.5000 101.9543,48.4810 101.8732,48.4268 101.8190,48.3457 101.8000,48.2500 101.8000,45.7500 101.8190,45.6543 101.8732,45.5732 101.9543,45.5190 102.0500,45.5000 103.1500,45.5000 103.2457,45.5190 103.3268,45.5732 103.3810,45.6543 103.4000,45.7500 Z"/> 
<path style="fill:#000000; fill-opacity:1.0000; stroke:none;fill-rule:evenodd;" d="M 109.5000,60.2500 109.4810,60.3457 109.4268,60.4268 109.3457,60.4810 109.2500,60.5000 108.7500,60.5000 108.6543,60.4810 108.5732,60.4268 108.5190,60.3457 108.5000,60.2500 108.5000,55.2500 108.5190,55.1543 108.5732,55.0732 108.6543,55.0190 108.7500,55.0000 109.2500,55.0000 109.3457,55.0190 109.4268,55.0732 109.4810,55.1543 109.5000,55.2500 Z"/> 
<path style="fill:#000000; fill-opacity:1.0000; stroke:none;fill-rule:evenodd;" d="M 107.5000,60.2500 107.4810,60.3457 107.4268,60.4268 107.3457,60.4810 107.2500,60.5000 106.7500,60.5000 106.6543,60.4810 106.5732,60.4268 106.5190,60.3457 106.5000,60.2500 106.5000,55.2500 106.5190,55.1543 106.5732,55.0732 106.6543,55.0190 106.7500,55.0000 107.2500,55.0000 107.3457,55.0190 107.4268,55.0732 107.4810,55.1543 107.5000,55.2500 Z"/> 
<path style="fill:#000000; fill-opacity:1.0000; stroke:none;fill-rule:evenodd;" d="M 105.5000,60.2500 105.4810,60.3457 105.4268,60.4268 105.3457,60.4810 105.2500,60.5000 104.7500,60.5000 104.6543,60.4810 104.5732,60.4268 104.5190,60.3457 104.5000,60.2500 104.5000,55.2500 104.5190,55.1543 104.5732,55.0732 104.6543,55.0190 104.7500,55.0000 105.2500,55.0000 105.3457,55.0190 105.4268,55.0732 105.4810,55.1543 105.5000,55.2500 Z"/> 
<path style="fill:#000000; fill-opacity:1.0000; stroke:none;fill-rule:evenodd;" d="M 112.2000,56.7500 112.1810,56.8457 112.1268,56.9268 112.0457,56.9810 111.9500,57.0000 110.8500,57.0000 110.7543,56.9810 110.6732,56.9268 110.6190,56.8457 110.6000,56.7500 110.6000,54.2500 110.6190,54.1543 110.6732,54.0732 110.7543,54.0190 110.8500,54.0000 111.9500,54.0000 112.0457,54.0190 112.1268,54.0732 112.1810,54.1543 112.2000,54.2500 Z"/> 
<path style="fill:#000000; fill-opacity:1.0000; stroke:none;fill-rule:evenodd;" d="M 103.4000,56.7500 103.3810,56.8457 103.3268,56.9268 103.2457,56.9810 103.1500,57.0000 102.0500,57.0000 101.9543,56.9810 101.8732,56.9268 101.8190,56.8457 101.8000,56.7500 101.8000,54.2500 101.8190,54.1543 101.8732,54.0732 101.9543,54.0190 102.0500,54.0000 103.1500,54.0000 103.2457,54.0190 103.3268,54.0732 103.3810,54.1543 103.4000,54.2500 Z"/> 
</g> 
</mask></defs><g transform="scale(-1,1) translate(-297.0022,0)" id="boardContainer"><g id="substrate" clip-path="url(#cut-off)" mask="url(#pads-mask-silkscreen)"><g id="substrate-board" style="fill:#143324; fill-opacity:0.25098039215686274; stroke:#143324; stroke-width:0;"><path d="M127.2000 124.2000 L127.2000 78.2000 M 112.0 136.0 L 189.0 136.0 A 1 1 0 0 0 190.0 135.0 L 190.0 133.0 A 3 3 0 0 1 193.0 130.0 A 1 1 0 0 0 194.0 129.0 L 194.0 32.0 A 1 1 0 0 0 193.0 31.0 A 3 3 0 0 1 190.0 28.0 L 190.0 26.0 A 1 1 0 0 0 189.0 25.0 L 124.2 25.0 L 112.0 25.0 A 5 5 0 0 1 102.0 25.0 L 94.2 25.0 L 25.0 25.0 A 1 1 0 0 0 24.0 26.0 L 24.0 28.0 A 3 3 0 0 1 21.0 31.0 A 1 1 0 0 0 20.0 32.0 L 20.0 129.0 A 1 1 0 0 0 21.0 130.0 A 3 3 0 0 1 24.0 133.0 L 24.0 135.0 A 1 1 0 0 0 25.0 136.0 L 112.0 136.0  M 86.8 78.2 L 86.8 124.2 L 52.2 124.2 L 52.2 78.2 L 86.8 78.2  M 161.8 78.2 L 161.8 124.2 L 127.2 124.2 L 127.2 78.2 L 161.8 78.2 " style="fill-rule: evenodd;"/><g style="fill: none;stroke: #4ca06c;stroke-width: 0.1000;stroke-opacity: 1;stroke-linecap: round;stroke-linejoin: round">
<path d="M25.0000 136.0000 L112.0000 136.0000 "/>
<circle cx="182.0000" cy="124.0000" r="6.1000"/> 
<path d="M25.0000 25.0000 A1.0000 1.0000 0.0 0 0 24.0000 26.0000"/>
<path d="M21.0000 31.0000 A1.0000 1.0000 0.0 0 0 20.0000 32.0000"/>
<path d="M124.2000 25.0000 L189.0000 25.0000 "/>
<path d="M24.0000 133.0000 L24.0000 135.0000 "/>
<path d="M190.0000 26.0000 L190.0000 28.0000 "/>
<path d="M194.0000 32.0000 A1.0000 1.0000 0.0 0 0 193.0000 31.0000"/>
<path d="M20.0000 129.0000 A1.0000 1.0000 0.0 0 0 21.0000 130.0000"/>
<path d="M102.0000 25.0000 A5.0000 5.0000 0.0 0 0 112.0000 25.0000"/>
<path d="M112.0000 136.0000 L189.0000 136.0000 "/>
<circle cx="145.0000" cy="39.0000" r="6.1000"/> 
<path d="M21.0000 31.0000 A3.0000 3.0000 0.0 0 0 24.0000 28.0000"/>
<path d="M94.2000 25.0000 L102.0000 25.0000 "/>
<circle cx="70.0000" cy="39.0000" r="6.1000"/> 
<circle cx="182.0000" cy="72.0000" r="6.1000"/> 
<circle cx="32.0000" cy="124.0000" r="6.1000"/> 
<circle cx="107.0000" cy="72.0000" r="6.1000"/> 
<path d="M194.0000 32.0000 L194.0000 129.0000 "/>
<path d="M189.0000 136.0000 A1.0000 1.0000 0.0 0 0 190.0000 135.0000"/>
<circle cx="32.0000" cy="72.0000" r="6.1000"/> 
<path d="M112.0000 25.0000 L124.2000 25.0000 "/>
<path d="M24.0000 135.0000 A1.0000 1.0000 0.0 0 0 25.0000 136.0000"/>
<path d="M193.0000 130.0000 A1.0000 1.0000 0.0 0 0 194.0000 129.0000"/>
<path d="M190.0000 26.0000 A1.0000 1.0000 0.0 0 0 189.0000 25.0000"/>
<path d="M190.0000 28.0000 A3.0000 3.0000 0.0 0 0 193.0000 31.0000"/>
<path d="M20.0000 129.0000 L20.0000 32.0000 "/>
<path d="M94.2000 25.0000 L25.0000 25.0000 "/>
<path d="M190.0000 133.0000 L190.0000 135.0000 "/>
<path d="M193.0000 130.0000 A3.0000 3.0000 0.0 0 0 190.0000 133.0000"/>
<path d="M24.0000 26.0000 L24.0000 28.0000 "/>
<circle cx="107.0000" cy="124.0000" r="6.1000"/> 
<path d="M24.0000 133.0000 A3.0000 3.0000 0.0 0 0 21.0000 130.0000"/>
<path style="fill: none;stroke: #4ca06c;stroke-width: 0.0500;stroke-opacity: 1;stroke-linecap: round;stroke-linejoin: round" d="M 52.2000,78.2000 86.8000,78.2000 86.8000,124.2000 52.2000,124.2000 Z"/> 
<path style="fill: none;stroke: #4ca06c;stroke-width: 0.0500;stroke-opacity: 1;stroke-linecap: round;stroke-linejoin: round" d="M 127.2000,78.2000 161.8000,78.2000 161.8000,124.2000 127.2000,124.2000 Z"/> 
</g> 
</g></g></g></svg>
