<?xml version="1.0" standalone="no"?>
 <!DOCTYPE svg PUBLIC "-//W3C//DTD SVG 1.1//EN" 
 "http://www.w3.org/Graphics/SVG/1.1/DTD/svg11.dtd"> 
<svg
  xmlns:svg="http://www.w3.org/2000/svg"
  xmlns="http://www.w3.org/2000/svg"
  xmlns:xlink="http://www.w3.org/1999/xlink"
  version="1.1"
  width="297.0022mm" height="210.0072mm" viewBox="0.0000 0.0000 297.0022 210.0072">
<title>SVG Image created as pedalboard-display-F_Courtyard.svg date 2024/10/16 16:59:28 </title>
  <desc>Image generated by PCBNEW </desc>
<g style="fill:#000000; fill-opacity:1.0000;stroke:#000000; stroke-opacity:1.0000;
stroke-linecap:round; stroke-linejoin:round;"
 transform="translate(0 0) scale(1 1)">
</g>
<g style="fill:none; 
stroke:#000000; stroke-width:0.0500; stroke-opacity:1; 
stroke-linecap:round; stroke-linejoin:round;">
<circle cx="192.2000" cy="33.0000" r="1.2500" /> 
<path d="M63.3366 31.3746
L64.1334 30.9146
" />
<path d="M64.1334 30.9146
L65.0434 32.4908
" />
<path d="M64.2466 32.9508
L63.3366 31.3746
" />
<path d="M65.0434 32.4908
L64.2466 32.9508
" />
<path d="M115.0900 70.0700
L116.9100 70.0700
" />
<path d="M115.0900 70.9900
L115.0900 70.0700
" />
<path d="M116.9100 70.0700
L116.9100 70.9900
" />
<path d="M116.9100 70.9900
L115.0900 70.9900
" />
<path d="M185.1340 131.4282
L186.8660 130.4282
" />
<path d="M186.1340 133.1603
L185.1340 131.4282
" />
<path d="M186.8660 130.4282
L187.8660 132.1603
" />
<path d="M187.8660 132.1603
L186.1340 133.1603
" />
<path d="M35.1340 79.4282
L36.8660 78.4282
" />
<path d="M36.1340 81.1603
L35.1340 79.4282
" />
<path d="M36.8660 78.4282
L37.8660 80.1603
" />
<path d="M37.8660 80.1603
L36.1340 81.1603
" />
<path d="M181.0000 132.0000
L183.0000 132.0000
" />
<path d="M181.0000 134.0000
L181.0000 132.0000
" />
<path d="M183.0000 132.0000
L183.0000 134.0000
" />
<path d="M183.0000 134.0000
L181.0000 134.0000
" />
<path d="M148.1340 46.4282
L149.8660 45.4282
" />
<path d="M149.1340 48.1603
L148.1340 46.4282
" />
<path d="M149.8660 45.4282
L150.8660 47.1603
" />
<path d="M150.8660 47.1603
L149.1340 48.1603
" />
<path d="M115.0000 71.0000
L117.0000 71.0000
" />
<path d="M115.0000 73.0000
L115.0000 71.0000
" />
<path d="M117.0000 71.0000
L117.0000 73.0000
" />
<path d="M117.0000 73.0000
L115.0000 73.0000
" />
<path d="M143.0400 29.1500
L143.9600 29.1500
" />
<path d="M143.0400 30.9700
L143.0400 29.1500
" />
<path d="M143.9600 29.1500
L143.9600 30.9700
" />
<path d="M143.9600 30.9700
L143.0400 30.9700
" />
<path d="M23.9819 77.8066
L25.5581 76.8966
" />
<path d="M24.4419 78.6034
L23.9819 77.8066
" />
<path d="M25.5581 76.8966
L26.0181 77.6934
" />
<path d="M26.0181 77.6934
L24.4419 78.6034
" />
<path d="M110.1340 79.4282
L111.8660 78.4282
" />
<path d="M111.1340 81.1603
L110.1340 79.4282
" />
<path d="M111.8660 78.4282
L112.8660 80.1603
" />
<path d="M112.8660 80.1603
L111.1340 81.1603
" />
<path d="M173.9819 129.8066
L175.5581 128.8966
" />
<path d="M174.4419 130.6034
L173.9819 129.8066
" />
<path d="M175.5581 128.8966
L176.0181 129.6934
" />
<path d="M176.0181 129.6934
L174.4419 130.6034
" />
<path d="M40.0000 71.0000
L42.0000 71.0000
" />
<path d="M40.0000 73.0000
L40.0000 71.0000
" />
<path d="M42.0000 71.0000
L42.0000 73.0000
" />
<path d="M42.0000 73.0000
L40.0000 73.0000
" />
<path d="M138.3366 31.3746
L139.1334 30.9146
" />
<path d="M139.1334 30.9146
L140.0434 32.4908
" />
<path d="M139.2466 32.9508
L138.3366 31.3746
" />
<path d="M140.0434 32.4908
L139.2466 32.9508
" />
<path d="M190.0900 70.0700
L191.9100 70.0700
" />
<path d="M190.0900 70.9900
L190.0900 70.0700
" />
<path d="M191.9100 70.0700
L191.9100 70.9900
" />
<path d="M191.9100 70.9900
L190.0900 70.9900
" />
<path d="M113.4282 128.8660
L114.4282 127.1340
" />
<path d="M114.4282 127.1340
L116.1603 128.1340
" />
<path d="M115.1603 129.8660
L113.4282 128.8660
" />
<path d="M116.1603 128.1340
L115.1603 129.8660
" />
<path d="M38.4282 119.1340
L40.1603 118.1340
" />
<path d="M39.4282 120.8660
L38.4282 119.1340
" />
<path d="M40.1603 118.1340
L41.1603 119.8660
" />
<path d="M41.1603 119.8660
L39.4282 120.8660
" />
<path d="M69.0000 29.0000
L71.0000 29.0000
" />
<path d="M69.0000 31.0000
L69.0000 29.0000
" />
<path d="M71.0000 29.0000
L71.0000 31.0000
" />
<path d="M71.0000 31.0000
L69.0000 31.0000
" />
<path d="M97.8397 67.8660
L98.8397 66.1340
" />
<path d="M98.8397 66.1340
L100.5718 67.1340
" />
<path d="M99.5718 68.8660
L97.8397 67.8660
" />
<path d="M100.5718 67.1340
L99.5718 68.8660
" />
<path d="M115.0000 123.0000
L117.0000 123.0000
" />
<path d="M115.0000 125.0000
L115.0000 123.0000
" />
<path d="M117.0000 123.0000
L117.0000 125.0000
" />
<path d="M117.0000 125.0000
L115.0000 125.0000
" />
<path d="M153.0000 38.0000
L155.0000 38.0000
" />
<path d="M153.0000 40.0000
L153.0000 38.0000
" />
<path d="M155.0000 38.0000
L155.0000 40.0000
" />
<path d="M155.0000 40.0000
L153.0000 40.0000
" />
<path d="M185.1340 64.5718
L186.1340 62.8397
" />
<path d="M186.1340 62.8397
L187.8660 63.8397
" />
<path d="M186.8660 65.5718
L185.1340 64.5718
" />
<path d="M187.8660 63.8397
L186.8660 65.5718
" />
<path d="M172.0900 125.0400
L173.9100 125.0400
" />
<path d="M172.0900 125.9600
L172.0900 125.0400
" />
<path d="M173.9100 125.0400
L173.9100 125.9600
" />
<path d="M173.9100 125.9600
L172.0900 125.9600
" />
<path d="M144.0000 29.0000
L146.0000 29.0000
" />
<path d="M144.0000 31.0000
L144.0000 29.0000
" />
<path d="M146.0000 29.0000
L146.0000 31.0000
" />
<path d="M146.0000 31.0000
L144.0000 31.0000
" />
<path d="M175.3366 64.3747
L176.1334 63.9146
" />
<path d="M176.1334 63.9146
L177.0434 65.4908
" />
<path d="M176.2466 65.9508
L175.3366 64.3747
" />
<path d="M177.0434 65.4908
L176.2466 65.9508
" />
<path d="M31.0000 80.0000
L33.0000 80.0000
" />
<path d="M31.0000 82.0000
L31.0000 80.0000
" />
<path d="M33.0000 80.0000
L33.0000 82.0000
" />
<path d="M33.0000 82.0000
L31.0000 82.0000
" />
<path d="M22.4819 68.7434
L22.9419 67.9466
" />
<path d="M22.9419 67.9466
L24.5181 68.8566
" />
<path d="M24.0581 69.6534
L22.4819 68.7434
" />
<path d="M24.5181 68.8566
L24.0581 69.6534
" />
<path d="M151.4282 43.8660
L152.4282 42.1340
" />
<path d="M152.4282 42.1340
L154.1603 43.1340
" />
<path d="M153.1603 44.8660
L151.4282 43.8660
" />
<path d="M154.1603 43.1340
L153.1603 44.8660
" />
<path d="M97.8397 119.8660
L98.8397 118.1340
" />
<path d="M98.8397 118.1340
L100.5718 119.1340
" />
<path d="M99.5718 120.8660
L97.8397 119.8660
" />
<path d="M100.5718 119.1340
L99.5718 120.8660
" />
<path d="M135.8397 43.1340
L137.5718 42.1340
" />
<path d="M136.8397 44.8660
L135.8397 43.1340
" />
<path d="M137.5718 42.1340
L138.5718 43.8660
" />
<path d="M138.5718 43.8660
L136.8397 44.8660
" />
<path d="M112.9819 118.3066
L114.5581 117.3966
" />
<path d="M113.4419 119.1034
L112.9819 118.3066
" />
<path d="M114.5581 117.3966
L115.0181 118.1934
" />
<path d="M115.0181 118.1934
L113.4419 119.1034
" />
<path d="M144.0000 47.0000
L146.0000 47.0000
" />
<path d="M144.0000 49.0000
L144.0000 47.0000
" />
<path d="M146.0000 47.0000
L146.0000 49.0000
" />
<path d="M146.0000 49.0000
L144.0000 49.0000
" />
<path d="M110.1340 116.5718
L111.1340 114.8397
" />
<path d="M111.1340 114.8397
L112.8660 115.8397
" />
<path d="M111.8660 117.5718
L110.1340 116.5718
" />
<path d="M112.8660 115.8397
L111.8660 117.5718
" />
<path d="M135.0000 38.0000
L137.0000 38.0000
" />
<path d="M135.0000 40.0000
L135.0000 38.0000
" />
<path d="M137.0000 38.0000
L137.0000 40.0000
" />
<path d="M137.0000 40.0000
L135.0000 40.0000
" />
<path d="M173.9819 77.8066
L175.5581 76.8966
" />
<path d="M174.4419 78.6034
L173.9819 77.8066
" />
<path d="M175.5581 76.8966
L176.0181 77.6934
" />
<path d="M176.0181 77.6934
L174.4419 78.6034
" />
<path d="M135.8397 34.8660
L136.8397 33.1340
" />
<path d="M136.8397 33.1340
L138.5718 34.1340
" />
<path d="M137.5718 35.8660
L135.8397 34.8660
" />
<path d="M138.5718 34.1340
L137.5718 35.8660
" />
<circle cx="170.0000" cy="133.0000" r="2.7500" /> 
<circle cx="187.0000" cy="28.0000" r="2.7500" /> 
<path d="M181.0000 62.0000
L183.0000 62.0000
" />
<path d="M181.0000 64.0000
L181.0000 62.0000
" />
<path d="M183.0000 62.0000
L183.0000 64.0000
" />
<path d="M183.0000 64.0000
L181.0000 64.0000
" />
<path d="M101.1340 63.8397
L102.8660 62.8397
" />
<path d="M102.1340 65.5718
L101.1340 63.8397
" />
<path d="M102.8660 62.8397
L103.8660 64.5718
" />
<path d="M103.8660 64.5718
L102.1340 65.5718
" />
<circle cx="22.0000" cy="33.0000" r="1.2500" /> 
<path d="M172.0900 73.0400
L173.9100 73.0400
" />
<path d="M172.0900 73.9600
L172.0900 73.0400
" />
<path d="M173.9100 73.0400
L173.9100 73.9600
" />
<path d="M173.9100 73.9600
L172.0900 73.9600
" />
<path d="M73.1340 46.4282
L74.8660 45.4282
" />
<path d="M74.1340 48.1603
L73.1340 46.4282
" />
<path d="M74.8660 45.4282
L75.8660 47.1603
" />
<path d="M75.8660 47.1603
L74.1340 48.1603
" />
<path d="M22.8397 128.1340
L24.5718 127.1340
" />
<path d="M23.8397 129.8660
L22.8397 128.1340
" />
<path d="M24.5718 127.1340
L25.5718 128.8660
" />
<path d="M25.5718 128.8660
L23.8397 129.8660
" />
<path d="M36.9466 130.5092
L37.7434 130.0492
" />
<path d="M37.7434 130.0492
L38.6534 131.6253
" />
<path d="M37.8566 132.0854
L36.9466 130.5092
" />
<path d="M38.6534 131.6253
L37.8566 132.0854
" />
<path d="M184.3466 116.0581
L185.2566 114.4819
" />
<path d="M185.1434 116.5181
L184.3466 116.0581
" />
<path d="M185.2566 114.4819
L186.0534 114.9419
" />
<path d="M186.0534 114.9419
L185.1434 116.5181
" />
<path d="M60.0000 38.0000
L62.0000 38.0000
" />
<path d="M60.0000 40.0000
L60.0000 38.0000
" />
<path d="M62.0000 38.0000
L62.0000 40.0000
" />
<path d="M62.0000 40.0000
L60.0000 40.0000
" />
<path d="M60.4819 35.7434
L60.9419 34.9466
" />
<path d="M60.9419 34.9466
L62.5181 35.8566
" />
<path d="M62.0581 36.6534
L60.4819 35.7434
" />
<path d="M62.5181 35.8566
L62.0581 36.6534
" />
<path d="M97.4819 120.7434
L97.9419 119.9466
" />
<path d="M97.9419 119.9466
L99.5181 120.8566
" />
<path d="M99.0581 121.6534
L97.4819 120.7434
" />
<path d="M99.5181 120.8566
L99.0581 121.6534
" />
<path d="M181.0000 80.0000
L183.0000 80.0000
" />
<path d="M181.0000 82.0000
L181.0000 80.0000
" />
<path d="M183.0000 80.0000
L183.0000 82.0000
" />
<path d="M183.0000 82.0000
L181.0000 82.0000
" />
<path d="M113.4282 67.1340
L115.1603 66.1340
" />
<path d="M114.4282 68.8660
L113.4282 67.1340
" />
<path d="M115.1603 66.1340
L116.1603 67.8660
" />
<path d="M116.1603 67.8660
L114.4282 68.8660
" />
<path d="M135.0900 40.0400
L136.9100 40.0400
" />
<path d="M135.0900 40.9600
L135.0900 40.0400
" />
<path d="M136.9100 40.0400
L136.9100 40.9600
" />
<path d="M136.9100 40.9600
L135.0900 40.9600
" />
<path d="M105.0400 62.1500
L105.9600 62.1500
" />
<path d="M105.0400 63.9700
L105.0400 62.1500
" />
<path d="M105.9600 62.1500
L105.9600 63.9700
" />
<path d="M105.9600 63.9700
L105.0400 63.9700
" />
<path d="M31.0000 132.0000
L33.0000 132.0000
" />
<path d="M31.0000 134.0000
L31.0000 132.0000
" />
<path d="M33.0000 132.0000
L33.0000 134.0000
" />
<path d="M33.0000 134.0000
L31.0000 134.0000
" />
<path d="M185.1340 79.4282
L186.8660 78.4282
" />
<path d="M186.1340 81.1603
L185.1340 79.4282
" />
<path d="M186.8660 78.4282
L187.8660 80.1603
" />
<path d="M187.8660 80.1603
L186.1340 81.1603
" />
<path d="M176.1340 80.1603
L177.1340 78.4282
" />
<path d="M177.1340 78.4282
L178.8660 79.4282
" />
<path d="M177.8660 81.1603
L176.1340 80.1603
" />
<path d="M178.8660 79.4282
L177.8660 81.1603
" />
<path d="M31.0000 114.0000
L33.0000 114.0000
" />
<path d="M31.0000 116.0000
L31.0000 114.0000
" />
<path d="M33.0000 114.0000
L33.0000 116.0000
" />
<path d="M33.0000 116.0000
L31.0000 116.0000
" />
<path d="M101.1340 132.1603
L102.1340 130.4282
" />
<path d="M102.1340 130.4282
L103.8660 131.4282
" />
<path d="M102.8660 133.1603
L101.1340 132.1603
" />
<path d="M103.8660 131.4282
L102.8660 133.1603
" />
<path d="M190.0900 122.0700
L191.9100 122.0700
" />
<path d="M190.0900 122.9900
L190.0900 122.0700
" />
<path d="M191.9100 122.0700
L191.9100 122.9900
" />
<path d="M191.9100 122.9900
L190.0900 122.9900
" />
<path d="M40.0900 70.0700
L41.9100 70.0700
" />
<path d="M40.0900 70.9900
L40.0900 70.0700
" />
<path d="M41.9100 70.0700
L41.9100 70.9900
" />
<path d="M41.9100 70.9900
L40.0900 70.9900
" />
<path d="M189.5319 127.1934
L189.9919 126.3966
" />
<path d="M189.9919 126.3966
L191.5681 127.3066
" />
<path d="M191.1081 128.1034
L189.5319 127.1934
" />
<path d="M191.5681 127.3066
L191.1081 128.1034
" />
<path d="M190.0000 71.0000
L192.0000 71.0000
" />
<path d="M190.0000 73.0000
L190.0000 71.0000
" />
<path d="M192.0000 71.0000
L192.0000 73.0000
" />
<path d="M192.0000 73.0000
L190.0000 73.0000
" />
<path d="M27.9466 133.0581
L28.8566 131.4819
" />
<path d="M28.7434 133.5181
L27.9466 133.0581
" />
<path d="M28.8566 131.4819
L29.6534 131.9419
" />
<path d="M29.6534 131.9419
L28.7434 133.5181
" />
<path d="M177.9466 81.0581
L178.8566 79.4819
" />
<path d="M178.7434 81.5181
L177.9466 81.0581
" />
<path d="M178.8566 79.4819
L179.6534 79.9419
" />
<path d="M179.6534 79.9419
L178.7434 81.5181
" />
<path d="M35.1340 131.4282
L36.8660 130.4282
" />
<path d="M36.1340 133.1603
L35.1340 131.4282
" />
<path d="M36.8660 130.4282
L37.8660 132.1603
" />
<path d="M37.8660 132.1603
L36.1340 133.1603
" />
<path d="M136.9819 44.8066
L138.5581 43.8966
" />
<path d="M137.4419 45.6034
L136.9819 44.8066
" />
<path d="M138.5581 43.8966
L139.0181 44.6934
" />
<path d="M139.0181 44.6934
L137.4419 45.6034
" />
<path d="M76.4282 43.8660
L77.4282 42.1340
" />
<path d="M77.4282 42.1340
L79.1603 43.1340
" />
<path d="M78.1603 44.8660
L76.4282 43.8660
" />
<path d="M79.1603 43.1340
L78.1603 44.8660
" />
<path d="M92.5400 52.0900
L93.4600 52.0900
" />
<path d="M92.5400 53.9100
L92.5400 52.0900
" />
<path d="M93.4600 52.0900
L93.4600 53.9100
" />
<path d="M93.4600 53.9100
L92.5400 53.9100
" />
<path d="M37.9819 118.3066
L39.5581 117.3966
" />
<path d="M38.4419 119.1034
L37.9819 118.3066
" />
<path d="M39.5581 117.3966
L40.0181 118.1934
" />
<path d="M40.0181 118.1934
L38.4419 119.1034
" />
<path d="M172.8397 67.8660
L173.8397 66.1340
" />
<path d="M173.8397 66.1340
L175.5718 67.1340
" />
<path d="M174.5718 68.8660
L172.8397 67.8660
" />
<path d="M175.5718 67.1340
L174.5718 68.8660
" />
<path d="M40.0000 123.0000
L42.0000 123.0000
" />
<path d="M40.0000 125.0000
L40.0000 123.0000
" />
<path d="M42.0000 123.0000
L42.0000 125.0000
" />
<path d="M42.0000 125.0000
L40.0000 125.0000
" />
<path d="M140.9466 48.0581
L141.8566 46.4819
" />
<path d="M141.7434 48.5181
L140.9466 48.0581
" />
<path d="M141.8566 46.4819
L142.6534 46.9419
" />
<path d="M142.6534 46.9419
L141.7434 48.5181
" />
<circle cx="54.5000" cy="75.2000" r="1.8000" /> 
<circle cx="54.5000" cy="127.2000" r="1.8000" /> 
<circle cx="84.5000" cy="75.2000" r="1.8000" /> 
<circle cx="84.5000" cy="127.2000" r="1.8000" /> 
<path d="M172.0000 71.0000
L174.0000 71.0000
" />
<path d="M172.0000 73.0000
L172.0000 71.0000
" />
<path d="M174.0000 71.0000
L174.0000 73.0000
" />
<path d="M174.0000 73.0000
L172.0000 73.0000
" />
<path d="M64.1340 30.8397
L65.8660 29.8397
" />
<path d="M65.1340 32.5718
L64.1340 30.8397
" />
<path d="M65.8660 29.8397
L66.8660 31.5718
" />
<path d="M66.8660 31.5718
L65.1340 32.5718
" />
<path d="M22.8397 67.8660
L23.8397 66.1340
" />
<path d="M23.8397 66.1340
L25.5718 67.1340
" />
<path d="M24.5718 68.8660
L22.8397 67.8660
" />
<path d="M25.5718 67.1340
L24.5718 68.8660
" />
<path d="M106.0000 132.0000
L108.0000 132.0000
" />
<path d="M106.0000 134.0000
L106.0000 132.0000
" />
<path d="M108.0000 132.0000
L108.0000 134.0000
" />
<path d="M108.0000 134.0000
L106.0000 134.0000
" />
<path d="M172.4819 68.7434
L172.9419 67.9466
" />
<path d="M172.9419 67.9466
L174.5181 68.8566
" />
<path d="M174.0581 69.6534
L172.4819 68.7434
" />
<path d="M174.5181 68.8566
L174.0581 69.6534
" />
<path d="M106.0000 80.0000
L108.0000 80.0000
" />
<path d="M106.0000 82.0000
L106.0000 80.0000
" />
<path d="M108.0000 80.0000
L108.0000 82.0000
" />
<path d="M108.0000 82.0000
L106.0000 82.0000
" />
<circle cx="44.0000" cy="133.0000" r="2.7500" /> 
<path d="M190.0000 123.0000
L192.0000 123.0000
" />
<path d="M190.0000 125.0000
L190.0000 123.0000
" />
<path d="M192.0000 123.0000
L192.0000 125.0000
" />
<path d="M192.0000 125.0000
L190.0000 125.0000
" />
<path d="M69.0000 47.0000
L71.0000 47.0000
" />
<path d="M69.0000 49.0000
L69.0000 47.0000
" />
<path d="M71.0000 47.0000
L71.0000 49.0000
" />
<path d="M71.0000 49.0000
L69.0000 49.0000
" />
<path d="M77.5319 42.1934
L77.9919 41.3966
" />
<path d="M77.9919 41.3966
L79.5681 42.3066
" />
<path d="M79.1081 43.1034
L77.5319 42.1934
" />
<path d="M79.5681 42.3066
L79.1081 43.1034
" />
<path d="M97.0900 73.0400
L98.9100 73.0400
" />
<path d="M97.0900 73.9600
L97.0900 73.0400
" />
<path d="M98.9100 73.0400
L98.9100 73.9600
" />
<path d="M98.9100 73.9600
L97.0900 73.9600
" />
<path d="M34.3466 116.0581
L35.2566 114.4819
" />
<path d="M35.1434 116.5181
L34.3466 116.0581
" />
<path d="M35.2566 114.4819
L36.0534 114.9419
" />
<path d="M36.0534 114.9419
L35.1434 116.5181
" />
<path d="M149.9466 45.5092
L150.7434 45.0492
" />
<path d="M150.7434 45.0492
L151.6534 46.6253
" />
<path d="M150.8566 47.0853
L149.9466 45.5092
" />
<path d="M151.6534 46.6253
L150.8566 47.0853
" />
<path d="M187.9819 118.3066
L189.5581 117.3966
" />
<path d="M188.4419 119.1034
L187.9819 118.3066
" />
<path d="M189.5581 117.3966
L190.0181 118.1934
" />
<path d="M190.0181 118.1934
L188.4419 119.1034
" />
<path d="M97.0900 125.0400
L98.9100 125.0400
" />
<path d="M97.0900 125.9600
L97.0900 125.0400
" />
<path d="M98.9100 125.0400
L98.9100 125.9600
" />
<path d="M98.9100 125.9600
L97.0900 125.9600
" />
<path d="M26.1340 63.8397
L27.8660 62.8397
" />
<path d="M27.1340 65.5718
L26.1340 63.8397
" />
<path d="M27.8660 62.8397
L28.8660 64.5718
" />
<path d="M28.8660 64.5718
L27.1340 65.5718
" />
<path d="M37.9819 66.3066
L39.5581 65.3966
" />
<path d="M38.4419 67.1034
L37.9819 66.3066
" />
<path d="M39.5581 65.3966
L40.0181 66.1934
" />
<path d="M40.0181 66.1934
L38.4419 67.1034
" />
<circle cx="107.0000" cy="103.0000" r="2.7500" /> 
<path d="M180.0400 62.1500
L180.9600 62.1500
" />
<path d="M180.0400 63.9700
L180.0400 62.1500
" />
<path d="M180.9600 62.1500
L180.9600 63.9700
" />
<path d="M180.9600 63.9700
L180.0400 63.9700
" />
<path d="M172.0000 123.0000
L174.0000 123.0000
" />
<path d="M172.0000 125.0000
L172.0000 123.0000
" />
<path d="M174.0000 123.0000
L174.0000 125.0000
" />
<path d="M174.0000 125.0000
L172.0000 125.0000
" />
<circle cx="188.5000" cy="134.5000" r="1.2500" /> 
<path d="M109.3466 64.0581
L110.2566 62.4819
" />
<path d="M110.1434 64.5181
L109.3466 64.0581
" />
<path d="M110.2566 62.4819
L111.0534 62.9419
" />
<path d="M111.0534 62.9419
L110.1434 64.5181
" />
<path d="M111.9466 78.5092
L112.7434 78.0492
" />
<path d="M112.7434 78.0492
L113.6534 79.6253
" />
<path d="M112.8566 80.0853
L111.9466 78.5092
" />
<path d="M113.6534 79.6253
L112.8566 80.0853
" />
<path d="M176.1340 63.8397
L177.8660 62.8397
" />
<path d="M177.1340 65.5718
L176.1340 63.8397
" />
<path d="M177.8660 62.8397
L178.8660 64.5718
" />
<path d="M178.8660 64.5718
L177.1340 65.5718
" />
<path d="M38.4282 67.1340
L40.1603 66.1340
" />
<path d="M39.4282 68.8660
L38.4282 67.1340
" />
<path d="M40.1603 66.1340
L41.1603 67.8660
" />
<path d="M41.1603 67.8660
L39.4282 68.8660
" />
<circle cx="27.0000" cy="28.0000" r="2.7500" /> 
<path d="M110.1340 64.5718
L111.1340 62.8397
" />
<path d="M111.1340 62.8397
L112.8660 63.8397
" />
<path d="M111.8660 65.5718
L110.1340 64.5718
" />
<path d="M112.8660 63.8397
L111.8660 65.5718
" />
<path d="M109.3466 116.0581
L110.2566 114.4819
" />
<path d="M110.1434 116.5181
L109.3466 116.0581
" />
<path d="M110.2566 114.4819
L111.0534 114.9419
" />
<path d="M111.0534 114.9419
L110.1434 116.5181
" />
<path d="M78.0900 37.0700
L79.9100 37.0700
" />
<path d="M78.0900 37.9900
L78.0900 37.0700
" />
<path d="M79.9100 37.0700
L79.9100 37.9900
" />
<path d="M79.9100 37.9900
L78.0900 37.9900
" />
<path d="M181.0000 114.0000
L183.0000 114.0000
" />
<path d="M181.0000 116.0000
L181.0000 114.0000
" />
<path d="M183.0000 114.0000
L183.0000 116.0000
" />
<path d="M183.0000 116.0000
L181.0000 116.0000
" />
<path d="M135.4819 35.7434
L135.9419 34.9466
" />
<path d="M135.9419 34.9466
L137.5181 35.8566
" />
<path d="M137.0581 36.6534
L135.4819 35.7434
" />
<path d="M137.5181 35.8566
L137.0581 36.6534
" />
<path d="M22.0900 73.0400
L23.9100 73.0400
" />
<path d="M22.0900 73.9600
L22.0900 73.0400
" />
<path d="M23.9100 73.0400
L23.9100 73.9600
" />
<path d="M23.9100 73.9600
L22.0900 73.9600
" />
<path d="M97.0000 71.0000
L99.0000 71.0000
" />
<path d="M97.0000 73.0000
L97.0000 71.0000
" />
<path d="M99.0000 71.0000
L99.0000 73.0000
" />
<path d="M99.0000 73.0000
L97.0000 73.0000
" />
<path d="M98.9819 129.8066
L100.5581 128.8966
" />
<path d="M99.4419 130.6034
L98.9819 129.8066
" />
<path d="M100.5581 128.8966
L101.0181 129.6934
" />
<path d="M101.0181 129.6934
L99.4419 130.6034
" />
<path d="M146.0400 47.1200
L146.9600 47.1200
" />
<path d="M146.0400 48.9400
L146.0400 47.1200
" />
<path d="M146.9600 47.1200
L146.9600 48.9400
" />
<path d="M146.9600 48.9400
L146.0400 48.9400
" />
<path d="M175.3366 116.3746
L176.1334 115.9146
" />
<path d="M176.1334 115.9146
L177.0434 117.4908
" />
<path d="M176.2466 117.9508
L175.3366 116.3746
" />
<path d="M177.0434 117.4908
L176.2466 117.9508
" />
<path d="M113.4282 119.1340
L115.1603 118.1340
" />
<path d="M114.4282 120.8660
L113.4282 119.1340
" />
<path d="M115.1603 118.1340
L116.1603 119.8660
" />
<path d="M116.1603 119.8660
L114.4282 120.8660
" />
<path d="M30.0400 62.1500
L30.9600 62.1500
" />
<path d="M30.0400 63.9700
L30.0400 62.1500
" />
<path d="M30.9600 62.1500
L30.9600 63.9700
" />
<path d="M30.9600 63.9700
L30.0400 63.9700
" />
<path d="M34.3466 64.0581
L35.2566 62.4819
" />
<path d="M35.1434 64.5181
L34.3466 64.0581
" />
<path d="M35.2566 62.4819
L36.0534 62.9419
" />
<path d="M36.0534 62.9419
L35.1434 64.5181
" />
<path d="M105.0400 114.1500
L105.9600 114.1500
" />
<path d="M105.0400 115.9700
L105.0400 114.1500
" />
<path d="M105.9600 114.1500
L105.9600 115.9700
" />
<path d="M105.9600 115.9700
L105.0400 115.9700
" />
<path d="M75.9819 33.3066
L77.5581 32.3966
" />
<path d="M76.4419 34.1034
L75.9819 33.3066
" />
<path d="M77.5581 32.3966
L78.0181 33.1934
" />
<path d="M78.0181 33.1934
L76.4419 34.1034
" />
<path d="M36.9466 78.5092
L37.7434 78.0492
" />
<path d="M37.7434 78.0492
L38.6534 79.6253
" />
<path d="M37.8566 80.0853
L36.9466 78.5092
" />
<path d="M38.6534 79.6253
L37.8566 80.0853
" />
<path d="M35.1340 64.5718
L36.1340 62.8397
" />
<path d="M36.1340 62.8397
L37.8660 63.8397
" />
<path d="M36.8660 65.5718
L35.1340 64.5718
" />
<path d="M37.8660 63.8397
L36.8660 65.5718
" />
<path d="M60.8397 34.8660
L61.8397 33.1340
" />
<path d="M61.8397 33.1340
L63.5718 34.1340
" />
<path d="M62.5718 35.8660
L60.8397 34.8660
" />
<path d="M63.5718 34.1340
L62.5718 35.8660
" />
<path d="M22.4819 120.7434
L22.9419 119.9466
" />
<path d="M22.9419 119.9466
L24.5181 120.8566
" />
<path d="M24.0581 121.6534
L22.4819 120.7434
" />
<path d="M24.5181 120.8566
L24.0581 121.6534
" />
<path d="M30.0400 114.1500
L30.9600 114.1500
" />
<path d="M30.0400 115.9700
L30.0400 114.1500
" />
<path d="M30.9600 114.1500
L30.9600 115.9700
" />
<path d="M30.9600 115.9700
L30.0400 115.9700
" />
<path d="M172.8397 119.8660
L173.8397 118.1340
" />
<path d="M173.8397 118.1340
L175.5718 119.1340
" />
<path d="M174.5718 120.8660
L172.8397 119.8660
" />
<path d="M175.5718 119.1340
L174.5718 120.8660
" />
<path d="M114.5319 75.1934
L114.9919 74.3966
" />
<path d="M114.9919 74.3966
L116.5681 75.3066
" />
<path d="M116.1081 76.1034
L114.5319 75.1934
" />
<path d="M116.5681 75.3066
L116.1081 76.1034
" />
<path d="M97.8397 76.1340
L99.5718 75.1340
" />
<path d="M98.8397 77.8660
L97.8397 76.1340
" />
<path d="M99.5718 75.1340
L100.5718 76.8660
" />
<path d="M100.5718 76.8660
L98.8397 77.8660
" />
<path d="M188.4282 119.1340
L190.1603 118.1340
" />
<path d="M189.4282 120.8660
L188.4282 119.1340
" />
<path d="M190.1603 118.1340
L191.1603 119.8660
" />
<path d="M191.1603 119.8660
L189.4282 120.8660
" />
<path d="M97.8397 128.1340
L99.5718 127.1340
" />
<path d="M98.8397 129.8660
L97.8397 128.1340
" />
<path d="M99.5718 127.1340
L100.5718 128.8660
" />
<path d="M100.5718 128.8660
L98.8397 129.8660
" />
<path d="M22.8397 119.8660
L23.8397 118.1340
" />
<path d="M23.8397 118.1340
L25.5718 119.1340
" />
<path d="M24.5718 120.8660
L22.8397 119.8660
" />
<path d="M25.5718 119.1340
L24.5718 120.8660
" />
<path d="M114.5319 127.1934
L114.9919 126.3966
" />
<path d="M114.9919 126.3966
L116.5681 127.3066
" />
<path d="M116.1081 128.1034
L114.5319 127.1934
" />
<path d="M116.5681 127.3066
L116.1081 128.1034
" />
<path d="M78.0000 38.0000
L80.0000 38.0000
" />
<path d="M78.0000 40.0000
L78.0000 38.0000
" />
<path d="M80.0000 38.0000
L80.0000 40.0000
" />
<path d="M80.0000 40.0000
L78.0000 40.0000
" />
<path d="M151.4282 34.1340
L153.1603 33.1340
" />
<path d="M152.4282 35.8660
L151.4282 34.1340
" />
<path d="M153.1603 33.1340
L154.1603 34.8660
" />
<path d="M154.1603 34.8660
L152.4282 35.8660
" />
<path d="M35.1340 116.5718
L36.1340 114.8397
" />
<path d="M36.1340 114.8397
L37.8660 115.8397
" />
<path d="M36.8660 117.5718
L35.1340 116.5718
" />
<path d="M37.8660 115.8397
L36.8660 117.5718
" />
<path d="M113.4282 76.8660
L114.4282 75.1340
" />
<path d="M114.4282 75.1340
L116.1603 76.1340
" />
<path d="M115.1603 77.8660
L113.4282 76.8660
" />
<path d="M116.1603 76.1340
L115.1603 77.8660
" />
<path d="M172.8397 76.1340
L174.5718 75.1340
" />
<path d="M173.8397 77.8660
L172.8397 76.1340
" />
<path d="M174.5718 75.1340
L175.5718 76.8660
" />
<path d="M175.5718 76.8660
L173.8397 77.8660
" />
<path d="M153.0900 37.0700
L154.9100 37.0700
" />
<path d="M153.0900 37.9900
L153.0900 37.0700
" />
<path d="M154.9100 37.0700
L154.9100 37.9900
" />
<path d="M154.9100 37.9900
L153.0900 37.9900
" />
<path d="M150.9819 33.3066
L152.5581 32.3966
" />
<path d="M151.4419 34.1034
L150.9819 33.3066
" />
<path d="M152.5581 32.3966
L153.0181 33.1934
" />
<path d="M153.0181 33.1934
L151.4419 34.1034
" />
<path d="M33.0400 80.1200
L33.9600 80.1200
" />
<path d="M33.0400 81.9400
L33.0400 80.1200
" />
<path d="M33.9600 80.1200
L33.9600 81.9400
" />
<path d="M33.9600 81.9400
L33.0400 81.9400
" />
<path d="M93.5000 52.0000
L95.5000 52.0000
" />
<path d="M93.5000 54.0000
L93.5000 52.0000
" />
<path d="M95.5000 52.0000
L95.5000 54.0000
" />
<path d="M95.5000 54.0000
L93.5000 54.0000
" />
<path d="M139.1340 30.8397
L140.8660 29.8397
" />
<path d="M140.1340 32.5718
L139.1340 30.8397
" />
<path d="M140.8660 29.8397
L141.8660 31.5718
" />
<path d="M141.8660 31.5718
L140.1340 32.5718
" />
<path d="M101.1340 115.8397
L102.8660 114.8397
" />
<path d="M102.1340 117.5718
L101.1340 115.8397
" />
<path d="M102.8660 114.8397
L103.8660 116.5718
" />
<path d="M103.8660 116.5718
L102.1340 117.5718
" />
<path d="M97.4819 68.7434
L97.9419 67.9466
" />
<path d="M97.9419 67.9466
L99.5181 68.8566
" />
<path d="M99.0581 69.6534
L97.4819 68.7434
" />
<path d="M99.5181 68.8566
L99.0581 69.6534
" />
<path d="M38.4282 76.8660
L39.4282 75.1340
" />
<path d="M39.4282 75.1340
L41.1603 76.1340
" />
<path d="M40.1603 77.8660
L38.4282 76.8660
" />
<path d="M41.1603 76.1340
L40.1603 77.8660
" />
<path d="M180.0400 114.1500
L180.9600 114.1500
" />
<path d="M180.0400 115.9700
L180.0400 114.1500
" />
<path d="M180.9600 114.1500
L180.9600 115.9700
" />
<path d="M180.9600 115.9700
L180.0400 115.9700
" />
<path d="M106.0000 62.0000
L108.0000 62.0000
" />
<path d="M106.0000 64.0000
L106.0000 62.0000
" />
<path d="M108.0000 62.0000
L108.0000 64.0000
" />
<path d="M108.0000 64.0000
L106.0000 64.0000
" />
<path d="M188.4282 76.8660
L189.4282 75.1340
" />
<path d="M189.4282 75.1340
L191.1603 76.1340
" />
<path d="M190.1603 77.8660
L188.4282 76.8660
" />
<path d="M191.1603 76.1340
L190.1603 77.8660
" />
<path d="M108.0400 80.1200
L108.9600 80.1200
" />
<path d="M108.0400 81.9400
L108.0400 80.1200
" />
<path d="M108.9600 80.1200
L108.9600 81.9400
" />
<path d="M108.9600 81.9400
L108.0400 81.9400
" />
<path d="M22.0000 123.0000
L24.0000 123.0000
" />
<path d="M22.0000 125.0000
L22.0000 123.0000
" />
<path d="M24.0000 123.0000
L24.0000 125.0000
" />
<path d="M24.0000 125.0000
L22.0000 125.0000
" />
<path d="M33.0400 132.1200
L33.9600 132.1200
" />
<path d="M33.0400 133.9400
L33.0400 132.1200
" />
<path d="M33.9600 132.1200
L33.9600 133.9400
" />
<path d="M33.9600 133.9400
L33.0400 133.9400
" />
<path d="M155.0000 38.0500
L155.9400 38.0500
" />
<path d="M155.0000 39.9100
L155.0000 38.0500
" />
<path d="M155.9400 38.0500
L155.9400 39.9100
" />
<path d="M155.9400 39.9100
L155.0000 39.9100
" />
<path d="M152.5319 42.1934
L152.9919 41.3966
" />
<path d="M152.9919 41.3966
L154.5681 42.3066
" />
<path d="M154.1081 43.1034
L152.5319 42.1934
" />
<path d="M154.5681 42.3066
L154.1081 43.1034
" />
<path d="M139.1340 47.1603
L140.1340 45.4282
" />
<path d="M140.1340 45.4282
L141.8660 46.4282
" />
<path d="M140.8660 48.1603
L139.1340 47.1603
" />
<path d="M141.8660 46.4282
L140.8660 48.1603
" />
<path d="M115.0900 122.0700
L116.9100 122.0700
" />
<path d="M115.0900 122.9900
L115.0900 122.0700
" />
<path d="M116.9100 122.0700
L116.9100 122.9900
" />
<path d="M116.9100 122.9900
L115.0900 122.9900
" />
<path d="M184.3466 64.0581
L185.2566 62.4819
" />
<path d="M185.1434 64.5181
L184.3466 64.0581
" />
<path d="M185.2566 62.4819
L186.0534 62.9419
" />
<path d="M186.0534 62.9419
L185.1434 64.5181
" />
<path d="M172.4819 120.7434
L172.9419 119.9466
" />
<path d="M172.9419 119.9466
L174.5181 120.8566
" />
<path d="M174.0581 121.6534
L172.4819 120.7434
" />
<path d="M174.5181 120.8566
L174.0581 121.6534
" />
<path d="M189.5319 75.1934
L189.9919 74.3966
" />
<path d="M189.9919 74.3966
L191.5681 75.3066
" />
<path d="M191.1081 76.1034
L189.5319 75.1934
" />
<path d="M191.5681 75.3066
L191.1081 76.1034
" />
<path d="M110.1340 131.4282
L111.8660 130.4282
" />
<path d="M111.1340 133.1603
L110.1340 131.4282
" />
<path d="M111.8660 130.4282
L112.8660 132.1603
" />
<path d="M112.8660 132.1603
L111.1340 133.1603
" />
<path d="M22.0000 71.0000
L24.0000 71.0000
" />
<path d="M22.0000 73.0000
L22.0000 71.0000
" />
<path d="M24.0000 71.0000
L24.0000 73.0000
" />
<path d="M24.0000 73.0000
L22.0000 73.0000
" />
<path d="M188.4282 128.8660
L189.4282 127.1340
" />
<path d="M189.4282 127.1340
L191.1603 128.1340
" />
<path d="M190.1603 129.8660
L188.4282 128.8660
" />
<path d="M191.1603 128.1340
L190.1603 129.8660
" />
<path d="M185.1340 116.5718
L186.1340 114.8397
" />
<path d="M186.1340 114.8397
L187.8660 115.8397
" />
<path d="M186.8660 117.5718
L185.1340 116.5718
" />
<path d="M187.8660 115.8397
L186.8660 117.5718
" />
<path d="M31.0000 62.0000
L33.0000 62.0000
" />
<path d="M31.0000 64.0000
L31.0000 62.0000
" />
<path d="M33.0000 62.0000
L33.0000 64.0000
" />
<path d="M33.0000 64.0000
L31.0000 64.0000
" />
<path d="M22.0900 125.0400
L23.9100 125.0400
" />
<path d="M22.0900 125.9600
L22.0900 125.0400
" />
<path d="M23.9100 125.0400
L23.9100 125.9600
" />
<path d="M23.9100 125.9600
L22.0900 125.9600
" />
<path d="M106.0000 114.0000
L108.0000 114.0000
" />
<path d="M106.0000 116.0000
L106.0000 114.0000
" />
<path d="M108.0000 114.0000
L108.0000 116.0000
" />
<path d="M108.0000 116.0000
L106.0000 116.0000
" />
<path d="M183.0400 80.1200
L183.9600 80.1200
" />
<path d="M183.0400 81.9400
L183.0400 80.1200
" />
<path d="M183.9600 80.1200
L183.9600 81.9400
" />
<path d="M183.9600 81.9400
L183.0400 81.9400
" />
<path d="M25.3366 64.3747
L26.1334 63.9146
" />
<path d="M26.1334 63.9146
L27.0434 65.4908
" />
<path d="M26.2466 65.9508
L25.3366 64.3747
" />
<path d="M27.0434 65.4908
L26.2466 65.9508
" />
<path d="M186.9466 78.5092
L187.7434 78.0492
" />
<path d="M187.7434 78.0492
L188.6534 79.6253
" />
<path d="M187.8566 80.0853
L186.9466 78.5092
" />
<path d="M188.6534 79.6253
L187.8566 80.0853
" />
<path d="M74.9466 45.5092
L75.7434 45.0492
" />
<path d="M75.7434 45.0492
L76.6534 46.6253
" />
<path d="M75.8566 47.0853
L74.9466 45.5092
" />
<path d="M76.6534 46.6253
L75.8566 47.0853
" />
<path d="M118.5000 52.0000
L120.5000 52.0000
" />
<path d="M118.5000 54.0000
L118.5000 52.0000
" />
<path d="M120.5000 52.0000
L120.5000 54.0000
" />
<path d="M120.5000 54.0000
L118.5000 54.0000
" />
<path d="M73.1340 31.5718
L74.1340 29.8397
" />
<path d="M74.1340 29.8397
L75.8660 30.8397
" />
<path d="M74.8660 32.5718
L73.1340 31.5718
" />
<path d="M75.8660 30.8397
L74.8660 32.5718
" />
<path d="M148.1340 31.5718
L149.1340 29.8397
" />
<path d="M149.1340 29.8397
L150.8660 30.8397
" />
<path d="M149.8660 32.5718
L148.1340 31.5718
" />
<path d="M150.8660 30.8397
L149.8660 32.5718
" />
<path d="M172.8397 128.1340
L174.5718 127.1340
" />
<path d="M173.8397 129.8660
L172.8397 128.1340
" />
<path d="M174.5718 127.1340
L175.5718 128.8660
" />
<path d="M175.5718 128.8660
L173.8397 129.8660
" />
<path d="M23.9819 129.8066
L25.5581 128.8966
" />
<path d="M24.4419 130.6034
L23.9819 129.8066
" />
<path d="M25.5581 128.8966
L26.0181 129.6934
" />
<path d="M26.0181 129.6934
L24.4419 130.6034
" />
<path d="M39.5319 127.1934
L39.9919 126.3966
" />
<path d="M39.9919 126.3966
L41.5681 127.3066
" />
<path d="M41.1081 128.1034
L39.5319 127.1934
" />
<path d="M41.5681 127.3066
L41.1081 128.1034
" />
<path d="M22.8397 76.1340
L24.5718 75.1340
" />
<path d="M23.8397 77.8660
L22.8397 76.1340
" />
<path d="M24.5718 75.1340
L25.5718 76.8660
" />
<path d="M25.5718 76.8660
L23.8397 77.8660
" />
<path d="M71.0400 47.1200
L71.9600 47.1200
" />
<path d="M71.0400 48.9400
L71.0400 47.1200
" />
<path d="M71.9600 47.1200
L71.9600 48.9400
" />
<path d="M71.9600 48.9400
L71.0400 48.9400
" />
<path d="M26.1340 132.1603
L27.1340 130.4282
" />
<path d="M27.1340 130.4282
L28.8660 131.4282
" />
<path d="M27.8660 133.1603
L26.1340 132.1603
" />
<path d="M28.8660 131.4282
L27.8660 133.1603
" />
<path d="M40.0900 122.0700
L41.9100 122.0700
" />
<path d="M40.0900 122.9900
L40.0900 122.0700
" />
<path d="M41.9100 122.0700
L41.9100 122.9900
" />
<path d="M41.9100 122.9900
L40.0900 122.9900
" />
<path d="M61.9819 44.8066
L63.5581 43.8966
" />
<path d="M62.4419 45.6034
L61.9819 44.8066
" />
<path d="M63.5581 43.8966
L64.0181 44.6934
" />
<path d="M64.0181 44.6934
L62.4419 45.6034
" />
<path d="M26.1340 115.8397
L27.8660 114.8397
" />
<path d="M27.1340 117.5718
L26.1340 115.8397
" />
<path d="M27.8660 114.8397
L28.8660 116.5718
" />
<path d="M28.8660 116.5718
L27.1340 117.5718
" />
<path d="M100.3366 116.3746
L101.1334 115.9146
" />
<path d="M101.1334 115.9146
L102.0434 117.4908
" />
<path d="M101.2466 117.9508
L100.3366 116.3746
" />
<path d="M102.0434 117.4908
L101.2466 117.9508
" />
<path d="M102.9466 133.0581
L103.8566 131.4819
" />
<path d="M103.7434 133.5181
L102.9466 133.0581
" />
<path d="M103.8566 131.4819
L104.6534 131.9419
" />
<path d="M104.6534 131.9419
L103.7434 133.5181
" />
<path d="M188.4282 67.1340
L190.1603 66.1340
" />
<path d="M189.4282 68.8660
L188.4282 67.1340
" />
<path d="M190.1603 66.1340
L191.1603 67.8660
" />
<path d="M191.1603 67.8660
L189.4282 68.8660
" />
<path d="M112.9819 66.3066
L114.5581 65.3966
" />
<path d="M113.4419 67.1034
L112.9819 66.3066
" />
<path d="M114.5581 65.3966
L115.0181 66.1934
" />
<path d="M115.0181 66.1934
L113.4419 67.1034
" />
<path d="M76.4282 34.1340
L78.1603 33.1340
" />
<path d="M77.4282 35.8660
L76.4282 34.1340
" />
<path d="M78.1603 33.1340
L79.1603 34.8660
" />
<path d="M79.1603 34.8660
L77.4282 35.8660
" />
<path d="M176.1340 132.1603
L177.1340 130.4282
" />
<path d="M177.1340 130.4282
L178.8660 131.4282
" />
<path d="M177.8660 133.1603
L176.1340 132.1603
" />
<path d="M178.8660 131.4282
L177.8660 133.1603
" />
<path d="M177.9466 133.0581
L178.8566 131.4819
" />
<path d="M178.7434 133.5181
L177.9466 133.0581
" />
<path d="M178.8566 131.4819
L179.6534 131.9419
" />
<path d="M179.6534 131.9419
L178.7434 133.5181
" />
<path d="M97.0000 123.0000
L99.0000 123.0000
" />
<path d="M97.0000 125.0000
L97.0000 123.0000
" />
<path d="M99.0000 123.0000
L99.0000 125.0000
" />
<path d="M99.0000 125.0000
L97.0000 125.0000
" />
<path d="M117.5400 52.0900
L118.4600 52.0900
" />
<path d="M117.5400 53.9100
L117.5400 52.0900
" />
<path d="M118.4600 52.0900
L118.4600 53.9100
" />
<path d="M118.4600 53.9100
L117.5400 53.9100
" />
<path d="M60.0900 40.0400
L61.9100 40.0400
" />
<path d="M60.0900 40.9600
L60.0900 40.0400
" />
<path d="M61.9100 40.0400
L61.9100 40.9600
" />
<path d="M61.9100 40.9600
L60.0900 40.9600
" />
<path d="M147.3466 31.0581
L148.2566 29.4819
" />
<path d="M148.1434 31.5181
L147.3466 31.0581
" />
<path d="M148.2566 29.4819
L149.0534 29.9419
" />
<path d="M149.0534 29.9419
L148.1434 31.5181
" />
<path d="M187.9819 66.3066
L189.5581 65.3966
" />
<path d="M188.4419 67.1034
L187.9819 66.3066
" />
<path d="M189.5581 65.3966
L190.0181 66.1934
" />
<path d="M190.0181 66.1934
L188.4419 67.1034
" />
<path d="M186.9466 130.5092
L187.7434 130.0492
" />
<path d="M187.7434 130.0492
L188.6534 131.6253
" />
<path d="M187.8566 132.0854
L186.9466 130.5092
" />
<path d="M188.6534 131.6253
L187.8566 132.0854
" />
<path d="M102.9466 81.0581
L103.8566 79.4819
" />
<path d="M103.7434 81.5181
L102.9466 81.0581
" />
<path d="M103.8566 79.4819
L104.6534 79.9419
" />
<path d="M104.6534 79.9419
L103.7434 81.5181
" />
<path d="M108.0400 132.1200
L108.9600 132.1200
" />
<path d="M108.0400 133.9400
L108.0400 132.1200
" />
<path d="M108.9600 132.1200
L108.9600 133.9400
" />
<path d="M108.9600 133.9400
L108.0400 133.9400
" />
<path d="M27.9466 81.0581
L28.8566 79.4819
" />
<path d="M28.7434 81.5181
L27.9466 81.0581
" />
<path d="M28.8566 79.4819
L29.6534 79.9419
" />
<path d="M29.6534 79.9419
L28.7434 81.5181
" />
<path d="M98.9819 77.8066
L100.5581 76.8966
" />
<path d="M99.4419 78.6034
L98.9819 77.8066
" />
<path d="M100.5581 76.8966
L101.0181 77.6934
" />
<path d="M101.0181 77.6934
L99.4419 78.6034
" />
<path d="M72.3466 31.0581
L73.2566 29.4819
" />
<path d="M73.1434 31.5181
L72.3466 31.0581
" />
<path d="M73.2566 29.4819
L74.0534 29.9419
" />
<path d="M74.0534 29.9419
L73.1434 31.5181
" />
<path d="M38.4282 128.8660
L39.4282 127.1340
" />
<path d="M39.4282 127.1340
L41.1603 128.1340
" />
<path d="M40.1603 129.8660
L38.4282 128.8660
" />
<path d="M41.1603 128.1340
L40.1603 129.8660
" />
<circle cx="129.5000" cy="75.2000" r="1.8000" /> 
<circle cx="129.5000" cy="127.2000" r="1.8000" /> 
<circle cx="159.5000" cy="75.2000" r="1.8000" /> 
<circle cx="159.5000" cy="127.2000" r="1.8000" /> 
<path d="M26.1340 80.1603
L27.1340 78.4282
" />
<path d="M27.1340 78.4282
L28.8660 79.4282
" />
<path d="M27.8660 81.1603
L26.1340 80.1603
" />
<path d="M28.8660 79.4282
L27.8660 81.1603
" />
<path d="M183.0400 132.1200
L183.9600 132.1200
" />
<path d="M183.0400 133.9400
L183.0400 132.1200
" />
<path d="M183.9600 132.1200
L183.9600 133.9400
" />
<path d="M183.9600 133.9400
L183.0400 133.9400
" />
<path d="M101.1340 80.1603
L102.1340 78.4282
" />
<path d="M102.1340 78.4282
L103.8660 79.4282
" />
<path d="M102.8660 81.1603
L101.1340 80.1603
" />
<path d="M103.8660 79.4282
L102.8660 81.1603
" />
<path d="M39.5319 75.1934
L39.9919 74.3966
" />
<path d="M39.9919 74.3966
L41.5681 75.3066
" />
<path d="M41.1081 76.1034
L39.5319 75.1934
" />
<path d="M41.5681 75.3066
L41.1081 76.1034
" />
<path d="M25.3366 116.3746
L26.1334 115.9146
" />
<path d="M26.1334 115.9146
L27.0434 117.4908
" />
<path d="M26.2466 117.9508
L25.3366 116.3746
" />
<path d="M27.0434 117.4908
L26.2466 117.9508
" />
<path d="M176.1340 115.8397
L177.8660 114.8397
" />
<path d="M177.1340 117.5718
L176.1340 115.8397
" />
<path d="M177.8660 114.8397
L178.8660 116.5718
" />
<path d="M178.8660 116.5718
L177.1340 117.5718
" />
<circle cx="25.5000" cy="134.5000" r="1.2500" /> 
<path d="M111.9466 130.5092
L112.7434 130.0492
" />
<path d="M112.7434 130.0492
L113.6534 131.6253
" />
<path d="M112.8566 132.0854
L111.9466 130.5092
" />
<path d="M113.6534 131.6253
L112.8566 132.0854
" />
<path d="M64.1340 47.1603
L65.1340 45.4282
" />
<path d="M65.1340 45.4282
L66.8660 46.4282
" />
<path d="M65.8660 48.1603
L64.1340 47.1603
" />
<path d="M66.8660 46.4282
L65.8660 48.1603
" />
<path d="M68.0400 29.1500
L68.9600 29.1500
" />
<path d="M68.0400 30.9700
L68.0400 29.1500
" />
<path d="M68.9600 29.1500
L68.9600 30.9700
" />
<path d="M68.9600 30.9700
L68.0400 30.9700
" />
<path d="M65.9466 48.0581
L66.8566 46.4819
" />
<path d="M66.7434 48.5181
L65.9466 48.0581
" />
<path d="M66.8566 46.4819
L67.6534 46.9419
" />
<path d="M67.6534 46.9419
L66.7434 48.5181
" />
<path d="M100.3366 64.3747
L101.1334 63.9146
" />
<path d="M101.1334 63.9146
L102.0434 65.4908
" />
<path d="M101.2466 65.9508
L100.3366 64.3747
" />
<path d="M102.0434 65.4908
L101.2466 65.9508
" />
<path d="M60.8397 43.1340
L62.5718 42.1340
" />
<path d="M61.8397 44.8660
L60.8397 43.1340
" />
<path d="M62.5718 42.1340
L63.5718 43.8660
" />
<path d="M63.5718 43.8660
L61.8397 44.8660
" />
</g> 
</svg>
