<?xml version="1.0" standalone="no"?>
 <!DOCTYPE svg PUBLIC "-//W3C//DTD SVG 1.1//EN" 
 "http://www.w3.org/Graphics/SVG/1.1/DTD/svg11.dtd"> 
<svg
  xmlns:svg="http://www.w3.org/2000/svg"
  xmlns="http://www.w3.org/2000/svg"
  xmlns:xlink="http://www.w3.org/1999/xlink"
  version="1.1"
  width="297.0022mm" height="210.0072mm" viewBox="0.0000 0.0000 297.0022 210.0072">
<title>SVG Image created as pedalboard-display-B_Silkscreen.svg date 2024/10/04 17:31:07 </title>
  <desc>Image generated by PCBNEW </desc>
<g style="fill:#000000; fill-opacity:1.0000;stroke:#000000; stroke-opacity:1.0000;
stroke-linecap:round; stroke-linejoin:round;"
 transform="translate(0 0) scale(1 1)">
</g>
<g style="fill:none; 
stroke:#000000; stroke-width:0.1000; stroke-opacity:1; 
stroke-linecap:round; stroke-linejoin:round;">
<circle cx="115.0022" cy="124.0000" r="7.0500" /> 
<circle cx="115.0022" cy="72.0000" r="7.0500" /> 
<circle cx="152.0022" cy="39.0000" r="7.0500" /> 
<circle cx="227.0022" cy="39.0000" r="7.0500" /> 
<circle cx="265.0022" cy="124.0000" r="7.0500" /> 
<circle cx="265.0022" cy="72.0000" r="7.0500" /> 
</g>
<g style="fill:none; 
stroke:#000000; stroke-width:0.1500; stroke-opacity:1; 
stroke-linecap:round; stroke-linejoin:round;">
<circle cx="190.0022" cy="124.0000" r="7.0000" /> 
</g>
<g style="fill:none; 
stroke:#000000; stroke-width:0.1000; stroke-opacity:1; 
stroke-linecap:round; stroke-linejoin:round;">
<circle cx="190.0022" cy="72.0000" r="7.0500" /> 
<text x="265.0022" y="56.7461"
textLength="11.3267" font-size="0.9333" lengthAdjust="spacingAndGlyphs"
text-anchor="middle" opacity="0" stroke-opacity="0">Pedalboard LED Ring</text>
<g class="stroked-text"><desc>Pedalboard LED Ring</desc>
<path d="M259.5855 56.6552
L259.5855 55.9552
" />
<path d="M259.5855 55.9552
L259.8522 55.9552
" />
<path d="M259.8522 55.9552
L259.9189 55.9885
" />
<path d="M259.9189 55.9885
L259.9522 56.0219
" />
<path d="M259.9522 56.0219
L259.9855 56.0885
" />
<path d="M259.9855 56.0885
L259.9855 56.1885
" />
<path d="M259.9855 56.1885
L259.9522 56.2552
" />
<path d="M259.9522 56.2552
L259.9189 56.2885
" />
<path d="M259.9189 56.2885
L259.8522 56.3219
" />
<path d="M259.8522 56.3219
L259.5855 56.3219
" />
<path d="M260.5522 56.6219
L260.4855 56.6552
" />
<path d="M260.4855 56.6552
L260.3522 56.6552
" />
<path d="M260.3522 56.6552
L260.2855 56.6219
" />
<path d="M260.2855 56.6219
L260.2522 56.5552
" />
<path d="M260.2522 56.5552
L260.2522 56.2885
" />
<path d="M260.2522 56.2885
L260.2855 56.2219
" />
<path d="M260.2855 56.2219
L260.3522 56.1885
" />
<path d="M260.3522 56.1885
L260.4855 56.1885
" />
<path d="M260.4855 56.1885
L260.5522 56.2219
" />
<path d="M260.5522 56.2219
L260.5855 56.2885
" />
<path d="M260.5855 56.2885
L260.5855 56.3552
" />
<path d="M260.5855 56.3552
L260.2522 56.4219
" />
<path d="M261.1855 56.6552
L261.1855 55.9552
" />
<path d="M261.1855 56.6219
L261.1189 56.6552
" />
<path d="M261.1189 56.6552
L260.9855 56.6552
" />
<path d="M260.9855 56.6552
L260.9189 56.6219
" />
<path d="M260.9189 56.6219
L260.8855 56.5885
" />
<path d="M260.8855 56.5885
L260.8522 56.5219
" />
<path d="M260.8522 56.5219
L260.8522 56.3219
" />
<path d="M260.8522 56.3219
L260.8855 56.2552
" />
<path d="M260.8855 56.2552
L260.9189 56.2219
" />
<path d="M260.9189 56.2219
L260.9855 56.1885
" />
<path d="M260.9855 56.1885
L261.1189 56.1885
" />
<path d="M261.1189 56.1885
L261.1855 56.2219
" />
<path d="M261.8189 56.6552
L261.8189 56.2885
" />
<path d="M261.8189 56.2885
L261.7855 56.2219
" />
<path d="M261.7855 56.2219
L261.7189 56.1885
" />
<path d="M261.7189 56.1885
L261.5855 56.1885
" />
<path d="M261.5855 56.1885
L261.5189 56.2219
" />
<path d="M261.8189 56.6219
L261.7522 56.6552
" />
<path d="M261.7522 56.6552
L261.5855 56.6552
" />
<path d="M261.5855 56.6552
L261.5189 56.6219
" />
<path d="M261.5189 56.6219
L261.4855 56.5552
" />
<path d="M261.4855 56.5552
L261.4855 56.4885
" />
<path d="M261.4855 56.4885
L261.5189 56.4219
" />
<path d="M261.5189 56.4219
L261.5855 56.3885
" />
<path d="M261.5855 56.3885
L261.7522 56.3885
" />
<path d="M261.7522 56.3885
L261.8189 56.3552
" />
<path d="M262.2522 56.6552
L262.1855 56.6219
" />
<path d="M262.1855 56.6219
L262.1522 56.5552
" />
<path d="M262.1522 56.5552
L262.1522 55.9552
" />
<path d="M262.5189 56.6552
L262.5189 55.9552
" />
<path d="M262.5189 56.2219
L262.5855 56.1885
" />
<path d="M262.5855 56.1885
L262.7189 56.1885
" />
<path d="M262.7189 56.1885
L262.7855 56.2219
" />
<path d="M262.7855 56.2219
L262.8189 56.2552
" />
<path d="M262.8189 56.2552
L262.8522 56.3219
" />
<path d="M262.8522 56.3219
L262.8522 56.5219
" />
<path d="M262.8522 56.5219
L262.8189 56.5885
" />
<path d="M262.8189 56.5885
L262.7855 56.6219
" />
<path d="M262.7855 56.6219
L262.7189 56.6552
" />
<path d="M262.7189 56.6552
L262.5855 56.6552
" />
<path d="M262.5855 56.6552
L262.5189 56.6219
" />
<path d="M263.2522 56.6552
L263.1855 56.6219
" />
<path d="M263.1855 56.6219
L263.1522 56.5885
" />
<path d="M263.1522 56.5885
L263.1189 56.5219
" />
<path d="M263.1189 56.5219
L263.1189 56.3219
" />
<path d="M263.1189 56.3219
L263.1522 56.2552
" />
<path d="M263.1522 56.2552
L263.1855 56.2219
" />
<path d="M263.1855 56.2219
L263.2522 56.1885
" />
<path d="M263.2522 56.1885
L263.3522 56.1885
" />
<path d="M263.3522 56.1885
L263.4189 56.2219
" />
<path d="M263.4189 56.2219
L263.4522 56.2552
" />
<path d="M263.4522 56.2552
L263.4855 56.3219
" />
<path d="M263.4855 56.3219
L263.4855 56.5219
" />
<path d="M263.4855 56.5219
L263.4522 56.5885
" />
<path d="M263.4522 56.5885
L263.4189 56.6219
" />
<path d="M263.4189 56.6219
L263.3522 56.6552
" />
<path d="M263.3522 56.6552
L263.2522 56.6552
" />
<path d="M264.0855 56.6552
L264.0855 56.2885
" />
<path d="M264.0855 56.2885
L264.0522 56.2219
" />
<path d="M264.0522 56.2219
L263.9855 56.1885
" />
<path d="M263.9855 56.1885
L263.8522 56.1885
" />
<path d="M263.8522 56.1885
L263.7855 56.2219
" />
<path d="M264.0855 56.6219
L264.0189 56.6552
" />
<path d="M264.0189 56.6552
L263.8522 56.6552
" />
<path d="M263.8522 56.6552
L263.7855 56.6219
" />
<path d="M263.7855 56.6219
L263.7522 56.5552
" />
<path d="M263.7522 56.5552
L263.7522 56.4885
" />
<path d="M263.7522 56.4885
L263.7855 56.4219
" />
<path d="M263.7855 56.4219
L263.8522 56.3885
" />
<path d="M263.8522 56.3885
L264.0189 56.3885
" />
<path d="M264.0189 56.3885
L264.0855 56.3552
" />
<path d="M264.4189 56.6552
L264.4189 56.1885
" />
<path d="M264.4189 56.3219
L264.4522 56.2552
" />
<path d="M264.4522 56.2552
L264.4855 56.2219
" />
<path d="M264.4855 56.2219
L264.5522 56.1885
" />
<path d="M264.5522 56.1885
L264.6189 56.1885
" />
<path d="M265.1522 56.6552
L265.1522 55.9552
" />
<path d="M265.1522 56.6219
L265.0855 56.6552
" />
<path d="M265.0855 56.6552
L264.9522 56.6552
" />
<path d="M264.9522 56.6552
L264.8855 56.6219
" />
<path d="M264.8855 56.6219
L264.8522 56.5885
" />
<path d="M264.8522 56.5885
L264.8189 56.5219
" />
<path d="M264.8189 56.5219
L264.8189 56.3219
" />
<path d="M264.8189 56.3219
L264.8522 56.2552
" />
<path d="M264.8522 56.2552
L264.8855 56.2219
" />
<path d="M264.8855 56.2219
L264.9522 56.1885
" />
<path d="M264.9522 56.1885
L265.0855 56.1885
" />
<path d="M265.0855 56.1885
L265.1522 56.2219
" />
<path d="M266.3522 56.6552
L266.0189 56.6552
" />
<path d="M266.0189 56.6552
L266.0189 55.9552
" />
<path d="M266.5855 56.2885
L266.8189 56.2885
" />
<path d="M266.9189 56.6552
L266.5855 56.6552
" />
<path d="M266.5855 56.6552
L266.5855 55.9552
" />
<path d="M266.5855 55.9552
L266.9189 55.9552
" />
<path d="M267.2189 56.6552
L267.2189 55.9552
" />
<path d="M267.2189 55.9552
L267.3855 55.9552
" />
<path d="M267.3855 55.9552
L267.4855 55.9885
" />
<path d="M267.4855 55.9885
L267.5522 56.0552
" />
<path d="M267.5522 56.0552
L267.5855 56.1219
" />
<path d="M267.5855 56.1219
L267.6189 56.2552
" />
<path d="M267.6189 56.2552
L267.6189 56.3552
" />
<path d="M267.6189 56.3552
L267.5855 56.4885
" />
<path d="M267.5855 56.4885
L267.5522 56.5552
" />
<path d="M267.5522 56.5552
L267.4855 56.6219
" />
<path d="M267.4855 56.6219
L267.3855 56.6552
" />
<path d="M267.3855 56.6552
L267.2189 56.6552
" />
<path d="M268.8522 56.6552
L268.6189 56.3219
" />
<path d="M268.4522 56.6552
L268.4522 55.9552
" />
<path d="M268.4522 55.9552
L268.7189 55.9552
" />
<path d="M268.7189 55.9552
L268.7855 55.9885
" />
<path d="M268.7855 55.9885
L268.8189 56.0219
" />
<path d="M268.8189 56.0219
L268.8522 56.0885
" />
<path d="M268.8522 56.0885
L268.8522 56.1885
" />
<path d="M268.8522 56.1885
L268.8189 56.2552
" />
<path d="M268.8189 56.2552
L268.7855 56.2885
" />
<path d="M268.7855 56.2885
L268.7189 56.3219
" />
<path d="M268.7189 56.3219
L268.4522 56.3219
" />
<path d="M269.1522 56.6552
L269.1522 56.1885
" />
<path d="M269.1522 55.9552
L269.1189 55.9885
" />
<path d="M269.1189 55.9885
L269.1522 56.0219
" />
<path d="M269.1522 56.0219
L269.1855 55.9885
" />
<path d="M269.1855 55.9885
L269.1522 55.9552
" />
<path d="M269.1522 55.9552
L269.1522 56.0219
" />
<path d="M269.4855 56.1885
L269.4855 56.6552
" />
<path d="M269.4855 56.2552
L269.5189 56.2219
" />
<path d="M269.5189 56.2219
L269.5855 56.1885
" />
<path d="M269.5855 56.1885
L269.6855 56.1885
" />
<path d="M269.6855 56.1885
L269.7522 56.2219
" />
<path d="M269.7522 56.2219
L269.7855 56.2885
" />
<path d="M269.7855 56.2885
L269.7855 56.6552
" />
<path d="M270.4189 56.1885
L270.4189 56.7552
" />
<path d="M270.4189 56.7552
L270.3855 56.8219
" />
<path d="M270.3855 56.8219
L270.3522 56.8552
" />
<path d="M270.3522 56.8552
L270.2855 56.8885
" />
<path d="M270.2855 56.8885
L270.1855 56.8885
" />
<path d="M270.1855 56.8885
L270.1189 56.8552
" />
<path d="M270.4189 56.6219
L270.3522 56.6552
" />
<path d="M270.3522 56.6552
L270.2189 56.6552
" />
<path d="M270.2189 56.6552
L270.1522 56.6219
" />
<path d="M270.1522 56.6219
L270.1189 56.5885
" />
<path d="M270.1189 56.5885
L270.0855 56.5219
" />
<path d="M270.0855 56.5219
L270.0855 56.3219
" />
<path d="M270.0855 56.3219
L270.1189 56.2552
" />
<path d="M270.1189 56.2552
L270.1522 56.2219
" />
<path d="M270.1522 56.2219
L270.2189 56.1885
" />
<path d="M270.2189 56.1885
L270.3522 56.1885
" />
<path d="M270.3522 56.1885
L270.4189 56.2219
" />
</g><text x="265.0022" y="57.8730"
textLength="16.9267" font-size="0.9333" lengthAdjust="spacingAndGlyphs"
text-anchor="middle" opacity="0" stroke-opacity="0">https://github.com/pedalboard</text>
<g class="stroked-text"><desc>https://github.com/pedalboard</desc>
<path d="M256.7855 57.7822
L256.7855 57.0822
" />
<path d="M257.0855 57.7822
L257.0855 57.4155
" />
<path d="M257.0855 57.4155
L257.0522 57.3488
" />
<path d="M257.0522 57.3488
L256.9855 57.3155
" />
<path d="M256.9855 57.3155
L256.8855 57.3155
" />
<path d="M256.8855 57.3155
L256.8189 57.3488
" />
<path d="M256.8189 57.3488
L256.7855 57.3822
" />
<path d="M257.3189 57.3155
L257.5855 57.3155
" />
<path d="M257.4189 57.0822
L257.4189 57.6822
" />
<path d="M257.4189 57.6822
L257.4522 57.7488
" />
<path d="M257.4522 57.7488
L257.5189 57.7822
" />
<path d="M257.5189 57.7822
L257.5855 57.7822
" />
<path d="M257.7189 57.3155
L257.9855 57.3155
" />
<path d="M257.8189 57.0822
L257.8189 57.6822
" />
<path d="M257.8189 57.6822
L257.8522 57.7488
" />
<path d="M257.8522 57.7488
L257.9189 57.7822
" />
<path d="M257.9189 57.7822
L257.9855 57.7822
" />
<path d="M258.2189 57.3155
L258.2189 58.0155
" />
<path d="M258.2189 57.3488
L258.2855 57.3155
" />
<path d="M258.2855 57.3155
L258.4189 57.3155
" />
<path d="M258.4189 57.3155
L258.4855 57.3488
" />
<path d="M258.4855 57.3488
L258.5189 57.3822
" />
<path d="M258.5189 57.3822
L258.5522 57.4488
" />
<path d="M258.5522 57.4488
L258.5522 57.6488
" />
<path d="M258.5522 57.6488
L258.5189 57.7155
" />
<path d="M258.5189 57.7155
L258.4855 57.7488
" />
<path d="M258.4855 57.7488
L258.4189 57.7822
" />
<path d="M258.4189 57.7822
L258.2855 57.7822
" />
<path d="M258.2855 57.7822
L258.2189 57.7488
" />
<path d="M258.8189 57.7488
L258.8855 57.7822
" />
<path d="M258.8855 57.7822
L259.0189 57.7822
" />
<path d="M259.0189 57.7822
L259.0855 57.7488
" />
<path d="M259.0855 57.7488
L259.1189 57.6822
" />
<path d="M259.1189 57.6822
L259.1189 57.6488
" />
<path d="M259.1189 57.6488
L259.0855 57.5822
" />
<path d="M259.0855 57.5822
L259.0189 57.5488
" />
<path d="M259.0189 57.5488
L258.9189 57.5488
" />
<path d="M258.9189 57.5488
L258.8522 57.5155
" />
<path d="M258.8522 57.5155
L258.8189 57.4488
" />
<path d="M258.8189 57.4488
L258.8189 57.4155
" />
<path d="M258.8189 57.4155
L258.8522 57.3488
" />
<path d="M258.8522 57.3488
L258.9189 57.3155
" />
<path d="M258.9189 57.3155
L259.0189 57.3155
" />
<path d="M259.0189 57.3155
L259.0855 57.3488
" />
<path d="M259.4189 57.7155
L259.4522 57.7488
" />
<path d="M259.4522 57.7488
L259.4189 57.7822
" />
<path d="M259.4189 57.7822
L259.3855 57.7488
" />
<path d="M259.3855 57.7488
L259.4189 57.7155
" />
<path d="M259.4189 57.7155
L259.4189 57.7822
" />
<path d="M259.4189 57.3488
L259.4522 57.3822
" />
<path d="M259.4522 57.3822
L259.4189 57.4155
" />
<path d="M259.4189 57.4155
L259.3855 57.3822
" />
<path d="M259.3855 57.3822
L259.4189 57.3488
" />
<path d="M259.4189 57.3488
L259.4189 57.4155
" />
<path d="M260.2522 57.0488
L259.6522 57.9488
" />
<path d="M260.9855 57.0488
L260.3855 57.9488
" />
<path d="M261.5189 57.3155
L261.5189 57.8822
" />
<path d="M261.5189 57.8822
L261.4855 57.9488
" />
<path d="M261.4855 57.9488
L261.4522 57.9822
" />
<path d="M261.4522 57.9822
L261.3855 58.0155
" />
<path d="M261.3855 58.0155
L261.2855 58.0155
" />
<path d="M261.2855 58.0155
L261.2189 57.9822
" />
<path d="M261.5189 57.7488
L261.4522 57.7822
" />
<path d="M261.4522 57.7822
L261.3189 57.7822
" />
<path d="M261.3189 57.7822
L261.2522 57.7488
" />
<path d="M261.2522 57.7488
L261.2189 57.7155
" />
<path d="M261.2189 57.7155
L261.1855 57.6488
" />
<path d="M261.1855 57.6488
L261.1855 57.4488
" />
<path d="M261.1855 57.4488
L261.2189 57.3822
" />
<path d="M261.2189 57.3822
L261.2522 57.3488
" />
<path d="M261.2522 57.3488
L261.3189 57.3155
" />
<path d="M261.3189 57.3155
L261.4522 57.3155
" />
<path d="M261.4522 57.3155
L261.5189 57.3488
" />
<path d="M261.8522 57.7822
L261.8522 57.3155
" />
<path d="M261.8522 57.0822
L261.8189 57.1155
" />
<path d="M261.8189 57.1155
L261.8522 57.1488
" />
<path d="M261.8522 57.1488
L261.8855 57.1155
" />
<path d="M261.8855 57.1155
L261.8522 57.0822
" />
<path d="M261.8522 57.0822
L261.8522 57.1488
" />
<path d="M262.0855 57.3155
L262.3522 57.3155
" />
<path d="M262.1855 57.0822
L262.1855 57.6822
" />
<path d="M262.1855 57.6822
L262.2189 57.7488
" />
<path d="M262.2189 57.7488
L262.2855 57.7822
" />
<path d="M262.2855 57.7822
L262.3522 57.7822
" />
<path d="M262.5855 57.7822
L262.5855 57.0822
" />
<path d="M262.8855 57.7822
L262.8855 57.4155
" />
<path d="M262.8855 57.4155
L262.8522 57.3488
" />
<path d="M262.8522 57.3488
L262.7855 57.3155
" />
<path d="M262.7855 57.3155
L262.6855 57.3155
" />
<path d="M262.6855 57.3155
L262.6189 57.3488
" />
<path d="M262.6189 57.3488
L262.5855 57.3822
" />
<path d="M263.5189 57.3155
L263.5189 57.7822
" />
<path d="M263.2189 57.3155
L263.2189 57.6822
" />
<path d="M263.2189 57.6822
L263.2522 57.7488
" />
<path d="M263.2522 57.7488
L263.3189 57.7822
" />
<path d="M263.3189 57.7822
L263.4189 57.7822
" />
<path d="M263.4189 57.7822
L263.4855 57.7488
" />
<path d="M263.4855 57.7488
L263.5189 57.7155
" />
<path d="M263.8522 57.7822
L263.8522 57.0822
" />
<path d="M263.8522 57.3488
L263.9189 57.3155
" />
<path d="M263.9189 57.3155
L264.0522 57.3155
" />
<path d="M264.0522 57.3155
L264.1189 57.3488
" />
<path d="M264.1189 57.3488
L264.1522 57.3822
" />
<path d="M264.1522 57.3822
L264.1855 57.4488
" />
<path d="M264.1855 57.4488
L264.1855 57.6488
" />
<path d="M264.1855 57.6488
L264.1522 57.7155
" />
<path d="M264.1522 57.7155
L264.1189 57.7488
" />
<path d="M264.1189 57.7488
L264.0522 57.7822
" />
<path d="M264.0522 57.7822
L263.9189 57.7822
" />
<path d="M263.9189 57.7822
L263.8522 57.7488
" />
<path d="M264.4855 57.7155
L264.5189 57.7488
" />
<path d="M264.5189 57.7488
L264.4855 57.7822
" />
<path d="M264.4855 57.7822
L264.4522 57.7488
" />
<path d="M264.4522 57.7488
L264.4855 57.7155
" />
<path d="M264.4855 57.7155
L264.4855 57.7822
" />
<path d="M265.1189 57.7488
L265.0522 57.7822
" />
<path d="M265.0522 57.7822
L264.9189 57.7822
" />
<path d="M264.9189 57.7822
L264.8522 57.7488
" />
<path d="M264.8522 57.7488
L264.8189 57.7155
" />
<path d="M264.8189 57.7155
L264.7855 57.6488
" />
<path d="M264.7855 57.6488
L264.7855 57.4488
" />
<path d="M264.7855 57.4488
L264.8189 57.3822
" />
<path d="M264.8189 57.3822
L264.8522 57.3488
" />
<path d="M264.8522 57.3488
L264.9189 57.3155
" />
<path d="M264.9189 57.3155
L265.0522 57.3155
" />
<path d="M265.0522 57.3155
L265.1189 57.3488
" />
<path d="M265.5189 57.7822
L265.4522 57.7488
" />
<path d="M265.4522 57.7488
L265.4189 57.7155
" />
<path d="M265.4189 57.7155
L265.3855 57.6488
" />
<path d="M265.3855 57.6488
L265.3855 57.4488
" />
<path d="M265.3855 57.4488
L265.4189 57.3822
" />
<path d="M265.4189 57.3822
L265.4522 57.3488
" />
<path d="M265.4522 57.3488
L265.5189 57.3155
" />
<path d="M265.5189 57.3155
L265.6189 57.3155
" />
<path d="M265.6189 57.3155
L265.6855 57.3488
" />
<path d="M265.6855 57.3488
L265.7189 57.3822
" />
<path d="M265.7189 57.3822
L265.7522 57.4488
" />
<path d="M265.7522 57.4488
L265.7522 57.6488
" />
<path d="M265.7522 57.6488
L265.7189 57.7155
" />
<path d="M265.7189 57.7155
L265.6855 57.7488
" />
<path d="M265.6855 57.7488
L265.6189 57.7822
" />
<path d="M265.6189 57.7822
L265.5189 57.7822
" />
<path d="M266.0522 57.7822
L266.0522 57.3155
" />
<path d="M266.0522 57.3822
L266.0855 57.3488
" />
<path d="M266.0855 57.3488
L266.1522 57.3155
" />
<path d="M266.1522 57.3155
L266.2522 57.3155
" />
<path d="M266.2522 57.3155
L266.3189 57.3488
" />
<path d="M266.3189 57.3488
L266.3522 57.4155
" />
<path d="M266.3522 57.4155
L266.3522 57.7822
" />
<path d="M266.3522 57.4155
L266.3855 57.3488
" />
<path d="M266.3855 57.3488
L266.4522 57.3155
" />
<path d="M266.4522 57.3155
L266.5522 57.3155
" />
<path d="M266.5522 57.3155
L266.6189 57.3488
" />
<path d="M266.6189 57.3488
L266.6522 57.4155
" />
<path d="M266.6522 57.4155
L266.6522 57.7822
" />
<path d="M267.4855 57.0488
L266.8855 57.9488
" />
<path d="M267.7189 57.3155
L267.7189 58.0155
" />
<path d="M267.7189 57.3488
L267.7855 57.3155
" />
<path d="M267.7855 57.3155
L267.9189 57.3155
" />
<path d="M267.9189 57.3155
L267.9855 57.3488
" />
<path d="M267.9855 57.3488
L268.0189 57.3822
" />
<path d="M268.0189 57.3822
L268.0522 57.4488
" />
<path d="M268.0522 57.4488
L268.0522 57.6488
" />
<path d="M268.0522 57.6488
L268.0189 57.7155
" />
<path d="M268.0189 57.7155
L267.9855 57.7488
" />
<path d="M267.9855 57.7488
L267.9189 57.7822
" />
<path d="M267.9189 57.7822
L267.7855 57.7822
" />
<path d="M267.7855 57.7822
L267.7189 57.7488
" />
<path d="M268.6189 57.7488
L268.5522 57.7822
" />
<path d="M268.5522 57.7822
L268.4189 57.7822
" />
<path d="M268.4189 57.7822
L268.3522 57.7488
" />
<path d="M268.3522 57.7488
L268.3189 57.6822
" />
<path d="M268.3189 57.6822
L268.3189 57.4155
" />
<path d="M268.3189 57.4155
L268.3522 57.3488
" />
<path d="M268.3522 57.3488
L268.4189 57.3155
" />
<path d="M268.4189 57.3155
L268.5522 57.3155
" />
<path d="M268.5522 57.3155
L268.6189 57.3488
" />
<path d="M268.6189 57.3488
L268.6522 57.4155
" />
<path d="M268.6522 57.4155
L268.6522 57.4822
" />
<path d="M268.6522 57.4822
L268.3189 57.5488
" />
<path d="M269.2522 57.7822
L269.2522 57.0822
" />
<path d="M269.2522 57.7488
L269.1855 57.7822
" />
<path d="M269.1855 57.7822
L269.0522 57.7822
" />
<path d="M269.0522 57.7822
L268.9855 57.7488
" />
<path d="M268.9855 57.7488
L268.9522 57.7155
" />
<path d="M268.9522 57.7155
L268.9189 57.6488
" />
<path d="M268.9189 57.6488
L268.9189 57.4488
" />
<path d="M268.9189 57.4488
L268.9522 57.3822
" />
<path d="M268.9522 57.3822
L268.9855 57.3488
" />
<path d="M268.9855 57.3488
L269.0522 57.3155
" />
<path d="M269.0522 57.3155
L269.1855 57.3155
" />
<path d="M269.1855 57.3155
L269.2522 57.3488
" />
<path d="M269.8855 57.7822
L269.8855 57.4155
" />
<path d="M269.8855 57.4155
L269.8522 57.3488
" />
<path d="M269.8522 57.3488
L269.7855 57.3155
" />
<path d="M269.7855 57.3155
L269.6522 57.3155
" />
<path d="M269.6522 57.3155
L269.5855 57.3488
" />
<path d="M269.8855 57.7488
L269.8189 57.7822
" />
<path d="M269.8189 57.7822
L269.6522 57.7822
" />
<path d="M269.6522 57.7822
L269.5855 57.7488
" />
<path d="M269.5855 57.7488
L269.5522 57.6822
" />
<path d="M269.5522 57.6822
L269.5522 57.6155
" />
<path d="M269.5522 57.6155
L269.5855 57.5488
" />
<path d="M269.5855 57.5488
L269.6522 57.5155
" />
<path d="M269.6522 57.5155
L269.8189 57.5155
" />
<path d="M269.8189 57.5155
L269.8855 57.4822
" />
<path d="M270.3189 57.7822
L270.2522 57.7488
" />
<path d="M270.2522 57.7488
L270.2189 57.6822
" />
<path d="M270.2189 57.6822
L270.2189 57.0822
" />
<path d="M270.5855 57.7822
L270.5855 57.0822
" />
<path d="M270.5855 57.3488
L270.6522 57.3155
" />
<path d="M270.6522 57.3155
L270.7855 57.3155
" />
<path d="M270.7855 57.3155
L270.8522 57.3488
" />
<path d="M270.8522 57.3488
L270.8855 57.3822
" />
<path d="M270.8855 57.3822
L270.9189 57.4488
" />
<path d="M270.9189 57.4488
L270.9189 57.6488
" />
<path d="M270.9189 57.6488
L270.8855 57.7155
" />
<path d="M270.8855 57.7155
L270.8522 57.7488
" />
<path d="M270.8522 57.7488
L270.7855 57.7822
" />
<path d="M270.7855 57.7822
L270.6522 57.7822
" />
<path d="M270.6522 57.7822
L270.5855 57.7488
" />
<path d="M271.3189 57.7822
L271.2522 57.7488
" />
<path d="M271.2522 57.7488
L271.2189 57.7155
" />
<path d="M271.2189 57.7155
L271.1855 57.6488
" />
<path d="M271.1855 57.6488
L271.1855 57.4488
" />
<path d="M271.1855 57.4488
L271.2189 57.3822
" />
<path d="M271.2189 57.3822
L271.2522 57.3488
" />
<path d="M271.2522 57.3488
L271.3189 57.3155
" />
<path d="M271.3189 57.3155
L271.4189 57.3155
" />
<path d="M271.4189 57.3155
L271.4855 57.3488
" />
<path d="M271.4855 57.3488
L271.5189 57.3822
" />
<path d="M271.5189 57.3822
L271.5522 57.4488
" />
<path d="M271.5522 57.4488
L271.5522 57.6488
" />
<path d="M271.5522 57.6488
L271.5189 57.7155
" />
<path d="M271.5189 57.7155
L271.4855 57.7488
" />
<path d="M271.4855 57.7488
L271.4189 57.7822
" />
<path d="M271.4189 57.7822
L271.3189 57.7822
" />
<path d="M272.1522 57.7822
L272.1522 57.4155
" />
<path d="M272.1522 57.4155
L272.1189 57.3488
" />
<path d="M272.1189 57.3488
L272.0522 57.3155
" />
<path d="M272.0522 57.3155
L271.9189 57.3155
" />
<path d="M271.9189 57.3155
L271.8522 57.3488
" />
<path d="M272.1522 57.7488
L272.0855 57.7822
" />
<path d="M272.0855 57.7822
L271.9189 57.7822
" />
<path d="M271.9189 57.7822
L271.8522 57.7488
" />
<path d="M271.8522 57.7488
L271.8189 57.6822
" />
<path d="M271.8189 57.6822
L271.8189 57.6155
" />
<path d="M271.8189 57.6155
L271.8522 57.5488
" />
<path d="M271.8522 57.5488
L271.9189 57.5155
" />
<path d="M271.9189 57.5155
L272.0855 57.5155
" />
<path d="M272.0855 57.5155
L272.1522 57.4822
" />
<path d="M272.4855 57.7822
L272.4855 57.3155
" />
<path d="M272.4855 57.4488
L272.5189 57.3822
" />
<path d="M272.5189 57.3822
L272.5522 57.3488
" />
<path d="M272.5522 57.3488
L272.6189 57.3155
" />
<path d="M272.6189 57.3155
L272.6855 57.3155
" />
<path d="M273.2189 57.7822
L273.2189 57.0822
" />
<path d="M273.2189 57.7488
L273.1522 57.7822
" />
<path d="M273.1522 57.7822
L273.0189 57.7822
" />
<path d="M273.0189 57.7822
L272.9522 57.7488
" />
<path d="M272.9522 57.7488
L272.9189 57.7155
" />
<path d="M272.9189 57.7155
L272.8855 57.6488
" />
<path d="M272.8855 57.6488
L272.8855 57.4488
" />
<path d="M272.8855 57.4488
L272.9189 57.3822
" />
<path d="M272.9189 57.3822
L272.9522 57.3488
" />
<path d="M272.9522 57.3488
L273.0189 57.3155
" />
<path d="M273.0189 57.3155
L273.1522 57.3155
" />
<path d="M273.1522 57.3155
L273.2189 57.3488
" />
</g><text x="265.0022" y="59.0000"
textLength="16.1933" font-size="0.9333" lengthAdjust="spacingAndGlyphs"
text-anchor="middle" opacity="0" stroke-opacity="0">PCB: v0.0.0-RC1 ($:410cee6)</text>
<g class="stroked-text"><desc>PCB: v0.0.0-RC1 ($:410cee6)</desc>
<path d="M257.1522 58.9091
L257.1522 58.2091
" />
<path d="M257.1522 58.2091
L257.4189 58.2091
" />
<path d="M257.4189 58.2091
L257.4855 58.2425
" />
<path d="M257.4855 58.2425
L257.5189 58.2758
" />
<path d="M257.5189 58.2758
L257.5522 58.3425
" />
<path d="M257.5522 58.3425
L257.5522 58.4425
" />
<path d="M257.5522 58.4425
L257.5189 58.5091
" />
<path d="M257.5189 58.5091
L257.4855 58.5425
" />
<path d="M257.4855 58.5425
L257.4189 58.5758
" />
<path d="M257.4189 58.5758
L257.1522 58.5758
" />
<path d="M258.2522 58.8425
L258.2189 58.8758
" />
<path d="M258.2189 58.8758
L258.1189 58.9091
" />
<path d="M258.1189 58.9091
L258.0522 58.9091
" />
<path d="M258.0522 58.9091
L257.9522 58.8758
" />
<path d="M257.9522 58.8758
L257.8855 58.8091
" />
<path d="M257.8855 58.8091
L257.8522 58.7425
" />
<path d="M257.8522 58.7425
L257.8189 58.6091
" />
<path d="M257.8189 58.6091
L257.8189 58.5091
" />
<path d="M257.8189 58.5091
L257.8522 58.3758
" />
<path d="M257.8522 58.3758
L257.8855 58.3091
" />
<path d="M257.8855 58.3091
L257.9522 58.2425
" />
<path d="M257.9522 58.2425
L258.0522 58.2091
" />
<path d="M258.0522 58.2091
L258.1189 58.2091
" />
<path d="M258.1189 58.2091
L258.2189 58.2425
" />
<path d="M258.2189 58.2425
L258.2522 58.2758
" />
<path d="M258.7855 58.5425
L258.8855 58.5758
" />
<path d="M258.8855 58.5758
L258.9189 58.6091
" />
<path d="M258.9189 58.6091
L258.9522 58.6758
" />
<path d="M258.9522 58.6758
L258.9522 58.7758
" />
<path d="M258.9522 58.7758
L258.9189 58.8425
" />
<path d="M258.9189 58.8425
L258.8855 58.8758
" />
<path d="M258.8855 58.8758
L258.8189 58.9091
" />
<path d="M258.8189 58.9091
L258.5522 58.9091
" />
<path d="M258.5522 58.9091
L258.5522 58.2091
" />
<path d="M258.5522 58.2091
L258.7855 58.2091
" />
<path d="M258.7855 58.2091
L258.8522 58.2425
" />
<path d="M258.8522 58.2425
L258.8855 58.2758
" />
<path d="M258.8855 58.2758
L258.9189 58.3425
" />
<path d="M258.9189 58.3425
L258.9189 58.4091
" />
<path d="M258.9189 58.4091
L258.8855 58.4758
" />
<path d="M258.8855 58.4758
L258.8522 58.5091
" />
<path d="M258.8522 58.5091
L258.7855 58.5425
" />
<path d="M258.7855 58.5425
L258.5522 58.5425
" />
<path d="M259.2522 58.8425
L259.2855 58.8758
" />
<path d="M259.2855 58.8758
L259.2522 58.9091
" />
<path d="M259.2522 58.9091
L259.2189 58.8758
" />
<path d="M259.2189 58.8758
L259.2522 58.8425
" />
<path d="M259.2522 58.8425
L259.2522 58.9091
" />
<path d="M259.2522 58.4758
L259.2855 58.5091
" />
<path d="M259.2855 58.5091
L259.2522 58.5425
" />
<path d="M259.2522 58.5425
L259.2189 58.5091
" />
<path d="M259.2189 58.5091
L259.2522 58.4758
" />
<path d="M259.2522 58.4758
L259.2522 58.5425
" />
<path d="M260.0522 58.4425
L260.2189 58.9091
" />
<path d="M260.2189 58.9091
L260.3855 58.4425
" />
<path d="M260.7855 58.2091
L260.8522 58.2091
" />
<path d="M260.8522 58.2091
L260.9189 58.2425
" />
<path d="M260.9189 58.2425
L260.9522 58.2758
" />
<path d="M260.9522 58.2758
L260.9855 58.3425
" />
<path d="M260.9855 58.3425
L261.0189 58.4758
" />
<path d="M261.0189 58.4758
L261.0189 58.6425
" />
<path d="M261.0189 58.6425
L260.9855 58.7758
" />
<path d="M260.9855 58.7758
L260.9522 58.8425
" />
<path d="M260.9522 58.8425
L260.9189 58.8758
" />
<path d="M260.9189 58.8758
L260.8522 58.9091
" />
<path d="M260.8522 58.9091
L260.7855 58.9091
" />
<path d="M260.7855 58.9091
L260.7189 58.8758
" />
<path d="M260.7189 58.8758
L260.6855 58.8425
" />
<path d="M260.6855 58.8425
L260.6522 58.7758
" />
<path d="M260.6522 58.7758
L260.6189 58.6425
" />
<path d="M260.6189 58.6425
L260.6189 58.4758
" />
<path d="M260.6189 58.4758
L260.6522 58.3425
" />
<path d="M260.6522 58.3425
L260.6855 58.2758
" />
<path d="M260.6855 58.2758
L260.7189 58.2425
" />
<path d="M260.7189 58.2425
L260.7855 58.2091
" />
<path d="M261.3189 58.8425
L261.3522 58.8758
" />
<path d="M261.3522 58.8758
L261.3189 58.9091
" />
<path d="M261.3189 58.9091
L261.2855 58.8758
" />
<path d="M261.2855 58.8758
L261.3189 58.8425
" />
<path d="M261.3189 58.8425
L261.3189 58.9091
" />
<path d="M261.7855 58.2091
L261.8522 58.2091
" />
<path d="M261.8522 58.2091
L261.9189 58.2425
" />
<path d="M261.9189 58.2425
L261.9522 58.2758
" />
<path d="M261.9522 58.2758
L261.9855 58.3425
" />
<path d="M261.9855 58.3425
L262.0189 58.4758
" />
<path d="M262.0189 58.4758
L262.0189 58.6425
" />
<path d="M262.0189 58.6425
L261.9855 58.7758
" />
<path d="M261.9855 58.7758
L261.9522 58.8425
" />
<path d="M261.9522 58.8425
L261.9189 58.8758
" />
<path d="M261.9189 58.8758
L261.8522 58.9091
" />
<path d="M261.8522 58.9091
L261.7855 58.9091
" />
<path d="M261.7855 58.9091
L261.7189 58.8758
" />
<path d="M261.7189 58.8758
L261.6855 58.8425
" />
<path d="M261.6855 58.8425
L261.6522 58.7758
" />
<path d="M261.6522 58.7758
L261.6189 58.6425
" />
<path d="M261.6189 58.6425
L261.6189 58.4758
" />
<path d="M261.6189 58.4758
L261.6522 58.3425
" />
<path d="M261.6522 58.3425
L261.6855 58.2758
" />
<path d="M261.6855 58.2758
L261.7189 58.2425
" />
<path d="M261.7189 58.2425
L261.7855 58.2091
" />
<path d="M262.3189 58.8425
L262.3522 58.8758
" />
<path d="M262.3522 58.8758
L262.3189 58.9091
" />
<path d="M262.3189 58.9091
L262.2855 58.8758
" />
<path d="M262.2855 58.8758
L262.3189 58.8425
" />
<path d="M262.3189 58.8425
L262.3189 58.9091
" />
<path d="M262.7855 58.2091
L262.8522 58.2091
" />
<path d="M262.8522 58.2091
L262.9189 58.2425
" />
<path d="M262.9189 58.2425
L262.9522 58.2758
" />
<path d="M262.9522 58.2758
L262.9855 58.3425
" />
<path d="M262.9855 58.3425
L263.0189 58.4758
" />
<path d="M263.0189 58.4758
L263.0189 58.6425
" />
<path d="M263.0189 58.6425
L262.9855 58.7758
" />
<path d="M262.9855 58.7758
L262.9522 58.8425
" />
<path d="M262.9522 58.8425
L262.9189 58.8758
" />
<path d="M262.9189 58.8758
L262.8522 58.9091
" />
<path d="M262.8522 58.9091
L262.7855 58.9091
" />
<path d="M262.7855 58.9091
L262.7189 58.8758
" />
<path d="M262.7189 58.8758
L262.6855 58.8425
" />
<path d="M262.6855 58.8425
L262.6522 58.7758
" />
<path d="M262.6522 58.7758
L262.6189 58.6425
" />
<path d="M262.6189 58.6425
L262.6189 58.4758
" />
<path d="M262.6189 58.4758
L262.6522 58.3425
" />
<path d="M262.6522 58.3425
L262.6855 58.2758
" />
<path d="M262.6855 58.2758
L262.7189 58.2425
" />
<path d="M262.7189 58.2425
L262.7855 58.2091
" />
<path d="M263.3189 58.6425
L263.8522 58.6425
" />
<path d="M264.5855 58.9091
L264.3522 58.5758
" />
<path d="M264.1855 58.9091
L264.1855 58.2091
" />
<path d="M264.1855 58.2091
L264.4522 58.2091
" />
<path d="M264.4522 58.2091
L264.5189 58.2425
" />
<path d="M264.5189 58.2425
L264.5522 58.2758
" />
<path d="M264.5522 58.2758
L264.5855 58.3425
" />
<path d="M264.5855 58.3425
L264.5855 58.4425
" />
<path d="M264.5855 58.4425
L264.5522 58.5091
" />
<path d="M264.5522 58.5091
L264.5189 58.5425
" />
<path d="M264.5189 58.5425
L264.4522 58.5758
" />
<path d="M264.4522 58.5758
L264.1855 58.5758
" />
<path d="M265.2855 58.8425
L265.2522 58.8758
" />
<path d="M265.2522 58.8758
L265.1522 58.9091
" />
<path d="M265.1522 58.9091
L265.0855 58.9091
" />
<path d="M265.0855 58.9091
L264.9855 58.8758
" />
<path d="M264.9855 58.8758
L264.9189 58.8091
" />
<path d="M264.9189 58.8091
L264.8855 58.7425
" />
<path d="M264.8855 58.7425
L264.8522 58.6091
" />
<path d="M264.8522 58.6091
L264.8522 58.5091
" />
<path d="M264.8522 58.5091
L264.8855 58.3758
" />
<path d="M264.8855 58.3758
L264.9189 58.3091
" />
<path d="M264.9189 58.3091
L264.9855 58.2425
" />
<path d="M264.9855 58.2425
L265.0855 58.2091
" />
<path d="M265.0855 58.2091
L265.1522 58.2091
" />
<path d="M265.1522 58.2091
L265.2522 58.2425
" />
<path d="M265.2522 58.2425
L265.2855 58.2758
" />
<path d="M265.9522 58.9091
L265.5522 58.9091
" />
<path d="M265.7522 58.9091
L265.7522 58.2091
" />
<path d="M265.7522 58.2091
L265.6855 58.3091
" />
<path d="M265.6855 58.3091
L265.6189 58.3758
" />
<path d="M265.6189 58.3758
L265.5522 58.4091
" />
<path d="M266.9855 59.1758
L266.9522 59.1425
" />
<path d="M266.9522 59.1425
L266.8855 59.0425
" />
<path d="M266.8855 59.0425
L266.8522 58.9758
" />
<path d="M266.8522 58.9758
L266.8189 58.8758
" />
<path d="M266.8189 58.8758
L266.7855 58.7091
" />
<path d="M266.7855 58.7091
L266.7855 58.5758
" />
<path d="M266.7855 58.5758
L266.8189 58.4091
" />
<path d="M266.8189 58.4091
L266.8522 58.3091
" />
<path d="M266.8522 58.3091
L266.8855 58.2425
" />
<path d="M266.8855 58.2425
L266.9522 58.1425
" />
<path d="M266.9522 58.1425
L266.9855 58.1091
" />
<path d="M267.2189 58.8758
L267.3189 58.9091
" />
<path d="M267.3189 58.9091
L267.4855 58.9091
" />
<path d="M267.4855 58.9091
L267.5522 58.8758
" />
<path d="M267.5522 58.8758
L267.5855 58.8425
" />
<path d="M267.5855 58.8425
L267.6189 58.7758
" />
<path d="M267.6189 58.7758
L267.6189 58.7091
" />
<path d="M267.6189 58.7091
L267.5855 58.6425
" />
<path d="M267.5855 58.6425
L267.5522 58.6091
" />
<path d="M267.5522 58.6091
L267.4855 58.5758
" />
<path d="M267.4855 58.5758
L267.3522 58.5425
" />
<path d="M267.3522 58.5425
L267.2855 58.5091
" />
<path d="M267.2855 58.5091
L267.2522 58.4758
" />
<path d="M267.2522 58.4758
L267.2189 58.4091
" />
<path d="M267.2189 58.4091
L267.2189 58.3425
" />
<path d="M267.2189 58.3425
L267.2522 58.2758
" />
<path d="M267.2522 58.2758
L267.2855 58.2425
" />
<path d="M267.2855 58.2425
L267.3522 58.2091
" />
<path d="M267.3522 58.2091
L267.5189 58.2091
" />
<path d="M267.5189 58.2091
L267.6189 58.2425
" />
<path d="M267.4189 58.1091
L267.4189 59.0091
" />
<path d="M267.9189 58.8425
L267.9522 58.8758
" />
<path d="M267.9522 58.8758
L267.9189 58.9091
" />
<path d="M267.9189 58.9091
L267.8855 58.8758
" />
<path d="M267.8855 58.8758
L267.9189 58.8425
" />
<path d="M267.9189 58.8425
L267.9189 58.9091
" />
<path d="M267.9189 58.4758
L267.9522 58.5091
" />
<path d="M267.9522 58.5091
L267.9189 58.5425
" />
<path d="M267.9189 58.5425
L267.8855 58.5091
" />
<path d="M267.8855 58.5091
L267.9189 58.4758
" />
<path d="M267.9189 58.4758
L267.9189 58.5425
" />
<path d="M268.5522 58.4425
L268.5522 58.9091
" />
<path d="M268.3855 58.1758
L268.2189 58.6758
" />
<path d="M268.2189 58.6758
L268.6522 58.6758
" />
<path d="M269.2855 58.9091
L268.8855 58.9091
" />
<path d="M269.0855 58.9091
L269.0855 58.2091
" />
<path d="M269.0855 58.2091
L269.0189 58.3091
" />
<path d="M269.0189 58.3091
L268.9522 58.3758
" />
<path d="M268.9522 58.3758
L268.8855 58.4091
" />
<path d="M269.7189 58.2091
L269.7855 58.2091
" />
<path d="M269.7855 58.2091
L269.8522 58.2425
" />
<path d="M269.8522 58.2425
L269.8855 58.2758
" />
<path d="M269.8855 58.2758
L269.9189 58.3425
" />
<path d="M269.9189 58.3425
L269.9522 58.4758
" />
<path d="M269.9522 58.4758
L269.9522 58.6425
" />
<path d="M269.9522 58.6425
L269.9189 58.7758
" />
<path d="M269.9189 58.7758
L269.8855 58.8425
" />
<path d="M269.8855 58.8425
L269.8522 58.8758
" />
<path d="M269.8522 58.8758
L269.7855 58.9091
" />
<path d="M269.7855 58.9091
L269.7189 58.9091
" />
<path d="M269.7189 58.9091
L269.6522 58.8758
" />
<path d="M269.6522 58.8758
L269.6189 58.8425
" />
<path d="M269.6189 58.8425
L269.5855 58.7758
" />
<path d="M269.5855 58.7758
L269.5522 58.6425
" />
<path d="M269.5522 58.6425
L269.5522 58.4758
" />
<path d="M269.5522 58.4758
L269.5855 58.3425
" />
<path d="M269.5855 58.3425
L269.6189 58.2758
" />
<path d="M269.6189 58.2758
L269.6522 58.2425
" />
<path d="M269.6522 58.2425
L269.7189 58.2091
" />
<path d="M270.5522 58.8758
L270.4855 58.9091
" />
<path d="M270.4855 58.9091
L270.3522 58.9091
" />
<path d="M270.3522 58.9091
L270.2855 58.8758
" />
<path d="M270.2855 58.8758
L270.2522 58.8425
" />
<path d="M270.2522 58.8425
L270.2189 58.7758
" />
<path d="M270.2189 58.7758
L270.2189 58.5758
" />
<path d="M270.2189 58.5758
L270.2522 58.5091
" />
<path d="M270.2522 58.5091
L270.2855 58.4758
" />
<path d="M270.2855 58.4758
L270.3522 58.4425
" />
<path d="M270.3522 58.4425
L270.4855 58.4425
" />
<path d="M270.4855 58.4425
L270.5522 58.4758
" />
<path d="M271.1189 58.8758
L271.0522 58.9091
" />
<path d="M271.0522 58.9091
L270.9189 58.9091
" />
<path d="M270.9189 58.9091
L270.8522 58.8758
" />
<path d="M270.8522 58.8758
L270.8189 58.8091
" />
<path d="M270.8189 58.8091
L270.8189 58.5425
" />
<path d="M270.8189 58.5425
L270.8522 58.4758
" />
<path d="M270.8522 58.4758
L270.9189 58.4425
" />
<path d="M270.9189 58.4425
L271.0522 58.4425
" />
<path d="M271.0522 58.4425
L271.1189 58.4758
" />
<path d="M271.1189 58.4758
L271.1522 58.5425
" />
<path d="M271.1522 58.5425
L271.1522 58.6091
" />
<path d="M271.1522 58.6091
L270.8189 58.6758
" />
<path d="M271.7189 58.8758
L271.6522 58.9091
" />
<path d="M271.6522 58.9091
L271.5189 58.9091
" />
<path d="M271.5189 58.9091
L271.4522 58.8758
" />
<path d="M271.4522 58.8758
L271.4189 58.8091
" />
<path d="M271.4189 58.8091
L271.4189 58.5425
" />
<path d="M271.4189 58.5425
L271.4522 58.4758
" />
<path d="M271.4522 58.4758
L271.5189 58.4425
" />
<path d="M271.5189 58.4425
L271.6522 58.4425
" />
<path d="M271.6522 58.4425
L271.7189 58.4758
" />
<path d="M271.7189 58.4758
L271.7522 58.5425
" />
<path d="M271.7522 58.5425
L271.7522 58.6091
" />
<path d="M271.7522 58.6091
L271.4189 58.6758
" />
<path d="M272.3522 58.2091
L272.2189 58.2091
" />
<path d="M272.2189 58.2091
L272.1522 58.2425
" />
<path d="M272.1522 58.2425
L272.1189 58.2758
" />
<path d="M272.1189 58.2758
L272.0522 58.3758
" />
<path d="M272.0522 58.3758
L272.0189 58.5091
" />
<path d="M272.0189 58.5091
L272.0189 58.7758
" />
<path d="M272.0189 58.7758
L272.0522 58.8425
" />
<path d="M272.0522 58.8425
L272.0855 58.8758
" />
<path d="M272.0855 58.8758
L272.1522 58.9091
" />
<path d="M272.1522 58.9091
L272.2855 58.9091
" />
<path d="M272.2855 58.9091
L272.3522 58.8758
" />
<path d="M272.3522 58.8758
L272.3855 58.8425
" />
<path d="M272.3855 58.8425
L272.4189 58.7758
" />
<path d="M272.4189 58.7758
L272.4189 58.6091
" />
<path d="M272.4189 58.6091
L272.3855 58.5425
" />
<path d="M272.3855 58.5425
L272.3522 58.5091
" />
<path d="M272.3522 58.5091
L272.2855 58.4758
" />
<path d="M272.2855 58.4758
L272.1522 58.4758
" />
<path d="M272.1522 58.4758
L272.0855 58.5091
" />
<path d="M272.0855 58.5091
L272.0522 58.5425
" />
<path d="M272.0522 58.5425
L272.0189 58.6091
" />
<path d="M272.6522 59.1758
L272.6855 59.1425
" />
<path d="M272.6855 59.1425
L272.7522 59.0425
" />
<path d="M272.7522 59.0425
L272.7855 58.9758
" />
<path d="M272.7855 58.9758
L272.8189 58.8758
" />
<path d="M272.8189 58.8758
L272.8522 58.7091
" />
<path d="M272.8522 58.7091
L272.8522 58.5758
" />
<path d="M272.8522 58.5758
L272.8189 58.4091
" />
<path d="M272.8189 58.4091
L272.7855 58.3091
" />
<path d="M272.7855 58.3091
L272.7522 58.2425
" />
<path d="M272.7522 58.2425
L272.6855 58.1425
" />
<path d="M272.6855 58.1425
L272.6522 58.1091
" />
</g></g>
<g style="fill:none; 
stroke:#000000; stroke-width:0.1500; stroke-opacity:1; 
stroke-linecap:round; stroke-linejoin:round;">
<g transform="rotate(90.000000 277.7522 111.0000)">
<text x="277.7522" y="111.5000"
textLength="1.9643" font-size="1.3333" lengthAdjust="spacingAndGlyphs"
text-anchor="middle" opacity="0" stroke-opacity="0">J2</text>
</g>
<g class="stroked-text"><desc>J2</desc>
<path d="M278.2974 110.6667
L277.5831 110.6667
" />
<path d="M277.5831 110.6667
L277.4402 110.6190
" />
<path d="M277.4402 110.6190
L277.3450 110.5238
" />
<path d="M277.3450 110.5238
L277.2974 110.3810
" />
<path d="M277.2974 110.3810
L277.2974 110.2857
" />
<path d="M278.2021 111.0952
L278.2498 111.1429
" />
<path d="M278.2498 111.1429
L278.2974 111.2381
" />
<path d="M278.2974 111.2381
L278.2974 111.4762
" />
<path d="M278.2974 111.4762
L278.2498 111.5714
" />
<path d="M278.2498 111.5714
L278.2021 111.6190
" />
<path d="M278.2021 111.6190
L278.1069 111.6667
" />
<path d="M278.1069 111.6667
L278.0117 111.6667
" />
<path d="M278.0117 111.6667
L277.8688 111.6190
" />
<path d="M277.8688 111.6190
L277.2974 111.0476
" />
<path d="M277.2974 111.0476
L277.2974 111.6667
" />
</g><text x="194.0022" y="37.5000"
textLength="1.9643" font-size="1.3333" lengthAdjust="spacingAndGlyphs"
text-anchor="middle" opacity="0" stroke-opacity="0">J1</text>
<g class="stroked-text"><desc>J1</desc>
<path d="M193.6689 36.4548
L193.6689 37.1691
" />
<path d="M193.6689 37.1691
L193.6212 37.3120
" />
<path d="M193.6212 37.3120
L193.5260 37.4072
" />
<path d="M193.5260 37.4072
L193.3832 37.4548
" />
<path d="M193.3832 37.4548
L193.2879 37.4548
" />
<path d="M194.6689 37.4548
L194.0974 37.4548
" />
<path d="M194.3832 37.4548
L194.3832 36.4548
" />
<path d="M194.3832 36.4548
L194.2879 36.5977
" />
<path d="M194.2879 36.5977
L194.1927 36.6929
" />
<path d="M194.1927 36.6929
L194.0974 36.7405
" />
</g></g>
<g style="fill:none; 
stroke:#000000; stroke-width:0.1200; stroke-opacity:1; 
stroke-linecap:round; stroke-linejoin:round;">
<path d="M276.6622 105.9150
L276.6622 116.0850
" />
<path d="M276.6622 116.0850
L275.8122 116.0850
" />
<path d="M275.8122 105.9150
L276.6622 105.9150
" />
<path d="M272.2922 105.9150
L271.4422 105.9150
" />
<path d="M272.2922 116.0850
L271.4422 116.0850
" />
<path d="M271.4422 105.9150
L271.4422 108.2400
" />
<path d="M271.4422 108.2400
L269.0522 108.2400
" />
<path d="M271.4422 116.0850
L271.4422 113.7600
" />
<path d="M195.0872 30.6400
L195.0872 31.4900
" />
<path d="M195.0872 35.0100
L195.0872 35.8600
" />
<path d="M195.0872 35.8600
L192.7622 35.8600
" />
<path d="M187.2422 35.8600
L187.2422 38.2500
" />
<path d="M184.9172 30.6400
L195.0872 30.6400
" />
<path d="M184.9172 31.4900
L184.9172 30.6400
" />
<path d="M184.9172 35.0100
L184.9172 35.8600
" />
<path d="M184.9172 35.8600
L187.2422 35.8600
" />
</g> 
</svg>
