<?xml version="1.0" standalone="no"?>
 <!DOCTYPE svg PUBLIC "-//W3C//DTD SVG 1.1//EN" 
 "http://www.w3.org/Graphics/SVG/1.1/DTD/svg11.dtd"> 
<svg
  xmlns:svg="http://www.w3.org/2000/svg"
  xmlns="http://www.w3.org/2000/svg"
  xmlns:xlink="http://www.w3.org/1999/xlink"
  version="1.1"
  width="297.0022mm" height="210.0072mm" viewBox="0.0000 0.0000 297.0022 210.0072">
<title>SVG Image created as pedalboard-display-Edge_Cuts.svg date 2024/10/06 16:17:31 </title>
  <desc>Image generated by PCBNEW </desc>
<g style="fill:#000000; fill-opacity:1.0000;stroke:#000000; stroke-opacity:1.0000;
stroke-linecap:round; stroke-linejoin:round;"
 transform="translate(0 0) scale(1 1)">
</g>
<g style="fill:none; 
stroke:#000000; stroke-width:0.1000; stroke-opacity:1; 
stroke-linecap:round; stroke-linejoin:round;">
<path d="M25.0000 136.0000
L112.0000 136.0000
" />
<circle cx="182.0000" cy="124.0000" r="6.1000" /> 
<path d="M25.0000 25.0000 A1.0000 1.0000 0.0 0 0 24.0000 26.0000" />
<path d="M21.0000 31.0000 A1.0000 1.0000 0.0 0 0 20.0000 32.0000" />
<path d="M124.2000 25.0000
L189.0000 25.0000
" />
<path d="M24.0000 133.0000
L24.0000 135.0000
" />
<path d="M190.0000 26.0000
L190.0000 28.0000
" />
<path d="M194.0000 32.0000 A1.0000 1.0000 0.0 0 0 193.0000 31.0000" />
<path d="M20.0000 129.0000 A1.0000 1.0000 0.0 0 0 21.0000 130.0000" />
<path d="M102.0000 25.0000 A5.0000 5.0000 0.0 0 0 112.0000 25.0000" />
<path d="M112.0000 136.0000
L189.0000 136.0000
" />
<circle cx="145.0000" cy="39.0000" r="6.1000" /> 
<path d="M21.0000 31.0000 A3.0000 3.0000 0.0 0 0 24.0000 28.0000" />
<path d="M94.2000 25.0000
L102.0000 25.0000
" />
<circle cx="70.0000" cy="39.0000" r="6.1000" /> 
<circle cx="182.0000" cy="72.0000" r="6.1000" /> 
<circle cx="32.0000" cy="124.0000" r="6.1000" /> 
<circle cx="107.0000" cy="72.0000" r="6.1000" /> 
<path d="M194.0000 32.0000
L194.0000 129.0000
" />
<path d="M189.0000 136.0000 A1.0000 1.0000 0.0 0 0 190.0000 135.0000" />
<circle cx="32.0000" cy="72.0000" r="6.1000" /> 
<path d="M112.0000 25.0000
L124.2000 25.0000
" />
<path d="M24.0000 135.0000 A1.0000 1.0000 0.0 0 0 25.0000 136.0000" />
<path d="M193.0000 130.0000 A1.0000 1.0000 0.0 0 0 194.0000 129.0000" />
<path d="M190.0000 26.0000 A1.0000 1.0000 0.0 0 0 189.0000 25.0000" />
<path d="M190.0000 28.0000 A3.0000 3.0000 0.0 0 0 193.0000 31.0000" />
<path d="M20.0000 129.0000
L20.0000 32.0000
" />
<path d="M94.2000 25.0000
L25.0000 25.0000
" />
<path d="M190.0000 133.0000
L190.0000 135.0000
" />
<path d="M193.0000 130.0000 A3.0000 3.0000 0.0 0 0 190.0000 133.0000" />
<path d="M24.0000 26.0000
L24.0000 28.0000
" />
<circle cx="107.0000" cy="124.0000" r="6.1000" /> 
<path d="M24.0000 133.0000 A3.0000 3.0000 0.0 0 0 21.0000 130.0000" />
<path style="fill:none; 
stroke:#000000; stroke-width:0.0500; stroke-opacity:1; 
stroke-linecap:round; stroke-linejoin:round;fill:none"
d="M 52.2000,78.2000
86.8000,78.2000
86.8000,124.2000
52.2000,124.2000
Z" /> 
<path style="fill:none; 
stroke:#000000; stroke-width:0.0500; stroke-opacity:1; 
stroke-linecap:round; stroke-linejoin:round;fill:none"
d="M 127.2000,78.2000
161.8000,78.2000
161.8000,124.2000
127.2000,124.2000
Z" /> 
</g> 
</svg>
