<?xml version="1.0" standalone="no"?>
 <!DOCTYPE svg PUBLIC "-//W3C//DTD SVG 1.1//EN" 
 "http://www.w3.org/Graphics/SVG/1.1/DTD/svg11.dtd"> 
<svg
  xmlns:svg="http://www.w3.org/2000/svg"
  xmlns="http://www.w3.org/2000/svg"
  xmlns:xlink="http://www.w3.org/1999/xlink"
  version="1.1"
  width="17.61cm" height="11.31cm" viewBox="18.95 23.95 176.1 113.1">
<title>SVG Image created as pedalboard-display-B_Mask.svg date 2024/10/06 11:08:21 </title>
  <desc>Image generated by PCBNEW </desc>
<g style="fill:#000000; fill-opacity:1.000000;stroke:#000000; stroke-opacity:1.000000;
stroke-linecap:round; stroke-linejoin:round;"
 transform="translate(0 0) scale(1 1)">
</g>
<g style="fill:#000000; fill-opacity:1.000000; stroke:none;">
<circle cx="48.250000" cy="58.800000" r="1.050000" /> 
</g>
<g style="fill:#000000; fill-opacity:1.000000; stroke:none;">
<circle cx="48.250000" cy="110.800000" r="1.050000" /> 
</g>
<g style="fill:#000000; fill-opacity:1.000000; stroke:none;">
<circle cx="78.250000" cy="58.800000" r="1.050000" /> 
</g>
<g style="fill:#000000; fill-opacity:1.000000; stroke:none;">
<circle cx="78.250000" cy="110.800000" r="1.050000" /> 
<path style="fill:#000000; fill-opacity:1.000000; stroke:none;fill-rule:evenodd;"
d="M 66.188000,57.672800
67.888000,57.672800
67.888000,61.272800
66.188000,61.272800
Z" /> 
</g>
<g style="fill:none; 
stroke:#000000; stroke-width:1.700000; stroke-opacity:1; 
stroke-linecap:round; stroke-linejoin:round;">
<path d="M64.498000 58.572800
L64.498000 60.372800
" />
<path d="M61.958000 58.572800
L61.958000 60.372800
" />
<path d="M59.418000 58.572800
L59.418000 60.372800
" />
</g>
<g style="fill:#000000; fill-opacity:1.000000; stroke:none;">
<circle cx="131.300000" cy="60.600000" r="1.050000" /> 
</g>
<g style="fill:#000000; fill-opacity:1.000000; stroke:none;">
<circle cx="131.300000" cy="112.600000" r="1.050000" /> 
</g>
<g style="fill:#000000; fill-opacity:1.000000; stroke:none;">
<circle cx="161.300000" cy="60.600000" r="1.050000" /> 
</g>
<g style="fill:#000000; fill-opacity:1.000000; stroke:none;">
<circle cx="161.300000" cy="112.600000" r="1.050000" /> 
<path style="fill:#000000; fill-opacity:1.000000; stroke:none;fill-rule:evenodd;"
d="M 149.238000,59.472800
150.938000,59.472800
150.938000,63.072800
149.238000,63.072800
Z" /> 
</g>
<g style="fill:none; 
stroke:#000000; stroke-width:1.700000; stroke-opacity:1; 
stroke-linecap:round; stroke-linejoin:round;">
<path d="M147.548000 60.372800
L147.548000 62.172800
" />
<path d="M145.008000 60.372800
L145.008000 62.172800
" />
<path d="M142.468000 60.372800
L142.468000 62.172800
" />
<path style="fill:#000000; fill-opacity:1.000000; stroke:none;fill-rule:evenodd;"
d="M 130.500000,38.450000
130.480970,38.545671
130.426777,38.626777
130.345671,38.680970
130.250000,38.700000
129.750000,38.700000
129.654329,38.680970
129.573223,38.626777
129.519030,38.545671
129.500000,38.450000
129.500000,33.450000
129.519030,33.354329
129.573223,33.273223
129.654329,33.219030
129.750000,33.200000
130.250000,33.200000
130.345671,33.219030
130.426777,33.273223
130.480970,33.354329
130.500000,33.450000
Z" /> 
<path style="fill:#000000; fill-opacity:1.000000; stroke:none;fill-rule:evenodd;"
d="M 128.500000,38.450000
128.480970,38.545671
128.426777,38.626777
128.345671,38.680970
128.250000,38.700000
127.750000,38.700000
127.654329,38.680970
127.573223,38.626777
127.519030,38.545671
127.500000,38.450000
127.500000,33.450000
127.519030,33.354329
127.573223,33.273223
127.654329,33.219030
127.750000,33.200000
128.250000,33.200000
128.345671,33.219030
128.426777,33.273223
128.480970,33.354329
128.500000,33.450000
Z" /> 
<path style="fill:#000000; fill-opacity:1.000000; stroke:none;fill-rule:evenodd;"
d="M 126.500000,38.450000
126.480970,38.545671
126.426777,38.626777
126.345671,38.680970
126.250000,38.700000
125.750000,38.700000
125.654329,38.680970
125.573223,38.626777
125.519030,38.545671
125.500000,38.450000
125.500000,33.450000
125.519030,33.354329
125.573223,33.273223
125.654329,33.219030
125.750000,33.200000
126.250000,33.200000
126.345671,33.219030
126.426777,33.273223
126.480970,33.354329
126.500000,33.450000
Z" /> 
<path style="fill:#000000; fill-opacity:1.000000; stroke:none;fill-rule:evenodd;"
d="M 124.500000,38.450000
124.480970,38.545671
124.426777,38.626777
124.345671,38.680970
124.250000,38.700000
123.750000,38.700000
123.654329,38.680970
123.573223,38.626777
123.519030,38.545671
123.500000,38.450000
123.500000,33.450000
123.519030,33.354329
123.573223,33.273223
123.654329,33.219030
123.750000,33.200000
124.250000,33.200000
124.345671,33.219030
124.426777,33.273223
124.480970,33.354329
124.500000,33.450000
Z" /> 
<path style="fill:#000000; fill-opacity:1.000000; stroke:none;fill-rule:evenodd;"
d="M 133.200000,34.950000
133.180970,35.045671
133.126777,35.126777
133.045671,35.180970
132.950000,35.200000
131.850000,35.200000
131.754329,35.180970
131.673223,35.126777
131.619030,35.045671
131.600000,34.950000
131.600000,32.450000
131.619030,32.354329
131.673223,32.273223
131.754329,32.219030
131.850000,32.200000
132.950000,32.200000
133.045671,32.219030
133.126777,32.273223
133.180970,32.354329
133.200000,32.450000
Z" /> 
<path style="fill:#000000; fill-opacity:1.000000; stroke:none;fill-rule:evenodd;"
d="M 122.400000,34.950000
122.380970,35.045671
122.326777,35.126777
122.245671,35.180970
122.150000,35.200000
121.050000,35.200000
120.954329,35.180970
120.873223,35.126777
120.819030,35.045671
120.800000,34.950000
120.800000,32.450000
120.819030,32.354329
120.873223,32.273223
120.954329,32.219030
121.050000,32.200000
122.150000,32.200000
122.245671,32.219030
122.326777,32.273223
122.380970,32.354329
122.400000,32.450000
Z" /> 
<path style="fill:#000000; fill-opacity:1.000000; stroke:none;fill-rule:evenodd;"
d="M 27.700000,108.500000
27.795671,108.519030
27.876777,108.573223
27.930970,108.654329
27.950000,108.750000
27.950000,109.250000
27.930970,109.345671
27.876777,109.426777
27.795671,109.480970
27.700000,109.500000
22.700000,109.500000
22.604329,109.480970
22.523223,109.426777
22.469030,109.345671
22.450000,109.250000
22.450000,108.750000
22.469030,108.654329
22.523223,108.573223
22.604329,108.519030
22.700000,108.500000
Z" /> 
<path style="fill:#000000; fill-opacity:1.000000; stroke:none;fill-rule:evenodd;"
d="M 27.700000,110.500000
27.795671,110.519030
27.876777,110.573223
27.930970,110.654329
27.950000,110.750000
27.950000,111.250000
27.930970,111.345671
27.876777,111.426777
27.795671,111.480970
27.700000,111.500000
22.700000,111.500000
22.604329,111.480970
22.523223,111.426777
22.469030,111.345671
22.450000,111.250000
22.450000,110.750000
22.469030,110.654329
22.523223,110.573223
22.604329,110.519030
22.700000,110.500000
Z" /> 
<path style="fill:#000000; fill-opacity:1.000000; stroke:none;fill-rule:evenodd;"
d="M 27.700000,112.500000
27.795671,112.519030
27.876777,112.573223
27.930970,112.654329
27.950000,112.750000
27.950000,113.250000
27.930970,113.345671
27.876777,113.426777
27.795671,113.480970
27.700000,113.500000
22.700000,113.500000
22.604329,113.480970
22.523223,113.426777
22.469030,113.345671
22.450000,113.250000
22.450000,112.750000
22.469030,112.654329
22.523223,112.573223
22.604329,112.519030
22.700000,112.500000
Z" /> 
<path style="fill:#000000; fill-opacity:1.000000; stroke:none;fill-rule:evenodd;"
d="M 24.200000,105.800000
24.295671,105.819030
24.376777,105.873223
24.430970,105.954329
24.450000,106.050000
24.450000,107.150000
24.430970,107.245671
24.376777,107.326777
24.295671,107.380970
24.200000,107.400000
21.700000,107.400000
21.604329,107.380970
21.523223,107.326777
21.469030,107.245671
21.450000,107.150000
21.450000,106.050000
21.469030,105.954329
21.523223,105.873223
21.604329,105.819030
21.700000,105.800000
Z" /> 
<path style="fill:#000000; fill-opacity:1.000000; stroke:none;fill-rule:evenodd;"
d="M 24.200000,114.600000
24.295671,114.619030
24.376777,114.673223
24.430970,114.754329
24.450000,114.850000
24.450000,115.950000
24.430970,116.045671
24.376777,116.126777
24.295671,116.180970
24.200000,116.200000
21.700000,116.200000
21.604329,116.180970
21.523223,116.126777
21.469030,116.045671
21.450000,115.950000
21.450000,114.850000
21.469030,114.754329
21.523223,114.673223
21.604329,114.619030
21.700000,114.600000
Z" /> 
<path style="fill:#000000; fill-opacity:1.000000; stroke:none;fill-rule:evenodd;"
d="M 109.500000,38.000000
109.480970,38.095671
109.426777,38.176777
109.345671,38.230970
109.250000,38.250000
108.750000,38.250000
108.654329,38.230970
108.573223,38.176777
108.519030,38.095671
108.500000,38.000000
108.500000,33.000000
108.519030,32.904329
108.573223,32.823223
108.654329,32.769030
108.750000,32.750000
109.250000,32.750000
109.345671,32.769030
109.426777,32.823223
109.480970,32.904329
109.500000,33.000000
Z" /> 
<path style="fill:#000000; fill-opacity:1.000000; stroke:none;fill-rule:evenodd;"
d="M 107.500000,38.000000
107.480970,38.095671
107.426777,38.176777
107.345671,38.230970
107.250000,38.250000
106.750000,38.250000
106.654329,38.230970
106.573223,38.176777
106.519030,38.095671
106.500000,38.000000
106.500000,33.000000
106.519030,32.904329
106.573223,32.823223
106.654329,32.769030
106.750000,32.750000
107.250000,32.750000
107.345671,32.769030
107.426777,32.823223
107.480970,32.904329
107.500000,33.000000
Z" /> 
<path style="fill:#000000; fill-opacity:1.000000; stroke:none;fill-rule:evenodd;"
d="M 105.500000,38.000000
105.480970,38.095671
105.426777,38.176777
105.345671,38.230970
105.250000,38.250000
104.750000,38.250000
104.654329,38.230970
104.573223,38.176777
104.519030,38.095671
104.500000,38.000000
104.500000,33.000000
104.519030,32.904329
104.573223,32.823223
104.654329,32.769030
104.750000,32.750000
105.250000,32.750000
105.345671,32.769030
105.426777,32.823223
105.480970,32.904329
105.500000,33.000000
Z" /> 
<path style="fill:#000000; fill-opacity:1.000000; stroke:none;fill-rule:evenodd;"
d="M 112.200000,34.500000
112.180970,34.595671
112.126777,34.676777
112.045671,34.730970
111.950000,34.750000
110.850000,34.750000
110.754329,34.730970
110.673223,34.676777
110.619030,34.595671
110.600000,34.500000
110.600000,32.000000
110.619030,31.904329
110.673223,31.823223
110.754329,31.769030
110.850000,31.750000
111.950000,31.750000
112.045671,31.769030
112.126777,31.823223
112.180970,31.904329
112.200000,32.000000
Z" /> 
<path style="fill:#000000; fill-opacity:1.000000; stroke:none;fill-rule:evenodd;"
d="M 103.400000,34.500000
103.380970,34.595671
103.326777,34.676777
103.245671,34.730970
103.150000,34.750000
102.050000,34.750000
101.954329,34.730970
101.873223,34.676777
101.819030,34.595671
101.800000,34.500000
101.800000,32.000000
101.819030,31.904329
101.873223,31.823223
101.954329,31.769030
102.050000,31.750000
103.150000,31.750000
103.245671,31.769030
103.326777,31.823223
103.380970,31.904329
103.400000,32.000000
Z" /> 
</g> 
</svg>
