<?xml version="1.0" standalone="no"?>
 <!DOCTYPE svg PUBLIC "-//W3C//DTD SVG 1.1//EN" 
 "http://www.w3.org/Graphics/SVG/1.1/DTD/svg11.dtd"> 
<svg
  xmlns:svg="http://www.w3.org/2000/svg"
  xmlns="http://www.w3.org/2000/svg"
  xmlns:xlink="http://www.w3.org/1999/xlink"
  version="1.1"
  width="17.61cm" height="11.31cm" viewBox="18.95 23.95 176.1 113.1">
<title>SVG Image created as pedalboard-display-B_Mask.svg date 2024/10/15 14:03:54 </title>
  <desc>Image generated by PCBNEW </desc>
<g style="fill:#000000; fill-opacity:1.000000;stroke:#000000; stroke-opacity:1.000000;
stroke-linecap:round; stroke-linejoin:round;"
 transform="translate(0 0) scale(1 1)">
</g>
<g style="fill:#000000; fill-opacity:1.000000; stroke:none;">
<circle cx="170.000000" cy="133.000000" r="1.250000" /> 
</g>
<g style="fill:#000000; fill-opacity:1.000000; stroke:none;">
<circle cx="187.000000" cy="28.000000" r="1.250000" /> 
</g>
<g style="fill:#000000; fill-opacity:1.000000; stroke:none;">
<circle cx="54.500000" cy="75.200000" r="1.700000" /> 
</g>
<g style="fill:#000000; fill-opacity:1.000000; stroke:none;">
<circle cx="54.500000" cy="127.200000" r="1.700000" /> 
</g>
<g style="fill:#000000; fill-opacity:1.000000; stroke:none;">
<circle cx="84.500000" cy="75.200000" r="1.700000" /> 
</g>
<g style="fill:#000000; fill-opacity:1.000000; stroke:none;">
<circle cx="84.500000" cy="127.200000" r="1.700000" /> 
<path style="fill:#000000; fill-opacity:1.000000; stroke:none;fill-rule:evenodd;"
d="M 72.438000,74.072800
74.138000,74.072800
74.138000,77.672800
72.438000,77.672800
Z" /> 
</g>
<g style="fill:none; 
stroke:#000000; stroke-width:1.700000; stroke-opacity:1; 
stroke-linecap:round; stroke-linejoin:round;">
<path d="M70.748000 74.972800
L70.748000 76.772800
" />
<path d="M68.208000 74.972800
L68.208000 76.772800
" />
<path d="M65.668000 74.972800
L65.668000 76.772800
" />
</g>
<g style="fill:#000000; fill-opacity:1.000000; stroke:none;">
<circle cx="44.000000" cy="133.000000" r="1.250000" /> 
</g>
<g style="fill:#000000; fill-opacity:1.000000; stroke:none;">
<circle cx="107.000000" cy="103.000000" r="1.250000" /> 
</g>
<g style="fill:#000000; fill-opacity:1.000000; stroke:none;">
<circle cx="27.000000" cy="28.000000" r="1.250000" /> 
</g>
<g style="fill:#000000; fill-opacity:1.000000; stroke:none;">
<circle cx="129.500000" cy="75.200000" r="1.700000" /> 
</g>
<g style="fill:#000000; fill-opacity:1.000000; stroke:none;">
<circle cx="129.500000" cy="127.200000" r="1.700000" /> 
</g>
<g style="fill:#000000; fill-opacity:1.000000; stroke:none;">
<circle cx="159.500000" cy="75.200000" r="1.700000" /> 
</g>
<g style="fill:#000000; fill-opacity:1.000000; stroke:none;">
<circle cx="159.500000" cy="127.200000" r="1.700000" /> 
<path style="fill:#000000; fill-opacity:1.000000; stroke:none;fill-rule:evenodd;"
d="M 147.438000,74.072800
149.138000,74.072800
149.138000,77.672800
147.438000,77.672800
Z" /> 
</g>
<g style="fill:none; 
stroke:#000000; stroke-width:1.700000; stroke-opacity:1; 
stroke-linecap:round; stroke-linejoin:round;">
<path d="M145.748000 74.972800
L145.748000 76.772800
" />
<path d="M143.208000 74.972800
L143.208000 76.772800
" />
<path d="M140.668000 74.972800
L140.668000 76.772800
" />
<path style="fill:#000000; fill-opacity:1.000000; stroke:none;fill-rule:evenodd;"
d="M 135.300000,77.337500
135.204329,77.318470
135.123223,77.264277
135.069030,77.183171
135.050000,77.087500
135.050000,76.562500
135.069030,76.466829
135.123223,76.385723
135.204329,76.331530
135.300000,76.312500
136.200000,76.312500
136.295671,76.331530
136.376777,76.385723
136.430970,76.466829
136.450000,76.562500
136.450000,77.087500
136.430970,77.183171
136.376777,77.264277
136.295671,77.318470
136.200000,77.337500
Z" /> 
<path style="fill:#000000; fill-opacity:1.000000; stroke:none;fill-rule:evenodd;"
d="M 135.300000,75.512500
135.204329,75.493470
135.123223,75.439277
135.069030,75.358171
135.050000,75.262500
135.050000,74.737500
135.069030,74.641829
135.123223,74.560723
135.204329,74.506530
135.300000,74.487500
136.200000,74.487500
136.295671,74.506530
136.376777,74.560723
136.430970,74.641829
136.450000,74.737500
136.450000,75.262500
136.430970,75.358171
136.376777,75.439277
136.295671,75.493470
136.200000,75.512500
Z" /> 
<path style="fill:#000000; fill-opacity:1.000000; stroke:none;fill-rule:evenodd;"
d="M 137.300000,77.337500
137.204329,77.318470
137.123223,77.264277
137.069030,77.183171
137.050000,77.087500
137.050000,76.562500
137.069030,76.466829
137.123223,76.385723
137.204329,76.331530
137.300000,76.312500
138.200000,76.312500
138.295671,76.331530
138.376777,76.385723
138.430970,76.466829
138.450000,76.562500
138.450000,77.087500
138.430970,77.183171
138.376777,77.264277
138.295671,77.318470
138.200000,77.337500
Z" /> 
<path style="fill:#000000; fill-opacity:1.000000; stroke:none;fill-rule:evenodd;"
d="M 137.300000,75.512500
137.204329,75.493470
137.123223,75.439277
137.069030,75.358171
137.050000,75.262500
137.050000,74.737500
137.069030,74.641829
137.123223,74.560723
137.204329,74.506530
137.300000,74.487500
138.200000,74.487500
138.295671,74.506530
138.376777,74.560723
138.430970,74.641829
138.450000,74.737500
138.450000,75.262500
138.430970,75.358171
138.376777,75.439277
138.295671,75.493470
138.200000,75.512500
Z" /> 
<path style="fill:#000000; fill-opacity:1.000000; stroke:none;fill-rule:evenodd;"
d="M 147.500000,71.000000
147.480970,71.095671
147.426777,71.176777
147.345671,71.230970
147.250000,71.250000
146.750000,71.250000
146.654329,71.230970
146.573223,71.176777
146.519030,71.095671
146.500000,71.000000
146.500000,66.000000
146.519030,65.904329
146.573223,65.823223
146.654329,65.769030
146.750000,65.750000
147.250000,65.750000
147.345671,65.769030
147.426777,65.823223
147.480970,65.904329
147.500000,66.000000
Z" /> 
<path style="fill:#000000; fill-opacity:1.000000; stroke:none;fill-rule:evenodd;"
d="M 145.500000,71.000000
145.480970,71.095671
145.426777,71.176777
145.345671,71.230970
145.250000,71.250000
144.750000,71.250000
144.654329,71.230970
144.573223,71.176777
144.519030,71.095671
144.500000,71.000000
144.500000,66.000000
144.519030,65.904329
144.573223,65.823223
144.654329,65.769030
144.750000,65.750000
145.250000,65.750000
145.345671,65.769030
145.426777,65.823223
145.480970,65.904329
145.500000,66.000000
Z" /> 
<path style="fill:#000000; fill-opacity:1.000000; stroke:none;fill-rule:evenodd;"
d="M 143.500000,71.000000
143.480970,71.095671
143.426777,71.176777
143.345671,71.230970
143.250000,71.250000
142.750000,71.250000
142.654329,71.230970
142.573223,71.176777
142.519030,71.095671
142.500000,71.000000
142.500000,66.000000
142.519030,65.904329
142.573223,65.823223
142.654329,65.769030
142.750000,65.750000
143.250000,65.750000
143.345671,65.769030
143.426777,65.823223
143.480970,65.904329
143.500000,66.000000
Z" /> 
<path style="fill:#000000; fill-opacity:1.000000; stroke:none;fill-rule:evenodd;"
d="M 141.500000,71.000000
141.480970,71.095671
141.426777,71.176777
141.345671,71.230970
141.250000,71.250000
140.750000,71.250000
140.654329,71.230970
140.573223,71.176777
140.519030,71.095671
140.500000,71.000000
140.500000,66.000000
140.519030,65.904329
140.573223,65.823223
140.654329,65.769030
140.750000,65.750000
141.250000,65.750000
141.345671,65.769030
141.426777,65.823223
141.480970,65.904329
141.500000,66.000000
Z" /> 
<path style="fill:#000000; fill-opacity:1.000000; stroke:none;fill-rule:evenodd;"
d="M 150.200000,67.500000
150.180970,67.595671
150.126777,67.676777
150.045671,67.730970
149.950000,67.750000
148.850000,67.750000
148.754329,67.730970
148.673223,67.676777
148.619030,67.595671
148.600000,67.500000
148.600000,65.000000
148.619030,64.904329
148.673223,64.823223
148.754329,64.769030
148.850000,64.750000
149.950000,64.750000
150.045671,64.769030
150.126777,64.823223
150.180970,64.904329
150.200000,65.000000
Z" /> 
<path style="fill:#000000; fill-opacity:1.000000; stroke:none;fill-rule:evenodd;"
d="M 139.400000,67.500000
139.380970,67.595671
139.326777,67.676777
139.245671,67.730970
139.150000,67.750000
138.050000,67.750000
137.954329,67.730970
137.873223,67.676777
137.819030,67.595671
137.800000,67.500000
137.800000,65.000000
137.819030,64.904329
137.873223,64.823223
137.954329,64.769030
138.050000,64.750000
139.150000,64.750000
139.245671,64.769030
139.326777,64.823223
139.380970,64.904329
139.400000,65.000000
Z" /> 
<path style="fill:#000000; fill-opacity:1.000000; stroke:none;fill-rule:evenodd;"
d="M 109.500000,51.750000
109.480970,51.845671
109.426777,51.926777
109.345671,51.980970
109.250000,52.000000
108.750000,52.000000
108.654329,51.980970
108.573223,51.926777
108.519030,51.845671
108.500000,51.750000
108.500000,46.750000
108.519030,46.654329
108.573223,46.573223
108.654329,46.519030
108.750000,46.500000
109.250000,46.500000
109.345671,46.519030
109.426777,46.573223
109.480970,46.654329
109.500000,46.750000
Z" /> 
<path style="fill:#000000; fill-opacity:1.000000; stroke:none;fill-rule:evenodd;"
d="M 107.500000,51.750000
107.480970,51.845671
107.426777,51.926777
107.345671,51.980970
107.250000,52.000000
106.750000,52.000000
106.654329,51.980970
106.573223,51.926777
106.519030,51.845671
106.500000,51.750000
106.500000,46.750000
106.519030,46.654329
106.573223,46.573223
106.654329,46.519030
106.750000,46.500000
107.250000,46.500000
107.345671,46.519030
107.426777,46.573223
107.480970,46.654329
107.500000,46.750000
Z" /> 
<path style="fill:#000000; fill-opacity:1.000000; stroke:none;fill-rule:evenodd;"
d="M 105.500000,51.750000
105.480970,51.845671
105.426777,51.926777
105.345671,51.980970
105.250000,52.000000
104.750000,52.000000
104.654329,51.980970
104.573223,51.926777
104.519030,51.845671
104.500000,51.750000
104.500000,46.750000
104.519030,46.654329
104.573223,46.573223
104.654329,46.519030
104.750000,46.500000
105.250000,46.500000
105.345671,46.519030
105.426777,46.573223
105.480970,46.654329
105.500000,46.750000
Z" /> 
<path style="fill:#000000; fill-opacity:1.000000; stroke:none;fill-rule:evenodd;"
d="M 112.200000,48.250000
112.180970,48.345671
112.126777,48.426777
112.045671,48.480970
111.950000,48.500000
110.850000,48.500000
110.754329,48.480970
110.673223,48.426777
110.619030,48.345671
110.600000,48.250000
110.600000,45.750000
110.619030,45.654329
110.673223,45.573223
110.754329,45.519030
110.850000,45.500000
111.950000,45.500000
112.045671,45.519030
112.126777,45.573223
112.180970,45.654329
112.200000,45.750000
Z" /> 
<path style="fill:#000000; fill-opacity:1.000000; stroke:none;fill-rule:evenodd;"
d="M 103.400000,48.250000
103.380970,48.345671
103.326777,48.426777
103.245671,48.480970
103.150000,48.500000
102.050000,48.500000
101.954329,48.480970
101.873223,48.426777
101.819030,48.345671
101.800000,48.250000
101.800000,45.750000
101.819030,45.654329
101.873223,45.573223
101.954329,45.519030
102.050000,45.500000
103.150000,45.500000
103.245671,45.519030
103.326777,45.573223
103.380970,45.654329
103.400000,45.750000
Z" /> 
<path style="fill:#000000; fill-opacity:1.000000; stroke:none;fill-rule:evenodd;"
d="M 109.500000,60.250000
109.480970,60.345671
109.426777,60.426777
109.345671,60.480970
109.250000,60.500000
108.750000,60.500000
108.654329,60.480970
108.573223,60.426777
108.519030,60.345671
108.500000,60.250000
108.500000,55.250000
108.519030,55.154329
108.573223,55.073223
108.654329,55.019030
108.750000,55.000000
109.250000,55.000000
109.345671,55.019030
109.426777,55.073223
109.480970,55.154329
109.500000,55.250000
Z" /> 
<path style="fill:#000000; fill-opacity:1.000000; stroke:none;fill-rule:evenodd;"
d="M 107.500000,60.250000
107.480970,60.345671
107.426777,60.426777
107.345671,60.480970
107.250000,60.500000
106.750000,60.500000
106.654329,60.480970
106.573223,60.426777
106.519030,60.345671
106.500000,60.250000
106.500000,55.250000
106.519030,55.154329
106.573223,55.073223
106.654329,55.019030
106.750000,55.000000
107.250000,55.000000
107.345671,55.019030
107.426777,55.073223
107.480970,55.154329
107.500000,55.250000
Z" /> 
<path style="fill:#000000; fill-opacity:1.000000; stroke:none;fill-rule:evenodd;"
d="M 105.500000,60.250000
105.480970,60.345671
105.426777,60.426777
105.345671,60.480970
105.250000,60.500000
104.750000,60.500000
104.654329,60.480970
104.573223,60.426777
104.519030,60.345671
104.500000,60.250000
104.500000,55.250000
104.519030,55.154329
104.573223,55.073223
104.654329,55.019030
104.750000,55.000000
105.250000,55.000000
105.345671,55.019030
105.426777,55.073223
105.480970,55.154329
105.500000,55.250000
Z" /> 
<path style="fill:#000000; fill-opacity:1.000000; stroke:none;fill-rule:evenodd;"
d="M 112.200000,56.750000
112.180970,56.845671
112.126777,56.926777
112.045671,56.980970
111.950000,57.000000
110.850000,57.000000
110.754329,56.980970
110.673223,56.926777
110.619030,56.845671
110.600000,56.750000
110.600000,54.250000
110.619030,54.154329
110.673223,54.073223
110.754329,54.019030
110.850000,54.000000
111.950000,54.000000
112.045671,54.019030
112.126777,54.073223
112.180970,54.154329
112.200000,54.250000
Z" /> 
<path style="fill:#000000; fill-opacity:1.000000; stroke:none;fill-rule:evenodd;"
d="M 103.400000,56.750000
103.380970,56.845671
103.326777,56.926777
103.245671,56.980970
103.150000,57.000000
102.050000,57.000000
101.954329,56.980970
101.873223,56.926777
101.819030,56.845671
101.800000,56.750000
101.800000,54.250000
101.819030,54.154329
101.873223,54.073223
101.954329,54.019030
102.050000,54.000000
103.150000,54.000000
103.245671,54.019030
103.326777,54.073223
103.380970,54.154329
103.400000,54.250000
Z" /> 
</g> 
</svg>
