<?xml version="1.0" standalone="no"?>
 <!DOCTYPE svg PUBLIC "-//W3C//DTD SVG 1.1//EN" 
 "http://www.w3.org/Graphics/SVG/1.1/DTD/svg11.dtd"> 
<svg
  xmlns:svg="http://www.w3.org/2000/svg"
  xmlns="http://www.w3.org/2000/svg"
  xmlns:xlink="http://www.w3.org/1999/xlink"
  version="1.1"
  width="17.61cm" height="11.31cm" viewBox="18.95 23.95 176.1 113.1">
<title>SVG Image created as pedalboard-display-B_Paste.svg date 2024/10/07 15:50:07 </title>
  <desc>Image generated by PCBNEW </desc>
<g style="fill:#000000; fill-opacity:1.000000;stroke:#000000; stroke-opacity:1.000000;
stroke-linecap:round; stroke-linejoin:round;"
 transform="translate(0 0) scale(1 1)">
<path style="fill:#000000; fill-opacity:1.000000; stroke:none;fill-rule:evenodd;"
d="M 72.438000,74.072800
74.138000,74.072800
74.138000,77.672800
72.438000,77.672800
Z" /> 
</g>
<g style="fill:none; 
stroke:#000000; stroke-width:1.700000; stroke-opacity:1; 
stroke-linecap:round; stroke-linejoin:round;">
<path d="M70.748000 74.972800
L70.748000 76.772800
" />
<path d="M68.208000 74.972800
L68.208000 76.772800
" />
<path d="M65.668000 74.972800
L65.668000 76.772800
" />
<path style="fill:#000000; fill-opacity:1.000000; stroke:none;fill-rule:evenodd;"
d="M 147.438000,74.072800
149.138000,74.072800
149.138000,77.672800
147.438000,77.672800
Z" /> 
</g>
<g style="fill:none; 
stroke:#000000; stroke-width:1.700000; stroke-opacity:1; 
stroke-linecap:round; stroke-linejoin:round;">
<path d="M145.748000 74.972800
L145.748000 76.772800
" />
<path d="M143.208000 74.972800
L143.208000 76.772800
" />
<path d="M140.668000 74.972800
L140.668000 76.772800
" />
<path style="fill:#000000; fill-opacity:1.000000; stroke:none;fill-rule:evenodd;"
d="M 147.500000,71.000000
147.480970,71.095671
147.426777,71.176777
147.345671,71.230970
147.250000,71.250000
146.750000,71.250000
146.654329,71.230970
146.573223,71.176777
146.519030,71.095671
146.500000,71.000000
146.500000,66.000000
146.519030,65.904329
146.573223,65.823223
146.654329,65.769030
146.750000,65.750000
147.250000,65.750000
147.345671,65.769030
147.426777,65.823223
147.480970,65.904329
147.500000,66.000000
Z" /> 
<path style="fill:#000000; fill-opacity:1.000000; stroke:none;fill-rule:evenodd;"
d="M 145.500000,71.000000
145.480970,71.095671
145.426777,71.176777
145.345671,71.230970
145.250000,71.250000
144.750000,71.250000
144.654329,71.230970
144.573223,71.176777
144.519030,71.095671
144.500000,71.000000
144.500000,66.000000
144.519030,65.904329
144.573223,65.823223
144.654329,65.769030
144.750000,65.750000
145.250000,65.750000
145.345671,65.769030
145.426777,65.823223
145.480970,65.904329
145.500000,66.000000
Z" /> 
<path style="fill:#000000; fill-opacity:1.000000; stroke:none;fill-rule:evenodd;"
d="M 143.500000,71.000000
143.480970,71.095671
143.426777,71.176777
143.345671,71.230970
143.250000,71.250000
142.750000,71.250000
142.654329,71.230970
142.573223,71.176777
142.519030,71.095671
142.500000,71.000000
142.500000,66.000000
142.519030,65.904329
142.573223,65.823223
142.654329,65.769030
142.750000,65.750000
143.250000,65.750000
143.345671,65.769030
143.426777,65.823223
143.480970,65.904329
143.500000,66.000000
Z" /> 
<path style="fill:#000000; fill-opacity:1.000000; stroke:none;fill-rule:evenodd;"
d="M 141.500000,71.000000
141.480970,71.095671
141.426777,71.176777
141.345671,71.230970
141.250000,71.250000
140.750000,71.250000
140.654329,71.230970
140.573223,71.176777
140.519030,71.095671
140.500000,71.000000
140.500000,66.000000
140.519030,65.904329
140.573223,65.823223
140.654329,65.769030
140.750000,65.750000
141.250000,65.750000
141.345671,65.769030
141.426777,65.823223
141.480970,65.904329
141.500000,66.000000
Z" /> 
<path style="fill:#000000; fill-opacity:1.000000; stroke:none;fill-rule:evenodd;"
d="M 150.200000,67.500000
150.180970,67.595671
150.126777,67.676777
150.045671,67.730970
149.950000,67.750000
148.850000,67.750000
148.754329,67.730970
148.673223,67.676777
148.619030,67.595671
148.600000,67.500000
148.600000,65.000000
148.619030,64.904329
148.673223,64.823223
148.754329,64.769030
148.850000,64.750000
149.950000,64.750000
150.045671,64.769030
150.126777,64.823223
150.180970,64.904329
150.200000,65.000000
Z" /> 
<path style="fill:#000000; fill-opacity:1.000000; stroke:none;fill-rule:evenodd;"
d="M 139.400000,67.500000
139.380970,67.595671
139.326777,67.676777
139.245671,67.730970
139.150000,67.750000
138.050000,67.750000
137.954329,67.730970
137.873223,67.676777
137.819030,67.595671
137.800000,67.500000
137.800000,65.000000
137.819030,64.904329
137.873223,64.823223
137.954329,64.769030
138.050000,64.750000
139.150000,64.750000
139.245671,64.769030
139.326777,64.823223
139.380970,64.904329
139.400000,65.000000
Z" /> 
<path style="fill:#000000; fill-opacity:1.000000; stroke:none;fill-rule:evenodd;"
d="M 27.700000,108.500000
27.795671,108.519030
27.876777,108.573223
27.930970,108.654329
27.950000,108.750000
27.950000,109.250000
27.930970,109.345671
27.876777,109.426777
27.795671,109.480970
27.700000,109.500000
22.700000,109.500000
22.604329,109.480970
22.523223,109.426777
22.469030,109.345671
22.450000,109.250000
22.450000,108.750000
22.469030,108.654329
22.523223,108.573223
22.604329,108.519030
22.700000,108.500000
Z" /> 
<path style="fill:#000000; fill-opacity:1.000000; stroke:none;fill-rule:evenodd;"
d="M 27.700000,110.500000
27.795671,110.519030
27.876777,110.573223
27.930970,110.654329
27.950000,110.750000
27.950000,111.250000
27.930970,111.345671
27.876777,111.426777
27.795671,111.480970
27.700000,111.500000
22.700000,111.500000
22.604329,111.480970
22.523223,111.426777
22.469030,111.345671
22.450000,111.250000
22.450000,110.750000
22.469030,110.654329
22.523223,110.573223
22.604329,110.519030
22.700000,110.500000
Z" /> 
<path style="fill:#000000; fill-opacity:1.000000; stroke:none;fill-rule:evenodd;"
d="M 27.700000,112.500000
27.795671,112.519030
27.876777,112.573223
27.930970,112.654329
27.950000,112.750000
27.950000,113.250000
27.930970,113.345671
27.876777,113.426777
27.795671,113.480970
27.700000,113.500000
22.700000,113.500000
22.604329,113.480970
22.523223,113.426777
22.469030,113.345671
22.450000,113.250000
22.450000,112.750000
22.469030,112.654329
22.523223,112.573223
22.604329,112.519030
22.700000,112.500000
Z" /> 
<path style="fill:#000000; fill-opacity:1.000000; stroke:none;fill-rule:evenodd;"
d="M 24.200000,105.800000
24.295671,105.819030
24.376777,105.873223
24.430970,105.954329
24.450000,106.050000
24.450000,107.150000
24.430970,107.245671
24.376777,107.326777
24.295671,107.380970
24.200000,107.400000
21.700000,107.400000
21.604329,107.380970
21.523223,107.326777
21.469030,107.245671
21.450000,107.150000
21.450000,106.050000
21.469030,105.954329
21.523223,105.873223
21.604329,105.819030
21.700000,105.800000
Z" /> 
<path style="fill:#000000; fill-opacity:1.000000; stroke:none;fill-rule:evenodd;"
d="M 24.200000,114.600000
24.295671,114.619030
24.376777,114.673223
24.430970,114.754329
24.450000,114.850000
24.450000,115.950000
24.430970,116.045671
24.376777,116.126777
24.295671,116.180970
24.200000,116.200000
21.700000,116.200000
21.604329,116.180970
21.523223,116.126777
21.469030,116.045671
21.450000,115.950000
21.450000,114.850000
21.469030,114.754329
21.523223,114.673223
21.604329,114.619030
21.700000,114.600000
Z" /> 
<path style="fill:#000000; fill-opacity:1.000000; stroke:none;fill-rule:evenodd;"
d="M 109.500000,56.000000
109.480970,56.095671
109.426777,56.176777
109.345671,56.230970
109.250000,56.250000
108.750000,56.250000
108.654329,56.230970
108.573223,56.176777
108.519030,56.095671
108.500000,56.000000
108.500000,51.000000
108.519030,50.904329
108.573223,50.823223
108.654329,50.769030
108.750000,50.750000
109.250000,50.750000
109.345671,50.769030
109.426777,50.823223
109.480970,50.904329
109.500000,51.000000
Z" /> 
<path style="fill:#000000; fill-opacity:1.000000; stroke:none;fill-rule:evenodd;"
d="M 107.500000,56.000000
107.480970,56.095671
107.426777,56.176777
107.345671,56.230970
107.250000,56.250000
106.750000,56.250000
106.654329,56.230970
106.573223,56.176777
106.519030,56.095671
106.500000,56.000000
106.500000,51.000000
106.519030,50.904329
106.573223,50.823223
106.654329,50.769030
106.750000,50.750000
107.250000,50.750000
107.345671,50.769030
107.426777,50.823223
107.480970,50.904329
107.500000,51.000000
Z" /> 
<path style="fill:#000000; fill-opacity:1.000000; stroke:none;fill-rule:evenodd;"
d="M 105.500000,56.000000
105.480970,56.095671
105.426777,56.176777
105.345671,56.230970
105.250000,56.250000
104.750000,56.250000
104.654329,56.230970
104.573223,56.176777
104.519030,56.095671
104.500000,56.000000
104.500000,51.000000
104.519030,50.904329
104.573223,50.823223
104.654329,50.769030
104.750000,50.750000
105.250000,50.750000
105.345671,50.769030
105.426777,50.823223
105.480970,50.904329
105.500000,51.000000
Z" /> 
<path style="fill:#000000; fill-opacity:1.000000; stroke:none;fill-rule:evenodd;"
d="M 112.200000,52.500000
112.180970,52.595671
112.126777,52.676777
112.045671,52.730970
111.950000,52.750000
110.850000,52.750000
110.754329,52.730970
110.673223,52.676777
110.619030,52.595671
110.600000,52.500000
110.600000,50.000000
110.619030,49.904329
110.673223,49.823223
110.754329,49.769030
110.850000,49.750000
111.950000,49.750000
112.045671,49.769030
112.126777,49.823223
112.180970,49.904329
112.200000,50.000000
Z" /> 
<path style="fill:#000000; fill-opacity:1.000000; stroke:none;fill-rule:evenodd;"
d="M 103.400000,52.500000
103.380970,52.595671
103.326777,52.676777
103.245671,52.730970
103.150000,52.750000
102.050000,52.750000
101.954329,52.730970
101.873223,52.676777
101.819030,52.595671
101.800000,52.500000
101.800000,50.000000
101.819030,49.904329
101.873223,49.823223
101.954329,49.769030
102.050000,49.750000
103.150000,49.750000
103.245671,49.769030
103.326777,49.823223
103.380970,49.904329
103.400000,50.000000
Z" /> 
</g> 
</svg>
