<?xml version="1.0" standalone="no"?>
 <!DOCTYPE svg PUBLIC "-//W3C//DTD SVG 1.1//EN" 
 "http://www.w3.org/Graphics/SVG/1.1/DTD/svg11.dtd"> 
<svg
  xmlns:svg="http://www.w3.org/2000/svg"
  xmlns="http://www.w3.org/2000/svg"
  xmlns:xlink="http://www.w3.org/1999/xlink"
  version="1.1"
  width="17.61cm" height="11.31cm" viewBox="18.95 23.95 176.1 113.1">
<title>SVG Image created as pedalboard-display-B_SilkS.svg date 2024/10/05 20:28:43 </title>
  <desc>Image generated by PCBNEW </desc>
<g style="fill:#000000; fill-opacity:1.000000;stroke:#000000; stroke-opacity:1.000000;
stroke-linecap:round; stroke-linejoin:round;"
 transform="translate(0 0) scale(1 1)">
</g>
<g style="fill:none; 
stroke:#000000; stroke-width:0.100000; stroke-opacity:1; 
stroke-linecap:round; stroke-linejoin:round;">
<circle cx="182.000000" cy="124.000000" r="7.050000" /> 
<circle cx="182.000000" cy="72.000000" r="7.050000" /> 
<circle cx="145.000000" cy="39.000000" r="7.050000" /> 
<circle cx="70.000000" cy="39.000000" r="7.050000" /> 
<circle cx="32.000000" cy="124.000000" r="7.050000" /> 
<circle cx="32.000000" cy="72.000000" r="7.050000" /> 
</g>
<g style="fill:none; 
stroke:#000000; stroke-width:0.150000; stroke-opacity:1; 
stroke-linecap:round; stroke-linejoin:round;">
<circle cx="107.000000" cy="124.000000" r="7.000000" /> 
</g>
<g style="fill:none; 
stroke:#000000; stroke-width:0.100000; stroke-opacity:1; 
stroke-linecap:round; stroke-linejoin:round;">
<circle cx="107.000000" cy="72.000000" r="7.050000" /> 
<text x="32.000000" y="56.746078"
transform="scale(-1 1) translate(-64.000000 0)"
textLength="11.326663" font-size="0.933333" lengthAdjust="spacingAndGlyphs"
text-anchor="middle" opacity="0" stroke-opacity="0">Pedalboard LED Ring</text>
<g class="stroked-text"><desc>Pedalboard LED Ring</desc>
<path d="M37.416664 56.655211
L37.416664 55.955211
" />
<path d="M37.416664 55.955211
L37.149997 55.955211
" />
<path d="M37.149997 55.955211
L37.083331 55.988544
" />
<path d="M37.083331 55.988544
L37.049997 56.021878
" />
<path d="M37.049997 56.021878
L37.016664 56.088544
" />
<path d="M37.016664 56.088544
L37.016664 56.188544
" />
<path d="M37.016664 56.188544
L37.049997 56.255211
" />
<path d="M37.049997 56.255211
L37.083331 56.288544
" />
<path d="M37.083331 56.288544
L37.149997 56.321878
" />
<path d="M37.149997 56.321878
L37.416664 56.321878
" />
<path d="M36.449997 56.621878
L36.516664 56.655211
" />
<path d="M36.516664 56.655211
L36.649997 56.655211
" />
<path d="M36.649997 56.655211
L36.716664 56.621878
" />
<path d="M36.716664 56.621878
L36.749997 56.555211
" />
<path d="M36.749997 56.555211
L36.749997 56.288544
" />
<path d="M36.749997 56.288544
L36.716664 56.221878
" />
<path d="M36.716664 56.221878
L36.649997 56.188544
" />
<path d="M36.649997 56.188544
L36.516664 56.188544
" />
<path d="M36.516664 56.188544
L36.449997 56.221878
" />
<path d="M36.449997 56.221878
L36.416664 56.288544
" />
<path d="M36.416664 56.288544
L36.416664 56.355211
" />
<path d="M36.416664 56.355211
L36.749997 56.421878
" />
<path d="M35.816664 56.655211
L35.816664 55.955211
" />
<path d="M35.816664 56.621878
L35.883331 56.655211
" />
<path d="M35.883331 56.655211
L36.016664 56.655211
" />
<path d="M36.016664 56.655211
L36.083331 56.621878
" />
<path d="M36.083331 56.621878
L36.116664 56.588544
" />
<path d="M36.116664 56.588544
L36.149997 56.521878
" />
<path d="M36.149997 56.521878
L36.149997 56.321878
" />
<path d="M36.149997 56.321878
L36.116664 56.255211
" />
<path d="M36.116664 56.255211
L36.083331 56.221878
" />
<path d="M36.083331 56.221878
L36.016664 56.188544
" />
<path d="M36.016664 56.188544
L35.883331 56.188544
" />
<path d="M35.883331 56.188544
L35.816664 56.221878
" />
<path d="M35.183331 56.655211
L35.183331 56.288544
" />
<path d="M35.183331 56.288544
L35.216664 56.221878
" />
<path d="M35.216664 56.221878
L35.283331 56.188544
" />
<path d="M35.283331 56.188544
L35.416664 56.188544
" />
<path d="M35.416664 56.188544
L35.483331 56.221878
" />
<path d="M35.183331 56.621878
L35.249998 56.655211
" />
<path d="M35.249998 56.655211
L35.416664 56.655211
" />
<path d="M35.416664 56.655211
L35.483331 56.621878
" />
<path d="M35.483331 56.621878
L35.516664 56.555211
" />
<path d="M35.516664 56.555211
L35.516664 56.488544
" />
<path d="M35.516664 56.488544
L35.483331 56.421878
" />
<path d="M35.483331 56.421878
L35.416664 56.388544
" />
<path d="M35.416664 56.388544
L35.249998 56.388544
" />
<path d="M35.249998 56.388544
L35.183331 56.355211
" />
<path d="M34.749998 56.655211
L34.816665 56.621878
" />
<path d="M34.816665 56.621878
L34.849998 56.555211
" />
<path d="M34.849998 56.555211
L34.849998 55.955211
" />
<path d="M34.483331 56.655211
L34.483331 55.955211
" />
<path d="M34.483331 56.221878
L34.416664 56.188544
" />
<path d="M34.416664 56.188544
L34.283331 56.188544
" />
<path d="M34.283331 56.188544
L34.216664 56.221878
" />
<path d="M34.216664 56.221878
L34.183331 56.255211
" />
<path d="M34.183331 56.255211
L34.149998 56.321878
" />
<path d="M34.149998 56.321878
L34.149998 56.521878
" />
<path d="M34.149998 56.521878
L34.183331 56.588544
" />
<path d="M34.183331 56.588544
L34.216664 56.621878
" />
<path d="M34.216664 56.621878
L34.283331 56.655211
" />
<path d="M34.283331 56.655211
L34.416664 56.655211
" />
<path d="M34.416664 56.655211
L34.483331 56.621878
" />
<path d="M33.749998 56.655211
L33.816665 56.621878
" />
<path d="M33.816665 56.621878
L33.849998 56.588544
" />
<path d="M33.849998 56.588544
L33.883331 56.521878
" />
<path d="M33.883331 56.521878
L33.883331 56.321878
" />
<path d="M33.883331 56.321878
L33.849998 56.255211
" />
<path d="M33.849998 56.255211
L33.816665 56.221878
" />
<path d="M33.816665 56.221878
L33.749998 56.188544
" />
<path d="M33.749998 56.188544
L33.649998 56.188544
" />
<path d="M33.649998 56.188544
L33.583331 56.221878
" />
<path d="M33.583331 56.221878
L33.549998 56.255211
" />
<path d="M33.549998 56.255211
L33.516665 56.321878
" />
<path d="M33.516665 56.321878
L33.516665 56.521878
" />
<path d="M33.516665 56.521878
L33.549998 56.588544
" />
<path d="M33.549998 56.588544
L33.583331 56.621878
" />
<path d="M33.583331 56.621878
L33.649998 56.655211
" />
<path d="M33.649998 56.655211
L33.749998 56.655211
" />
<path d="M32.916665 56.655211
L32.916665 56.288544
" />
<path d="M32.916665 56.288544
L32.949998 56.221878
" />
<path d="M32.949998 56.221878
L33.016665 56.188544
" />
<path d="M33.016665 56.188544
L33.149998 56.188544
" />
<path d="M33.149998 56.188544
L33.216665 56.221878
" />
<path d="M32.916665 56.621878
L32.983332 56.655211
" />
<path d="M32.983332 56.655211
L33.149998 56.655211
" />
<path d="M33.149998 56.655211
L33.216665 56.621878
" />
<path d="M33.216665 56.621878
L33.249998 56.555211
" />
<path d="M33.249998 56.555211
L33.249998 56.488544
" />
<path d="M33.249998 56.488544
L33.216665 56.421878
" />
<path d="M33.216665 56.421878
L33.149998 56.388544
" />
<path d="M33.149998 56.388544
L32.983332 56.388544
" />
<path d="M32.983332 56.388544
L32.916665 56.355211
" />
<path d="M32.583332 56.655211
L32.583332 56.188544
" />
<path d="M32.583332 56.321878
L32.549999 56.255211
" />
<path d="M32.549999 56.255211
L32.516665 56.221878
" />
<path d="M32.516665 56.221878
L32.449999 56.188544
" />
<path d="M32.449999 56.188544
L32.383332 56.188544
" />
<path d="M31.849999 56.655211
L31.849999 55.955211
" />
<path d="M31.849999 56.621878
L31.916666 56.655211
" />
<path d="M31.916666 56.655211
L32.049999 56.655211
" />
<path d="M32.049999 56.655211
L32.116666 56.621878
" />
<path d="M32.116666 56.621878
L32.149999 56.588544
" />
<path d="M32.149999 56.588544
L32.183332 56.521878
" />
<path d="M32.183332 56.521878
L32.183332 56.321878
" />
<path d="M32.183332 56.321878
L32.149999 56.255211
" />
<path d="M32.149999 56.255211
L32.116666 56.221878
" />
<path d="M32.116666 56.221878
L32.049999 56.188544
" />
<path d="M32.049999 56.188544
L31.916666 56.188544
" />
<path d="M31.916666 56.188544
L31.849999 56.221878
" />
<path d="M30.650000 56.655211
L30.983333 56.655211
" />
<path d="M30.983333 56.655211
L30.983333 55.955211
" />
<path d="M30.416666 56.288544
L30.183333 56.288544
" />
<path d="M30.083333 56.655211
L30.416666 56.655211
" />
<path d="M30.416666 56.655211
L30.416666 55.955211
" />
<path d="M30.416666 55.955211
L30.083333 55.955211
" />
<path d="M29.783333 56.655211
L29.783333 55.955211
" />
<path d="M29.783333 55.955211
L29.616666 55.955211
" />
<path d="M29.616666 55.955211
L29.516666 55.988544
" />
<path d="M29.516666 55.988544
L29.450000 56.055211
" />
<path d="M29.450000 56.055211
L29.416666 56.121878
" />
<path d="M29.416666 56.121878
L29.383333 56.255211
" />
<path d="M29.383333 56.255211
L29.383333 56.355211
" />
<path d="M29.383333 56.355211
L29.416666 56.488544
" />
<path d="M29.416666 56.488544
L29.450000 56.555211
" />
<path d="M29.450000 56.555211
L29.516666 56.621878
" />
<path d="M29.516666 56.621878
L29.616666 56.655211
" />
<path d="M29.616666 56.655211
L29.783333 56.655211
" />
<path d="M28.150000 56.655211
L28.383333 56.321878
" />
<path d="M28.550000 56.655211
L28.550000 55.955211
" />
<path d="M28.550000 55.955211
L28.283333 55.955211
" />
<path d="M28.283333 55.955211
L28.216667 55.988544
" />
<path d="M28.216667 55.988544
L28.183333 56.021878
" />
<path d="M28.183333 56.021878
L28.150000 56.088544
" />
<path d="M28.150000 56.088544
L28.150000 56.188544
" />
<path d="M28.150000 56.188544
L28.183333 56.255211
" />
<path d="M28.183333 56.255211
L28.216667 56.288544
" />
<path d="M28.216667 56.288544
L28.283333 56.321878
" />
<path d="M28.283333 56.321878
L28.550000 56.321878
" />
<path d="M27.850000 56.655211
L27.850000 56.188544
" />
<path d="M27.850000 55.955211
L27.883333 55.988544
" />
<path d="M27.883333 55.988544
L27.850000 56.021878
" />
<path d="M27.850000 56.021878
L27.816667 55.988544
" />
<path d="M27.816667 55.988544
L27.850000 55.955211
" />
<path d="M27.850000 55.955211
L27.850000 56.021878
" />
<path d="M27.516667 56.188544
L27.516667 56.655211
" />
<path d="M27.516667 56.255211
L27.483334 56.221878
" />
<path d="M27.483334 56.221878
L27.416667 56.188544
" />
<path d="M27.416667 56.188544
L27.316667 56.188544
" />
<path d="M27.316667 56.188544
L27.250000 56.221878
" />
<path d="M27.250000 56.221878
L27.216667 56.288544
" />
<path d="M27.216667 56.288544
L27.216667 56.655211
" />
<path d="M26.583334 56.188544
L26.583334 56.755211
" />
<path d="M26.583334 56.755211
L26.616667 56.821878
" />
<path d="M26.616667 56.821878
L26.650001 56.855211
" />
<path d="M26.650001 56.855211
L26.716667 56.888544
" />
<path d="M26.716667 56.888544
L26.816667 56.888544
" />
<path d="M26.816667 56.888544
L26.883334 56.855211
" />
<path d="M26.583334 56.621878
L26.650001 56.655211
" />
<path d="M26.650001 56.655211
L26.783334 56.655211
" />
<path d="M26.783334 56.655211
L26.850001 56.621878
" />
<path d="M26.850001 56.621878
L26.883334 56.588544
" />
<path d="M26.883334 56.588544
L26.916667 56.521878
" />
<path d="M26.916667 56.521878
L26.916667 56.321878
" />
<path d="M26.916667 56.321878
L26.883334 56.255211
" />
<path d="M26.883334 56.255211
L26.850001 56.221878
" />
<path d="M26.850001 56.221878
L26.783334 56.188544
" />
<path d="M26.783334 56.188544
L26.650001 56.188544
" />
<path d="M26.650001 56.188544
L26.583334 56.221878
" />
</g><text x="32.000000" y="57.873039"
transform="scale(-1 1) translate(-64.000000 0)"
textLength="16.926660" font-size="0.933333" lengthAdjust="spacingAndGlyphs"
text-anchor="middle" opacity="0" stroke-opacity="0">https://github.com/pedalboard</text>
<g class="stroked-text"><desc>https://github.com/pedalboard</desc>
<path d="M40.216663 57.782172
L40.216663 57.082172
" />
<path d="M39.916663 57.782172
L39.916663 57.415505
" />
<path d="M39.916663 57.415505
L39.949996 57.348839
" />
<path d="M39.949996 57.348839
L40.016663 57.315505
" />
<path d="M40.016663 57.315505
L40.116663 57.315505
" />
<path d="M40.116663 57.315505
L40.183330 57.348839
" />
<path d="M40.183330 57.348839
L40.216663 57.382172
" />
<path d="M39.683330 57.315505
L39.416663 57.315505
" />
<path d="M39.583330 57.082172
L39.583330 57.682172
" />
<path d="M39.583330 57.682172
L39.549997 57.748839
" />
<path d="M39.549997 57.748839
L39.483330 57.782172
" />
<path d="M39.483330 57.782172
L39.416663 57.782172
" />
<path d="M39.283330 57.315505
L39.016663 57.315505
" />
<path d="M39.183330 57.082172
L39.183330 57.682172
" />
<path d="M39.183330 57.682172
L39.149997 57.748839
" />
<path d="M39.149997 57.748839
L39.083330 57.782172
" />
<path d="M39.083330 57.782172
L39.016663 57.782172
" />
<path d="M38.783330 57.315505
L38.783330 58.015505
" />
<path d="M38.783330 57.348839
L38.716663 57.315505
" />
<path d="M38.716663 57.315505
L38.583330 57.315505
" />
<path d="M38.583330 57.315505
L38.516663 57.348839
" />
<path d="M38.516663 57.348839
L38.483330 57.382172
" />
<path d="M38.483330 57.382172
L38.449997 57.448839
" />
<path d="M38.449997 57.448839
L38.449997 57.648839
" />
<path d="M38.449997 57.648839
L38.483330 57.715505
" />
<path d="M38.483330 57.715505
L38.516663 57.748839
" />
<path d="M38.516663 57.748839
L38.583330 57.782172
" />
<path d="M38.583330 57.782172
L38.716663 57.782172
" />
<path d="M38.716663 57.782172
L38.783330 57.748839
" />
<path d="M38.183330 57.748839
L38.116664 57.782172
" />
<path d="M38.116664 57.782172
L37.983330 57.782172
" />
<path d="M37.983330 57.782172
L37.916664 57.748839
" />
<path d="M37.916664 57.748839
L37.883330 57.682172
" />
<path d="M37.883330 57.682172
L37.883330 57.648839
" />
<path d="M37.883330 57.648839
L37.916664 57.582172
" />
<path d="M37.916664 57.582172
L37.983330 57.548839
" />
<path d="M37.983330 57.548839
L38.083330 57.548839
" />
<path d="M38.083330 57.548839
L38.149997 57.515505
" />
<path d="M38.149997 57.515505
L38.183330 57.448839
" />
<path d="M38.183330 57.448839
L38.183330 57.415505
" />
<path d="M38.183330 57.415505
L38.149997 57.348839
" />
<path d="M38.149997 57.348839
L38.083330 57.315505
" />
<path d="M38.083330 57.315505
L37.983330 57.315505
" />
<path d="M37.983330 57.315505
L37.916664 57.348839
" />
<path d="M37.583330 57.715505
L37.549997 57.748839
" />
<path d="M37.549997 57.748839
L37.583330 57.782172
" />
<path d="M37.583330 57.782172
L37.616663 57.748839
" />
<path d="M37.616663 57.748839
L37.583330 57.715505
" />
<path d="M37.583330 57.715505
L37.583330 57.782172
" />
<path d="M37.583330 57.348839
L37.549997 57.382172
" />
<path d="M37.549997 57.382172
L37.583330 57.415505
" />
<path d="M37.583330 57.415505
L37.616663 57.382172
" />
<path d="M37.616663 57.382172
L37.583330 57.348839
" />
<path d="M37.583330 57.348839
L37.583330 57.415505
" />
<path d="M36.749997 57.048839
L37.349997 57.948839
" />
<path d="M36.016664 57.048839
L36.616664 57.948839
" />
<path d="M35.483331 57.315505
L35.483331 57.882172
" />
<path d="M35.483331 57.882172
L35.516664 57.948839
" />
<path d="M35.516664 57.948839
L35.549998 57.982172
" />
<path d="M35.549998 57.982172
L35.616664 58.015505
" />
<path d="M35.616664 58.015505
L35.716664 58.015505
" />
<path d="M35.716664 58.015505
L35.783331 57.982172
" />
<path d="M35.483331 57.748839
L35.549998 57.782172
" />
<path d="M35.549998 57.782172
L35.683331 57.782172
" />
<path d="M35.683331 57.782172
L35.749998 57.748839
" />
<path d="M35.749998 57.748839
L35.783331 57.715505
" />
<path d="M35.783331 57.715505
L35.816664 57.648839
" />
<path d="M35.816664 57.648839
L35.816664 57.448839
" />
<path d="M35.816664 57.448839
L35.783331 57.382172
" />
<path d="M35.783331 57.382172
L35.749998 57.348839
" />
<path d="M35.749998 57.348839
L35.683331 57.315505
" />
<path d="M35.683331 57.315505
L35.549998 57.315505
" />
<path d="M35.549998 57.315505
L35.483331 57.348839
" />
<path d="M35.149998 57.782172
L35.149998 57.315505
" />
<path d="M35.149998 57.082172
L35.183331 57.115505
" />
<path d="M35.183331 57.115505
L35.149998 57.148839
" />
<path d="M35.149998 57.148839
L35.116665 57.115505
" />
<path d="M35.116665 57.115505
L35.149998 57.082172
" />
<path d="M35.149998 57.082172
L35.149998 57.148839
" />
<path d="M34.916665 57.315505
L34.649998 57.315505
" />
<path d="M34.816665 57.082172
L34.816665 57.682172
" />
<path d="M34.816665 57.682172
L34.783332 57.748839
" />
<path d="M34.783332 57.748839
L34.716665 57.782172
" />
<path d="M34.716665 57.782172
L34.649998 57.782172
" />
<path d="M34.416665 57.782172
L34.416665 57.082172
" />
<path d="M34.116665 57.782172
L34.116665 57.415505
" />
<path d="M34.116665 57.415505
L34.149998 57.348839
" />
<path d="M34.149998 57.348839
L34.216665 57.315505
" />
<path d="M34.216665 57.315505
L34.316665 57.315505
" />
<path d="M34.316665 57.315505
L34.383332 57.348839
" />
<path d="M34.383332 57.348839
L34.416665 57.382172
" />
<path d="M33.483332 57.315505
L33.483332 57.782172
" />
<path d="M33.783332 57.315505
L33.783332 57.682172
" />
<path d="M33.783332 57.682172
L33.749999 57.748839
" />
<path d="M33.749999 57.748839
L33.683332 57.782172
" />
<path d="M33.683332 57.782172
L33.583332 57.782172
" />
<path d="M33.583332 57.782172
L33.516665 57.748839
" />
<path d="M33.516665 57.748839
L33.483332 57.715505
" />
<path d="M33.149999 57.782172
L33.149999 57.082172
" />
<path d="M33.149999 57.348839
L33.083332 57.315505
" />
<path d="M33.083332 57.315505
L32.949999 57.315505
" />
<path d="M32.949999 57.315505
L32.883332 57.348839
" />
<path d="M32.883332 57.348839
L32.849999 57.382172
" />
<path d="M32.849999 57.382172
L32.816666 57.448839
" />
<path d="M32.816666 57.448839
L32.816666 57.648839
" />
<path d="M32.816666 57.648839
L32.849999 57.715505
" />
<path d="M32.849999 57.715505
L32.883332 57.748839
" />
<path d="M32.883332 57.748839
L32.949999 57.782172
" />
<path d="M32.949999 57.782172
L33.083332 57.782172
" />
<path d="M33.083332 57.782172
L33.149999 57.748839
" />
<path d="M32.516666 57.715505
L32.483333 57.748839
" />
<path d="M32.483333 57.748839
L32.516666 57.782172
" />
<path d="M32.516666 57.782172
L32.549999 57.748839
" />
<path d="M32.549999 57.748839
L32.516666 57.715505
" />
<path d="M32.516666 57.715505
L32.516666 57.782172
" />
<path d="M31.883333 57.748839
L31.950000 57.782172
" />
<path d="M31.950000 57.782172
L32.083333 57.782172
" />
<path d="M32.083333 57.782172
L32.150000 57.748839
" />
<path d="M32.150000 57.748839
L32.183333 57.715505
" />
<path d="M32.183333 57.715505
L32.216666 57.648839
" />
<path d="M32.216666 57.648839
L32.216666 57.448839
" />
<path d="M32.216666 57.448839
L32.183333 57.382172
" />
<path d="M32.183333 57.382172
L32.150000 57.348839
" />
<path d="M32.150000 57.348839
L32.083333 57.315505
" />
<path d="M32.083333 57.315505
L31.950000 57.315505
" />
<path d="M31.950000 57.315505
L31.883333 57.348839
" />
<path d="M31.483333 57.782172
L31.550000 57.748839
" />
<path d="M31.550000 57.748839
L31.583333 57.715505
" />
<path d="M31.583333 57.715505
L31.616666 57.648839
" />
<path d="M31.616666 57.648839
L31.616666 57.448839
" />
<path d="M31.616666 57.448839
L31.583333 57.382172
" />
<path d="M31.583333 57.382172
L31.550000 57.348839
" />
<path d="M31.550000 57.348839
L31.483333 57.315505
" />
<path d="M31.483333 57.315505
L31.383333 57.315505
" />
<path d="M31.383333 57.315505
L31.316666 57.348839
" />
<path d="M31.316666 57.348839
L31.283333 57.382172
" />
<path d="M31.283333 57.382172
L31.250000 57.448839
" />
<path d="M31.250000 57.448839
L31.250000 57.648839
" />
<path d="M31.250000 57.648839
L31.283333 57.715505
" />
<path d="M31.283333 57.715505
L31.316666 57.748839
" />
<path d="M31.316666 57.748839
L31.383333 57.782172
" />
<path d="M31.383333 57.782172
L31.483333 57.782172
" />
<path d="M30.950000 57.782172
L30.950000 57.315505
" />
<path d="M30.950000 57.382172
L30.916667 57.348839
" />
<path d="M30.916667 57.348839
L30.850000 57.315505
" />
<path d="M30.850000 57.315505
L30.750000 57.315505
" />
<path d="M30.750000 57.315505
L30.683333 57.348839
" />
<path d="M30.683333 57.348839
L30.650000 57.415505
" />
<path d="M30.650000 57.415505
L30.650000 57.782172
" />
<path d="M30.650000 57.415505
L30.616667 57.348839
" />
<path d="M30.616667 57.348839
L30.550000 57.315505
" />
<path d="M30.550000 57.315505
L30.450000 57.315505
" />
<path d="M30.450000 57.315505
L30.383333 57.348839
" />
<path d="M30.383333 57.348839
L30.350000 57.415505
" />
<path d="M30.350000 57.415505
L30.350000 57.782172
" />
<path d="M29.516667 57.048839
L30.116667 57.948839
" />
<path d="M29.283334 57.315505
L29.283334 58.015505
" />
<path d="M29.283334 57.348839
L29.216667 57.315505
" />
<path d="M29.216667 57.315505
L29.083334 57.315505
" />
<path d="M29.083334 57.315505
L29.016667 57.348839
" />
<path d="M29.016667 57.348839
L28.983334 57.382172
" />
<path d="M28.983334 57.382172
L28.950001 57.448839
" />
<path d="M28.950001 57.448839
L28.950001 57.648839
" />
<path d="M28.950001 57.648839
L28.983334 57.715505
" />
<path d="M28.983334 57.715505
L29.016667 57.748839
" />
<path d="M29.016667 57.748839
L29.083334 57.782172
" />
<path d="M29.083334 57.782172
L29.216667 57.782172
" />
<path d="M29.216667 57.782172
L29.283334 57.748839
" />
<path d="M28.383334 57.748839
L28.450001 57.782172
" />
<path d="M28.450001 57.782172
L28.583334 57.782172
" />
<path d="M28.583334 57.782172
L28.650001 57.748839
" />
<path d="M28.650001 57.748839
L28.683334 57.682172
" />
<path d="M28.683334 57.682172
L28.683334 57.415505
" />
<path d="M28.683334 57.415505
L28.650001 57.348839
" />
<path d="M28.650001 57.348839
L28.583334 57.315505
" />
<path d="M28.583334 57.315505
L28.450001 57.315505
" />
<path d="M28.450001 57.315505
L28.383334 57.348839
" />
<path d="M28.383334 57.348839
L28.350001 57.415505
" />
<path d="M28.350001 57.415505
L28.350001 57.482172
" />
<path d="M28.350001 57.482172
L28.683334 57.548839
" />
<path d="M27.750001 57.782172
L27.750001 57.082172
" />
<path d="M27.750001 57.748839
L27.816668 57.782172
" />
<path d="M27.816668 57.782172
L27.950001 57.782172
" />
<path d="M27.950001 57.782172
L28.016668 57.748839
" />
<path d="M28.016668 57.748839
L28.050001 57.715505
" />
<path d="M28.050001 57.715505
L28.083334 57.648839
" />
<path d="M28.083334 57.648839
L28.083334 57.448839
" />
<path d="M28.083334 57.448839
L28.050001 57.382172
" />
<path d="M28.050001 57.382172
L28.016668 57.348839
" />
<path d="M28.016668 57.348839
L27.950001 57.315505
" />
<path d="M27.950001 57.315505
L27.816668 57.315505
" />
<path d="M27.816668 57.315505
L27.750001 57.348839
" />
<path d="M27.116668 57.782172
L27.116668 57.415505
" />
<path d="M27.116668 57.415505
L27.150001 57.348839
" />
<path d="M27.150001 57.348839
L27.216668 57.315505
" />
<path d="M27.216668 57.315505
L27.350001 57.315505
" />
<path d="M27.350001 57.315505
L27.416668 57.348839
" />
<path d="M27.116668 57.748839
L27.183335 57.782172
" />
<path d="M27.183335 57.782172
L27.350001 57.782172
" />
<path d="M27.350001 57.782172
L27.416668 57.748839
" />
<path d="M27.416668 57.748839
L27.450001 57.682172
" />
<path d="M27.450001 57.682172
L27.450001 57.615505
" />
<path d="M27.450001 57.615505
L27.416668 57.548839
" />
<path d="M27.416668 57.548839
L27.350001 57.515505
" />
<path d="M27.350001 57.515505
L27.183335 57.515505
" />
<path d="M27.183335 57.515505
L27.116668 57.482172
" />
<path d="M26.683335 57.782172
L26.750002 57.748839
" />
<path d="M26.750002 57.748839
L26.783335 57.682172
" />
<path d="M26.783335 57.682172
L26.783335 57.082172
" />
<path d="M26.416668 57.782172
L26.416668 57.082172
" />
<path d="M26.416668 57.348839
L26.350001 57.315505
" />
<path d="M26.350001 57.315505
L26.216668 57.315505
" />
<path d="M26.216668 57.315505
L26.150001 57.348839
" />
<path d="M26.150001 57.348839
L26.116668 57.382172
" />
<path d="M26.116668 57.382172
L26.083335 57.448839
" />
<path d="M26.083335 57.448839
L26.083335 57.648839
" />
<path d="M26.083335 57.648839
L26.116668 57.715505
" />
<path d="M26.116668 57.715505
L26.150001 57.748839
" />
<path d="M26.150001 57.748839
L26.216668 57.782172
" />
<path d="M26.216668 57.782172
L26.350001 57.782172
" />
<path d="M26.350001 57.782172
L26.416668 57.748839
" />
<path d="M25.683335 57.782172
L25.750002 57.748839
" />
<path d="M25.750002 57.748839
L25.783335 57.715505
" />
<path d="M25.783335 57.715505
L25.816668 57.648839
" />
<path d="M25.816668 57.648839
L25.816668 57.448839
" />
<path d="M25.816668 57.448839
L25.783335 57.382172
" />
<path d="M25.783335 57.382172
L25.750002 57.348839
" />
<path d="M25.750002 57.348839
L25.683335 57.315505
" />
<path d="M25.683335 57.315505
L25.583335 57.315505
" />
<path d="M25.583335 57.315505
L25.516668 57.348839
" />
<path d="M25.516668 57.348839
L25.483335 57.382172
" />
<path d="M25.483335 57.382172
L25.450002 57.448839
" />
<path d="M25.450002 57.448839
L25.450002 57.648839
" />
<path d="M25.450002 57.648839
L25.483335 57.715505
" />
<path d="M25.483335 57.715505
L25.516668 57.748839
" />
<path d="M25.516668 57.748839
L25.583335 57.782172
" />
<path d="M25.583335 57.782172
L25.683335 57.782172
" />
<path d="M24.850002 57.782172
L24.850002 57.415505
" />
<path d="M24.850002 57.415505
L24.883335 57.348839
" />
<path d="M24.883335 57.348839
L24.950002 57.315505
" />
<path d="M24.950002 57.315505
L25.083335 57.315505
" />
<path d="M25.083335 57.315505
L25.150002 57.348839
" />
<path d="M24.850002 57.748839
L24.916669 57.782172
" />
<path d="M24.916669 57.782172
L25.083335 57.782172
" />
<path d="M25.083335 57.782172
L25.150002 57.748839
" />
<path d="M25.150002 57.748839
L25.183335 57.682172
" />
<path d="M25.183335 57.682172
L25.183335 57.615505
" />
<path d="M25.183335 57.615505
L25.150002 57.548839
" />
<path d="M25.150002 57.548839
L25.083335 57.515505
" />
<path d="M25.083335 57.515505
L24.916669 57.515505
" />
<path d="M24.916669 57.515505
L24.850002 57.482172
" />
<path d="M24.516669 57.782172
L24.516669 57.315505
" />
<path d="M24.516669 57.448839
L24.483336 57.382172
" />
<path d="M24.483336 57.382172
L24.450002 57.348839
" />
<path d="M24.450002 57.348839
L24.383336 57.315505
" />
<path d="M24.383336 57.315505
L24.316669 57.315505
" />
<path d="M23.783336 57.782172
L23.783336 57.082172
" />
<path d="M23.783336 57.748839
L23.850003 57.782172
" />
<path d="M23.850003 57.782172
L23.983336 57.782172
" />
<path d="M23.983336 57.782172
L24.050003 57.748839
" />
<path d="M24.050003 57.748839
L24.083336 57.715505
" />
<path d="M24.083336 57.715505
L24.116669 57.648839
" />
<path d="M24.116669 57.648839
L24.116669 57.448839
" />
<path d="M24.116669 57.448839
L24.083336 57.382172
" />
<path d="M24.083336 57.382172
L24.050003 57.348839
" />
<path d="M24.050003 57.348839
L23.983336 57.315505
" />
<path d="M23.983336 57.315505
L23.850003 57.315505
" />
<path d="M23.850003 57.315505
L23.783336 57.348839
" />
</g><text x="32.000000" y="59.000000"
transform="scale(-1 1) translate(-64.000000 0)"
textLength="15.860002" font-size="0.933333" lengthAdjust="spacingAndGlyphs"
text-anchor="middle" opacity="0" stroke-opacity="0">PCB: v0.0.0-RC1 ($:f8f9562)</text>
<g class="stroked-text"><desc>PCB: v0.0.0-RC1 ($:f8f9562)</desc>
<path d="M39.683334 58.909133
L39.683334 58.209133
" />
<path d="M39.683334 58.209133
L39.416667 58.209133
" />
<path d="M39.416667 58.209133
L39.350001 58.242466
" />
<path d="M39.350001 58.242466
L39.316667 58.275800
" />
<path d="M39.316667 58.275800
L39.283334 58.342466
" />
<path d="M39.283334 58.342466
L39.283334 58.442466
" />
<path d="M39.283334 58.442466
L39.316667 58.509133
" />
<path d="M39.316667 58.509133
L39.350001 58.542466
" />
<path d="M39.350001 58.542466
L39.416667 58.575800
" />
<path d="M39.416667 58.575800
L39.683334 58.575800
" />
<path d="M38.583334 58.842466
L38.616667 58.875800
" />
<path d="M38.616667 58.875800
L38.716667 58.909133
" />
<path d="M38.716667 58.909133
L38.783334 58.909133
" />
<path d="M38.783334 58.909133
L38.883334 58.875800
" />
<path d="M38.883334 58.875800
L38.950001 58.809133
" />
<path d="M38.950001 58.809133
L38.983334 58.742466
" />
<path d="M38.983334 58.742466
L39.016667 58.609133
" />
<path d="M39.016667 58.609133
L39.016667 58.509133
" />
<path d="M39.016667 58.509133
L38.983334 58.375800
" />
<path d="M38.983334 58.375800
L38.950001 58.309133
" />
<path d="M38.950001 58.309133
L38.883334 58.242466
" />
<path d="M38.883334 58.242466
L38.783334 58.209133
" />
<path d="M38.783334 58.209133
L38.716667 58.209133
" />
<path d="M38.716667 58.209133
L38.616667 58.242466
" />
<path d="M38.616667 58.242466
L38.583334 58.275800
" />
<path d="M38.050001 58.542466
L37.950001 58.575800
" />
<path d="M37.950001 58.575800
L37.916667 58.609133
" />
<path d="M37.916667 58.609133
L37.883334 58.675800
" />
<path d="M37.883334 58.675800
L37.883334 58.775800
" />
<path d="M37.883334 58.775800
L37.916667 58.842466
" />
<path d="M37.916667 58.842466
L37.950001 58.875800
" />
<path d="M37.950001 58.875800
L38.016667 58.909133
" />
<path d="M38.016667 58.909133
L38.283334 58.909133
" />
<path d="M38.283334 58.909133
L38.283334 58.209133
" />
<path d="M38.283334 58.209133
L38.050001 58.209133
" />
<path d="M38.050001 58.209133
L37.983334 58.242466
" />
<path d="M37.983334 58.242466
L37.950001 58.275800
" />
<path d="M37.950001 58.275800
L37.916667 58.342466
" />
<path d="M37.916667 58.342466
L37.916667 58.409133
" />
<path d="M37.916667 58.409133
L37.950001 58.475800
" />
<path d="M37.950001 58.475800
L37.983334 58.509133
" />
<path d="M37.983334 58.509133
L38.050001 58.542466
" />
<path d="M38.050001 58.542466
L38.283334 58.542466
" />
<path d="M37.583334 58.842466
L37.550001 58.875800
" />
<path d="M37.550001 58.875800
L37.583334 58.909133
" />
<path d="M37.583334 58.909133
L37.616667 58.875800
" />
<path d="M37.616667 58.875800
L37.583334 58.842466
" />
<path d="M37.583334 58.842466
L37.583334 58.909133
" />
<path d="M37.583334 58.475800
L37.550001 58.509133
" />
<path d="M37.550001 58.509133
L37.583334 58.542466
" />
<path d="M37.583334 58.542466
L37.616667 58.509133
" />
<path d="M37.616667 58.509133
L37.583334 58.475800
" />
<path d="M37.583334 58.475800
L37.583334 58.542466
" />
<path d="M36.783335 58.442466
L36.616668 58.909133
" />
<path d="M36.616668 58.909133
L36.450001 58.442466
" />
<path d="M36.050002 58.209133
L35.983335 58.209133
" />
<path d="M35.983335 58.209133
L35.916668 58.242466
" />
<path d="M35.916668 58.242466
L35.883335 58.275800
" />
<path d="M35.883335 58.275800
L35.850002 58.342466
" />
<path d="M35.850002 58.342466
L35.816668 58.475800
" />
<path d="M35.816668 58.475800
L35.816668 58.642466
" />
<path d="M35.816668 58.642466
L35.850002 58.775800
" />
<path d="M35.850002 58.775800
L35.883335 58.842466
" />
<path d="M35.883335 58.842466
L35.916668 58.875800
" />
<path d="M35.916668 58.875800
L35.983335 58.909133
" />
<path d="M35.983335 58.909133
L36.050002 58.909133
" />
<path d="M36.050002 58.909133
L36.116668 58.875800
" />
<path d="M36.116668 58.875800
L36.150002 58.842466
" />
<path d="M36.150002 58.842466
L36.183335 58.775800
" />
<path d="M36.183335 58.775800
L36.216668 58.642466
" />
<path d="M36.216668 58.642466
L36.216668 58.475800
" />
<path d="M36.216668 58.475800
L36.183335 58.342466
" />
<path d="M36.183335 58.342466
L36.150002 58.275800
" />
<path d="M36.150002 58.275800
L36.116668 58.242466
" />
<path d="M36.116668 58.242466
L36.050002 58.209133
" />
<path d="M35.516668 58.842466
L35.483335 58.875800
" />
<path d="M35.483335 58.875800
L35.516668 58.909133
" />
<path d="M35.516668 58.909133
L35.550001 58.875800
" />
<path d="M35.550001 58.875800
L35.516668 58.842466
" />
<path d="M35.516668 58.842466
L35.516668 58.909133
" />
<path d="M35.050002 58.209133
L34.983335 58.209133
" />
<path d="M34.983335 58.209133
L34.916668 58.242466
" />
<path d="M34.916668 58.242466
L34.883335 58.275800
" />
<path d="M34.883335 58.275800
L34.850002 58.342466
" />
<path d="M34.850002 58.342466
L34.816668 58.475800
" />
<path d="M34.816668 58.475800
L34.816668 58.642466
" />
<path d="M34.816668 58.642466
L34.850002 58.775800
" />
<path d="M34.850002 58.775800
L34.883335 58.842466
" />
<path d="M34.883335 58.842466
L34.916668 58.875800
" />
<path d="M34.916668 58.875800
L34.983335 58.909133
" />
<path d="M34.983335 58.909133
L35.050002 58.909133
" />
<path d="M35.050002 58.909133
L35.116668 58.875800
" />
<path d="M35.116668 58.875800
L35.150002 58.842466
" />
<path d="M35.150002 58.842466
L35.183335 58.775800
" />
<path d="M35.183335 58.775800
L35.216668 58.642466
" />
<path d="M35.216668 58.642466
L35.216668 58.475800
" />
<path d="M35.216668 58.475800
L35.183335 58.342466
" />
<path d="M35.183335 58.342466
L35.150002 58.275800
" />
<path d="M35.150002 58.275800
L35.116668 58.242466
" />
<path d="M35.116668 58.242466
L35.050002 58.209133
" />
<path d="M34.516668 58.842466
L34.483335 58.875800
" />
<path d="M34.483335 58.875800
L34.516668 58.909133
" />
<path d="M34.516668 58.909133
L34.550001 58.875800
" />
<path d="M34.550001 58.875800
L34.516668 58.842466
" />
<path d="M34.516668 58.842466
L34.516668 58.909133
" />
<path d="M34.050002 58.209133
L33.983335 58.209133
" />
<path d="M33.983335 58.209133
L33.916668 58.242466
" />
<path d="M33.916668 58.242466
L33.883335 58.275800
" />
<path d="M33.883335 58.275800
L33.850002 58.342466
" />
<path d="M33.850002 58.342466
L33.816668 58.475800
" />
<path d="M33.816668 58.475800
L33.816668 58.642466
" />
<path d="M33.816668 58.642466
L33.850002 58.775800
" />
<path d="M33.850002 58.775800
L33.883335 58.842466
" />
<path d="M33.883335 58.842466
L33.916668 58.875800
" />
<path d="M33.916668 58.875800
L33.983335 58.909133
" />
<path d="M33.983335 58.909133
L34.050002 58.909133
" />
<path d="M34.050002 58.909133
L34.116668 58.875800
" />
<path d="M34.116668 58.875800
L34.150002 58.842466
" />
<path d="M34.150002 58.842466
L34.183335 58.775800
" />
<path d="M34.183335 58.775800
L34.216668 58.642466
" />
<path d="M34.216668 58.642466
L34.216668 58.475800
" />
<path d="M34.216668 58.475800
L34.183335 58.342466
" />
<path d="M34.183335 58.342466
L34.150002 58.275800
" />
<path d="M34.150002 58.275800
L34.116668 58.242466
" />
<path d="M34.116668 58.242466
L34.050002 58.209133
" />
<path d="M33.516668 58.642466
L32.983335 58.642466
" />
<path d="M32.250001 58.909133
L32.483334 58.575800
" />
<path d="M32.650001 58.909133
L32.650001 58.209133
" />
<path d="M32.650001 58.209133
L32.383334 58.209133
" />
<path d="M32.383334 58.209133
L32.316668 58.242466
" />
<path d="M32.316668 58.242466
L32.283334 58.275800
" />
<path d="M32.283334 58.275800
L32.250001 58.342466
" />
<path d="M32.250001 58.342466
L32.250001 58.442466
" />
<path d="M32.250001 58.442466
L32.283334 58.509133
" />
<path d="M32.283334 58.509133
L32.316668 58.542466
" />
<path d="M32.316668 58.542466
L32.383334 58.575800
" />
<path d="M32.383334 58.575800
L32.650001 58.575800
" />
<path d="M31.550001 58.842466
L31.583334 58.875800
" />
<path d="M31.583334 58.875800
L31.683334 58.909133
" />
<path d="M31.683334 58.909133
L31.750001 58.909133
" />
<path d="M31.750001 58.909133
L31.850001 58.875800
" />
<path d="M31.850001 58.875800
L31.916668 58.809133
" />
<path d="M31.916668 58.809133
L31.950001 58.742466
" />
<path d="M31.950001 58.742466
L31.983334 58.609133
" />
<path d="M31.983334 58.609133
L31.983334 58.509133
" />
<path d="M31.983334 58.509133
L31.950001 58.375800
" />
<path d="M31.950001 58.375800
L31.916668 58.309133
" />
<path d="M31.916668 58.309133
L31.850001 58.242466
" />
<path d="M31.850001 58.242466
L31.750001 58.209133
" />
<path d="M31.750001 58.209133
L31.683334 58.209133
" />
<path d="M31.683334 58.209133
L31.583334 58.242466
" />
<path d="M31.583334 58.242466
L31.550001 58.275800
" />
<path d="M30.883334 58.909133
L31.283334 58.909133
" />
<path d="M31.083334 58.909133
L31.083334 58.209133
" />
<path d="M31.083334 58.209133
L31.150001 58.309133
" />
<path d="M31.150001 58.309133
L31.216668 58.375800
" />
<path d="M31.216668 58.375800
L31.283334 58.409133
" />
<path d="M29.850001 59.175800
L29.883334 59.142466
" />
<path d="M29.883334 59.142466
L29.950001 59.042466
" />
<path d="M29.950001 59.042466
L29.983334 58.975800
" />
<path d="M29.983334 58.975800
L30.016668 58.875800
" />
<path d="M30.016668 58.875800
L30.050001 58.709133
" />
<path d="M30.050001 58.709133
L30.050001 58.575800
" />
<path d="M30.050001 58.575800
L30.016668 58.409133
" />
<path d="M30.016668 58.409133
L29.983334 58.309133
" />
<path d="M29.983334 58.309133
L29.950001 58.242466
" />
<path d="M29.950001 58.242466
L29.883334 58.142466
" />
<path d="M29.883334 58.142466
L29.850001 58.109133
" />
<path d="M29.616667 58.875800
L29.516667 58.909133
" />
<path d="M29.516667 58.909133
L29.350001 58.909133
" />
<path d="M29.350001 58.909133
L29.283334 58.875800
" />
<path d="M29.283334 58.875800
L29.250001 58.842466
" />
<path d="M29.250001 58.842466
L29.216667 58.775800
" />
<path d="M29.216667 58.775800
L29.216667 58.709133
" />
<path d="M29.216667 58.709133
L29.250001 58.642466
" />
<path d="M29.250001 58.642466
L29.283334 58.609133
" />
<path d="M29.283334 58.609133
L29.350001 58.575800
" />
<path d="M29.350001 58.575800
L29.483334 58.542466
" />
<path d="M29.483334 58.542466
L29.550001 58.509133
" />
<path d="M29.550001 58.509133
L29.583334 58.475800
" />
<path d="M29.583334 58.475800
L29.616667 58.409133
" />
<path d="M29.616667 58.409133
L29.616667 58.342466
" />
<path d="M29.616667 58.342466
L29.583334 58.275800
" />
<path d="M29.583334 58.275800
L29.550001 58.242466
" />
<path d="M29.550001 58.242466
L29.483334 58.209133
" />
<path d="M29.483334 58.209133
L29.316667 58.209133
" />
<path d="M29.316667 58.209133
L29.216667 58.242466
" />
<path d="M29.416667 58.109133
L29.416667 59.009133
" />
<path d="M28.916667 58.842466
L28.883334 58.875800
" />
<path d="M28.883334 58.875800
L28.916667 58.909133
" />
<path d="M28.916667 58.909133
L28.950000 58.875800
" />
<path d="M28.950000 58.875800
L28.916667 58.842466
" />
<path d="M28.916667 58.842466
L28.916667 58.909133
" />
<path d="M28.916667 58.475800
L28.883334 58.509133
" />
<path d="M28.883334 58.509133
L28.916667 58.542466
" />
<path d="M28.916667 58.542466
L28.950000 58.509133
" />
<path d="M28.950000 58.509133
L28.916667 58.475800
" />
<path d="M28.916667 58.475800
L28.916667 58.542466
" />
<path d="M28.683334 58.442466
L28.416667 58.442466
" />
<path d="M28.583334 58.909133
L28.583334 58.309133
" />
<path d="M28.583334 58.309133
L28.550001 58.242466
" />
<path d="M28.550001 58.242466
L28.483334 58.209133
" />
<path d="M28.483334 58.209133
L28.416667 58.209133
" />
<path d="M28.083334 58.509133
L28.150001 58.475800
" />
<path d="M28.150001 58.475800
L28.183334 58.442466
" />
<path d="M28.183334 58.442466
L28.216667 58.375800
" />
<path d="M28.216667 58.375800
L28.216667 58.342466
" />
<path d="M28.216667 58.342466
L28.183334 58.275800
" />
<path d="M28.183334 58.275800
L28.150001 58.242466
" />
<path d="M28.150001 58.242466
L28.083334 58.209133
" />
<path d="M28.083334 58.209133
L27.950001 58.209133
" />
<path d="M27.950001 58.209133
L27.883334 58.242466
" />
<path d="M27.883334 58.242466
L27.850001 58.275800
" />
<path d="M27.850001 58.275800
L27.816667 58.342466
" />
<path d="M27.816667 58.342466
L27.816667 58.375800
" />
<path d="M27.816667 58.375800
L27.850001 58.442466
" />
<path d="M27.850001 58.442466
L27.883334 58.475800
" />
<path d="M27.883334 58.475800
L27.950001 58.509133
" />
<path d="M27.950001 58.509133
L28.083334 58.509133
" />
<path d="M28.083334 58.509133
L28.150001 58.542466
" />
<path d="M28.150001 58.542466
L28.183334 58.575800
" />
<path d="M28.183334 58.575800
L28.216667 58.642466
" />
<path d="M28.216667 58.642466
L28.216667 58.775800
" />
<path d="M28.216667 58.775800
L28.183334 58.842466
" />
<path d="M28.183334 58.842466
L28.150001 58.875800
" />
<path d="M28.150001 58.875800
L28.083334 58.909133
" />
<path d="M28.083334 58.909133
L27.950001 58.909133
" />
<path d="M27.950001 58.909133
L27.883334 58.875800
" />
<path d="M27.883334 58.875800
L27.850001 58.842466
" />
<path d="M27.850001 58.842466
L27.816667 58.775800
" />
<path d="M27.816667 58.775800
L27.816667 58.642466
" />
<path d="M27.816667 58.642466
L27.850001 58.575800
" />
<path d="M27.850001 58.575800
L27.883334 58.542466
" />
<path d="M27.883334 58.542466
L27.950001 58.509133
" />
<path d="M27.616667 58.442466
L27.350000 58.442466
" />
<path d="M27.516667 58.909133
L27.516667 58.309133
" />
<path d="M27.516667 58.309133
L27.483334 58.242466
" />
<path d="M27.483334 58.242466
L27.416667 58.209133
" />
<path d="M27.416667 58.209133
L27.350000 58.209133
" />
<path d="M27.083334 58.909133
L26.950000 58.909133
" />
<path d="M26.950000 58.909133
L26.883334 58.875800
" />
<path d="M26.883334 58.875800
L26.850000 58.842466
" />
<path d="M26.850000 58.842466
L26.783334 58.742466
" />
<path d="M26.783334 58.742466
L26.750000 58.609133
" />
<path d="M26.750000 58.609133
L26.750000 58.342466
" />
<path d="M26.750000 58.342466
L26.783334 58.275800
" />
<path d="M26.783334 58.275800
L26.816667 58.242466
" />
<path d="M26.816667 58.242466
L26.883334 58.209133
" />
<path d="M26.883334 58.209133
L27.016667 58.209133
" />
<path d="M27.016667 58.209133
L27.083334 58.242466
" />
<path d="M27.083334 58.242466
L27.116667 58.275800
" />
<path d="M27.116667 58.275800
L27.150000 58.342466
" />
<path d="M27.150000 58.342466
L27.150000 58.509133
" />
<path d="M27.150000 58.509133
L27.116667 58.575800
" />
<path d="M27.116667 58.575800
L27.083334 58.609133
" />
<path d="M27.083334 58.609133
L27.016667 58.642466
" />
<path d="M27.016667 58.642466
L26.883334 58.642466
" />
<path d="M26.883334 58.642466
L26.816667 58.609133
" />
<path d="M26.816667 58.609133
L26.783334 58.575800
" />
<path d="M26.783334 58.575800
L26.750000 58.509133
" />
<path d="M26.116667 58.209133
L26.450000 58.209133
" />
<path d="M26.450000 58.209133
L26.483333 58.542466
" />
<path d="M26.483333 58.542466
L26.450000 58.509133
" />
<path d="M26.450000 58.509133
L26.383333 58.475800
" />
<path d="M26.383333 58.475800
L26.216667 58.475800
" />
<path d="M26.216667 58.475800
L26.150000 58.509133
" />
<path d="M26.150000 58.509133
L26.116667 58.542466
" />
<path d="M26.116667 58.542466
L26.083333 58.609133
" />
<path d="M26.083333 58.609133
L26.083333 58.775800
" />
<path d="M26.083333 58.775800
L26.116667 58.842466
" />
<path d="M26.116667 58.842466
L26.150000 58.875800
" />
<path d="M26.150000 58.875800
L26.216667 58.909133
" />
<path d="M26.216667 58.909133
L26.383333 58.909133
" />
<path d="M26.383333 58.909133
L26.450000 58.875800
" />
<path d="M26.450000 58.875800
L26.483333 58.842466
" />
<path d="M25.483333 58.209133
L25.616666 58.209133
" />
<path d="M25.616666 58.209133
L25.683333 58.242466
" />
<path d="M25.683333 58.242466
L25.716666 58.275800
" />
<path d="M25.716666 58.275800
L25.783333 58.375800
" />
<path d="M25.783333 58.375800
L25.816666 58.509133
" />
<path d="M25.816666 58.509133
L25.816666 58.775800
" />
<path d="M25.816666 58.775800
L25.783333 58.842466
" />
<path d="M25.783333 58.842466
L25.750000 58.875800
" />
<path d="M25.750000 58.875800
L25.683333 58.909133
" />
<path d="M25.683333 58.909133
L25.550000 58.909133
" />
<path d="M25.550000 58.909133
L25.483333 58.875800
" />
<path d="M25.483333 58.875800
L25.450000 58.842466
" />
<path d="M25.450000 58.842466
L25.416666 58.775800
" />
<path d="M25.416666 58.775800
L25.416666 58.609133
" />
<path d="M25.416666 58.609133
L25.450000 58.542466
" />
<path d="M25.450000 58.542466
L25.483333 58.509133
" />
<path d="M25.483333 58.509133
L25.550000 58.475800
" />
<path d="M25.550000 58.475800
L25.683333 58.475800
" />
<path d="M25.683333 58.475800
L25.750000 58.509133
" />
<path d="M25.750000 58.509133
L25.783333 58.542466
" />
<path d="M25.783333 58.542466
L25.816666 58.609133
" />
<path d="M25.149999 58.275800
L25.116666 58.242466
" />
<path d="M25.116666 58.242466
L25.049999 58.209133
" />
<path d="M25.049999 58.209133
L24.883333 58.209133
" />
<path d="M24.883333 58.209133
L24.816666 58.242466
" />
<path d="M24.816666 58.242466
L24.783333 58.275800
" />
<path d="M24.783333 58.275800
L24.749999 58.342466
" />
<path d="M24.749999 58.342466
L24.749999 58.409133
" />
<path d="M24.749999 58.409133
L24.783333 58.509133
" />
<path d="M24.783333 58.509133
L25.183333 58.909133
" />
<path d="M25.183333 58.909133
L24.749999 58.909133
" />
<path d="M24.516666 59.175800
L24.483332 59.142466
" />
<path d="M24.483332 59.142466
L24.416666 59.042466
" />
<path d="M24.416666 59.042466
L24.383332 58.975800
" />
<path d="M24.383332 58.975800
L24.349999 58.875800
" />
<path d="M24.349999 58.875800
L24.316666 58.709133
" />
<path d="M24.316666 58.709133
L24.316666 58.575800
" />
<path d="M24.316666 58.575800
L24.349999 58.409133
" />
<path d="M24.349999 58.409133
L24.383332 58.309133
" />
<path d="M24.383332 58.309133
L24.416666 58.242466
" />
<path d="M24.416666 58.242466
L24.483332 58.142466
" />
<path d="M24.483332 58.142466
L24.516666 58.109133
" />
</g></g>
<g style="fill:none; 
stroke:#000000; stroke-width:0.150000; stroke-opacity:1; 
stroke-linecap:round; stroke-linejoin:round;">
<text x="127.000000" y="30.500000"
transform="scale(-1 1) translate(-254.000000 0)"
textLength="1.964286" font-size="1.333333" lengthAdjust="spacingAndGlyphs"
text-anchor="middle" opacity="0" stroke-opacity="0">J3</text>
<g class="stroked-text"><desc>J3</desc>
<path d="M127.333333 29.454819
L127.333333 30.169104
" />
<path d="M127.333333 30.169104
L127.380952 30.311961
" />
<path d="M127.380952 30.311961
L127.476190 30.407200
" />
<path d="M127.476190 30.407200
L127.619047 30.454819
" />
<path d="M127.619047 30.454819
L127.714285 30.454819
" />
<path d="M126.952380 29.454819
L126.333333 29.454819
" />
<path d="M126.333333 29.454819
L126.666666 29.835771
" />
<path d="M126.666666 29.835771
L126.523809 29.835771
" />
<path d="M126.523809 29.835771
L126.428571 29.883390
" />
<path d="M126.428571 29.883390
L126.380952 29.931009
" />
<path d="M126.380952 29.931009
L126.333333 30.026247
" />
<path d="M126.333333 30.026247
L126.333333 30.264342
" />
<path d="M126.333333 30.264342
L126.380952 30.359580
" />
<path d="M126.380952 30.359580
L126.428571 30.407200
" />
<path d="M126.428571 30.407200
L126.523809 30.454819
" />
<path d="M126.523809 30.454819
L126.809523 30.454819
" />
<path d="M126.809523 30.454819
L126.904761 30.407200
" />
<path d="M126.904761 30.407200
L126.952380 30.359580
" />
</g><g transform="rotate(-90.000000 19.250000 111.000000)">
<text x="19.250000" y="111.500000"
transform="scale(-1 1) translate(-38.500000 0)"
textLength="1.964286" font-size="1.333333" lengthAdjust="spacingAndGlyphs"
text-anchor="middle" opacity="0" stroke-opacity="0">J2</text>
</g>
<g class="stroked-text"><desc>J2</desc>
<path d="M18.704819 110.666666
L19.419104 110.666666
" />
<path d="M19.419104 110.666666
L19.561961 110.619047
" />
<path d="M19.561961 110.619047
L19.657200 110.523809
" />
<path d="M19.657200 110.523809
L19.704819 110.380952
" />
<path d="M19.704819 110.380952
L19.704819 110.285714
" />
<path d="M18.800057 111.095238
L18.752438 111.142857
" />
<path d="M18.752438 111.142857
L18.704819 111.238095
" />
<path d="M18.704819 111.238095
L18.704819 111.476190
" />
<path d="M18.704819 111.476190
L18.752438 111.571428
" />
<path d="M18.752438 111.571428
L18.800057 111.619047
" />
<path d="M18.800057 111.619047
L18.895295 111.666666
" />
<path d="M18.895295 111.666666
L18.990533 111.666666
" />
<path d="M18.990533 111.666666
L19.133390 111.619047
" />
<path d="M19.133390 111.619047
L19.704819 111.047619
" />
<path d="M19.704819 111.047619
L19.704819 111.666666
" />
</g><text x="103.000000" y="37.500000"
transform="scale(-1 1) translate(-206.000000 0)"
textLength="1.964286" font-size="1.333333" lengthAdjust="spacingAndGlyphs"
text-anchor="middle" opacity="0" stroke-opacity="0">J1</text>
<g class="stroked-text"><desc>J1</desc>
<path d="M103.333333 36.454819
L103.333333 37.169104
" />
<path d="M103.333333 37.169104
L103.380952 37.311961
" />
<path d="M103.380952 37.311961
L103.476190 37.407200
" />
<path d="M103.476190 37.407200
L103.619047 37.454819
" />
<path d="M103.619047 37.454819
L103.714285 37.454819
" />
<path d="M102.333333 37.454819
L102.904761 37.454819
" />
<path d="M102.619047 37.454819
L102.619047 36.454819
" />
<path d="M102.619047 36.454819
L102.714285 36.597676
" />
<path d="M102.714285 36.597676
L102.809523 36.692914
" />
<path d="M102.809523 36.692914
L102.904761 36.740533
" />
</g></g>
<g style="fill:none; 
stroke:#000000; stroke-width:0.120000; stroke-opacity:1; 
stroke-linecap:round; stroke-linejoin:round;">
<path d="M58.088000 60.802800
L58.088000 58.142800
" />
<path d="M65.768000 60.802800
L65.768000 58.142800
" />
<path d="M67.038000 60.802800
L68.368000 60.802800
" />
<path d="M68.368000 60.802800
L68.368000 59.472800
" />
<path d="M141.138000 62.602800
L141.138000 59.942800
" />
<path d="M148.818000 62.602800
L148.818000 59.942800
" />
<path d="M150.088000 62.602800
L151.418000 62.602800
" />
<path d="M151.418000 62.602800
L151.418000 61.272800
" />
<path d="M120.915000 31.090000
L133.085000 31.090000
" />
<path d="M120.915000 31.940000
L120.915000 31.090000
" />
<path d="M120.915000 36.310000
L120.915000 35.460000
" />
<path d="M123.240000 36.310000
L120.915000 36.310000
" />
<path d="M130.760000 36.310000
L133.085000 36.310000
" />
<path d="M130.760000 38.700000
L130.760000 36.310000
" />
<path d="M133.085000 31.090000
L133.085000 31.940000
" />
<path d="M133.085000 36.310000
L133.085000 35.460000
" />
<path d="M20.340000 105.915000
L20.340000 116.085000
" />
<path d="M20.340000 116.085000
L21.190000 116.085000
" />
<path d="M21.190000 105.915000
L20.340000 105.915000
" />
<path d="M24.710000 105.915000
L25.560000 105.915000
" />
<path d="M24.710000 116.085000
L25.560000 116.085000
" />
<path d="M25.560000 105.915000
L25.560000 108.240000
" />
<path d="M25.560000 108.240000
L27.950000 108.240000
" />
<path d="M25.560000 116.085000
L25.560000 113.760000
" />
<path d="M101.915000 30.640000
L101.915000 31.490000
" />
<path d="M101.915000 35.010000
L101.915000 35.860000
" />
<path d="M101.915000 35.860000
L104.240000 35.860000
" />
<path d="M109.760000 35.860000
L109.760000 38.250000
" />
<path d="M112.085000 30.640000
L101.915000 30.640000
" />
<path d="M112.085000 31.490000
L112.085000 30.640000
" />
<path d="M112.085000 35.010000
L112.085000 35.860000
" />
<path d="M112.085000 35.860000
L109.760000 35.860000
" />
</g> 
</svg>
