<?xml version="1.0" standalone="no"?>
 <!DOCTYPE svg PUBLIC "-//W3C//DTD SVG 1.1//EN" 
 "http://www.w3.org/Graphics/SVG/1.1/DTD/svg11.dtd"> 
<svg
  xmlns:svg="http://www.w3.org/2000/svg"
  xmlns="http://www.w3.org/2000/svg"
  xmlns:xlink="http://www.w3.org/1999/xlink"
  version="1.1"
  width="17.61cm" height="11.31cm" viewBox="18.95 23.95 176.1 113.1">
<title>SVG Image created as pedalboard-display-B_SilkS.svg date 2024/10/05 16:23:16 </title>
  <desc>Image generated by PCBNEW </desc>
<g style="fill:#000000; fill-opacity:1.000000;stroke:#000000; stroke-opacity:1.000000;
stroke-linecap:round; stroke-linejoin:round;"
 transform="translate(0 0) scale(1 1)">
</g>
<g style="fill:none; 
stroke:#000000; stroke-width:0.100000; stroke-opacity:1; 
stroke-linecap:round; stroke-linejoin:round;">
<circle cx="182.000000" cy="124.000000" r="7.050000" /> 
<circle cx="182.000000" cy="72.000000" r="7.050000" /> 
<circle cx="145.000000" cy="39.000000" r="7.050000" /> 
<circle cx="70.000000" cy="39.000000" r="7.050000" /> 
<circle cx="32.000000" cy="124.000000" r="7.050000" /> 
<circle cx="32.000000" cy="72.000000" r="7.050000" /> 
</g>
<g style="fill:none; 
stroke:#000000; stroke-width:0.150000; stroke-opacity:1; 
stroke-linecap:round; stroke-linejoin:round;">
<circle cx="107.000000" cy="124.000000" r="7.000000" /> 
</g>
<g style="fill:none; 
stroke:#000000; stroke-width:0.100000; stroke-opacity:1; 
stroke-linecap:round; stroke-linejoin:round;">
<circle cx="107.000000" cy="72.000000" r="7.050000" /> 
<text x="32.000000" y="56.746078"
transform="scale(-1 1) translate(-64.000000 0)"
textLength="11.326663" font-size="0.933333" lengthAdjust="spacingAndGlyphs"
text-anchor="middle" opacity="0" stroke-opacity="0">Pedalboard LED Ring</text>
<g class="stroked-text"><desc>Pedalboard LED Ring</desc>
<path d="M37.416664 56.655211
L37.416664 55.955211
" />
<path d="M37.416664 55.955211
L37.149997 55.955211
" />
<path d="M37.149997 55.955211
L37.083331 55.988544
" />
<path d="M37.083331 55.988544
L37.049997 56.021878
" />
<path d="M37.049997 56.021878
L37.016664 56.088544
" />
<path d="M37.016664 56.088544
L37.016664 56.188544
" />
<path d="M37.016664 56.188544
L37.049997 56.255211
" />
<path d="M37.049997 56.255211
L37.083331 56.288544
" />
<path d="M37.083331 56.288544
L37.149997 56.321878
" />
<path d="M37.149997 56.321878
L37.416664 56.321878
" />
<path d="M36.449997 56.621878
L36.516664 56.655211
" />
<path d="M36.516664 56.655211
L36.649997 56.655211
" />
<path d="M36.649997 56.655211
L36.716664 56.621878
" />
<path d="M36.716664 56.621878
L36.749997 56.555211
" />
<path d="M36.749997 56.555211
L36.749997 56.288544
" />
<path d="M36.749997 56.288544
L36.716664 56.221878
" />
<path d="M36.716664 56.221878
L36.649997 56.188544
" />
<path d="M36.649997 56.188544
L36.516664 56.188544
" />
<path d="M36.516664 56.188544
L36.449997 56.221878
" />
<path d="M36.449997 56.221878
L36.416664 56.288544
" />
<path d="M36.416664 56.288544
L36.416664 56.355211
" />
<path d="M36.416664 56.355211
L36.749997 56.421878
" />
<path d="M35.816664 56.655211
L35.816664 55.955211
" />
<path d="M35.816664 56.621878
L35.883331 56.655211
" />
<path d="M35.883331 56.655211
L36.016664 56.655211
" />
<path d="M36.016664 56.655211
L36.083331 56.621878
" />
<path d="M36.083331 56.621878
L36.116664 56.588544
" />
<path d="M36.116664 56.588544
L36.149997 56.521878
" />
<path d="M36.149997 56.521878
L36.149997 56.321878
" />
<path d="M36.149997 56.321878
L36.116664 56.255211
" />
<path d="M36.116664 56.255211
L36.083331 56.221878
" />
<path d="M36.083331 56.221878
L36.016664 56.188544
" />
<path d="M36.016664 56.188544
L35.883331 56.188544
" />
<path d="M35.883331 56.188544
L35.816664 56.221878
" />
<path d="M35.183331 56.655211
L35.183331 56.288544
" />
<path d="M35.183331 56.288544
L35.216664 56.221878
" />
<path d="M35.216664 56.221878
L35.283331 56.188544
" />
<path d="M35.283331 56.188544
L35.416664 56.188544
" />
<path d="M35.416664 56.188544
L35.483331 56.221878
" />
<path d="M35.183331 56.621878
L35.249998 56.655211
" />
<path d="M35.249998 56.655211
L35.416664 56.655211
" />
<path d="M35.416664 56.655211
L35.483331 56.621878
" />
<path d="M35.483331 56.621878
L35.516664 56.555211
" />
<path d="M35.516664 56.555211
L35.516664 56.488544
" />
<path d="M35.516664 56.488544
L35.483331 56.421878
" />
<path d="M35.483331 56.421878
L35.416664 56.388544
" />
<path d="M35.416664 56.388544
L35.249998 56.388544
" />
<path d="M35.249998 56.388544
L35.183331 56.355211
" />
<path d="M34.749998 56.655211
L34.816665 56.621878
" />
<path d="M34.816665 56.621878
L34.849998 56.555211
" />
<path d="M34.849998 56.555211
L34.849998 55.955211
" />
<path d="M34.483331 56.655211
L34.483331 55.955211
" />
<path d="M34.483331 56.221878
L34.416664 56.188544
" />
<path d="M34.416664 56.188544
L34.283331 56.188544
" />
<path d="M34.283331 56.188544
L34.216664 56.221878
" />
<path d="M34.216664 56.221878
L34.183331 56.255211
" />
<path d="M34.183331 56.255211
L34.149998 56.321878
" />
<path d="M34.149998 56.321878
L34.149998 56.521878
" />
<path d="M34.149998 56.521878
L34.183331 56.588544
" />
<path d="M34.183331 56.588544
L34.216664 56.621878
" />
<path d="M34.216664 56.621878
L34.283331 56.655211
" />
<path d="M34.283331 56.655211
L34.416664 56.655211
" />
<path d="M34.416664 56.655211
L34.483331 56.621878
" />
<path d="M33.749998 56.655211
L33.816665 56.621878
" />
<path d="M33.816665 56.621878
L33.849998 56.588544
" />
<path d="M33.849998 56.588544
L33.883331 56.521878
" />
<path d="M33.883331 56.521878
L33.883331 56.321878
" />
<path d="M33.883331 56.321878
L33.849998 56.255211
" />
<path d="M33.849998 56.255211
L33.816665 56.221878
" />
<path d="M33.816665 56.221878
L33.749998 56.188544
" />
<path d="M33.749998 56.188544
L33.649998 56.188544
" />
<path d="M33.649998 56.188544
L33.583331 56.221878
" />
<path d="M33.583331 56.221878
L33.549998 56.255211
" />
<path d="M33.549998 56.255211
L33.516665 56.321878
" />
<path d="M33.516665 56.321878
L33.516665 56.521878
" />
<path d="M33.516665 56.521878
L33.549998 56.588544
" />
<path d="M33.549998 56.588544
L33.583331 56.621878
" />
<path d="M33.583331 56.621878
L33.649998 56.655211
" />
<path d="M33.649998 56.655211
L33.749998 56.655211
" />
<path d="M32.916665 56.655211
L32.916665 56.288544
" />
<path d="M32.916665 56.288544
L32.949998 56.221878
" />
<path d="M32.949998 56.221878
L33.016665 56.188544
" />
<path d="M33.016665 56.188544
L33.149998 56.188544
" />
<path d="M33.149998 56.188544
L33.216665 56.221878
" />
<path d="M32.916665 56.621878
L32.983332 56.655211
" />
<path d="M32.983332 56.655211
L33.149998 56.655211
" />
<path d="M33.149998 56.655211
L33.216665 56.621878
" />
<path d="M33.216665 56.621878
L33.249998 56.555211
" />
<path d="M33.249998 56.555211
L33.249998 56.488544
" />
<path d="M33.249998 56.488544
L33.216665 56.421878
" />
<path d="M33.216665 56.421878
L33.149998 56.388544
" />
<path d="M33.149998 56.388544
L32.983332 56.388544
" />
<path d="M32.983332 56.388544
L32.916665 56.355211
" />
<path d="M32.583332 56.655211
L32.583332 56.188544
" />
<path d="M32.583332 56.321878
L32.549999 56.255211
" />
<path d="M32.549999 56.255211
L32.516665 56.221878
" />
<path d="M32.516665 56.221878
L32.449999 56.188544
" />
<path d="M32.449999 56.188544
L32.383332 56.188544
" />
<path d="M31.849999 56.655211
L31.849999 55.955211
" />
<path d="M31.849999 56.621878
L31.916666 56.655211
" />
<path d="M31.916666 56.655211
L32.049999 56.655211
" />
<path d="M32.049999 56.655211
L32.116666 56.621878
" />
<path d="M32.116666 56.621878
L32.149999 56.588544
" />
<path d="M32.149999 56.588544
L32.183332 56.521878
" />
<path d="M32.183332 56.521878
L32.183332 56.321878
" />
<path d="M32.183332 56.321878
L32.149999 56.255211
" />
<path d="M32.149999 56.255211
L32.116666 56.221878
" />
<path d="M32.116666 56.221878
L32.049999 56.188544
" />
<path d="M32.049999 56.188544
L31.916666 56.188544
" />
<path d="M31.916666 56.188544
L31.849999 56.221878
" />
<path d="M30.650000 56.655211
L30.983333 56.655211
" />
<path d="M30.983333 56.655211
L30.983333 55.955211
" />
<path d="M30.416666 56.288544
L30.183333 56.288544
" />
<path d="M30.083333 56.655211
L30.416666 56.655211
" />
<path d="M30.416666 56.655211
L30.416666 55.955211
" />
<path d="M30.416666 55.955211
L30.083333 55.955211
" />
<path d="M29.783333 56.655211
L29.783333 55.955211
" />
<path d="M29.783333 55.955211
L29.616666 55.955211
" />
<path d="M29.616666 55.955211
L29.516666 55.988544
" />
<path d="M29.516666 55.988544
L29.450000 56.055211
" />
<path d="M29.450000 56.055211
L29.416666 56.121878
" />
<path d="M29.416666 56.121878
L29.383333 56.255211
" />
<path d="M29.383333 56.255211
L29.383333 56.355211
" />
<path d="M29.383333 56.355211
L29.416666 56.488544
" />
<path d="M29.416666 56.488544
L29.450000 56.555211
" />
<path d="M29.450000 56.555211
L29.516666 56.621878
" />
<path d="M29.516666 56.621878
L29.616666 56.655211
" />
<path d="M29.616666 56.655211
L29.783333 56.655211
" />
<path d="M28.150000 56.655211
L28.383333 56.321878
" />
<path d="M28.550000 56.655211
L28.550000 55.955211
" />
<path d="M28.550000 55.955211
L28.283333 55.955211
" />
<path d="M28.283333 55.955211
L28.216667 55.988544
" />
<path d="M28.216667 55.988544
L28.183333 56.021878
" />
<path d="M28.183333 56.021878
L28.150000 56.088544
" />
<path d="M28.150000 56.088544
L28.150000 56.188544
" />
<path d="M28.150000 56.188544
L28.183333 56.255211
" />
<path d="M28.183333 56.255211
L28.216667 56.288544
" />
<path d="M28.216667 56.288544
L28.283333 56.321878
" />
<path d="M28.283333 56.321878
L28.550000 56.321878
" />
<path d="M27.850000 56.655211
L27.850000 56.188544
" />
<path d="M27.850000 55.955211
L27.883333 55.988544
" />
<path d="M27.883333 55.988544
L27.850000 56.021878
" />
<path d="M27.850000 56.021878
L27.816667 55.988544
" />
<path d="M27.816667 55.988544
L27.850000 55.955211
" />
<path d="M27.850000 55.955211
L27.850000 56.021878
" />
<path d="M27.516667 56.188544
L27.516667 56.655211
" />
<path d="M27.516667 56.255211
L27.483334 56.221878
" />
<path d="M27.483334 56.221878
L27.416667 56.188544
" />
<path d="M27.416667 56.188544
L27.316667 56.188544
" />
<path d="M27.316667 56.188544
L27.250000 56.221878
" />
<path d="M27.250000 56.221878
L27.216667 56.288544
" />
<path d="M27.216667 56.288544
L27.216667 56.655211
" />
<path d="M26.583334 56.188544
L26.583334 56.755211
" />
<path d="M26.583334 56.755211
L26.616667 56.821878
" />
<path d="M26.616667 56.821878
L26.650001 56.855211
" />
<path d="M26.650001 56.855211
L26.716667 56.888544
" />
<path d="M26.716667 56.888544
L26.816667 56.888544
" />
<path d="M26.816667 56.888544
L26.883334 56.855211
" />
<path d="M26.583334 56.621878
L26.650001 56.655211
" />
<path d="M26.650001 56.655211
L26.783334 56.655211
" />
<path d="M26.783334 56.655211
L26.850001 56.621878
" />
<path d="M26.850001 56.621878
L26.883334 56.588544
" />
<path d="M26.883334 56.588544
L26.916667 56.521878
" />
<path d="M26.916667 56.521878
L26.916667 56.321878
" />
<path d="M26.916667 56.321878
L26.883334 56.255211
" />
<path d="M26.883334 56.255211
L26.850001 56.221878
" />
<path d="M26.850001 56.221878
L26.783334 56.188544
" />
<path d="M26.783334 56.188544
L26.650001 56.188544
" />
<path d="M26.650001 56.188544
L26.583334 56.221878
" />
</g><text x="32.000000" y="57.873039"
transform="scale(-1 1) translate(-64.000000 0)"
textLength="16.926660" font-size="0.933333" lengthAdjust="spacingAndGlyphs"
text-anchor="middle" opacity="0" stroke-opacity="0">https://github.com/pedalboard</text>
<g class="stroked-text"><desc>https://github.com/pedalboard</desc>
<path d="M40.216663 57.782172
L40.216663 57.082172
" />
<path d="M39.916663 57.782172
L39.916663 57.415505
" />
<path d="M39.916663 57.415505
L39.949996 57.348839
" />
<path d="M39.949996 57.348839
L40.016663 57.315505
" />
<path d="M40.016663 57.315505
L40.116663 57.315505
" />
<path d="M40.116663 57.315505
L40.183330 57.348839
" />
<path d="M40.183330 57.348839
L40.216663 57.382172
" />
<path d="M39.683330 57.315505
L39.416663 57.315505
" />
<path d="M39.583330 57.082172
L39.583330 57.682172
" />
<path d="M39.583330 57.682172
L39.549997 57.748839
" />
<path d="M39.549997 57.748839
L39.483330 57.782172
" />
<path d="M39.483330 57.782172
L39.416663 57.782172
" />
<path d="M39.283330 57.315505
L39.016663 57.315505
" />
<path d="M39.183330 57.082172
L39.183330 57.682172
" />
<path d="M39.183330 57.682172
L39.149997 57.748839
" />
<path d="M39.149997 57.748839
L39.083330 57.782172
" />
<path d="M39.083330 57.782172
L39.016663 57.782172
" />
<path d="M38.783330 57.315505
L38.783330 58.015505
" />
<path d="M38.783330 57.348839
L38.716663 57.315505
" />
<path d="M38.716663 57.315505
L38.583330 57.315505
" />
<path d="M38.583330 57.315505
L38.516663 57.348839
" />
<path d="M38.516663 57.348839
L38.483330 57.382172
" />
<path d="M38.483330 57.382172
L38.449997 57.448839
" />
<path d="M38.449997 57.448839
L38.449997 57.648839
" />
<path d="M38.449997 57.648839
L38.483330 57.715505
" />
<path d="M38.483330 57.715505
L38.516663 57.748839
" />
<path d="M38.516663 57.748839
L38.583330 57.782172
" />
<path d="M38.583330 57.782172
L38.716663 57.782172
" />
<path d="M38.716663 57.782172
L38.783330 57.748839
" />
<path d="M38.183330 57.748839
L38.116664 57.782172
" />
<path d="M38.116664 57.782172
L37.983330 57.782172
" />
<path d="M37.983330 57.782172
L37.916664 57.748839
" />
<path d="M37.916664 57.748839
L37.883330 57.682172
" />
<path d="M37.883330 57.682172
L37.883330 57.648839
" />
<path d="M37.883330 57.648839
L37.916664 57.582172
" />
<path d="M37.916664 57.582172
L37.983330 57.548839
" />
<path d="M37.983330 57.548839
L38.083330 57.548839
" />
<path d="M38.083330 57.548839
L38.149997 57.515505
" />
<path d="M38.149997 57.515505
L38.183330 57.448839
" />
<path d="M38.183330 57.448839
L38.183330 57.415505
" />
<path d="M38.183330 57.415505
L38.149997 57.348839
" />
<path d="M38.149997 57.348839
L38.083330 57.315505
" />
<path d="M38.083330 57.315505
L37.983330 57.315505
" />
<path d="M37.983330 57.315505
L37.916664 57.348839
" />
<path d="M37.583330 57.715505
L37.549997 57.748839
" />
<path d="M37.549997 57.748839
L37.583330 57.782172
" />
<path d="M37.583330 57.782172
L37.616663 57.748839
" />
<path d="M37.616663 57.748839
L37.583330 57.715505
" />
<path d="M37.583330 57.715505
L37.583330 57.782172
" />
<path d="M37.583330 57.348839
L37.549997 57.382172
" />
<path d="M37.549997 57.382172
L37.583330 57.415505
" />
<path d="M37.583330 57.415505
L37.616663 57.382172
" />
<path d="M37.616663 57.382172
L37.583330 57.348839
" />
<path d="M37.583330 57.348839
L37.583330 57.415505
" />
<path d="M36.749997 57.048839
L37.349997 57.948839
" />
<path d="M36.016664 57.048839
L36.616664 57.948839
" />
<path d="M35.483331 57.315505
L35.483331 57.882172
" />
<path d="M35.483331 57.882172
L35.516664 57.948839
" />
<path d="M35.516664 57.948839
L35.549998 57.982172
" />
<path d="M35.549998 57.982172
L35.616664 58.015505
" />
<path d="M35.616664 58.015505
L35.716664 58.015505
" />
<path d="M35.716664 58.015505
L35.783331 57.982172
" />
<path d="M35.483331 57.748839
L35.549998 57.782172
" />
<path d="M35.549998 57.782172
L35.683331 57.782172
" />
<path d="M35.683331 57.782172
L35.749998 57.748839
" />
<path d="M35.749998 57.748839
L35.783331 57.715505
" />
<path d="M35.783331 57.715505
L35.816664 57.648839
" />
<path d="M35.816664 57.648839
L35.816664 57.448839
" />
<path d="M35.816664 57.448839
L35.783331 57.382172
" />
<path d="M35.783331 57.382172
L35.749998 57.348839
" />
<path d="M35.749998 57.348839
L35.683331 57.315505
" />
<path d="M35.683331 57.315505
L35.549998 57.315505
" />
<path d="M35.549998 57.315505
L35.483331 57.348839
" />
<path d="M35.149998 57.782172
L35.149998 57.315505
" />
<path d="M35.149998 57.082172
L35.183331 57.115505
" />
<path d="M35.183331 57.115505
L35.149998 57.148839
" />
<path d="M35.149998 57.148839
L35.116665 57.115505
" />
<path d="M35.116665 57.115505
L35.149998 57.082172
" />
<path d="M35.149998 57.082172
L35.149998 57.148839
" />
<path d="M34.916665 57.315505
L34.649998 57.315505
" />
<path d="M34.816665 57.082172
L34.816665 57.682172
" />
<path d="M34.816665 57.682172
L34.783332 57.748839
" />
<path d="M34.783332 57.748839
L34.716665 57.782172
" />
<path d="M34.716665 57.782172
L34.649998 57.782172
" />
<path d="M34.416665 57.782172
L34.416665 57.082172
" />
<path d="M34.116665 57.782172
L34.116665 57.415505
" />
<path d="M34.116665 57.415505
L34.149998 57.348839
" />
<path d="M34.149998 57.348839
L34.216665 57.315505
" />
<path d="M34.216665 57.315505
L34.316665 57.315505
" />
<path d="M34.316665 57.315505
L34.383332 57.348839
" />
<path d="M34.383332 57.348839
L34.416665 57.382172
" />
<path d="M33.483332 57.315505
L33.483332 57.782172
" />
<path d="M33.783332 57.315505
L33.783332 57.682172
" />
<path d="M33.783332 57.682172
L33.749999 57.748839
" />
<path d="M33.749999 57.748839
L33.683332 57.782172
" />
<path d="M33.683332 57.782172
L33.583332 57.782172
" />
<path d="M33.583332 57.782172
L33.516665 57.748839
" />
<path d="M33.516665 57.748839
L33.483332 57.715505
" />
<path d="M33.149999 57.782172
L33.149999 57.082172
" />
<path d="M33.149999 57.348839
L33.083332 57.315505
" />
<path d="M33.083332 57.315505
L32.949999 57.315505
" />
<path d="M32.949999 57.315505
L32.883332 57.348839
" />
<path d="M32.883332 57.348839
L32.849999 57.382172
" />
<path d="M32.849999 57.382172
L32.816666 57.448839
" />
<path d="M32.816666 57.448839
L32.816666 57.648839
" />
<path d="M32.816666 57.648839
L32.849999 57.715505
" />
<path d="M32.849999 57.715505
L32.883332 57.748839
" />
<path d="M32.883332 57.748839
L32.949999 57.782172
" />
<path d="M32.949999 57.782172
L33.083332 57.782172
" />
<path d="M33.083332 57.782172
L33.149999 57.748839
" />
<path d="M32.516666 57.715505
L32.483333 57.748839
" />
<path d="M32.483333 57.748839
L32.516666 57.782172
" />
<path d="M32.516666 57.782172
L32.549999 57.748839
" />
<path d="M32.549999 57.748839
L32.516666 57.715505
" />
<path d="M32.516666 57.715505
L32.516666 57.782172
" />
<path d="M31.883333 57.748839
L31.950000 57.782172
" />
<path d="M31.950000 57.782172
L32.083333 57.782172
" />
<path d="M32.083333 57.782172
L32.150000 57.748839
" />
<path d="M32.150000 57.748839
L32.183333 57.715505
" />
<path d="M32.183333 57.715505
L32.216666 57.648839
" />
<path d="M32.216666 57.648839
L32.216666 57.448839
" />
<path d="M32.216666 57.448839
L32.183333 57.382172
" />
<path d="M32.183333 57.382172
L32.150000 57.348839
" />
<path d="M32.150000 57.348839
L32.083333 57.315505
" />
<path d="M32.083333 57.315505
L31.950000 57.315505
" />
<path d="M31.950000 57.315505
L31.883333 57.348839
" />
<path d="M31.483333 57.782172
L31.550000 57.748839
" />
<path d="M31.550000 57.748839
L31.583333 57.715505
" />
<path d="M31.583333 57.715505
L31.616666 57.648839
" />
<path d="M31.616666 57.648839
L31.616666 57.448839
" />
<path d="M31.616666 57.448839
L31.583333 57.382172
" />
<path d="M31.583333 57.382172
L31.550000 57.348839
" />
<path d="M31.550000 57.348839
L31.483333 57.315505
" />
<path d="M31.483333 57.315505
L31.383333 57.315505
" />
<path d="M31.383333 57.315505
L31.316666 57.348839
" />
<path d="M31.316666 57.348839
L31.283333 57.382172
" />
<path d="M31.283333 57.382172
L31.250000 57.448839
" />
<path d="M31.250000 57.448839
L31.250000 57.648839
" />
<path d="M31.250000 57.648839
L31.283333 57.715505
" />
<path d="M31.283333 57.715505
L31.316666 57.748839
" />
<path d="M31.316666 57.748839
L31.383333 57.782172
" />
<path d="M31.383333 57.782172
L31.483333 57.782172
" />
<path d="M30.950000 57.782172
L30.950000 57.315505
" />
<path d="M30.950000 57.382172
L30.916667 57.348839
" />
<path d="M30.916667 57.348839
L30.850000 57.315505
" />
<path d="M30.850000 57.315505
L30.750000 57.315505
" />
<path d="M30.750000 57.315505
L30.683333 57.348839
" />
<path d="M30.683333 57.348839
L30.650000 57.415505
" />
<path d="M30.650000 57.415505
L30.650000 57.782172
" />
<path d="M30.650000 57.415505
L30.616667 57.348839
" />
<path d="M30.616667 57.348839
L30.550000 57.315505
" />
<path d="M30.550000 57.315505
L30.450000 57.315505
" />
<path d="M30.450000 57.315505
L30.383333 57.348839
" />
<path d="M30.383333 57.348839
L30.350000 57.415505
" />
<path d="M30.350000 57.415505
L30.350000 57.782172
" />
<path d="M29.516667 57.048839
L30.116667 57.948839
" />
<path d="M29.283334 57.315505
L29.283334 58.015505
" />
<path d="M29.283334 57.348839
L29.216667 57.315505
" />
<path d="M29.216667 57.315505
L29.083334 57.315505
" />
<path d="M29.083334 57.315505
L29.016667 57.348839
" />
<path d="M29.016667 57.348839
L28.983334 57.382172
" />
<path d="M28.983334 57.382172
L28.950001 57.448839
" />
<path d="M28.950001 57.448839
L28.950001 57.648839
" />
<path d="M28.950001 57.648839
L28.983334 57.715505
" />
<path d="M28.983334 57.715505
L29.016667 57.748839
" />
<path d="M29.016667 57.748839
L29.083334 57.782172
" />
<path d="M29.083334 57.782172
L29.216667 57.782172
" />
<path d="M29.216667 57.782172
L29.283334 57.748839
" />
<path d="M28.383334 57.748839
L28.450001 57.782172
" />
<path d="M28.450001 57.782172
L28.583334 57.782172
" />
<path d="M28.583334 57.782172
L28.650001 57.748839
" />
<path d="M28.650001 57.748839
L28.683334 57.682172
" />
<path d="M28.683334 57.682172
L28.683334 57.415505
" />
<path d="M28.683334 57.415505
L28.650001 57.348839
" />
<path d="M28.650001 57.348839
L28.583334 57.315505
" />
<path d="M28.583334 57.315505
L28.450001 57.315505
" />
<path d="M28.450001 57.315505
L28.383334 57.348839
" />
<path d="M28.383334 57.348839
L28.350001 57.415505
" />
<path d="M28.350001 57.415505
L28.350001 57.482172
" />
<path d="M28.350001 57.482172
L28.683334 57.548839
" />
<path d="M27.750001 57.782172
L27.750001 57.082172
" />
<path d="M27.750001 57.748839
L27.816668 57.782172
" />
<path d="M27.816668 57.782172
L27.950001 57.782172
" />
<path d="M27.950001 57.782172
L28.016668 57.748839
" />
<path d="M28.016668 57.748839
L28.050001 57.715505
" />
<path d="M28.050001 57.715505
L28.083334 57.648839
" />
<path d="M28.083334 57.648839
L28.083334 57.448839
" />
<path d="M28.083334 57.448839
L28.050001 57.382172
" />
<path d="M28.050001 57.382172
L28.016668 57.348839
" />
<path d="M28.016668 57.348839
L27.950001 57.315505
" />
<path d="M27.950001 57.315505
L27.816668 57.315505
" />
<path d="M27.816668 57.315505
L27.750001 57.348839
" />
<path d="M27.116668 57.782172
L27.116668 57.415505
" />
<path d="M27.116668 57.415505
L27.150001 57.348839
" />
<path d="M27.150001 57.348839
L27.216668 57.315505
" />
<path d="M27.216668 57.315505
L27.350001 57.315505
" />
<path d="M27.350001 57.315505
L27.416668 57.348839
" />
<path d="M27.116668 57.748839
L27.183335 57.782172
" />
<path d="M27.183335 57.782172
L27.350001 57.782172
" />
<path d="M27.350001 57.782172
L27.416668 57.748839
" />
<path d="M27.416668 57.748839
L27.450001 57.682172
" />
<path d="M27.450001 57.682172
L27.450001 57.615505
" />
<path d="M27.450001 57.615505
L27.416668 57.548839
" />
<path d="M27.416668 57.548839
L27.350001 57.515505
" />
<path d="M27.350001 57.515505
L27.183335 57.515505
" />
<path d="M27.183335 57.515505
L27.116668 57.482172
" />
<path d="M26.683335 57.782172
L26.750002 57.748839
" />
<path d="M26.750002 57.748839
L26.783335 57.682172
" />
<path d="M26.783335 57.682172
L26.783335 57.082172
" />
<path d="M26.416668 57.782172
L26.416668 57.082172
" />
<path d="M26.416668 57.348839
L26.350001 57.315505
" />
<path d="M26.350001 57.315505
L26.216668 57.315505
" />
<path d="M26.216668 57.315505
L26.150001 57.348839
" />
<path d="M26.150001 57.348839
L26.116668 57.382172
" />
<path d="M26.116668 57.382172
L26.083335 57.448839
" />
<path d="M26.083335 57.448839
L26.083335 57.648839
" />
<path d="M26.083335 57.648839
L26.116668 57.715505
" />
<path d="M26.116668 57.715505
L26.150001 57.748839
" />
<path d="M26.150001 57.748839
L26.216668 57.782172
" />
<path d="M26.216668 57.782172
L26.350001 57.782172
" />
<path d="M26.350001 57.782172
L26.416668 57.748839
" />
<path d="M25.683335 57.782172
L25.750002 57.748839
" />
<path d="M25.750002 57.748839
L25.783335 57.715505
" />
<path d="M25.783335 57.715505
L25.816668 57.648839
" />
<path d="M25.816668 57.648839
L25.816668 57.448839
" />
<path d="M25.816668 57.448839
L25.783335 57.382172
" />
<path d="M25.783335 57.382172
L25.750002 57.348839
" />
<path d="M25.750002 57.348839
L25.683335 57.315505
" />
<path d="M25.683335 57.315505
L25.583335 57.315505
" />
<path d="M25.583335 57.315505
L25.516668 57.348839
" />
<path d="M25.516668 57.348839
L25.483335 57.382172
" />
<path d="M25.483335 57.382172
L25.450002 57.448839
" />
<path d="M25.450002 57.448839
L25.450002 57.648839
" />
<path d="M25.450002 57.648839
L25.483335 57.715505
" />
<path d="M25.483335 57.715505
L25.516668 57.748839
" />
<path d="M25.516668 57.748839
L25.583335 57.782172
" />
<path d="M25.583335 57.782172
L25.683335 57.782172
" />
<path d="M24.850002 57.782172
L24.850002 57.415505
" />
<path d="M24.850002 57.415505
L24.883335 57.348839
" />
<path d="M24.883335 57.348839
L24.950002 57.315505
" />
<path d="M24.950002 57.315505
L25.083335 57.315505
" />
<path d="M25.083335 57.315505
L25.150002 57.348839
" />
<path d="M24.850002 57.748839
L24.916669 57.782172
" />
<path d="M24.916669 57.782172
L25.083335 57.782172
" />
<path d="M25.083335 57.782172
L25.150002 57.748839
" />
<path d="M25.150002 57.748839
L25.183335 57.682172
" />
<path d="M25.183335 57.682172
L25.183335 57.615505
" />
<path d="M25.183335 57.615505
L25.150002 57.548839
" />
<path d="M25.150002 57.548839
L25.083335 57.515505
" />
<path d="M25.083335 57.515505
L24.916669 57.515505
" />
<path d="M24.916669 57.515505
L24.850002 57.482172
" />
<path d="M24.516669 57.782172
L24.516669 57.315505
" />
<path d="M24.516669 57.448839
L24.483336 57.382172
" />
<path d="M24.483336 57.382172
L24.450002 57.348839
" />
<path d="M24.450002 57.348839
L24.383336 57.315505
" />
<path d="M24.383336 57.315505
L24.316669 57.315505
" />
<path d="M23.783336 57.782172
L23.783336 57.082172
" />
<path d="M23.783336 57.748839
L23.850003 57.782172
" />
<path d="M23.850003 57.782172
L23.983336 57.782172
" />
<path d="M23.983336 57.782172
L24.050003 57.748839
" />
<path d="M24.050003 57.748839
L24.083336 57.715505
" />
<path d="M24.083336 57.715505
L24.116669 57.648839
" />
<path d="M24.116669 57.648839
L24.116669 57.448839
" />
<path d="M24.116669 57.448839
L24.083336 57.382172
" />
<path d="M24.083336 57.382172
L24.050003 57.348839
" />
<path d="M24.050003 57.348839
L23.983336 57.315505
" />
<path d="M23.983336 57.315505
L23.850003 57.315505
" />
<path d="M23.850003 57.315505
L23.783336 57.348839
" />
</g><text x="32.000000" y="59.000000"
transform="scale(-1 1) translate(-64.000000 0)"
textLength="15.826668" font-size="0.933333" lengthAdjust="spacingAndGlyphs"
text-anchor="middle" opacity="0" stroke-opacity="0">PCB: v0.0.0-RC1 ($:69fa1f9)</text>
<g class="stroked-text"><desc>PCB: v0.0.0-RC1 ($:69fa1f9)</desc>
<path d="M39.666667 58.909133
L39.666667 58.209133
" />
<path d="M39.666667 58.209133
L39.400000 58.209133
" />
<path d="M39.400000 58.209133
L39.333334 58.242466
" />
<path d="M39.333334 58.242466
L39.300000 58.275800
" />
<path d="M39.300000 58.275800
L39.266667 58.342466
" />
<path d="M39.266667 58.342466
L39.266667 58.442466
" />
<path d="M39.266667 58.442466
L39.300000 58.509133
" />
<path d="M39.300000 58.509133
L39.333334 58.542466
" />
<path d="M39.333334 58.542466
L39.400000 58.575800
" />
<path d="M39.400000 58.575800
L39.666667 58.575800
" />
<path d="M38.566667 58.842466
L38.600000 58.875800
" />
<path d="M38.600000 58.875800
L38.700000 58.909133
" />
<path d="M38.700000 58.909133
L38.766667 58.909133
" />
<path d="M38.766667 58.909133
L38.866667 58.875800
" />
<path d="M38.866667 58.875800
L38.933334 58.809133
" />
<path d="M38.933334 58.809133
L38.966667 58.742466
" />
<path d="M38.966667 58.742466
L39.000000 58.609133
" />
<path d="M39.000000 58.609133
L39.000000 58.509133
" />
<path d="M39.000000 58.509133
L38.966667 58.375800
" />
<path d="M38.966667 58.375800
L38.933334 58.309133
" />
<path d="M38.933334 58.309133
L38.866667 58.242466
" />
<path d="M38.866667 58.242466
L38.766667 58.209133
" />
<path d="M38.766667 58.209133
L38.700000 58.209133
" />
<path d="M38.700000 58.209133
L38.600000 58.242466
" />
<path d="M38.600000 58.242466
L38.566667 58.275800
" />
<path d="M38.033334 58.542466
L37.933334 58.575800
" />
<path d="M37.933334 58.575800
L37.900000 58.609133
" />
<path d="M37.900000 58.609133
L37.866667 58.675800
" />
<path d="M37.866667 58.675800
L37.866667 58.775800
" />
<path d="M37.866667 58.775800
L37.900000 58.842466
" />
<path d="M37.900000 58.842466
L37.933334 58.875800
" />
<path d="M37.933334 58.875800
L38.000000 58.909133
" />
<path d="M38.000000 58.909133
L38.266667 58.909133
" />
<path d="M38.266667 58.909133
L38.266667 58.209133
" />
<path d="M38.266667 58.209133
L38.033334 58.209133
" />
<path d="M38.033334 58.209133
L37.966667 58.242466
" />
<path d="M37.966667 58.242466
L37.933334 58.275800
" />
<path d="M37.933334 58.275800
L37.900000 58.342466
" />
<path d="M37.900000 58.342466
L37.900000 58.409133
" />
<path d="M37.900000 58.409133
L37.933334 58.475800
" />
<path d="M37.933334 58.475800
L37.966667 58.509133
" />
<path d="M37.966667 58.509133
L38.033334 58.542466
" />
<path d="M38.033334 58.542466
L38.266667 58.542466
" />
<path d="M37.566667 58.842466
L37.533334 58.875800
" />
<path d="M37.533334 58.875800
L37.566667 58.909133
" />
<path d="M37.566667 58.909133
L37.600000 58.875800
" />
<path d="M37.600000 58.875800
L37.566667 58.842466
" />
<path d="M37.566667 58.842466
L37.566667 58.909133
" />
<path d="M37.566667 58.475800
L37.533334 58.509133
" />
<path d="M37.533334 58.509133
L37.566667 58.542466
" />
<path d="M37.566667 58.542466
L37.600000 58.509133
" />
<path d="M37.600000 58.509133
L37.566667 58.475800
" />
<path d="M37.566667 58.475800
L37.566667 58.542466
" />
<path d="M36.766668 58.442466
L36.600001 58.909133
" />
<path d="M36.600001 58.909133
L36.433334 58.442466
" />
<path d="M36.033335 58.209133
L35.966668 58.209133
" />
<path d="M35.966668 58.209133
L35.900001 58.242466
" />
<path d="M35.900001 58.242466
L35.866668 58.275800
" />
<path d="M35.866668 58.275800
L35.833335 58.342466
" />
<path d="M35.833335 58.342466
L35.800001 58.475800
" />
<path d="M35.800001 58.475800
L35.800001 58.642466
" />
<path d="M35.800001 58.642466
L35.833335 58.775800
" />
<path d="M35.833335 58.775800
L35.866668 58.842466
" />
<path d="M35.866668 58.842466
L35.900001 58.875800
" />
<path d="M35.900001 58.875800
L35.966668 58.909133
" />
<path d="M35.966668 58.909133
L36.033335 58.909133
" />
<path d="M36.033335 58.909133
L36.100001 58.875800
" />
<path d="M36.100001 58.875800
L36.133335 58.842466
" />
<path d="M36.133335 58.842466
L36.166668 58.775800
" />
<path d="M36.166668 58.775800
L36.200001 58.642466
" />
<path d="M36.200001 58.642466
L36.200001 58.475800
" />
<path d="M36.200001 58.475800
L36.166668 58.342466
" />
<path d="M36.166668 58.342466
L36.133335 58.275800
" />
<path d="M36.133335 58.275800
L36.100001 58.242466
" />
<path d="M36.100001 58.242466
L36.033335 58.209133
" />
<path d="M35.500001 58.842466
L35.466668 58.875800
" />
<path d="M35.466668 58.875800
L35.500001 58.909133
" />
<path d="M35.500001 58.909133
L35.533334 58.875800
" />
<path d="M35.533334 58.875800
L35.500001 58.842466
" />
<path d="M35.500001 58.842466
L35.500001 58.909133
" />
<path d="M35.033335 58.209133
L34.966668 58.209133
" />
<path d="M34.966668 58.209133
L34.900001 58.242466
" />
<path d="M34.900001 58.242466
L34.866668 58.275800
" />
<path d="M34.866668 58.275800
L34.833335 58.342466
" />
<path d="M34.833335 58.342466
L34.800001 58.475800
" />
<path d="M34.800001 58.475800
L34.800001 58.642466
" />
<path d="M34.800001 58.642466
L34.833335 58.775800
" />
<path d="M34.833335 58.775800
L34.866668 58.842466
" />
<path d="M34.866668 58.842466
L34.900001 58.875800
" />
<path d="M34.900001 58.875800
L34.966668 58.909133
" />
<path d="M34.966668 58.909133
L35.033335 58.909133
" />
<path d="M35.033335 58.909133
L35.100001 58.875800
" />
<path d="M35.100001 58.875800
L35.133335 58.842466
" />
<path d="M35.133335 58.842466
L35.166668 58.775800
" />
<path d="M35.166668 58.775800
L35.200001 58.642466
" />
<path d="M35.200001 58.642466
L35.200001 58.475800
" />
<path d="M35.200001 58.475800
L35.166668 58.342466
" />
<path d="M35.166668 58.342466
L35.133335 58.275800
" />
<path d="M35.133335 58.275800
L35.100001 58.242466
" />
<path d="M35.100001 58.242466
L35.033335 58.209133
" />
<path d="M34.500001 58.842466
L34.466668 58.875800
" />
<path d="M34.466668 58.875800
L34.500001 58.909133
" />
<path d="M34.500001 58.909133
L34.533334 58.875800
" />
<path d="M34.533334 58.875800
L34.500001 58.842466
" />
<path d="M34.500001 58.842466
L34.500001 58.909133
" />
<path d="M34.033335 58.209133
L33.966668 58.209133
" />
<path d="M33.966668 58.209133
L33.900001 58.242466
" />
<path d="M33.900001 58.242466
L33.866668 58.275800
" />
<path d="M33.866668 58.275800
L33.833335 58.342466
" />
<path d="M33.833335 58.342466
L33.800001 58.475800
" />
<path d="M33.800001 58.475800
L33.800001 58.642466
" />
<path d="M33.800001 58.642466
L33.833335 58.775800
" />
<path d="M33.833335 58.775800
L33.866668 58.842466
" />
<path d="M33.866668 58.842466
L33.900001 58.875800
" />
<path d="M33.900001 58.875800
L33.966668 58.909133
" />
<path d="M33.966668 58.909133
L34.033335 58.909133
" />
<path d="M34.033335 58.909133
L34.100001 58.875800
" />
<path d="M34.100001 58.875800
L34.133335 58.842466
" />
<path d="M34.133335 58.842466
L34.166668 58.775800
" />
<path d="M34.166668 58.775800
L34.200001 58.642466
" />
<path d="M34.200001 58.642466
L34.200001 58.475800
" />
<path d="M34.200001 58.475800
L34.166668 58.342466
" />
<path d="M34.166668 58.342466
L34.133335 58.275800
" />
<path d="M34.133335 58.275800
L34.100001 58.242466
" />
<path d="M34.100001 58.242466
L34.033335 58.209133
" />
<path d="M33.500001 58.642466
L32.966668 58.642466
" />
<path d="M32.233334 58.909133
L32.466667 58.575800
" />
<path d="M32.633334 58.909133
L32.633334 58.209133
" />
<path d="M32.633334 58.209133
L32.366667 58.209133
" />
<path d="M32.366667 58.209133
L32.300001 58.242466
" />
<path d="M32.300001 58.242466
L32.266667 58.275800
" />
<path d="M32.266667 58.275800
L32.233334 58.342466
" />
<path d="M32.233334 58.342466
L32.233334 58.442466
" />
<path d="M32.233334 58.442466
L32.266667 58.509133
" />
<path d="M32.266667 58.509133
L32.300001 58.542466
" />
<path d="M32.300001 58.542466
L32.366667 58.575800
" />
<path d="M32.366667 58.575800
L32.633334 58.575800
" />
<path d="M31.533334 58.842466
L31.566667 58.875800
" />
<path d="M31.566667 58.875800
L31.666667 58.909133
" />
<path d="M31.666667 58.909133
L31.733334 58.909133
" />
<path d="M31.733334 58.909133
L31.833334 58.875800
" />
<path d="M31.833334 58.875800
L31.900001 58.809133
" />
<path d="M31.900001 58.809133
L31.933334 58.742466
" />
<path d="M31.933334 58.742466
L31.966667 58.609133
" />
<path d="M31.966667 58.609133
L31.966667 58.509133
" />
<path d="M31.966667 58.509133
L31.933334 58.375800
" />
<path d="M31.933334 58.375800
L31.900001 58.309133
" />
<path d="M31.900001 58.309133
L31.833334 58.242466
" />
<path d="M31.833334 58.242466
L31.733334 58.209133
" />
<path d="M31.733334 58.209133
L31.666667 58.209133
" />
<path d="M31.666667 58.209133
L31.566667 58.242466
" />
<path d="M31.566667 58.242466
L31.533334 58.275800
" />
<path d="M30.866667 58.909133
L31.266667 58.909133
" />
<path d="M31.066667 58.909133
L31.066667 58.209133
" />
<path d="M31.066667 58.209133
L31.133334 58.309133
" />
<path d="M31.133334 58.309133
L31.200001 58.375800
" />
<path d="M31.200001 58.375800
L31.266667 58.409133
" />
<path d="M29.833334 59.175800
L29.866667 59.142466
" />
<path d="M29.866667 59.142466
L29.933334 59.042466
" />
<path d="M29.933334 59.042466
L29.966667 58.975800
" />
<path d="M29.966667 58.975800
L30.000001 58.875800
" />
<path d="M30.000001 58.875800
L30.033334 58.709133
" />
<path d="M30.033334 58.709133
L30.033334 58.575800
" />
<path d="M30.033334 58.575800
L30.000001 58.409133
" />
<path d="M30.000001 58.409133
L29.966667 58.309133
" />
<path d="M29.966667 58.309133
L29.933334 58.242466
" />
<path d="M29.933334 58.242466
L29.866667 58.142466
" />
<path d="M29.866667 58.142466
L29.833334 58.109133
" />
<path d="M29.600000 58.875800
L29.500000 58.909133
" />
<path d="M29.500000 58.909133
L29.333334 58.909133
" />
<path d="M29.333334 58.909133
L29.266667 58.875800
" />
<path d="M29.266667 58.875800
L29.233334 58.842466
" />
<path d="M29.233334 58.842466
L29.200000 58.775800
" />
<path d="M29.200000 58.775800
L29.200000 58.709133
" />
<path d="M29.200000 58.709133
L29.233334 58.642466
" />
<path d="M29.233334 58.642466
L29.266667 58.609133
" />
<path d="M29.266667 58.609133
L29.333334 58.575800
" />
<path d="M29.333334 58.575800
L29.466667 58.542466
" />
<path d="M29.466667 58.542466
L29.533334 58.509133
" />
<path d="M29.533334 58.509133
L29.566667 58.475800
" />
<path d="M29.566667 58.475800
L29.600000 58.409133
" />
<path d="M29.600000 58.409133
L29.600000 58.342466
" />
<path d="M29.600000 58.342466
L29.566667 58.275800
" />
<path d="M29.566667 58.275800
L29.533334 58.242466
" />
<path d="M29.533334 58.242466
L29.466667 58.209133
" />
<path d="M29.466667 58.209133
L29.300000 58.209133
" />
<path d="M29.300000 58.209133
L29.200000 58.242466
" />
<path d="M29.400000 58.109133
L29.400000 59.009133
" />
<path d="M28.900000 58.842466
L28.866667 58.875800
" />
<path d="M28.866667 58.875800
L28.900000 58.909133
" />
<path d="M28.900000 58.909133
L28.933333 58.875800
" />
<path d="M28.933333 58.875800
L28.900000 58.842466
" />
<path d="M28.900000 58.842466
L28.900000 58.909133
" />
<path d="M28.900000 58.475800
L28.866667 58.509133
" />
<path d="M28.866667 58.509133
L28.900000 58.542466
" />
<path d="M28.900000 58.542466
L28.933333 58.509133
" />
<path d="M28.933333 58.509133
L28.900000 58.475800
" />
<path d="M28.900000 58.475800
L28.900000 58.542466
" />
<path d="M28.266667 58.209133
L28.400000 58.209133
" />
<path d="M28.400000 58.209133
L28.466667 58.242466
" />
<path d="M28.466667 58.242466
L28.500000 58.275800
" />
<path d="M28.500000 58.275800
L28.566667 58.375800
" />
<path d="M28.566667 58.375800
L28.600000 58.509133
" />
<path d="M28.600000 58.509133
L28.600000 58.775800
" />
<path d="M28.600000 58.775800
L28.566667 58.842466
" />
<path d="M28.566667 58.842466
L28.533334 58.875800
" />
<path d="M28.533334 58.875800
L28.466667 58.909133
" />
<path d="M28.466667 58.909133
L28.333334 58.909133
" />
<path d="M28.333334 58.909133
L28.266667 58.875800
" />
<path d="M28.266667 58.875800
L28.233334 58.842466
" />
<path d="M28.233334 58.842466
L28.200000 58.775800
" />
<path d="M28.200000 58.775800
L28.200000 58.609133
" />
<path d="M28.200000 58.609133
L28.233334 58.542466
" />
<path d="M28.233334 58.542466
L28.266667 58.509133
" />
<path d="M28.266667 58.509133
L28.333334 58.475800
" />
<path d="M28.333334 58.475800
L28.466667 58.475800
" />
<path d="M28.466667 58.475800
L28.533334 58.509133
" />
<path d="M28.533334 58.509133
L28.566667 58.542466
" />
<path d="M28.566667 58.542466
L28.600000 58.609133
" />
<path d="M27.866667 58.909133
L27.733333 58.909133
" />
<path d="M27.733333 58.909133
L27.666667 58.875800
" />
<path d="M27.666667 58.875800
L27.633333 58.842466
" />
<path d="M27.633333 58.842466
L27.566667 58.742466
" />
<path d="M27.566667 58.742466
L27.533333 58.609133
" />
<path d="M27.533333 58.609133
L27.533333 58.342466
" />
<path d="M27.533333 58.342466
L27.566667 58.275800
" />
<path d="M27.566667 58.275800
L27.600000 58.242466
" />
<path d="M27.600000 58.242466
L27.666667 58.209133
" />
<path d="M27.666667 58.209133
L27.800000 58.209133
" />
<path d="M27.800000 58.209133
L27.866667 58.242466
" />
<path d="M27.866667 58.242466
L27.900000 58.275800
" />
<path d="M27.900000 58.275800
L27.933333 58.342466
" />
<path d="M27.933333 58.342466
L27.933333 58.509133
" />
<path d="M27.933333 58.509133
L27.900000 58.575800
" />
<path d="M27.900000 58.575800
L27.866667 58.609133
" />
<path d="M27.866667 58.609133
L27.800000 58.642466
" />
<path d="M27.800000 58.642466
L27.666667 58.642466
" />
<path d="M27.666667 58.642466
L27.600000 58.609133
" />
<path d="M27.600000 58.609133
L27.566667 58.575800
" />
<path d="M27.566667 58.575800
L27.533333 58.509133
" />
<path d="M27.333333 58.442466
L27.066666 58.442466
" />
<path d="M27.233333 58.909133
L27.233333 58.309133
" />
<path d="M27.233333 58.309133
L27.200000 58.242466
" />
<path d="M27.200000 58.242466
L27.133333 58.209133
" />
<path d="M27.133333 58.209133
L27.066666 58.209133
" />
<path d="M26.533333 58.909133
L26.533333 58.542466
" />
<path d="M26.533333 58.542466
L26.566666 58.475800
" />
<path d="M26.566666 58.475800
L26.633333 58.442466
" />
<path d="M26.633333 58.442466
L26.766666 58.442466
" />
<path d="M26.766666 58.442466
L26.833333 58.475800
" />
<path d="M26.533333 58.875800
L26.600000 58.909133
" />
<path d="M26.600000 58.909133
L26.766666 58.909133
" />
<path d="M26.766666 58.909133
L26.833333 58.875800
" />
<path d="M26.833333 58.875800
L26.866666 58.809133
" />
<path d="M26.866666 58.809133
L26.866666 58.742466
" />
<path d="M26.866666 58.742466
L26.833333 58.675800
" />
<path d="M26.833333 58.675800
L26.766666 58.642466
" />
<path d="M26.766666 58.642466
L26.600000 58.642466
" />
<path d="M26.600000 58.642466
L26.533333 58.609133
" />
<path d="M25.833333 58.909133
L26.233333 58.909133
" />
<path d="M26.033333 58.909133
L26.033333 58.209133
" />
<path d="M26.033333 58.209133
L26.100000 58.309133
" />
<path d="M26.100000 58.309133
L26.166667 58.375800
" />
<path d="M26.166667 58.375800
L26.233333 58.409133
" />
<path d="M25.633333 58.442466
L25.366666 58.442466
" />
<path d="M25.533333 58.909133
L25.533333 58.309133
" />
<path d="M25.533333 58.309133
L25.500000 58.242466
" />
<path d="M25.500000 58.242466
L25.433333 58.209133
" />
<path d="M25.433333 58.209133
L25.366666 58.209133
" />
<path d="M25.100000 58.909133
L24.966666 58.909133
" />
<path d="M24.966666 58.909133
L24.900000 58.875800
" />
<path d="M24.900000 58.875800
L24.866666 58.842466
" />
<path d="M24.866666 58.842466
L24.800000 58.742466
" />
<path d="M24.800000 58.742466
L24.766666 58.609133
" />
<path d="M24.766666 58.609133
L24.766666 58.342466
" />
<path d="M24.766666 58.342466
L24.800000 58.275800
" />
<path d="M24.800000 58.275800
L24.833333 58.242466
" />
<path d="M24.833333 58.242466
L24.900000 58.209133
" />
<path d="M24.900000 58.209133
L25.033333 58.209133
" />
<path d="M25.033333 58.209133
L25.100000 58.242466
" />
<path d="M25.100000 58.242466
L25.133333 58.275800
" />
<path d="M25.133333 58.275800
L25.166666 58.342466
" />
<path d="M25.166666 58.342466
L25.166666 58.509133
" />
<path d="M25.166666 58.509133
L25.133333 58.575800
" />
<path d="M25.133333 58.575800
L25.100000 58.609133
" />
<path d="M25.100000 58.609133
L25.033333 58.642466
" />
<path d="M25.033333 58.642466
L24.900000 58.642466
" />
<path d="M24.900000 58.642466
L24.833333 58.609133
" />
<path d="M24.833333 58.609133
L24.800000 58.575800
" />
<path d="M24.800000 58.575800
L24.766666 58.509133
" />
<path d="M24.533333 59.175800
L24.499999 59.142466
" />
<path d="M24.499999 59.142466
L24.433333 59.042466
" />
<path d="M24.433333 59.042466
L24.399999 58.975800
" />
<path d="M24.399999 58.975800
L24.366666 58.875800
" />
<path d="M24.366666 58.875800
L24.333333 58.709133
" />
<path d="M24.333333 58.709133
L24.333333 58.575800
" />
<path d="M24.333333 58.575800
L24.366666 58.409133
" />
<path d="M24.366666 58.409133
L24.399999 58.309133
" />
<path d="M24.399999 58.309133
L24.433333 58.242466
" />
<path d="M24.433333 58.242466
L24.499999 58.142466
" />
<path d="M24.499999 58.142466
L24.533333 58.109133
" />
</g></g>
<g style="fill:none; 
stroke:#000000; stroke-width:0.150000; stroke-opacity:1; 
stroke-linecap:round; stroke-linejoin:round;">
<g transform="rotate(-90.000000 19.250000 111.000000)">
<text x="19.250000" y="111.500000"
transform="scale(-1 1) translate(-38.500000 0)"
textLength="1.964286" font-size="1.333333" lengthAdjust="spacingAndGlyphs"
text-anchor="middle" opacity="0" stroke-opacity="0">J2</text>
</g>
<g class="stroked-text"><desc>J2</desc>
<path d="M18.704819 110.666666
L19.419104 110.666666
" />
<path d="M19.419104 110.666666
L19.561961 110.619047
" />
<path d="M19.561961 110.619047
L19.657200 110.523809
" />
<path d="M19.657200 110.523809
L19.704819 110.380952
" />
<path d="M19.704819 110.380952
L19.704819 110.285714
" />
<path d="M18.800057 111.095238
L18.752438 111.142857
" />
<path d="M18.752438 111.142857
L18.704819 111.238095
" />
<path d="M18.704819 111.238095
L18.704819 111.476190
" />
<path d="M18.704819 111.476190
L18.752438 111.571428
" />
<path d="M18.752438 111.571428
L18.800057 111.619047
" />
<path d="M18.800057 111.619047
L18.895295 111.666666
" />
<path d="M18.895295 111.666666
L18.990533 111.666666
" />
<path d="M18.990533 111.666666
L19.133390 111.619047
" />
<path d="M19.133390 111.619047
L19.704819 111.047619
" />
<path d="M19.704819 111.047619
L19.704819 111.666666
" />
</g><text x="103.000000" y="37.500000"
transform="scale(-1 1) translate(-206.000000 0)"
textLength="1.964286" font-size="1.333333" lengthAdjust="spacingAndGlyphs"
text-anchor="middle" opacity="0" stroke-opacity="0">J1</text>
<g class="stroked-text"><desc>J1</desc>
<path d="M103.333333 36.454819
L103.333333 37.169104
" />
<path d="M103.333333 37.169104
L103.380952 37.311961
" />
<path d="M103.380952 37.311961
L103.476190 37.407200
" />
<path d="M103.476190 37.407200
L103.619047 37.454819
" />
<path d="M103.619047 37.454819
L103.714285 37.454819
" />
<path d="M102.333333 37.454819
L102.904761 37.454819
" />
<path d="M102.619047 37.454819
L102.619047 36.454819
" />
<path d="M102.619047 36.454819
L102.714285 36.597676
" />
<path d="M102.714285 36.597676
L102.809523 36.692914
" />
<path d="M102.809523 36.692914
L102.904761 36.740533
" />
</g></g>
<g style="fill:none; 
stroke:#000000; stroke-width:0.120000; stroke-opacity:1; 
stroke-linecap:round; stroke-linejoin:round;">
<path d="M20.340000 105.915000
L20.340000 116.085000
" />
<path d="M20.340000 116.085000
L21.190000 116.085000
" />
<path d="M21.190000 105.915000
L20.340000 105.915000
" />
<path d="M24.710000 105.915000
L25.560000 105.915000
" />
<path d="M24.710000 116.085000
L25.560000 116.085000
" />
<path d="M25.560000 105.915000
L25.560000 108.240000
" />
<path d="M25.560000 108.240000
L27.950000 108.240000
" />
<path d="M25.560000 116.085000
L25.560000 113.760000
" />
<path d="M101.915000 30.640000
L101.915000 31.490000
" />
<path d="M101.915000 35.010000
L101.915000 35.860000
" />
<path d="M101.915000 35.860000
L104.240000 35.860000
" />
<path d="M109.760000 35.860000
L109.760000 38.250000
" />
<path d="M112.085000 30.640000
L101.915000 30.640000
" />
<path d="M112.085000 31.490000
L112.085000 30.640000
" />
<path d="M112.085000 35.010000
L112.085000 35.860000
" />
<path d="M112.085000 35.860000
L109.760000 35.860000
" />
</g> 
</svg>
