<?xml version="1.0" standalone="no"?>
 <!DOCTYPE svg PUBLIC "-//W3C//DTD SVG 1.1//EN" 
 "http://www.w3.org/Graphics/SVG/1.1/DTD/svg11.dtd"> 
<svg
  xmlns:svg="http://www.w3.org/2000/svg"
  xmlns="http://www.w3.org/2000/svg"
  xmlns:xlink="http://www.w3.org/1999/xlink"
  version="1.1"
  width="297.0022mm" height="210.0072mm" viewBox="0.0000 0.0000 297.0022 210.0072">
<title>SVG Image created as pedalboard-display-B_Fab.svg date 2024/10/09 09:09:21 </title>
  <desc>Image generated by PCBNEW </desc>
<g style="fill:#000000; fill-opacity:1.0000;stroke:#000000; stroke-opacity:1.0000;
stroke-linecap:round; stroke-linejoin:round;"
 transform="translate(0 0) scale(1 1)">
</g>
<g style="fill:none; 
stroke:#000000; stroke-width:0.1500; stroke-opacity:1; 
stroke-linecap:round; stroke-linejoin:round;">
<text x="227.5242" y="76.3728"
textLength="2.2500" font-size="1.3333" lengthAdjust="spacingAndGlyphs"
text-anchor="middle" opacity="0" stroke-opacity="0">U1</text>
<g class="stroked-text"><desc>U1</desc>
<path d="M226.7623 75.3276
L226.7623 76.1371
" />
<path d="M226.7623 76.1371
L226.8099 76.2324
" />
<path d="M226.8099 76.2324
L226.8575 76.2800
" />
<path d="M226.8575 76.2800
L226.9528 76.3276
" />
<path d="M226.9528 76.3276
L227.1432 76.3276
" />
<path d="M227.1432 76.3276
L227.2385 76.2800
" />
<path d="M227.2385 76.2800
L227.2861 76.2324
" />
<path d="M227.2861 76.2324
L227.3337 76.1371
" />
<path d="M227.3337 76.1371
L227.3337 75.3276
" />
<path d="M228.3337 76.3276
L227.7623 76.3276
" />
<path d="M228.0480 76.3276
L228.0480 75.3276
" />
<path d="M228.0480 75.3276
L227.9528 75.4705
" />
<path d="M227.9528 75.4705
L227.8575 75.5657
" />
<path d="M227.8575 75.5657
L227.7623 75.6133
" />
</g><text x="152.5242" y="76.3728"
textLength="2.2500" font-size="1.3333" lengthAdjust="spacingAndGlyphs"
text-anchor="middle" opacity="0" stroke-opacity="0">U2</text>
<g class="stroked-text"><desc>U2</desc>
<path d="M151.7623 75.3276
L151.7623 76.1371
" />
<path d="M151.7623 76.1371
L151.8099 76.2324
" />
<path d="M151.8099 76.2324
L151.8575 76.2800
" />
<path d="M151.8575 76.2800
L151.9528 76.3276
" />
<path d="M151.9528 76.3276
L152.1432 76.3276
" />
<path d="M152.1432 76.3276
L152.2385 76.2800
" />
<path d="M152.2385 76.2800
L152.2861 76.2324
" />
<path d="M152.2861 76.2324
L152.3337 76.1371
" />
<path d="M152.3337 76.1371
L152.3337 75.3276
" />
<path d="M152.7623 75.4229
L152.8099 75.3752
" />
<path d="M152.8099 75.3752
L152.9052 75.3276
" />
<path d="M152.9052 75.3276
L153.1432 75.3276
" />
<path d="M153.1432 75.3276
L153.2385 75.3752
" />
<path d="M153.2385 75.3752
L153.2861 75.4229
" />
<path d="M153.2861 75.4229
L153.3337 75.5181
" />
<path d="M153.3337 75.5181
L153.3337 75.6133
" />
<path d="M153.3337 75.6133
L153.2861 75.7562
" />
<path d="M153.2861 75.7562
L152.7147 76.3276
" />
<path d="M152.7147 76.3276
L153.3337 76.3276
" />
</g><g transform="rotate(90.000000 162.9022 75.9125)">
<text x="162.9022" y="76.4125"
textLength="3.1548" font-size="1.3333" lengthAdjust="spacingAndGlyphs"
text-anchor="middle" opacity="0" stroke-opacity="0">3K3</text>
</g>
<g class="stroked-text"><desc>3K3</desc>
<path d="M163.4474 74.6030
L163.4474 75.2220
" />
<path d="M163.4474 75.2220
L163.0664 74.8887
" />
<path d="M163.0664 74.8887
L163.0664 75.0315
" />
<path d="M163.0664 75.0315
L163.0188 75.1268
" />
<path d="M163.0188 75.1268
L162.9712 75.1744
" />
<path d="M162.9712 75.1744
L162.8760 75.2220
" />
<path d="M162.8760 75.2220
L162.6379 75.2220
" />
<path d="M162.6379 75.2220
L162.5426 75.1744
" />
<path d="M162.5426 75.1744
L162.4950 75.1268
" />
<path d="M162.4950 75.1268
L162.4474 75.0315
" />
<path d="M162.4474 75.0315
L162.4474 74.7458
" />
<path d="M162.4474 74.7458
L162.4950 74.6506
" />
<path d="M162.4950 74.6506
L162.5426 74.6030
" />
<path d="M162.4474 75.6506
L163.4474 75.6506
" />
<path d="M162.4474 76.2220
L163.0188 75.7935
" />
<path d="M163.4474 76.2220
L162.8760 75.6506
" />
<path d="M163.4474 76.5554
L163.4474 77.1744
" />
<path d="M163.4474 77.1744
L163.0664 76.8411
" />
<path d="M163.0664 76.8411
L163.0664 76.9839
" />
<path d="M163.0664 76.9839
L163.0188 77.0792
" />
<path d="M163.0188 77.0792
L162.9712 77.1268
" />
<path d="M162.9712 77.1268
L162.8760 77.1744
" />
<path d="M162.8760 77.1744
L162.6379 77.1744
" />
<path d="M162.6379 77.1744
L162.5426 77.1268
" />
<path d="M162.5426 77.1268
L162.4950 77.0792
" />
<path d="M162.4950 77.0792
L162.4474 76.9839
" />
<path d="M162.4474 76.9839
L162.4474 76.6982
" />
<path d="M162.4474 76.6982
L162.4950 76.6030
" />
<path d="M162.4950 76.6030
L162.5426 76.5554
" />
</g></g>
<g style="fill:none; 
stroke:#000000; stroke-width:0.0800; stroke-opacity:1; 
stroke-linecap:round; stroke-linejoin:round;">
<g transform="rotate(90.000000 161.2522 75.9125)">
<text x="161.2522" y="76.1625"
textLength="1.1162" font-size="0.6667" lengthAdjust="spacingAndGlyphs"
text-anchor="middle" opacity="0" stroke-opacity="0">R3</text>
</g>
<g class="stroked-text"><desc>R3</desc>
<path d="M161.0251 75.8292
L161.2631 75.6625
" />
<path d="M161.0251 75.5435
L161.5251 75.5435
" />
<path d="M161.5251 75.5435
L161.5251 75.7339
" />
<path d="M161.5251 75.7339
L161.5012 75.7815
" />
<path d="M161.5012 75.7815
L161.4774 75.8054
" />
<path d="M161.4774 75.8054
L161.4298 75.8292
" />
<path d="M161.4298 75.8292
L161.3584 75.8292
" />
<path d="M161.3584 75.8292
L161.3108 75.8054
" />
<path d="M161.3108 75.8054
L161.2870 75.7815
" />
<path d="M161.2870 75.7815
L161.2631 75.7339
" />
<path d="M161.2631 75.7339
L161.2631 75.5435
" />
<path d="M161.5251 75.9958
L161.5251 76.3054
" />
<path d="M161.5251 76.3054
L161.3346 76.1387
" />
<path d="M161.3346 76.1387
L161.3346 76.2101
" />
<path d="M161.3346 76.2101
L161.3108 76.2577
" />
<path d="M161.3108 76.2577
L161.2870 76.2815
" />
<path d="M161.2870 76.2815
L161.2393 76.3054
" />
<path d="M161.2393 76.3054
L161.1203 76.3054
" />
<path d="M161.1203 76.3054
L161.0727 76.2815
" />
<path d="M161.0727 76.2815
L161.0489 76.2577
" />
<path d="M161.0489 76.2577
L161.0251 76.2101
" />
<path d="M161.0251 76.2101
L161.0251 76.0673
" />
<path d="M161.0251 76.0673
L161.0489 76.0196
" />
<path d="M161.0489 76.0196
L161.0727 75.9958
" />
</g></g>
<g style="fill:none; 
stroke:#000000; stroke-width:0.1500; stroke-opacity:1; 
stroke-linecap:round; stroke-linejoin:round;">
<g transform="rotate(90.000000 160.9022 75.9125)">
<text x="160.9022" y="76.4125"
textLength="3.1548" font-size="1.3333" lengthAdjust="spacingAndGlyphs"
text-anchor="middle" opacity="0" stroke-opacity="0">3K3</text>
</g>
<g class="stroked-text"><desc>3K3</desc>
<path d="M161.4474 74.6030
L161.4474 75.2220
" />
<path d="M161.4474 75.2220
L161.0664 74.8887
" />
<path d="M161.0664 74.8887
L161.0664 75.0315
" />
<path d="M161.0664 75.0315
L161.0188 75.1268
" />
<path d="M161.0188 75.1268
L160.9712 75.1744
" />
<path d="M160.9712 75.1744
L160.8760 75.2220
" />
<path d="M160.8760 75.2220
L160.6379 75.2220
" />
<path d="M160.6379 75.2220
L160.5426 75.1744
" />
<path d="M160.5426 75.1744
L160.4950 75.1268
" />
<path d="M160.4950 75.1268
L160.4474 75.0315
" />
<path d="M160.4474 75.0315
L160.4474 74.7458
" />
<path d="M160.4474 74.7458
L160.4950 74.6506
" />
<path d="M160.4950 74.6506
L160.5426 74.6030
" />
<path d="M160.4474 75.6506
L161.4474 75.6506
" />
<path d="M160.4474 76.2220
L161.0188 75.7935
" />
<path d="M161.4474 76.2220
L160.8760 75.6506
" />
<path d="M161.4474 76.5554
L161.4474 77.1744
" />
<path d="M161.4474 77.1744
L161.0664 76.8411
" />
<path d="M161.0664 76.8411
L161.0664 76.9839
" />
<path d="M161.0664 76.9839
L161.0188 77.0792
" />
<path d="M161.0188 77.0792
L160.9712 77.1268
" />
<path d="M160.9712 77.1268
L160.8760 77.1744
" />
<path d="M160.8760 77.1744
L160.6379 77.1744
" />
<path d="M160.6379 77.1744
L160.5426 77.1268
" />
<path d="M160.5426 77.1268
L160.4950 77.0792
" />
<path d="M160.4950 77.0792
L160.4474 76.9839
" />
<path d="M160.4474 76.9839
L160.4474 76.6982
" />
<path d="M160.4474 76.6982
L160.4950 76.6030
" />
<path d="M160.4950 76.6030
L160.5426 76.5554
" />
</g></g>
<g style="fill:none; 
stroke:#000000; stroke-width:0.0800; stroke-opacity:1; 
stroke-linecap:round; stroke-linejoin:round;">
<g transform="rotate(90.000000 159.2522 75.9125)">
<text x="159.2522" y="76.1625"
textLength="1.1162" font-size="0.6667" lengthAdjust="spacingAndGlyphs"
text-anchor="middle" opacity="0" stroke-opacity="0">R2</text>
</g>
<g class="stroked-text"><desc>R2</desc>
<path d="M159.0251 75.8292
L159.2631 75.6625
" />
<path d="M159.0251 75.5435
L159.5251 75.5435
" />
<path d="M159.5251 75.5435
L159.5251 75.7339
" />
<path d="M159.5251 75.7339
L159.5012 75.7815
" />
<path d="M159.5012 75.7815
L159.4774 75.8054
" />
<path d="M159.4774 75.8054
L159.4298 75.8292
" />
<path d="M159.4298 75.8292
L159.3584 75.8292
" />
<path d="M159.3584 75.8292
L159.3108 75.8054
" />
<path d="M159.3108 75.8054
L159.2870 75.7815
" />
<path d="M159.2870 75.7815
L159.2631 75.7339
" />
<path d="M159.2631 75.7339
L159.2631 75.5435
" />
<path d="M159.4774 76.0196
L159.5012 76.0435
" />
<path d="M159.5012 76.0435
L159.5251 76.0911
" />
<path d="M159.5251 76.0911
L159.5251 76.2101
" />
<path d="M159.5251 76.2101
L159.5012 76.2577
" />
<path d="M159.5012 76.2577
L159.4774 76.2815
" />
<path d="M159.4774 76.2815
L159.4298 76.3054
" />
<path d="M159.4298 76.3054
L159.3822 76.3054
" />
<path d="M159.3822 76.3054
L159.3108 76.2815
" />
<path d="M159.3108 76.2815
L159.0251 75.9958
" />
<path d="M159.0251 75.9958
L159.0251 76.3054
" />
</g></g>
<g style="fill:none; 
stroke:#000000; stroke-width:0.1500; stroke-opacity:1; 
stroke-linecap:round; stroke-linejoin:round;">
<text x="153.0022" y="72.9500"
textLength="4.0119" font-size="1.3333" lengthAdjust="spacingAndGlyphs"
text-anchor="middle" opacity="0" stroke-opacity="0">OLED</text>
<g class="stroked-text"><desc>OLED</desc>
<path d="M151.5498 71.9048
L151.7403 71.9048
" />
<path d="M151.7403 71.9048
L151.8355 71.9524
" />
<path d="M151.8355 71.9524
L151.9308 72.0477
" />
<path d="M151.9308 72.0477
L151.9784 72.2382
" />
<path d="M151.9784 72.2382
L151.9784 72.5715
" />
<path d="M151.9784 72.5715
L151.9308 72.7620
" />
<path d="M151.9308 72.7620
L151.8355 72.8572
" />
<path d="M151.8355 72.8572
L151.7403 72.9048
" />
<path d="M151.7403 72.9048
L151.5498 72.9048
" />
<path d="M151.5498 72.9048
L151.4546 72.8572
" />
<path d="M151.4546 72.8572
L151.3593 72.7620
" />
<path d="M151.3593 72.7620
L151.3117 72.5715
" />
<path d="M151.3117 72.5715
L151.3117 72.2382
" />
<path d="M151.3117 72.2382
L151.3593 72.0477
" />
<path d="M151.3593 72.0477
L151.4546 71.9524
" />
<path d="M151.4546 71.9524
L151.5498 71.9048
" />
<path d="M152.8832 72.9048
L152.4070 72.9048
" />
<path d="M152.4070 72.9048
L152.4070 71.9048
" />
<path d="M153.2165 72.3810
L153.5498 72.3810
" />
<path d="M153.6927 72.9048
L153.2165 72.9048
" />
<path d="M153.2165 72.9048
L153.2165 71.9048
" />
<path d="M153.2165 71.9048
L153.6927 71.9048
" />
<path d="M154.1212 72.9048
L154.1212 71.9048
" />
<path d="M154.1212 71.9048
L154.3593 71.9048
" />
<path d="M154.3593 71.9048
L154.5022 71.9524
" />
<path d="M154.5022 71.9524
L154.5974 72.0477
" />
<path d="M154.5974 72.0477
L154.6451 72.1429
" />
<path d="M154.6451 72.1429
L154.6927 72.3334
" />
<path d="M154.6927 72.3334
L154.6927 72.4762
" />
<path d="M154.6927 72.4762
L154.6451 72.6667
" />
<path d="M154.6451 72.6667
L154.5974 72.7620
" />
<path d="M154.5974 72.7620
L154.5022 72.8572
" />
<path d="M154.5022 72.8572
L154.3593 72.9048
" />
<path d="M154.3593 72.9048
L154.1212 72.9048
" />
</g><text x="153.0022" y="67.5000"
textLength="1.9643" font-size="1.3333" lengthAdjust="spacingAndGlyphs"
text-anchor="middle" opacity="0" stroke-opacity="0">J3</text>
<g class="stroked-text"><desc>J3</desc>
<path d="M152.6689 66.4548
L152.6689 67.1691
" />
<path d="M152.6689 67.1691
L152.6212 67.3120
" />
<path d="M152.6212 67.3120
L152.5260 67.4072
" />
<path d="M152.5260 67.4072
L152.3832 67.4548
" />
<path d="M152.3832 67.4548
L152.2879 67.4548
" />
<path d="M153.0498 66.4548
L153.6689 66.4548
" />
<path d="M153.6689 66.4548
L153.3355 66.8358
" />
<path d="M153.3355 66.8358
L153.4784 66.8358
" />
<path d="M153.4784 66.8358
L153.5736 66.8834
" />
<path d="M153.5736 66.8834
L153.6212 66.9310
" />
<path d="M153.6212 66.9310
L153.6689 67.0262
" />
<path d="M153.6689 67.0262
L153.6689 67.2643
" />
<path d="M153.6689 67.2643
L153.6212 67.3596
" />
<path d="M153.6212 67.3596
L153.5736 67.4072
" />
<path d="M153.5736 67.4072
L153.4784 67.4548
" />
<path d="M153.4784 67.4548
L153.1927 67.4548
" />
<path d="M153.1927 67.4548
L153.0974 67.4072
" />
<path d="M153.0974 67.4072
L153.0498 67.3596
" />
</g><text x="190.0022" y="53.7000"
textLength="7.0595" font-size="1.3333" lengthAdjust="spacingAndGlyphs"
text-anchor="middle" opacity="0" stroke-opacity="0">LED-OUT</text>
<g class="stroked-text"><desc>LED-OUT</desc>
<path d="M187.3117 53.6548
L186.8355 53.6548
" />
<path d="M186.8355 53.6548
L186.8355 52.6548
" />
<path d="M187.6451 53.1310
L187.9784 53.1310
" />
<path d="M188.1212 53.6548
L187.6451 53.6548
" />
<path d="M187.6451 53.6548
L187.6451 52.6548
" />
<path d="M187.6451 52.6548
L188.1212 52.6548
" />
<path d="M188.5498 53.6548
L188.5498 52.6548
" />
<path d="M188.5498 52.6548
L188.7879 52.6548
" />
<path d="M188.7879 52.6548
L188.9308 52.7024
" />
<path d="M188.9308 52.7024
L189.0260 52.7977
" />
<path d="M189.0260 52.7977
L189.0736 52.8929
" />
<path d="M189.0736 52.8929
L189.1212 53.0834
" />
<path d="M189.1212 53.0834
L189.1212 53.2262
" />
<path d="M189.1212 53.2262
L189.0736 53.4167
" />
<path d="M189.0736 53.4167
L189.0260 53.5120
" />
<path d="M189.0260 53.5120
L188.9308 53.6072
" />
<path d="M188.9308 53.6072
L188.7879 53.6548
" />
<path d="M188.7879 53.6548
L188.5498 53.6548
" />
<path d="M189.5498 53.2739
L190.3117 53.2739
" />
<path d="M190.9784 52.6548
L191.1689 52.6548
" />
<path d="M191.1689 52.6548
L191.2641 52.7024
" />
<path d="M191.2641 52.7024
L191.3593 52.7977
" />
<path d="M191.3593 52.7977
L191.4070 52.9882
" />
<path d="M191.4070 52.9882
L191.4070 53.3215
" />
<path d="M191.4070 53.3215
L191.3593 53.5120
" />
<path d="M191.3593 53.5120
L191.2641 53.6072
" />
<path d="M191.2641 53.6072
L191.1689 53.6548
" />
<path d="M191.1689 53.6548
L190.9784 53.6548
" />
<path d="M190.9784 53.6548
L190.8832 53.6072
" />
<path d="M190.8832 53.6072
L190.7879 53.5120
" />
<path d="M190.7879 53.5120
L190.7403 53.3215
" />
<path d="M190.7403 53.3215
L190.7403 52.9882
" />
<path d="M190.7403 52.9882
L190.7879 52.7977
" />
<path d="M190.7879 52.7977
L190.8832 52.7024
" />
<path d="M190.8832 52.7024
L190.9784 52.6548
" />
<path d="M191.8355 52.6548
L191.8355 53.4643
" />
<path d="M191.8355 53.4643
L191.8832 53.5596
" />
<path d="M191.8832 53.5596
L191.9308 53.6072
" />
<path d="M191.9308 53.6072
L192.0260 53.6548
" />
<path d="M192.0260 53.6548
L192.2165 53.6548
" />
<path d="M192.2165 53.6548
L192.3117 53.6072
" />
<path d="M192.3117 53.6072
L192.3593 53.5596
" />
<path d="M192.3593 53.5596
L192.4070 53.4643
" />
<path d="M192.4070 53.4643
L192.4070 52.6548
" />
<path d="M192.7403 52.6548
L193.3117 52.6548
" />
<path d="M193.0260 53.6548
L193.0260 52.6548
" />
</g><text x="190.0022" y="48.2500"
textLength="1.9643" font-size="1.3333" lengthAdjust="spacingAndGlyphs"
text-anchor="middle" opacity="0" stroke-opacity="0">J2</text>
<g class="stroked-text"><desc>J2</desc>
<path d="M189.6689 47.2048
L189.6689 47.9191
" />
<path d="M189.6689 47.9191
L189.6212 48.0620
" />
<path d="M189.6212 48.0620
L189.5260 48.1572
" />
<path d="M189.5260 48.1572
L189.3832 48.2048
" />
<path d="M189.3832 48.2048
L189.2879 48.2048
" />
<path d="M190.0974 47.3001
L190.1451 47.2524
" />
<path d="M190.1451 47.2524
L190.2403 47.2048
" />
<path d="M190.2403 47.2048
L190.4784 47.2048
" />
<path d="M190.4784 47.2048
L190.5736 47.2524
" />
<path d="M190.5736 47.2524
L190.6212 47.3001
" />
<path d="M190.6212 47.3001
L190.6689 47.3953
" />
<path d="M190.6689 47.3953
L190.6689 47.4905
" />
<path d="M190.6689 47.4905
L190.6212 47.6334
" />
<path d="M190.6212 47.6334
L190.0498 48.2048
" />
<path d="M190.0498 48.2048
L190.6689 48.2048
" />
</g><text x="190.0022" y="62.2000"
textLength="5.7262" font-size="1.3333" lengthAdjust="spacingAndGlyphs"
text-anchor="middle" opacity="0" stroke-opacity="0">LED-IN</text>
<g class="stroked-text"><desc>LED-IN</desc>
<path d="M187.9784 62.1548
L187.5022 62.1548
" />
<path d="M187.5022 62.1548
L187.5022 61.1548
" />
<path d="M188.3117 61.6310
L188.6451 61.6310
" />
<path d="M188.7879 62.1548
L188.3117 62.1548
" />
<path d="M188.3117 62.1548
L188.3117 61.1548
" />
<path d="M188.3117 61.1548
L188.7879 61.1548
" />
<path d="M189.2165 62.1548
L189.2165 61.1548
" />
<path d="M189.2165 61.1548
L189.4546 61.1548
" />
<path d="M189.4546 61.1548
L189.5974 61.2024
" />
<path d="M189.5974 61.2024
L189.6927 61.2977
" />
<path d="M189.6927 61.2977
L189.7403 61.3929
" />
<path d="M189.7403 61.3929
L189.7879 61.5834
" />
<path d="M189.7879 61.5834
L189.7879 61.7262
" />
<path d="M189.7879 61.7262
L189.7403 61.9167
" />
<path d="M189.7403 61.9167
L189.6927 62.0120
" />
<path d="M189.6927 62.0120
L189.5974 62.1072
" />
<path d="M189.5974 62.1072
L189.4546 62.1548
" />
<path d="M189.4546 62.1548
L189.2165 62.1548
" />
<path d="M190.2165 61.7739
L190.9784 61.7739
" />
<path d="M191.4546 62.1548
L191.4546 61.1548
" />
<path d="M191.9308 62.1548
L191.9308 61.1548
" />
<path d="M191.9308 61.1548
L192.5022 62.1548
" />
<path d="M192.5022 62.1548
L192.5022 61.1548
" />
</g><text x="190.0022" y="56.7500"
textLength="1.9643" font-size="1.3333" lengthAdjust="spacingAndGlyphs"
text-anchor="middle" opacity="0" stroke-opacity="0">J1</text>
<g class="stroked-text"><desc>J1</desc>
<path d="M189.6689 55.7048
L189.6689 56.4191
" />
<path d="M189.6689 56.4191
L189.6212 56.5620
" />
<path d="M189.6212 56.5620
L189.5260 56.6572
" />
<path d="M189.5260 56.6572
L189.3832 56.7048
" />
<path d="M189.3832 56.7048
L189.2879 56.7048
" />
<path d="M190.6689 56.7048
L190.0974 56.7048
" />
<path d="M190.3832 56.7048
L190.3832 55.7048
" />
<path d="M190.3832 55.7048
L190.2879 55.8477
" />
<path d="M190.2879 55.8477
L190.1927 55.9429
" />
<path d="M190.1927 55.9429
L190.0974 55.9905
" />
</g></g>
<g style="fill:none; 
stroke:#000000; stroke-width:0.1000; stroke-opacity:1; 
stroke-linecap:round; stroke-linejoin:round;">
<path d="M232.6042 74.6028
L232.6042 77.1428
" />
<path d="M232.6042 77.1428
L223.0792 77.1428
" />
<path d="M223.0792 77.1428
L222.4442 76.5078
" />
<path d="M222.4442 74.6028
L232.6042 74.6028
" />
<path d="M222.4442 76.5078
L222.4442 74.6028
" />
<path d="M157.6042 74.6028
L157.6042 77.1428
" />
<path d="M157.6042 77.1428
L148.0792 77.1428
" />
<path d="M148.0792 77.1428
L147.4442 76.5078
" />
<path d="M147.4442 74.6028
L157.6042 74.6028
" />
<path d="M147.4442 76.5078
L147.4442 74.6028
" />
<path d="M161.8772 74.9125
L160.6272 74.9125
" />
<path d="M161.8772 76.9125
L161.8772 74.9125
" />
<path d="M160.6272 74.9125
L160.6272 76.9125
" />
<path d="M160.6272 76.9125
L161.8772 76.9125
" />
<path d="M159.8772 74.9125
L158.6272 74.9125
" />
<path d="M159.8772 76.9125
L159.8772 74.9125
" />
<path d="M158.6272 74.9125
L158.6272 76.9125
" />
<path d="M158.6272 76.9125
L159.8772 76.9125
" />
<path d="M158.9772 63.7500
L158.9772 68.7500
" />
<path d="M158.9772 63.7500
L147.0272 63.7500
" />
<path d="M158.9772 68.7500
L147.0272 68.7500
" />
<path d="M156.2522 65.2500
L156.2522 65.7500
" />
<path d="M156.2522 65.7500
L155.7522 65.7500
" />
<path d="M155.7522 65.2500
L156.2522 65.2500
" />
<path d="M155.7522 65.7500
L155.7522 65.2500
" />
<path d="M154.2522 65.2500
L154.2522 65.7500
" />
<path d="M154.2522 65.7500
L153.7522 65.7500
" />
<path d="M153.7522 65.2500
L154.2522 65.2500
" />
<path d="M153.7522 65.7500
L153.7522 65.2500
" />
<path d="M152.2522 65.2500
L152.2522 65.7500
" />
<path d="M152.2522 65.7500
L151.7522 65.7500
" />
<path d="M151.7522 65.2500
L152.2522 65.2500
" />
<path d="M151.7522 65.7500
L151.7522 65.2500
" />
<path d="M150.5022 68.7500
L150.0022 68.0429
" />
<path d="M150.2522 65.2500
L150.2522 65.7500
" />
<path d="M150.2522 65.7500
L149.7522 65.7500
" />
<path d="M150.0022 68.0429
L149.5022 68.7500
" />
<path d="M149.7522 65.2500
L150.2522 65.2500
" />
<path d="M149.7522 65.7500
L149.7522 65.2500
" />
<path d="M147.0272 63.7500
L147.0272 68.7500
" />
<path d="M194.9772 44.5000
L194.9772 49.5000
" />
<path d="M194.9772 44.5000
L185.0272 44.5000
" />
<path d="M194.9772 49.5000
L185.0272 49.5000
" />
<path d="M192.2522 46.0000
L192.2522 46.5000
" />
<path d="M192.2522 46.5000
L191.7522 46.5000
" />
<path d="M191.7522 46.0000
L192.2522 46.0000
" />
<path d="M191.7522 46.5000
L191.7522 46.0000
" />
<path d="M190.2522 46.0000
L190.2522 46.5000
" />
<path d="M190.2522 46.5000
L189.7522 46.5000
" />
<path d="M189.7522 46.0000
L190.2522 46.0000
" />
<path d="M189.7522 46.5000
L189.7522 46.0000
" />
<path d="M188.5022 49.5000
L188.0022 48.7929
" />
<path d="M188.2522 46.0000
L188.2522 46.5000
" />
<path d="M188.2522 46.5000
L187.7522 46.5000
" />
<path d="M188.0022 48.7929
L187.5022 49.5000
" />
<path d="M187.7522 46.0000
L188.2522 46.0000
" />
<path d="M187.7522 46.5000
L187.7522 46.0000
" />
<path d="M185.0272 44.5000
L185.0272 49.5000
" />
<path d="M194.9772 53.0000
L194.9772 58.0000
" />
<path d="M194.9772 53.0000
L185.0272 53.0000
" />
<path d="M194.9772 58.0000
L185.0272 58.0000
" />
<path d="M192.2522 54.5000
L192.2522 55.0000
" />
<path d="M192.2522 55.0000
L191.7522 55.0000
" />
<path d="M191.7522 54.5000
L192.2522 54.5000
" />
<path d="M191.7522 55.0000
L191.7522 54.5000
" />
<path d="M190.2522 54.5000
L190.2522 55.0000
" />
<path d="M190.2522 55.0000
L189.7522 55.0000
" />
<path d="M189.7522 54.5000
L190.2522 54.5000
" />
<path d="M189.7522 55.0000
L189.7522 54.5000
" />
<path d="M188.5022 58.0000
L188.0022 57.2929
" />
<path d="M188.2522 54.5000
L188.2522 55.0000
" />
<path d="M188.2522 55.0000
L187.7522 55.0000
" />
<path d="M188.0022 57.2929
L187.5022 58.0000
" />
<path d="M187.7522 54.5000
L188.2522 54.5000
" />
<path d="M187.7522 55.0000
L187.7522 54.5000
" />
<path d="M185.0272 53.0000
L185.0272 58.0000
" />
</g> 
</svg>
