M48
; DRILL file {KiCad 8.0.4+1} date 2024-10-15T14:09:33+0000
; FORMAT={-:-/ absolute / metric / decimal}
; #@! TF.CreationDate,2024-10-15T14:09:33+00:00
; #@! TF.GenerationSoftware,Kicad,Pcbnew,8.0.4+1
; #@! TF.FileFunction,MixedPlating,1,2
FMAT,2
METRIC
; #@! TA.AperFunction,Plated,PTH,ViaDrill
T1C0.400
; #@! TA.AperFunction,NonPlated,NPTH,ComponentDrill
T2C1.700
; #@! TA.AperFunction,NonPlated,NPTH,ComponentDrill
T3C2.500
%
G90
G05
T1
X2.072Y62.804
X2.072Y10.804
X2.804Y67.928
X2.804Y15.928
X4.0Y58.0
X5.2Y5.573
X6.0Y72.0
X6.0Y20.0
X8.072Y54.804
X8.072Y2.804
X10.804Y73.928
X10.804Y21.928
X12.5Y71.5
X12.5Y19.4
X13.196Y54.072
X13.196Y2.072
X14.0Y3.6
X14.4Y72.3
X14.4Y20.3
X15.928Y73.196
X15.928Y21.196
X18.0Y56.06
X18.0Y4.06
X20.0Y70.0
X20.0Y18.0
X21.42Y60.31
X21.42Y8.31
X21.95Y65.46
X21.95Y13.46
X40.072Y95.804
X40.804Y100.928
X42.0Y91.0
X44.0Y105.0
X45.0Y60.0
X45.6Y58.7
X46.072Y87.804
X46.3Y60.0
X48.804Y106.928
X50.5Y104.5
X51.196Y87.072
X52.4Y105.3
X53.928Y106.196
X56.0Y89.06
X58.0Y103.0
X59.42Y93.31
X59.95Y98.46
X74.1Y82.0
X77.072Y62.804
X77.072Y10.804
X77.804Y67.928
X77.804Y15.928
X79.0Y58.0
X79.0Y6.0
X81.0Y72.0
X81.0Y20.0
X83.072Y54.804
X83.072Y2.804
X85.804Y73.928
X85.804Y21.928
X87.5Y71.5
X87.5Y19.5
X88.196Y54.072
X88.196Y2.072
X88.98Y89.56
X88.99Y83.98
X89.0Y86.75
X89.0Y78.25
X89.02Y75.48
X89.03Y81.04
X89.4Y72.3
X89.4Y20.3
X90.928Y73.196
X90.928Y21.196
X93.0Y56.06
X93.0Y4.06
X95.0Y70.0
X95.0Y18.0
X96.3Y60.0
X96.42Y8.31
X96.95Y65.46
X96.95Y13.46
X96.95Y63.677
X97.562Y62.343
X99.1Y82.1
X100.2Y82.122
X115.072Y95.804
X115.804Y100.928
X117.0Y91.0
X118.5Y63.035
X119.0Y105.0
X119.373Y63.48
X120.0Y60.0
X120.7Y58.6
X121.0Y70.5
X121.0Y67.5
X121.0Y64.5
X121.072Y87.804
X121.3Y60.0
X123.804Y106.928
X124.5Y63.25
X124.504Y62.257
X125.5Y104.3
X126.196Y87.072
X127.4Y105.3
X128.928Y106.196
X131.0Y89.06
X133.0Y103.0
X134.42Y93.31
X134.48Y98.98
X135.46Y98.0
X152.072Y62.804
X152.072Y10.804
X152.804Y67.928
X152.804Y15.928
X153.7Y66.4
X154.0Y58.0
X154.0Y6.0
X156.0Y72.0
X156.0Y20.0
X158.072Y54.804
X158.072Y2.804
X160.804Y73.928
X160.804Y21.928
X162.5Y71.4
X162.5Y19.2
X163.196Y54.072
X163.196Y2.072
X163.9Y74.3
X164.4Y72.3
X164.4Y20.3
X165.928Y73.196
X165.928Y21.196
X168.0Y56.06
X168.0Y4.06
X170.0Y70.0
X170.0Y18.0
X171.42Y60.31
X171.42Y8.31
X171.95Y65.46
X171.95Y13.46
X172.2Y66.87
T2
X34.5Y60.8
X34.5Y8.8
X64.5Y60.8
X64.5Y8.8
X109.5Y60.8
X109.5Y8.8
X139.5Y60.8
X139.5Y8.8
T3
X7.0Y108.0
X24.0Y3.0
X87.0Y33.0
X150.0Y3.0
X167.0Y108.0
M30
