G04 #@! TF.GenerationSoftware,KiCad,Pcbnew,8.0.4+1*
G04 #@! TF.CreationDate,2024-10-16T16:58:30+00:00*
G04 #@! TF.ProjectId,pedalboard-display,70656461-6c62-46f6-9172-642d64697370,1.0.0*
G04 #@! TF.SameCoordinates,Original*
G04 #@! TF.FileFunction,Soldermask,Bot*
G04 #@! TF.FilePolarity,Negative*
%FSLAX46Y46*%
G04 Gerber Fmt 4.6, Leading zero omitted, Abs format (unit mm)*
G04 Created by KiCad (PCBNEW 8.0.4+1) date 2024-10-16 16:58:30*
%MOMM*%
%LPD*%
G01*
G04 APERTURE LIST*
%ADD10C,2.500000*%
%ADD11C,3.400000*%
%ADD12R,1.700000X3.600000*%
%ADD13O,1.700000X3.500000*%
G04 APERTURE END LIST*
D10*
X150000000Y3000000D03*
X167000000Y108000000D03*
D11*
X34500000Y60800000D03*
X34500000Y8800000D03*
X64500000Y60800000D03*
X64500000Y8800000D03*
D12*
X53288000Y60127200D03*
D13*
X50748000Y60127200D03*
X48208000Y60127200D03*
X45668000Y60127200D03*
D10*
X24000000Y3000000D03*
X87000000Y33000000D03*
X7000000Y108000000D03*
D11*
X109500000Y60800000D03*
X109500000Y8800000D03*
X139500000Y60800000D03*
X139500000Y8800000D03*
D12*
X128288000Y60127200D03*
D13*
X125748000Y60127200D03*
X123208000Y60127200D03*
X120668000Y60127200D03*
G36*
G01*
X116200000Y58662500D02*
X115300000Y58662500D01*
G75*
G02*
X115050000Y58912500I0J250000D01*
G01*
X115050000Y59437500D01*
G75*
G02*
X115300000Y59687500I250000J0D01*
G01*
X116200000Y59687500D01*
G75*
G02*
X116450000Y59437500I0J-250000D01*
G01*
X116450000Y58912500D01*
G75*
G02*
X116200000Y58662500I-250000J0D01*
G01*
G37*
G36*
G01*
X116200000Y60487500D02*
X115300000Y60487500D01*
G75*
G02*
X115050000Y60737500I0J250000D01*
G01*
X115050000Y61262500D01*
G75*
G02*
X115300000Y61512500I250000J0D01*
G01*
X116200000Y61512500D01*
G75*
G02*
X116450000Y61262500I0J-250000D01*
G01*
X116450000Y60737500D01*
G75*
G02*
X116200000Y60487500I-250000J0D01*
G01*
G37*
G36*
G01*
X118200000Y58662500D02*
X117300000Y58662500D01*
G75*
G02*
X117050000Y58912500I0J250000D01*
G01*
X117050000Y59437500D01*
G75*
G02*
X117300000Y59687500I250000J0D01*
G01*
X118200000Y59687500D01*
G75*
G02*
X118450000Y59437500I0J-250000D01*
G01*
X118450000Y58912500D01*
G75*
G02*
X118200000Y58662500I-250000J0D01*
G01*
G37*
G36*
G01*
X118200000Y60487500D02*
X117300000Y60487500D01*
G75*
G02*
X117050000Y60737500I0J250000D01*
G01*
X117050000Y61262500D01*
G75*
G02*
X117300000Y61512500I250000J0D01*
G01*
X118200000Y61512500D01*
G75*
G02*
X118450000Y61262500I0J-250000D01*
G01*
X118450000Y60737500D01*
G75*
G02*
X118200000Y60487500I-250000J0D01*
G01*
G37*
G36*
G01*
X127500000Y70000000D02*
X127500000Y65000000D01*
G75*
G02*
X127250000Y64750000I-250000J0D01*
G01*
X126750000Y64750000D01*
G75*
G02*
X126500000Y65000000I0J250000D01*
G01*
X126500000Y70000000D01*
G75*
G02*
X126750000Y70250000I250000J0D01*
G01*
X127250000Y70250000D01*
G75*
G02*
X127500000Y70000000I0J-250000D01*
G01*
G37*
G36*
G01*
X125500000Y70000000D02*
X125500000Y65000000D01*
G75*
G02*
X125250000Y64750000I-250000J0D01*
G01*
X124750000Y64750000D01*
G75*
G02*
X124500000Y65000000I0J250000D01*
G01*
X124500000Y70000000D01*
G75*
G02*
X124750000Y70250000I250000J0D01*
G01*
X125250000Y70250000D01*
G75*
G02*
X125500000Y70000000I0J-250000D01*
G01*
G37*
G36*
G01*
X123500000Y70000000D02*
X123500000Y65000000D01*
G75*
G02*
X123250000Y64750000I-250000J0D01*
G01*
X122750000Y64750000D01*
G75*
G02*
X122500000Y65000000I0J250000D01*
G01*
X122500000Y70000000D01*
G75*
G02*
X122750000Y70250000I250000J0D01*
G01*
X123250000Y70250000D01*
G75*
G02*
X123500000Y70000000I0J-250000D01*
G01*
G37*
G36*
G01*
X121500000Y70000000D02*
X121500000Y65000000D01*
G75*
G02*
X121250000Y64750000I-250000J0D01*
G01*
X120750000Y64750000D01*
G75*
G02*
X120500000Y65000000I0J250000D01*
G01*
X120500000Y70000000D01*
G75*
G02*
X120750000Y70250000I250000J0D01*
G01*
X121250000Y70250000D01*
G75*
G02*
X121500000Y70000000I0J-250000D01*
G01*
G37*
G36*
G01*
X130200000Y71000000D02*
X130200000Y68500000D01*
G75*
G02*
X129950000Y68250000I-250000J0D01*
G01*
X128850000Y68250000D01*
G75*
G02*
X128600000Y68500000I0J250000D01*
G01*
X128600000Y71000000D01*
G75*
G02*
X128850000Y71250000I250000J0D01*
G01*
X129950000Y71250000D01*
G75*
G02*
X130200000Y71000000I0J-250000D01*
G01*
G37*
G36*
G01*
X119400000Y71000000D02*
X119400000Y68500000D01*
G75*
G02*
X119150000Y68250000I-250000J0D01*
G01*
X118050000Y68250000D01*
G75*
G02*
X117800000Y68500000I0J250000D01*
G01*
X117800000Y71000000D01*
G75*
G02*
X118050000Y71250000I250000J0D01*
G01*
X119150000Y71250000D01*
G75*
G02*
X119400000Y71000000I0J-250000D01*
G01*
G37*
G36*
G01*
X89500000Y89250000D02*
X89500000Y84250000D01*
G75*
G02*
X89250000Y84000000I-250000J0D01*
G01*
X88750000Y84000000D01*
G75*
G02*
X88500000Y84250000I0J250000D01*
G01*
X88500000Y89250000D01*
G75*
G02*
X88750000Y89500000I250000J0D01*
G01*
X89250000Y89500000D01*
G75*
G02*
X89500000Y89250000I0J-250000D01*
G01*
G37*
G36*
G01*
X87500000Y89250000D02*
X87500000Y84250000D01*
G75*
G02*
X87250000Y84000000I-250000J0D01*
G01*
X86750000Y84000000D01*
G75*
G02*
X86500000Y84250000I0J250000D01*
G01*
X86500000Y89250000D01*
G75*
G02*
X86750000Y89500000I250000J0D01*
G01*
X87250000Y89500000D01*
G75*
G02*
X87500000Y89250000I0J-250000D01*
G01*
G37*
G36*
G01*
X85500000Y89250000D02*
X85500000Y84250000D01*
G75*
G02*
X85250000Y84000000I-250000J0D01*
G01*
X84750000Y84000000D01*
G75*
G02*
X84500000Y84250000I0J250000D01*
G01*
X84500000Y89250000D01*
G75*
G02*
X84750000Y89500000I250000J0D01*
G01*
X85250000Y89500000D01*
G75*
G02*
X85500000Y89250000I0J-250000D01*
G01*
G37*
G36*
G01*
X92200000Y90250000D02*
X92200000Y87750000D01*
G75*
G02*
X91950000Y87500000I-250000J0D01*
G01*
X90850000Y87500000D01*
G75*
G02*
X90600000Y87750000I0J250000D01*
G01*
X90600000Y90250000D01*
G75*
G02*
X90850000Y90500000I250000J0D01*
G01*
X91950000Y90500000D01*
G75*
G02*
X92200000Y90250000I0J-250000D01*
G01*
G37*
G36*
G01*
X83400000Y90250000D02*
X83400000Y87750000D01*
G75*
G02*
X83150000Y87500000I-250000J0D01*
G01*
X82050000Y87500000D01*
G75*
G02*
X81800000Y87750000I0J250000D01*
G01*
X81800000Y90250000D01*
G75*
G02*
X82050000Y90500000I250000J0D01*
G01*
X83150000Y90500000D01*
G75*
G02*
X83400000Y90250000I0J-250000D01*
G01*
G37*
G36*
G01*
X89500000Y80750000D02*
X89500000Y75750000D01*
G75*
G02*
X89250000Y75500000I-250000J0D01*
G01*
X88750000Y75500000D01*
G75*
G02*
X88500000Y75750000I0J250000D01*
G01*
X88500000Y80750000D01*
G75*
G02*
X88750000Y81000000I250000J0D01*
G01*
X89250000Y81000000D01*
G75*
G02*
X89500000Y80750000I0J-250000D01*
G01*
G37*
G36*
G01*
X87500000Y80750000D02*
X87500000Y75750000D01*
G75*
G02*
X87250000Y75500000I-250000J0D01*
G01*
X86750000Y75500000D01*
G75*
G02*
X86500000Y75750000I0J250000D01*
G01*
X86500000Y80750000D01*
G75*
G02*
X86750000Y81000000I250000J0D01*
G01*
X87250000Y81000000D01*
G75*
G02*
X87500000Y80750000I0J-250000D01*
G01*
G37*
G36*
G01*
X85500000Y80750000D02*
X85500000Y75750000D01*
G75*
G02*
X85250000Y75500000I-250000J0D01*
G01*
X84750000Y75500000D01*
G75*
G02*
X84500000Y75750000I0J250000D01*
G01*
X84500000Y80750000D01*
G75*
G02*
X84750000Y81000000I250000J0D01*
G01*
X85250000Y81000000D01*
G75*
G02*
X85500000Y80750000I0J-250000D01*
G01*
G37*
G36*
G01*
X92200000Y81750000D02*
X92200000Y79250000D01*
G75*
G02*
X91950000Y79000000I-250000J0D01*
G01*
X90850000Y79000000D01*
G75*
G02*
X90600000Y79250000I0J250000D01*
G01*
X90600000Y81750000D01*
G75*
G02*
X90850000Y82000000I250000J0D01*
G01*
X91950000Y82000000D01*
G75*
G02*
X92200000Y81750000I0J-250000D01*
G01*
G37*
G36*
G01*
X83400000Y81750000D02*
X83400000Y79250000D01*
G75*
G02*
X83150000Y79000000I-250000J0D01*
G01*
X82050000Y79000000D01*
G75*
G02*
X81800000Y79250000I0J250000D01*
G01*
X81800000Y81750000D01*
G75*
G02*
X82050000Y82000000I250000J0D01*
G01*
X83150000Y82000000D01*
G75*
G02*
X83400000Y81750000I0J-250000D01*
G01*
G37*
M02*
