G04 #@! TF.GenerationSoftware,KiCad,Pcbnew,8.0.4+1*
G04 #@! TF.CreationDate,2024-10-08T20:46:47+00:00*
G04 #@! TF.ProjectId,pedalboard-display,70656461-6c62-46f6-9172-642d64697370,0.0.0-RC1*
G04 #@! TF.SameCoordinates,Original*
G04 #@! TF.FileFunction,Profile,NP*
%FSLAX46Y46*%
G04 Gerber Fmt 4.6, Leading zero omitted, Abs format (unit mm)*
G04 Created by KiCad (PCBNEW 8.0.4+1) date 2024-10-08 20:46:47*
%MOMM*%
%LPD*%
G01*
G04 APERTURE LIST*
G04 #@! TA.AperFunction,Profile*
%ADD10C,0.100000*%
G04 #@! TD*
G04 #@! TA.AperFunction,Profile*
%ADD11C,0.050000*%
G04 #@! TD*
G04 APERTURE END LIST*
D10*
X5000000Y0D02*
X92000000Y0D01*
X168100000Y12000000D02*
G75*
G02*
X155900000Y12000000I-6100000J0D01*
G01*
X155900000Y12000000D02*
G75*
G02*
X168100000Y12000000I6100000J0D01*
G01*
X4000000Y110000000D02*
G75*
G02*
X5000000Y111000000I1000000J0D01*
G01*
X0Y104000000D02*
G75*
G02*
X1000000Y105000000I1000000J0D01*
G01*
X104200000Y111000000D02*
X169000000Y111000000D01*
X4000000Y3000000D02*
X4000000Y1000000D01*
X170000000Y110000000D02*
X170000000Y108000000D01*
X173000000Y105000000D02*
G75*
G02*
X174000000Y104000000I0J-1000000D01*
G01*
X1000000Y6000000D02*
G75*
G02*
X0Y7000000I0J1000000D01*
G01*
X92000000Y111000000D02*
G75*
G02*
X82000000Y111000000I-5000000J0D01*
G01*
X92000000Y0D02*
X169000000Y0D01*
X131100000Y97000000D02*
G75*
G02*
X118900000Y97000000I-6100000J0D01*
G01*
X118900000Y97000000D02*
G75*
G02*
X131100000Y97000000I6100000J0D01*
G01*
X4000000Y108000000D02*
G75*
G02*
X1000000Y105000000I-3000000J0D01*
G01*
X74200000Y111000000D02*
X82000000Y111000000D01*
X56100000Y97000000D02*
G75*
G02*
X43900000Y97000000I-6100000J0D01*
G01*
X43900000Y97000000D02*
G75*
G02*
X56100000Y97000000I6100000J0D01*
G01*
X168100000Y64000000D02*
G75*
G02*
X155900000Y64000000I-6100000J0D01*
G01*
X155900000Y64000000D02*
G75*
G02*
X168100000Y64000000I6100000J0D01*
G01*
X18100000Y12000000D02*
G75*
G02*
X5900000Y12000000I-6100000J0D01*
G01*
X5900000Y12000000D02*
G75*
G02*
X18100000Y12000000I6100000J0D01*
G01*
X93100000Y64000000D02*
G75*
G02*
X80900000Y64000000I-6100000J0D01*
G01*
X80900000Y64000000D02*
G75*
G02*
X93100000Y64000000I6100000J0D01*
G01*
X174000000Y104000000D02*
X174000000Y7000000D01*
X170000000Y1000000D02*
G75*
G02*
X169000000Y0I-1000000J0D01*
G01*
X18100000Y64000000D02*
G75*
G02*
X5900000Y64000000I-6100000J0D01*
G01*
X5900000Y64000000D02*
G75*
G02*
X18100000Y64000000I6100000J0D01*
G01*
X92000000Y111000000D02*
X104200000Y111000000D01*
X5000000Y0D02*
G75*
G02*
X4000000Y1000000I0J1000000D01*
G01*
X174000000Y7000000D02*
G75*
G02*
X173000000Y6000000I-1000000J0D01*
G01*
X169000000Y111000000D02*
G75*
G02*
X170000000Y110000000I0J-1000000D01*
G01*
X173000000Y105000000D02*
G75*
G02*
X170000000Y108000000I0J3000000D01*
G01*
X0Y7000000D02*
X0Y104000000D01*
X74200000Y111000000D02*
X5000000Y111000000D01*
X170000000Y3000000D02*
X170000000Y1000000D01*
X170000000Y3000000D02*
G75*
G02*
X173000000Y6000000I3000000J0D01*
G01*
X4000000Y110000000D02*
X4000000Y108000000D01*
X93100000Y12000000D02*
G75*
G02*
X80900000Y12000000I-6100000J0D01*
G01*
X80900000Y12000000D02*
G75*
G02*
X93100000Y12000000I6100000J0D01*
G01*
X1000000Y6000000D02*
G75*
G02*
X4000000Y3000000I0J-3000000D01*
G01*
D11*
X32200000Y57800000D02*
X66800000Y57800000D01*
X66800000Y11800000D01*
X32200000Y11800000D01*
X32200000Y57800000D01*
X107200000Y57800000D02*
X141800000Y57800000D01*
X141800000Y11800000D01*
X107200000Y11800000D01*
X107200000Y57800000D01*
M02*
