G04 #@! TF.GenerationSoftware,KiCad,Pcbnew,8.0.4+1*
G04 #@! TF.CreationDate,2024-10-06T15:40:00+00:00*
G04 #@! TF.ProjectId,pedalboard-display,70656461-6c62-46f6-9172-642d64697370,0.0.0-RC1*
G04 #@! TF.SameCoordinates,Original*
G04 #@! TF.FileFunction,Legend,Bot*
G04 #@! TF.FilePolarity,Positive*
%FSLAX46Y46*%
G04 Gerber Fmt 4.6, Leading zero omitted, Abs format (unit mm)*
G04 Created by KiCad (PCBNEW 8.0.4+1) date 2024-10-06 15:40:00*
%MOMM*%
%LPD*%
G01*
G04 APERTURE LIST*
%ADD10C,0.100000*%
%ADD11C,0.150000*%
%ADD12C,0.120000*%
G04 APERTURE END LIST*
D10*
X169050000Y12000000D02*
G75*
G02*
X154950000Y12000000I-7050000J0D01*
G01*
X154950000Y12000000D02*
G75*
G02*
X169050000Y12000000I7050000J0D01*
G01*
X169050000Y64000000D02*
G75*
G02*
X154950000Y64000000I-7050000J0D01*
G01*
X154950000Y64000000D02*
G75*
G02*
X169050000Y64000000I7050000J0D01*
G01*
X132050000Y97000000D02*
G75*
G02*
X117950000Y97000000I-7050000J0D01*
G01*
X117950000Y97000000D02*
G75*
G02*
X132050000Y97000000I7050000J0D01*
G01*
X57050000Y97000000D02*
G75*
G02*
X42950000Y97000000I-7050000J0D01*
G01*
X42950000Y97000000D02*
G75*
G02*
X57050000Y97000000I7050000J0D01*
G01*
X19050000Y12000000D02*
G75*
G02*
X4950000Y12000000I-7050000J0D01*
G01*
X4950000Y12000000D02*
G75*
G02*
X19050000Y12000000I7050000J0D01*
G01*
X19050000Y64000000D02*
G75*
G02*
X4950000Y64000000I-7050000J0D01*
G01*
X4950000Y64000000D02*
G75*
G02*
X19050000Y64000000I7050000J0D01*
G01*
D11*
X94000000Y12000000D02*
G75*
G02*
X80000000Y12000000I-7000000J0D01*
G01*
X80000000Y12000000D02*
G75*
G02*
X94000000Y12000000I7000000J0D01*
G01*
D10*
X94050000Y64000000D02*
G75*
G02*
X79950000Y64000000I-7050000J0D01*
G01*
X79950000Y64000000D02*
G75*
G02*
X94050000Y64000000I7050000J0D01*
G01*
X17416664Y79344789D02*
X17416664Y80044789D01*
X17416664Y80044789D02*
X17149997Y80044789D01*
X17149997Y80044789D02*
X17083331Y80011456D01*
X17083331Y80011456D02*
X17049997Y79978122D01*
X17049997Y79978122D02*
X17016664Y79911456D01*
X17016664Y79911456D02*
X17016664Y79811456D01*
X17016664Y79811456D02*
X17049997Y79744789D01*
X17049997Y79744789D02*
X17083331Y79711456D01*
X17083331Y79711456D02*
X17149997Y79678122D01*
X17149997Y79678122D02*
X17416664Y79678122D01*
X16449997Y79378122D02*
X16516664Y79344789D01*
X16516664Y79344789D02*
X16649997Y79344789D01*
X16649997Y79344789D02*
X16716664Y79378122D01*
X16716664Y79378122D02*
X16749997Y79444789D01*
X16749997Y79444789D02*
X16749997Y79711456D01*
X16749997Y79711456D02*
X16716664Y79778122D01*
X16716664Y79778122D02*
X16649997Y79811456D01*
X16649997Y79811456D02*
X16516664Y79811456D01*
X16516664Y79811456D02*
X16449997Y79778122D01*
X16449997Y79778122D02*
X16416664Y79711456D01*
X16416664Y79711456D02*
X16416664Y79644789D01*
X16416664Y79644789D02*
X16749997Y79578122D01*
X15816664Y79344789D02*
X15816664Y80044789D01*
X15816664Y79378122D02*
X15883331Y79344789D01*
X15883331Y79344789D02*
X16016664Y79344789D01*
X16016664Y79344789D02*
X16083331Y79378122D01*
X16083331Y79378122D02*
X16116664Y79411456D01*
X16116664Y79411456D02*
X16149997Y79478122D01*
X16149997Y79478122D02*
X16149997Y79678122D01*
X16149997Y79678122D02*
X16116664Y79744789D01*
X16116664Y79744789D02*
X16083331Y79778122D01*
X16083331Y79778122D02*
X16016664Y79811456D01*
X16016664Y79811456D02*
X15883331Y79811456D01*
X15883331Y79811456D02*
X15816664Y79778122D01*
X15183331Y79344789D02*
X15183331Y79711456D01*
X15183331Y79711456D02*
X15216664Y79778122D01*
X15216664Y79778122D02*
X15283331Y79811456D01*
X15283331Y79811456D02*
X15416664Y79811456D01*
X15416664Y79811456D02*
X15483331Y79778122D01*
X15183331Y79378122D02*
X15249998Y79344789D01*
X15249998Y79344789D02*
X15416664Y79344789D01*
X15416664Y79344789D02*
X15483331Y79378122D01*
X15483331Y79378122D02*
X15516664Y79444789D01*
X15516664Y79444789D02*
X15516664Y79511456D01*
X15516664Y79511456D02*
X15483331Y79578122D01*
X15483331Y79578122D02*
X15416664Y79611456D01*
X15416664Y79611456D02*
X15249998Y79611456D01*
X15249998Y79611456D02*
X15183331Y79644789D01*
X14749998Y79344789D02*
X14816665Y79378122D01*
X14816665Y79378122D02*
X14849998Y79444789D01*
X14849998Y79444789D02*
X14849998Y80044789D01*
X14483331Y79344789D02*
X14483331Y80044789D01*
X14483331Y79778122D02*
X14416664Y79811456D01*
X14416664Y79811456D02*
X14283331Y79811456D01*
X14283331Y79811456D02*
X14216664Y79778122D01*
X14216664Y79778122D02*
X14183331Y79744789D01*
X14183331Y79744789D02*
X14149998Y79678122D01*
X14149998Y79678122D02*
X14149998Y79478122D01*
X14149998Y79478122D02*
X14183331Y79411456D01*
X14183331Y79411456D02*
X14216664Y79378122D01*
X14216664Y79378122D02*
X14283331Y79344789D01*
X14283331Y79344789D02*
X14416664Y79344789D01*
X14416664Y79344789D02*
X14483331Y79378122D01*
X13749998Y79344789D02*
X13816665Y79378122D01*
X13816665Y79378122D02*
X13849998Y79411456D01*
X13849998Y79411456D02*
X13883331Y79478122D01*
X13883331Y79478122D02*
X13883331Y79678122D01*
X13883331Y79678122D02*
X13849998Y79744789D01*
X13849998Y79744789D02*
X13816665Y79778122D01*
X13816665Y79778122D02*
X13749998Y79811456D01*
X13749998Y79811456D02*
X13649998Y79811456D01*
X13649998Y79811456D02*
X13583331Y79778122D01*
X13583331Y79778122D02*
X13549998Y79744789D01*
X13549998Y79744789D02*
X13516665Y79678122D01*
X13516665Y79678122D02*
X13516665Y79478122D01*
X13516665Y79478122D02*
X13549998Y79411456D01*
X13549998Y79411456D02*
X13583331Y79378122D01*
X13583331Y79378122D02*
X13649998Y79344789D01*
X13649998Y79344789D02*
X13749998Y79344789D01*
X12916665Y79344789D02*
X12916665Y79711456D01*
X12916665Y79711456D02*
X12949998Y79778122D01*
X12949998Y79778122D02*
X13016665Y79811456D01*
X13016665Y79811456D02*
X13149998Y79811456D01*
X13149998Y79811456D02*
X13216665Y79778122D01*
X12916665Y79378122D02*
X12983332Y79344789D01*
X12983332Y79344789D02*
X13149998Y79344789D01*
X13149998Y79344789D02*
X13216665Y79378122D01*
X13216665Y79378122D02*
X13249998Y79444789D01*
X13249998Y79444789D02*
X13249998Y79511456D01*
X13249998Y79511456D02*
X13216665Y79578122D01*
X13216665Y79578122D02*
X13149998Y79611456D01*
X13149998Y79611456D02*
X12983332Y79611456D01*
X12983332Y79611456D02*
X12916665Y79644789D01*
X12583332Y79344789D02*
X12583332Y79811456D01*
X12583332Y79678122D02*
X12549999Y79744789D01*
X12549999Y79744789D02*
X12516665Y79778122D01*
X12516665Y79778122D02*
X12449999Y79811456D01*
X12449999Y79811456D02*
X12383332Y79811456D01*
X11849999Y79344789D02*
X11849999Y80044789D01*
X11849999Y79378122D02*
X11916666Y79344789D01*
X11916666Y79344789D02*
X12049999Y79344789D01*
X12049999Y79344789D02*
X12116666Y79378122D01*
X12116666Y79378122D02*
X12149999Y79411456D01*
X12149999Y79411456D02*
X12183332Y79478122D01*
X12183332Y79478122D02*
X12183332Y79678122D01*
X12183332Y79678122D02*
X12149999Y79744789D01*
X12149999Y79744789D02*
X12116666Y79778122D01*
X12116666Y79778122D02*
X12049999Y79811456D01*
X12049999Y79811456D02*
X11916666Y79811456D01*
X11916666Y79811456D02*
X11849999Y79778122D01*
X10650000Y79344789D02*
X10983333Y79344789D01*
X10983333Y79344789D02*
X10983333Y80044789D01*
X10416666Y79711456D02*
X10183333Y79711456D01*
X10083333Y79344789D02*
X10416666Y79344789D01*
X10416666Y79344789D02*
X10416666Y80044789D01*
X10416666Y80044789D02*
X10083333Y80044789D01*
X9783333Y79344789D02*
X9783333Y80044789D01*
X9783333Y80044789D02*
X9616666Y80044789D01*
X9616666Y80044789D02*
X9516666Y80011456D01*
X9516666Y80011456D02*
X9450000Y79944789D01*
X9450000Y79944789D02*
X9416666Y79878122D01*
X9416666Y79878122D02*
X9383333Y79744789D01*
X9383333Y79744789D02*
X9383333Y79644789D01*
X9383333Y79644789D02*
X9416666Y79511456D01*
X9416666Y79511456D02*
X9450000Y79444789D01*
X9450000Y79444789D02*
X9516666Y79378122D01*
X9516666Y79378122D02*
X9616666Y79344789D01*
X9616666Y79344789D02*
X9783333Y79344789D01*
X8150000Y79344789D02*
X8383333Y79678122D01*
X8550000Y79344789D02*
X8550000Y80044789D01*
X8550000Y80044789D02*
X8283333Y80044789D01*
X8283333Y80044789D02*
X8216667Y80011456D01*
X8216667Y80011456D02*
X8183333Y79978122D01*
X8183333Y79978122D02*
X8150000Y79911456D01*
X8150000Y79911456D02*
X8150000Y79811456D01*
X8150000Y79811456D02*
X8183333Y79744789D01*
X8183333Y79744789D02*
X8216667Y79711456D01*
X8216667Y79711456D02*
X8283333Y79678122D01*
X8283333Y79678122D02*
X8550000Y79678122D01*
X7850000Y79344789D02*
X7850000Y79811456D01*
X7850000Y80044789D02*
X7883333Y80011456D01*
X7883333Y80011456D02*
X7850000Y79978122D01*
X7850000Y79978122D02*
X7816667Y80011456D01*
X7816667Y80011456D02*
X7850000Y80044789D01*
X7850000Y80044789D02*
X7850000Y79978122D01*
X7516667Y79811456D02*
X7516667Y79344789D01*
X7516667Y79744789D02*
X7483334Y79778122D01*
X7483334Y79778122D02*
X7416667Y79811456D01*
X7416667Y79811456D02*
X7316667Y79811456D01*
X7316667Y79811456D02*
X7250000Y79778122D01*
X7250000Y79778122D02*
X7216667Y79711456D01*
X7216667Y79711456D02*
X7216667Y79344789D01*
X6583334Y79811456D02*
X6583334Y79244789D01*
X6583334Y79244789D02*
X6616667Y79178122D01*
X6616667Y79178122D02*
X6650001Y79144789D01*
X6650001Y79144789D02*
X6716667Y79111456D01*
X6716667Y79111456D02*
X6816667Y79111456D01*
X6816667Y79111456D02*
X6883334Y79144789D01*
X6583334Y79378122D02*
X6650001Y79344789D01*
X6650001Y79344789D02*
X6783334Y79344789D01*
X6783334Y79344789D02*
X6850001Y79378122D01*
X6850001Y79378122D02*
X6883334Y79411456D01*
X6883334Y79411456D02*
X6916667Y79478122D01*
X6916667Y79478122D02*
X6916667Y79678122D01*
X6916667Y79678122D02*
X6883334Y79744789D01*
X6883334Y79744789D02*
X6850001Y79778122D01*
X6850001Y79778122D02*
X6783334Y79811456D01*
X6783334Y79811456D02*
X6650001Y79811456D01*
X6650001Y79811456D02*
X6583334Y79778122D01*
X20216663Y78217828D02*
X20216663Y78917828D01*
X19916663Y78217828D02*
X19916663Y78584495D01*
X19916663Y78584495D02*
X19949996Y78651161D01*
X19949996Y78651161D02*
X20016663Y78684495D01*
X20016663Y78684495D02*
X20116663Y78684495D01*
X20116663Y78684495D02*
X20183330Y78651161D01*
X20183330Y78651161D02*
X20216663Y78617828D01*
X19683330Y78684495D02*
X19416663Y78684495D01*
X19583330Y78917828D02*
X19583330Y78317828D01*
X19583330Y78317828D02*
X19549997Y78251161D01*
X19549997Y78251161D02*
X19483330Y78217828D01*
X19483330Y78217828D02*
X19416663Y78217828D01*
X19283330Y78684495D02*
X19016663Y78684495D01*
X19183330Y78917828D02*
X19183330Y78317828D01*
X19183330Y78317828D02*
X19149997Y78251161D01*
X19149997Y78251161D02*
X19083330Y78217828D01*
X19083330Y78217828D02*
X19016663Y78217828D01*
X18783330Y78684495D02*
X18783330Y77984495D01*
X18783330Y78651161D02*
X18716663Y78684495D01*
X18716663Y78684495D02*
X18583330Y78684495D01*
X18583330Y78684495D02*
X18516663Y78651161D01*
X18516663Y78651161D02*
X18483330Y78617828D01*
X18483330Y78617828D02*
X18449997Y78551161D01*
X18449997Y78551161D02*
X18449997Y78351161D01*
X18449997Y78351161D02*
X18483330Y78284495D01*
X18483330Y78284495D02*
X18516663Y78251161D01*
X18516663Y78251161D02*
X18583330Y78217828D01*
X18583330Y78217828D02*
X18716663Y78217828D01*
X18716663Y78217828D02*
X18783330Y78251161D01*
X18183330Y78251161D02*
X18116664Y78217828D01*
X18116664Y78217828D02*
X17983330Y78217828D01*
X17983330Y78217828D02*
X17916664Y78251161D01*
X17916664Y78251161D02*
X17883330Y78317828D01*
X17883330Y78317828D02*
X17883330Y78351161D01*
X17883330Y78351161D02*
X17916664Y78417828D01*
X17916664Y78417828D02*
X17983330Y78451161D01*
X17983330Y78451161D02*
X18083330Y78451161D01*
X18083330Y78451161D02*
X18149997Y78484495D01*
X18149997Y78484495D02*
X18183330Y78551161D01*
X18183330Y78551161D02*
X18183330Y78584495D01*
X18183330Y78584495D02*
X18149997Y78651161D01*
X18149997Y78651161D02*
X18083330Y78684495D01*
X18083330Y78684495D02*
X17983330Y78684495D01*
X17983330Y78684495D02*
X17916664Y78651161D01*
X17583330Y78284495D02*
X17549997Y78251161D01*
X17549997Y78251161D02*
X17583330Y78217828D01*
X17583330Y78217828D02*
X17616663Y78251161D01*
X17616663Y78251161D02*
X17583330Y78284495D01*
X17583330Y78284495D02*
X17583330Y78217828D01*
X17583330Y78651161D02*
X17549997Y78617828D01*
X17549997Y78617828D02*
X17583330Y78584495D01*
X17583330Y78584495D02*
X17616663Y78617828D01*
X17616663Y78617828D02*
X17583330Y78651161D01*
X17583330Y78651161D02*
X17583330Y78584495D01*
X16749997Y78951161D02*
X17349997Y78051161D01*
X16016664Y78951161D02*
X16616664Y78051161D01*
X15483331Y78684495D02*
X15483331Y78117828D01*
X15483331Y78117828D02*
X15516664Y78051161D01*
X15516664Y78051161D02*
X15549998Y78017828D01*
X15549998Y78017828D02*
X15616664Y77984495D01*
X15616664Y77984495D02*
X15716664Y77984495D01*
X15716664Y77984495D02*
X15783331Y78017828D01*
X15483331Y78251161D02*
X15549998Y78217828D01*
X15549998Y78217828D02*
X15683331Y78217828D01*
X15683331Y78217828D02*
X15749998Y78251161D01*
X15749998Y78251161D02*
X15783331Y78284495D01*
X15783331Y78284495D02*
X15816664Y78351161D01*
X15816664Y78351161D02*
X15816664Y78551161D01*
X15816664Y78551161D02*
X15783331Y78617828D01*
X15783331Y78617828D02*
X15749998Y78651161D01*
X15749998Y78651161D02*
X15683331Y78684495D01*
X15683331Y78684495D02*
X15549998Y78684495D01*
X15549998Y78684495D02*
X15483331Y78651161D01*
X15149998Y78217828D02*
X15149998Y78684495D01*
X15149998Y78917828D02*
X15183331Y78884495D01*
X15183331Y78884495D02*
X15149998Y78851161D01*
X15149998Y78851161D02*
X15116665Y78884495D01*
X15116665Y78884495D02*
X15149998Y78917828D01*
X15149998Y78917828D02*
X15149998Y78851161D01*
X14916665Y78684495D02*
X14649998Y78684495D01*
X14816665Y78917828D02*
X14816665Y78317828D01*
X14816665Y78317828D02*
X14783332Y78251161D01*
X14783332Y78251161D02*
X14716665Y78217828D01*
X14716665Y78217828D02*
X14649998Y78217828D01*
X14416665Y78217828D02*
X14416665Y78917828D01*
X14116665Y78217828D02*
X14116665Y78584495D01*
X14116665Y78584495D02*
X14149998Y78651161D01*
X14149998Y78651161D02*
X14216665Y78684495D01*
X14216665Y78684495D02*
X14316665Y78684495D01*
X14316665Y78684495D02*
X14383332Y78651161D01*
X14383332Y78651161D02*
X14416665Y78617828D01*
X13483332Y78684495D02*
X13483332Y78217828D01*
X13783332Y78684495D02*
X13783332Y78317828D01*
X13783332Y78317828D02*
X13749999Y78251161D01*
X13749999Y78251161D02*
X13683332Y78217828D01*
X13683332Y78217828D02*
X13583332Y78217828D01*
X13583332Y78217828D02*
X13516665Y78251161D01*
X13516665Y78251161D02*
X13483332Y78284495D01*
X13149999Y78217828D02*
X13149999Y78917828D01*
X13149999Y78651161D02*
X13083332Y78684495D01*
X13083332Y78684495D02*
X12949999Y78684495D01*
X12949999Y78684495D02*
X12883332Y78651161D01*
X12883332Y78651161D02*
X12849999Y78617828D01*
X12849999Y78617828D02*
X12816666Y78551161D01*
X12816666Y78551161D02*
X12816666Y78351161D01*
X12816666Y78351161D02*
X12849999Y78284495D01*
X12849999Y78284495D02*
X12883332Y78251161D01*
X12883332Y78251161D02*
X12949999Y78217828D01*
X12949999Y78217828D02*
X13083332Y78217828D01*
X13083332Y78217828D02*
X13149999Y78251161D01*
X12516666Y78284495D02*
X12483333Y78251161D01*
X12483333Y78251161D02*
X12516666Y78217828D01*
X12516666Y78217828D02*
X12549999Y78251161D01*
X12549999Y78251161D02*
X12516666Y78284495D01*
X12516666Y78284495D02*
X12516666Y78217828D01*
X11883333Y78251161D02*
X11950000Y78217828D01*
X11950000Y78217828D02*
X12083333Y78217828D01*
X12083333Y78217828D02*
X12150000Y78251161D01*
X12150000Y78251161D02*
X12183333Y78284495D01*
X12183333Y78284495D02*
X12216666Y78351161D01*
X12216666Y78351161D02*
X12216666Y78551161D01*
X12216666Y78551161D02*
X12183333Y78617828D01*
X12183333Y78617828D02*
X12150000Y78651161D01*
X12150000Y78651161D02*
X12083333Y78684495D01*
X12083333Y78684495D02*
X11950000Y78684495D01*
X11950000Y78684495D02*
X11883333Y78651161D01*
X11483333Y78217828D02*
X11550000Y78251161D01*
X11550000Y78251161D02*
X11583333Y78284495D01*
X11583333Y78284495D02*
X11616666Y78351161D01*
X11616666Y78351161D02*
X11616666Y78551161D01*
X11616666Y78551161D02*
X11583333Y78617828D01*
X11583333Y78617828D02*
X11550000Y78651161D01*
X11550000Y78651161D02*
X11483333Y78684495D01*
X11483333Y78684495D02*
X11383333Y78684495D01*
X11383333Y78684495D02*
X11316666Y78651161D01*
X11316666Y78651161D02*
X11283333Y78617828D01*
X11283333Y78617828D02*
X11250000Y78551161D01*
X11250000Y78551161D02*
X11250000Y78351161D01*
X11250000Y78351161D02*
X11283333Y78284495D01*
X11283333Y78284495D02*
X11316666Y78251161D01*
X11316666Y78251161D02*
X11383333Y78217828D01*
X11383333Y78217828D02*
X11483333Y78217828D01*
X10950000Y78217828D02*
X10950000Y78684495D01*
X10950000Y78617828D02*
X10916667Y78651161D01*
X10916667Y78651161D02*
X10850000Y78684495D01*
X10850000Y78684495D02*
X10750000Y78684495D01*
X10750000Y78684495D02*
X10683333Y78651161D01*
X10683333Y78651161D02*
X10650000Y78584495D01*
X10650000Y78584495D02*
X10650000Y78217828D01*
X10650000Y78584495D02*
X10616667Y78651161D01*
X10616667Y78651161D02*
X10550000Y78684495D01*
X10550000Y78684495D02*
X10450000Y78684495D01*
X10450000Y78684495D02*
X10383333Y78651161D01*
X10383333Y78651161D02*
X10350000Y78584495D01*
X10350000Y78584495D02*
X10350000Y78217828D01*
X9516667Y78951161D02*
X10116667Y78051161D01*
X9283334Y78684495D02*
X9283334Y77984495D01*
X9283334Y78651161D02*
X9216667Y78684495D01*
X9216667Y78684495D02*
X9083334Y78684495D01*
X9083334Y78684495D02*
X9016667Y78651161D01*
X9016667Y78651161D02*
X8983334Y78617828D01*
X8983334Y78617828D02*
X8950001Y78551161D01*
X8950001Y78551161D02*
X8950001Y78351161D01*
X8950001Y78351161D02*
X8983334Y78284495D01*
X8983334Y78284495D02*
X9016667Y78251161D01*
X9016667Y78251161D02*
X9083334Y78217828D01*
X9083334Y78217828D02*
X9216667Y78217828D01*
X9216667Y78217828D02*
X9283334Y78251161D01*
X8383334Y78251161D02*
X8450001Y78217828D01*
X8450001Y78217828D02*
X8583334Y78217828D01*
X8583334Y78217828D02*
X8650001Y78251161D01*
X8650001Y78251161D02*
X8683334Y78317828D01*
X8683334Y78317828D02*
X8683334Y78584495D01*
X8683334Y78584495D02*
X8650001Y78651161D01*
X8650001Y78651161D02*
X8583334Y78684495D01*
X8583334Y78684495D02*
X8450001Y78684495D01*
X8450001Y78684495D02*
X8383334Y78651161D01*
X8383334Y78651161D02*
X8350001Y78584495D01*
X8350001Y78584495D02*
X8350001Y78517828D01*
X8350001Y78517828D02*
X8683334Y78451161D01*
X7750001Y78217828D02*
X7750001Y78917828D01*
X7750001Y78251161D02*
X7816668Y78217828D01*
X7816668Y78217828D02*
X7950001Y78217828D01*
X7950001Y78217828D02*
X8016668Y78251161D01*
X8016668Y78251161D02*
X8050001Y78284495D01*
X8050001Y78284495D02*
X8083334Y78351161D01*
X8083334Y78351161D02*
X8083334Y78551161D01*
X8083334Y78551161D02*
X8050001Y78617828D01*
X8050001Y78617828D02*
X8016668Y78651161D01*
X8016668Y78651161D02*
X7950001Y78684495D01*
X7950001Y78684495D02*
X7816668Y78684495D01*
X7816668Y78684495D02*
X7750001Y78651161D01*
X7116668Y78217828D02*
X7116668Y78584495D01*
X7116668Y78584495D02*
X7150001Y78651161D01*
X7150001Y78651161D02*
X7216668Y78684495D01*
X7216668Y78684495D02*
X7350001Y78684495D01*
X7350001Y78684495D02*
X7416668Y78651161D01*
X7116668Y78251161D02*
X7183335Y78217828D01*
X7183335Y78217828D02*
X7350001Y78217828D01*
X7350001Y78217828D02*
X7416668Y78251161D01*
X7416668Y78251161D02*
X7450001Y78317828D01*
X7450001Y78317828D02*
X7450001Y78384495D01*
X7450001Y78384495D02*
X7416668Y78451161D01*
X7416668Y78451161D02*
X7350001Y78484495D01*
X7350001Y78484495D02*
X7183335Y78484495D01*
X7183335Y78484495D02*
X7116668Y78517828D01*
X6683335Y78217828D02*
X6750002Y78251161D01*
X6750002Y78251161D02*
X6783335Y78317828D01*
X6783335Y78317828D02*
X6783335Y78917828D01*
X6416668Y78217828D02*
X6416668Y78917828D01*
X6416668Y78651161D02*
X6350001Y78684495D01*
X6350001Y78684495D02*
X6216668Y78684495D01*
X6216668Y78684495D02*
X6150001Y78651161D01*
X6150001Y78651161D02*
X6116668Y78617828D01*
X6116668Y78617828D02*
X6083335Y78551161D01*
X6083335Y78551161D02*
X6083335Y78351161D01*
X6083335Y78351161D02*
X6116668Y78284495D01*
X6116668Y78284495D02*
X6150001Y78251161D01*
X6150001Y78251161D02*
X6216668Y78217828D01*
X6216668Y78217828D02*
X6350001Y78217828D01*
X6350001Y78217828D02*
X6416668Y78251161D01*
X5683335Y78217828D02*
X5750002Y78251161D01*
X5750002Y78251161D02*
X5783335Y78284495D01*
X5783335Y78284495D02*
X5816668Y78351161D01*
X5816668Y78351161D02*
X5816668Y78551161D01*
X5816668Y78551161D02*
X5783335Y78617828D01*
X5783335Y78617828D02*
X5750002Y78651161D01*
X5750002Y78651161D02*
X5683335Y78684495D01*
X5683335Y78684495D02*
X5583335Y78684495D01*
X5583335Y78684495D02*
X5516668Y78651161D01*
X5516668Y78651161D02*
X5483335Y78617828D01*
X5483335Y78617828D02*
X5450002Y78551161D01*
X5450002Y78551161D02*
X5450002Y78351161D01*
X5450002Y78351161D02*
X5483335Y78284495D01*
X5483335Y78284495D02*
X5516668Y78251161D01*
X5516668Y78251161D02*
X5583335Y78217828D01*
X5583335Y78217828D02*
X5683335Y78217828D01*
X4850002Y78217828D02*
X4850002Y78584495D01*
X4850002Y78584495D02*
X4883335Y78651161D01*
X4883335Y78651161D02*
X4950002Y78684495D01*
X4950002Y78684495D02*
X5083335Y78684495D01*
X5083335Y78684495D02*
X5150002Y78651161D01*
X4850002Y78251161D02*
X4916669Y78217828D01*
X4916669Y78217828D02*
X5083335Y78217828D01*
X5083335Y78217828D02*
X5150002Y78251161D01*
X5150002Y78251161D02*
X5183335Y78317828D01*
X5183335Y78317828D02*
X5183335Y78384495D01*
X5183335Y78384495D02*
X5150002Y78451161D01*
X5150002Y78451161D02*
X5083335Y78484495D01*
X5083335Y78484495D02*
X4916669Y78484495D01*
X4916669Y78484495D02*
X4850002Y78517828D01*
X4516669Y78217828D02*
X4516669Y78684495D01*
X4516669Y78551161D02*
X4483336Y78617828D01*
X4483336Y78617828D02*
X4450002Y78651161D01*
X4450002Y78651161D02*
X4383336Y78684495D01*
X4383336Y78684495D02*
X4316669Y78684495D01*
X3783336Y78217828D02*
X3783336Y78917828D01*
X3783336Y78251161D02*
X3850003Y78217828D01*
X3850003Y78217828D02*
X3983336Y78217828D01*
X3983336Y78217828D02*
X4050003Y78251161D01*
X4050003Y78251161D02*
X4083336Y78284495D01*
X4083336Y78284495D02*
X4116669Y78351161D01*
X4116669Y78351161D02*
X4116669Y78551161D01*
X4116669Y78551161D02*
X4083336Y78617828D01*
X4083336Y78617828D02*
X4050003Y78651161D01*
X4050003Y78651161D02*
X3983336Y78684495D01*
X3983336Y78684495D02*
X3850003Y78684495D01*
X3850003Y78684495D02*
X3783336Y78651161D01*
X19733333Y77090867D02*
X19733333Y77790867D01*
X19733333Y77790867D02*
X19466666Y77790867D01*
X19466666Y77790867D02*
X19400000Y77757534D01*
X19400000Y77757534D02*
X19366666Y77724200D01*
X19366666Y77724200D02*
X19333333Y77657534D01*
X19333333Y77657534D02*
X19333333Y77557534D01*
X19333333Y77557534D02*
X19366666Y77490867D01*
X19366666Y77490867D02*
X19400000Y77457534D01*
X19400000Y77457534D02*
X19466666Y77424200D01*
X19466666Y77424200D02*
X19733333Y77424200D01*
X18633333Y77157534D02*
X18666666Y77124200D01*
X18666666Y77124200D02*
X18766666Y77090867D01*
X18766666Y77090867D02*
X18833333Y77090867D01*
X18833333Y77090867D02*
X18933333Y77124200D01*
X18933333Y77124200D02*
X19000000Y77190867D01*
X19000000Y77190867D02*
X19033333Y77257534D01*
X19033333Y77257534D02*
X19066666Y77390867D01*
X19066666Y77390867D02*
X19066666Y77490867D01*
X19066666Y77490867D02*
X19033333Y77624200D01*
X19033333Y77624200D02*
X19000000Y77690867D01*
X19000000Y77690867D02*
X18933333Y77757534D01*
X18933333Y77757534D02*
X18833333Y77790867D01*
X18833333Y77790867D02*
X18766666Y77790867D01*
X18766666Y77790867D02*
X18666666Y77757534D01*
X18666666Y77757534D02*
X18633333Y77724200D01*
X18100000Y77457534D02*
X18000000Y77424200D01*
X18000000Y77424200D02*
X17966666Y77390867D01*
X17966666Y77390867D02*
X17933333Y77324200D01*
X17933333Y77324200D02*
X17933333Y77224200D01*
X17933333Y77224200D02*
X17966666Y77157534D01*
X17966666Y77157534D02*
X18000000Y77124200D01*
X18000000Y77124200D02*
X18066666Y77090867D01*
X18066666Y77090867D02*
X18333333Y77090867D01*
X18333333Y77090867D02*
X18333333Y77790867D01*
X18333333Y77790867D02*
X18100000Y77790867D01*
X18100000Y77790867D02*
X18033333Y77757534D01*
X18033333Y77757534D02*
X18000000Y77724200D01*
X18000000Y77724200D02*
X17966666Y77657534D01*
X17966666Y77657534D02*
X17966666Y77590867D01*
X17966666Y77590867D02*
X18000000Y77524200D01*
X18000000Y77524200D02*
X18033333Y77490867D01*
X18033333Y77490867D02*
X18100000Y77457534D01*
X18100000Y77457534D02*
X18333333Y77457534D01*
X17633333Y77157534D02*
X17600000Y77124200D01*
X17600000Y77124200D02*
X17633333Y77090867D01*
X17633333Y77090867D02*
X17666666Y77124200D01*
X17666666Y77124200D02*
X17633333Y77157534D01*
X17633333Y77157534D02*
X17633333Y77090867D01*
X17633333Y77524200D02*
X17600000Y77490867D01*
X17600000Y77490867D02*
X17633333Y77457534D01*
X17633333Y77457534D02*
X17666666Y77490867D01*
X17666666Y77490867D02*
X17633333Y77524200D01*
X17633333Y77524200D02*
X17633333Y77457534D01*
X16833334Y77557534D02*
X16666667Y77090867D01*
X16666667Y77090867D02*
X16500000Y77557534D01*
X16100001Y77790867D02*
X16033334Y77790867D01*
X16033334Y77790867D02*
X15966667Y77757534D01*
X15966667Y77757534D02*
X15933334Y77724200D01*
X15933334Y77724200D02*
X15900001Y77657534D01*
X15900001Y77657534D02*
X15866667Y77524200D01*
X15866667Y77524200D02*
X15866667Y77357534D01*
X15866667Y77357534D02*
X15900001Y77224200D01*
X15900001Y77224200D02*
X15933334Y77157534D01*
X15933334Y77157534D02*
X15966667Y77124200D01*
X15966667Y77124200D02*
X16033334Y77090867D01*
X16033334Y77090867D02*
X16100001Y77090867D01*
X16100001Y77090867D02*
X16166667Y77124200D01*
X16166667Y77124200D02*
X16200001Y77157534D01*
X16200001Y77157534D02*
X16233334Y77224200D01*
X16233334Y77224200D02*
X16266667Y77357534D01*
X16266667Y77357534D02*
X16266667Y77524200D01*
X16266667Y77524200D02*
X16233334Y77657534D01*
X16233334Y77657534D02*
X16200001Y77724200D01*
X16200001Y77724200D02*
X16166667Y77757534D01*
X16166667Y77757534D02*
X16100001Y77790867D01*
X15566667Y77157534D02*
X15533334Y77124200D01*
X15533334Y77124200D02*
X15566667Y77090867D01*
X15566667Y77090867D02*
X15600000Y77124200D01*
X15600000Y77124200D02*
X15566667Y77157534D01*
X15566667Y77157534D02*
X15566667Y77090867D01*
X15100001Y77790867D02*
X15033334Y77790867D01*
X15033334Y77790867D02*
X14966667Y77757534D01*
X14966667Y77757534D02*
X14933334Y77724200D01*
X14933334Y77724200D02*
X14900001Y77657534D01*
X14900001Y77657534D02*
X14866667Y77524200D01*
X14866667Y77524200D02*
X14866667Y77357534D01*
X14866667Y77357534D02*
X14900001Y77224200D01*
X14900001Y77224200D02*
X14933334Y77157534D01*
X14933334Y77157534D02*
X14966667Y77124200D01*
X14966667Y77124200D02*
X15033334Y77090867D01*
X15033334Y77090867D02*
X15100001Y77090867D01*
X15100001Y77090867D02*
X15166667Y77124200D01*
X15166667Y77124200D02*
X15200001Y77157534D01*
X15200001Y77157534D02*
X15233334Y77224200D01*
X15233334Y77224200D02*
X15266667Y77357534D01*
X15266667Y77357534D02*
X15266667Y77524200D01*
X15266667Y77524200D02*
X15233334Y77657534D01*
X15233334Y77657534D02*
X15200001Y77724200D01*
X15200001Y77724200D02*
X15166667Y77757534D01*
X15166667Y77757534D02*
X15100001Y77790867D01*
X14566667Y77157534D02*
X14533334Y77124200D01*
X14533334Y77124200D02*
X14566667Y77090867D01*
X14566667Y77090867D02*
X14600000Y77124200D01*
X14600000Y77124200D02*
X14566667Y77157534D01*
X14566667Y77157534D02*
X14566667Y77090867D01*
X14100001Y77790867D02*
X14033334Y77790867D01*
X14033334Y77790867D02*
X13966667Y77757534D01*
X13966667Y77757534D02*
X13933334Y77724200D01*
X13933334Y77724200D02*
X13900001Y77657534D01*
X13900001Y77657534D02*
X13866667Y77524200D01*
X13866667Y77524200D02*
X13866667Y77357534D01*
X13866667Y77357534D02*
X13900001Y77224200D01*
X13900001Y77224200D02*
X13933334Y77157534D01*
X13933334Y77157534D02*
X13966667Y77124200D01*
X13966667Y77124200D02*
X14033334Y77090867D01*
X14033334Y77090867D02*
X14100001Y77090867D01*
X14100001Y77090867D02*
X14166667Y77124200D01*
X14166667Y77124200D02*
X14200001Y77157534D01*
X14200001Y77157534D02*
X14233334Y77224200D01*
X14233334Y77224200D02*
X14266667Y77357534D01*
X14266667Y77357534D02*
X14266667Y77524200D01*
X14266667Y77524200D02*
X14233334Y77657534D01*
X14233334Y77657534D02*
X14200001Y77724200D01*
X14200001Y77724200D02*
X14166667Y77757534D01*
X14166667Y77757534D02*
X14100001Y77790867D01*
X13566667Y77357534D02*
X13033334Y77357534D01*
X12300000Y77090867D02*
X12533333Y77424200D01*
X12700000Y77090867D02*
X12700000Y77790867D01*
X12700000Y77790867D02*
X12433333Y77790867D01*
X12433333Y77790867D02*
X12366667Y77757534D01*
X12366667Y77757534D02*
X12333333Y77724200D01*
X12333333Y77724200D02*
X12300000Y77657534D01*
X12300000Y77657534D02*
X12300000Y77557534D01*
X12300000Y77557534D02*
X12333333Y77490867D01*
X12333333Y77490867D02*
X12366667Y77457534D01*
X12366667Y77457534D02*
X12433333Y77424200D01*
X12433333Y77424200D02*
X12700000Y77424200D01*
X11600000Y77157534D02*
X11633333Y77124200D01*
X11633333Y77124200D02*
X11733333Y77090867D01*
X11733333Y77090867D02*
X11800000Y77090867D01*
X11800000Y77090867D02*
X11900000Y77124200D01*
X11900000Y77124200D02*
X11966667Y77190867D01*
X11966667Y77190867D02*
X12000000Y77257534D01*
X12000000Y77257534D02*
X12033333Y77390867D01*
X12033333Y77390867D02*
X12033333Y77490867D01*
X12033333Y77490867D02*
X12000000Y77624200D01*
X12000000Y77624200D02*
X11966667Y77690867D01*
X11966667Y77690867D02*
X11900000Y77757534D01*
X11900000Y77757534D02*
X11800000Y77790867D01*
X11800000Y77790867D02*
X11733333Y77790867D01*
X11733333Y77790867D02*
X11633333Y77757534D01*
X11633333Y77757534D02*
X11600000Y77724200D01*
X10933333Y77090867D02*
X11333333Y77090867D01*
X11133333Y77090867D02*
X11133333Y77790867D01*
X11133333Y77790867D02*
X11200000Y77690867D01*
X11200000Y77690867D02*
X11266667Y77624200D01*
X11266667Y77624200D02*
X11333333Y77590867D01*
X9900000Y76824200D02*
X9933333Y76857534D01*
X9933333Y76857534D02*
X10000000Y76957534D01*
X10000000Y76957534D02*
X10033333Y77024200D01*
X10033333Y77024200D02*
X10066667Y77124200D01*
X10066667Y77124200D02*
X10100000Y77290867D01*
X10100000Y77290867D02*
X10100000Y77424200D01*
X10100000Y77424200D02*
X10066667Y77590867D01*
X10066667Y77590867D02*
X10033333Y77690867D01*
X10033333Y77690867D02*
X10000000Y77757534D01*
X10000000Y77757534D02*
X9933333Y77857534D01*
X9933333Y77857534D02*
X9900000Y77890867D01*
X9666666Y77124200D02*
X9566666Y77090867D01*
X9566666Y77090867D02*
X9400000Y77090867D01*
X9400000Y77090867D02*
X9333333Y77124200D01*
X9333333Y77124200D02*
X9300000Y77157534D01*
X9300000Y77157534D02*
X9266666Y77224200D01*
X9266666Y77224200D02*
X9266666Y77290867D01*
X9266666Y77290867D02*
X9300000Y77357534D01*
X9300000Y77357534D02*
X9333333Y77390867D01*
X9333333Y77390867D02*
X9400000Y77424200D01*
X9400000Y77424200D02*
X9533333Y77457534D01*
X9533333Y77457534D02*
X9600000Y77490867D01*
X9600000Y77490867D02*
X9633333Y77524200D01*
X9633333Y77524200D02*
X9666666Y77590867D01*
X9666666Y77590867D02*
X9666666Y77657534D01*
X9666666Y77657534D02*
X9633333Y77724200D01*
X9633333Y77724200D02*
X9600000Y77757534D01*
X9600000Y77757534D02*
X9533333Y77790867D01*
X9533333Y77790867D02*
X9366666Y77790867D01*
X9366666Y77790867D02*
X9266666Y77757534D01*
X9466666Y77890867D02*
X9466666Y76990867D01*
X8966666Y77157534D02*
X8933333Y77124200D01*
X8933333Y77124200D02*
X8966666Y77090867D01*
X8966666Y77090867D02*
X8999999Y77124200D01*
X8999999Y77124200D02*
X8966666Y77157534D01*
X8966666Y77157534D02*
X8966666Y77090867D01*
X8966666Y77524200D02*
X8933333Y77490867D01*
X8933333Y77490867D02*
X8966666Y77457534D01*
X8966666Y77457534D02*
X8999999Y77490867D01*
X8999999Y77490867D02*
X8966666Y77524200D01*
X8966666Y77524200D02*
X8966666Y77457534D01*
X8733333Y77557534D02*
X8466666Y77557534D01*
X8633333Y77090867D02*
X8633333Y77690867D01*
X8633333Y77690867D02*
X8600000Y77757534D01*
X8600000Y77757534D02*
X8533333Y77790867D01*
X8533333Y77790867D02*
X8466666Y77790867D01*
X8233333Y77090867D02*
X8233333Y77790867D01*
X8233333Y77524200D02*
X8166666Y77557534D01*
X8166666Y77557534D02*
X8033333Y77557534D01*
X8033333Y77557534D02*
X7966666Y77524200D01*
X7966666Y77524200D02*
X7933333Y77490867D01*
X7933333Y77490867D02*
X7900000Y77424200D01*
X7900000Y77424200D02*
X7900000Y77224200D01*
X7900000Y77224200D02*
X7933333Y77157534D01*
X7933333Y77157534D02*
X7966666Y77124200D01*
X7966666Y77124200D02*
X8033333Y77090867D01*
X8033333Y77090867D02*
X8166666Y77090867D01*
X8166666Y77090867D02*
X8233333Y77124200D01*
X7300000Y77090867D02*
X7300000Y77457534D01*
X7300000Y77457534D02*
X7333333Y77524200D01*
X7333333Y77524200D02*
X7400000Y77557534D01*
X7400000Y77557534D02*
X7533333Y77557534D01*
X7533333Y77557534D02*
X7600000Y77524200D01*
X7300000Y77124200D02*
X7366667Y77090867D01*
X7366667Y77090867D02*
X7533333Y77090867D01*
X7533333Y77090867D02*
X7600000Y77124200D01*
X7600000Y77124200D02*
X7633333Y77190867D01*
X7633333Y77190867D02*
X7633333Y77257534D01*
X7633333Y77257534D02*
X7600000Y77324200D01*
X7600000Y77324200D02*
X7533333Y77357534D01*
X7533333Y77357534D02*
X7366667Y77357534D01*
X7366667Y77357534D02*
X7300000Y77390867D01*
X6666667Y77124200D02*
X6733334Y77090867D01*
X6733334Y77090867D02*
X6866667Y77090867D01*
X6866667Y77090867D02*
X6933334Y77124200D01*
X6933334Y77124200D02*
X6966667Y77157534D01*
X6966667Y77157534D02*
X7000000Y77224200D01*
X7000000Y77224200D02*
X7000000Y77424200D01*
X7000000Y77424200D02*
X6966667Y77490867D01*
X6966667Y77490867D02*
X6933334Y77524200D01*
X6933334Y77524200D02*
X6866667Y77557534D01*
X6866667Y77557534D02*
X6733334Y77557534D01*
X6733334Y77557534D02*
X6666667Y77524200D01*
X6066667Y77090867D02*
X6066667Y77457534D01*
X6066667Y77457534D02*
X6100000Y77524200D01*
X6100000Y77524200D02*
X6166667Y77557534D01*
X6166667Y77557534D02*
X6300000Y77557534D01*
X6300000Y77557534D02*
X6366667Y77524200D01*
X6066667Y77124200D02*
X6133334Y77090867D01*
X6133334Y77090867D02*
X6300000Y77090867D01*
X6300000Y77090867D02*
X6366667Y77124200D01*
X6366667Y77124200D02*
X6400000Y77190867D01*
X6400000Y77190867D02*
X6400000Y77257534D01*
X6400000Y77257534D02*
X6366667Y77324200D01*
X6366667Y77324200D02*
X6300000Y77357534D01*
X6300000Y77357534D02*
X6133334Y77357534D01*
X6133334Y77357534D02*
X6066667Y77390867D01*
X5800001Y77790867D02*
X5333334Y77790867D01*
X5333334Y77790867D02*
X5633334Y77090867D01*
X5100000Y77724200D02*
X5066667Y77757534D01*
X5066667Y77757534D02*
X5000000Y77790867D01*
X5000000Y77790867D02*
X4833334Y77790867D01*
X4833334Y77790867D02*
X4766667Y77757534D01*
X4766667Y77757534D02*
X4733334Y77724200D01*
X4733334Y77724200D02*
X4700000Y77657534D01*
X4700000Y77657534D02*
X4700000Y77590867D01*
X4700000Y77590867D02*
X4733334Y77490867D01*
X4733334Y77490867D02*
X5133334Y77090867D01*
X5133334Y77090867D02*
X4700000Y77090867D01*
X4466667Y76824200D02*
X4433333Y76857534D01*
X4433333Y76857534D02*
X4366667Y76957534D01*
X4366667Y76957534D02*
X4333333Y77024200D01*
X4333333Y77024200D02*
X4300000Y77124200D01*
X4300000Y77124200D02*
X4266667Y77290867D01*
X4266667Y77290867D02*
X4266667Y77424200D01*
X4266667Y77424200D02*
X4300000Y77590867D01*
X4300000Y77590867D02*
X4333333Y77690867D01*
X4333333Y77690867D02*
X4366667Y77757534D01*
X4366667Y77757534D02*
X4433333Y77857534D01*
X4433333Y77857534D02*
X4466667Y77890867D01*
D11*
X124333333Y73995181D02*
X124333333Y73280896D01*
X124333333Y73280896D02*
X124380952Y73138039D01*
X124380952Y73138039D02*
X124476190Y73042800D01*
X124476190Y73042800D02*
X124619047Y72995181D01*
X124619047Y72995181D02*
X124714285Y72995181D01*
X123952380Y73995181D02*
X123333333Y73995181D01*
X123333333Y73995181D02*
X123666666Y73614229D01*
X123666666Y73614229D02*
X123523809Y73614229D01*
X123523809Y73614229D02*
X123428571Y73566610D01*
X123428571Y73566610D02*
X123380952Y73518991D01*
X123380952Y73518991D02*
X123333333Y73423753D01*
X123333333Y73423753D02*
X123333333Y73185658D01*
X123333333Y73185658D02*
X123380952Y73090420D01*
X123380952Y73090420D02*
X123428571Y73042800D01*
X123428571Y73042800D02*
X123523809Y72995181D01*
X123523809Y72995181D02*
X123809523Y72995181D01*
X123809523Y72995181D02*
X123904761Y73042800D01*
X123904761Y73042800D02*
X123952380Y73090420D01*
X-1295181Y25333334D02*
X-580896Y25333334D01*
X-580896Y25333334D02*
X-438039Y25380953D01*
X-438039Y25380953D02*
X-342800Y25476191D01*
X-342800Y25476191D02*
X-295181Y25619048D01*
X-295181Y25619048D02*
X-295181Y25714286D01*
X-1199943Y24904762D02*
X-1247562Y24857143D01*
X-1247562Y24857143D02*
X-1295181Y24761905D01*
X-1295181Y24761905D02*
X-1295181Y24523810D01*
X-1295181Y24523810D02*
X-1247562Y24428572D01*
X-1247562Y24428572D02*
X-1199943Y24380953D01*
X-1199943Y24380953D02*
X-1104705Y24333334D01*
X-1104705Y24333334D02*
X-1009467Y24333334D01*
X-1009467Y24333334D02*
X-866610Y24380953D01*
X-866610Y24380953D02*
X-295181Y24952381D01*
X-295181Y24952381D02*
X-295181Y24333334D01*
X92333333Y96545181D02*
X92333333Y95830896D01*
X92333333Y95830896D02*
X92380952Y95688039D01*
X92380952Y95688039D02*
X92476190Y95592800D01*
X92476190Y95592800D02*
X92619047Y95545181D01*
X92619047Y95545181D02*
X92714285Y95545181D01*
X91333333Y95545181D02*
X91904761Y95545181D01*
X91619047Y95545181D02*
X91619047Y96545181D01*
X91619047Y96545181D02*
X91714285Y96402324D01*
X91714285Y96402324D02*
X91809523Y96307086D01*
X91809523Y96307086D02*
X91904761Y96259467D01*
D12*
X44338000Y58797200D02*
X44338000Y61457200D01*
X52018000Y58797200D02*
X52018000Y61457200D01*
X54300000Y58800000D02*
X54618000Y58797200D01*
X54618000Y58797200D02*
X54618000Y60127200D01*
X119338000Y58797200D02*
X119338000Y61457200D01*
X127018000Y58797200D02*
X127018000Y61457200D01*
X129300000Y58800000D02*
X129618000Y58797200D01*
X129618000Y58797200D02*
X129618000Y60127200D01*
X117915000Y72360000D02*
X130085000Y72360000D01*
X117915000Y71510000D02*
X117915000Y72360000D01*
X117915000Y67140000D02*
X117915000Y67990000D01*
X120240000Y67140000D02*
X117915000Y67140000D01*
X127760000Y67140000D02*
X130085000Y67140000D01*
X127760000Y64750000D02*
X127760000Y67140000D01*
X130085000Y72360000D02*
X130085000Y71510000D01*
X130085000Y67140000D02*
X130085000Y67990000D01*
X340000Y30085000D02*
X1190000Y30085000D01*
X340000Y19915000D02*
X340000Y30085000D01*
X1190000Y19915000D02*
X340000Y19915000D01*
X5560000Y30085000D02*
X4710000Y30085000D01*
X5560000Y27760000D02*
X5560000Y30085000D01*
X5560000Y22240000D02*
X5560000Y19915000D01*
X5560000Y19915000D02*
X4710000Y19915000D01*
X7950000Y27760000D02*
X5560000Y27760000D01*
X81915000Y105360000D02*
X92085000Y105360000D01*
X81915000Y104510000D02*
X81915000Y105360000D01*
X81915000Y100140000D02*
X81915000Y100990000D01*
X84240000Y100140000D02*
X81915000Y100140000D01*
X89760000Y100140000D02*
X92085000Y100140000D01*
X89760000Y97750000D02*
X89760000Y100140000D01*
X92085000Y105360000D02*
X92085000Y104510000D01*
X92085000Y100140000D02*
X92085000Y100990000D01*
M02*
