G04 #@! TF.GenerationSoftware,KiCad,Pcbnew,8.0.4+1*
G04 #@! TF.CreationDate,2024-10-05T14:06:02+00:00*
G04 #@! TF.ProjectId,pedalboard-display,70656461-6c62-46f6-9172-642d64697370,0.0.0-RC1*
G04 #@! TF.SameCoordinates,Original*
G04 #@! TF.FileFunction,Soldermask,Bot*
G04 #@! TF.FilePolarity,Negative*
%FSLAX46Y46*%
G04 Gerber Fmt 4.6, Leading zero omitted, Abs format (unit mm)*
G04 Created by KiCad (PCBNEW 8.0.4+1) date 2024-10-05 14:06:02*
%MOMM*%
%LPD*%
G01*
G04 APERTURE LIST*
G04 APERTURE END LIST*
G36*
G01*
X2700000Y27500000D02*
X7700000Y27500000D01*
G75*
G02*
X7950000Y27250000I0J-250000D01*
G01*
X7950000Y26750000D01*
G75*
G02*
X7700000Y26500000I-250000J0D01*
G01*
X2700000Y26500000D01*
G75*
G02*
X2450000Y26750000I0J250000D01*
G01*
X2450000Y27250000D01*
G75*
G02*
X2700000Y27500000I250000J0D01*
G01*
G37*
G36*
G01*
X2700000Y25500000D02*
X7700000Y25500000D01*
G75*
G02*
X7950000Y25250000I0J-250000D01*
G01*
X7950000Y24750000D01*
G75*
G02*
X7700000Y24500000I-250000J0D01*
G01*
X2700000Y24500000D01*
G75*
G02*
X2450000Y24750000I0J250000D01*
G01*
X2450000Y25250000D01*
G75*
G02*
X2700000Y25500000I250000J0D01*
G01*
G37*
G36*
G01*
X2700000Y23500000D02*
X7700000Y23500000D01*
G75*
G02*
X7950000Y23250000I0J-250000D01*
G01*
X7950000Y22750000D01*
G75*
G02*
X7700000Y22500000I-250000J0D01*
G01*
X2700000Y22500000D01*
G75*
G02*
X2450000Y22750000I0J250000D01*
G01*
X2450000Y23250000D01*
G75*
G02*
X2700000Y23500000I250000J0D01*
G01*
G37*
G36*
G01*
X1700000Y30200000D02*
X4200000Y30200000D01*
G75*
G02*
X4450000Y29950000I0J-250000D01*
G01*
X4450000Y28850000D01*
G75*
G02*
X4200000Y28600000I-250000J0D01*
G01*
X1700000Y28600000D01*
G75*
G02*
X1450000Y28850000I0J250000D01*
G01*
X1450000Y29950000D01*
G75*
G02*
X1700000Y30200000I250000J0D01*
G01*
G37*
G36*
G01*
X1700000Y21400000D02*
X4200000Y21400000D01*
G75*
G02*
X4450000Y21150000I0J-250000D01*
G01*
X4450000Y20050000D01*
G75*
G02*
X4200000Y19800000I-250000J0D01*
G01*
X1700000Y19800000D01*
G75*
G02*
X1450000Y20050000I0J250000D01*
G01*
X1450000Y21150000D01*
G75*
G02*
X1700000Y21400000I250000J0D01*
G01*
G37*
G36*
G01*
X89500000Y103000000D02*
X89500000Y98000000D01*
G75*
G02*
X89250000Y97750000I-250000J0D01*
G01*
X88750000Y97750000D01*
G75*
G02*
X88500000Y98000000I0J250000D01*
G01*
X88500000Y103000000D01*
G75*
G02*
X88750000Y103250000I250000J0D01*
G01*
X89250000Y103250000D01*
G75*
G02*
X89500000Y103000000I0J-250000D01*
G01*
G37*
G36*
G01*
X87500000Y103000000D02*
X87500000Y98000000D01*
G75*
G02*
X87250000Y97750000I-250000J0D01*
G01*
X86750000Y97750000D01*
G75*
G02*
X86500000Y98000000I0J250000D01*
G01*
X86500000Y103000000D01*
G75*
G02*
X86750000Y103250000I250000J0D01*
G01*
X87250000Y103250000D01*
G75*
G02*
X87500000Y103000000I0J-250000D01*
G01*
G37*
G36*
G01*
X85500000Y103000000D02*
X85500000Y98000000D01*
G75*
G02*
X85250000Y97750000I-250000J0D01*
G01*
X84750000Y97750000D01*
G75*
G02*
X84500000Y98000000I0J250000D01*
G01*
X84500000Y103000000D01*
G75*
G02*
X84750000Y103250000I250000J0D01*
G01*
X85250000Y103250000D01*
G75*
G02*
X85500000Y103000000I0J-250000D01*
G01*
G37*
G36*
G01*
X92200000Y104000000D02*
X92200000Y101500000D01*
G75*
G02*
X91950000Y101250000I-250000J0D01*
G01*
X90850000Y101250000D01*
G75*
G02*
X90600000Y101500000I0J250000D01*
G01*
X90600000Y104000000D01*
G75*
G02*
X90850000Y104250000I250000J0D01*
G01*
X91950000Y104250000D01*
G75*
G02*
X92200000Y104000000I0J-250000D01*
G01*
G37*
G36*
G01*
X83400000Y104000000D02*
X83400000Y101500000D01*
G75*
G02*
X83150000Y101250000I-250000J0D01*
G01*
X82050000Y101250000D01*
G75*
G02*
X81800000Y101500000I0J250000D01*
G01*
X81800000Y104000000D01*
G75*
G02*
X82050000Y104250000I250000J0D01*
G01*
X83150000Y104250000D01*
G75*
G02*
X83400000Y104000000I0J-250000D01*
G01*
G37*
M02*
