G04 #@! TF.GenerationSoftware,KiCad,Pcbnew,8.0.4+1*
G04 #@! TF.CreationDate,2024-10-08T17:13:01+00:00*
G04 #@! TF.ProjectId,pedalboard-display,70656461-6c62-46f6-9172-642d64697370,0.0.0-RC1*
G04 #@! TF.SameCoordinates,Original*
G04 #@! TF.FileFunction,Soldermask,Bot*
G04 #@! TF.FilePolarity,Negative*
%FSLAX46Y46*%
G04 Gerber Fmt 4.6, Leading zero omitted, Abs format (unit mm)*
G04 Created by KiCad (PCBNEW 8.0.4+1) date 2024-10-08 17:13:01*
%MOMM*%
%LPD*%
G01*
G04 APERTURE LIST*
%ADD10C,2.500000*%
%ADD11C,2.100000*%
%ADD12R,1.700000X3.600000*%
%ADD13O,1.700000X3.500000*%
G04 APERTURE END LIST*
D10*
X150000000Y3000000D03*
X150000000Y108000000D03*
D11*
X34500000Y60800000D03*
X34500000Y8800000D03*
X64500000Y60800000D03*
X64500000Y8800000D03*
D12*
X53288000Y60127200D03*
D13*
X50748000Y60127200D03*
X48208000Y60127200D03*
X45668000Y60127200D03*
D10*
X24000000Y3000000D03*
X87000000Y33000000D03*
X24000000Y108000000D03*
D11*
X109500000Y60800000D03*
X109500000Y8800000D03*
X139500000Y60800000D03*
X139500000Y8800000D03*
D12*
X128288000Y60127200D03*
D13*
X125748000Y60127200D03*
X123208000Y60127200D03*
X120668000Y60127200D03*
G36*
G01*
X116200000Y58662500D02*
X115300000Y58662500D01*
G75*
G02*
X115050000Y58912500I0J250000D01*
G01*
X115050000Y59437500D01*
G75*
G02*
X115300000Y59687500I250000J0D01*
G01*
X116200000Y59687500D01*
G75*
G02*
X116450000Y59437500I0J-250000D01*
G01*
X116450000Y58912500D01*
G75*
G02*
X116200000Y58662500I-250000J0D01*
G01*
G37*
G36*
G01*
X116200000Y60487500D02*
X115300000Y60487500D01*
G75*
G02*
X115050000Y60737500I0J250000D01*
G01*
X115050000Y61262500D01*
G75*
G02*
X115300000Y61512500I250000J0D01*
G01*
X116200000Y61512500D01*
G75*
G02*
X116450000Y61262500I0J-250000D01*
G01*
X116450000Y60737500D01*
G75*
G02*
X116200000Y60487500I-250000J0D01*
G01*
G37*
G36*
G01*
X118200000Y58662500D02*
X117300000Y58662500D01*
G75*
G02*
X117050000Y58912500I0J250000D01*
G01*
X117050000Y59437500D01*
G75*
G02*
X117300000Y59687500I250000J0D01*
G01*
X118200000Y59687500D01*
G75*
G02*
X118450000Y59437500I0J-250000D01*
G01*
X118450000Y58912500D01*
G75*
G02*
X118200000Y58662500I-250000J0D01*
G01*
G37*
G36*
G01*
X118200000Y60487500D02*
X117300000Y60487500D01*
G75*
G02*
X117050000Y60737500I0J250000D01*
G01*
X117050000Y61262500D01*
G75*
G02*
X117300000Y61512500I250000J0D01*
G01*
X118200000Y61512500D01*
G75*
G02*
X118450000Y61262500I0J-250000D01*
G01*
X118450000Y60737500D01*
G75*
G02*
X118200000Y60487500I-250000J0D01*
G01*
G37*
G36*
G01*
X127500000Y70000000D02*
X127500000Y65000000D01*
G75*
G02*
X127250000Y64750000I-250000J0D01*
G01*
X126750000Y64750000D01*
G75*
G02*
X126500000Y65000000I0J250000D01*
G01*
X126500000Y70000000D01*
G75*
G02*
X126750000Y70250000I250000J0D01*
G01*
X127250000Y70250000D01*
G75*
G02*
X127500000Y70000000I0J-250000D01*
G01*
G37*
G36*
G01*
X125500000Y70000000D02*
X125500000Y65000000D01*
G75*
G02*
X125250000Y64750000I-250000J0D01*
G01*
X124750000Y64750000D01*
G75*
G02*
X124500000Y65000000I0J250000D01*
G01*
X124500000Y70000000D01*
G75*
G02*
X124750000Y70250000I250000J0D01*
G01*
X125250000Y70250000D01*
G75*
G02*
X125500000Y70000000I0J-250000D01*
G01*
G37*
G36*
G01*
X123500000Y70000000D02*
X123500000Y65000000D01*
G75*
G02*
X123250000Y64750000I-250000J0D01*
G01*
X122750000Y64750000D01*
G75*
G02*
X122500000Y65000000I0J250000D01*
G01*
X122500000Y70000000D01*
G75*
G02*
X122750000Y70250000I250000J0D01*
G01*
X123250000Y70250000D01*
G75*
G02*
X123500000Y70000000I0J-250000D01*
G01*
G37*
G36*
G01*
X121500000Y70000000D02*
X121500000Y65000000D01*
G75*
G02*
X121250000Y64750000I-250000J0D01*
G01*
X120750000Y64750000D01*
G75*
G02*
X120500000Y65000000I0J250000D01*
G01*
X120500000Y70000000D01*
G75*
G02*
X120750000Y70250000I250000J0D01*
G01*
X121250000Y70250000D01*
G75*
G02*
X121500000Y70000000I0J-250000D01*
G01*
G37*
G36*
G01*
X130200000Y71000000D02*
X130200000Y68500000D01*
G75*
G02*
X129950000Y68250000I-250000J0D01*
G01*
X128850000Y68250000D01*
G75*
G02*
X128600000Y68500000I0J250000D01*
G01*
X128600000Y71000000D01*
G75*
G02*
X128850000Y71250000I250000J0D01*
G01*
X129950000Y71250000D01*
G75*
G02*
X130200000Y71000000I0J-250000D01*
G01*
G37*
G36*
G01*
X119400000Y71000000D02*
X119400000Y68500000D01*
G75*
G02*
X119150000Y68250000I-250000J0D01*
G01*
X118050000Y68250000D01*
G75*
G02*
X117800000Y68500000I0J250000D01*
G01*
X117800000Y71000000D01*
G75*
G02*
X118050000Y71250000I250000J0D01*
G01*
X119150000Y71250000D01*
G75*
G02*
X119400000Y71000000I0J-250000D01*
G01*
G37*
G36*
G01*
X2700000Y27500000D02*
X7700000Y27500000D01*
G75*
G02*
X7950000Y27250000I0J-250000D01*
G01*
X7950000Y26750000D01*
G75*
G02*
X7700000Y26500000I-250000J0D01*
G01*
X2700000Y26500000D01*
G75*
G02*
X2450000Y26750000I0J250000D01*
G01*
X2450000Y27250000D01*
G75*
G02*
X2700000Y27500000I250000J0D01*
G01*
G37*
G36*
G01*
X2700000Y25500000D02*
X7700000Y25500000D01*
G75*
G02*
X7950000Y25250000I0J-250000D01*
G01*
X7950000Y24750000D01*
G75*
G02*
X7700000Y24500000I-250000J0D01*
G01*
X2700000Y24500000D01*
G75*
G02*
X2450000Y24750000I0J250000D01*
G01*
X2450000Y25250000D01*
G75*
G02*
X2700000Y25500000I250000J0D01*
G01*
G37*
G36*
G01*
X2700000Y23500000D02*
X7700000Y23500000D01*
G75*
G02*
X7950000Y23250000I0J-250000D01*
G01*
X7950000Y22750000D01*
G75*
G02*
X7700000Y22500000I-250000J0D01*
G01*
X2700000Y22500000D01*
G75*
G02*
X2450000Y22750000I0J250000D01*
G01*
X2450000Y23250000D01*
G75*
G02*
X2700000Y23500000I250000J0D01*
G01*
G37*
G36*
G01*
X1700000Y30200000D02*
X4200000Y30200000D01*
G75*
G02*
X4450000Y29950000I0J-250000D01*
G01*
X4450000Y28850000D01*
G75*
G02*
X4200000Y28600000I-250000J0D01*
G01*
X1700000Y28600000D01*
G75*
G02*
X1450000Y28850000I0J250000D01*
G01*
X1450000Y29950000D01*
G75*
G02*
X1700000Y30200000I250000J0D01*
G01*
G37*
G36*
G01*
X1700000Y21400000D02*
X4200000Y21400000D01*
G75*
G02*
X4450000Y21150000I0J-250000D01*
G01*
X4450000Y20050000D01*
G75*
G02*
X4200000Y19800000I-250000J0D01*
G01*
X1700000Y19800000D01*
G75*
G02*
X1450000Y20050000I0J250000D01*
G01*
X1450000Y21150000D01*
G75*
G02*
X1700000Y21400000I250000J0D01*
G01*
G37*
G36*
G01*
X89500000Y85000000D02*
X89500000Y80000000D01*
G75*
G02*
X89250000Y79750000I-250000J0D01*
G01*
X88750000Y79750000D01*
G75*
G02*
X88500000Y80000000I0J250000D01*
G01*
X88500000Y85000000D01*
G75*
G02*
X88750000Y85250000I250000J0D01*
G01*
X89250000Y85250000D01*
G75*
G02*
X89500000Y85000000I0J-250000D01*
G01*
G37*
G36*
G01*
X87500000Y85000000D02*
X87500000Y80000000D01*
G75*
G02*
X87250000Y79750000I-250000J0D01*
G01*
X86750000Y79750000D01*
G75*
G02*
X86500000Y80000000I0J250000D01*
G01*
X86500000Y85000000D01*
G75*
G02*
X86750000Y85250000I250000J0D01*
G01*
X87250000Y85250000D01*
G75*
G02*
X87500000Y85000000I0J-250000D01*
G01*
G37*
G36*
G01*
X85500000Y85000000D02*
X85500000Y80000000D01*
G75*
G02*
X85250000Y79750000I-250000J0D01*
G01*
X84750000Y79750000D01*
G75*
G02*
X84500000Y80000000I0J250000D01*
G01*
X84500000Y85000000D01*
G75*
G02*
X84750000Y85250000I250000J0D01*
G01*
X85250000Y85250000D01*
G75*
G02*
X85500000Y85000000I0J-250000D01*
G01*
G37*
G36*
G01*
X92200000Y86000000D02*
X92200000Y83500000D01*
G75*
G02*
X91950000Y83250000I-250000J0D01*
G01*
X90850000Y83250000D01*
G75*
G02*
X90600000Y83500000I0J250000D01*
G01*
X90600000Y86000000D01*
G75*
G02*
X90850000Y86250000I250000J0D01*
G01*
X91950000Y86250000D01*
G75*
G02*
X92200000Y86000000I0J-250000D01*
G01*
G37*
G36*
G01*
X83400000Y86000000D02*
X83400000Y83500000D01*
G75*
G02*
X83150000Y83250000I-250000J0D01*
G01*
X82050000Y83250000D01*
G75*
G02*
X81800000Y83500000I0J250000D01*
G01*
X81800000Y86000000D01*
G75*
G02*
X82050000Y86250000I250000J0D01*
G01*
X83150000Y86250000D01*
G75*
G02*
X83400000Y86000000I0J-250000D01*
G01*
G37*
M02*
