M48
; DRILL file {KiCad 8.0.4+1} date 2024-10-04T17:30:48+0000
; FORMAT={-:-/ absolute / metric / decimal}
; #@! TF.CreationDate,2024-10-04T17:30:48+00:00
; #@! TF.GenerationSoftware,Kicad,Pcbnew,8.0.4+1
; #@! TF.FileFunction,MixedPlating,1,2
FMAT,2
METRIC
; #@! TA.AperFunction,Plated,PTH,ViaDrill
T1C0.400
%
G90
G05
T1
X1.2Y22.8
X2.072Y62.804
X2.072Y10.804
X2.2Y27.0
X2.804Y67.928
X2.804Y15.928
X4.0Y58.0
X4.0Y6.0
X5.2Y27.7
X6.0Y72.0
X6.0Y20.0
X8.072Y54.804
X8.072Y2.804
X8.1Y27.0
X10.804Y73.928
X10.804Y21.928
X12.5Y71.5
X12.5Y19.4
X13.196Y54.072
X13.196Y2.072
X14.0Y3.6
X14.4Y72.3
X14.4Y20.3
X15.928Y73.196
X15.928Y21.196
X18.0Y56.06
X18.0Y4.06
X20.0Y70.0
X20.0Y18.0
X21.42Y60.31
X21.42Y8.31
X21.95Y65.46
X21.95Y13.46
X40.072Y95.804
X40.804Y100.928
X42.0Y91.0
X44.0Y105.0
X46.072Y87.804
X48.804Y106.928
X50.5Y104.5
X51.196Y87.072
X52.4Y105.3
X53.928Y106.196
X56.0Y89.06
X58.0Y103.0
X59.42Y93.31
X59.95Y98.46
X74.0Y99.5
X77.072Y62.804
X77.072Y10.804
X77.8Y100.3
X77.804Y67.928
X77.804Y15.928
X79.0Y58.0
X79.0Y6.0
X81.0Y72.0
X81.0Y20.0
X83.072Y54.804
X83.072Y2.804
X85.804Y73.928
X85.804Y21.928
X87.5Y71.5
X87.5Y19.5
X88.196Y54.072
X88.196Y2.072
X89.0Y103.5
X89.0Y97.5
X89.4Y72.3
X89.4Y20.3
X89.7Y100.5
X90.928Y73.196
X90.928Y21.196
X93.0Y56.06
X93.0Y4.06
X95.0Y70.0
X95.0Y18.0
X96.42Y60.31
X96.42Y8.31
X96.95Y65.46
X96.95Y13.46
X97.795Y62.6
X99.0Y99.5
X99.205Y62.4
X115.072Y95.804
X115.804Y100.928
X117.0Y91.0
X119.0Y105.0
X121.072Y87.804
X123.804Y106.928
X125.5Y104.3
X126.196Y87.072
X127.4Y105.3
X128.928Y106.196
X131.0Y89.06
X133.0Y103.0
X134.42Y93.31
X134.95Y98.46
X152.072Y62.804
X152.072Y10.804
X152.804Y67.928
X152.804Y15.928
X154.0Y58.0
X154.0Y6.0
X156.0Y72.0
X156.0Y20.0
X158.072Y54.804
X158.072Y2.804
X160.804Y73.928
X160.804Y21.928
X162.5Y71.4
X162.5Y19.2
X163.196Y54.072
X163.196Y2.072
X164.4Y72.3
X164.4Y20.3
X165.928Y73.196
X165.928Y21.196
X167.6Y75.3
X168.0Y56.06
X168.0Y4.06
X170.0Y70.0
X170.0Y18.0
X170.1Y75.3
X171.42Y60.31
X171.42Y8.31
X171.95Y65.46
X171.95Y13.46
M30
