  0
SECTION
  2
HEADER
  9
$ANGBASE
  50
0.0
  9
$ANGDIR
  70
1
  9
$MEASUREMENT
  70
0
  0
ENDSEC
  0
SECTION
  2
TABLES
  0
TABLE
  2
LTYPE
  70
4
  0
LTYPE
  5
40F
  2
CONTINUOUS
  70
0
  3
Solid line
  72
65
  73
0
  40
0.0
  0
LTYPE
  5
410
  2
DASHDOT
 70
0
  3
Dash Dot ____ _ ____ _
 72
65
 73
4
 40
2.0
 49
1.25
 49
-0.25
 49
0.25
 49
-0.25
  0
LTYPE
  5
411
  2
DASHED
 70
0
  3
Dashed __ __ __ __ __
 72
65
 73
2
 40
0.75
 49
0.5
 49
-0.25
  0
LTYPE
  5
43B
  2
DOTTED
 70
0
  3
Dotted .  .  .  .
 72
65
 73
2
 40
0.2
 49
0.0
 49
-0.2
  0
ENDTAB
  0
TABLE
  2
STYLE
  70
4
  0
STYLE
  2
KICAD
  70
0
  40
0
  41
1
  42
1
  50
0
  71
0
  3
isocp.shx
  0
STYLE
  2
KICADB
  70
0
  40
0
  41
1
  42
1
  50
0
  71
0
  3
isocp.shx
  0
STYLE
  2
KICADI
  70
0
  40
0
  41
1
  42
1
  50
15
  71
0
  3
isocp.shx
  0
STYLE
  2
KICADBI
  70
0
  40
0
  41
1
  42
1
  50
15
  71
0
  3
isocp.shx
  0
ENDTAB
  0
TABLE
  2
LAYER
  70
1
  0
LAYER
  2
BLACK
  70
0
  62
7
  6
CONTINUOUS
  0
ENDTAB
  0
ENDSEC
  0
SECTION
  2
ENTITIES
0
LINE
8
BLACK
6
CONTINUOUS
10
1.7408291338582678
20
-5.1877555118110239
11
1.749115157480315
21
-5.1899757480314959
0
LINE
8
BLACK
6
CONTINUOUS
10
1.749115157480315
20
-5.1899757480314959
11
1.7568897637795275
21
-5.1936011023622042
0
LINE
8
BLACK
6
CONTINUOUS
10
1.7568897637795275
20
-5.1936011023622042
11
1.7639167322834646
21
-5.1985214173228345
0
LINE
8
BLACK
6
CONTINUOUS
10
1.7639167322834646
20
-5.1985214173228345
11
1.7699825196850394
21
-5.2045872047244091
0
LINE
8
BLACK
6
CONTINUOUS
10
1.7699825196850394
20
-5.2045872047244091
11
1.7749028346456692
21
-5.2116141732283463
0
LINE
8
BLACK
6
CONTINUOUS
10
1.7749028346456692
20
-5.2116141732283463
11
1.778528188976378
21
-5.2193887795275593
0
LINE
8
BLACK
6
CONTINUOUS
10
1.778528188976378
20
-5.2193887795275593
11
1.7807484251968504
21
-5.2276748031496059
0
LINE
8
BLACK
6
CONTINUOUS
10
1.7807484251968504
20
-5.2276748031496059
11
1.7814960629921259
21
-5.2362204724409445
0
LINE
8
BLACK
6
CONTINUOUS
10
1.7814960629921259
20
-5.2362204724409445
11
1.7807484251968504
21
-5.2447661417322831
0
LINE
8
BLACK
6
CONTINUOUS
10
1.7807484251968504
20
-5.2447661417322831
11
1.778528188976378
21
-5.2530521653543305
0
LINE
8
BLACK
6
CONTINUOUS
10
1.778528188976378
20
-5.2530521653543305
11
1.7749028346456692
21
-5.2608267716535435
0
LINE
8
BLACK
6
CONTINUOUS
10
1.7749028346456692
20
-5.2608267716535435
11
1.7699825196850394
21
-5.2678537401574799
0
LINE
8
BLACK
6
CONTINUOUS
10
1.7699825196850394
20
-5.2678537401574799
11
1.7639167322834646
21
-5.2739195275590554
0
LINE
8
BLACK
6
CONTINUOUS
10
1.7639167322834646
20
-5.2739195275590554
11
1.7568897637795275
21
-5.2788398425196847
0
LINE
8
BLACK
6
CONTINUOUS
10
1.7568897637795275
20
-5.2788398425196847
11
1.749115157480315
21
-5.282465196850394
0
LINE
8
BLACK
6
CONTINUOUS
10
1.749115157480315
20
-5.282465196850394
11
1.7408291338582678
21
-5.2846854330708659
0
LINE
8
BLACK
6
CONTINUOUS
10
1.7408291338582678
20
-5.2846854330708659
11
1.7322834645669292
21
-5.2854330708661417
0
LINE
8
BLACK
6
CONTINUOUS
10
1.7322834645669292
20
-5.2854330708661417
11
1.7237377952755906
21
-5.2846854330708659
0
LINE
8
BLACK
6
CONTINUOUS
10
1.7237377952755906
20
-5.2846854330708659
11
1.7154517716535433
21
-5.282465196850394
0
LINE
8
BLACK
6
CONTINUOUS
10
1.7154517716535433
20
-5.282465196850394
11
1.7076771653543306
21
-5.2788398425196847
0
LINE
8
BLACK
6
CONTINUOUS
10
1.7076771653543306
20
-5.2788398425196847
11
1.7006501968503938
21
-5.2739195275590554
0
LINE
8
BLACK
6
CONTINUOUS
10
1.7006501968503938
20
-5.2739195275590554
11
1.6945844094488189
21
-5.2678537401574799
0
LINE
8
BLACK
6
CONTINUOUS
10
1.6945844094488189
20
-5.2678537401574799
11
1.6896640944881889
21
-5.2608267716535435
0
LINE
8
BLACK
6
CONTINUOUS
10
1.6896640944881889
20
-5.2608267716535435
11
1.6860387401574803
21
-5.2530521653543305
0
LINE
8
BLACK
6
CONTINUOUS
10
1.6860387401574803
20
-5.2530521653543305
11
1.6838185039370079
21
-5.2447661417322831
0
LINE
8
BLACK
6
CONTINUOUS
10
1.6838185039370079
20
-5.2447661417322831
11
1.6830708661417322
21
-5.2362204724409445
0
LINE
8
BLACK
6
CONTINUOUS
10
1.6830708661417322
20
-5.2362204724409445
11
1.6838185039370079
21
-5.2276748031496059
0
LINE
8
BLACK
6
CONTINUOUS
10
1.6838185039370079
20
-5.2276748031496059
11
1.6860387401574803
21
-5.2193887795275593
0
LINE
8
BLACK
6
CONTINUOUS
10
1.6860387401574803
20
-5.2193887795275593
11
1.6896640944881889
21
-5.2116141732283463
0
LINE
8
BLACK
6
CONTINUOUS
10
1.6896640944881889
20
-5.2116141732283463
11
1.6945844094488189
21
-5.2045872047244091
0
LINE
8
BLACK
6
CONTINUOUS
10
1.6945844094488189
20
-5.2045872047244091
11
1.7006501968503938
21
-5.1985214173228345
0
LINE
8
BLACK
6
CONTINUOUS
10
1.7006501968503938
20
-5.1985214173228345
11
1.7076771653543306
21
-5.1936011023622042
0
LINE
8
BLACK
6
CONTINUOUS
10
1.7076771653543306
20
-5.1936011023622042
11
1.7154517716535433
21
-5.1899757480314959
0
LINE
8
BLACK
6
CONTINUOUS
10
1.7154517716535433
20
-5.1899757480314959
11
1.7237377952755906
21
-5.1877555118110239
0
LINE
8
BLACK
6
CONTINUOUS
10
1.7237377952755906
20
-5.1877555118110239
11
1.7322834645669292
21
-5.1870078740157481
0
LINE
8
BLACK
6
CONTINUOUS
10
1.7322834645669292
20
-5.1870078740157481
11
1.7408291338582678
21
-5.1877555118110239
0
LINE
8
BLACK
6
CONTINUOUS
10
6.7014590551181099
20
-5.1877555118110239
11
6.7097450787401574
21
-5.1899757480314959
0
LINE
8
BLACK
6
CONTINUOUS
10
6.7097450787401574
20
-5.1899757480314959
11
6.7175196850393704
21
-5.1936011023622042
0
LINE
8
BLACK
6
CONTINUOUS
10
6.7175196850393704
20
-5.1936011023622042
11
6.7245466535433067
21
-5.1985214173228345
0
LINE
8
BLACK
6
CONTINUOUS
10
6.7245466535433067
20
-5.1985214173228345
11
6.7306124409448813
21
-5.2045872047244091
0
LINE
8
BLACK
6
CONTINUOUS
10
6.7306124409448813
20
-5.2045872047244091
11
6.7355327559055116
21
-5.2116141732283463
0
LINE
8
BLACK
6
CONTINUOUS
10
6.7355327559055116
20
-5.2116141732283463
11
6.7391581102362199
21
-5.2193887795275593
0
LINE
8
BLACK
6
CONTINUOUS
10
6.7391581102362199
20
-5.2193887795275593
11
6.7413783464566928
21
-5.2276748031496059
0
LINE
8
BLACK
6
CONTINUOUS
10
6.7413783464566928
20
-5.2276748031496059
11
6.7421259842519685
21
-5.2362204724409445
0
LINE
8
BLACK
6
CONTINUOUS
10
6.7421259842519685
20
-5.2362204724409445
11
6.7413783464566928
21
-5.2447661417322831
0
LINE
8
BLACK
6
CONTINUOUS
10
6.7413783464566928
20
-5.2447661417322831
11
6.7391581102362199
21
-5.2530521653543305
0
LINE
8
BLACK
6
CONTINUOUS
10
6.7391581102362199
20
-5.2530521653543305
11
6.7355327559055116
21
-5.2608267716535435
0
LINE
8
BLACK
6
CONTINUOUS
10
6.7355327559055116
20
-5.2608267716535435
11
6.7306124409448813
21
-5.2678537401574799
0
LINE
8
BLACK
6
CONTINUOUS
10
6.7306124409448813
20
-5.2678537401574799
11
6.7245466535433067
21
-5.2739195275590554
0
LINE
8
BLACK
6
CONTINUOUS
10
6.7245466535433067
20
-5.2739195275590554
11
6.7175196850393704
21
-5.2788398425196847
0
LINE
8
BLACK
6
CONTINUOUS
10
6.7175196850393704
20
-5.2788398425196847
11
6.7097450787401574
21
-5.282465196850394
0
LINE
8
BLACK
6
CONTINUOUS
10
6.7097450787401574
20
-5.282465196850394
11
6.7014590551181099
21
-5.2846854330708659
0
LINE
8
BLACK
6
CONTINUOUS
10
6.7014590551181099
20
-5.2846854330708659
11
6.6929133858267713
21
-5.2854330708661417
0
LINE
8
BLACK
6
CONTINUOUS
10
6.6929133858267713
20
-5.2854330708661417
11
6.6843677165354327
21
-5.2846854330708659
0
LINE
8
BLACK
6
CONTINUOUS
10
6.6843677165354327
20
-5.2846854330708659
11
6.6760816929133853
21
-5.282465196850394
0
LINE
8
BLACK
6
CONTINUOUS
10
6.6760816929133853
20
-5.282465196850394
11
6.6683070866141732
21
-5.2788398425196847
0
LINE
8
BLACK
6
CONTINUOUS
10
6.6683070866141732
20
-5.2788398425196847
11
6.6612801181102359
21
-5.2739195275590554
0
LINE
8
BLACK
6
CONTINUOUS
10
6.6612801181102359
20
-5.2739195275590554
11
6.6552143307086613
21
-5.2678537401574799
0
LINE
8
BLACK
6
CONTINUOUS
10
6.6552143307086613
20
-5.2678537401574799
11
6.650294015748031
21
-5.2608267716535435
0
LINE
8
BLACK
6
CONTINUOUS
10
6.650294015748031
20
-5.2608267716535435
11
6.6466686614173227
21
-5.2530521653543305
0
LINE
8
BLACK
6
CONTINUOUS
10
6.6466686614173227
20
-5.2530521653543305
11
6.6444484251968499
21
-5.2447661417322831
0
LINE
8
BLACK
6
CONTINUOUS
10
6.6444484251968499
20
-5.2447661417322831
11
6.643700787401575
21
-5.2362204724409445
0
LINE
8
BLACK
6
CONTINUOUS
10
6.643700787401575
20
-5.2362204724409445
11
6.6444484251968499
21
-5.2276748031496059
0
LINE
8
BLACK
6
CONTINUOUS
10
6.6444484251968499
20
-5.2276748031496059
11
6.6466686614173227
21
-5.2193887795275593
0
LINE
8
BLACK
6
CONTINUOUS
10
6.6466686614173227
20
-5.2193887795275593
11
6.650294015748031
21
-5.2116141732283463
0
LINE
8
BLACK
6
CONTINUOUS
10
6.650294015748031
20
-5.2116141732283463
11
6.6552143307086613
21
-5.2045872047244091
0
LINE
8
BLACK
6
CONTINUOUS
10
6.6552143307086613
20
-5.2045872047244091
11
6.6612801181102359
21
-5.1985214173228345
0
LINE
8
BLACK
6
CONTINUOUS
10
6.6612801181102359
20
-5.1985214173228345
11
6.6683070866141732
21
-5.1936011023622042
0
LINE
8
BLACK
6
CONTINUOUS
10
6.6683070866141732
20
-5.1936011023622042
11
6.6760816929133853
21
-5.1899757480314959
0
LINE
8
BLACK
6
CONTINUOUS
10
6.6760816929133853
20
-5.1899757480314959
11
6.6843677165354327
21
-5.1877555118110239
0
LINE
8
BLACK
6
CONTINUOUS
10
6.6843677165354327
20
-5.1877555118110239
11
6.6929133858267713
21
-5.1870078740157481
0
LINE
8
BLACK
6
CONTINUOUS
10
6.6929133858267713
20
-5.1870078740157481
11
6.7014590551181099
21
-5.1877555118110239
0
LINE
8
BLACK
6
CONTINUOUS
10
2.160562440944882
20
-4.9426229527559054
11
2.1701212598425195
21
-4.945571456692913
0
LINE
8
BLACK
6
CONTINUOUS
10
2.1701212598425195
20
-4.945571456692913
11
2.1791338582677167
21
-4.9499116929133855
0
LINE
8
BLACK
6
CONTINUOUS
10
2.1791338582677167
20
-4.9499116929133855
11
2.1873989370078739
21
-4.9555466929133853
0
LINE
8
BLACK
6
CONTINUOUS
10
2.1873989370078739
20
-4.9555466929133853
11
2.194731811023622
21
-4.9623506299212599
0
LINE
8
BLACK
6
CONTINUOUS
10
2.194731811023622
20
-4.9623506299212599
11
2.2009687401574802
21
-4.9701714960629921
0
LINE
8
BLACK
6
CONTINUOUS
10
2.2009687401574802
20
-4.9701714960629921
11
2.2059703543307085
21
-4.9788345669291338
0
LINE
8
BLACK
6
CONTINUOUS
10
2.2059703543307085
20
-4.9788345669291338
11
2.2096249606299212
21
-4.9881462992125982
0
LINE
8
BLACK
6
CONTINUOUS
10
2.2096249606299212
20
-4.9881462992125982
11
2.2118508661417322
21
-4.9978987401574804
0
LINE
8
BLACK
6
CONTINUOUS
10
2.2118508661417322
20
-4.9978987401574804
11
2.2125984251968505
21
-5.0078740157480315
0
LINE
8
BLACK
6
CONTINUOUS
10
2.2125984251968505
20
-5.0078740157480315
11
2.2118508661417322
21
-5.0178492913385826
0
LINE
8
BLACK
6
CONTINUOUS
10
2.2118508661417322
20
-5.0178492913385826
11
2.2096249606299212
21
-5.0276017322834647
0
LINE
8
BLACK
6
CONTINUOUS
10
2.2096249606299212
20
-5.0276017322834647
11
2.2059703543307085
21
-5.0369134645669291
0
LINE
8
BLACK
6
CONTINUOUS
10
2.2059703543307085
20
-5.0369134645669291
11
2.2009687401574802
21
-5.0455765354330708
0
LINE
8
BLACK
6
CONTINUOUS
10
2.2009687401574802
20
-5.0455765354330708
11
2.194731811023622
21
-5.0533974015748031
0
LINE
8
BLACK
6
CONTINUOUS
10
2.194731811023622
20
-5.0533974015748031
11
2.1873989370078739
21
-5.0602013385826767
0
LINE
8
BLACK
6
CONTINUOUS
10
2.1873989370078739
20
-5.0602013385826767
11
2.1791338582677167
21
-5.0658363385826775
0
LINE
8
BLACK
6
CONTINUOUS
10
2.1791338582677167
20
-5.0658363385826775
11
2.1701212598425195
21
-5.0701765748031491
0
LINE
8
BLACK
6
CONTINUOUS
10
2.1701212598425195
20
-5.0701765748031491
11
2.160562440944882
21
-5.0731250787401576
0
LINE
8
BLACK
6
CONTINUOUS
10
2.160562440944882
20
-5.0731250787401576
11
2.1506709055118112
21
-5.0746159842519685
0
LINE
8
BLACK
6
CONTINUOUS
10
2.1506709055118112
20
-5.0746159842519685
11
2.1406676771653541
21
-5.0746159842519685
0
LINE
8
BLACK
6
CONTINUOUS
10
2.1406676771653541
20
-5.0746159842519685
11
2.1307761417322832
21
-5.0731250787401576
0
LINE
8
BLACK
6
CONTINUOUS
10
2.1307761417322832
20
-5.0731250787401576
11
2.1212173228346458
21
-5.0701765748031491
0
LINE
8
BLACK
6
CONTINUOUS
10
2.1212173228346458
20
-5.0701765748031491
11
2.1122047244094486
21
-5.0658363385826775
0
LINE
8
BLACK
6
CONTINUOUS
10
2.1122047244094486
20
-5.0658363385826775
11
2.1039396456692914
21
-5.0602013385826767
0
LINE
8
BLACK
6
CONTINUOUS
10
2.1039396456692914
20
-5.0602013385826767
11
2.0966067716535433
21
-5.0533974015748031
0
LINE
8
BLACK
6
CONTINUOUS
10
2.0966067716535433
20
-5.0533974015748031
11
2.0903698425196851
21
-5.0455765354330708
0
LINE
8
BLACK
6
CONTINUOUS
10
2.0903698425196851
20
-5.0455765354330708
11
2.0853682283464567
21
-5.0369134645669291
0
LINE
8
BLACK
6
CONTINUOUS
10
2.0853682283464567
20
-5.0369134645669291
11
2.0817136220472441
21
-5.0276017322834647
0
LINE
8
BLACK
6
CONTINUOUS
10
2.0817136220472441
20
-5.0276017322834647
11
2.0794877165354331
21
-5.0178492913385826
0
LINE
8
BLACK
6
CONTINUOUS
10
2.0794877165354331
20
-5.0178492913385826
11
2.0787401574803148
21
-5.0078740157480315
0
LINE
8
BLACK
6
CONTINUOUS
10
2.0787401574803148
20
-5.0078740157480315
11
2.0794877165354331
21
-4.9978987401574804
0
LINE
8
BLACK
6
CONTINUOUS
10
2.0794877165354331
20
-4.9978987401574804
11
2.0817136220472441
21
-4.9881462992125982
0
LINE
8
BLACK
6
CONTINUOUS
10
2.0817136220472441
20
-4.9881462992125982
11
2.0853682283464567
21
-4.9788345669291338
0
LINE
8
BLACK
6
CONTINUOUS
10
2.0853682283464567
20
-4.9788345669291338
11
2.0903698425196851
21
-4.9701714960629921
0
LINE
8
BLACK
6
CONTINUOUS
10
2.0903698425196851
20
-4.9701714960629921
11
2.0966067716535433
21
-4.9623506299212599
0
LINE
8
BLACK
6
CONTINUOUS
10
2.0966067716535433
20
-4.9623506299212599
11
2.1039396456692914
21
-4.9555466929133853
0
LINE
8
BLACK
6
CONTINUOUS
10
2.1039396456692914
20
-4.9555466929133853
11
2.1122047244094486
21
-4.9499116929133855
0
LINE
8
BLACK
6
CONTINUOUS
10
2.1122047244094486
20
-4.9499116929133855
11
2.1212173228346458
21
-4.945571456692913
0
LINE
8
BLACK
6
CONTINUOUS
10
2.1212173228346458
20
-4.945571456692913
11
2.1307761417322832
21
-4.9426229527559054
0
LINE
8
BLACK
6
CONTINUOUS
10
2.1307761417322832
20
-4.9426229527559054
11
2.1406676771653541
21
-4.9411320472440945
0
LINE
8
BLACK
6
CONTINUOUS
10
2.1406676771653541
20
-4.9411320472440945
11
2.1506709055118112
21
-4.9411320472440945
0
LINE
8
BLACK
6
CONTINUOUS
10
2.1506709055118112
20
-4.9411320472440945
11
2.160562440944882
21
-4.9426229527559054
0
LINE
8
BLACK
6
CONTINUOUS
10
3.3416648031496061
20
-4.9426229527559054
11
3.351223622047244
21
-4.945571456692913
0
LINE
8
BLACK
6
CONTINUOUS
10
3.351223622047244
20
-4.945571456692913
11
3.3602362204724407
21
-4.9499116929133855
0
LINE
8
BLACK
6
CONTINUOUS
10
3.3602362204724407
20
-4.9499116929133855
11
3.3685012992125984
21
-4.9555466929133853
0
LINE
8
BLACK
6
CONTINUOUS
10
3.3685012992125984
20
-4.9555466929133853
11
3.3758341732283466
21
-4.9623506299212599
0
LINE
8
BLACK
6
CONTINUOUS
10
3.3758341732283466
20
-4.9623506299212599
11
3.3820711023622048
21
-4.9701714960629921
0
LINE
8
BLACK
6
CONTINUOUS
10
3.3820711023622048
20
-4.9701714960629921
11
3.3870727165354331
21
-4.9788345669291338
0
LINE
8
BLACK
6
CONTINUOUS
10
3.3870727165354331
20
-4.9788345669291338
11
3.3907273228346457
21
-4.9881462992125982
0
LINE
8
BLACK
6
CONTINUOUS
10
3.3907273228346457
20
-4.9881462992125982
11
3.3929532283464567
21
-4.9978987401574804
0
LINE
8
BLACK
6
CONTINUOUS
10
3.3929532283464567
20
-4.9978987401574804
11
3.3937007874015745
21
-5.0078740157480315
0
LINE
8
BLACK
6
CONTINUOUS
10
3.3937007874015745
20
-5.0078740157480315
11
3.3929532283464567
21
-5.0178492913385826
0
LINE
8
BLACK
6
CONTINUOUS
10
3.3929532283464567
20
-5.0178492913385826
11
3.3907273228346457
21
-5.0276017322834647
0
LINE
8
BLACK
6
CONTINUOUS
10
3.3907273228346457
20
-5.0276017322834647
11
3.3870727165354331
21
-5.0369134645669291
0
LINE
8
BLACK
6
CONTINUOUS
10
3.3870727165354331
20
-5.0369134645669291
11
3.3820711023622048
21
-5.0455765354330708
0
LINE
8
BLACK
6
CONTINUOUS
10
3.3820711023622048
20
-5.0455765354330708
11
3.3758341732283466
21
-5.0533974015748031
0
LINE
8
BLACK
6
CONTINUOUS
10
3.3758341732283466
20
-5.0533974015748031
11
3.3685012992125984
21
-5.0602013385826767
0
LINE
8
BLACK
6
CONTINUOUS
10
3.3685012992125984
20
-5.0602013385826767
11
3.3602362204724407
21
-5.0658363385826775
0
LINE
8
BLACK
6
CONTINUOUS
10
3.3602362204724407
20
-5.0658363385826775
11
3.351223622047244
21
-5.0701765748031491
0
LINE
8
BLACK
6
CONTINUOUS
10
3.351223622047244
20
-5.0701765748031491
11
3.3416648031496061
21
-5.0731250787401576
0
LINE
8
BLACK
6
CONTINUOUS
10
3.3416648031496061
20
-5.0731250787401576
11
3.3317732677165353
21
-5.0746159842519685
0
LINE
8
BLACK
6
CONTINUOUS
10
3.3317732677165353
20
-5.0746159842519685
11
3.3217700393700786
21
-5.0746159842519685
0
LINE
8
BLACK
6
CONTINUOUS
10
3.3217700393700786
20
-5.0746159842519685
11
3.3118785039370078
21
-5.0731250787401576
0
LINE
8
BLACK
6
CONTINUOUS
10
3.3118785039370078
20
-5.0731250787401576
11
3.3023196850393699
21
-5.0701765748031491
0
LINE
8
BLACK
6
CONTINUOUS
10
3.3023196850393699
20
-5.0701765748031491
11
3.2933070866141732
21
-5.0658363385826775
0
LINE
8
BLACK
6
CONTINUOUS
10
3.2933070866141732
20
-5.0658363385826775
11
3.2850420078740155
21
-5.0602013385826767
0
LINE
8
BLACK
6
CONTINUOUS
10
3.2850420078740155
20
-5.0602013385826767
11
3.2777091338582678
21
-5.0533974015748031
0
LINE
8
BLACK
6
CONTINUOUS
10
3.2777091338582678
20
-5.0533974015748031
11
3.2714722047244096
21
-5.0455765354330708
0
LINE
8
BLACK
6
CONTINUOUS
10
3.2714722047244096
20
-5.0455765354330708
11
3.2664705905511808
21
-5.0369134645669291
0
LINE
8
BLACK
6
CONTINUOUS
10
3.2664705905511808
20
-5.0369134645669291
11
3.2628159842519686
21
-5.0276017322834647
0
LINE
8
BLACK
6
CONTINUOUS
10
3.2628159842519686
20
-5.0276017322834647
11
3.2605900787401576
21
-5.0178492913385826
0
LINE
8
BLACK
6
CONTINUOUS
10
3.2605900787401576
20
-5.0178492913385826
11
3.2598425196850394
21
-5.0078740157480315
0
LINE
8
BLACK
6
CONTINUOUS
10
3.2598425196850394
20
-5.0078740157480315
11
3.2605900787401576
21
-4.9978987401574804
0
LINE
8
BLACK
6
CONTINUOUS
10
3.2605900787401576
20
-4.9978987401574804
11
3.2628159842519686
21
-4.9881462992125982
0
LINE
8
BLACK
6
CONTINUOUS
10
3.2628159842519686
20
-4.9881462992125982
11
3.2664705905511808
21
-4.9788345669291338
0
LINE
8
BLACK
6
CONTINUOUS
10
3.2664705905511808
20
-4.9788345669291338
11
3.2714722047244096
21
-4.9701714960629921
0
LINE
8
BLACK
6
CONTINUOUS
10
3.2714722047244096
20
-4.9701714960629921
11
3.2777091338582678
21
-4.9623506299212599
0
LINE
8
BLACK
6
CONTINUOUS
10
3.2777091338582678
20
-4.9623506299212599
11
3.2850420078740155
21
-4.9555466929133853
0
LINE
8
BLACK
6
CONTINUOUS
10
3.2850420078740155
20
-4.9555466929133853
11
3.2933070866141732
21
-4.9499116929133855
0
LINE
8
BLACK
6
CONTINUOUS
10
3.2933070866141732
20
-4.9499116929133855
11
3.3023196850393699
21
-4.945571456692913
0
LINE
8
BLACK
6
CONTINUOUS
10
3.3023196850393699
20
-4.945571456692913
11
3.3118785039370078
21
-4.9426229527559054
0
LINE
8
BLACK
6
CONTINUOUS
10
3.3118785039370078
20
-4.9426229527559054
11
3.3217700393700786
21
-4.9411320472440945
0
LINE
8
BLACK
6
CONTINUOUS
10
3.3217700393700786
20
-4.9411320472440945
11
3.3317732677165353
21
-4.9411320472440945
0
LINE
8
BLACK
6
CONTINUOUS
10
3.3317732677165353
20
-4.9411320472440945
11
3.3416648031496061
21
-4.9426229527559054
0
LINE
8
BLACK
6
CONTINUOUS
10
5.1133183464566931
20
-4.9426229527559054
11
5.122877165354331
21
-4.945571456692913
0
LINE
8
BLACK
6
CONTINUOUS
10
5.122877165354331
20
-4.945571456692913
11
5.1318897637795278
21
-4.9499116929133855
0
LINE
8
BLACK
6
CONTINUOUS
10
5.1318897637795278
20
-4.9499116929133855
11
5.140154842519685
21
-4.9555466929133853
0
LINE
8
BLACK
6
CONTINUOUS
10
5.140154842519685
20
-4.9555466929133853
11
5.1474877165354327
21
-4.9623506299212599
0
LINE
8
BLACK
6
CONTINUOUS
10
5.1474877165354327
20
-4.9623506299212599
11
5.1537246456692909
21
-4.9701714960629921
0
LINE
8
BLACK
6
CONTINUOUS
10
5.1537246456692909
20
-4.9701714960629921
11
5.1587262598425196
21
-4.9788345669291338
0
LINE
8
BLACK
6
CONTINUOUS
10
5.1587262598425196
20
-4.9788345669291338
11
5.1623808661417323
21
-4.9881462992125982
0
LINE
8
BLACK
6
CONTINUOUS
10
5.1623808661417323
20
-4.9881462992125982
11
5.1646067716535429
21
-4.9978987401574804
0
LINE
8
BLACK
6
CONTINUOUS
10
5.1646067716535429
20
-4.9978987401574804
11
5.1653543307086611
21
-5.0078740157480315
0
LINE
8
BLACK
6
CONTINUOUS
10
5.1653543307086611
20
-5.0078740157480315
11
5.1646067716535429
21
-5.0178492913385826
0
LINE
8
BLACK
6
CONTINUOUS
10
5.1646067716535429
20
-5.0178492913385826
11
5.1623808661417323
21
-5.0276017322834647
0
LINE
8
BLACK
6
CONTINUOUS
10
5.1623808661417323
20
-5.0276017322834647
11
5.1587262598425196
21
-5.0369134645669291
0
LINE
8
BLACK
6
CONTINUOUS
10
5.1587262598425196
20
-5.0369134645669291
11
5.1537246456692909
21
-5.0455765354330708
0
LINE
8
BLACK
6
CONTINUOUS
10
5.1537246456692909
20
-5.0455765354330708
11
5.1474877165354327
21
-5.0533974015748031
0
LINE
8
BLACK
6
CONTINUOUS
10
5.1474877165354327
20
-5.0533974015748031
11
5.140154842519685
21
-5.0602013385826767
0
LINE
8
BLACK
6
CONTINUOUS
10
5.140154842519685
20
-5.0602013385826767
11
5.1318897637795278
21
-5.0658363385826775
0
LINE
8
BLACK
6
CONTINUOUS
10
5.1318897637795278
20
-5.0658363385826775
11
5.122877165354331
21
-5.0701765748031491
0
LINE
8
BLACK
6
CONTINUOUS
10
5.122877165354331
20
-5.0701765748031491
11
5.1133183464566931
21
-5.0731250787401576
0
LINE
8
BLACK
6
CONTINUOUS
10
5.1133183464566931
20
-5.0731250787401576
11
5.1034268110236223
21
-5.0746159842519685
0
LINE
8
BLACK
6
CONTINUOUS
10
5.1034268110236223
20
-5.0746159842519685
11
5.0934235826771657
21
-5.0746159842519685
0
LINE
8
BLACK
6
CONTINUOUS
10
5.0934235826771657
20
-5.0746159842519685
11
5.0835320472440948
21
-5.0731250787401576
0
LINE
8
BLACK
6
CONTINUOUS
10
5.0835320472440948
20
-5.0731250787401576
11
5.0739732283464569
21
-5.0701765748031491
0
LINE
8
BLACK
6
CONTINUOUS
10
5.0739732283464569
20
-5.0701765748031491
11
5.0649606299212602
21
-5.0658363385826775
0
LINE
8
BLACK
6
CONTINUOUS
10
5.0649606299212602
20
-5.0658363385826775
11
5.056695551181102
21
-5.0602013385826767
0
LINE
8
BLACK
6
CONTINUOUS
10
5.056695551181102
20
-5.0602013385826767
11
5.0493626771653544
21
-5.0533974015748031
0
LINE
8
BLACK
6
CONTINUOUS
10
5.0493626771653544
20
-5.0533974015748031
11
5.0431257480314962
21
-5.0455765354330708
0
LINE
8
BLACK
6
CONTINUOUS
10
5.0431257480314962
20
-5.0455765354330708
11
5.0381241338582674
21
-5.0369134645669291
0
LINE
8
BLACK
6
CONTINUOUS
10
5.0381241338582674
20
-5.0369134645669291
11
5.0344695275590547
21
-5.0276017322834647
0
LINE
8
BLACK
6
CONTINUOUS
10
5.0344695275590547
20
-5.0276017322834647
11
5.0322436220472442
21
-5.0178492913385826
0
LINE
8
BLACK
6
CONTINUOUS
10
5.0322436220472442
20
-5.0178492913385826
11
5.0314960629921259
21
-5.0078740157480315
0
LINE
8
BLACK
6
CONTINUOUS
10
5.0314960629921259
20
-5.0078740157480315
11
5.0322436220472442
21
-4.9978987401574804
0
LINE
8
BLACK
6
CONTINUOUS
10
5.0322436220472442
20
-4.9978987401574804
11
5.0344695275590547
21
-4.9881462992125982
0
LINE
8
BLACK
6
CONTINUOUS
10
5.0344695275590547
20
-4.9881462992125982
11
5.0381241338582674
21
-4.9788345669291338
0
LINE
8
BLACK
6
CONTINUOUS
10
5.0381241338582674
20
-4.9788345669291338
11
5.0431257480314962
21
-4.9701714960629921
0
LINE
8
BLACK
6
CONTINUOUS
10
5.0431257480314962
20
-4.9701714960629921
11
5.0493626771653544
21
-4.9623506299212599
0
LINE
8
BLACK
6
CONTINUOUS
10
5.0493626771653544
20
-4.9623506299212599
11
5.056695551181102
21
-4.9555466929133853
0
LINE
8
BLACK
6
CONTINUOUS
10
5.056695551181102
20
-4.9555466929133853
11
5.0649606299212602
21
-4.9499116929133855
0
LINE
8
BLACK
6
CONTINUOUS
10
5.0649606299212602
20
-4.9499116929133855
11
5.0739732283464569
21
-4.945571456692913
0
LINE
8
BLACK
6
CONTINUOUS
10
5.0739732283464569
20
-4.945571456692913
11
5.0835320472440948
21
-4.9426229527559054
0
LINE
8
BLACK
6
CONTINUOUS
10
5.0835320472440948
20
-4.9426229527559054
11
5.0934235826771657
21
-4.9411320472440945
0
LINE
8
BLACK
6
CONTINUOUS
10
5.0934235826771657
20
-4.9411320472440945
11
5.1034268110236223
21
-4.9411320472440945
0
LINE
8
BLACK
6
CONTINUOUS
10
5.1034268110236223
20
-4.9411320472440945
11
5.1133183464566931
21
-4.9426229527559054
0
LINE
8
BLACK
6
CONTINUOUS
10
6.2944207086614172
20
-4.9426229527559054
11
6.3039795275590551
21
-4.945571456692913
0
LINE
8
BLACK
6
CONTINUOUS
10
6.3039795275590551
20
-4.945571456692913
11
6.3129921259842519
21
-4.9499116929133855
0
LINE
8
BLACK
6
CONTINUOUS
10
6.3129921259842519
20
-4.9499116929133855
11
6.3212572047244091
21
-4.9555466929133853
0
LINE
8
BLACK
6
CONTINUOUS
10
6.3212572047244091
20
-4.9555466929133853
11
6.3285900787401577
21
-4.9623506299212599
0
LINE
8
BLACK
6
CONTINUOUS
10
6.3285900787401577
20
-4.9623506299212599
11
6.3348270078740159
21
-4.9701714960629921
0
LINE
8
BLACK
6
CONTINUOUS
10
6.3348270078740159
20
-4.9701714960629921
11
6.3398286220472437
21
-4.9788345669291338
0
LINE
8
BLACK
6
CONTINUOUS
10
6.3398286220472437
20
-4.9788345669291338
11
6.3434832283464564
21
-4.9881462992125982
0
LINE
8
BLACK
6
CONTINUOUS
10
6.3434832283464564
20
-4.9881462992125982
11
6.3457091338582678
21
-4.9978987401574804
0
LINE
8
BLACK
6
CONTINUOUS
10
6.3457091338582678
20
-4.9978987401574804
11
6.3464566929133861
21
-5.0078740157480315
0
LINE
8
BLACK
6
CONTINUOUS
10
6.3464566929133861
20
-5.0078740157480315
11
6.3457091338582678
21
-5.0178492913385826
0
LINE
8
BLACK
6
CONTINUOUS
10
6.3457091338582678
20
-5.0178492913385826
11
6.3434832283464564
21
-5.0276017322834647
0
LINE
8
BLACK
6
CONTINUOUS
10
6.3434832283464564
20
-5.0276017322834647
11
6.3398286220472437
21
-5.0369134645669291
0
LINE
8
BLACK
6
CONTINUOUS
10
6.3398286220472437
20
-5.0369134645669291
11
6.3348270078740159
21
-5.0455765354330708
0
LINE
8
BLACK
6
CONTINUOUS
10
6.3348270078740159
20
-5.0455765354330708
11
6.3285900787401577
21
-5.0533974015748031
0
LINE
8
BLACK
6
CONTINUOUS
10
6.3285900787401577
20
-5.0533974015748031
11
6.3212572047244091
21
-5.0602013385826767
0
LINE
8
BLACK
6
CONTINUOUS
10
6.3212572047244091
20
-5.0602013385826767
11
6.3129921259842519
21
-5.0658363385826775
0
LINE
8
BLACK
6
CONTINUOUS
10
6.3129921259842519
20
-5.0658363385826775
11
6.3039795275590551
21
-5.0701765748031491
0
LINE
8
BLACK
6
CONTINUOUS
10
6.3039795275590551
20
-5.0701765748031491
11
6.2944207086614172
21
-5.0731250787401576
0
LINE
8
BLACK
6
CONTINUOUS
10
6.2944207086614172
20
-5.0731250787401576
11
6.2845291732283464
21
-5.0746159842519685
0
LINE
8
BLACK
6
CONTINUOUS
10
6.2845291732283464
20
-5.0746159842519685
11
6.2745259448818897
21
-5.0746159842519685
0
LINE
8
BLACK
6
CONTINUOUS
10
6.2745259448818897
20
-5.0746159842519685
11
6.2646344094488189
21
-5.0731250787401576
0
LINE
8
BLACK
6
CONTINUOUS
10
6.2646344094488189
20
-5.0731250787401576
11
6.255075590551181
21
-5.0701765748031491
0
LINE
8
BLACK
6
CONTINUOUS
10
6.255075590551181
20
-5.0701765748031491
11
6.2460629921259843
21
-5.0658363385826775
0
LINE
8
BLACK
6
CONTINUOUS
10
6.2460629921259843
20
-5.0658363385826775
11
6.237797913385827
21
-5.0602013385826767
0
LINE
8
BLACK
6
CONTINUOUS
10
6.237797913385827
20
-5.0602013385826767
11
6.2304650393700785
21
-5.0533974015748031
0
LINE
8
BLACK
6
CONTINUOUS
10
6.2304650393700785
20
-5.0533974015748031
11
6.2242281102362202
21
-5.0455765354330708
0
LINE
8
BLACK
6
CONTINUOUS
10
6.2242281102362202
20
-5.0455765354330708
11
6.2192264960629924
21
-5.0369134645669291
0
LINE
8
BLACK
6
CONTINUOUS
10
6.2192264960629924
20
-5.0369134645669291
11
6.2155718897637797
21
-5.0276017322834647
0
LINE
8
BLACK
6
CONTINUOUS
10
6.2155718897637797
20
-5.0276017322834647
11
6.2133459842519683
21
-5.0178492913385826
0
LINE
8
BLACK
6
CONTINUOUS
10
6.2133459842519683
20
-5.0178492913385826
11
6.21259842519685
21
-5.0078740157480315
0
LINE
8
BLACK
6
CONTINUOUS
10
6.21259842519685
20
-5.0078740157480315
11
6.2133459842519683
21
-4.9978987401574804
0
LINE
8
BLACK
6
CONTINUOUS
10
6.2133459842519683
20
-4.9978987401574804
11
6.2155718897637797
21
-4.9881462992125982
0
LINE
8
BLACK
6
CONTINUOUS
10
6.2155718897637797
20
-4.9881462992125982
11
6.2192264960629924
21
-4.9788345669291338
0
LINE
8
BLACK
6
CONTINUOUS
10
6.2192264960629924
20
-4.9788345669291338
11
6.2242281102362202
21
-4.9701714960629921
0
LINE
8
BLACK
6
CONTINUOUS
10
6.2242281102362202
20
-4.9701714960629921
11
6.2304650393700785
21
-4.9623506299212599
0
LINE
8
BLACK
6
CONTINUOUS
10
6.2304650393700785
20
-4.9623506299212599
11
6.237797913385827
21
-4.9555466929133853
0
LINE
8
BLACK
6
CONTINUOUS
10
6.237797913385827
20
-4.9555466929133853
11
6.2460629921259843
21
-4.9499116929133855
0
LINE
8
BLACK
6
CONTINUOUS
10
6.2460629921259843
20
-4.9499116929133855
11
6.255075590551181
21
-4.945571456692913
0
LINE
8
BLACK
6
CONTINUOUS
10
6.255075590551181
20
-4.945571456692913
11
6.2646344094488189
21
-4.9426229527559054
0
LINE
8
BLACK
6
CONTINUOUS
10
6.2646344094488189
20
-4.9426229527559054
11
6.2745259448818897
21
-4.9411320472440945
0
LINE
8
BLACK
6
CONTINUOUS
10
6.2745259448818897
20
-4.9411320472440945
11
6.2845291732283464
21
-4.9411320472440945
0
LINE
8
BLACK
6
CONTINUOUS
10
6.2845291732283464
20
-4.9411320472440945
11
6.2944207086614172
21
-4.9426229527559054
0
LINE
8
BLACK
6
CONTINUOUS
10
4.2211440944881886
20
-4.0066531496062989
11
4.2294301181102361
21
-4.0088733858267718
0
LINE
8
BLACK
6
CONTINUOUS
10
4.2294301181102361
20
-4.0088733858267718
11
4.2372047244094491
21
-4.0124987401574801
0
LINE
8
BLACK
6
CONTINUOUS
10
4.2372047244094491
20
-4.0124987401574801
11
4.2442316929133854
21
-4.0174190551181104
0
LINE
8
BLACK
6
CONTINUOUS
10
4.2442316929133854
20
-4.0174190551181104
11
4.2502974803149609
21
-4.023484842519685
0
LINE
8
BLACK
6
CONTINUOUS
10
4.2502974803149609
20
-4.023484842519685
11
4.2552177952755903
21
-4.0305118110236222
0
LINE
8
BLACK
6
CONTINUOUS
10
4.2552177952755903
20
-4.0305118110236222
11
4.2588431496062995
21
-4.0382864173228343
0
LINE
8
BLACK
6
CONTINUOUS
10
4.2588431496062995
20
-4.0382864173228343
11
4.2610633858267715
21
-4.0465724409448818
0
LINE
8
BLACK
6
CONTINUOUS
10
4.2610633858267715
20
-4.0465724409448818
11
4.2618110236220472
21
-4.0551181102362204
0
LINE
8
BLACK
6
CONTINUOUS
10
4.2618110236220472
20
-4.0551181102362204
11
4.2610633858267715
21
-4.063663779527559
0
LINE
8
BLACK
6
CONTINUOUS
10
4.2610633858267715
20
-4.063663779527559
11
4.2588431496062995
21
-4.0719498031496064
0
LINE
8
BLACK
6
CONTINUOUS
10
4.2588431496062995
20
-4.0719498031496064
11
4.2552177952755903
21
-4.0797244094488185
0
LINE
8
BLACK
6
CONTINUOUS
10
4.2552177952755903
20
-4.0797244094488185
11
4.2502974803149609
21
-4.0867513779527558
0
LINE
8
BLACK
6
CONTINUOUS
10
4.2502974803149609
20
-4.0867513779527558
11
4.2442316929133854
21
-4.0928171653543304
0
LINE
8
BLACK
6
CONTINUOUS
10
4.2442316929133854
20
-4.0928171653543304
11
4.2372047244094491
21
-4.0977374803149607
0
LINE
8
BLACK
6
CONTINUOUS
10
4.2372047244094491
20
-4.0977374803149607
11
4.2294301181102361
21
-4.101362834645669
0
LINE
8
BLACK
6
CONTINUOUS
10
4.2294301181102361
20
-4.101362834645669
11
4.2211440944881886
21
-4.1035830708661418
0
LINE
8
BLACK
6
CONTINUOUS
10
4.2211440944881886
20
-4.1035830708661418
11
4.21259842519685
21
-4.1043307086614176
0
LINE
8
BLACK
6
CONTINUOUS
10
4.21259842519685
20
-4.1043307086614176
11
4.2040527559055114
21
-4.1035830708661418
0
LINE
8
BLACK
6
CONTINUOUS
10
4.2040527559055114
20
-4.1035830708661418
11
4.1957667322834649
21
-4.101362834645669
0
LINE
8
BLACK
6
CONTINUOUS
10
4.1957667322834649
20
-4.101362834645669
11
4.1879921259842519
21
-4.0977374803149607
0
LINE
8
BLACK
6
CONTINUOUS
10
4.1879921259842519
20
-4.0977374803149607
11
4.1809651574803146
21
-4.0928171653543304
0
LINE
8
BLACK
6
CONTINUOUS
10
4.1809651574803146
20
-4.0928171653543304
11
4.17489937007874
21
-4.0867513779527558
0
LINE
8
BLACK
6
CONTINUOUS
10
4.17489937007874
20
-4.0867513779527558
11
4.1699790551181097
21
-4.0797244094488185
0
LINE
8
BLACK
6
CONTINUOUS
10
4.1699790551181097
20
-4.0797244094488185
11
4.1663537007874014
21
-4.0719498031496064
0
LINE
8
BLACK
6
CONTINUOUS
10
4.1663537007874014
20
-4.0719498031496064
11
4.1641334645669295
21
-4.063663779527559
0
LINE
8
BLACK
6
CONTINUOUS
10
4.1641334645669295
20
-4.063663779527559
11
4.1633858267716537
21
-4.0551181102362204
0
LINE
8
BLACK
6
CONTINUOUS
10
4.1633858267716537
20
-4.0551181102362204
11
4.1641334645669295
21
-4.0465724409448818
0
LINE
8
BLACK
6
CONTINUOUS
10
4.1641334645669295
20
-4.0465724409448818
11
4.1663537007874014
21
-4.0382864173228343
0
LINE
8
BLACK
6
CONTINUOUS
10
4.1663537007874014
20
-4.0382864173228343
11
4.1699790551181097
21
-4.0305118110236222
0
LINE
8
BLACK
6
CONTINUOUS
10
4.1699790551181097
20
-4.0305118110236222
11
4.17489937007874
21
-4.023484842519685
0
LINE
8
BLACK
6
CONTINUOUS
10
4.17489937007874
20
-4.023484842519685
11
4.1809651574803146
21
-4.0174190551181104
0
LINE
8
BLACK
6
CONTINUOUS
10
4.1809651574803146
20
-4.0174190551181104
11
4.1879921259842519
21
-4.0124987401574801
0
LINE
8
BLACK
6
CONTINUOUS
10
4.1879921259842519
20
-4.0124987401574801
11
4.1957667322834649
21
-4.0088733858267718
0
LINE
8
BLACK
6
CONTINUOUS
10
4.1957667322834649
20
-4.0088733858267718
11
4.2040527559055114
21
-4.0066531496062989
0
LINE
8
BLACK
6
CONTINUOUS
10
4.2040527559055114
20
-4.0066531496062989
11
4.21259842519685
21
-4.0059055118110232
0
LINE
8
BLACK
6
CONTINUOUS
10
4.21259842519685
20
-4.0059055118110232
11
4.2211440944881886
21
-4.0066531496062989
0
LINE
8
BLACK
6
CONTINUOUS
10
2.9188188976377951
20
-3.0579842519685037
11
2.8518897637795275
21
-3.0579842519685037
0
LINE
8
BLACK
6
CONTINUOUS
10
2.8518897637795275
20
-3.0579842519685037
11
2.8518897637795275
21
-2.916251968503937
0
LINE
8
BLACK
6
CONTINUOUS
10
2.8518897637795275
20
-2.916251968503937
11
2.9188188976377951
21
-2.916251968503937
0
LINE
8
BLACK
6
CONTINUOUS
10
2.9188188976377951
20
-2.916251968503937
11
2.9188188976377951
21
-3.0579842519685037
0
LINE
8
BLACK
6
CONTINUOUS
10
5.8715748031496062
20
-3.0579842519685037
11
5.8046456692913386
21
-3.0579842519685037
0
LINE
8
BLACK
6
CONTINUOUS
10
5.8046456692913386
20
-3.0579842519685037
11
5.8046456692913386
21
-2.916251968503937
0
LINE
8
BLACK
6
CONTINUOUS
10
5.8046456692913386
20
-2.916251968503937
11
5.8715748031496062
21
-2.916251968503937
0
LINE
8
BLACK
6
CONTINUOUS
10
5.8715748031496062
20
-2.916251968503937
11
5.8715748031496062
21
-3.0579842519685037
0
LINE
8
BLACK
6
CONTINUOUS
10
2.5950685826771651
20
-2.9196614566929133
11
2.6011294094488187
21
-2.9221719291338584
0
LINE
8
BLACK
6
CONTINUOUS
10
2.6011294094488187
20
-2.9221719291338584
11
2.6065840157480316
21
-2.9258165748031497
0
LINE
8
BLACK
6
CONTINUOUS
10
2.6065840157480316
20
-2.9258165748031497
11
2.6112227952755904
21
-2.9304553543307086
0
LINE
8
BLACK
6
CONTINUOUS
10
2.6112227952755904
20
-2.9304553543307086
11
2.6148674409448818
21
-2.935909960629921
0
LINE
8
BLACK
6
CONTINUOUS
10
2.6148674409448818
20
-2.935909960629921
11
2.6173779133858268
21
-2.9419707874015746
0
LINE
8
BLACK
6
CONTINUOUS
10
2.6173779133858268
20
-2.9419707874015746
11
2.6186577559055118
21
-2.9484049212598427
0
LINE
8
BLACK
6
CONTINUOUS
10
2.6186577559055118
20
-2.9484049212598427
11
2.6188188976377953
21
-2.9516850393700786
0
LINE
8
BLACK
6
CONTINUOUS
10
2.6188188976377953
20
-2.9516850393700786
11
2.6188188976377953
21
-3.022551181102362
0
LINE
8
BLACK
6
CONTINUOUS
10
2.6188188976377953
20
-3.022551181102362
11
2.6186577559055118
21
-3.0258312992125984
0
LINE
8
BLACK
6
CONTINUOUS
10
2.6186577559055118
20
-3.0258312992125984
11
2.6173779133858268
21
-3.032265433070866
0
LINE
8
BLACK
6
CONTINUOUS
10
2.6173779133858268
20
-3.032265433070866
11
2.6148674409448818
21
-3.0383262598425196
0
LINE
8
BLACK
6
CONTINUOUS
10
2.6148674409448818
20
-3.0383262598425196
11
2.6112227952755904
21
-3.043780866141732
0
LINE
8
BLACK
6
CONTINUOUS
10
2.6112227952755904
20
-3.043780866141732
11
2.6065840157480316
21
-3.0484196456692914
0
LINE
8
BLACK
6
CONTINUOUS
10
2.6065840157480316
20
-3.0484196456692914
11
2.6011294094488187
21
-3.0520642913385827
0
LINE
8
BLACK
6
CONTINUOUS
10
2.6011294094488187
20
-3.0520642913385827
11
2.5950685826771651
21
-3.0545747637795273
0
LINE
8
BLACK
6
CONTINUOUS
10
2.5950685826771651
20
-3.0545747637795273
11
2.5886344488188975
21
-3.0558546062992127
0
LINE
8
BLACK
6
CONTINUOUS
10
2.5886344488188975
20
-3.0558546062992127
11
2.5820742125984251
21
-3.0558546062992127
0
LINE
8
BLACK
6
CONTINUOUS
10
2.5820742125984251
20
-3.0558546062992127
11
2.5756400787401574
21
-3.0545747637795273
0
LINE
8
BLACK
6
CONTINUOUS
10
2.5756400787401574
20
-3.0545747637795273
11
2.5695792519685039
21
-3.0520642913385827
0
LINE
8
BLACK
6
CONTINUOUS
10
2.5695792519685039
20
-3.0520642913385827
11
2.5641246456692914
21
-3.0484196456692914
0
LINE
8
BLACK
6
CONTINUOUS
10
2.5641246456692914
20
-3.0484196456692914
11
2.5594858661417321
21
-3.043780866141732
0
LINE
8
BLACK
6
CONTINUOUS
10
2.5594858661417321
20
-3.043780866141732
11
2.5558412204724408
21
-3.0383262598425196
0
LINE
8
BLACK
6
CONTINUOUS
10
2.5558412204724408
20
-3.0383262598425196
11
2.5533307480314962
21
-3.032265433070866
0
LINE
8
BLACK
6
CONTINUOUS
10
2.5533307480314962
20
-3.032265433070866
11
2.5520509055118108
21
-3.0258312992125984
0
LINE
8
BLACK
6
CONTINUOUS
10
2.5520509055118108
20
-3.0258312992125984
11
2.5518897637795277
21
-3.022551181102362
0
LINE
8
BLACK
6
CONTINUOUS
10
2.5518897637795277
20
-3.022551181102362
11
2.5518897637795277
21
-2.9516850393700786
0
LINE
8
BLACK
6
CONTINUOUS
10
2.5518897637795277
20
-2.9516850393700786
11
2.5520509055118108
21
-2.9484049212598427
0
LINE
8
BLACK
6
CONTINUOUS
10
2.5520509055118108
20
-2.9484049212598427
11
2.5533307480314962
21
-2.9419707874015746
0
LINE
8
BLACK
6
CONTINUOUS
10
2.5533307480314962
20
-2.9419707874015746
11
2.5558412204724408
21
-2.935909960629921
0
LINE
8
BLACK
6
CONTINUOUS
10
2.5558412204724408
20
-2.935909960629921
11
2.5594858661417321
21
-2.9304553543307086
0
LINE
8
BLACK
6
CONTINUOUS
10
2.5594858661417321
20
-2.9304553543307086
11
2.5641246456692914
21
-2.9258165748031497
0
LINE
8
BLACK
6
CONTINUOUS
10
2.5641246456692914
20
-2.9258165748031497
11
2.5695792519685039
21
-2.9221719291338584
0
LINE
8
BLACK
6
CONTINUOUS
10
2.5695792519685039
20
-2.9221719291338584
11
2.5756400787401574
21
-2.9196614566929133
0
LINE
8
BLACK
6
CONTINUOUS
10
2.5756400787401574
20
-2.9196614566929133
11
2.5820742125984251
21
-2.9183816141732284
0
LINE
8
BLACK
6
CONTINUOUS
10
2.5820742125984251
20
-2.9183816141732284
11
2.5886344488188975
21
-2.9183816141732284
0
LINE
8
BLACK
6
CONTINUOUS
10
2.5886344488188975
20
-2.9183816141732284
11
2.5950685826771651
21
-2.9196614566929133
0
LINE
8
BLACK
6
CONTINUOUS
10
2.6950685826771652
20
-2.9196614566929133
11
2.7011294094488187
21
-2.9221719291338584
0
LINE
8
BLACK
6
CONTINUOUS
10
2.7011294094488187
20
-2.9221719291338584
11
2.7065840157480316
21
-2.9258165748031497
0
LINE
8
BLACK
6
CONTINUOUS
10
2.7065840157480316
20
-2.9258165748031497
11
2.7112227952755905
21
-2.9304553543307086
0
LINE
8
BLACK
6
CONTINUOUS
10
2.7112227952755905
20
-2.9304553543307086
11
2.7148674409448819
21
-2.935909960629921
0
LINE
8
BLACK
6
CONTINUOUS
10
2.7148674409448819
20
-2.935909960629921
11
2.7173779133858269
21
-2.9419707874015746
0
LINE
8
BLACK
6
CONTINUOUS
10
2.7173779133858269
20
-2.9419707874015746
11
2.7186577559055118
21
-2.9484049212598427
0
LINE
8
BLACK
6
CONTINUOUS
10
2.7186577559055118
20
-2.9484049212598427
11
2.7188188976377954
21
-2.9516850393700786
0
LINE
8
BLACK
6
CONTINUOUS
10
2.7188188976377954
20
-2.9516850393700786
11
2.7188188976377954
21
-3.022551181102362
0
LINE
8
BLACK
6
CONTINUOUS
10
2.7188188976377954
20
-3.022551181102362
11
2.7186577559055118
21
-3.0258312992125984
0
LINE
8
BLACK
6
CONTINUOUS
10
2.7186577559055118
20
-3.0258312992125984
11
2.7173779133858269
21
-3.032265433070866
0
LINE
8
BLACK
6
CONTINUOUS
10
2.7173779133858269
20
-3.032265433070866
11
2.7148674409448819
21
-3.0383262598425196
0
LINE
8
BLACK
6
CONTINUOUS
10
2.7148674409448819
20
-3.0383262598425196
11
2.7112227952755905
21
-3.043780866141732
0
LINE
8
BLACK
6
CONTINUOUS
10
2.7112227952755905
20
-3.043780866141732
11
2.7065840157480316
21
-3.0484196456692914
0
LINE
8
BLACK
6
CONTINUOUS
10
2.7065840157480316
20
-3.0484196456692914
11
2.7011294094488187
21
-3.0520642913385827
0
LINE
8
BLACK
6
CONTINUOUS
10
2.7011294094488187
20
-3.0520642913385827
11
2.6950685826771652
21
-3.0545747637795273
0
LINE
8
BLACK
6
CONTINUOUS
10
2.6950685826771652
20
-3.0545747637795273
11
2.6886344488188976
21
-3.0558546062992127
0
LINE
8
BLACK
6
CONTINUOUS
10
2.6886344488188976
20
-3.0558546062992127
11
2.6820742125984252
21
-3.0558546062992127
0
LINE
8
BLACK
6
CONTINUOUS
10
2.6820742125984252
20
-3.0558546062992127
11
2.6756400787401575
21
-3.0545747637795273
0
LINE
8
BLACK
6
CONTINUOUS
10
2.6756400787401575
20
-3.0545747637795273
11
2.669579251968504
21
-3.0520642913385827
0
LINE
8
BLACK
6
CONTINUOUS
10
2.669579251968504
20
-3.0520642913385827
11
2.6641246456692911
21
-3.0484196456692914
0
LINE
8
BLACK
6
CONTINUOUS
10
2.6641246456692911
20
-3.0484196456692914
11
2.6594858661417322
21
-3.043780866141732
0
LINE
8
BLACK
6
CONTINUOUS
10
2.6594858661417322
20
-3.043780866141732
11
2.6558412204724409
21
-3.0383262598425196
0
LINE
8
BLACK
6
CONTINUOUS
10
2.6558412204724409
20
-3.0383262598425196
11
2.6533307480314958
21
-3.032265433070866
0
LINE
8
BLACK
6
CONTINUOUS
10
2.6533307480314958
20
-3.032265433070866
11
2.6520509055118109
21
-3.0258312992125984
0
LINE
8
BLACK
6
CONTINUOUS
10
2.6520509055118109
20
-3.0258312992125984
11
2.6518897637795273
21
-3.022551181102362
0
LINE
8
BLACK
6
CONTINUOUS
10
2.6518897637795273
20
-3.022551181102362
11
2.6518897637795273
21
-2.9516850393700786
0
LINE
8
BLACK
6
CONTINUOUS
10
2.6518897637795273
20
-2.9516850393700786
11
2.6520509055118109
21
-2.9484049212598427
0
LINE
8
BLACK
6
CONTINUOUS
10
2.6520509055118109
20
-2.9484049212598427
11
2.6533307480314958
21
-2.9419707874015746
0
LINE
8
BLACK
6
CONTINUOUS
10
2.6533307480314958
20
-2.9419707874015746
11
2.6558412204724409
21
-2.935909960629921
0
LINE
8
BLACK
6
CONTINUOUS
10
2.6558412204724409
20
-2.935909960629921
11
2.6594858661417322
21
-2.9304553543307086
0
LINE
8
BLACK
6
CONTINUOUS
10
2.6594858661417322
20
-2.9304553543307086
11
2.6641246456692911
21
-2.9258165748031497
0
LINE
8
BLACK
6
CONTINUOUS
10
2.6641246456692911
20
-2.9258165748031497
11
2.669579251968504
21
-2.9221719291338584
0
LINE
8
BLACK
6
CONTINUOUS
10
2.669579251968504
20
-2.9221719291338584
11
2.6756400787401575
21
-2.9196614566929133
0
LINE
8
BLACK
6
CONTINUOUS
10
2.6756400787401575
20
-2.9196614566929133
11
2.6820742125984252
21
-2.9183816141732284
0
LINE
8
BLACK
6
CONTINUOUS
10
2.6820742125984252
20
-2.9183816141732284
11
2.6886344488188976
21
-2.9183816141732284
0
LINE
8
BLACK
6
CONTINUOUS
10
2.6886344488188976
20
-2.9183816141732284
11
2.6950685826771652
21
-2.9196614566929133
0
LINE
8
BLACK
6
CONTINUOUS
10
2.7950685826771653
20
-2.9196614566929133
11
2.8011294094488188
21
-2.9221719291338584
0
LINE
8
BLACK
6
CONTINUOUS
10
2.8011294094488188
20
-2.9221719291338584
11
2.8065840157480313
21
-2.9258165748031497
0
LINE
8
BLACK
6
CONTINUOUS
10
2.8065840157480313
20
-2.9258165748031497
11
2.8112227952755906
21
-2.9304553543307086
0
LINE
8
BLACK
6
CONTINUOUS
10
2.8112227952755906
20
-2.9304553543307086
11
2.8148674409448819
21
-2.935909960629921
0
LINE
8
BLACK
6
CONTINUOUS
10
2.8148674409448819
20
-2.935909960629921
11
2.8173779133858265
21
-2.9419707874015746
0
LINE
8
BLACK
6
CONTINUOUS
10
2.8173779133858265
20
-2.9419707874015746
11
2.8186577559055119
21
-2.9484049212598427
0
LINE
8
BLACK
6
CONTINUOUS
10
2.8186577559055119
20
-2.9484049212598427
11
2.818818897637795
21
-2.9516850393700786
0
LINE
8
BLACK
6
CONTINUOUS
10
2.818818897637795
20
-2.9516850393700786
11
2.818818897637795
21
-3.022551181102362
0
LINE
8
BLACK
6
CONTINUOUS
10
2.818818897637795
20
-3.022551181102362
11
2.8186577559055119
21
-3.0258312992125984
0
LINE
8
BLACK
6
CONTINUOUS
10
2.8186577559055119
20
-3.0258312992125984
11
2.8173779133858265
21
-3.032265433070866
0
LINE
8
BLACK
6
CONTINUOUS
10
2.8173779133858265
20
-3.032265433070866
11
2.8148674409448819
21
-3.0383262598425196
0
LINE
8
BLACK
6
CONTINUOUS
10
2.8148674409448819
20
-3.0383262598425196
11
2.8112227952755906
21
-3.043780866141732
0
LINE
8
BLACK
6
CONTINUOUS
10
2.8112227952755906
20
-3.043780866141732
11
2.8065840157480313
21
-3.0484196456692914
0
LINE
8
BLACK
6
CONTINUOUS
10
2.8065840157480313
20
-3.0484196456692914
11
2.8011294094488188
21
-3.0520642913385827
0
LINE
8
BLACK
6
CONTINUOUS
10
2.8011294094488188
20
-3.0520642913385827
11
2.7950685826771653
21
-3.0545747637795273
0
LINE
8
BLACK
6
CONTINUOUS
10
2.7950685826771653
20
-3.0545747637795273
11
2.7886344488188977
21
-3.0558546062992127
0
LINE
8
BLACK
6
CONTINUOUS
10
2.7886344488188977
20
-3.0558546062992127
11
2.7820742125984252
21
-3.0558546062992127
0
LINE
8
BLACK
6
CONTINUOUS
10
2.7820742125984252
20
-3.0558546062992127
11
2.7756400787401576
21
-3.0545747637795273
0
LINE
8
BLACK
6
CONTINUOUS
10
2.7756400787401576
20
-3.0545747637795273
11
2.7695792519685041
21
-3.0520642913385827
0
LINE
8
BLACK
6
CONTINUOUS
10
2.7695792519685041
20
-3.0520642913385827
11
2.7641246456692912
21
-3.0484196456692914
0
LINE
8
BLACK
6
CONTINUOUS
10
2.7641246456692912
20
-3.0484196456692914
11
2.7594858661417323
21
-3.043780866141732
0
LINE
8
BLACK
6
CONTINUOUS
10
2.7594858661417323
20
-3.043780866141732
11
2.755841220472441
21
-3.0383262598425196
0
LINE
8
BLACK
6
CONTINUOUS
10
2.755841220472441
20
-3.0383262598425196
11
2.7533307480314959
21
-3.032265433070866
0
LINE
8
BLACK
6
CONTINUOUS
10
2.7533307480314959
20
-3.032265433070866
11
2.752050905511811
21
-3.0258312992125984
0
LINE
8
BLACK
6
CONTINUOUS
10
2.752050905511811
20
-3.0258312992125984
11
2.7518897637795274
21
-3.022551181102362
0
LINE
8
BLACK
6
CONTINUOUS
10
2.7518897637795274
20
-3.022551181102362
11
2.7518897637795274
21
-2.9516850393700786
0
LINE
8
BLACK
6
CONTINUOUS
10
2.7518897637795274
20
-2.9516850393700786
11
2.752050905511811
21
-2.9484049212598427
0
LINE
8
BLACK
6
CONTINUOUS
10
2.752050905511811
20
-2.9484049212598427
11
2.7533307480314959
21
-2.9419707874015746
0
LINE
8
BLACK
6
CONTINUOUS
10
2.7533307480314959
20
-2.9419707874015746
11
2.755841220472441
21
-2.935909960629921
0
LINE
8
BLACK
6
CONTINUOUS
10
2.755841220472441
20
-2.935909960629921
11
2.7594858661417323
21
-2.9304553543307086
0
LINE
8
BLACK
6
CONTINUOUS
10
2.7594858661417323
20
-2.9304553543307086
11
2.7641246456692912
21
-2.9258165748031497
0
LINE
8
BLACK
6
CONTINUOUS
10
2.7641246456692912
20
-2.9258165748031497
11
2.7695792519685041
21
-2.9221719291338584
0
LINE
8
BLACK
6
CONTINUOUS
10
2.7695792519685041
20
-2.9221719291338584
11
2.7756400787401576
21
-2.9196614566929133
0
LINE
8
BLACK
6
CONTINUOUS
10
2.7756400787401576
20
-2.9196614566929133
11
2.7820742125984252
21
-2.9183816141732284
0
LINE
8
BLACK
6
CONTINUOUS
10
2.7820742125984252
20
-2.9183816141732284
11
2.7886344488188977
21
-2.9183816141732284
0
LINE
8
BLACK
6
CONTINUOUS
10
2.7886344488188977
20
-2.9183816141732284
11
2.7950685826771653
21
-2.9196614566929133
0
LINE
8
BLACK
6
CONTINUOUS
10
5.5478244881889767
20
-2.9196614566929133
11
5.5538853149606302
21
-2.9221719291338584
0
LINE
8
BLACK
6
CONTINUOUS
10
5.5538853149606302
20
-2.9221719291338584
11
5.5593399212598422
21
-2.9258165748031497
0
LINE
8
BLACK
6
CONTINUOUS
10
5.5593399212598422
20
-2.9258165748031497
11
5.5639787007874011
21
-2.9304553543307086
0
LINE
8
BLACK
6
CONTINUOUS
10
5.5639787007874011
20
-2.9304553543307086
11
5.5676233464566929
21
-2.935909960629921
0
LINE
8
BLACK
6
CONTINUOUS
10
5.5676233464566929
20
-2.935909960629921
11
5.5701338188976379
21
-2.9419707874015746
0
LINE
8
BLACK
6
CONTINUOUS
10
5.5701338188976379
20
-2.9419707874015746
11
5.5714136614173224
21
-2.9484049212598427
0
LINE
8
BLACK
6
CONTINUOUS
10
5.5714136614173224
20
-2.9484049212598427
11
5.5715748031496064
21
-2.9516850393700786
0
LINE
8
BLACK
6
CONTINUOUS
10
5.5715748031496064
20
-2.9516850393700786
11
5.5715748031496064
21
-3.022551181102362
0
LINE
8
BLACK
6
CONTINUOUS
10
5.5715748031496064
20
-3.022551181102362
11
5.5714136614173224
21
-3.0258312992125984
0
LINE
8
BLACK
6
CONTINUOUS
10
5.5714136614173224
20
-3.0258312992125984
11
5.5701338188976379
21
-3.032265433070866
0
LINE
8
BLACK
6
CONTINUOUS
10
5.5701338188976379
20
-3.032265433070866
11
5.5676233464566929
21
-3.0383262598425196
0
LINE
8
BLACK
6
CONTINUOUS
10
5.5676233464566929
20
-3.0383262598425196
11
5.5639787007874011
21
-3.043780866141732
0
LINE
8
BLACK
6
CONTINUOUS
10
5.5639787007874011
20
-3.043780866141732
11
5.5593399212598422
21
-3.0484196456692914
0
LINE
8
BLACK
6
CONTINUOUS
10
5.5593399212598422
20
-3.0484196456692914
11
5.5538853149606302
21
-3.0520642913385827
0
LINE
8
BLACK
6
CONTINUOUS
10
5.5538853149606302
20
-3.0520642913385827
11
5.5478244881889767
21
-3.0545747637795273
0
LINE
8
BLACK
6
CONTINUOUS
10
5.5478244881889767
20
-3.0545747637795273
11
5.5413903543307086
21
-3.0558546062992127
0
LINE
8
BLACK
6
CONTINUOUS
10
5.5413903543307086
20
-3.0558546062992127
11
5.5348301181102357
21
-3.0558546062992127
0
LINE
8
BLACK
6
CONTINUOUS
10
5.5348301181102357
20
-3.0558546062992127
11
5.5283959842519685
21
-3.0545747637795273
0
LINE
8
BLACK
6
CONTINUOUS
10
5.5283959842519685
20
-3.0545747637795273
11
5.522335157480315
21
-3.0520642913385827
0
LINE
8
BLACK
6
CONTINUOUS
10
5.522335157480315
20
-3.0520642913385827
11
5.5168805511811021
21
-3.0484196456692914
0
LINE
8
BLACK
6
CONTINUOUS
10
5.5168805511811021
20
-3.0484196456692914
11
5.5122417716535432
21
-3.043780866141732
0
LINE
8
BLACK
6
CONTINUOUS
10
5.5122417716535432
20
-3.043780866141732
11
5.5085971259842514
21
-3.0383262598425196
0
LINE
8
BLACK
6
CONTINUOUS
10
5.5085971259842514
20
-3.0383262598425196
11
5.5060866535433073
21
-3.032265433070866
0
LINE
8
BLACK
6
CONTINUOUS
10
5.5060866535433073
20
-3.032265433070866
11
5.5048068110236219
21
-3.0258312992125984
0
LINE
8
BLACK
6
CONTINUOUS
10
5.5048068110236219
20
-3.0258312992125984
11
5.5046456692913388
21
-3.022551181102362
0
LINE
8
BLACK
6
CONTINUOUS
10
5.5046456692913388
20
-3.022551181102362
11
5.5046456692913388
21
-2.9516850393700786
0
LINE
8
BLACK
6
CONTINUOUS
10
5.5046456692913388
20
-2.9516850393700786
11
5.5048068110236219
21
-2.9484049212598427
0
LINE
8
BLACK
6
CONTINUOUS
10
5.5048068110236219
20
-2.9484049212598427
11
5.5060866535433073
21
-2.9419707874015746
0
LINE
8
BLACK
6
CONTINUOUS
10
5.5060866535433073
20
-2.9419707874015746
11
5.5085971259842514
21
-2.935909960629921
0
LINE
8
BLACK
6
CONTINUOUS
10
5.5085971259842514
20
-2.935909960629921
11
5.5122417716535432
21
-2.9304553543307086
0
LINE
8
BLACK
6
CONTINUOUS
10
5.5122417716535432
20
-2.9304553543307086
11
5.5168805511811021
21
-2.9258165748031497
0
LINE
8
BLACK
6
CONTINUOUS
10
5.5168805511811021
20
-2.9258165748031497
11
5.522335157480315
21
-2.9221719291338584
0
LINE
8
BLACK
6
CONTINUOUS
10
5.522335157480315
20
-2.9221719291338584
11
5.5283959842519685
21
-2.9196614566929133
0
LINE
8
BLACK
6
CONTINUOUS
10
5.5283959842519685
20
-2.9196614566929133
11
5.5348301181102357
21
-2.9183816141732284
0
LINE
8
BLACK
6
CONTINUOUS
10
5.5348301181102357
20
-2.9183816141732284
11
5.5413903543307086
21
-2.9183816141732284
0
LINE
8
BLACK
6
CONTINUOUS
10
5.5413903543307086
20
-2.9183816141732284
11
5.5478244881889767
21
-2.9196614566929133
0
LINE
8
BLACK
6
CONTINUOUS
10
5.6478244881889763
20
-2.9196614566929133
11
5.6538853149606298
21
-2.9221719291338584
0
LINE
8
BLACK
6
CONTINUOUS
10
5.6538853149606298
20
-2.9221719291338584
11
5.6593399212598428
21
-2.9258165748031497
0
LINE
8
BLACK
6
CONTINUOUS
10
5.6593399212598428
20
-2.9258165748031497
11
5.6639787007874016
21
-2.9304553543307086
0
LINE
8
BLACK
6
CONTINUOUS
10
5.6639787007874016
20
-2.9304553543307086
11
5.6676233464566925
21
-2.935909960629921
0
LINE
8
BLACK
6
CONTINUOUS
10
5.6676233464566925
20
-2.935909960629921
11
5.6701338188976376
21
-2.9419707874015746
0
LINE
8
BLACK
6
CONTINUOUS
10
5.6701338188976376
20
-2.9419707874015746
11
5.6714136614173229
21
-2.9484049212598427
0
LINE
8
BLACK
6
CONTINUOUS
10
5.6714136614173229
20
-2.9484049212598427
11
5.671574803149606
21
-2.9516850393700786
0
LINE
8
BLACK
6
CONTINUOUS
10
5.671574803149606
20
-2.9516850393700786
11
5.671574803149606
21
-3.022551181102362
0
LINE
8
BLACK
6
CONTINUOUS
10
5.671574803149606
20
-3.022551181102362
11
5.6714136614173229
21
-3.0258312992125984
0
LINE
8
BLACK
6
CONTINUOUS
10
5.6714136614173229
20
-3.0258312992125984
11
5.6701338188976376
21
-3.032265433070866
0
LINE
8
BLACK
6
CONTINUOUS
10
5.6701338188976376
20
-3.032265433070866
11
5.6676233464566925
21
-3.0383262598425196
0
LINE
8
BLACK
6
CONTINUOUS
10
5.6676233464566925
20
-3.0383262598425196
11
5.6639787007874016
21
-3.043780866141732
0
LINE
8
BLACK
6
CONTINUOUS
10
5.6639787007874016
20
-3.043780866141732
11
5.6593399212598428
21
-3.0484196456692914
0
LINE
8
BLACK
6
CONTINUOUS
10
5.6593399212598428
20
-3.0484196456692914
11
5.6538853149606298
21
-3.0520642913385827
0
LINE
8
BLACK
6
CONTINUOUS
10
5.6538853149606298
20
-3.0520642913385827
11
5.6478244881889763
21
-3.0545747637795273
0
LINE
8
BLACK
6
CONTINUOUS
10
5.6478244881889763
20
-3.0545747637795273
11
5.6413903543307082
21
-3.0558546062992127
0
LINE
8
BLACK
6
CONTINUOUS
10
5.6413903543307082
20
-3.0558546062992127
11
5.6348301181102363
21
-3.0558546062992127
0
LINE
8
BLACK
6
CONTINUOUS
10
5.6348301181102363
20
-3.0558546062992127
11
5.6283959842519682
21
-3.0545747637795273
0
LINE
8
BLACK
6
CONTINUOUS
10
5.6283959842519682
20
-3.0545747637795273
11
5.6223351574803146
21
-3.0520642913385827
0
LINE
8
BLACK
6
CONTINUOUS
10
5.6223351574803146
20
-3.0520642913385827
11
5.6168805511811026
21
-3.0484196456692914
0
LINE
8
BLACK
6
CONTINUOUS
10
5.6168805511811026
20
-3.0484196456692914
11
5.6122417716535429
21
-3.043780866141732
0
LINE
8
BLACK
6
CONTINUOUS
10
5.6122417716535429
20
-3.043780866141732
11
5.608597125984252
21
-3.0383262598425196
0
LINE
8
BLACK
6
CONTINUOUS
10
5.608597125984252
20
-3.0383262598425196
11
5.6060866535433069
21
-3.032265433070866
0
LINE
8
BLACK
6
CONTINUOUS
10
5.6060866535433069
20
-3.032265433070866
11
5.6048068110236215
21
-3.0258312992125984
0
LINE
8
BLACK
6
CONTINUOUS
10
5.6048068110236215
20
-3.0258312992125984
11
5.6046456692913385
21
-3.022551181102362
0
LINE
8
BLACK
6
CONTINUOUS
10
5.6046456692913385
20
-3.022551181102362
11
5.6046456692913385
21
-2.9516850393700786
0
LINE
8
BLACK
6
CONTINUOUS
10
5.6046456692913385
20
-2.9516850393700786
11
5.6048068110236215
21
-2.9484049212598427
0
LINE
8
BLACK
6
CONTINUOUS
10
5.6048068110236215
20
-2.9484049212598427
11
5.6060866535433069
21
-2.9419707874015746
0
LINE
8
BLACK
6
CONTINUOUS
10
5.6060866535433069
20
-2.9419707874015746
11
5.608597125984252
21
-2.935909960629921
0
LINE
8
BLACK
6
CONTINUOUS
10
5.608597125984252
20
-2.935909960629921
11
5.6122417716535429
21
-2.9304553543307086
0
LINE
8
BLACK
6
CONTINUOUS
10
5.6122417716535429
20
-2.9304553543307086
11
5.6168805511811026
21
-2.9258165748031497
0
LINE
8
BLACK
6
CONTINUOUS
10
5.6168805511811026
20
-2.9258165748031497
11
5.6223351574803146
21
-2.9221719291338584
0
LINE
8
BLACK
6
CONTINUOUS
10
5.6223351574803146
20
-2.9221719291338584
11
5.6283959842519682
21
-2.9196614566929133
0
LINE
8
BLACK
6
CONTINUOUS
10
5.6283959842519682
20
-2.9196614566929133
11
5.6348301181102363
21
-2.9183816141732284
0
LINE
8
BLACK
6
CONTINUOUS
10
5.6348301181102363
20
-2.9183816141732284
11
5.6413903543307082
21
-2.9183816141732284
0
LINE
8
BLACK
6
CONTINUOUS
10
5.6413903543307082
20
-2.9183816141732284
11
5.6478244881889763
21
-2.9196614566929133
0
LINE
8
BLACK
6
CONTINUOUS
10
5.747824488188976
20
-2.9196614566929133
11
5.7538853149606295
21
-2.9221719291338584
0
LINE
8
BLACK
6
CONTINUOUS
10
5.7538853149606295
20
-2.9221719291338584
11
5.7593399212598424
21
-2.9258165748031497
0
LINE
8
BLACK
6
CONTINUOUS
10
5.7593399212598424
20
-2.9258165748031497
11
5.7639787007874013
21
-2.9304553543307086
0
LINE
8
BLACK
6
CONTINUOUS
10
5.7639787007874013
20
-2.9304553543307086
11
5.7676233464566931
21
-2.935909960629921
0
LINE
8
BLACK
6
CONTINUOUS
10
5.7676233464566931
20
-2.935909960629921
11
5.7701338188976381
21
-2.9419707874015746
0
LINE
8
BLACK
6
CONTINUOUS
10
5.7701338188976381
20
-2.9419707874015746
11
5.7714136614173226
21
-2.9484049212598427
0
LINE
8
BLACK
6
CONTINUOUS
10
5.7714136614173226
20
-2.9484049212598427
11
5.7715748031496066
21
-2.9516850393700786
0
LINE
8
BLACK
6
CONTINUOUS
10
5.7715748031496066
20
-2.9516850393700786
11
5.7715748031496066
21
-3.022551181102362
0
LINE
8
BLACK
6
CONTINUOUS
10
5.7715748031496066
20
-3.022551181102362
11
5.7714136614173226
21
-3.0258312992125984
0
LINE
8
BLACK
6
CONTINUOUS
10
5.7714136614173226
20
-3.0258312992125984
11
5.7701338188976381
21
-3.032265433070866
0
LINE
8
BLACK
6
CONTINUOUS
10
5.7701338188976381
20
-3.032265433070866
11
5.7676233464566931
21
-3.0383262598425196
0
LINE
8
BLACK
6
CONTINUOUS
10
5.7676233464566931
20
-3.0383262598425196
11
5.7639787007874013
21
-3.043780866141732
0
LINE
8
BLACK
6
CONTINUOUS
10
5.7639787007874013
20
-3.043780866141732
11
5.7593399212598424
21
-3.0484196456692914
0
LINE
8
BLACK
6
CONTINUOUS
10
5.7593399212598424
20
-3.0484196456692914
11
5.7538853149606295
21
-3.0520642913385827
0
LINE
8
BLACK
6
CONTINUOUS
10
5.7538853149606295
20
-3.0520642913385827
11
5.747824488188976
21
-3.0545747637795273
0
LINE
8
BLACK
6
CONTINUOUS
10
5.747824488188976
20
-3.0545747637795273
11
5.7413903543307088
21
-3.0558546062992127
0
LINE
8
BLACK
6
CONTINUOUS
10
5.7413903543307088
20
-3.0558546062992127
11
5.7348301181102359
21
-3.0558546062992127
0
LINE
8
BLACK
6
CONTINUOUS
10
5.7348301181102359
20
-3.0558546062992127
11
5.7283959842519687
21
-3.0545747637795273
0
LINE
8
BLACK
6
CONTINUOUS
10
5.7283959842519687
20
-3.0545747637795273
11
5.7223351574803152
21
-3.0520642913385827
0
LINE
8
BLACK
6
CONTINUOUS
10
5.7223351574803152
20
-3.0520642913385827
11
5.7168805511811023
21
-3.0484196456692914
0
LINE
8
BLACK
6
CONTINUOUS
10
5.7168805511811023
20
-3.0484196456692914
11
5.7122417716535434
21
-3.043780866141732
0
LINE
8
BLACK
6
CONTINUOUS
10
5.7122417716535434
20
-3.043780866141732
11
5.7085971259842516
21
-3.0383262598425196
0
LINE
8
BLACK
6
CONTINUOUS
10
5.7085971259842516
20
-3.0383262598425196
11
5.7060866535433066
21
-3.032265433070866
0
LINE
8
BLACK
6
CONTINUOUS
10
5.7060866535433066
20
-3.032265433070866
11
5.7048068110236221
21
-3.0258312992125984
0
LINE
8
BLACK
6
CONTINUOUS
10
5.7048068110236221
20
-3.0258312992125984
11
5.7046456692913381
21
-3.022551181102362
0
LINE
8
BLACK
6
CONTINUOUS
10
5.7046456692913381
20
-3.022551181102362
11
5.7046456692913381
21
-2.9516850393700786
0
LINE
8
BLACK
6
CONTINUOUS
10
5.7046456692913381
20
-2.9516850393700786
11
5.7048068110236221
21
-2.9484049212598427
0
LINE
8
BLACK
6
CONTINUOUS
10
5.7048068110236221
20
-2.9484049212598427
11
5.7060866535433066
21
-2.9419707874015746
0
LINE
8
BLACK
6
CONTINUOUS
10
5.7060866535433066
20
-2.9419707874015746
11
5.7085971259842516
21
-2.935909960629921
0
LINE
8
BLACK
6
CONTINUOUS
10
5.7085971259842516
20
-2.935909960629921
11
5.7122417716535434
21
-2.9304553543307086
0
LINE
8
BLACK
6
CONTINUOUS
10
5.7122417716535434
20
-2.9304553543307086
11
5.7168805511811023
21
-2.9258165748031497
0
LINE
8
BLACK
6
CONTINUOUS
10
5.7168805511811023
20
-2.9258165748031497
11
5.7223351574803152
21
-2.9221719291338584
0
LINE
8
BLACK
6
CONTINUOUS
10
5.7223351574803152
20
-2.9221719291338584
11
5.7283959842519687
21
-2.9196614566929133
0
LINE
8
BLACK
6
CONTINUOUS
10
5.7283959842519687
20
-2.9196614566929133
11
5.7348301181102359
21
-2.9183816141732284
0
LINE
8
BLACK
6
CONTINUOUS
10
5.7348301181102359
20
-2.9183816141732284
11
5.7413903543307088
21
-2.9183816141732284
0
LINE
8
BLACK
6
CONTINUOUS
10
5.7413903543307088
20
-2.9183816141732284
11
5.747824488188976
21
-2.9196614566929133
0
LINE
8
BLACK
6
CONTINUOUS
10
5.3659712992125987
20
-3.005178346456693
11
5.3691644488188972
21
-3.0073119291338584
0
LINE
8
BLACK
6
CONTINUOUS
10
5.3691644488188972
20
-3.0073119291338584
11
5.371298031496063
21
-3.0105050787401573
0
LINE
8
BLACK
6
CONTINUOUS
10
5.371298031496063
20
-3.0105050787401573
11
5.372047244094488
21
-3.014271653543307
0
LINE
8
BLACK
6
CONTINUOUS
10
5.372047244094488
20
-3.014271653543307
11
5.372047244094488
21
-3.0349409448818898
0
LINE
8
BLACK
6
CONTINUOUS
10
5.372047244094488
20
-3.0349409448818898
11
5.371298031496063
21
-3.0387075196850395
0
LINE
8
BLACK
6
CONTINUOUS
10
5.371298031496063
20
-3.0387075196850395
11
5.3691644488188972
21
-3.0419006692913384
0
LINE
8
BLACK
6
CONTINUOUS
10
5.3691644488188972
20
-3.0419006692913384
11
5.3659712992125987
21
-3.0440342519685037
0
LINE
8
BLACK
6
CONTINUOUS
10
5.3659712992125987
20
-3.0440342519685037
11
5.3622047244094491
21
-3.0447834645669292
0
LINE
8
BLACK
6
CONTINUOUS
10
5.3622047244094491
20
-3.0447834645669292
11
5.3267716535433074
21
-3.0447834645669292
0
LINE
8
BLACK
6
CONTINUOUS
10
5.3267716535433074
20
-3.0447834645669292
11
5.3230050787401577
21
-3.0440342519685037
0
LINE
8
BLACK
6
CONTINUOUS
10
5.3230050787401577
20
-3.0440342519685037
11
5.3198119291338584
21
-3.0419006692913384
0
LINE
8
BLACK
6
CONTINUOUS
10
5.3198119291338584
20
-3.0419006692913384
11
5.3176783464566926
21
-3.0387075196850395
0
LINE
8
BLACK
6
CONTINUOUS
10
5.3176783464566926
20
-3.0387075196850395
11
5.3169291338582676
21
-3.0349409448818898
0
LINE
8
BLACK
6
CONTINUOUS
10
5.3169291338582676
20
-3.0349409448818898
11
5.3169291338582676
21
-3.014271653543307
0
LINE
8
BLACK
6
CONTINUOUS
10
5.3169291338582676
20
-3.014271653543307
11
5.3176783464566926
21
-3.0105050787401573
0
LINE
8
BLACK
6
CONTINUOUS
10
5.3176783464566926
20
-3.0105050787401573
11
5.3198119291338584
21
-3.0073119291338584
0
LINE
8
BLACK
6
CONTINUOUS
10
5.3198119291338584
20
-3.0073119291338584
11
5.3230050787401577
21
-3.005178346456693
0
LINE
8
BLACK
6
CONTINUOUS
10
5.3230050787401577
20
-3.005178346456693
11
5.3267716535433074
21
-3.0044291338582676
0
LINE
8
BLACK
6
CONTINUOUS
10
5.3267716535433074
20
-3.0044291338582676
11
5.3622047244094491
21
-3.0044291338582676
0
LINE
8
BLACK
6
CONTINUOUS
10
5.3622047244094491
20
-3.0044291338582676
11
5.3659712992125987
21
-3.005178346456693
0
LINE
8
BLACK
6
CONTINUOUS
10
5.4447114566929136
20
-3.005178346456693
11
5.4479046062992129
21
-3.0073119291338584
0
LINE
8
BLACK
6
CONTINUOUS
10
5.4479046062992129
20
-3.0073119291338584
11
5.4500381889763778
21
-3.0105050787401573
0
LINE
8
BLACK
6
CONTINUOUS
10
5.4500381889763778
20
-3.0105050787401573
11
5.4507874015748028
21
-3.014271653543307
0
LINE
8
BLACK
6
CONTINUOUS
10
5.4507874015748028
20
-3.014271653543307
11
5.4507874015748028
21
-3.0349409448818898
0
LINE
8
BLACK
6
CONTINUOUS
10
5.4507874015748028
20
-3.0349409448818898
11
5.4500381889763778
21
-3.0387075196850395
0
LINE
8
BLACK
6
CONTINUOUS
10
5.4500381889763778
20
-3.0387075196850395
11
5.4479046062992129
21
-3.0419006692913384
0
LINE
8
BLACK
6
CONTINUOUS
10
5.4479046062992129
20
-3.0419006692913384
11
5.4447114566929136
21
-3.0440342519685037
0
LINE
8
BLACK
6
CONTINUOUS
10
5.4447114566929136
20
-3.0440342519685037
11
5.4409448818897639
21
-3.0447834645669292
0
LINE
8
BLACK
6
CONTINUOUS
10
5.4409448818897639
20
-3.0447834645669292
11
5.4055118110236222
21
-3.0447834645669292
0
LINE
8
BLACK
6
CONTINUOUS
10
5.4055118110236222
20
-3.0447834645669292
11
5.4017452362204725
21
-3.0440342519685037
0
LINE
8
BLACK
6
CONTINUOUS
10
5.4017452362204725
20
-3.0440342519685037
11
5.3985520866141732
21
-3.0419006692913384
0
LINE
8
BLACK
6
CONTINUOUS
10
5.3985520866141732
20
-3.0419006692913384
11
5.3964185039370074
21
-3.0387075196850395
0
LINE
8
BLACK
6
CONTINUOUS
10
5.3964185039370074
20
-3.0387075196850395
11
5.3956692913385824
21
-3.0349409448818898
0
LINE
8
BLACK
6
CONTINUOUS
10
5.3956692913385824
20
-3.0349409448818898
11
5.3956692913385824
21
-3.014271653543307
0
LINE
8
BLACK
6
CONTINUOUS
10
5.3956692913385824
20
-3.014271653543307
11
5.3964185039370074
21
-3.0105050787401573
0
LINE
8
BLACK
6
CONTINUOUS
10
5.3964185039370074
20
-3.0105050787401573
11
5.3985520866141732
21
-3.0073119291338584
0
LINE
8
BLACK
6
CONTINUOUS
10
5.3985520866141732
20
-3.0073119291338584
11
5.4017452362204725
21
-3.005178346456693
0
LINE
8
BLACK
6
CONTINUOUS
10
5.4017452362204725
20
-3.005178346456693
11
5.4055118110236222
21
-3.0044291338582676
0
LINE
8
BLACK
6
CONTINUOUS
10
5.4055118110236222
20
-3.0044291338582676
11
5.4409448818897639
21
-3.0044291338582676
0
LINE
8
BLACK
6
CONTINUOUS
10
5.4409448818897639
20
-3.0044291338582676
11
5.4447114566929136
21
-3.005178346456693
0
LINE
8
BLACK
6
CONTINUOUS
10
2.160562440944882
20
-2.8953788582677165
11
2.1701212598425195
21
-2.8983273622047245
0
LINE
8
BLACK
6
CONTINUOUS
10
2.1701212598425195
20
-2.8983273622047245
11
2.1791338582677167
21
-2.9026675984251966
0
LINE
8
BLACK
6
CONTINUOUS
10
2.1791338582677167
20
-2.9026675984251966
11
2.1873989370078739
21
-2.9083025984251969
0
LINE
8
BLACK
6
CONTINUOUS
10
2.1873989370078739
20
-2.9083025984251969
11
2.194731811023622
21
-2.915106535433071
0
LINE
8
BLACK
6
CONTINUOUS
10
2.194731811023622
20
-2.915106535433071
11
2.2009687401574802
21
-2.9229274015748032
0
LINE
8
BLACK
6
CONTINUOUS
10
2.2009687401574802
20
-2.9229274015748032
11
2.2059703543307085
21
-2.9315904724409449
0
LINE
8
BLACK
6
CONTINUOUS
10
2.2059703543307085
20
-2.9315904724409449
11
2.2096249606299212
21
-2.9409022047244093
0
LINE
8
BLACK
6
CONTINUOUS
10
2.2096249606299212
20
-2.9409022047244093
11
2.2118508661417322
21
-2.9506546456692915
0
LINE
8
BLACK
6
CONTINUOUS
10
2.2118508661417322
20
-2.9506546456692915
11
2.2125984251968505
21
-2.9606299212598426
0
LINE
8
BLACK
6
CONTINUOUS
10
2.2125984251968505
20
-2.9606299212598426
11
2.2118508661417322
21
-2.9706051968503937
0
LINE
8
BLACK
6
CONTINUOUS
10
2.2118508661417322
20
-2.9706051968503937
11
2.2096249606299212
21
-2.9803576377952754
0
LINE
8
BLACK
6
CONTINUOUS
10
2.2096249606299212
20
-2.9803576377952754
11
2.2059703543307085
21
-2.9896693700787402
0
LINE
8
BLACK
6
CONTINUOUS
10
2.2059703543307085
20
-2.9896693700787402
11
2.2009687401574802
21
-2.9983324409448819
0
LINE
8
BLACK
6
CONTINUOUS
10
2.2009687401574802
20
-2.9983324409448819
11
2.194731811023622
21
-3.0061533070866142
0
LINE
8
BLACK
6
CONTINUOUS
10
2.194731811023622
20
-3.0061533070866142
11
2.1873989370078739
21
-3.0129572440944883
0
LINE
8
BLACK
6
CONTINUOUS
10
2.1873989370078739
20
-3.0129572440944883
11
2.1791338582677167
21
-3.0185922440944881
0
LINE
8
BLACK
6
CONTINUOUS
10
2.1791338582677167
20
-3.0185922440944881
11
2.1701212598425195
21
-3.0229324803149606
0
LINE
8
BLACK
6
CONTINUOUS
10
2.1701212598425195
20
-3.0229324803149606
11
2.160562440944882
21
-3.0258809842519683
0
LINE
8
BLACK
6
CONTINUOUS
10
2.160562440944882
20
-3.0258809842519683
11
2.1506709055118112
21
-3.0273718897637796
0
LINE
8
BLACK
6
CONTINUOUS
10
2.1506709055118112
20
-3.0273718897637796
11
2.1406676771653541
21
-3.0273718897637796
0
LINE
8
BLACK
6
CONTINUOUS
10
2.1406676771653541
20
-3.0273718897637796
11
2.1307761417322832
21
-3.0258809842519683
0
LINE
8
BLACK
6
CONTINUOUS
10
2.1307761417322832
20
-3.0258809842519683
11
2.1212173228346458
21
-3.0229324803149606
0
LINE
8
BLACK
6
CONTINUOUS
10
2.1212173228346458
20
-3.0229324803149606
11
2.1122047244094486
21
-3.0185922440944881
0
LINE
8
BLACK
6
CONTINUOUS
10
2.1122047244094486
20
-3.0185922440944881
11
2.1039396456692914
21
-3.0129572440944883
0
LINE
8
BLACK
6
CONTINUOUS
10
2.1039396456692914
20
-3.0129572440944883
11
2.0966067716535433
21
-3.0061533070866142
0
LINE
8
BLACK
6
CONTINUOUS
10
2.0966067716535433
20
-3.0061533070866142
11
2.0903698425196851
21
-2.9983324409448819
0
LINE
8
BLACK
6
CONTINUOUS
10
2.0903698425196851
20
-2.9983324409448819
11
2.0853682283464567
21
-2.9896693700787402
0
LINE
8
BLACK
6
CONTINUOUS
10
2.0853682283464567
20
-2.9896693700787402
11
2.0817136220472441
21
-2.9803576377952754
0
LINE
8
BLACK
6
CONTINUOUS
10
2.0817136220472441
20
-2.9803576377952754
11
2.0794877165354331
21
-2.9706051968503937
0
LINE
8
BLACK
6
CONTINUOUS
10
2.0794877165354331
20
-2.9706051968503937
11
2.0787401574803148
21
-2.9606299212598426
0
LINE
8
BLACK
6
CONTINUOUS
10
2.0787401574803148
20
-2.9606299212598426
11
2.0794877165354331
21
-2.9506546456692915
0
LINE
8
BLACK
6
CONTINUOUS
10
2.0794877165354331
20
-2.9506546456692915
11
2.0817136220472441
21
-2.9409022047244093
0
LINE
8
BLACK
6
CONTINUOUS
10
2.0817136220472441
20
-2.9409022047244093
11
2.0853682283464567
21
-2.9315904724409449
0
LINE
8
BLACK
6
CONTINUOUS
10
2.0853682283464567
20
-2.9315904724409449
11
2.0903698425196851
21
-2.9229274015748032
0
LINE
8
BLACK
6
CONTINUOUS
10
2.0903698425196851
20
-2.9229274015748032
11
2.0966067716535433
21
-2.915106535433071
0
LINE
8
BLACK
6
CONTINUOUS
10
2.0966067716535433
20
-2.915106535433071
11
2.1039396456692914
21
-2.9083025984251969
0
LINE
8
BLACK
6
CONTINUOUS
10
2.1039396456692914
20
-2.9083025984251969
11
2.1122047244094486
21
-2.9026675984251966
0
LINE
8
BLACK
6
CONTINUOUS
10
2.1122047244094486
20
-2.9026675984251966
11
2.1212173228346458
21
-2.8983273622047245
0
LINE
8
BLACK
6
CONTINUOUS
10
2.1212173228346458
20
-2.8983273622047245
11
2.1307761417322832
21
-2.8953788582677165
0
LINE
8
BLACK
6
CONTINUOUS
10
2.1307761417322832
20
-2.8953788582677165
11
2.1406676771653541
21
-2.8938879527559056
0
LINE
8
BLACK
6
CONTINUOUS
10
2.1406676771653541
20
-2.8938879527559056
11
2.1506709055118112
21
-2.8938879527559056
0
LINE
8
BLACK
6
CONTINUOUS
10
2.1506709055118112
20
-2.8938879527559056
11
2.160562440944882
21
-2.8953788582677165
0
LINE
8
BLACK
6
CONTINUOUS
10
3.3416648031496061
20
-2.8953788582677165
11
3.351223622047244
21
-2.8983273622047245
0
LINE
8
BLACK
6
CONTINUOUS
10
3.351223622047244
20
-2.8983273622047245
11
3.3602362204724407
21
-2.9026675984251966
0
LINE
8
BLACK
6
CONTINUOUS
10
3.3602362204724407
20
-2.9026675984251966
11
3.3685012992125984
21
-2.9083025984251969
0
LINE
8
BLACK
6
CONTINUOUS
10
3.3685012992125984
20
-2.9083025984251969
11
3.3758341732283466
21
-2.915106535433071
0
LINE
8
BLACK
6
CONTINUOUS
10
3.3758341732283466
20
-2.915106535433071
11
3.3820711023622048
21
-2.9229274015748032
0
LINE
8
BLACK
6
CONTINUOUS
10
3.3820711023622048
20
-2.9229274015748032
11
3.3870727165354331
21
-2.9315904724409449
0
LINE
8
BLACK
6
CONTINUOUS
10
3.3870727165354331
20
-2.9315904724409449
11
3.3907273228346457
21
-2.9409022047244093
0
LINE
8
BLACK
6
CONTINUOUS
10
3.3907273228346457
20
-2.9409022047244093
11
3.3929532283464567
21
-2.9506546456692915
0
LINE
8
BLACK
6
CONTINUOUS
10
3.3929532283464567
20
-2.9506546456692915
11
3.3937007874015745
21
-2.9606299212598426
0
LINE
8
BLACK
6
CONTINUOUS
10
3.3937007874015745
20
-2.9606299212598426
11
3.3929532283464567
21
-2.9706051968503937
0
LINE
8
BLACK
6
CONTINUOUS
10
3.3929532283464567
20
-2.9706051968503937
11
3.3907273228346457
21
-2.9803576377952754
0
LINE
8
BLACK
6
CONTINUOUS
10
3.3907273228346457
20
-2.9803576377952754
11
3.3870727165354331
21
-2.9896693700787402
0
LINE
8
BLACK
6
CONTINUOUS
10
3.3870727165354331
20
-2.9896693700787402
11
3.3820711023622048
21
-2.9983324409448819
0
LINE
8
BLACK
6
CONTINUOUS
10
3.3820711023622048
20
-2.9983324409448819
11
3.3758341732283466
21
-3.0061533070866142
0
LINE
8
BLACK
6
CONTINUOUS
10
3.3758341732283466
20
-3.0061533070866142
11
3.3685012992125984
21
-3.0129572440944883
0
LINE
8
BLACK
6
CONTINUOUS
10
3.3685012992125984
20
-3.0129572440944883
11
3.3602362204724407
21
-3.0185922440944881
0
LINE
8
BLACK
6
CONTINUOUS
10
3.3602362204724407
20
-3.0185922440944881
11
3.351223622047244
21
-3.0229324803149606
0
LINE
8
BLACK
6
CONTINUOUS
10
3.351223622047244
20
-3.0229324803149606
11
3.3416648031496061
21
-3.0258809842519683
0
LINE
8
BLACK
6
CONTINUOUS
10
3.3416648031496061
20
-3.0258809842519683
11
3.3317732677165353
21
-3.0273718897637796
0
LINE
8
BLACK
6
CONTINUOUS
10
3.3317732677165353
20
-3.0273718897637796
11
3.3217700393700786
21
-3.0273718897637796
0
LINE
8
BLACK
6
CONTINUOUS
10
3.3217700393700786
20
-3.0273718897637796
11
3.3118785039370078
21
-3.0258809842519683
0
LINE
8
BLACK
6
CONTINUOUS
10
3.3118785039370078
20
-3.0258809842519683
11
3.3023196850393699
21
-3.0229324803149606
0
LINE
8
BLACK
6
CONTINUOUS
10
3.3023196850393699
20
-3.0229324803149606
11
3.2933070866141732
21
-3.0185922440944881
0
LINE
8
BLACK
6
CONTINUOUS
10
3.2933070866141732
20
-3.0185922440944881
11
3.2850420078740155
21
-3.0129572440944883
0
LINE
8
BLACK
6
CONTINUOUS
10
3.2850420078740155
20
-3.0129572440944883
11
3.2777091338582678
21
-3.0061533070866142
0
LINE
8
BLACK
6
CONTINUOUS
10
3.2777091338582678
20
-3.0061533070866142
11
3.2714722047244096
21
-2.9983324409448819
0
LINE
8
BLACK
6
CONTINUOUS
10
3.2714722047244096
20
-2.9983324409448819
11
3.2664705905511808
21
-2.9896693700787402
0
LINE
8
BLACK
6
CONTINUOUS
10
3.2664705905511808
20
-2.9896693700787402
11
3.2628159842519686
21
-2.9803576377952754
0
LINE
8
BLACK
6
CONTINUOUS
10
3.2628159842519686
20
-2.9803576377952754
11
3.2605900787401576
21
-2.9706051968503937
0
LINE
8
BLACK
6
CONTINUOUS
10
3.2605900787401576
20
-2.9706051968503937
11
3.2598425196850394
21
-2.9606299212598426
0
LINE
8
BLACK
6
CONTINUOUS
10
3.2598425196850394
20
-2.9606299212598426
11
3.2605900787401576
21
-2.9506546456692915
0
LINE
8
BLACK
6
CONTINUOUS
10
3.2605900787401576
20
-2.9506546456692915
11
3.2628159842519686
21
-2.9409022047244093
0
LINE
8
BLACK
6
CONTINUOUS
10
3.2628159842519686
20
-2.9409022047244093
11
3.2664705905511808
21
-2.9315904724409449
0
LINE
8
BLACK
6
CONTINUOUS
10
3.2664705905511808
20
-2.9315904724409449
11
3.2714722047244096
21
-2.9229274015748032
0
LINE
8
BLACK
6
CONTINUOUS
10
3.2714722047244096
20
-2.9229274015748032
11
3.2777091338582678
21
-2.915106535433071
0
LINE
8
BLACK
6
CONTINUOUS
10
3.2777091338582678
20
-2.915106535433071
11
3.2850420078740155
21
-2.9083025984251969
0
LINE
8
BLACK
6
CONTINUOUS
10
3.2850420078740155
20
-2.9083025984251969
11
3.2933070866141732
21
-2.9026675984251966
0
LINE
8
BLACK
6
CONTINUOUS
10
3.2933070866141732
20
-2.9026675984251966
11
3.3023196850393699
21
-2.8983273622047245
0
LINE
8
BLACK
6
CONTINUOUS
10
3.3023196850393699
20
-2.8983273622047245
11
3.3118785039370078
21
-2.8953788582677165
0
LINE
8
BLACK
6
CONTINUOUS
10
3.3118785039370078
20
-2.8953788582677165
11
3.3217700393700786
21
-2.8938879527559056
0
LINE
8
BLACK
6
CONTINUOUS
10
3.3217700393700786
20
-2.8938879527559056
11
3.3317732677165353
21
-2.8938879527559056
0
LINE
8
BLACK
6
CONTINUOUS
10
3.3317732677165353
20
-2.8938879527559056
11
3.3416648031496061
21
-2.8953788582677165
0
LINE
8
BLACK
6
CONTINUOUS
10
5.1133183464566931
20
-2.8953788582677165
11
5.122877165354331
21
-2.8983273622047245
0
LINE
8
BLACK
6
CONTINUOUS
10
5.122877165354331
20
-2.8983273622047245
11
5.1318897637795278
21
-2.9026675984251966
0
LINE
8
BLACK
6
CONTINUOUS
10
5.1318897637795278
20
-2.9026675984251966
11
5.140154842519685
21
-2.9083025984251969
0
LINE
8
BLACK
6
CONTINUOUS
10
5.140154842519685
20
-2.9083025984251969
11
5.1474877165354327
21
-2.915106535433071
0
LINE
8
BLACK
6
CONTINUOUS
10
5.1474877165354327
20
-2.915106535433071
11
5.1537246456692909
21
-2.9229274015748032
0
LINE
8
BLACK
6
CONTINUOUS
10
5.1537246456692909
20
-2.9229274015748032
11
5.1587262598425196
21
-2.9315904724409449
0
LINE
8
BLACK
6
CONTINUOUS
10
5.1587262598425196
20
-2.9315904724409449
11
5.1623808661417323
21
-2.9409022047244093
0
LINE
8
BLACK
6
CONTINUOUS
10
5.1623808661417323
20
-2.9409022047244093
11
5.1646067716535429
21
-2.9506546456692915
0
LINE
8
BLACK
6
CONTINUOUS
10
5.1646067716535429
20
-2.9506546456692915
11
5.1653543307086611
21
-2.9606299212598426
0
LINE
8
BLACK
6
CONTINUOUS
10
5.1653543307086611
20
-2.9606299212598426
11
5.1646067716535429
21
-2.9706051968503937
0
LINE
8
BLACK
6
CONTINUOUS
10
5.1646067716535429
20
-2.9706051968503937
11
5.1623808661417323
21
-2.9803576377952754
0
LINE
8
BLACK
6
CONTINUOUS
10
5.1623808661417323
20
-2.9803576377952754
11
5.1587262598425196
21
-2.9896693700787402
0
LINE
8
BLACK
6
CONTINUOUS
10
5.1587262598425196
20
-2.9896693700787402
11
5.1537246456692909
21
-2.9983324409448819
0
LINE
8
BLACK
6
CONTINUOUS
10
5.1537246456692909
20
-2.9983324409448819
11
5.1474877165354327
21
-3.0061533070866142
0
LINE
8
BLACK
6
CONTINUOUS
10
5.1474877165354327
20
-3.0061533070866142
11
5.140154842519685
21
-3.0129572440944883
0
LINE
8
BLACK
6
CONTINUOUS
10
5.140154842519685
20
-3.0129572440944883
11
5.1318897637795278
21
-3.0185922440944881
0
LINE
8
BLACK
6
CONTINUOUS
10
5.1318897637795278
20
-3.0185922440944881
11
5.122877165354331
21
-3.0229324803149606
0
LINE
8
BLACK
6
CONTINUOUS
10
5.122877165354331
20
-3.0229324803149606
11
5.1133183464566931
21
-3.0258809842519683
0
LINE
8
BLACK
6
CONTINUOUS
10
5.1133183464566931
20
-3.0258809842519683
11
5.1034268110236223
21
-3.0273718897637796
0
LINE
8
BLACK
6
CONTINUOUS
10
5.1034268110236223
20
-3.0273718897637796
11
5.0934235826771657
21
-3.0273718897637796
0
LINE
8
BLACK
6
CONTINUOUS
10
5.0934235826771657
20
-3.0273718897637796
11
5.0835320472440948
21
-3.0258809842519683
0
LINE
8
BLACK
6
CONTINUOUS
10
5.0835320472440948
20
-3.0258809842519683
11
5.0739732283464569
21
-3.0229324803149606
0
LINE
8
BLACK
6
CONTINUOUS
10
5.0739732283464569
20
-3.0229324803149606
11
5.0649606299212602
21
-3.0185922440944881
0
LINE
8
BLACK
6
CONTINUOUS
10
5.0649606299212602
20
-3.0185922440944881
11
5.056695551181102
21
-3.0129572440944883
0
LINE
8
BLACK
6
CONTINUOUS
10
5.056695551181102
20
-3.0129572440944883
11
5.0493626771653544
21
-3.0061533070866142
0
LINE
8
BLACK
6
CONTINUOUS
10
5.0493626771653544
20
-3.0061533070866142
11
5.0431257480314962
21
-2.9983324409448819
0
LINE
8
BLACK
6
CONTINUOUS
10
5.0431257480314962
20
-2.9983324409448819
11
5.0381241338582674
21
-2.9896693700787402
0
LINE
8
BLACK
6
CONTINUOUS
10
5.0381241338582674
20
-2.9896693700787402
11
5.0344695275590547
21
-2.9803576377952754
0
LINE
8
BLACK
6
CONTINUOUS
10
5.0344695275590547
20
-2.9803576377952754
11
5.0322436220472442
21
-2.9706051968503937
0
LINE
8
BLACK
6
CONTINUOUS
10
5.0322436220472442
20
-2.9706051968503937
11
5.0314960629921259
21
-2.9606299212598426
0
LINE
8
BLACK
6
CONTINUOUS
10
5.0314960629921259
20
-2.9606299212598426
11
5.0322436220472442
21
-2.9506546456692915
0
LINE
8
BLACK
6
CONTINUOUS
10
5.0322436220472442
20
-2.9506546456692915
11
5.0344695275590547
21
-2.9409022047244093
0
LINE
8
BLACK
6
CONTINUOUS
10
5.0344695275590547
20
-2.9409022047244093
11
5.0381241338582674
21
-2.9315904724409449
0
LINE
8
BLACK
6
CONTINUOUS
10
5.0381241338582674
20
-2.9315904724409449
11
5.0431257480314962
21
-2.9229274015748032
0
LINE
8
BLACK
6
CONTINUOUS
10
5.0431257480314962
20
-2.9229274015748032
11
5.0493626771653544
21
-2.915106535433071
0
LINE
8
BLACK
6
CONTINUOUS
10
5.0493626771653544
20
-2.915106535433071
11
5.056695551181102
21
-2.9083025984251969
0
LINE
8
BLACK
6
CONTINUOUS
10
5.056695551181102
20
-2.9083025984251969
11
5.0649606299212602
21
-2.9026675984251966
0
LINE
8
BLACK
6
CONTINUOUS
10
5.0649606299212602
20
-2.9026675984251966
11
5.0739732283464569
21
-2.8983273622047245
0
LINE
8
BLACK
6
CONTINUOUS
10
5.0739732283464569
20
-2.8983273622047245
11
5.0835320472440948
21
-2.8953788582677165
0
LINE
8
BLACK
6
CONTINUOUS
10
5.0835320472440948
20
-2.8953788582677165
11
5.0934235826771657
21
-2.8938879527559056
0
LINE
8
BLACK
6
CONTINUOUS
10
5.0934235826771657
20
-2.8938879527559056
11
5.1034268110236223
21
-2.8938879527559056
0
LINE
8
BLACK
6
CONTINUOUS
10
5.1034268110236223
20
-2.8938879527559056
11
5.1133183464566931
21
-2.8953788582677165
0
LINE
8
BLACK
6
CONTINUOUS
10
6.2944207086614172
20
-2.8953788582677165
11
6.3039795275590551
21
-2.8983273622047245
0
LINE
8
BLACK
6
CONTINUOUS
10
6.3039795275590551
20
-2.8983273622047245
11
6.3129921259842519
21
-2.9026675984251966
0
LINE
8
BLACK
6
CONTINUOUS
10
6.3129921259842519
20
-2.9026675984251966
11
6.3212572047244091
21
-2.9083025984251969
0
LINE
8
BLACK
6
CONTINUOUS
10
6.3212572047244091
20
-2.9083025984251969
11
6.3285900787401577
21
-2.915106535433071
0
LINE
8
BLACK
6
CONTINUOUS
10
6.3285900787401577
20
-2.915106535433071
11
6.3348270078740159
21
-2.9229274015748032
0
LINE
8
BLACK
6
CONTINUOUS
10
6.3348270078740159
20
-2.9229274015748032
11
6.3398286220472437
21
-2.9315904724409449
0
LINE
8
BLACK
6
CONTINUOUS
10
6.3398286220472437
20
-2.9315904724409449
11
6.3434832283464564
21
-2.9409022047244093
0
LINE
8
BLACK
6
CONTINUOUS
10
6.3434832283464564
20
-2.9409022047244093
11
6.3457091338582678
21
-2.9506546456692915
0
LINE
8
BLACK
6
CONTINUOUS
10
6.3457091338582678
20
-2.9506546456692915
11
6.3464566929133861
21
-2.9606299212598426
0
LINE
8
BLACK
6
CONTINUOUS
10
6.3464566929133861
20
-2.9606299212598426
11
6.3457091338582678
21
-2.9706051968503937
0
LINE
8
BLACK
6
CONTINUOUS
10
6.3457091338582678
20
-2.9706051968503937
11
6.3434832283464564
21
-2.9803576377952754
0
LINE
8
BLACK
6
CONTINUOUS
10
6.3434832283464564
20
-2.9803576377952754
11
6.3398286220472437
21
-2.9896693700787402
0
LINE
8
BLACK
6
CONTINUOUS
10
6.3398286220472437
20
-2.9896693700787402
11
6.3348270078740159
21
-2.9983324409448819
0
LINE
8
BLACK
6
CONTINUOUS
10
6.3348270078740159
20
-2.9983324409448819
11
6.3285900787401577
21
-3.0061533070866142
0
LINE
8
BLACK
6
CONTINUOUS
10
6.3285900787401577
20
-3.0061533070866142
11
6.3212572047244091
21
-3.0129572440944883
0
LINE
8
BLACK
6
CONTINUOUS
10
6.3212572047244091
20
-3.0129572440944883
11
6.3129921259842519
21
-3.0185922440944881
0
LINE
8
BLACK
6
CONTINUOUS
10
6.3129921259842519
20
-3.0185922440944881
11
6.3039795275590551
21
-3.0229324803149606
0
LINE
8
BLACK
6
CONTINUOUS
10
6.3039795275590551
20
-3.0229324803149606
11
6.2944207086614172
21
-3.0258809842519683
0
LINE
8
BLACK
6
CONTINUOUS
10
6.2944207086614172
20
-3.0258809842519683
11
6.2845291732283464
21
-3.0273718897637796
0
LINE
8
BLACK
6
CONTINUOUS
10
6.2845291732283464
20
-3.0273718897637796
11
6.2745259448818897
21
-3.0273718897637796
0
LINE
8
BLACK
6
CONTINUOUS
10
6.2745259448818897
20
-3.0273718897637796
11
6.2646344094488189
21
-3.0258809842519683
0
LINE
8
BLACK
6
CONTINUOUS
10
6.2646344094488189
20
-3.0258809842519683
11
6.255075590551181
21
-3.0229324803149606
0
LINE
8
BLACK
6
CONTINUOUS
10
6.255075590551181
20
-3.0229324803149606
11
6.2460629921259843
21
-3.0185922440944881
0
LINE
8
BLACK
6
CONTINUOUS
10
6.2460629921259843
20
-3.0185922440944881
11
6.237797913385827
21
-3.0129572440944883
0
LINE
8
BLACK
6
CONTINUOUS
10
6.237797913385827
20
-3.0129572440944883
11
6.2304650393700785
21
-3.0061533070866142
0
LINE
8
BLACK
6
CONTINUOUS
10
6.2304650393700785
20
-3.0061533070866142
11
6.2242281102362202
21
-2.9983324409448819
0
LINE
8
BLACK
6
CONTINUOUS
10
6.2242281102362202
20
-2.9983324409448819
11
6.2192264960629924
21
-2.9896693700787402
0
LINE
8
BLACK
6
CONTINUOUS
10
6.2192264960629924
20
-2.9896693700787402
11
6.2155718897637797
21
-2.9803576377952754
0
LINE
8
BLACK
6
CONTINUOUS
10
6.2155718897637797
20
-2.9803576377952754
11
6.2133459842519683
21
-2.9706051968503937
0
LINE
8
BLACK
6
CONTINUOUS
10
6.2133459842519683
20
-2.9706051968503937
11
6.21259842519685
21
-2.9606299212598426
0
LINE
8
BLACK
6
CONTINUOUS
10
6.21259842519685
20
-2.9606299212598426
11
6.2133459842519683
21
-2.9506546456692915
0
LINE
8
BLACK
6
CONTINUOUS
10
6.2133459842519683
20
-2.9506546456692915
11
6.2155718897637797
21
-2.9409022047244093
0
LINE
8
BLACK
6
CONTINUOUS
10
6.2155718897637797
20
-2.9409022047244093
11
6.2192264960629924
21
-2.9315904724409449
0
LINE
8
BLACK
6
CONTINUOUS
10
6.2192264960629924
20
-2.9315904724409449
11
6.2242281102362202
21
-2.9229274015748032
0
LINE
8
BLACK
6
CONTINUOUS
10
6.2242281102362202
20
-2.9229274015748032
11
6.2304650393700785
21
-2.915106535433071
0
LINE
8
BLACK
6
CONTINUOUS
10
6.2304650393700785
20
-2.915106535433071
11
6.237797913385827
21
-2.9083025984251969
0
LINE
8
BLACK
6
CONTINUOUS
10
6.237797913385827
20
-2.9083025984251969
11
6.2460629921259843
21
-2.9026675984251966
0
LINE
8
BLACK
6
CONTINUOUS
10
6.2460629921259843
20
-2.9026675984251966
11
6.255075590551181
21
-2.8983273622047245
0
LINE
8
BLACK
6
CONTINUOUS
10
6.255075590551181
20
-2.8983273622047245
11
6.2646344094488189
21
-2.8953788582677165
0
LINE
8
BLACK
6
CONTINUOUS
10
6.2646344094488189
20
-2.8953788582677165
11
6.2745259448818897
21
-2.8938879527559056
0
LINE
8
BLACK
6
CONTINUOUS
10
6.2745259448818897
20
-2.8938879527559056
11
6.2845291732283464
21
-2.8938879527559056
0
LINE
8
BLACK
6
CONTINUOUS
10
6.2845291732283464
20
-2.8938879527559056
11
6.2944207086614172
21
-2.8953788582677165
0
LINE
8
BLACK
6
CONTINUOUS
10
5.3659712992125987
20
-2.9333279527559055
11
5.3691644488188972
21
-2.9354615354330709
0
LINE
8
BLACK
6
CONTINUOUS
10
5.3691644488188972
20
-2.9354615354330709
11
5.371298031496063
21
-2.9386546850393702
0
LINE
8
BLACK
6
CONTINUOUS
10
5.371298031496063
20
-2.9386546850393702
11
5.372047244094488
21
-2.9424212598425195
0
LINE
8
BLACK
6
CONTINUOUS
10
5.372047244094488
20
-2.9424212598425195
11
5.372047244094488
21
-2.9630905511811023
0
LINE
8
BLACK
6
CONTINUOUS
10
5.372047244094488
20
-2.9630905511811023
11
5.371298031496063
21
-2.966857125984252
0
LINE
8
BLACK
6
CONTINUOUS
10
5.371298031496063
20
-2.966857125984252
11
5.3691644488188972
21
-2.9700502755905509
0
LINE
8
BLACK
6
CONTINUOUS
10
5.3691644488188972
20
-2.9700502755905509
11
5.3659712992125987
21
-2.9721838582677162
0
LINE
8
BLACK
6
CONTINUOUS
10
5.3659712992125987
20
-2.9721838582677162
11
5.3622047244094491
21
-2.9729330708661417
0
LINE
8
BLACK
6
CONTINUOUS
10
5.3622047244094491
20
-2.9729330708661417
11
5.3267716535433074
21
-2.9729330708661417
0
LINE
8
BLACK
6
CONTINUOUS
10
5.3267716535433074
20
-2.9729330708661417
11
5.3230050787401577
21
-2.9721838582677162
0
LINE
8
BLACK
6
CONTINUOUS
10
5.3230050787401577
20
-2.9721838582677162
11
5.3198119291338584
21
-2.9700502755905509
0
LINE
8
BLACK
6
CONTINUOUS
10
5.3198119291338584
20
-2.9700502755905509
11
5.3176783464566926
21
-2.966857125984252
0
LINE
8
BLACK
6
CONTINUOUS
10
5.3176783464566926
20
-2.966857125984252
11
5.3169291338582676
21
-2.9630905511811023
0
LINE
8
BLACK
6
CONTINUOUS
10
5.3169291338582676
20
-2.9630905511811023
11
5.3169291338582676
21
-2.9424212598425195
0
LINE
8
BLACK
6
CONTINUOUS
10
5.3169291338582676
20
-2.9424212598425195
11
5.3176783464566926
21
-2.9386546850393702
0
LINE
8
BLACK
6
CONTINUOUS
10
5.3176783464566926
20
-2.9386546850393702
11
5.3198119291338584
21
-2.9354615354330709
0
LINE
8
BLACK
6
CONTINUOUS
10
5.3198119291338584
20
-2.9354615354330709
11
5.3230050787401577
21
-2.9333279527559055
0
LINE
8
BLACK
6
CONTINUOUS
10
5.3230050787401577
20
-2.9333279527559055
11
5.3267716535433074
21
-2.9325787401574801
0
LINE
8
BLACK
6
CONTINUOUS
10
5.3267716535433074
20
-2.9325787401574801
11
5.3622047244094491
21
-2.9325787401574801
0
LINE
8
BLACK
6
CONTINUOUS
10
5.3622047244094491
20
-2.9325787401574801
11
5.3659712992125987
21
-2.9333279527559055
0
LINE
8
BLACK
6
CONTINUOUS
10
5.4447114566929136
20
-2.9333279527559055
11
5.4479046062992129
21
-2.9354615354330709
0
LINE
8
BLACK
6
CONTINUOUS
10
5.4479046062992129
20
-2.9354615354330709
11
5.4500381889763778
21
-2.9386546850393702
0
LINE
8
BLACK
6
CONTINUOUS
10
5.4500381889763778
20
-2.9386546850393702
11
5.4507874015748028
21
-2.9424212598425195
0
LINE
8
BLACK
6
CONTINUOUS
10
5.4507874015748028
20
-2.9424212598425195
11
5.4507874015748028
21
-2.9630905511811023
0
LINE
8
BLACK
6
CONTINUOUS
10
5.4507874015748028
20
-2.9630905511811023
11
5.4500381889763778
21
-2.966857125984252
0
LINE
8
BLACK
6
CONTINUOUS
10
5.4500381889763778
20
-2.966857125984252
11
5.4479046062992129
21
-2.9700502755905509
0
LINE
8
BLACK
6
CONTINUOUS
10
5.4479046062992129
20
-2.9700502755905509
11
5.4447114566929136
21
-2.9721838582677162
0
LINE
8
BLACK
6
CONTINUOUS
10
5.4447114566929136
20
-2.9721838582677162
11
5.4409448818897639
21
-2.9729330708661417
0
LINE
8
BLACK
6
CONTINUOUS
10
5.4409448818897639
20
-2.9729330708661417
11
5.4055118110236222
21
-2.9729330708661417
0
LINE
8
BLACK
6
CONTINUOUS
10
5.4055118110236222
20
-2.9729330708661417
11
5.4017452362204725
21
-2.9721838582677162
0
LINE
8
BLACK
6
CONTINUOUS
10
5.4017452362204725
20
-2.9721838582677162
11
5.3985520866141732
21
-2.9700502755905509
0
LINE
8
BLACK
6
CONTINUOUS
10
5.3985520866141732
20
-2.9700502755905509
11
5.3964185039370074
21
-2.966857125984252
0
LINE
8
BLACK
6
CONTINUOUS
10
5.3964185039370074
20
-2.966857125984252
11
5.3956692913385824
21
-2.9630905511811023
0
LINE
8
BLACK
6
CONTINUOUS
10
5.3956692913385824
20
-2.9630905511811023
11
5.3956692913385824
21
-2.9424212598425195
0
LINE
8
BLACK
6
CONTINUOUS
10
5.3956692913385824
20
-2.9424212598425195
11
5.3964185039370074
21
-2.9386546850393702
0
LINE
8
BLACK
6
CONTINUOUS
10
5.3964185039370074
20
-2.9386546850393702
11
5.3985520866141732
21
-2.9354615354330709
0
LINE
8
BLACK
6
CONTINUOUS
10
5.3985520866141732
20
-2.9354615354330709
11
5.4017452362204725
21
-2.9333279527559055
0
LINE
8
BLACK
6
CONTINUOUS
10
5.4017452362204725
20
-2.9333279527559055
11
5.4055118110236222
21
-2.9325787401574801
0
LINE
8
BLACK
6
CONTINUOUS
10
5.4055118110236222
20
-2.9325787401574801
11
5.4409448818897639
21
-2.9325787401574801
0
LINE
8
BLACK
6
CONTINUOUS
10
5.4409448818897639
20
-2.9325787401574801
11
5.4447114566929136
21
-2.9333279527559055
0
LINE
8
BLACK
6
CONTINUOUS
10
5.5647901968503932
20
-2.5893318897637796
11
5.5679833464566926
21
-2.5914654724409449
0
LINE
8
BLACK
6
CONTINUOUS
10
5.5679833464566926
20
-2.5914654724409449
11
5.5701169291338584
21
-2.5946586220472438
0
LINE
8
BLACK
6
CONTINUOUS
10
5.5701169291338584
20
-2.5946586220472438
11
5.5708661417322833
21
-2.5984251968503935
0
LINE
8
BLACK
6
CONTINUOUS
10
5.5708661417322833
20
-2.5984251968503935
11
5.5708661417322833
21
-2.795275590551181
0
LINE
8
BLACK
6
CONTINUOUS
10
5.5708661417322833
20
-2.795275590551181
11
5.5701169291338584
21
-2.7990421653543307
0
LINE
8
BLACK
6
CONTINUOUS
10
5.5701169291338584
20
-2.7990421653543307
11
5.5679833464566926
21
-2.8022353149606301
0
LINE
8
BLACK
6
CONTINUOUS
10
5.5679833464566926
20
-2.8022353149606301
11
5.5647901968503932
21
-2.8043688976377954
0
LINE
8
BLACK
6
CONTINUOUS
10
5.5647901968503932
20
-2.8043688976377954
11
5.5610236220472435
21
-2.8051181102362204
0
LINE
8
BLACK
6
CONTINUOUS
10
5.5610236220472435
20
-2.8051181102362204
11
5.5413385826771648
21
-2.8051181102362204
0
LINE
8
BLACK
6
CONTINUOUS
10
5.5413385826771648
20
-2.8051181102362204
11
5.537572007874016
21
-2.8043688976377954
0
LINE
8
BLACK
6
CONTINUOUS
10
5.537572007874016
20
-2.8043688976377954
11
5.5343788582677167
21
-2.8022353149606301
0
LINE
8
BLACK
6
CONTINUOUS
10
5.5343788582677167
20
-2.8022353149606301
11
5.5322452755905509
21
-2.7990421653543307
0
LINE
8
BLACK
6
CONTINUOUS
10
5.5322452755905509
20
-2.7990421653543307
11
5.5314960629921259
21
-2.795275590551181
0
LINE
8
BLACK
6
CONTINUOUS
10
5.5314960629921259
20
-2.795275590551181
11
5.5314960629921259
21
-2.5984251968503935
0
LINE
8
BLACK
6
CONTINUOUS
10
5.5314960629921259
20
-2.5984251968503935
11
5.5322452755905509
21
-2.5946586220472438
0
LINE
8
BLACK
6
CONTINUOUS
10
5.5322452755905509
20
-2.5946586220472438
11
5.5343788582677167
21
-2.5914654724409449
0
LINE
8
BLACK
6
CONTINUOUS
10
5.5343788582677167
20
-2.5914654724409449
11
5.537572007874016
21
-2.5893318897637796
0
LINE
8
BLACK
6
CONTINUOUS
10
5.537572007874016
20
-2.5893318897637796
11
5.5413385826771648
21
-2.5885826771653542
0
LINE
8
BLACK
6
CONTINUOUS
10
5.5413385826771648
20
-2.5885826771653542
11
5.5610236220472435
21
-2.5885826771653542
0
LINE
8
BLACK
6
CONTINUOUS
10
5.5610236220472435
20
-2.5885826771653542
11
5.5647901968503932
21
-2.5893318897637796
0
LINE
8
BLACK
6
CONTINUOUS
10
5.6435303543307089
20
-2.5893318897637796
11
5.6467235039370074
21
-2.5914654724409449
0
LINE
8
BLACK
6
CONTINUOUS
10
5.6467235039370074
20
-2.5914654724409449
11
5.6488570866141732
21
-2.5946586220472438
0
LINE
8
BLACK
6
CONTINUOUS
10
5.6488570866141732
20
-2.5946586220472438
11
5.6496062992125982
21
-2.5984251968503935
0
LINE
8
BLACK
6
CONTINUOUS
10
5.6496062992125982
20
-2.5984251968503935
11
5.6496062992125982
21
-2.795275590551181
0
LINE
8
BLACK
6
CONTINUOUS
10
5.6496062992125982
20
-2.795275590551181
11
5.6488570866141732
21
-2.7990421653543307
0
LINE
8
BLACK
6
CONTINUOUS
10
5.6488570866141732
20
-2.7990421653543307
11
5.6467235039370074
21
-2.8022353149606301
0
LINE
8
BLACK
6
CONTINUOUS
10
5.6467235039370074
20
-2.8022353149606301
11
5.6435303543307089
21
-2.8043688976377954
0
LINE
8
BLACK
6
CONTINUOUS
10
5.6435303543307089
20
-2.8043688976377954
11
5.6397637795275593
21
-2.8051181102362204
0
LINE
8
BLACK
6
CONTINUOUS
10
5.6397637795275593
20
-2.8051181102362204
11
5.6200787401574805
21
-2.8051181102362204
0
LINE
8
BLACK
6
CONTINUOUS
10
5.6200787401574805
20
-2.8051181102362204
11
5.6163121653543309
21
-2.8043688976377954
0
LINE
8
BLACK
6
CONTINUOUS
10
5.6163121653543309
20
-2.8043688976377954
11
5.6131190157480315
21
-2.8022353149606301
0
LINE
8
BLACK
6
CONTINUOUS
10
5.6131190157480315
20
-2.8022353149606301
11
5.6109854330708657
21
-2.7990421653543307
0
LINE
8
BLACK
6
CONTINUOUS
10
5.6109854330708657
20
-2.7990421653543307
11
5.6102362204724407
21
-2.795275590551181
0
LINE
8
BLACK
6
CONTINUOUS
10
5.6102362204724407
20
-2.795275590551181
11
5.6102362204724407
21
-2.5984251968503935
0
LINE
8
BLACK
6
CONTINUOUS
10
5.6102362204724407
20
-2.5984251968503935
11
5.6109854330708657
21
-2.5946586220472438
0
LINE
8
BLACK
6
CONTINUOUS
10
5.6109854330708657
20
-2.5946586220472438
11
5.6131190157480315
21
-2.5914654724409449
0
LINE
8
BLACK
6
CONTINUOUS
10
5.6131190157480315
20
-2.5914654724409449
11
5.6163121653543309
21
-2.5893318897637796
0
LINE
8
BLACK
6
CONTINUOUS
10
5.6163121653543309
20
-2.5893318897637796
11
5.6200787401574805
21
-2.5885826771653542
0
LINE
8
BLACK
6
CONTINUOUS
10
5.6200787401574805
20
-2.5885826771653542
11
5.6397637795275593
21
-2.5885826771653542
0
LINE
8
BLACK
6
CONTINUOUS
10
5.6397637795275593
20
-2.5885826771653542
11
5.6435303543307089
21
-2.5893318897637796
0
LINE
8
BLACK
6
CONTINUOUS
10
5.7222705118110238
20
-2.5893318897637796
11
5.7254636614173231
21
-2.5914654724409449
0
LINE
8
BLACK
6
CONTINUOUS
10
5.7254636614173231
20
-2.5914654724409449
11
5.727597244094488
21
-2.5946586220472438
0
LINE
8
BLACK
6
CONTINUOUS
10
5.727597244094488
20
-2.5946586220472438
11
5.728346456692913
21
-2.5984251968503935
0
LINE
8
BLACK
6
CONTINUOUS
10
5.728346456692913
20
-2.5984251968503935
11
5.728346456692913
21
-2.795275590551181
0
LINE
8
BLACK
6
CONTINUOUS
10
5.728346456692913
20
-2.795275590551181
11
5.727597244094488
21
-2.7990421653543307
0
LINE
8
BLACK
6
CONTINUOUS
10
5.727597244094488
20
-2.7990421653543307
11
5.7254636614173231
21
-2.8022353149606301
0
LINE
8
BLACK
6
CONTINUOUS
10
5.7254636614173231
20
-2.8022353149606301
11
5.7222705118110238
21
-2.8043688976377954
0
LINE
8
BLACK
6
CONTINUOUS
10
5.7222705118110238
20
-2.8043688976377954
11
5.7185039370078741
21
-2.8051181102362204
0
LINE
8
BLACK
6
CONTINUOUS
10
5.7185039370078741
20
-2.8051181102362204
11
5.6988188976377954
21
-2.8051181102362204
0
LINE
8
BLACK
6
CONTINUOUS
10
5.6988188976377954
20
-2.8051181102362204
11
5.6950523228346457
21
-2.8043688976377954
0
LINE
8
BLACK
6
CONTINUOUS
10
5.6950523228346457
20
-2.8043688976377954
11
5.6918591732283463
21
-2.8022353149606301
0
LINE
8
BLACK
6
CONTINUOUS
10
5.6918591732283463
20
-2.8022353149606301
11
5.6897255905511805
21
-2.7990421653543307
0
LINE
8
BLACK
6
CONTINUOUS
10
5.6897255905511805
20
-2.7990421653543307
11
5.6889763779527556
21
-2.795275590551181
0
LINE
8
BLACK
6
CONTINUOUS
10
5.6889763779527556
20
-2.795275590551181
11
5.6889763779527556
21
-2.5984251968503935
0
LINE
8
BLACK
6
CONTINUOUS
10
5.6889763779527556
20
-2.5984251968503935
11
5.6897255905511805
21
-2.5946586220472438
0
LINE
8
BLACK
6
CONTINUOUS
10
5.6897255905511805
20
-2.5946586220472438
11
5.6918591732283463
21
-2.5914654724409449
0
LINE
8
BLACK
6
CONTINUOUS
10
5.6918591732283463
20
-2.5914654724409449
11
5.6950523228346457
21
-2.5893318897637796
0
LINE
8
BLACK
6
CONTINUOUS
10
5.6950523228346457
20
-2.5893318897637796
11
5.6988188976377954
21
-2.5885826771653542
0
LINE
8
BLACK
6
CONTINUOUS
10
5.6988188976377954
20
-2.5885826771653542
11
5.7185039370078741
21
-2.5885826771653542
0
LINE
8
BLACK
6
CONTINUOUS
10
5.7185039370078741
20
-2.5885826771653542
11
5.7222705118110238
21
-2.5893318897637796
0
LINE
8
BLACK
6
CONTINUOUS
10
5.8010106692913386
20
-2.5893318897637796
11
5.8042038188976379
21
-2.5914654724409449
0
LINE
8
BLACK
6
CONTINUOUS
10
5.8042038188976379
20
-2.5914654724409449
11
5.8063374015748028
21
-2.5946586220472438
0
LINE
8
BLACK
6
CONTINUOUS
10
5.8063374015748028
20
-2.5946586220472438
11
5.8070866141732278
21
-2.5984251968503935
0
LINE
8
BLACK
6
CONTINUOUS
10
5.8070866141732278
20
-2.5984251968503935
11
5.8070866141732278
21
-2.795275590551181
0
LINE
8
BLACK
6
CONTINUOUS
10
5.8070866141732278
20
-2.795275590551181
11
5.8063374015748028
21
-2.7990421653543307
0
LINE
8
BLACK
6
CONTINUOUS
10
5.8063374015748028
20
-2.7990421653543307
11
5.8042038188976379
21
-2.8022353149606301
0
LINE
8
BLACK
6
CONTINUOUS
10
5.8042038188976379
20
-2.8022353149606301
11
5.8010106692913386
21
-2.8043688976377954
0
LINE
8
BLACK
6
CONTINUOUS
10
5.8010106692913386
20
-2.8043688976377954
11
5.7972440944881889
21
-2.8051181102362204
0
LINE
8
BLACK
6
CONTINUOUS
10
5.7972440944881889
20
-2.8051181102362204
11
5.7775590551181102
21
-2.8051181102362204
0
LINE
8
BLACK
6
CONTINUOUS
10
5.7775590551181102
20
-2.8051181102362204
11
5.7737924803149605
21
-2.8043688976377954
0
LINE
8
BLACK
6
CONTINUOUS
10
5.7737924803149605
20
-2.8043688976377954
11
5.7705993307086612
21
-2.8022353149606301
0
LINE
8
BLACK
6
CONTINUOUS
10
5.7705993307086612
20
-2.8022353149606301
11
5.7684657480314963
21
-2.7990421653543307
0
LINE
8
BLACK
6
CONTINUOUS
10
5.7684657480314963
20
-2.7990421653543307
11
5.7677165354330704
21
-2.795275590551181
0
LINE
8
BLACK
6
CONTINUOUS
10
5.7677165354330704
20
-2.795275590551181
11
5.7677165354330704
21
-2.5984251968503935
0
LINE
8
BLACK
6
CONTINUOUS
10
5.7677165354330704
20
-2.5984251968503935
11
5.7684657480314963
21
-2.5946586220472438
0
LINE
8
BLACK
6
CONTINUOUS
10
5.7684657480314963
20
-2.5946586220472438
11
5.7705993307086612
21
-2.5914654724409449
0
LINE
8
BLACK
6
CONTINUOUS
10
5.7705993307086612
20
-2.5914654724409449
11
5.7737924803149605
21
-2.5893318897637796
0
LINE
8
BLACK
6
CONTINUOUS
10
5.7737924803149605
20
-2.5893318897637796
11
5.7775590551181102
21
-2.5885826771653542
0
LINE
8
BLACK
6
CONTINUOUS
10
5.7775590551181102
20
-2.5885826771653542
11
5.7972440944881889
21
-2.5885826771653542
0
LINE
8
BLACK
6
CONTINUOUS
10
5.7972440944881889
20
-2.5885826771653542
11
5.8010106692913386
21
-2.5893318897637796
0
LINE
8
BLACK
6
CONTINUOUS
10
5.4821130314960627
20
-2.5499618110236222
11
5.485306181102362
21
-2.5520953937007875
0
LINE
8
BLACK
6
CONTINUOUS
10
5.485306181102362
20
-2.5520953937007875
11
5.4874397637795278
21
-2.5552885433070864
0
LINE
8
BLACK
6
CONTINUOUS
10
5.4874397637795278
20
-2.5552885433070864
11
5.4881889763779528
21
-2.5590551181102361
0
LINE
8
BLACK
6
CONTINUOUS
10
5.4881889763779528
20
-2.5590551181102361
11
5.4881889763779528
21
-2.6574803149606296
0
LINE
8
BLACK
6
CONTINUOUS
10
5.4881889763779528
20
-2.6574803149606296
11
5.4874397637795278
21
-2.6612468897637793
0
LINE
8
BLACK
6
CONTINUOUS
10
5.4874397637795278
20
-2.6612468897637793
11
5.485306181102362
21
-2.6644400393700787
0
LINE
8
BLACK
6
CONTINUOUS
10
5.485306181102362
20
-2.6644400393700787
11
5.4821130314960627
21
-2.666573622047244
0
LINE
8
BLACK
6
CONTINUOUS
10
5.4821130314960627
20
-2.666573622047244
11
5.478346456692913
21
-2.6673228346456694
0
LINE
8
BLACK
6
CONTINUOUS
10
5.478346456692913
20
-2.6673228346456694
11
5.4350393700787398
21
-2.6673228346456694
0
LINE
8
BLACK
6
CONTINUOUS
10
5.4350393700787398
20
-2.6673228346456694
11
5.4312727952755901
21
-2.666573622047244
0
LINE
8
BLACK
6
CONTINUOUS
10
5.4312727952755901
20
-2.666573622047244
11
5.4280796456692908
21
-2.6644400393700787
0
LINE
8
BLACK
6
CONTINUOUS
10
5.4280796456692908
20
-2.6644400393700787
11
5.4259460629921259
21
-2.6612468897637793
0
LINE
8
BLACK
6
CONTINUOUS
10
5.4259460629921259
20
-2.6612468897637793
11
5.4251968503937009
21
-2.6574803149606296
0
LINE
8
BLACK
6
CONTINUOUS
10
5.4251968503937009
20
-2.6574803149606296
11
5.4251968503937009
21
-2.5590551181102361
0
LINE
8
BLACK
6
CONTINUOUS
10
5.4251968503937009
20
-2.5590551181102361
11
5.4259460629921259
21
-2.5552885433070864
0
LINE
8
BLACK
6
CONTINUOUS
10
5.4259460629921259
20
-2.5552885433070864
11
5.4280796456692908
21
-2.5520953937007875
0
LINE
8
BLACK
6
CONTINUOUS
10
5.4280796456692908
20
-2.5520953937007875
11
5.4312727952755901
21
-2.5499618110236222
0
LINE
8
BLACK
6
CONTINUOUS
10
5.4312727952755901
20
-2.5499618110236222
11
5.4350393700787398
21
-2.5492125984251968
0
LINE
8
BLACK
6
CONTINUOUS
10
5.4350393700787398
20
-2.5492125984251968
11
5.478346456692913
21
-2.5492125984251968
0
LINE
8
BLACK
6
CONTINUOUS
10
5.478346456692913
20
-2.5492125984251968
11
5.4821130314960627
21
-2.5499618110236222
0
LINE
8
BLACK
6
CONTINUOUS
10
5.9073098818897636
20
-2.5499618110236222
11
5.9105030314960629
21
-2.5520953937007875
0
LINE
8
BLACK
6
CONTINUOUS
10
5.9105030314960629
20
-2.5520953937007875
11
5.9126366141732278
21
-2.5552885433070864
0
LINE
8
BLACK
6
CONTINUOUS
10
5.9126366141732278
20
-2.5552885433070864
11
5.9133858267716537
21
-2.5590551181102361
0
LINE
8
BLACK
6
CONTINUOUS
10
5.9133858267716537
20
-2.5590551181102361
11
5.9133858267716537
21
-2.6574803149606296
0
LINE
8
BLACK
6
CONTINUOUS
10
5.9133858267716537
20
-2.6574803149606296
11
5.9126366141732278
21
-2.6612468897637793
0
LINE
8
BLACK
6
CONTINUOUS
10
5.9126366141732278
20
-2.6612468897637793
11
5.9105030314960629
21
-2.6644400393700787
0
LINE
8
BLACK
6
CONTINUOUS
10
5.9105030314960629
20
-2.6644400393700787
11
5.9073098818897636
21
-2.666573622047244
0
LINE
8
BLACK
6
CONTINUOUS
10
5.9073098818897636
20
-2.666573622047244
11
5.9035433070866139
21
-2.6673228346456694
0
LINE
8
BLACK
6
CONTINUOUS
10
5.9035433070866139
20
-2.6673228346456694
11
5.8602362204724407
21
-2.6673228346456694
0
LINE
8
BLACK
6
CONTINUOUS
10
5.8602362204724407
20
-2.6673228346456694
11
5.8564696456692911
21
-2.666573622047244
0
LINE
8
BLACK
6
CONTINUOUS
10
5.8564696456692911
20
-2.666573622047244
11
5.8532764960629917
21
-2.6644400393700787
0
LINE
8
BLACK
6
CONTINUOUS
10
5.8532764960629917
20
-2.6644400393700787
11
5.8511429133858268
21
-2.6612468897637793
0
LINE
8
BLACK
6
CONTINUOUS
10
5.8511429133858268
20
-2.6612468897637793
11
5.8503937007874018
21
-2.6574803149606296
0
LINE
8
BLACK
6
CONTINUOUS
10
5.8503937007874018
20
-2.6574803149606296
11
5.8503937007874018
21
-2.5590551181102361
0
LINE
8
BLACK
6
CONTINUOUS
10
5.8503937007874018
20
-2.5590551181102361
11
5.8511429133858268
21
-2.5552885433070864
0
LINE
8
BLACK
6
CONTINUOUS
10
5.8511429133858268
20
-2.5552885433070864
11
5.8532764960629917
21
-2.5520953937007875
0
LINE
8
BLACK
6
CONTINUOUS
10
5.8532764960629917
20
-2.5520953937007875
11
5.8564696456692911
21
-2.5499618110236222
0
LINE
8
BLACK
6
CONTINUOUS
10
5.8564696456692911
20
-2.5499618110236222
11
5.8602362204724407
21
-2.5492125984251968
0
LINE
8
BLACK
6
CONTINUOUS
10
5.8602362204724407
20
-2.5492125984251968
11
5.9035433070866139
21
-2.5492125984251968
0
LINE
8
BLACK
6
CONTINUOUS
10
5.9035433070866139
20
-2.5492125984251968
11
5.9073098818897636
21
-2.5499618110236222
0
LINE
8
BLACK
6
CONTINUOUS
10
4.1474673622047247
20
-2.1661035433070865
11
4.1506605118110231
21
-2.1682371259842519
0
LINE
8
BLACK
6
CONTINUOUS
10
4.1506605118110231
20
-2.1682371259842519
11
4.1527940944881889
21
-2.1714302755905512
0
LINE
8
BLACK
6
CONTINUOUS
10
4.1527940944881889
20
-2.1714302755905512
11
4.1535433070866139
21
-2.1751968503937009
0
LINE
8
BLACK
6
CONTINUOUS
10
4.1535433070866139
20
-2.1751968503937009
11
4.1535433070866139
21
-2.372047244094488
0
LINE
8
BLACK
6
CONTINUOUS
10
4.1535433070866139
20
-2.372047244094488
11
4.1527940944881889
21
-2.3758138188976377
0
LINE
8
BLACK
6
CONTINUOUS
10
4.1527940944881889
20
-2.3758138188976377
11
4.1506605118110231
21
-2.379006968503937
0
LINE
8
BLACK
6
CONTINUOUS
10
4.1506605118110231
20
-2.379006968503937
11
4.1474673622047247
21
-2.3811405511811023
0
LINE
8
BLACK
6
CONTINUOUS
10
4.1474673622047247
20
-2.3811405511811023
11
4.143700787401575
21
-2.3818897637795273
0
LINE
8
BLACK
6
CONTINUOUS
10
4.143700787401575
20
-2.3818897637795273
11
4.1240157480314963
21
-2.3818897637795273
0
LINE
8
BLACK
6
CONTINUOUS
10
4.1240157480314963
20
-2.3818897637795273
11
4.1202491732283466
21
-2.3811405511811023
0
LINE
8
BLACK
6
CONTINUOUS
10
4.1202491732283466
20
-2.3811405511811023
11
4.1170560236220473
21
-2.379006968503937
0
LINE
8
BLACK
6
CONTINUOUS
10
4.1170560236220473
20
-2.379006968503937
11
4.1149224409448815
21
-2.3758138188976377
0
LINE
8
BLACK
6
CONTINUOUS
10
4.1149224409448815
20
-2.3758138188976377
11
4.1141732283464565
21
-2.372047244094488
0
LINE
8
BLACK
6
CONTINUOUS
10
4.1141732283464565
20
-2.372047244094488
11
4.1141732283464565
21
-2.1751968503937009
0
LINE
8
BLACK
6
CONTINUOUS
10
4.1141732283464565
20
-2.1751968503937009
11
4.1149224409448815
21
-2.1714302755905512
0
LINE
8
BLACK
6
CONTINUOUS
10
4.1149224409448815
20
-2.1714302755905512
11
4.1170560236220473
21
-2.1682371259842519
0
LINE
8
BLACK
6
CONTINUOUS
10
4.1170560236220473
20
-2.1682371259842519
11
4.1202491732283466
21
-2.1661035433070865
0
LINE
8
BLACK
6
CONTINUOUS
10
4.1202491732283466
20
-2.1661035433070865
11
4.1240157480314963
21
-2.1653543307086616
0
LINE
8
BLACK
6
CONTINUOUS
10
4.1240157480314963
20
-2.1653543307086616
11
4.143700787401575
21
-2.1653543307086616
0
LINE
8
BLACK
6
CONTINUOUS
10
4.143700787401575
20
-2.1653543307086616
11
4.1474673622047247
21
-2.1661035433070865
0
LINE
8
BLACK
6
CONTINUOUS
10
4.2262075196850395
20
-2.1661035433070865
11
4.2294006692913388
21
-2.1682371259842519
0
LINE
8
BLACK
6
CONTINUOUS
10
4.2294006692913388
20
-2.1682371259842519
11
4.2315342519685037
21
-2.1714302755905512
0
LINE
8
BLACK
6
CONTINUOUS
10
4.2315342519685037
20
-2.1714302755905512
11
4.2322834645669287
21
-2.1751968503937009
0
LINE
8
BLACK
6
CONTINUOUS
10
4.2322834645669287
20
-2.1751968503937009
11
4.2322834645669287
21
-2.372047244094488
0
LINE
8
BLACK
6
CONTINUOUS
10
4.2322834645669287
20
-2.372047244094488
11
4.2315342519685037
21
-2.3758138188976377
0
LINE
8
BLACK
6
CONTINUOUS
10
4.2315342519685037
20
-2.3758138188976377
11
4.2294006692913388
21
-2.379006968503937
0
LINE
8
BLACK
6
CONTINUOUS
10
4.2294006692913388
20
-2.379006968503937
11
4.2262075196850395
21
-2.3811405511811023
0
LINE
8
BLACK
6
CONTINUOUS
10
4.2262075196850395
20
-2.3811405511811023
11
4.2224409448818898
21
-2.3818897637795273
0
LINE
8
BLACK
6
CONTINUOUS
10
4.2224409448818898
20
-2.3818897637795273
11
4.2027559055118111
21
-2.3818897637795273
0
LINE
8
BLACK
6
CONTINUOUS
10
4.2027559055118111
20
-2.3818897637795273
11
4.1989893307086614
21
-2.3811405511811023
0
LINE
8
BLACK
6
CONTINUOUS
10
4.1989893307086614
20
-2.3811405511811023
11
4.1957961811023621
21
-2.379006968503937
0
LINE
8
BLACK
6
CONTINUOUS
10
4.1957961811023621
20
-2.379006968503937
11
4.1936625984251972
21
-2.3758138188976377
0
LINE
8
BLACK
6
CONTINUOUS
10
4.1936625984251972
20
-2.3758138188976377
11
4.1929133858267713
21
-2.372047244094488
0
LINE
8
BLACK
6
CONTINUOUS
10
4.1929133858267713
20
-2.372047244094488
11
4.1929133858267713
21
-2.1751968503937009
0
LINE
8
BLACK
6
CONTINUOUS
10
4.1929133858267713
20
-2.1751968503937009
11
4.1936625984251972
21
-2.1714302755905512
0
LINE
8
BLACK
6
CONTINUOUS
10
4.1936625984251972
20
-2.1714302755905512
11
4.1957961811023621
21
-2.1682371259842519
0
LINE
8
BLACK
6
CONTINUOUS
10
4.1957961811023621
20
-2.1682371259842519
11
4.1989893307086614
21
-2.1661035433070865
0
LINE
8
BLACK
6
CONTINUOUS
10
4.1989893307086614
20
-2.1661035433070865
11
4.2027559055118111
21
-2.1653543307086616
0
LINE
8
BLACK
6
CONTINUOUS
10
4.2027559055118111
20
-2.1653543307086616
11
4.2224409448818898
21
-2.1653543307086616
0
LINE
8
BLACK
6
CONTINUOUS
10
4.2224409448818898
20
-2.1653543307086616
11
4.2262075196850395
21
-2.1661035433070865
0
LINE
8
BLACK
6
CONTINUOUS
10
4.3049476771653543
20
-2.1661035433070865
11
4.3081408267716537
21
-2.1682371259842519
0
LINE
8
BLACK
6
CONTINUOUS
10
4.3081408267716537
20
-2.1682371259842519
11
4.3102744094488186
21
-2.1714302755905512
0
LINE
8
BLACK
6
CONTINUOUS
10
4.3102744094488186
20
-2.1714302755905512
11
4.3110236220472444
21
-2.1751968503937009
0
LINE
8
BLACK
6
CONTINUOUS
10
4.3110236220472444
20
-2.1751968503937009
11
4.3110236220472444
21
-2.372047244094488
0
LINE
8
BLACK
6
CONTINUOUS
10
4.3110236220472444
20
-2.372047244094488
11
4.3102744094488186
21
-2.3758138188976377
0
LINE
8
BLACK
6
CONTINUOUS
10
4.3102744094488186
20
-2.3758138188976377
11
4.3081408267716537
21
-2.379006968503937
0
LINE
8
BLACK
6
CONTINUOUS
10
4.3081408267716537
20
-2.379006968503937
11
4.3049476771653543
21
-2.3811405511811023
0
LINE
8
BLACK
6
CONTINUOUS
10
4.3049476771653543
20
-2.3811405511811023
11
4.3011811023622046
21
-2.3818897637795273
0
LINE
8
BLACK
6
CONTINUOUS
10
4.3011811023622046
20
-2.3818897637795273
11
4.2814960629921259
21
-2.3818897637795273
0
LINE
8
BLACK
6
CONTINUOUS
10
4.2814960629921259
20
-2.3818897637795273
11
4.2777294881889762
21
-2.3811405511811023
0
LINE
8
BLACK
6
CONTINUOUS
10
4.2777294881889762
20
-2.3811405511811023
11
4.2745363385826769
21
-2.379006968503937
0
LINE
8
BLACK
6
CONTINUOUS
10
4.2745363385826769
20
-2.379006968503937
11
4.272402755905512
21
-2.3758138188976377
0
LINE
8
BLACK
6
CONTINUOUS
10
4.272402755905512
20
-2.3758138188976377
11
4.2716535433070861
21
-2.372047244094488
0
LINE
8
BLACK
6
CONTINUOUS
10
4.2716535433070861
20
-2.372047244094488
11
4.2716535433070861
21
-2.1751968503937009
0
LINE
8
BLACK
6
CONTINUOUS
10
4.2716535433070861
20
-2.1751968503937009
11
4.272402755905512
21
-2.1714302755905512
0
LINE
8
BLACK
6
CONTINUOUS
10
4.272402755905512
20
-2.1714302755905512
11
4.2745363385826769
21
-2.1682371259842519
0
LINE
8
BLACK
6
CONTINUOUS
10
4.2745363385826769
20
-2.1682371259842519
11
4.2777294881889762
21
-2.1661035433070865
0
LINE
8
BLACK
6
CONTINUOUS
10
4.2777294881889762
20
-2.1661035433070865
11
4.2814960629921259
21
-2.1653543307086616
0
LINE
8
BLACK
6
CONTINUOUS
10
4.2814960629921259
20
-2.1653543307086616
11
4.3011811023622046
21
-2.1653543307086616
0
LINE
8
BLACK
6
CONTINUOUS
10
4.3011811023622046
20
-2.1653543307086616
11
4.3049476771653543
21
-2.1661035433070865
0
LINE
8
BLACK
6
CONTINUOUS
10
4.0647901968503932
20
-2.1267334645669291
11
4.0679833464566926
21
-2.1288670472440945
0
LINE
8
BLACK
6
CONTINUOUS
10
4.0679833464566926
20
-2.1288670472440945
11
4.0701169291338584
21
-2.1320601968503938
0
LINE
8
BLACK
6
CONTINUOUS
10
4.0701169291338584
20
-2.1320601968503938
11
4.0708661417322833
21
-2.1358267716535431
0
LINE
8
BLACK
6
CONTINUOUS
10
4.0708661417322833
20
-2.1358267716535431
11
4.0708661417322833
21
-2.234251968503937
0
LINE
8
BLACK
6
CONTINUOUS
10
4.0708661417322833
20
-2.234251968503937
11
4.0701169291338584
21
-2.2380185433070867
0
LINE
8
BLACK
6
CONTINUOUS
10
4.0701169291338584
20
-2.2380185433070867
11
4.0679833464566926
21
-2.2412116929133856
0
LINE
8
BLACK
6
CONTINUOUS
10
4.0679833464566926
20
-2.2412116929133856
11
4.0647901968503932
21
-2.243345275590551
0
LINE
8
BLACK
6
CONTINUOUS
10
4.0647901968503932
20
-2.243345275590551
11
4.0610236220472444
21
-2.2440944881889764
0
LINE
8
BLACK
6
CONTINUOUS
10
4.0610236220472444
20
-2.2440944881889764
11
4.0177165354330704
21
-2.2440944881889764
0
LINE
8
BLACK
6
CONTINUOUS
10
4.0177165354330704
20
-2.2440944881889764
11
4.0139499606299216
21
-2.243345275590551
0
LINE
8
BLACK
6
CONTINUOUS
10
4.0139499606299216
20
-2.243345275590551
11
4.0107568110236222
21
-2.2412116929133856
0
LINE
8
BLACK
6
CONTINUOUS
10
4.0107568110236222
20
-2.2412116929133856
11
4.0086232283464565
21
-2.2380185433070867
0
LINE
8
BLACK
6
CONTINUOUS
10
4.0086232283464565
20
-2.2380185433070867
11
4.0078740157480315
21
-2.234251968503937
0
LINE
8
BLACK
6
CONTINUOUS
10
4.0078740157480315
20
-2.234251968503937
11
4.0078740157480315
21
-2.1358267716535431
0
LINE
8
BLACK
6
CONTINUOUS
10
4.0078740157480315
20
-2.1358267716535431
11
4.0086232283464565
21
-2.1320601968503938
0
LINE
8
BLACK
6
CONTINUOUS
10
4.0086232283464565
20
-2.1320601968503938
11
4.0107568110236222
21
-2.1288670472440945
0
LINE
8
BLACK
6
CONTINUOUS
10
4.0107568110236222
20
-2.1288670472440945
11
4.0139499606299216
21
-2.1267334645669291
0
LINE
8
BLACK
6
CONTINUOUS
10
4.0139499606299216
20
-2.1267334645669291
11
4.0177165354330704
21
-2.1259842519685037
0
LINE
8
BLACK
6
CONTINUOUS
10
4.0177165354330704
20
-2.1259842519685037
11
4.0610236220472444
21
-2.1259842519685037
0
LINE
8
BLACK
6
CONTINUOUS
10
4.0610236220472444
20
-2.1259842519685037
11
4.0647901968503932
21
-2.1267334645669291
0
LINE
8
BLACK
6
CONTINUOUS
10
4.4112468897637793
20
-2.1267334645669291
11
4.4144400393700787
21
-2.1288670472440945
0
LINE
8
BLACK
6
CONTINUOUS
10
4.4144400393700787
20
-2.1288670472440945
11
4.4165736220472436
21
-2.1320601968503938
0
LINE
8
BLACK
6
CONTINUOUS
10
4.4165736220472436
20
-2.1320601968503938
11
4.4173228346456694
21
-2.1358267716535431
0
LINE
8
BLACK
6
CONTINUOUS
10
4.4173228346456694
20
-2.1358267716535431
11
4.4173228346456694
21
-2.234251968503937
0
LINE
8
BLACK
6
CONTINUOUS
10
4.4173228346456694
20
-2.234251968503937
11
4.4165736220472436
21
-2.2380185433070867
0
LINE
8
BLACK
6
CONTINUOUS
10
4.4165736220472436
20
-2.2380185433070867
11
4.4144400393700787
21
-2.2412116929133856
0
LINE
8
BLACK
6
CONTINUOUS
10
4.4144400393700787
20
-2.2412116929133856
11
4.4112468897637793
21
-2.243345275590551
0
LINE
8
BLACK
6
CONTINUOUS
10
4.4112468897637793
20
-2.243345275590551
11
4.4074803149606296
21
-2.2440944881889764
0
LINE
8
BLACK
6
CONTINUOUS
10
4.4074803149606296
20
-2.2440944881889764
11
4.3641732283464565
21
-2.2440944881889764
0
LINE
8
BLACK
6
CONTINUOUS
10
4.3641732283464565
20
-2.2440944881889764
11
4.3604066535433068
21
-2.243345275590551
0
LINE
8
BLACK
6
CONTINUOUS
10
4.3604066535433068
20
-2.243345275590551
11
4.3572135039370075
21
-2.2412116929133856
0
LINE
8
BLACK
6
CONTINUOUS
10
4.3572135039370075
20
-2.2412116929133856
11
4.3550799212598426
21
-2.2380185433070867
0
LINE
8
BLACK
6
CONTINUOUS
10
4.3550799212598426
20
-2.2380185433070867
11
4.3543307086614176
21
-2.234251968503937
0
LINE
8
BLACK
6
CONTINUOUS
10
4.3543307086614176
20
-2.234251968503937
11
4.3543307086614176
21
-2.1358267716535431
0
LINE
8
BLACK
6
CONTINUOUS
10
4.3543307086614176
20
-2.1358267716535431
11
4.3550799212598426
21
-2.1320601968503938
0
LINE
8
BLACK
6
CONTINUOUS
10
4.3550799212598426
20
-2.1320601968503938
11
4.3572135039370075
21
-2.1288670472440945
0
LINE
8
BLACK
6
CONTINUOUS
10
4.3572135039370075
20
-2.1288670472440945
11
4.3604066535433068
21
-2.1267334645669291
0
LINE
8
BLACK
6
CONTINUOUS
10
4.3604066535433068
20
-2.1267334645669291
11
4.3641732283464565
21
-2.1259842519685037
0
LINE
8
BLACK
6
CONTINUOUS
10
4.3641732283464565
20
-2.1259842519685037
11
4.4074803149606296
21
-2.1259842519685037
0
LINE
8
BLACK
6
CONTINUOUS
10
4.4074803149606296
20
-2.1259842519685037
11
4.4112468897637793
21
-2.1267334645669291
0
LINE
8
BLACK
6
CONTINUOUS
10
4.1474673622047247
20
-1.8314578740157479
11
4.1506605118110231
21
-1.8335914566929132
0
LINE
8
BLACK
6
CONTINUOUS
10
4.1506605118110231
20
-1.8335914566929132
11
4.1527940944881889
21
-1.8367846062992126
0
LINE
8
BLACK
6
CONTINUOUS
10
4.1527940944881889
20
-1.8367846062992126
11
4.1535433070866139
21
-1.8405511811023623
0
LINE
8
BLACK
6
CONTINUOUS
10
4.1535433070866139
20
-1.8405511811023623
11
4.1535433070866139
21
-2.0374015748031495
0
LINE
8
BLACK
6
CONTINUOUS
10
4.1535433070866139
20
-2.0374015748031495
11
4.1527940944881889
21
-2.0411681496062992
0
LINE
8
BLACK
6
CONTINUOUS
10
4.1527940944881889
20
-2.0411681496062992
11
4.1506605118110231
21
-2.0443612992125986
0
LINE
8
BLACK
6
CONTINUOUS
10
4.1506605118110231
20
-2.0443612992125986
11
4.1474673622047247
21
-2.0464948818897639
0
LINE
8
BLACK
6
CONTINUOUS
10
4.1474673622047247
20
-2.0464948818897639
11
4.143700787401575
21
-2.0472440944881889
0
LINE
8
BLACK
6
CONTINUOUS
10
4.143700787401575
20
-2.0472440944881889
11
4.1240157480314963
21
-2.0472440944881889
0
LINE
8
BLACK
6
CONTINUOUS
10
4.1240157480314963
20
-2.0472440944881889
11
4.1202491732283466
21
-2.0464948818897639
0
LINE
8
BLACK
6
CONTINUOUS
10
4.1202491732283466
20
-2.0464948818897639
11
4.1170560236220473
21
-2.0443612992125986
0
LINE
8
BLACK
6
CONTINUOUS
10
4.1170560236220473
20
-2.0443612992125986
11
4.1149224409448815
21
-2.0411681496062992
0
LINE
8
BLACK
6
CONTINUOUS
10
4.1149224409448815
20
-2.0411681496062992
11
4.1141732283464565
21
-2.0374015748031495
0
LINE
8
BLACK
6
CONTINUOUS
10
4.1141732283464565
20
-2.0374015748031495
11
4.1141732283464565
21
-1.8405511811023623
0
LINE
8
BLACK
6
CONTINUOUS
10
4.1141732283464565
20
-1.8405511811023623
11
4.1149224409448815
21
-1.8367846062992126
0
LINE
8
BLACK
6
CONTINUOUS
10
4.1149224409448815
20
-1.8367846062992126
11
4.1170560236220473
21
-1.8335914566929132
0
LINE
8
BLACK
6
CONTINUOUS
10
4.1170560236220473
20
-1.8335914566929132
11
4.1202491732283466
21
-1.8314578740157479
0
LINE
8
BLACK
6
CONTINUOUS
10
4.1202491732283466
20
-1.8314578740157479
11
4.1240157480314963
21
-1.8307086614173227
0
LINE
8
BLACK
6
CONTINUOUS
10
4.1240157480314963
20
-1.8307086614173227
11
4.143700787401575
21
-1.8307086614173227
0
LINE
8
BLACK
6
CONTINUOUS
10
4.143700787401575
20
-1.8307086614173227
11
4.1474673622047247
21
-1.8314578740157479
0
LINE
8
BLACK
6
CONTINUOUS
10
4.2262075196850395
20
-1.8314578740157479
11
4.2294006692913388
21
-1.8335914566929132
0
LINE
8
BLACK
6
CONTINUOUS
10
4.2294006692913388
20
-1.8335914566929132
11
4.2315342519685037
21
-1.8367846062992126
0
LINE
8
BLACK
6
CONTINUOUS
10
4.2315342519685037
20
-1.8367846062992126
11
4.2322834645669287
21
-1.8405511811023623
0
LINE
8
BLACK
6
CONTINUOUS
10
4.2322834645669287
20
-1.8405511811023623
11
4.2322834645669287
21
-2.0374015748031495
0
LINE
8
BLACK
6
CONTINUOUS
10
4.2322834645669287
20
-2.0374015748031495
11
4.2315342519685037
21
-2.0411681496062992
0
LINE
8
BLACK
6
CONTINUOUS
10
4.2315342519685037
20
-2.0411681496062992
11
4.2294006692913388
21
-2.0443612992125986
0
LINE
8
BLACK
6
CONTINUOUS
10
4.2294006692913388
20
-2.0443612992125986
11
4.2262075196850395
21
-2.0464948818897639
0
LINE
8
BLACK
6
CONTINUOUS
10
4.2262075196850395
20
-2.0464948818897639
11
4.2224409448818898
21
-2.0472440944881889
0
LINE
8
BLACK
6
CONTINUOUS
10
4.2224409448818898
20
-2.0472440944881889
11
4.2027559055118111
21
-2.0472440944881889
0
LINE
8
BLACK
6
CONTINUOUS
10
4.2027559055118111
20
-2.0472440944881889
11
4.1989893307086614
21
-2.0464948818897639
0
LINE
8
BLACK
6
CONTINUOUS
10
4.1989893307086614
20
-2.0464948818897639
11
4.1957961811023621
21
-2.0443612992125986
0
LINE
8
BLACK
6
CONTINUOUS
10
4.1957961811023621
20
-2.0443612992125986
11
4.1936625984251972
21
-2.0411681496062992
0
LINE
8
BLACK
6
CONTINUOUS
10
4.1936625984251972
20
-2.0411681496062992
11
4.1929133858267713
21
-2.0374015748031495
0
LINE
8
BLACK
6
CONTINUOUS
10
4.1929133858267713
20
-2.0374015748031495
11
4.1929133858267713
21
-1.8405511811023623
0
LINE
8
BLACK
6
CONTINUOUS
10
4.1929133858267713
20
-1.8405511811023623
11
4.1936625984251972
21
-1.8367846062992126
0
LINE
8
BLACK
6
CONTINUOUS
10
4.1936625984251972
20
-1.8367846062992126
11
4.1957961811023621
21
-1.8335914566929132
0
LINE
8
BLACK
6
CONTINUOUS
10
4.1957961811023621
20
-1.8335914566929132
11
4.1989893307086614
21
-1.8314578740157479
0
LINE
8
BLACK
6
CONTINUOUS
10
4.1989893307086614
20
-1.8314578740157479
11
4.2027559055118111
21
-1.8307086614173227
0
LINE
8
BLACK
6
CONTINUOUS
10
4.2027559055118111
20
-1.8307086614173227
11
4.2224409448818898
21
-1.8307086614173227
0
LINE
8
BLACK
6
CONTINUOUS
10
4.2224409448818898
20
-1.8307086614173227
11
4.2262075196850395
21
-1.8314578740157479
0
LINE
8
BLACK
6
CONTINUOUS
10
4.3049476771653543
20
-1.8314578740157479
11
4.3081408267716537
21
-1.8335914566929132
0
LINE
8
BLACK
6
CONTINUOUS
10
4.3081408267716537
20
-1.8335914566929132
11
4.3102744094488186
21
-1.8367846062992126
0
LINE
8
BLACK
6
CONTINUOUS
10
4.3102744094488186
20
-1.8367846062992126
11
4.3110236220472444
21
-1.8405511811023623
0
LINE
8
BLACK
6
CONTINUOUS
10
4.3110236220472444
20
-1.8405511811023623
11
4.3110236220472444
21
-2.0374015748031495
0
LINE
8
BLACK
6
CONTINUOUS
10
4.3110236220472444
20
-2.0374015748031495
11
4.3102744094488186
21
-2.0411681496062992
0
LINE
8
BLACK
6
CONTINUOUS
10
4.3102744094488186
20
-2.0411681496062992
11
4.3081408267716537
21
-2.0443612992125986
0
LINE
8
BLACK
6
CONTINUOUS
10
4.3081408267716537
20
-2.0443612992125986
11
4.3049476771653543
21
-2.0464948818897639
0
LINE
8
BLACK
6
CONTINUOUS
10
4.3049476771653543
20
-2.0464948818897639
11
4.3011811023622046
21
-2.0472440944881889
0
LINE
8
BLACK
6
CONTINUOUS
10
4.3011811023622046
20
-2.0472440944881889
11
4.2814960629921259
21
-2.0472440944881889
0
LINE
8
BLACK
6
CONTINUOUS
10
4.2814960629921259
20
-2.0472440944881889
11
4.2777294881889762
21
-2.0464948818897639
0
LINE
8
BLACK
6
CONTINUOUS
10
4.2777294881889762
20
-2.0464948818897639
11
4.2745363385826769
21
-2.0443612992125986
0
LINE
8
BLACK
6
CONTINUOUS
10
4.2745363385826769
20
-2.0443612992125986
11
4.272402755905512
21
-2.0411681496062992
0
LINE
8
BLACK
6
CONTINUOUS
10
4.272402755905512
20
-2.0411681496062992
11
4.2716535433070861
21
-2.0374015748031495
0
LINE
8
BLACK
6
CONTINUOUS
10
4.2716535433070861
20
-2.0374015748031495
11
4.2716535433070861
21
-1.8405511811023623
0
LINE
8
BLACK
6
CONTINUOUS
10
4.2716535433070861
20
-1.8405511811023623
11
4.272402755905512
21
-1.8367846062992126
0
LINE
8
BLACK
6
CONTINUOUS
10
4.272402755905512
20
-1.8367846062992126
11
4.2745363385826769
21
-1.8335914566929132
0
LINE
8
BLACK
6
CONTINUOUS
10
4.2745363385826769
20
-1.8335914566929132
11
4.2777294881889762
21
-1.8314578740157479
0
LINE
8
BLACK
6
CONTINUOUS
10
4.2777294881889762
20
-1.8314578740157479
11
4.2814960629921259
21
-1.8307086614173227
0
LINE
8
BLACK
6
CONTINUOUS
10
4.2814960629921259
20
-1.8307086614173227
11
4.3011811023622046
21
-1.8307086614173227
0
LINE
8
BLACK
6
CONTINUOUS
10
4.3011811023622046
20
-1.8307086614173227
11
4.3049476771653543
21
-1.8314578740157479
0
LINE
8
BLACK
6
CONTINUOUS
10
4.0647901968503932
20
-1.7920877952755905
11
4.0679833464566926
21
-1.7942213779527558
0
LINE
8
BLACK
6
CONTINUOUS
10
4.0679833464566926
20
-1.7942213779527558
11
4.0701169291338584
21
-1.7974145275590552
0
LINE
8
BLACK
6
CONTINUOUS
10
4.0701169291338584
20
-1.7974145275590552
11
4.0708661417322833
21
-1.8011811023622046
0
LINE
8
BLACK
6
CONTINUOUS
10
4.0708661417322833
20
-1.8011811023622046
11
4.0708661417322833
21
-1.8996062992125984
0
LINE
8
BLACK
6
CONTINUOUS
10
4.0708661417322833
20
-1.8996062992125984
11
4.0701169291338584
21
-1.9033728740157481
0
LINE
8
BLACK
6
CONTINUOUS
10
4.0701169291338584
20
-1.9033728740157481
11
4.0679833464566926
21
-1.9065660236220472
0
LINE
8
BLACK
6
CONTINUOUS
10
4.0679833464566926
20
-1.9065660236220472
11
4.0647901968503932
21
-1.9086996062992125
0
LINE
8
BLACK
6
CONTINUOUS
10
4.0647901968503932
20
-1.9086996062992125
11
4.0610236220472444
21
-1.9094488188976377
0
LINE
8
BLACK
6
CONTINUOUS
10
4.0610236220472444
20
-1.9094488188976377
11
4.0177165354330704
21
-1.9094488188976377
0
LINE
8
BLACK
6
CONTINUOUS
10
4.0177165354330704
20
-1.9094488188976377
11
4.0139499606299216
21
-1.9086996062992125
0
LINE
8
BLACK
6
CONTINUOUS
10
4.0139499606299216
20
-1.9086996062992125
11
4.0107568110236222
21
-1.9065660236220472
0
LINE
8
BLACK
6
CONTINUOUS
10
4.0107568110236222
20
-1.9065660236220472
11
4.0086232283464565
21
-1.9033728740157481
0
LINE
8
BLACK
6
CONTINUOUS
10
4.0086232283464565
20
-1.9033728740157481
11
4.0078740157480315
21
-1.8996062992125984
0
LINE
8
BLACK
6
CONTINUOUS
10
4.0078740157480315
20
-1.8996062992125984
11
4.0078740157480315
21
-1.8011811023622046
0
LINE
8
BLACK
6
CONTINUOUS
10
4.0078740157480315
20
-1.8011811023622046
11
4.0086232283464565
21
-1.7974145275590552
0
LINE
8
BLACK
6
CONTINUOUS
10
4.0086232283464565
20
-1.7974145275590552
11
4.0107568110236222
21
-1.7942213779527558
0
LINE
8
BLACK
6
CONTINUOUS
10
4.0107568110236222
20
-1.7942213779527558
11
4.0139499606299216
21
-1.7920877952755905
0
LINE
8
BLACK
6
CONTINUOUS
10
4.0139499606299216
20
-1.7920877952755905
11
4.0177165354330704
21
-1.7913385826771653
0
LINE
8
BLACK
6
CONTINUOUS
10
4.0177165354330704
20
-1.7913385826771653
11
4.0610236220472444
21
-1.7913385826771653
0
LINE
8
BLACK
6
CONTINUOUS
10
4.0610236220472444
20
-1.7913385826771653
11
4.0647901968503932
21
-1.7920877952755905
0
LINE
8
BLACK
6
CONTINUOUS
10
4.4112468897637793
20
-1.7920877952755905
11
4.4144400393700787
21
-1.7942213779527558
0
LINE
8
BLACK
6
CONTINUOUS
10
4.4144400393700787
20
-1.7942213779527558
11
4.4165736220472436
21
-1.7974145275590552
0
LINE
8
BLACK
6
CONTINUOUS
10
4.4165736220472436
20
-1.7974145275590552
11
4.4173228346456694
21
-1.8011811023622046
0
LINE
8
BLACK
6
CONTINUOUS
10
4.4173228346456694
20
-1.8011811023622046
11
4.4173228346456694
21
-1.8996062992125984
0
LINE
8
BLACK
6
CONTINUOUS
10
4.4173228346456694
20
-1.8996062992125984
11
4.4165736220472436
21
-1.9033728740157481
0
LINE
8
BLACK
6
CONTINUOUS
10
4.4165736220472436
20
-1.9033728740157481
11
4.4144400393700787
21
-1.9065660236220472
0
LINE
8
BLACK
6
CONTINUOUS
10
4.4144400393700787
20
-1.9065660236220472
11
4.4112468897637793
21
-1.9086996062992125
0
LINE
8
BLACK
6
CONTINUOUS
10
4.4112468897637793
20
-1.9086996062992125
11
4.4074803149606296
21
-1.9094488188976377
0
LINE
8
BLACK
6
CONTINUOUS
10
4.4074803149606296
20
-1.9094488188976377
11
4.3641732283464565
21
-1.9094488188976377
0
LINE
8
BLACK
6
CONTINUOUS
10
4.3641732283464565
20
-1.9094488188976377
11
4.3604066535433068
21
-1.9086996062992125
0
LINE
8
BLACK
6
CONTINUOUS
10
4.3604066535433068
20
-1.9086996062992125
11
4.3572135039370075
21
-1.9065660236220472
0
LINE
8
BLACK
6
CONTINUOUS
10
4.3572135039370075
20
-1.9065660236220472
11
4.3550799212598426
21
-1.9033728740157481
0
LINE
8
BLACK
6
CONTINUOUS
10
4.3550799212598426
20
-1.9033728740157481
11
4.3543307086614176
21
-1.8996062992125984
0
LINE
8
BLACK
6
CONTINUOUS
10
4.3543307086614176
20
-1.8996062992125984
11
4.3543307086614176
21
-1.8011811023622046
0
LINE
8
BLACK
6
CONTINUOUS
10
4.3543307086614176
20
-1.8011811023622046
11
4.3550799212598426
21
-1.7974145275590552
0
LINE
8
BLACK
6
CONTINUOUS
10
4.3550799212598426
20
-1.7974145275590552
11
4.3572135039370075
21
-1.7942213779527558
0
LINE
8
BLACK
6
CONTINUOUS
10
4.3572135039370075
20
-1.7942213779527558
11
4.3604066535433068
21
-1.7920877952755905
0
LINE
8
BLACK
6
CONTINUOUS
10
4.3604066535433068
20
-1.7920877952755905
11
4.3641732283464565
21
-1.7913385826771653
0
LINE
8
BLACK
6
CONTINUOUS
10
4.3641732283464565
20
-1.7913385826771653
11
4.4074803149606296
21
-1.7913385826771653
0
LINE
8
BLACK
6
CONTINUOUS
10
4.4074803149606296
20
-1.7913385826771653
11
4.4112468897637793
21
-1.7920877952755905
0
LINE
8
BLACK
6
CONTINUOUS
10
1.0715377952755905
20
-1.0538972440944883
11
1.0798238188976377
21
-1.0561174803149607
0
LINE
8
BLACK
6
CONTINUOUS
10
1.0798238188976377
20
-1.0561174803149607
11
1.0875984251968505
21
-1.0597428346456692
0
LINE
8
BLACK
6
CONTINUOUS
10
1.0875984251968505
20
-1.0597428346456692
11
1.0946253937007875
21
-1.0646631496062993
0
LINE
8
BLACK
6
CONTINUOUS
10
1.0946253937007875
20
-1.0646631496062993
11
1.1006911811023621
21
-1.0707289370078741
0
LINE
8
BLACK
6
CONTINUOUS
10
1.1006911811023621
20
-1.0707289370078741
11
1.1056114960629921
21
-1.0777559055118111
0
LINE
8
BLACK
6
CONTINUOUS
10
1.1056114960629921
20
-1.0777559055118111
11
1.1092368503937007
21
-1.0855305118110237
0
LINE
8
BLACK
6
CONTINUOUS
10
1.1092368503937007
20
-1.0855305118110237
11
1.1114570866141733
21
-1.0938165354330709
0
LINE
8
BLACK
6
CONTINUOUS
10
1.1114570866141733
20
-1.0938165354330709
11
1.1122047244094488
21
-1.1023622047244095
0
LINE
8
BLACK
6
CONTINUOUS
10
1.1122047244094488
20
-1.1023622047244095
11
1.1114570866141733
21
-1.1109078740157481
0
LINE
8
BLACK
6
CONTINUOUS
10
1.1114570866141733
20
-1.1109078740157481
11
1.1092368503937007
21
-1.1191938976377953
0
LINE
8
BLACK
6
CONTINUOUS
10
1.1092368503937007
20
-1.1191938976377953
11
1.1056114960629921
21
-1.1269685039370079
0
LINE
8
BLACK
6
CONTINUOUS
10
1.1056114960629921
20
-1.1269685039370079
11
1.1006911811023621
21
-1.1339954724409449
0
LINE
8
BLACK
6
CONTINUOUS
10
1.1006911811023621
20
-1.1339954724409449
11
1.0946253937007875
21
-1.1400612598425197
0
LINE
8
BLACK
6
CONTINUOUS
10
1.0946253937007875
20
-1.1400612598425197
11
1.0875984251968505
21
-1.1449815748031495
0
LINE
8
BLACK
6
CONTINUOUS
10
1.0875984251968505
20
-1.1449815748031495
11
1.0798238188976377
21
-1.1486069291338583
0
LINE
8
BLACK
6
CONTINUOUS
10
1.0798238188976377
20
-1.1486069291338583
11
1.0715377952755905
21
-1.1508271653543307
0
LINE
8
BLACK
6
CONTINUOUS
10
1.0715377952755905
20
-1.1508271653543307
11
1.0629921259842519
21
-1.1515748031496063
0
LINE
8
BLACK
6
CONTINUOUS
10
1.0629921259842519
20
-1.1515748031496063
11
1.0544464566929133
21
-1.1508271653543307
0
LINE
8
BLACK
6
CONTINUOUS
10
1.0544464566929133
20
-1.1508271653543307
11
1.046160433070866
21
-1.1486069291338583
0
LINE
8
BLACK
6
CONTINUOUS
10
1.046160433070866
20
-1.1486069291338583
11
1.0383858267716535
21
-1.1449815748031495
0
LINE
8
BLACK
6
CONTINUOUS
10
1.0383858267716535
20
-1.1449815748031495
11
1.0313588582677164
21
-1.1400612598425197
0
LINE
8
BLACK
6
CONTINUOUS
10
1.0313588582677164
20
-1.1400612598425197
11
1.0252930708661416
21
-1.1339954724409449
0
LINE
8
BLACK
6
CONTINUOUS
10
1.0252930708661416
20
-1.1339954724409449
11
1.0203727559055118
21
-1.1269685039370079
0
LINE
8
BLACK
6
CONTINUOUS
10
1.0203727559055118
20
-1.1269685039370079
11
1.016747401574803
21
-1.1191938976377953
0
LINE
8
BLACK
6
CONTINUOUS
10
1.016747401574803
20
-1.1191938976377953
11
1.0145271653543306
21
-1.1109078740157481
0
LINE
8
BLACK
6
CONTINUOUS
10
1.0145271653543306
20
-1.1109078740157481
11
1.0137795275590551
21
-1.1023622047244095
0
LINE
8
BLACK
6
CONTINUOUS
10
1.0137795275590551
20
-1.1023622047244095
11
1.0145271653543306
21
-1.0938165354330709
0
LINE
8
BLACK
6
CONTINUOUS
10
1.0145271653543306
20
-1.0938165354330709
11
1.016747401574803
21
-1.0855305118110237
0
LINE
8
BLACK
6
CONTINUOUS
10
1.016747401574803
20
-1.0855305118110237
11
1.0203727559055118
21
-1.0777559055118111
0
LINE
8
BLACK
6
CONTINUOUS
10
1.0203727559055118
20
-1.0777559055118111
11
1.0252930708661416
21
-1.0707289370078741
0
LINE
8
BLACK
6
CONTINUOUS
10
1.0252930708661416
20
-1.0707289370078741
11
1.0313588582677164
21
-1.0646631496062993
0
LINE
8
BLACK
6
CONTINUOUS
10
1.0313588582677164
20
-1.0646631496062993
11
1.0383858267716535
21
-1.0597428346456692
0
LINE
8
BLACK
6
CONTINUOUS
10
1.0383858267716535
20
-1.0597428346456692
11
1.046160433070866
21
-1.0561174803149607
0
LINE
8
BLACK
6
CONTINUOUS
10
1.046160433070866
20
-1.0561174803149607
11
1.0544464566929133
21
-1.0538972440944883
0
LINE
8
BLACK
6
CONTINUOUS
10
1.0544464566929133
20
-1.0538972440944883
11
1.0629921259842519
21
-1.0531496062992125
0
LINE
8
BLACK
6
CONTINUOUS
10
1.0629921259842519
20
-1.0531496062992125
11
1.0715377952755905
21
-1.0538972440944883
0
LINE
8
BLACK
6
CONTINUOUS
10
7.3707503937007877
20
-1.0538972440944883
11
7.3790364173228342
21
-1.0561174803149607
0
LINE
8
BLACK
6
CONTINUOUS
10
7.3790364173228342
20
-1.0561174803149607
11
7.3868110236220472
21
-1.0597428346456692
0
LINE
8
BLACK
6
CONTINUOUS
10
7.3868110236220472
20
-1.0597428346456692
11
7.3938379921259845
21
-1.0646631496062993
0
LINE
8
BLACK
6
CONTINUOUS
10
7.3938379921259845
20
-1.0646631496062993
11
7.3999037795275591
21
-1.0707289370078741
0
LINE
8
BLACK
6
CONTINUOUS
10
7.3999037795275591
20
-1.0707289370078741
11
7.4048240944881885
21
-1.0777559055118111
0
LINE
8
BLACK
6
CONTINUOUS
10
7.4048240944881885
20
-1.0777559055118111
11
7.4084494488188977
21
-1.0855305118110237
0
LINE
8
BLACK
6
CONTINUOUS
10
7.4084494488188977
20
-1.0855305118110237
11
7.4106696850393696
21
-1.0938165354330709
0
LINE
8
BLACK
6
CONTINUOUS
10
7.4106696850393696
20
-1.0938165354330709
11
7.4114173228346454
21
-1.1023622047244095
0
LINE
8
BLACK
6
CONTINUOUS
10
7.4114173228346454
20
-1.1023622047244095
11
7.4106696850393696
21
-1.1109078740157481
0
LINE
8
BLACK
6
CONTINUOUS
10
7.4106696850393696
20
-1.1109078740157481
11
7.4084494488188977
21
-1.1191938976377953
0
LINE
8
BLACK
6
CONTINUOUS
10
7.4084494488188977
20
-1.1191938976377953
11
7.4048240944881885
21
-1.1269685039370079
0
LINE
8
BLACK
6
CONTINUOUS
10
7.4048240944881885
20
-1.1269685039370079
11
7.3999037795275591
21
-1.1339954724409449
0
LINE
8
BLACK
6
CONTINUOUS
10
7.3999037795275591
20
-1.1339954724409449
11
7.3938379921259845
21
-1.1400612598425197
0
LINE
8
BLACK
6
CONTINUOUS
10
7.3938379921259845
20
-1.1400612598425197
11
7.3868110236220472
21
-1.1449815748031495
0
LINE
8
BLACK
6
CONTINUOUS
10
7.3868110236220472
20
-1.1449815748031495
11
7.3790364173228342
21
-1.1486069291338583
0
LINE
8
BLACK
6
CONTINUOUS
10
7.3790364173228342
20
-1.1486069291338583
11
7.3707503937007877
21
-1.1508271653543307
0
LINE
8
BLACK
6
CONTINUOUS
10
7.3707503937007877
20
-1.1508271653543307
11
7.3622047244094491
21
-1.1515748031496063
0
LINE
8
BLACK
6
CONTINUOUS
10
7.3622047244094491
20
-1.1515748031496063
11
7.3536590551181105
21
-1.1508271653543307
0
LINE
8
BLACK
6
CONTINUOUS
10
7.3536590551181105
20
-1.1508271653543307
11
7.345373031496063
21
-1.1486069291338583
0
LINE
8
BLACK
6
CONTINUOUS
10
7.345373031496063
20
-1.1486069291338583
11
7.33759842519685
21
-1.1449815748031495
0
LINE
8
BLACK
6
CONTINUOUS
10
7.33759842519685
20
-1.1449815748031495
11
7.3305714566929137
21
-1.1400612598425197
0
LINE
8
BLACK
6
CONTINUOUS
10
7.3305714566929137
20
-1.1400612598425197
11
7.3245056692913382
21
-1.1339954724409449
0
LINE
8
BLACK
6
CONTINUOUS
10
7.3245056692913382
20
-1.1339954724409449
11
7.3195853543307088
21
-1.1269685039370079
0
LINE
8
BLACK
6
CONTINUOUS
10
7.3195853543307088
20
-1.1269685039370079
11
7.3159599999999996
21
-1.1191938976377953
0
LINE
8
BLACK
6
CONTINUOUS
10
7.3159599999999996
20
-1.1191938976377953
11
7.3137397637795276
21
-1.1109078740157481
0
LINE
8
BLACK
6
CONTINUOUS
10
7.3137397637795276
20
-1.1109078740157481
11
7.3129921259842519
21
-1.1023622047244095
0
LINE
8
BLACK
6
CONTINUOUS
10
7.3129921259842519
20
-1.1023622047244095
11
7.3137397637795276
21
-1.0938165354330709
0
LINE
8
BLACK
6
CONTINUOUS
10
7.3137397637795276
20
-1.0938165354330709
11
7.3159599999999996
21
-1.0855305118110237
0
LINE
8
BLACK
6
CONTINUOUS
10
7.3159599999999996
20
-1.0855305118110237
11
7.3195853543307088
21
-1.0777559055118111
0
LINE
8
BLACK
6
CONTINUOUS
10
7.3195853543307088
20
-1.0777559055118111
11
7.3245056692913382
21
-1.0707289370078741
0
LINE
8
BLACK
6
CONTINUOUS
10
7.3245056692913382
20
-1.0707289370078741
11
7.3305714566929137
21
-1.0646631496062993
0
LINE
8
BLACK
6
CONTINUOUS
10
7.3305714566929137
20
-1.0646631496062993
11
7.33759842519685
21
-1.0597428346456692
0
LINE
8
BLACK
6
CONTINUOUS
10
7.33759842519685
20
-1.0597428346456692
11
7.345373031496063
21
-1.0561174803149607
0
LINE
8
BLACK
6
CONTINUOUS
10
7.345373031496063
20
-1.0561174803149607
11
7.3536590551181105
21
-1.0538972440944883
0
LINE
8
BLACK
6
CONTINUOUS
10
7.3536590551181105
20
-1.0538972440944883
11
7.3622047244094491
21
-1.0531496062992125
0
LINE
8
BLACK
6
CONTINUOUS
10
7.3622047244094491
20
-1.0531496062992125
11
7.3707503937007877
21
-1.0538972440944883
  0
ENDSEC
  0
EOF
