  0
SECTION
  2
HEADER
  9
$ANGBASE
  50
0.0
  9
$ANGDIR
  70
1
  9
$MEASUREMENT
  70
0
  0
ENDSEC
  0
SECTION
  2
TABLES
  0
TABLE
  2
LTYPE
  70
4
  0
LTYPE
  5
40F
  2
CONTINUOUS
  70
0
  3
Solid line
  72
65
  73
0
  40
0.0
  0
LTYPE
  5
410
  2
DASHDOT
 70
0
  3
Dash Dot ____ _ ____ _
 72
65
 73
4
 40
2.0
 49
1.25
 49
-0.25
 49
0.25
 49
-0.25
  0
LTYPE
  5
411
  2
DASHED
 70
0
  3
Dashed __ __ __ __ __
 72
65
 73
2
 40
0.75
 49
0.5
 49
-0.25
  0
LTYPE
  5
43B
  2
DOTTED
 70
0
  3
Dotted .  .  .  .
 72
65
 73
2
 40
0.2
 49
0.0
 49
-0.2
  0
ENDTAB
  0
TABLE
  2
STYLE
  70
4
  0
STYLE
  2
KICAD
  70
0
  40
0
  41
1
  42
1
  50
0
  71
0
  3
isocp.shx
  0
STYLE
  2
KICADB
  70
0
  40
0
  41
1
  42
1
  50
0
  71
0
  3
isocp.shx
  0
STYLE
  2
KICADI
  70
0
  40
0
  41
1
  42
1
  50
15
  71
0
  3
isocp.shx
  0
STYLE
  2
KICADBI
  70
0
  40
0
  41
1
  42
1
  50
15
  71
0
  3
isocp.shx
  0
ENDTAB
  0
TABLE
  2
LAYER
  70
1
  0
LAYER
  2
BLACK
  70
0
  62
7
  6
CONTINUOUS
  0
ENDTAB
  0
ENDSEC
  0
SECTION
  2
ENTITIES
0
LINE
8
BLACK
6
CONTINUOUS
10
1.7512798031496062
20
-5.1366381889763781
11
1.7636109842519685
21
-5.1398042913385824
0
LINE
8
BLACK
6
CONTINUOUS
10
1.7636109842519685
20
-5.1398042913385824
11
1.7754481102362205
21
-5.1444909448818894
0
LINE
8
BLACK
6
CONTINUOUS
10
1.7754481102362205
20
-5.1444909448818894
11
1.7866044881889764
21
-5.1506242519685035
0
LINE
8
BLACK
6
CONTINUOUS
10
1.7866044881889764
20
-5.1506242519685035
11
1.7969042125984251
21
-5.158107401574803
0
LINE
8
BLACK
6
CONTINUOUS
10
1.7969042125984251
20
-5.158107401574803
11
1.8061848031496062
21
-5.1668224803149609
0
LINE
8
BLACK
6
CONTINUOUS
10
1.8061848031496062
20
-5.1668224803149609
11
1.8142999606299213
21
-5.1766320078740158
0
LINE
8
BLACK
6
CONTINUOUS
10
1.8142999606299213
20
-5.1766320078740158
11
1.821121653543307
21
-5.1873812598425193
0
LINE
8
BLACK
6
CONTINUOUS
10
1.821121653543307
20
-5.1873812598425193
11
1.8265422834645668
21
-5.1989007480314964
0
LINE
8
BLACK
6
CONTINUOUS
10
1.8265422834645668
20
-5.1989007480314964
11
1.8304764566929133
21
-5.2110088188976373
0
LINE
8
BLACK
6
CONTINUOUS
10
1.8304764566929133
20
-5.2110088188976373
11
1.8328620078740157
21
-5.2235144488188974
0
LINE
8
BLACK
6
CONTINUOUS
10
1.8328620078740157
20
-5.2235144488188974
11
1.8336614173228345
21
-5.2362204724409445
0
LINE
8
BLACK
6
CONTINUOUS
10
1.8336614173228345
20
-5.2362204724409445
11
1.8328620078740157
21
-5.2489264960629924
0
LINE
8
BLACK
6
CONTINUOUS
10
1.8328620078740157
20
-5.2489264960629924
11
1.8304764566929133
21
-5.2614321259842516
0
LINE
8
BLACK
6
CONTINUOUS
10
1.8304764566929133
20
-5.2614321259842516
11
1.8265422834645668
21
-5.2735401968503934
0
LINE
8
BLACK
6
CONTINUOUS
10
1.8265422834645668
20
-5.2735401968503934
11
1.821121653543307
21
-5.2850596850393696
0
LINE
8
BLACK
6
CONTINUOUS
10
1.821121653543307
20
-5.2850596850393696
11
1.8142999606299213
21
-5.295808937007874
0
LINE
8
BLACK
6
CONTINUOUS
10
1.8142999606299213
20
-5.295808937007874
11
1.8061848031496062
21
-5.3056184645669289
0
LINE
8
BLACK
6
CONTINUOUS
10
1.8061848031496062
20
-5.3056184645669289
11
1.7969042125984251
21
-5.3143335433070868
0
LINE
8
BLACK
6
CONTINUOUS
10
1.7969042125984251
20
-5.3143335433070868
11
1.7866044881889764
21
-5.3218166929133854
0
LINE
8
BLACK
6
CONTINUOUS
10
1.7866044881889764
20
-5.3218166929133854
11
1.7754481102362205
21
-5.3279499999999995
0
LINE
8
BLACK
6
CONTINUOUS
10
1.7754481102362205
20
-5.3279499999999995
11
1.7636109842519685
21
-5.3326366535433074
0
LINE
8
BLACK
6
CONTINUOUS
10
1.7636109842519685
20
-5.3326366535433074
11
1.7512798031496062
21
-5.3358027559055117
0
LINE
8
BLACK
6
CONTINUOUS
10
1.7512798031496062
20
-5.3358027559055117
11
1.7386490551181102
21
-5.3373983858267717
0
LINE
8
BLACK
6
CONTINUOUS
10
1.7386490551181102
20
-5.3373983858267717
11
1.7259178740157479
21
-5.3373983858267717
0
LINE
8
BLACK
6
CONTINUOUS
10
1.7259178740157479
20
-5.3373983858267717
11
1.7132871259842519
21
-5.3358027559055117
0
LINE
8
BLACK
6
CONTINUOUS
10
1.7132871259842519
20
-5.3358027559055117
11
1.7009559448818896
21
-5.3326366535433074
0
LINE
8
BLACK
6
CONTINUOUS
10
1.7009559448818896
20
-5.3326366535433074
11
1.6891188188976378
21
-5.3279499999999995
0
LINE
8
BLACK
6
CONTINUOUS
10
1.6891188188976378
20
-5.3279499999999995
11
1.6779624409448819
21
-5.3218166929133854
0
LINE
8
BLACK
6
CONTINUOUS
10
1.6779624409448819
20
-5.3218166929133854
11
1.667662716535433
21
-5.3143335433070868
0
LINE
8
BLACK
6
CONTINUOUS
10
1.667662716535433
20
-5.3143335433070868
11
1.6583821259842519
21
-5.3056184645669289
0
LINE
8
BLACK
6
CONTINUOUS
10
1.6583821259842519
20
-5.3056184645669289
11
1.6502669685039371
21
-5.295808937007874
0
LINE
8
BLACK
6
CONTINUOUS
10
1.6502669685039371
20
-5.295808937007874
11
1.6434452755905511
21
-5.2850596850393696
0
LINE
8
BLACK
6
CONTINUOUS
10
1.6434452755905511
20
-5.2850596850393696
11
1.6380246456692913
21
-5.2735401968503934
0
LINE
8
BLACK
6
CONTINUOUS
10
1.6380246456692913
20
-5.2735401968503934
11
1.6340904724409449
21
-5.2614321259842516
0
LINE
8
BLACK
6
CONTINUOUS
10
1.6340904724409449
20
-5.2614321259842516
11
1.6317049212598425
21
-5.2489264960629924
0
LINE
8
BLACK
6
CONTINUOUS
10
1.6317049212598425
20
-5.2489264960629924
11
1.6309055118110236
21
-5.2362204724409445
0
LINE
8
BLACK
6
CONTINUOUS
10
1.6309055118110236
20
-5.2362204724409445
11
1.6317049212598425
21
-5.2235144488188974
0
LINE
8
BLACK
6
CONTINUOUS
10
1.6317049212598425
20
-5.2235144488188974
11
1.6340904724409449
21
-5.2110088188976373
0
LINE
8
BLACK
6
CONTINUOUS
10
1.6340904724409449
20
-5.2110088188976373
11
1.6380246456692913
21
-5.1989007480314964
0
LINE
8
BLACK
6
CONTINUOUS
10
1.6380246456692913
20
-5.1989007480314964
11
1.6434452755905511
21
-5.1873812598425193
0
LINE
8
BLACK
6
CONTINUOUS
10
1.6434452755905511
20
-5.1873812598425193
11
1.6502669685039371
21
-5.1766320078740158
0
LINE
8
BLACK
6
CONTINUOUS
10
1.6502669685039371
20
-5.1766320078740158
11
1.6583821259842519
21
-5.1668224803149609
0
LINE
8
BLACK
6
CONTINUOUS
10
1.6583821259842519
20
-5.1668224803149609
11
1.667662716535433
21
-5.158107401574803
0
LINE
8
BLACK
6
CONTINUOUS
10
1.667662716535433
20
-5.158107401574803
11
1.6779624409448819
21
-5.1506242519685035
0
LINE
8
BLACK
6
CONTINUOUS
10
1.6779624409448819
20
-5.1506242519685035
11
1.6891188188976378
21
-5.1444909448818894
0
LINE
8
BLACK
6
CONTINUOUS
10
1.6891188188976378
20
-5.1444909448818894
11
1.7009559448818896
21
-5.1398042913385824
0
LINE
8
BLACK
6
CONTINUOUS
10
1.7009559448818896
20
-5.1398042913385824
11
1.7132871259842519
21
-5.1366381889763781
0
LINE
8
BLACK
6
CONTINUOUS
10
1.7132871259842519
20
-5.1366381889763781
11
1.7259178740157479
21
-5.1350425590551181
0
LINE
8
BLACK
6
CONTINUOUS
10
1.7259178740157479
20
-5.1350425590551181
11
1.7386490551181102
21
-5.1350425590551181
0
LINE
8
BLACK
6
CONTINUOUS
10
1.7386490551181102
20
-5.1350425590551181
11
1.7512798031496062
21
-5.1366381889763781
0
LINE
8
BLACK
6
CONTINUOUS
10
1.6373765748031495
20
-5.2482100000000003
11
1.6396275984251969
21
-5.2600104330708657
0
LINE
8
BLACK
6
CONTINUOUS
10
1.6396275984251969
20
-5.2600104330708657
11
1.6433399212598425
21
-5.271435708661417
0
LINE
8
BLACK
6
CONTINUOUS
10
1.6433399212598425
20
-5.271435708661417
11
1.6484548818897637
21
-5.2823056299212601
0
LINE
8
BLACK
6
CONTINUOUS
10
1.6484548818897637
20
-5.2823056299212601
11
1.6548919291338582
21
-5.2924487401574805
0
LINE
8
BLACK
6
CONTINUOUS
10
1.6548919291338582
20
-5.2924487401574805
11
1.6625494488188977
21
-5.3017050787401576
0
LINE
8
BLACK
6
CONTINUOUS
10
1.6625494488188977
20
-5.3017050787401576
11
1.6713066929133857
21
-5.3099287007874016
0
LINE
8
BLACK
6
CONTINUOUS
10
1.6713066929133857
20
-5.3099287007874016
11
1.6810256299212598
21
-5.3169899212598422
0
LINE
8
BLACK
6
CONTINUOUS
10
1.6810256299212598
20
-5.3169899212598422
11
1.6915529133858267
21
-5.3227773228346456
0
LINE
8
BLACK
6
CONTINUOUS
10
1.6915529133858267
20
-5.3227773228346456
11
1.7027225196850393
21
-5.3271996850393704
0
LINE
8
BLACK
6
CONTINUOUS
10
1.7027225196850393
20
-5.3271996850393704
11
1.7143583464566929
21
-5.3301872834645669
0
LINE
8
BLACK
6
CONTINUOUS
10
1.7143583464566929
20
-5.3301872834645669
11
1.7262768503937007
21
-5.3316929133858268
0
LINE
8
BLACK
6
CONTINUOUS
10
1.7262768503937007
20
-5.3316929133858268
11
1.7382900787401574
21
-5.3316929133858268
0
LINE
8
BLACK
6
CONTINUOUS
10
1.7382900787401574
20
-5.3316929133858268
11
1.7502085826771654
21
-5.3301872834645669
0
LINE
8
BLACK
6
CONTINUOUS
10
1.7502085826771654
20
-5.3301872834645669
11
1.7618444094488188
21
-5.3271996850393704
0
LINE
8
BLACK
6
CONTINUOUS
10
1.7618444094488188
20
-5.3271996850393704
11
1.7730140157480314
21
-5.3227773228346456
0
LINE
8
BLACK
6
CONTINUOUS
10
1.7730140157480314
20
-5.3227773228346456
11
1.7835412992125983
21
-5.3169899212598422
0
LINE
8
BLACK
6
CONTINUOUS
10
1.7835412992125983
20
-5.3169899212598422
11
1.7932602362204724
21
-5.3099287007874016
0
LINE
8
BLACK
6
CONTINUOUS
10
1.7932602362204724
20
-5.3099287007874016
11
1.8020174803149607
21
-5.3017050787401576
0
LINE
8
BLACK
6
CONTINUOUS
10
1.8020174803149607
20
-5.3017050787401576
11
1.8096749999999999
21
-5.2924487401574805
0
LINE
8
BLACK
6
CONTINUOUS
10
1.8096749999999999
20
-5.2924487401574805
11
1.8161120472440944
21
-5.2823056299212601
0
LINE
8
BLACK
6
CONTINUOUS
10
1.8161120472440944
20
-5.2823056299212601
11
1.8212270078740158
21
-5.271435708661417
0
LINE
8
BLACK
6
CONTINUOUS
10
1.8212270078740158
20
-5.271435708661417
11
1.8249393307086614
21
-5.2600104330708657
0
LINE
8
BLACK
6
CONTINUOUS
10
1.8249393307086614
20
-5.2600104330708657
11
1.8271903543307086
21
-5.2482100000000003
0
LINE
8
BLACK
6
CONTINUOUS
10
1.8271903543307086
20
-5.2482100000000003
11
1.8279446850393701
21
-5.2362204724409445
0
LINE
8
BLACK
6
CONTINUOUS
10
1.8279446850393701
20
-5.2362204724409445
11
1.8271903543307086
21
-5.2242309448818895
0
LINE
8
BLACK
6
CONTINUOUS
10
1.8271903543307086
20
-5.2242309448818895
11
1.8249393307086614
21
-5.2124305118110232
0
LINE
8
BLACK
6
CONTINUOUS
10
1.8249393307086614
20
-5.2124305118110232
11
1.8212270078740158
21
-5.201005236220472
0
LINE
8
BLACK
6
CONTINUOUS
10
1.8212270078740158
20
-5.201005236220472
11
1.8161120472440944
21
-5.1901353149606297
0
LINE
8
BLACK
6
CONTINUOUS
10
1.8161120472440944
20
-5.1901353149606297
11
1.8096749999999999
21
-5.1799922047244094
0
LINE
8
BLACK
6
CONTINUOUS
10
1.8096749999999999
20
-5.1799922047244094
11
1.8020174803149607
21
-5.1707358661417322
0
LINE
8
BLACK
6
CONTINUOUS
10
1.8020174803149607
20
-5.1707358661417322
11
1.7932602362204724
21
-5.1625122440944882
0
LINE
8
BLACK
6
CONTINUOUS
10
1.7932602362204724
20
-5.1625122440944882
11
1.7835412992125983
21
-5.1554510236220468
0
LINE
8
BLACK
6
CONTINUOUS
10
1.7835412992125983
20
-5.1554510236220468
11
1.7730140157480314
21
-5.1496636220472443
0
LINE
8
BLACK
6
CONTINUOUS
10
1.7730140157480314
20
-5.1496636220472443
11
1.7618444094488188
21
-5.1452412598425195
0
LINE
8
BLACK
6
CONTINUOUS
10
1.7618444094488188
20
-5.1452412598425195
11
1.7502085826771654
21
-5.1422536614173229
0
LINE
8
BLACK
6
CONTINUOUS
10
1.7502085826771654
20
-5.1422536614173229
11
1.7382900787401574
21
-5.140748031496063
0
LINE
8
BLACK
6
CONTINUOUS
10
1.7382900787401574
20
-5.140748031496063
11
1.7262768503937007
21
-5.140748031496063
0
LINE
8
BLACK
6
CONTINUOUS
10
1.7262768503937007
20
-5.140748031496063
11
1.7143583464566929
21
-5.1422536614173229
0
LINE
8
BLACK
6
CONTINUOUS
10
1.7143583464566929
20
-5.1422536614173229
11
1.7027225196850393
21
-5.1452412598425195
0
LINE
8
BLACK
6
CONTINUOUS
10
1.7027225196850393
20
-5.1452412598425195
11
1.6915529133858267
21
-5.1496636220472443
0
LINE
8
BLACK
6
CONTINUOUS
10
1.6915529133858267
20
-5.1496636220472443
11
1.6810256299212598
21
-5.1554510236220468
0
LINE
8
BLACK
6
CONTINUOUS
10
1.6810256299212598
20
-5.1554510236220468
11
1.6713066929133857
21
-5.1625122440944882
0
LINE
8
BLACK
6
CONTINUOUS
10
1.6713066929133857
20
-5.1625122440944882
11
1.6625494488188977
21
-5.1707358661417322
0
LINE
8
BLACK
6
CONTINUOUS
10
1.6625494488188977
20
-5.1707358661417322
11
1.6548919291338582
21
-5.1799922047244094
0
LINE
8
BLACK
6
CONTINUOUS
10
1.6548919291338582
20
-5.1799922047244094
11
1.6484548818897637
21
-5.1901353149606297
0
LINE
8
BLACK
6
CONTINUOUS
10
1.6484548818897637
20
-5.1901353149606297
11
1.6433399212598425
21
-5.201005236220472
0
LINE
8
BLACK
6
CONTINUOUS
10
1.6433399212598425
20
-5.201005236220472
11
1.6396275984251969
21
-5.2124305118110232
0
LINE
8
BLACK
6
CONTINUOUS
10
1.6396275984251969
20
-5.2124305118110232
11
1.6373765748031495
21
-5.2242309448818895
0
LINE
8
BLACK
6
CONTINUOUS
10
1.6373765748031495
20
-5.2242309448818895
11
1.6366222440944882
21
-5.2362204724409445
0
LINE
8
BLACK
6
CONTINUOUS
10
1.6366222440944882
20
-5.2362204724409445
11
1.6373765748031495
21
-5.2482100000000003
0
LINE
8
BLACK
6
CONTINUOUS
10
6.7119097244094483
20
-5.1366381889763781
11
6.7242409055118113
21
-5.1398042913385824
0
LINE
8
BLACK
6
CONTINUOUS
10
6.7242409055118113
20
-5.1398042913385824
11
6.7360780314960627
21
-5.1444909448818894
0
LINE
8
BLACK
6
CONTINUOUS
10
6.7360780314960627
20
-5.1444909448818894
11
6.7472344094488186
21
-5.1506242519685035
0
LINE
8
BLACK
6
CONTINUOUS
10
6.7472344094488186
20
-5.1506242519685035
11
6.7575341338582673
21
-5.158107401574803
0
LINE
8
BLACK
6
CONTINUOUS
10
6.7575341338582673
20
-5.158107401574803
11
6.766814724409449
21
-5.1668224803149609
0
LINE
8
BLACK
6
CONTINUOUS
10
6.766814724409449
20
-5.1668224803149609
11
6.7749298818897632
21
-5.1766320078740158
0
LINE
8
BLACK
6
CONTINUOUS
10
6.7749298818897632
20
-5.1766320078740158
11
6.7817515748031498
21
-5.1873812598425193
0
LINE
8
BLACK
6
CONTINUOUS
10
6.7817515748031498
20
-5.1873812598425193
11
6.787172204724409
21
-5.1989007480314964
0
LINE
8
BLACK
6
CONTINUOUS
10
6.787172204724409
20
-5.1989007480314964
11
6.7911063779527554
21
-5.2110088188976373
0
LINE
8
BLACK
6
CONTINUOUS
10
6.7911063779527554
20
-5.2110088188976373
11
6.7934919291338582
21
-5.2235144488188974
0
LINE
8
BLACK
6
CONTINUOUS
10
6.7934919291338582
20
-5.2235144488188974
11
6.7942913385826769
21
-5.2362204724409445
0
LINE
8
BLACK
6
CONTINUOUS
10
6.7942913385826769
20
-5.2362204724409445
11
6.7934919291338582
21
-5.2489264960629924
0
LINE
8
BLACK
6
CONTINUOUS
10
6.7934919291338582
20
-5.2489264960629924
11
6.7911063779527554
21
-5.2614321259842516
0
LINE
8
BLACK
6
CONTINUOUS
10
6.7911063779527554
20
-5.2614321259842516
11
6.787172204724409
21
-5.2735401968503934
0
LINE
8
BLACK
6
CONTINUOUS
10
6.787172204724409
20
-5.2735401968503934
11
6.7817515748031498
21
-5.2850596850393696
0
LINE
8
BLACK
6
CONTINUOUS
10
6.7817515748031498
20
-5.2850596850393696
11
6.7749298818897632
21
-5.295808937007874
0
LINE
8
BLACK
6
CONTINUOUS
10
6.7749298818897632
20
-5.295808937007874
11
6.766814724409449
21
-5.3056184645669289
0
LINE
8
BLACK
6
CONTINUOUS
10
6.766814724409449
20
-5.3056184645669289
11
6.7575341338582673
21
-5.3143335433070868
0
LINE
8
BLACK
6
CONTINUOUS
10
6.7575341338582673
20
-5.3143335433070868
11
6.7472344094488186
21
-5.3218166929133854
0
LINE
8
BLACK
6
CONTINUOUS
10
6.7472344094488186
20
-5.3218166929133854
11
6.7360780314960627
21
-5.3279499999999995
0
LINE
8
BLACK
6
CONTINUOUS
10
6.7360780314960627
20
-5.3279499999999995
11
6.7242409055118113
21
-5.3326366535433074
0
LINE
8
BLACK
6
CONTINUOUS
10
6.7242409055118113
20
-5.3326366535433074
11
6.7119097244094483
21
-5.3358027559055117
0
LINE
8
BLACK
6
CONTINUOUS
10
6.7119097244094483
20
-5.3358027559055117
11
6.6992789763779523
21
-5.3373983858267717
0
LINE
8
BLACK
6
CONTINUOUS
10
6.6992789763779523
20
-5.3373983858267717
11
6.6865477952755903
21
-5.3373983858267717
0
LINE
8
BLACK
6
CONTINUOUS
10
6.6865477952755903
20
-5.3373983858267717
11
6.6739170472440943
21
-5.3358027559055117
0
LINE
8
BLACK
6
CONTINUOUS
10
6.6739170472440943
20
-5.3358027559055117
11
6.6615858661417322
21
-5.3326366535433074
0
LINE
8
BLACK
6
CONTINUOUS
10
6.6615858661417322
20
-5.3326366535433074
11
6.64974874015748
21
-5.3279499999999995
0
LINE
8
BLACK
6
CONTINUOUS
10
6.64974874015748
20
-5.3279499999999995
11
6.638592362204724
21
-5.3218166929133854
0
LINE
8
BLACK
6
CONTINUOUS
10
6.638592362204724
20
-5.3218166929133854
11
6.6282926377952753
21
-5.3143335433070868
0
LINE
8
BLACK
6
CONTINUOUS
10
6.6282926377952753
20
-5.3143335433070868
11
6.6190120472440945
21
-5.3056184645669289
0
LINE
8
BLACK
6
CONTINUOUS
10
6.6190120472440945
20
-5.3056184645669289
11
6.6108968897637794
21
-5.295808937007874
0
LINE
8
BLACK
6
CONTINUOUS
10
6.6108968897637794
20
-5.295808937007874
11
6.6040751968503937
21
-5.2850596850393696
0
LINE
8
BLACK
6
CONTINUOUS
10
6.6040751968503937
20
-5.2850596850393696
11
6.5986545669291337
21
-5.2735401968503934
0
LINE
8
BLACK
6
CONTINUOUS
10
6.5986545669291337
20
-5.2735401968503934
11
6.5947203937007872
21
-5.2614321259842516
0
LINE
8
BLACK
6
CONTINUOUS
10
6.5947203937007872
20
-5.2614321259842516
11
6.5923348425196853
21
-5.2489264960629924
0
LINE
8
BLACK
6
CONTINUOUS
10
6.5923348425196853
20
-5.2489264960629924
11
6.5915354330708658
21
-5.2362204724409445
0
LINE
8
BLACK
6
CONTINUOUS
10
6.5915354330708658
20
-5.2362204724409445
11
6.5923348425196853
21
-5.2235144488188974
0
LINE
8
BLACK
6
CONTINUOUS
10
6.5923348425196853
20
-5.2235144488188974
11
6.5947203937007872
21
-5.2110088188976373
0
LINE
8
BLACK
6
CONTINUOUS
10
6.5947203937007872
20
-5.2110088188976373
11
6.5986545669291337
21
-5.1989007480314964
0
LINE
8
BLACK
6
CONTINUOUS
10
6.5986545669291337
20
-5.1989007480314964
11
6.6040751968503937
21
-5.1873812598425193
0
LINE
8
BLACK
6
CONTINUOUS
10
6.6040751968503937
20
-5.1873812598425193
11
6.6108968897637794
21
-5.1766320078740158
0
LINE
8
BLACK
6
CONTINUOUS
10
6.6108968897637794
20
-5.1766320078740158
11
6.6190120472440945
21
-5.1668224803149609
0
LINE
8
BLACK
6
CONTINUOUS
10
6.6190120472440945
20
-5.1668224803149609
11
6.6282926377952753
21
-5.158107401574803
0
LINE
8
BLACK
6
CONTINUOUS
10
6.6282926377952753
20
-5.158107401574803
11
6.638592362204724
21
-5.1506242519685035
0
LINE
8
BLACK
6
CONTINUOUS
10
6.638592362204724
20
-5.1506242519685035
11
6.64974874015748
21
-5.1444909448818894
0
LINE
8
BLACK
6
CONTINUOUS
10
6.64974874015748
20
-5.1444909448818894
11
6.6615858661417322
21
-5.1398042913385824
0
LINE
8
BLACK
6
CONTINUOUS
10
6.6615858661417322
20
-5.1398042913385824
11
6.6739170472440943
21
-5.1366381889763781
0
LINE
8
BLACK
6
CONTINUOUS
10
6.6739170472440943
20
-5.1366381889763781
11
6.6865477952755903
21
-5.1350425590551181
0
LINE
8
BLACK
6
CONTINUOUS
10
6.6865477952755903
20
-5.1350425590551181
11
6.6992789763779523
21
-5.1350425590551181
0
LINE
8
BLACK
6
CONTINUOUS
10
6.6992789763779523
20
-5.1350425590551181
11
6.7119097244094483
21
-5.1366381889763781
0
LINE
8
BLACK
6
CONTINUOUS
10
6.5980064960629923
20
-5.2482100000000003
11
6.600257519685039
21
-5.2600104330708657
0
LINE
8
BLACK
6
CONTINUOUS
10
6.600257519685039
20
-5.2600104330708657
11
6.6039698425196853
21
-5.271435708661417
0
LINE
8
BLACK
6
CONTINUOUS
10
6.6039698425196853
20
-5.271435708661417
11
6.6090848031496066
21
-5.2823056299212601
0
LINE
8
BLACK
6
CONTINUOUS
10
6.6090848031496066
20
-5.2823056299212601
11
6.6155218503937006
21
-5.2924487401574805
0
LINE
8
BLACK
6
CONTINUOUS
10
6.6155218503937006
20
-5.2924487401574805
11
6.6231793700787396
21
-5.3017050787401576
0
LINE
8
BLACK
6
CONTINUOUS
10
6.6231793700787396
20
-5.3017050787401576
11
6.6319366141732283
21
-5.3099287007874016
0
LINE
8
BLACK
6
CONTINUOUS
10
6.6319366141732283
20
-5.3099287007874016
11
6.6416555511811026
21
-5.3169899212598422
0
LINE
8
BLACK
6
CONTINUOUS
10
6.6416555511811026
20
-5.3169899212598422
11
6.6521828346456688
21
-5.3227773228346456
0
LINE
8
BLACK
6
CONTINUOUS
10
6.6521828346456688
20
-5.3227773228346456
11
6.6633524409448821
21
-5.3271996850393704
0
LINE
8
BLACK
6
CONTINUOUS
10
6.6633524409448821
20
-5.3271996850393704
11
6.6749882677165351
21
-5.3301872834645669
0
LINE
8
BLACK
6
CONTINUOUS
10
6.6749882677165351
20
-5.3301872834645669
11
6.6869067716535433
21
-5.3316929133858268
0
LINE
8
BLACK
6
CONTINUOUS
10
6.6869067716535433
20
-5.3316929133858268
11
6.6989200000000002
21
-5.3316929133858268
0
LINE
8
BLACK
6
CONTINUOUS
10
6.6989200000000002
20
-5.3316929133858268
11
6.7108385039370075
21
-5.3301872834645669
0
LINE
8
BLACK
6
CONTINUOUS
10
6.7108385039370075
20
-5.3301872834645669
11
6.7224743307086614
21
-5.3271996850393704
0
LINE
8
BLACK
6
CONTINUOUS
10
6.7224743307086614
20
-5.3271996850393704
11
6.7336439370078738
21
-5.3227773228346456
0
LINE
8
BLACK
6
CONTINUOUS
10
6.7336439370078738
20
-5.3227773228346456
11
6.7441712204724409
21
-5.3169899212598422
0
LINE
8
BLACK
6
CONTINUOUS
10
6.7441712204724409
20
-5.3169899212598422
11
6.7538901574803152
21
-5.3099287007874016
0
LINE
8
BLACK
6
CONTINUOUS
10
6.7538901574803152
20
-5.3099287007874016
11
6.762647401574803
21
-5.3017050787401576
0
LINE
8
BLACK
6
CONTINUOUS
10
6.762647401574803
20
-5.3017050787401576
11
6.7703049212598421
21
-5.2924487401574805
0
LINE
8
BLACK
6
CONTINUOUS
10
6.7703049212598421
20
-5.2924487401574805
11
6.776741968503937
21
-5.2823056299212601
0
LINE
8
BLACK
6
CONTINUOUS
10
6.776741968503937
20
-5.2823056299212601
11
6.7818569291338582
21
-5.271435708661417
0
LINE
8
BLACK
6
CONTINUOUS
10
6.7818569291338582
20
-5.271435708661417
11
6.7855692519685036
21
-5.2600104330708657
0
LINE
8
BLACK
6
CONTINUOUS
10
6.7855692519685036
20
-5.2600104330708657
11
6.7878202755905512
21
-5.2482100000000003
0
LINE
8
BLACK
6
CONTINUOUS
10
6.7878202755905512
20
-5.2482100000000003
11
6.7885746062992123
21
-5.2362204724409445
0
LINE
8
BLACK
6
CONTINUOUS
10
6.7885746062992123
20
-5.2362204724409445
11
6.7878202755905512
21
-5.2242309448818895
0
LINE
8
BLACK
6
CONTINUOUS
10
6.7878202755905512
20
-5.2242309448818895
11
6.7855692519685036
21
-5.2124305118110232
0
LINE
8
BLACK
6
CONTINUOUS
10
6.7855692519685036
20
-5.2124305118110232
11
6.7818569291338582
21
-5.201005236220472
0
LINE
8
BLACK
6
CONTINUOUS
10
6.7818569291338582
20
-5.201005236220472
11
6.776741968503937
21
-5.1901353149606297
0
LINE
8
BLACK
6
CONTINUOUS
10
6.776741968503937
20
-5.1901353149606297
11
6.7703049212598421
21
-5.1799922047244094
0
LINE
8
BLACK
6
CONTINUOUS
10
6.7703049212598421
20
-5.1799922047244094
11
6.762647401574803
21
-5.1707358661417322
0
LINE
8
BLACK
6
CONTINUOUS
10
6.762647401574803
20
-5.1707358661417322
11
6.7538901574803152
21
-5.1625122440944882
0
LINE
8
BLACK
6
CONTINUOUS
10
6.7538901574803152
20
-5.1625122440944882
11
6.7441712204724409
21
-5.1554510236220468
0
LINE
8
BLACK
6
CONTINUOUS
10
6.7441712204724409
20
-5.1554510236220468
11
6.7336439370078738
21
-5.1496636220472443
0
LINE
8
BLACK
6
CONTINUOUS
10
6.7336439370078738
20
-5.1496636220472443
11
6.7224743307086614
21
-5.1452412598425195
0
LINE
8
BLACK
6
CONTINUOUS
10
6.7224743307086614
20
-5.1452412598425195
11
6.7108385039370075
21
-5.1422536614173229
0
LINE
8
BLACK
6
CONTINUOUS
10
6.7108385039370075
20
-5.1422536614173229
11
6.6989200000000002
21
-5.140748031496063
0
LINE
8
BLACK
6
CONTINUOUS
10
6.6989200000000002
20
-5.140748031496063
11
6.6869067716535433
21
-5.140748031496063
0
LINE
8
BLACK
6
CONTINUOUS
10
6.6869067716535433
20
-5.140748031496063
11
6.6749882677165351
21
-5.1422536614173229
0
LINE
8
BLACK
6
CONTINUOUS
10
6.6749882677165351
20
-5.1422536614173229
11
6.6633524409448821
21
-5.1452412598425195
0
LINE
8
BLACK
6
CONTINUOUS
10
6.6633524409448821
20
-5.1452412598425195
11
6.6521828346456688
21
-5.1496636220472443
0
LINE
8
BLACK
6
CONTINUOUS
10
6.6521828346456688
20
-5.1496636220472443
11
6.6416555511811026
21
-5.1554510236220468
0
LINE
8
BLACK
6
CONTINUOUS
10
6.6416555511811026
20
-5.1554510236220468
11
6.6319366141732283
21
-5.1625122440944882
0
LINE
8
BLACK
6
CONTINUOUS
10
6.6319366141732283
20
-5.1625122440944882
11
6.6231793700787396
21
-5.1707358661417322
0
LINE
8
BLACK
6
CONTINUOUS
10
6.6231793700787396
20
-5.1707358661417322
11
6.6155218503937006
21
-5.1799922047244094
0
LINE
8
BLACK
6
CONTINUOUS
10
6.6155218503937006
20
-5.1799922047244094
11
6.6090848031496066
21
-5.1901353149606297
0
LINE
8
BLACK
6
CONTINUOUS
10
6.6090848031496066
20
-5.1901353149606297
11
6.6039698425196853
21
-5.201005236220472
0
LINE
8
BLACK
6
CONTINUOUS
10
6.6039698425196853
20
-5.201005236220472
11
6.600257519685039
21
-5.2124305118110232
0
LINE
8
BLACK
6
CONTINUOUS
10
6.600257519685039
20
-5.2124305118110232
11
6.5980064960629923
21
-5.2242309448818895
0
LINE
8
BLACK
6
CONTINUOUS
10
6.5980064960629923
20
-5.2242309448818895
11
6.5972521653543303
21
-5.2362204724409445
0
LINE
8
BLACK
6
CONTINUOUS
10
6.5972521653543303
20
-5.2362204724409445
11
6.5980064960629923
21
-5.2482100000000003
0
LINE
8
BLACK
6
CONTINUOUS
10
4.231594763779527
20
-3.9555358267716536
11
4.24392594488189
21
-3.9587019291338583
0
LINE
8
BLACK
6
CONTINUOUS
10
4.24392594488189
20
-3.9587019291338583
11
4.2557630708661414
21
-3.9633885826771653
0
LINE
8
BLACK
6
CONTINUOUS
10
4.2557630708661414
20
-3.9633885826771653
11
4.2669194488188973
21
-3.9695218897637794
0
LINE
8
BLACK
6
CONTINUOUS
10
4.2669194488188973
20
-3.9695218897637794
11
4.277219173228346
21
-3.9770050393700784
0
LINE
8
BLACK
6
CONTINUOUS
10
4.277219173228346
20
-3.9770050393700784
11
4.2864997637795277
21
-3.985720118110236
0
LINE
8
BLACK
6
CONTINUOUS
10
4.2864997637795277
20
-3.985720118110236
11
4.2946149212598428
21
-3.9955296456692913
0
LINE
8
BLACK
6
CONTINUOUS
10
4.2946149212598428
20
-3.9955296456692913
11
4.3014366141732285
21
-4.0062788976377952
0
LINE
8
BLACK
6
CONTINUOUS
10
4.3014366141732285
20
-4.0062788976377952
11
4.3068572440944877
21
-4.0177983858267714
0
LINE
8
BLACK
6
CONTINUOUS
10
4.3068572440944877
20
-4.0177983858267714
11
4.3107914173228341
21
-4.0299064566929133
0
LINE
8
BLACK
6
CONTINUOUS
10
4.3107914173228341
20
-4.0299064566929133
11
4.3131769685039369
21
-4.0424120866141733
0
LINE
8
BLACK
6
CONTINUOUS
10
4.3131769685039369
20
-4.0424120866141733
11
4.3139763779527556
21
-4.0551181102362204
0
LINE
8
BLACK
6
CONTINUOUS
10
4.3139763779527556
20
-4.0551181102362204
11
4.3131769685039369
21
-4.0678241338582675
0
LINE
8
BLACK
6
CONTINUOUS
10
4.3131769685039369
20
-4.0678241338582675
11
4.3107914173228341
21
-4.0803297637795275
0
LINE
8
BLACK
6
CONTINUOUS
10
4.3107914173228341
20
-4.0803297637795275
11
4.3068572440944877
21
-4.0924378346456693
0
LINE
8
BLACK
6
CONTINUOUS
10
4.3068572440944877
20
-4.0924378346456693
11
4.3014366141732285
21
-4.1039573228346455
0
LINE
8
BLACK
6
CONTINUOUS
10
4.3014366141732285
20
-4.1039573228346455
11
4.2946149212598428
21
-4.1147065748031499
0
LINE
8
BLACK
6
CONTINUOUS
10
4.2946149212598428
20
-4.1147065748031499
11
4.2864997637795277
21
-4.1245161023622048
0
LINE
8
BLACK
6
CONTINUOUS
10
4.2864997637795277
20
-4.1245161023622048
11
4.277219173228346
21
-4.1332311811023619
0
LINE
8
BLACK
6
CONTINUOUS
10
4.277219173228346
20
-4.1332311811023619
11
4.2669194488188973
21
-4.1407143307086614
0
LINE
8
BLACK
6
CONTINUOUS
10
4.2669194488188973
20
-4.1407143307086614
11
4.2557630708661414
21
-4.1468476377952754
0
LINE
8
BLACK
6
CONTINUOUS
10
4.2557630708661414
20
-4.1468476377952754
11
4.24392594488189
21
-4.1515342913385824
0
LINE
8
BLACK
6
CONTINUOUS
10
4.24392594488189
20
-4.1515342913385824
11
4.231594763779527
21
-4.1547003937007876
0
LINE
8
BLACK
6
CONTINUOUS
10
4.231594763779527
20
-4.1547003937007876
11
4.218964015748031
21
-4.1562960236220468
0
LINE
8
BLACK
6
CONTINUOUS
10
4.218964015748031
20
-4.1562960236220468
11
4.206232834645669
21
-4.1562960236220468
0
LINE
8
BLACK
6
CONTINUOUS
10
4.206232834645669
20
-4.1562960236220468
11
4.193602086614173
21
-4.1547003937007876
0
LINE
8
BLACK
6
CONTINUOUS
10
4.193602086614173
20
-4.1547003937007876
11
4.1812709055118109
21
-4.1515342913385824
0
LINE
8
BLACK
6
CONTINUOUS
10
4.1812709055118109
20
-4.1515342913385824
11
4.1694337795275587
21
-4.1468476377952754
0
LINE
8
BLACK
6
CONTINUOUS
10
4.1694337795275587
20
-4.1468476377952754
11
4.1582774015748027
21
-4.1407143307086614
0
LINE
8
BLACK
6
CONTINUOUS
10
4.1582774015748027
20
-4.1407143307086614
11
4.147977677165354
21
-4.1332311811023619
0
LINE
8
BLACK
6
CONTINUOUS
10
4.147977677165354
20
-4.1332311811023619
11
4.1386970866141732
21
-4.1245161023622048
0
LINE
8
BLACK
6
CONTINUOUS
10
4.1386970866141732
20
-4.1245161023622048
11
4.1305819291338581
21
-4.1147065748031499
0
LINE
8
BLACK
6
CONTINUOUS
10
4.1305819291338581
20
-4.1147065748031499
11
4.1237602362204724
21
-4.1039573228346455
0
LINE
8
BLACK
6
CONTINUOUS
10
4.1237602362204724
20
-4.1039573228346455
11
4.1183396062992124
21
-4.0924378346456693
0
LINE
8
BLACK
6
CONTINUOUS
10
4.1183396062992124
20
-4.0924378346456693
11
4.1144054330708659
21
-4.0803297637795275
0
LINE
8
BLACK
6
CONTINUOUS
10
4.1144054330708659
20
-4.0803297637795275
11
4.112019881889764
21
-4.0678241338582675
0
LINE
8
BLACK
6
CONTINUOUS
10
4.112019881889764
20
-4.0678241338582675
11
4.1112204724409445
21
-4.0551181102362204
0
LINE
8
BLACK
6
CONTINUOUS
10
4.1112204724409445
20
-4.0551181102362204
11
4.112019881889764
21
-4.0424120866141733
0
LINE
8
BLACK
6
CONTINUOUS
10
4.112019881889764
20
-4.0424120866141733
11
4.1144054330708659
21
-4.0299064566929133
0
LINE
8
BLACK
6
CONTINUOUS
10
4.1144054330708659
20
-4.0299064566929133
11
4.1183396062992124
21
-4.0177983858267714
0
LINE
8
BLACK
6
CONTINUOUS
10
4.1183396062992124
20
-4.0177983858267714
11
4.1237602362204724
21
-4.0062788976377952
0
LINE
8
BLACK
6
CONTINUOUS
10
4.1237602362204724
20
-4.0062788976377952
11
4.1305819291338581
21
-3.9955296456692913
0
LINE
8
BLACK
6
CONTINUOUS
10
4.1305819291338581
20
-3.9955296456692913
11
4.1386970866141732
21
-3.985720118110236
0
LINE
8
BLACK
6
CONTINUOUS
10
4.1386970866141732
20
-3.985720118110236
11
4.147977677165354
21
-3.9770050393700784
0
LINE
8
BLACK
6
CONTINUOUS
10
4.147977677165354
20
-3.9770050393700784
11
4.1582774015748027
21
-3.9695218897637794
0
LINE
8
BLACK
6
CONTINUOUS
10
4.1582774015748027
20
-3.9695218897637794
11
4.1694337795275587
21
-3.9633885826771653
0
LINE
8
BLACK
6
CONTINUOUS
10
4.1694337795275587
20
-3.9633885826771653
11
4.1812709055118109
21
-3.9587019291338583
0
LINE
8
BLACK
6
CONTINUOUS
10
4.1812709055118109
20
-3.9587019291338583
11
4.193602086614173
21
-3.9555358267716536
0
LINE
8
BLACK
6
CONTINUOUS
10
4.193602086614173
20
-3.9555358267716536
11
4.206232834645669
21
-3.9539401968503936
0
LINE
8
BLACK
6
CONTINUOUS
10
4.206232834645669
20
-3.9539401968503936
11
4.218964015748031
21
-3.9539401968503936
0
LINE
8
BLACK
6
CONTINUOUS
10
4.218964015748031
20
-3.9539401968503936
11
4.231594763779527
21
-3.9555358267716536
0
LINE
8
BLACK
6
CONTINUOUS
10
4.117691535433071
20
-4.0671076377952753
11
4.1199425590551177
21
-4.0789080708661416
0
LINE
8
BLACK
6
CONTINUOUS
10
4.1199425590551177
20
-4.0789080708661416
11
4.123654881889764
21
-4.0903333464566929
0
LINE
8
BLACK
6
CONTINUOUS
10
4.123654881889764
20
-4.0903333464566929
11
4.1287698425196853
21
-4.1012032677165351
0
LINE
8
BLACK
6
CONTINUOUS
10
4.1287698425196853
20
-4.1012032677165351
11
4.1352068897637793
21
-4.1113463779527555
0
LINE
8
BLACK
6
CONTINUOUS
10
4.1352068897637793
20
-4.1113463779527555
11
4.1428644094488192
21
-4.1206027165354326
0
LINE
8
BLACK
6
CONTINUOUS
10
4.1428644094488192
20
-4.1206027165354326
11
4.151621653543307
21
-4.1288263385826767
0
LINE
8
BLACK
6
CONTINUOUS
10
4.151621653543307
20
-4.1288263385826767
11
4.1613405905511813
21
-4.1358875590551181
0
LINE
8
BLACK
6
CONTINUOUS
10
4.1613405905511813
20
-4.1358875590551181
11
4.1718678740157475
21
-4.1416749606299215
0
LINE
8
BLACK
6
CONTINUOUS
10
4.1718678740157475
20
-4.1416749606299215
11
4.1830374803149608
21
-4.1460973228346454
0
LINE
8
BLACK
6
CONTINUOUS
10
4.1830374803149608
20
-4.1460973228346454
11
4.1946733070866138
21
-4.1490849212598429
0
LINE
8
BLACK
6
CONTINUOUS
10
4.1946733070866138
20
-4.1490849212598429
11
4.206591811023622
21
-4.1505905511811019
0
LINE
8
BLACK
6
CONTINUOUS
10
4.206591811023622
20
-4.1505905511811019
11
4.2186050393700789
21
-4.1505905511811019
0
LINE
8
BLACK
6
CONTINUOUS
10
4.2186050393700789
20
-4.1505905511811019
11
4.2305235433070862
21
-4.1490849212598429
0
LINE
8
BLACK
6
CONTINUOUS
10
4.2305235433070862
20
-4.1490849212598429
11
4.2421593700787401
21
-4.1460973228346454
0
LINE
8
BLACK
6
CONTINUOUS
10
4.2421593700787401
20
-4.1460973228346454
11
4.2533289763779525
21
-4.1416749606299215
0
LINE
8
BLACK
6
CONTINUOUS
10
4.2533289763779525
20
-4.1416749606299215
11
4.2638562598425196
21
-4.1358875590551181
0
LINE
8
BLACK
6
CONTINUOUS
10
4.2638562598425196
20
-4.1358875590551181
11
4.2735751968503939
21
-4.1288263385826767
0
LINE
8
BLACK
6
CONTINUOUS
10
4.2735751968503939
20
-4.1288263385826767
11
4.2823324409448817
21
-4.1206027165354326
0
LINE
8
BLACK
6
CONTINUOUS
10
4.2823324409448817
20
-4.1206027165354326
11
4.2899899606299208
21
-4.1113463779527555
0
LINE
8
BLACK
6
CONTINUOUS
10
4.2899899606299208
20
-4.1113463779527555
11
4.2964270078740157
21
-4.1012032677165351
0
LINE
8
BLACK
6
CONTINUOUS
10
4.2964270078740157
20
-4.1012032677165351
11
4.3015419685039369
21
-4.0903333464566929
0
LINE
8
BLACK
6
CONTINUOUS
10
4.3015419685039369
20
-4.0903333464566929
11
4.3052542913385823
21
-4.0789080708661416
0
LINE
8
BLACK
6
CONTINUOUS
10
4.3052542913385823
20
-4.0789080708661416
11
4.3075053149606299
21
-4.0671076377952753
0
LINE
8
BLACK
6
CONTINUOUS
10
4.3075053149606299
20
-4.0671076377952753
11
4.308259645669291
21
-4.0551181102362204
0
LINE
8
BLACK
6
CONTINUOUS
10
4.308259645669291
20
-4.0551181102362204
11
4.3075053149606299
21
-4.0431285826771655
0
LINE
8
BLACK
6
CONTINUOUS
10
4.3075053149606299
20
-4.0431285826771655
11
4.3052542913385823
21
-4.0313281496062991
0
LINE
8
BLACK
6
CONTINUOUS
10
4.3052542913385823
20
-4.0313281496062991
11
4.3015419685039369
21
-4.0199028740157479
0
LINE
8
BLACK
6
CONTINUOUS
10
4.3015419685039369
20
-4.0199028740157479
11
4.2964270078740157
21
-4.0090329527559057
0
LINE
8
BLACK
6
CONTINUOUS
10
4.2964270078740157
20
-4.0090329527559057
11
4.2899899606299208
21
-3.9988898425196848
0
LINE
8
BLACK
6
CONTINUOUS
10
4.2899899606299208
20
-3.9988898425196848
11
4.2823324409448817
21
-3.9896335039370077
0
LINE
8
BLACK
6
CONTINUOUS
10
4.2823324409448817
20
-3.9896335039370077
11
4.2735751968503939
21
-3.9814098818897636
0
LINE
8
BLACK
6
CONTINUOUS
10
4.2735751968503939
20
-3.9814098818897636
11
4.2638562598425196
21
-3.9743486614173227
0
LINE
8
BLACK
6
CONTINUOUS
10
4.2638562598425196
20
-3.9743486614173227
11
4.2533289763779525
21
-3.9685612598425197
0
LINE
8
BLACK
6
CONTINUOUS
10
4.2533289763779525
20
-3.9685612598425197
11
4.2421593700787401
21
-3.9641388976377954
0
LINE
8
BLACK
6
CONTINUOUS
10
4.2421593700787401
20
-3.9641388976377954
11
4.2305235433070862
21
-3.9611512992125983
0
LINE
8
BLACK
6
CONTINUOUS
10
4.2305235433070862
20
-3.9611512992125983
11
4.2186050393700789
21
-3.9596456692913384
0
LINE
8
BLACK
6
CONTINUOUS
10
4.2186050393700789
20
-3.9596456692913384
11
4.206591811023622
21
-3.9596456692913384
0
LINE
8
BLACK
6
CONTINUOUS
10
4.206591811023622
20
-3.9596456692913384
11
4.1946733070866138
21
-3.9611512992125983
0
LINE
8
BLACK
6
CONTINUOUS
10
4.1946733070866138
20
-3.9611512992125983
11
4.1830374803149608
21
-3.9641388976377954
0
LINE
8
BLACK
6
CONTINUOUS
10
4.1830374803149608
20
-3.9641388976377954
11
4.1718678740157475
21
-3.9685612598425197
0
LINE
8
BLACK
6
CONTINUOUS
10
4.1718678740157475
20
-3.9685612598425197
11
4.1613405905511813
21
-3.9743486614173227
0
LINE
8
BLACK
6
CONTINUOUS
10
4.1613405905511813
20
-3.9743486614173227
11
4.151621653543307
21
-3.9814098818897636
0
LINE
8
BLACK
6
CONTINUOUS
10
4.151621653543307
20
-3.9814098818897636
11
4.1428644094488192
21
-3.9896335039370077
0
LINE
8
BLACK
6
CONTINUOUS
10
4.1428644094488192
20
-3.9896335039370077
11
4.1352068897637793
21
-3.9988898425196848
0
LINE
8
BLACK
6
CONTINUOUS
10
4.1352068897637793
20
-3.9988898425196848
11
4.1287698425196853
21
-4.0090329527559057
0
LINE
8
BLACK
6
CONTINUOUS
10
4.1287698425196853
20
-4.0090329527559057
11
4.123654881889764
21
-4.0199028740157479
0
LINE
8
BLACK
6
CONTINUOUS
10
4.123654881889764
20
-4.0199028740157479
11
4.1199425590551177
21
-4.0313281496062991
0
LINE
8
BLACK
6
CONTINUOUS
10
4.1199425590551177
20
-4.0313281496062991
11
4.117691535433071
21
-4.0431285826771655
0
LINE
8
BLACK
6
CONTINUOUS
10
4.117691535433071
20
-4.0431285826771655
11
4.116937204724409
21
-4.0551181102362204
0
LINE
8
BLACK
6
CONTINUOUS
10
4.116937204724409
20
-4.0551181102362204
11
4.117691535433071
21
-4.0671076377952753
0
LINE
8
BLACK
6
CONTINUOUS
10
1.0819884645669291
20
-1.0027799212598425
11
1.0943196456692914
21
-1.0059460236220472
0
LINE
8
BLACK
6
CONTINUOUS
10
1.0943196456692914
20
-1.0059460236220472
11
1.1061567716535432
21
-1.0106326771653542
0
LINE
8
BLACK
6
CONTINUOUS
10
1.1061567716535432
20
-1.0106326771653542
11
1.1173131496062991
21
-1.0167659842519685
0
LINE
8
BLACK
6
CONTINUOUS
10
1.1173131496062991
20
-1.0167659842519685
11
1.1276128740157481
21
-1.0242491338582678
0
LINE
8
BLACK
6
CONTINUOUS
10
1.1276128740157481
20
-1.0242491338582678
11
1.1368934645669291
21
-1.0329642125984251
0
LINE
8
BLACK
6
CONTINUOUS
10
1.1368934645669291
20
-1.0329642125984251
11
1.145008622047244
21
-1.0427737401574804
0
LINE
8
BLACK
6
CONTINUOUS
10
1.145008622047244
20
-1.0427737401574804
11
1.1518303149606299
21
-1.0535229921259843
0
LINE
8
BLACK
6
CONTINUOUS
10
1.1518303149606299
20
-1.0535229921259843
11
1.1572509448818897
21
-1.0650424803149605
0
LINE
8
BLACK
6
CONTINUOUS
10
1.1572509448818897
20
-1.0650424803149605
11
1.1611851181102362
21
-1.0771505511811024
0
LINE
8
BLACK
6
CONTINUOUS
10
1.1611851181102362
20
-1.0771505511811024
11
1.1635706692913386
21
-1.0896561811023622
0
LINE
8
BLACK
6
CONTINUOUS
10
1.1635706692913386
20
-1.0896561811023622
11
1.1643700787401574
21
-1.1023622047244095
0
LINE
8
BLACK
6
CONTINUOUS
10
1.1643700787401574
20
-1.1023622047244095
11
1.1635706692913386
21
-1.1150682283464566
0
LINE
8
BLACK
6
CONTINUOUS
10
1.1635706692913386
20
-1.1150682283464566
11
1.1611851181102362
21
-1.1275738582677166
0
LINE
8
BLACK
6
CONTINUOUS
10
1.1611851181102362
20
-1.1275738582677166
11
1.1572509448818897
21
-1.1396819291338582
0
LINE
8
BLACK
6
CONTINUOUS
10
1.1572509448818897
20
-1.1396819291338582
11
1.1518303149606299
21
-1.1512014173228347
0
LINE
8
BLACK
6
CONTINUOUS
10
1.1518303149606299
20
-1.1512014173228347
11
1.145008622047244
21
-1.1619506692913386
0
LINE
8
BLACK
6
CONTINUOUS
10
1.145008622047244
20
-1.1619506692913386
11
1.1368934645669291
21
-1.1717601968503937
0
LINE
8
BLACK
6
CONTINUOUS
10
1.1368934645669291
20
-1.1717601968503937
11
1.1276128740157481
21
-1.1804752755905512
0
LINE
8
BLACK
6
CONTINUOUS
10
1.1276128740157481
20
-1.1804752755905512
11
1.1173131496062991
21
-1.1879584251968505
0
LINE
8
BLACK
6
CONTINUOUS
10
1.1173131496062991
20
-1.1879584251968505
11
1.1061567716535432
21
-1.1940917322834645
0
LINE
8
BLACK
6
CONTINUOUS
10
1.1061567716535432
20
-1.1940917322834645
11
1.0943196456692914
21
-1.1987783858267715
0
LINE
8
BLACK
6
CONTINUOUS
10
1.0943196456692914
20
-1.1987783858267715
11
1.0819884645669291
21
-1.2019444881889763
0
LINE
8
BLACK
6
CONTINUOUS
10
1.0819884645669291
20
-1.2019444881889763
11
1.0693577165354331
21
-1.2035401181102361
0
LINE
8
BLACK
6
CONTINUOUS
10
1.0693577165354331
20
-1.2035401181102361
11
1.0566265354330708
21
-1.2035401181102361
0
LINE
8
BLACK
6
CONTINUOUS
10
1.0566265354330708
20
-1.2035401181102361
11
1.0439957874015748
21
-1.2019444881889763
0
LINE
8
BLACK
6
CONTINUOUS
10
1.0439957874015748
20
-1.2019444881889763
11
1.0316646062992125
21
-1.1987783858267715
0
LINE
8
BLACK
6
CONTINUOUS
10
1.0316646062992125
20
-1.1987783858267715
11
1.0198274803149605
21
-1.1940917322834645
0
LINE
8
BLACK
6
CONTINUOUS
10
1.0198274803149605
20
-1.1940917322834645
11
1.0086711023622048
21
-1.1879584251968505
0
LINE
8
BLACK
6
CONTINUOUS
10
1.0086711023622048
20
-1.1879584251968505
11
0.9983713779527559
21
-1.1804752755905512
0
LINE
8
BLACK
6
CONTINUOUS
10
0.9983713779527559
20
-1.1804752755905512
11
0.9890907874015747
21
-1.1717601968503937
0
LINE
8
BLACK
6
CONTINUOUS
10
0.9890907874015747
20
-1.1717601968503937
11
0.9809756299212599
21
-1.1619506692913386
0
LINE
8
BLACK
6
CONTINUOUS
10
0.9809756299212599
20
-1.1619506692913386
11
0.974153937007874
21
-1.1512014173228347
0
LINE
8
BLACK
6
CONTINUOUS
10
0.974153937007874
20
-1.1512014173228347
11
0.9687333070866142
21
-1.1396819291338582
0
LINE
8
BLACK
6
CONTINUOUS
10
0.9687333070866142
20
-1.1396819291338582
11
0.9647991338582677
21
-1.1275738582677166
0
LINE
8
BLACK
6
CONTINUOUS
10
0.9647991338582677
20
-1.1275738582677166
11
0.9624135826771654
21
-1.1150682283464566
0
LINE
8
BLACK
6
CONTINUOUS
10
0.9624135826771654
20
-1.1150682283464566
11
0.9616141732283464
21
-1.1023622047244095
0
LINE
8
BLACK
6
CONTINUOUS
10
0.9616141732283464
20
-1.1023622047244095
11
0.9624135826771654
21
-1.0896561811023622
0
LINE
8
BLACK
6
CONTINUOUS
10
0.9624135826771654
20
-1.0896561811023622
11
0.9647991338582677
21
-1.0771505511811024
0
LINE
8
BLACK
6
CONTINUOUS
10
0.9647991338582677
20
-1.0771505511811024
11
0.9687333070866142
21
-1.0650424803149605
0
LINE
8
BLACK
6
CONTINUOUS
10
0.9687333070866142
20
-1.0650424803149605
11
0.974153937007874
21
-1.0535229921259843
0
LINE
8
BLACK
6
CONTINUOUS
10
0.974153937007874
20
-1.0535229921259843
11
0.9809756299212599
21
-1.0427737401574804
0
LINE
8
BLACK
6
CONTINUOUS
10
0.9809756299212599
20
-1.0427737401574804
11
0.9890907874015747
21
-1.0329642125984251
0
LINE
8
BLACK
6
CONTINUOUS
10
0.9890907874015747
20
-1.0329642125984251
11
0.9983713779527559
21
-1.0242491338582678
0
LINE
8
BLACK
6
CONTINUOUS
10
0.9983713779527559
20
-1.0242491338582678
11
1.0086711023622048
21
-1.0167659842519685
0
LINE
8
BLACK
6
CONTINUOUS
10
1.0086711023622048
20
-1.0167659842519685
11
1.0198274803149605
21
-1.0106326771653542
0
LINE
8
BLACK
6
CONTINUOUS
10
1.0198274803149605
20
-1.0106326771653542
11
1.0316646062992125
21
-1.0059460236220472
0
LINE
8
BLACK
6
CONTINUOUS
10
1.0316646062992125
20
-1.0059460236220472
11
1.0439957874015748
21
-1.0027799212598425
0
LINE
8
BLACK
6
CONTINUOUS
10
1.0439957874015748
20
-1.0027799212598425
11
1.0566265354330708
21
-1.0011842913385827
0
LINE
8
BLACK
6
CONTINUOUS
10
1.0566265354330708
20
-1.0011842913385827
11
1.0693577165354331
21
-1.0011842913385827
0
LINE
8
BLACK
6
CONTINUOUS
10
1.0693577165354331
20
-1.0011842913385827
11
1.0819884645669291
21
-1.0027799212598425
0
LINE
8
BLACK
6
CONTINUOUS
10
0.9680852362204724
20
-1.1143517322834646
11
0.9703362598425197
21
-1.1261521653543307
0
LINE
8
BLACK
6
CONTINUOUS
10
0.9703362598425197
20
-1.1261521653543307
11
0.9740485826771653
21
-1.1375774409448818
0
LINE
8
BLACK
6
CONTINUOUS
10
0.9740485826771653
20
-1.1375774409448818
11
0.9791635433070865
21
-1.1484473622047244
0
LINE
8
BLACK
6
CONTINUOUS
10
0.9791635433070865
20
-1.1484473622047244
11
0.9856005905511811
21
-1.1585904724409448
0
LINE
8
BLACK
6
CONTINUOUS
10
0.9856005905511811
20
-1.1585904724409448
11
0.9932581102362205
21
-1.167846811023622
0
LINE
8
BLACK
6
CONTINUOUS
10
0.9932581102362205
20
-1.167846811023622
11
1.0020153543307087
21
-1.176070433070866
0
LINE
8
BLACK
6
CONTINUOUS
10
1.0020153543307087
20
-1.176070433070866
11
1.0117342913385827
21
-1.183131653543307
0
LINE
8
BLACK
6
CONTINUOUS
10
1.0117342913385827
20
-1.183131653543307
11
1.0222615748031496
21
-1.1889190551181101
0
LINE
8
BLACK
6
CONTINUOUS
10
1.0222615748031496
20
-1.1889190551181101
11
1.0334311811023622
21
-1.1933414173228347
0
LINE
8
BLACK
6
CONTINUOUS
10
1.0334311811023622
20
-1.1933414173228347
11
1.0450670078740156
21
-1.1963290157480315
0
LINE
8
BLACK
6
CONTINUOUS
10
1.0450670078740156
20
-1.1963290157480315
11
1.0569855118110236
21
-1.1978346456692912
0
LINE
8
BLACK
6
CONTINUOUS
10
1.0569855118110236
20
-1.1978346456692912
11
1.0689987401574803
21
-1.1978346456692912
0
LINE
8
BLACK
6
CONTINUOUS
10
1.0689987401574803
20
-1.1978346456692912
11
1.0809172440944881
21
-1.1963290157480315
0
LINE
8
BLACK
6
CONTINUOUS
10
1.0809172440944881
20
-1.1963290157480315
11
1.0925530708661417
21
-1.1933414173228347
0
LINE
8
BLACK
6
CONTINUOUS
10
1.0925530708661417
20
-1.1933414173228347
11
1.1037226771653543
21
-1.1889190551181101
0
LINE
8
BLACK
6
CONTINUOUS
10
1.1037226771653543
20
-1.1889190551181101
11
1.1142499606299212
21
-1.183131653543307
0
LINE
8
BLACK
6
CONTINUOUS
10
1.1142499606299212
20
-1.183131653543307
11
1.1239688976377953
21
-1.176070433070866
0
LINE
8
BLACK
6
CONTINUOUS
10
1.1239688976377953
20
-1.176070433070866
11
1.1327261417322834
21
-1.167846811023622
0
LINE
8
BLACK
6
CONTINUOUS
10
1.1327261417322834
20
-1.167846811023622
11
1.1403836614173228
21
-1.1585904724409448
0
LINE
8
BLACK
6
CONTINUOUS
10
1.1403836614173228
20
-1.1585904724409448
11
1.1468207086614173
21
-1.1484473622047244
0
LINE
8
BLACK
6
CONTINUOUS
10
1.1468207086614173
20
-1.1484473622047244
11
1.1519356692913385
21
-1.1375774409448818
0
LINE
8
BLACK
6
CONTINUOUS
10
1.1519356692913385
20
-1.1375774409448818
11
1.1556479921259841
21
-1.1261521653543307
0
LINE
8
BLACK
6
CONTINUOUS
10
1.1556479921259841
20
-1.1261521653543307
11
1.1578990157480316
21
-1.1143517322834646
0
LINE
8
BLACK
6
CONTINUOUS
10
1.1578990157480316
20
-1.1143517322834646
11
1.1586533464566928
21
-1.1023622047244095
0
LINE
8
BLACK
6
CONTINUOUS
10
1.1586533464566928
20
-1.1023622047244095
11
1.1578990157480316
21
-1.0903726771653544
0
LINE
8
BLACK
6
CONTINUOUS
10
1.1578990157480316
20
-1.0903726771653544
11
1.1556479921259841
21
-1.0785722440944883
0
LINE
8
BLACK
6
CONTINUOUS
10
1.1556479921259841
20
-1.0785722440944883
11
1.1519356692913385
21
-1.067146968503937
0
LINE
8
BLACK
6
CONTINUOUS
10
1.1519356692913385
20
-1.067146968503937
11
1.1468207086614173
21
-1.0562770472440945
0
LINE
8
BLACK
6
CONTINUOUS
10
1.1468207086614173
20
-1.0562770472440945
11
1.1403836614173228
21
-1.0461339370078739
0
LINE
8
BLACK
6
CONTINUOUS
10
1.1403836614173228
20
-1.0461339370078739
11
1.1327261417322834
21
-1.0368775984251968
0
LINE
8
BLACK
6
CONTINUOUS
10
1.1327261417322834
20
-1.0368775984251968
11
1.1239688976377953
21
-1.0286539763779528
0
LINE
8
BLACK
6
CONTINUOUS
10
1.1239688976377953
20
-1.0286539763779528
11
1.1142499606299212
21
-1.0215927559055118
0
LINE
8
BLACK
6
CONTINUOUS
10
1.1142499606299212
20
-1.0215927559055118
11
1.1037226771653543
21
-1.0158053543307086
0
LINE
8
BLACK
6
CONTINUOUS
10
1.1037226771653543
20
-1.0158053543307086
11
1.0925530708661417
21
-1.0113829921259843
0
LINE
8
BLACK
6
CONTINUOUS
10
1.0925530708661417
20
-1.0113829921259843
11
1.0809172440944881
21
-1.0083953937007875
0
LINE
8
BLACK
6
CONTINUOUS
10
1.0809172440944881
20
-1.0083953937007875
11
1.0689987401574803
21
-1.0068897637795275
0
LINE
8
BLACK
6
CONTINUOUS
10
1.0689987401574803
20
-1.0068897637795275
11
1.0569855118110236
21
-1.0068897637795275
0
LINE
8
BLACK
6
CONTINUOUS
10
1.0569855118110236
20
-1.0068897637795275
11
1.0450670078740156
21
-1.0083953937007875
0
LINE
8
BLACK
6
CONTINUOUS
10
1.0450670078740156
20
-1.0083953937007875
11
1.0334311811023622
21
-1.0113829921259843
0
LINE
8
BLACK
6
CONTINUOUS
10
1.0334311811023622
20
-1.0113829921259843
11
1.0222615748031496
21
-1.0158053543307086
0
LINE
8
BLACK
6
CONTINUOUS
10
1.0222615748031496
20
-1.0158053543307086
11
1.0117342913385827
21
-1.0215927559055118
0
LINE
8
BLACK
6
CONTINUOUS
10
1.0117342913385827
20
-1.0215927559055118
11
1.0020153543307087
21
-1.0286539763779528
0
LINE
8
BLACK
6
CONTINUOUS
10
1.0020153543307087
20
-1.0286539763779528
11
0.9932581102362205
21
-1.0368775984251968
0
LINE
8
BLACK
6
CONTINUOUS
10
0.9932581102362205
20
-1.0368775984251968
11
0.9856005905511811
21
-1.0461339370078739
0
LINE
8
BLACK
6
CONTINUOUS
10
0.9856005905511811
20
-1.0461339370078739
11
0.9791635433070865
21
-1.0562770472440945
0
LINE
8
BLACK
6
CONTINUOUS
10
0.9791635433070865
20
-1.0562770472440945
11
0.9740485826771653
21
-1.067146968503937
0
LINE
8
BLACK
6
CONTINUOUS
10
0.9740485826771653
20
-1.067146968503937
11
0.9703362598425197
21
-1.0785722440944883
0
LINE
8
BLACK
6
CONTINUOUS
10
0.9703362598425197
20
-1.0785722440944883
11
0.9680852362204724
21
-1.0903726771653544
0
LINE
8
BLACK
6
CONTINUOUS
10
0.9680852362204724
20
-1.0903726771653544
11
0.967330905511811
21
-1.1023622047244095
0
LINE
8
BLACK
6
CONTINUOUS
10
0.967330905511811
20
-1.1023622047244095
11
0.9680852362204724
21
-1.1143517322834646
0
LINE
8
BLACK
6
CONTINUOUS
10
7.3812010629921261
20
-1.0027799212598425
11
7.3935322440944882
21
-1.0059460236220472
0
LINE
8
BLACK
6
CONTINUOUS
10
7.3935322440944882
20
-1.0059460236220472
11
7.4053693700787404
21
-1.0106326771653542
0
LINE
8
BLACK
6
CONTINUOUS
10
7.4053693700787404
20
-1.0106326771653542
11
7.4165257480314963
21
-1.0167659842519685
0
LINE
8
BLACK
6
CONTINUOUS
10
7.4165257480314963
20
-1.0167659842519685
11
7.426825472440945
21
-1.0242491338582678
0
LINE
8
BLACK
6
CONTINUOUS
10
7.426825472440945
20
-1.0242491338582678
11
7.4361060629921258
21
-1.0329642125984251
0
LINE
8
BLACK
6
CONTINUOUS
10
7.4361060629921258
20
-1.0329642125984251
11
7.4442212204724409
21
-1.0427737401574804
0
LINE
8
BLACK
6
CONTINUOUS
10
7.4442212204724409
20
-1.0427737401574804
11
7.4510429133858267
21
-1.0535229921259843
0
LINE
8
BLACK
6
CONTINUOUS
10
7.4510429133858267
20
-1.0535229921259843
11
7.4564635433070867
21
-1.0650424803149605
0
LINE
8
BLACK
6
CONTINUOUS
10
7.4564635433070867
20
-1.0650424803149605
11
7.4603977165354332
21
-1.0771505511811024
0
LINE
8
BLACK
6
CONTINUOUS
10
7.4603977165354332
20
-1.0771505511811024
11
7.4627832677165351
21
-1.0896561811023622
0
LINE
8
BLACK
6
CONTINUOUS
10
7.4627832677165351
20
-1.0896561811023622
11
7.4635826771653537
21
-1.1023622047244095
0
LINE
8
BLACK
6
CONTINUOUS
10
7.4635826771653537
20
-1.1023622047244095
11
7.4627832677165351
21
-1.1150682283464566
0
LINE
8
BLACK
6
CONTINUOUS
10
7.4627832677165351
20
-1.1150682283464566
11
7.4603977165354332
21
-1.1275738582677166
0
LINE
8
BLACK
6
CONTINUOUS
10
7.4603977165354332
20
-1.1275738582677166
11
7.4564635433070867
21
-1.1396819291338582
0
LINE
8
BLACK
6
CONTINUOUS
10
7.4564635433070867
20
-1.1396819291338582
11
7.4510429133858267
21
-1.1512014173228347
0
LINE
8
BLACK
6
CONTINUOUS
10
7.4510429133858267
20
-1.1512014173228347
11
7.4442212204724409
21
-1.1619506692913386
0
LINE
8
BLACK
6
CONTINUOUS
10
7.4442212204724409
20
-1.1619506692913386
11
7.4361060629921258
21
-1.1717601968503937
0
LINE
8
BLACK
6
CONTINUOUS
10
7.4361060629921258
20
-1.1717601968503937
11
7.426825472440945
21
-1.1804752755905512
0
LINE
8
BLACK
6
CONTINUOUS
10
7.426825472440945
20
-1.1804752755905512
11
7.4165257480314963
21
-1.1879584251968505
0
LINE
8
BLACK
6
CONTINUOUS
10
7.4165257480314963
20
-1.1879584251968505
11
7.4053693700787404
21
-1.1940917322834645
0
LINE
8
BLACK
6
CONTINUOUS
10
7.4053693700787404
20
-1.1940917322834645
11
7.3935322440944882
21
-1.1987783858267715
0
LINE
8
BLACK
6
CONTINUOUS
10
7.3935322440944882
20
-1.1987783858267715
11
7.3812010629921261
21
-1.2019444881889763
0
LINE
8
BLACK
6
CONTINUOUS
10
7.3812010629921261
20
-1.2019444881889763
11
7.3685703149606301
21
-1.2035401181102361
0
LINE
8
BLACK
6
CONTINUOUS
10
7.3685703149606301
20
-1.2035401181102361
11
7.3558391338582672
21
-1.2035401181102361
0
LINE
8
BLACK
6
CONTINUOUS
10
7.3558391338582672
20
-1.2035401181102361
11
7.3432083858267712
21
-1.2019444881889763
0
LINE
8
BLACK
6
CONTINUOUS
10
7.3432083858267712
20
-1.2019444881889763
11
7.3308772047244091
21
-1.1987783858267715
0
LINE
8
BLACK
6
CONTINUOUS
10
7.3308772047244091
20
-1.1987783858267715
11
7.3190400787401577
21
-1.1940917322834645
0
LINE
8
BLACK
6
CONTINUOUS
10
7.3190400787401577
20
-1.1940917322834645
11
7.3078837007874018
21
-1.1879584251968505
0
LINE
8
BLACK
6
CONTINUOUS
10
7.3078837007874018
20
-1.1879584251968505
11
7.2975839763779522
21
-1.1804752755905512
0
LINE
8
BLACK
6
CONTINUOUS
10
7.2975839763779522
20
-1.1804752755905512
11
7.2883033858267714
21
-1.1717601968503937
0
LINE
8
BLACK
6
CONTINUOUS
10
7.2883033858267714
20
-1.1717601968503937
11
7.2801882283464563
21
-1.1619506692913386
0
LINE
8
BLACK
6
CONTINUOUS
10
7.2801882283464563
20
-1.1619506692913386
11
7.2733665354330705
21
-1.1512014173228347
0
LINE
8
BLACK
6
CONTINUOUS
10
7.2733665354330705
20
-1.1512014173228347
11
7.2679459055118105
21
-1.1396819291338582
0
LINE
8
BLACK
6
CONTINUOUS
10
7.2679459055118105
20
-1.1396819291338582
11
7.2640117322834641
21
-1.1275738582677166
0
LINE
8
BLACK
6
CONTINUOUS
10
7.2640117322834641
20
-1.1275738582677166
11
7.2616261811023621
21
-1.1150682283464566
0
LINE
8
BLACK
6
CONTINUOUS
10
7.2616261811023621
20
-1.1150682283464566
11
7.2608267716535435
21
-1.1023622047244095
0
LINE
8
BLACK
6
CONTINUOUS
10
7.2608267716535435
20
-1.1023622047244095
11
7.2616261811023621
21
-1.0896561811023622
0
LINE
8
BLACK
6
CONTINUOUS
10
7.2616261811023621
20
-1.0896561811023622
11
7.2640117322834641
21
-1.0771505511811024
0
LINE
8
BLACK
6
CONTINUOUS
10
7.2640117322834641
20
-1.0771505511811024
11
7.2679459055118105
21
-1.0650424803149605
0
LINE
8
BLACK
6
CONTINUOUS
10
7.2679459055118105
20
-1.0650424803149605
11
7.2733665354330705
21
-1.0535229921259843
0
LINE
8
BLACK
6
CONTINUOUS
10
7.2733665354330705
20
-1.0535229921259843
11
7.2801882283464563
21
-1.0427737401574804
0
LINE
8
BLACK
6
CONTINUOUS
10
7.2801882283464563
20
-1.0427737401574804
11
7.2883033858267714
21
-1.0329642125984251
0
LINE
8
BLACK
6
CONTINUOUS
10
7.2883033858267714
20
-1.0329642125984251
11
7.2975839763779522
21
-1.0242491338582678
0
LINE
8
BLACK
6
CONTINUOUS
10
7.2975839763779522
20
-1.0242491338582678
11
7.3078837007874018
21
-1.0167659842519685
0
LINE
8
BLACK
6
CONTINUOUS
10
7.3078837007874018
20
-1.0167659842519685
11
7.3190400787401577
21
-1.0106326771653542
0
LINE
8
BLACK
6
CONTINUOUS
10
7.3190400787401577
20
-1.0106326771653542
11
7.3308772047244091
21
-1.0059460236220472
0
LINE
8
BLACK
6
CONTINUOUS
10
7.3308772047244091
20
-1.0059460236220472
11
7.3432083858267712
21
-1.0027799212598425
0
LINE
8
BLACK
6
CONTINUOUS
10
7.3432083858267712
20
-1.0027799212598425
11
7.3558391338582672
21
-1.0011842913385827
0
LINE
8
BLACK
6
CONTINUOUS
10
7.3558391338582672
20
-1.0011842913385827
11
7.3685703149606301
21
-1.0011842913385827
0
LINE
8
BLACK
6
CONTINUOUS
10
7.3685703149606301
20
-1.0011842913385827
11
7.3812010629921261
21
-1.0027799212598425
0
LINE
8
BLACK
6
CONTINUOUS
10
7.2672978346456691
20
-1.1143517322834646
11
7.2695488582677168
21
-1.1261521653543307
0
LINE
8
BLACK
6
CONTINUOUS
10
7.2695488582677168
20
-1.1261521653543307
11
7.2732611811023622
21
-1.1375774409448818
0
LINE
8
BLACK
6
CONTINUOUS
10
7.2732611811023622
20
-1.1375774409448818
11
7.2783761417322834
21
-1.1484473622047244
0
LINE
8
BLACK
6
CONTINUOUS
10
7.2783761417322834
20
-1.1484473622047244
11
7.2848131889763774
21
-1.1585904724409448
0
LINE
8
BLACK
6
CONTINUOUS
10
7.2848131889763774
20
-1.1585904724409448
11
7.2924707086614173
21
-1.167846811023622
0
LINE
8
BLACK
6
CONTINUOUS
10
7.2924707086614173
20
-1.167846811023622
11
7.3012279527559052
21
-1.176070433070866
0
LINE
8
BLACK
6
CONTINUOUS
10
7.3012279527559052
20
-1.176070433070866
11
7.3109468897637795
21
-1.183131653543307
0
LINE
8
BLACK
6
CONTINUOUS
10
7.3109468897637795
20
-1.183131653543307
11
7.3214741732283466
21
-1.1889190551181101
0
LINE
8
BLACK
6
CONTINUOUS
10
7.3214741732283466
20
-1.1889190551181101
11
7.332643779527559
21
-1.1933414173228347
0
LINE
8
BLACK
6
CONTINUOUS
10
7.332643779527559
20
-1.1933414173228347
11
7.3442796062992128
21
-1.1963290157480315
0
LINE
8
BLACK
6
CONTINUOUS
10
7.3442796062992128
20
-1.1963290157480315
11
7.3561981102362202
21
-1.1978346456692912
0
LINE
8
BLACK
6
CONTINUOUS
10
7.3561981102362202
20
-1.1978346456692912
11
7.3682113385826771
21
-1.1978346456692912
0
LINE
8
BLACK
6
CONTINUOUS
10
7.3682113385826771
20
-1.1978346456692912
11
7.3801298425196853
21
-1.1963290157480315
0
LINE
8
BLACK
6
CONTINUOUS
10
7.3801298425196853
20
-1.1963290157480315
11
7.3917656692913383
21
-1.1933414173228347
0
LINE
8
BLACK
6
CONTINUOUS
10
7.3917656692913383
20
-1.1933414173228347
11
7.4029352755905506
21
-1.1889190551181101
0
LINE
8
BLACK
6
CONTINUOUS
10
7.4029352755905506
20
-1.1889190551181101
11
7.4134625590551178
21
-1.183131653543307
0
LINE
8
BLACK
6
CONTINUOUS
10
7.4134625590551178
20
-1.183131653543307
11
7.423181496062992
21
-1.176070433070866
0
LINE
8
BLACK
6
CONTINUOUS
10
7.423181496062992
20
-1.176070433070866
11
7.4319387401574799
21
-1.167846811023622
0
LINE
8
BLACK
6
CONTINUOUS
10
7.4319387401574799
20
-1.167846811023622
11
7.4395962598425198
21
-1.1585904724409448
0
LINE
8
BLACK
6
CONTINUOUS
10
7.4395962598425198
20
-1.1585904724409448
11
7.4460333070866138
21
-1.1484473622047244
0
LINE
8
BLACK
6
CONTINUOUS
10
7.4460333070866138
20
-1.1484473622047244
11
7.451148267716535
21
-1.1375774409448818
0
LINE
8
BLACK
6
CONTINUOUS
10
7.451148267716535
20
-1.1375774409448818
11
7.4548605905511813
21
-1.1261521653543307
0
LINE
8
BLACK
6
CONTINUOUS
10
7.4548605905511813
20
-1.1261521653543307
11
7.4571116141732281
21
-1.1143517322834646
0
LINE
8
BLACK
6
CONTINUOUS
10
7.4571116141732281
20
-1.1143517322834646
11
7.45786594488189
21
-1.1023622047244095
0
LINE
8
BLACK
6
CONTINUOUS
10
7.45786594488189
20
-1.1023622047244095
11
7.4571116141732281
21
-1.0903726771653544
0
LINE
8
BLACK
6
CONTINUOUS
10
7.4571116141732281
20
-1.0903726771653544
11
7.4548605905511813
21
-1.0785722440944883
0
LINE
8
BLACK
6
CONTINUOUS
10
7.4548605905511813
20
-1.0785722440944883
11
7.451148267716535
21
-1.067146968503937
0
LINE
8
BLACK
6
CONTINUOUS
10
7.451148267716535
20
-1.067146968503937
11
7.4460333070866138
21
-1.0562770472440945
0
LINE
8
BLACK
6
CONTINUOUS
10
7.4460333070866138
20
-1.0562770472440945
11
7.4395962598425198
21
-1.0461339370078739
0
LINE
8
BLACK
6
CONTINUOUS
10
7.4395962598425198
20
-1.0461339370078739
11
7.4319387401574799
21
-1.0368775984251968
0
LINE
8
BLACK
6
CONTINUOUS
10
7.4319387401574799
20
-1.0368775984251968
11
7.423181496062992
21
-1.0286539763779528
0
LINE
8
BLACK
6
CONTINUOUS
10
7.423181496062992
20
-1.0286539763779528
11
7.4134625590551178
21
-1.0215927559055118
0
LINE
8
BLACK
6
CONTINUOUS
10
7.4134625590551178
20
-1.0215927559055118
11
7.4029352755905506
21
-1.0158053543307086
0
LINE
8
BLACK
6
CONTINUOUS
10
7.4029352755905506
20
-1.0158053543307086
11
7.3917656692913383
21
-1.0113829921259843
0
LINE
8
BLACK
6
CONTINUOUS
10
7.3917656692913383
20
-1.0113829921259843
11
7.3801298425196853
21
-1.0083953937007875
0
LINE
8
BLACK
6
CONTINUOUS
10
7.3801298425196853
20
-1.0083953937007875
11
7.3682113385826771
21
-1.0068897637795275
0
LINE
8
BLACK
6
CONTINUOUS
10
7.3682113385826771
20
-1.0068897637795275
11
7.3561981102362202
21
-1.0068897637795275
0
LINE
8
BLACK
6
CONTINUOUS
10
7.3561981102362202
20
-1.0068897637795275
11
7.3442796062992128
21
-1.0083953937007875
0
LINE
8
BLACK
6
CONTINUOUS
10
7.3442796062992128
20
-1.0083953937007875
11
7.332643779527559
21
-1.0113829921259843
0
LINE
8
BLACK
6
CONTINUOUS
10
7.332643779527559
20
-1.0113829921259843
11
7.3214741732283466
21
-1.0158053543307086
0
LINE
8
BLACK
6
CONTINUOUS
10
7.3214741732283466
20
-1.0158053543307086
11
7.3109468897637795
21
-1.0215927559055118
0
LINE
8
BLACK
6
CONTINUOUS
10
7.3109468897637795
20
-1.0215927559055118
11
7.3012279527559052
21
-1.0286539763779528
0
LINE
8
BLACK
6
CONTINUOUS
10
7.3012279527559052
20
-1.0286539763779528
11
7.2924707086614173
21
-1.0368775984251968
0
LINE
8
BLACK
6
CONTINUOUS
10
7.2924707086614173
20
-1.0368775984251968
11
7.2848131889763774
21
-1.0461339370078739
0
LINE
8
BLACK
6
CONTINUOUS
10
7.2848131889763774
20
-1.0461339370078739
11
7.2783761417322834
21
-1.0562770472440945
0
LINE
8
BLACK
6
CONTINUOUS
10
7.2783761417322834
20
-1.0562770472440945
11
7.2732611811023622
21
-1.067146968503937
0
LINE
8
BLACK
6
CONTINUOUS
10
7.2732611811023622
20
-1.067146968503937
11
7.2695488582677168
21
-1.0785722440944883
0
LINE
8
BLACK
6
CONTINUOUS
10
7.2695488582677168
20
-1.0785722440944883
11
7.2672978346456691
21
-1.0903726771653544
0
LINE
8
BLACK
6
CONTINUOUS
10
7.2672978346456691
20
-1.0903726771653544
11
7.2665435039370081
21
-1.1023622047244095
0
LINE
8
BLACK
6
CONTINUOUS
10
7.2665435039370081
20
-1.1023622047244095
11
7.2672978346456691
21
-1.1143517322834646
0
CIRCLE
8
BLACK
10
6.6929133858267713
20
-5.2362204724409445
40
0.0492125984251968
0
CIRCLE
8
BLACK
10
7.3622047244094491
20
-1.1023622047244095
40
0.0492125984251968
0
CIRCLE
8
BLACK
10
2.1456692913385824
20
-2.9606299212598426
40
0.0334645669291339
0
CIRCLE
8
BLACK
10
2.1456692913385824
20
-5.0078740157480315
40
0.0334645669291339
0
CIRCLE
8
BLACK
10
3.326771653543307
20
-2.9606299212598426
40
0.0334645669291339
0
CIRCLE
8
BLACK
10
3.326771653543307
20
-5.0078740157480315
40
0.0334645669291339
0
CIRCLE
8
BLACK
10
1.7322834645669292
20
-5.2362204724409445
40
0.0492125984251968
0
CIRCLE
8
BLACK
10
4.21259842519685
20
-4.0551181102362204
40
0.0492125984251968
0
CIRCLE
8
BLACK
10
1.0629921259842519
20
-1.1023622047244095
40
0.0492125984251968
0
CIRCLE
8
BLACK
10
5.0984251968503935
20
-2.9606299212598426
40
0.0334645669291339
0
CIRCLE
8
BLACK
10
5.0984251968503935
20
-5.0078740157480315
40
0.0334645669291339
0
CIRCLE
8
BLACK
10
6.2795275590551176
20
-2.9606299212598426
40
0.0334645669291339
0
CIRCLE
8
BLACK
10
6.2795275590551176
20
-5.0078740157480315
40
0.0334645669291339
  0
ENDSEC
  0
EOF
