%TF.GenerationSoftware,KiCad,Pcbnew,8.0.4+1*%
%TF.CreationDate,2024-10-05T20:32:55+00:00*%
%TF.ProjectId,pedalboard-display,70656461-6c62-46f6-9172-642d64697370,0.0.0-RC1*%
%TF.SameCoordinates,Original*%
%TF.FileFunction,Other,User*%
%FSLAX46Y46*%
G04 Gerber Fmt 4.6, Leading zero omitted, Abs format (unit mm)*
G04 Created by KiCad (PCBNEW 8.0.4+1) date 2024-10-05 20:32:55*
%MOMM*%
%LPD*%
G01*
G04 APERTURE LIST*
%ADD10C,0.050000*%
G04 APERTURE END LIST*
D10*
%TO.C,FID2*%
X189750000Y-26000000D02*
G75*
G02*
X188250000Y-26000000I-750000J0D01*
G01*
X188250000Y-26000000D02*
G75*
G02*
X189750000Y-26000000I750000J0D01*
G01*
%TO.C,C65*%
X63336628Y-31374650D02*
X64133372Y-30914650D01*
X64133372Y-30914650D02*
X65043372Y-32490816D01*
X64246628Y-32950816D02*
X63336628Y-31374650D01*
X65043372Y-32490816D02*
X64246628Y-32950816D01*
%TO.C,C49*%
X115090000Y-70070000D02*
X116910000Y-70070000D01*
X115090000Y-70990000D02*
X115090000Y-70070000D01*
X116910000Y-70070000D02*
X116910000Y-70990000D01*
X116910000Y-70990000D02*
X115090000Y-70990000D01*
%TO.C,D35*%
X185133975Y-131428204D02*
X186866025Y-130428204D01*
X186133975Y-133160254D02*
X185133975Y-131428204D01*
X186866025Y-130428204D02*
X187866025Y-132160254D01*
X187866025Y-132160254D02*
X186133975Y-133160254D01*
%TO.C,D83*%
X35133975Y-79428204D02*
X36866025Y-78428204D01*
X36133975Y-81160254D02*
X35133975Y-79428204D01*
X36866025Y-78428204D02*
X37866025Y-80160254D01*
X37866025Y-80160254D02*
X36133975Y-81160254D01*
%TO.C,D34*%
X181000000Y-132000000D02*
X183000000Y-132000000D01*
X181000000Y-134000000D02*
X181000000Y-132000000D01*
X183000000Y-132000000D02*
X183000000Y-134000000D01*
X183000000Y-134000000D02*
X181000000Y-134000000D01*
%TO.C,D11*%
X148133975Y-46428204D02*
X149866025Y-45428204D01*
X149133975Y-48160254D02*
X148133975Y-46428204D01*
X149866025Y-45428204D02*
X150866025Y-47160254D01*
X150866025Y-47160254D02*
X149133975Y-48160254D01*
%TO.C,D49*%
X115000000Y-71000000D02*
X117000000Y-71000000D01*
X115000000Y-73000000D02*
X115000000Y-71000000D01*
X117000000Y-71000000D02*
X117000000Y-73000000D01*
X117000000Y-73000000D02*
X115000000Y-73000000D01*
%TO.C,C4*%
X143040000Y-29150000D02*
X143960000Y-29150000D01*
X143040000Y-30970000D02*
X143040000Y-29150000D01*
X143960000Y-29150000D02*
X143960000Y-30970000D01*
X143960000Y-30970000D02*
X143040000Y-30970000D01*
%TO.C,C80*%
X23981917Y-77806628D02*
X25558083Y-76896628D01*
X24441917Y-78603372D02*
X23981917Y-77806628D01*
X25558083Y-76896628D02*
X26018083Y-77693372D01*
X26018083Y-77693372D02*
X24441917Y-78603372D01*
%TO.C,D59*%
X110133975Y-79428204D02*
X111866025Y-78428204D01*
X111133975Y-81160254D02*
X110133975Y-79428204D01*
X111866025Y-78428204D02*
X112866025Y-80160254D01*
X112866025Y-80160254D02*
X111133975Y-81160254D01*
%TO.C,C32*%
X173981917Y-129806628D02*
X175558083Y-128896628D01*
X174441917Y-130603372D02*
X173981917Y-129806628D01*
X175558083Y-128896628D02*
X176018083Y-129693372D01*
X176018083Y-129693372D02*
X174441917Y-130603372D01*
%TO.C,D73*%
X40000000Y-71000000D02*
X42000000Y-71000000D01*
X40000000Y-73000000D02*
X40000000Y-71000000D01*
X42000000Y-71000000D02*
X42000000Y-73000000D01*
X42000000Y-73000000D02*
X40000000Y-73000000D01*
%TO.C,C5*%
X138336628Y-31374650D02*
X139133372Y-30914650D01*
X139133372Y-30914650D02*
X140043372Y-32490816D01*
X139246628Y-32950816D02*
X138336628Y-31374650D01*
X140043372Y-32490816D02*
X139246628Y-32950816D01*
%TO.C,C13*%
X190090000Y-70070000D02*
X191910000Y-70070000D01*
X190090000Y-70990000D02*
X190090000Y-70070000D01*
X191910000Y-70070000D02*
X191910000Y-70990000D01*
X191910000Y-70990000D02*
X190090000Y-70990000D01*
%TO.C,D48*%
X113428204Y-128866025D02*
X114428204Y-127133975D01*
X114428204Y-127133975D02*
X116160254Y-128133975D01*
X115160254Y-129866025D02*
X113428204Y-128866025D01*
X116160254Y-128133975D02*
X115160254Y-129866025D01*
%TO.C,D86*%
X38428204Y-119133975D02*
X40160254Y-118133975D01*
X39428204Y-120866025D02*
X38428204Y-119133975D01*
X40160254Y-118133975D02*
X41160254Y-119866025D01*
X41160254Y-119866025D02*
X39428204Y-120866025D01*
%TO.C,D64*%
X69000000Y-29000000D02*
X71000000Y-29000000D01*
X69000000Y-31000000D02*
X69000000Y-29000000D01*
X71000000Y-29000000D02*
X71000000Y-31000000D01*
X71000000Y-31000000D02*
X69000000Y-31000000D01*
%TO.C,D54*%
X97839746Y-67866025D02*
X98839746Y-66133975D01*
X98839746Y-66133975D02*
X100571796Y-67133975D01*
X99571796Y-68866025D02*
X97839746Y-67866025D01*
X100571796Y-67133975D02*
X99571796Y-68866025D01*
%TO.C,D37*%
X115000000Y-123000000D02*
X117000000Y-123000000D01*
X115000000Y-125000000D02*
X115000000Y-123000000D01*
X117000000Y-123000000D02*
X117000000Y-125000000D01*
X117000000Y-125000000D02*
X115000000Y-125000000D01*
%TO.C,D1*%
X153000000Y-38000000D02*
X155000000Y-38000000D01*
X153000000Y-40000000D02*
X153000000Y-38000000D01*
X155000000Y-38000000D02*
X155000000Y-40000000D01*
X155000000Y-40000000D02*
X153000000Y-40000000D01*
%TO.C,D15*%
X185133975Y-64571796D02*
X186133975Y-62839746D01*
X186133975Y-62839746D02*
X187866025Y-63839746D01*
X186866025Y-65571796D02*
X185133975Y-64571796D01*
X187866025Y-63839746D02*
X186866025Y-65571796D01*
%TO.C,C31*%
X172090000Y-125040000D02*
X173910000Y-125040000D01*
X172090000Y-125960000D02*
X172090000Y-125040000D01*
X173910000Y-125040000D02*
X173910000Y-125960000D01*
X173910000Y-125960000D02*
X172090000Y-125960000D01*
%TO.C,D4*%
X144000000Y-29000000D02*
X146000000Y-29000000D01*
X144000000Y-31000000D02*
X144000000Y-29000000D01*
X146000000Y-29000000D02*
X146000000Y-31000000D01*
X146000000Y-31000000D02*
X144000000Y-31000000D01*
%TO.C,C17*%
X175336628Y-64374650D02*
X176133372Y-63914650D01*
X176133372Y-63914650D02*
X177043372Y-65490816D01*
X176246628Y-65950816D02*
X175336628Y-64374650D01*
X177043372Y-65490816D02*
X176246628Y-65950816D01*
%TO.C,D82*%
X31000000Y-80000000D02*
X33000000Y-80000000D01*
X31000000Y-82000000D02*
X31000000Y-80000000D01*
X33000000Y-80000000D02*
X33000000Y-82000000D01*
X33000000Y-82000000D02*
X31000000Y-82000000D01*
%TO.C,C78*%
X22481917Y-68743372D02*
X22941917Y-67946628D01*
X22941917Y-67946628D02*
X24518083Y-68856628D01*
X24058083Y-69653372D02*
X22481917Y-68743372D01*
X24518083Y-68856628D02*
X24058083Y-69653372D01*
%TO.C,D12*%
X151428204Y-43866025D02*
X152428204Y-42133975D01*
X152428204Y-42133975D02*
X154160254Y-43133975D01*
X153160254Y-44866025D02*
X151428204Y-43866025D01*
X154160254Y-43133975D02*
X153160254Y-44866025D01*
%TO.C,D42*%
X97839746Y-119866025D02*
X98839746Y-118133975D01*
X98839746Y-118133975D02*
X100571796Y-119133975D01*
X99571796Y-120866025D02*
X97839746Y-119866025D01*
X100571796Y-119133975D02*
X99571796Y-120866025D01*
%TO.C,D8*%
X135839746Y-43133975D02*
X137571796Y-42133975D01*
X136839746Y-44866025D02*
X135839746Y-43133975D01*
X137571796Y-42133975D02*
X138571796Y-43866025D01*
X138571796Y-43866025D02*
X136839746Y-44866025D01*
%TO.C,C38*%
X112981917Y-118306628D02*
X114558083Y-117396628D01*
X113441917Y-119103372D02*
X112981917Y-118306628D01*
X114558083Y-117396628D02*
X115018083Y-118193372D01*
X115018083Y-118193372D02*
X113441917Y-119103372D01*
%TO.C,D10*%
X144000000Y-47000000D02*
X146000000Y-47000000D01*
X144000000Y-49000000D02*
X144000000Y-47000000D01*
X146000000Y-47000000D02*
X146000000Y-49000000D01*
X146000000Y-49000000D02*
X144000000Y-49000000D01*
%TO.C,D39*%
X110133975Y-116571796D02*
X111133975Y-114839746D01*
X111133975Y-114839746D02*
X112866025Y-115839746D01*
X111866025Y-117571796D02*
X110133975Y-116571796D01*
X112866025Y-115839746D02*
X111866025Y-117571796D01*
%TO.C,D7*%
X135000000Y-38000000D02*
X137000000Y-38000000D01*
X135000000Y-40000000D02*
X135000000Y-38000000D01*
X137000000Y-38000000D02*
X137000000Y-40000000D01*
X137000000Y-40000000D02*
X135000000Y-40000000D01*
%TO.C,C20*%
X173981917Y-77806628D02*
X175558083Y-76896628D01*
X174441917Y-78603372D02*
X173981917Y-77806628D01*
X175558083Y-76896628D02*
X176018083Y-77693372D01*
X176018083Y-77693372D02*
X174441917Y-78603372D01*
%TO.C,D6*%
X135839746Y-34866025D02*
X136839746Y-33133975D01*
X136839746Y-33133975D02*
X138571796Y-34133975D01*
X137571796Y-35866025D02*
X135839746Y-34866025D01*
X138571796Y-34133975D02*
X137571796Y-35866025D01*
%TO.C,D16*%
X181000000Y-62000000D02*
X183000000Y-62000000D01*
X181000000Y-64000000D02*
X181000000Y-62000000D01*
X183000000Y-62000000D02*
X183000000Y-64000000D01*
X183000000Y-64000000D02*
X181000000Y-64000000D01*
%TO.C,D53*%
X101133975Y-63839746D02*
X102866025Y-62839746D01*
X102133975Y-65571796D02*
X101133975Y-63839746D01*
X102866025Y-62839746D02*
X103866025Y-64571796D01*
X103866025Y-64571796D02*
X102133975Y-65571796D01*
%TO.C,FID1*%
X25750000Y-26000000D02*
G75*
G02*
X24250000Y-26000000I-750000J0D01*
G01*
X24250000Y-26000000D02*
G75*
G02*
X25750000Y-26000000I750000J0D01*
G01*
%TO.C,C19*%
X172090000Y-73040000D02*
X173910000Y-73040000D01*
X172090000Y-73960000D02*
X172090000Y-73040000D01*
X173910000Y-73040000D02*
X173910000Y-73960000D01*
X173910000Y-73960000D02*
X172090000Y-73960000D01*
%TO.C,D71*%
X73133975Y-46428204D02*
X74866025Y-45428204D01*
X74133975Y-48160254D02*
X73133975Y-46428204D01*
X74866025Y-45428204D02*
X75866025Y-47160254D01*
X75866025Y-47160254D02*
X74133975Y-48160254D01*
%TO.C,D92*%
X22839746Y-128133975D02*
X24571796Y-127133975D01*
X23839746Y-129866025D02*
X22839746Y-128133975D01*
X24571796Y-127133975D02*
X25571796Y-128866025D01*
X25571796Y-128866025D02*
X23839746Y-129866025D01*
%TO.C,C95*%
X36946628Y-130509184D02*
X37743372Y-130049184D01*
X37743372Y-130049184D02*
X38653372Y-131625350D01*
X37856628Y-132085350D02*
X36946628Y-130509184D01*
X38653372Y-131625350D02*
X37856628Y-132085350D01*
%TO.C,C27*%
X184346628Y-116058083D02*
X185256628Y-114481917D01*
X185143372Y-116518083D02*
X184346628Y-116058083D01*
X185256628Y-114481917D02*
X186053372Y-114941917D01*
X186053372Y-114941917D02*
X185143372Y-116518083D01*
%TO.C,D67*%
X60000000Y-38000000D02*
X62000000Y-38000000D01*
X60000000Y-40000000D02*
X60000000Y-38000000D01*
X62000000Y-38000000D02*
X62000000Y-40000000D01*
X62000000Y-40000000D02*
X60000000Y-40000000D01*
%TO.C,C66*%
X60481917Y-35743372D02*
X60941917Y-34946628D01*
X60941917Y-34946628D02*
X62518083Y-35856628D01*
X62058083Y-36653372D02*
X60481917Y-35743372D01*
X62518083Y-35856628D02*
X62058083Y-36653372D01*
%TO.C,C42*%
X97481917Y-120743372D02*
X97941917Y-119946628D01*
X97941917Y-119946628D02*
X99518083Y-120856628D01*
X99058083Y-121653372D02*
X97481917Y-120743372D01*
X99518083Y-120856628D02*
X99058083Y-121653372D01*
%TO.C,D22*%
X181000000Y-80000000D02*
X183000000Y-80000000D01*
X181000000Y-82000000D02*
X181000000Y-80000000D01*
X183000000Y-80000000D02*
X183000000Y-82000000D01*
X183000000Y-82000000D02*
X181000000Y-82000000D01*
%TO.C,D50*%
X113428204Y-67133975D02*
X115160254Y-66133975D01*
X114428204Y-68866025D02*
X113428204Y-67133975D01*
X115160254Y-66133975D02*
X116160254Y-67866025D01*
X116160254Y-67866025D02*
X114428204Y-68866025D01*
%TO.C,C7*%
X135090000Y-40040000D02*
X136910000Y-40040000D01*
X135090000Y-40960000D02*
X135090000Y-40040000D01*
X136910000Y-40040000D02*
X136910000Y-40960000D01*
X136910000Y-40960000D02*
X135090000Y-40960000D01*
%TO.C,C52*%
X105040000Y-62150000D02*
X105960000Y-62150000D01*
X105040000Y-63970000D02*
X105040000Y-62150000D01*
X105960000Y-62150000D02*
X105960000Y-63970000D01*
X105960000Y-63970000D02*
X105040000Y-63970000D01*
%TO.C,D94*%
X31000000Y-132000000D02*
X33000000Y-132000000D01*
X31000000Y-134000000D02*
X31000000Y-132000000D01*
X33000000Y-132000000D02*
X33000000Y-134000000D01*
X33000000Y-134000000D02*
X31000000Y-134000000D01*
%TO.C,D23*%
X185133975Y-79428204D02*
X186866025Y-78428204D01*
X186133975Y-81160254D02*
X185133975Y-79428204D01*
X186866025Y-78428204D02*
X187866025Y-80160254D01*
X187866025Y-80160254D02*
X186133975Y-81160254D01*
%TO.C,D21*%
X176133975Y-80160254D02*
X177133975Y-78428204D01*
X177133975Y-78428204D02*
X178866025Y-79428204D01*
X177866025Y-81160254D02*
X176133975Y-80160254D01*
X178866025Y-79428204D02*
X177866025Y-81160254D01*
%TO.C,D88*%
X31000000Y-114000000D02*
X33000000Y-114000000D01*
X31000000Y-116000000D02*
X31000000Y-114000000D01*
X33000000Y-114000000D02*
X33000000Y-116000000D01*
X33000000Y-116000000D02*
X31000000Y-116000000D01*
%TO.C,D45*%
X101133975Y-132160254D02*
X102133975Y-130428204D01*
X102133975Y-130428204D02*
X103866025Y-131428204D01*
X102866025Y-133160254D02*
X101133975Y-132160254D01*
X103866025Y-131428204D02*
X102866025Y-133160254D01*
%TO.C,C25*%
X190090000Y-122070000D02*
X191910000Y-122070000D01*
X190090000Y-122990000D02*
X190090000Y-122070000D01*
X191910000Y-122070000D02*
X191910000Y-122990000D01*
X191910000Y-122990000D02*
X190090000Y-122990000D01*
%TO.C,C73*%
X40090000Y-70070000D02*
X41910000Y-70070000D01*
X40090000Y-70990000D02*
X40090000Y-70070000D01*
X41910000Y-70070000D02*
X41910000Y-70990000D01*
X41910000Y-70990000D02*
X40090000Y-70990000D01*
%TO.C,C36*%
X189531917Y-127193372D02*
X189991917Y-126396628D01*
X189991917Y-126396628D02*
X191568083Y-127306628D01*
X191108083Y-128103372D02*
X189531917Y-127193372D01*
X191568083Y-127306628D02*
X191108083Y-128103372D01*
%TO.C,D13*%
X190000000Y-71000000D02*
X192000000Y-71000000D01*
X190000000Y-73000000D02*
X190000000Y-71000000D01*
X192000000Y-71000000D02*
X192000000Y-73000000D01*
X192000000Y-73000000D02*
X190000000Y-73000000D01*
%TO.C,C93*%
X27946628Y-133058083D02*
X28856628Y-131481917D01*
X28743372Y-133518083D02*
X27946628Y-133058083D01*
X28856628Y-131481917D02*
X29653372Y-131941917D01*
X29653372Y-131941917D02*
X28743372Y-133518083D01*
%TO.C,C21*%
X177946628Y-81058083D02*
X178856628Y-79481917D01*
X178743372Y-81518083D02*
X177946628Y-81058083D01*
X178856628Y-79481917D02*
X179653372Y-79941917D01*
X179653372Y-79941917D02*
X178743372Y-81518083D01*
%TO.C,D95*%
X35133975Y-131428204D02*
X36866025Y-130428204D01*
X36133975Y-133160254D02*
X35133975Y-131428204D01*
X36866025Y-130428204D02*
X37866025Y-132160254D01*
X37866025Y-132160254D02*
X36133975Y-133160254D01*
%TO.C,C8*%
X136981917Y-44806628D02*
X138558083Y-43896628D01*
X137441917Y-45603372D02*
X136981917Y-44806628D01*
X138558083Y-43896628D02*
X139018083Y-44693372D01*
X139018083Y-44693372D02*
X137441917Y-45603372D01*
%TO.C,D72*%
X76428204Y-43866025D02*
X77428204Y-42133975D01*
X77428204Y-42133975D02*
X79160254Y-43133975D01*
X78160254Y-44866025D02*
X76428204Y-43866025D01*
X79160254Y-43133975D02*
X78160254Y-44866025D01*
%TO.C,C97*%
X92540000Y-34090000D02*
X93460000Y-34090000D01*
X92540000Y-35910000D02*
X92540000Y-34090000D01*
X93460000Y-34090000D02*
X93460000Y-35910000D01*
X93460000Y-35910000D02*
X92540000Y-35910000D01*
%TO.C,C86*%
X37981917Y-118306628D02*
X39558083Y-117396628D01*
X38441917Y-119103372D02*
X37981917Y-118306628D01*
X39558083Y-117396628D02*
X40018083Y-118193372D01*
X40018083Y-118193372D02*
X38441917Y-119103372D01*
%TO.C,D18*%
X172839746Y-67866025D02*
X173839746Y-66133975D01*
X173839746Y-66133975D02*
X175571796Y-67133975D01*
X174571796Y-68866025D02*
X172839746Y-67866025D01*
X175571796Y-67133975D02*
X174571796Y-68866025D01*
%TO.C,D85*%
X40000000Y-123000000D02*
X42000000Y-123000000D01*
X40000000Y-125000000D02*
X40000000Y-123000000D01*
X42000000Y-123000000D02*
X42000000Y-125000000D01*
X42000000Y-125000000D02*
X40000000Y-125000000D01*
%TO.C,C9*%
X140946628Y-48058083D02*
X141856628Y-46481917D01*
X141743372Y-48518083D02*
X140946628Y-48058083D01*
X141856628Y-46481917D02*
X142653372Y-46941917D01*
X142653372Y-46941917D02*
X141743372Y-48518083D01*
%TO.C,U1*%
X50600000Y-58800000D02*
G75*
G02*
X45900000Y-58800000I-2350000J0D01*
G01*
X45900000Y-58800000D02*
G75*
G02*
X50600000Y-58800000I2350000J0D01*
G01*
X50600000Y-110800000D02*
G75*
G02*
X45900000Y-110800000I-2350000J0D01*
G01*
X45900000Y-110800000D02*
G75*
G02*
X50600000Y-110800000I2350000J0D01*
G01*
X80600000Y-58800000D02*
G75*
G02*
X75900000Y-58800000I-2350000J0D01*
G01*
X75900000Y-58800000D02*
G75*
G02*
X80600000Y-58800000I2350000J0D01*
G01*
X80600000Y-110800000D02*
G75*
G02*
X75900000Y-110800000I-2350000J0D01*
G01*
X75900000Y-110800000D02*
G75*
G02*
X80600000Y-110800000I2350000J0D01*
G01*
%TO.C,D19*%
X172000000Y-71000000D02*
X174000000Y-71000000D01*
X172000000Y-73000000D02*
X172000000Y-71000000D01*
X174000000Y-71000000D02*
X174000000Y-73000000D01*
X174000000Y-73000000D02*
X172000000Y-73000000D01*
%TO.C,D65*%
X64133975Y-30839746D02*
X65866025Y-29839746D01*
X65133975Y-32571796D02*
X64133975Y-30839746D01*
X65866025Y-29839746D02*
X66866025Y-31571796D01*
X66866025Y-31571796D02*
X65133975Y-32571796D01*
%TO.C,D78*%
X22839746Y-67866025D02*
X23839746Y-66133975D01*
X23839746Y-66133975D02*
X25571796Y-67133975D01*
X24571796Y-68866025D02*
X22839746Y-67866025D01*
X25571796Y-67133975D02*
X24571796Y-68866025D01*
%TO.C,D46*%
X106000000Y-132000000D02*
X108000000Y-132000000D01*
X106000000Y-134000000D02*
X106000000Y-132000000D01*
X108000000Y-132000000D02*
X108000000Y-134000000D01*
X108000000Y-134000000D02*
X106000000Y-134000000D01*
%TO.C,C18*%
X172481917Y-68743372D02*
X172941917Y-67946628D01*
X172941917Y-67946628D02*
X174518083Y-68856628D01*
X174058083Y-69653372D02*
X172481917Y-68743372D01*
X174518083Y-68856628D02*
X174058083Y-69653372D01*
%TO.C,D58*%
X106000000Y-80000000D02*
X108000000Y-80000000D01*
X106000000Y-82000000D02*
X106000000Y-80000000D01*
X108000000Y-80000000D02*
X108000000Y-82000000D01*
X108000000Y-82000000D02*
X106000000Y-82000000D01*
%TO.C,D25*%
X190000000Y-123000000D02*
X192000000Y-123000000D01*
X190000000Y-125000000D02*
X190000000Y-123000000D01*
X192000000Y-123000000D02*
X192000000Y-125000000D01*
X192000000Y-125000000D02*
X190000000Y-125000000D01*
%TO.C,D70*%
X69000000Y-47000000D02*
X71000000Y-47000000D01*
X69000000Y-49000000D02*
X69000000Y-47000000D01*
X71000000Y-47000000D02*
X71000000Y-49000000D01*
X71000000Y-49000000D02*
X69000000Y-49000000D01*
%TO.C,C72*%
X77531917Y-42193372D02*
X77991917Y-41396628D01*
X77991917Y-41396628D02*
X79568083Y-42306628D01*
X79108083Y-43103372D02*
X77531917Y-42193372D01*
X79568083Y-42306628D02*
X79108083Y-43103372D01*
%TO.C,C55*%
X97090000Y-73040000D02*
X98910000Y-73040000D01*
X97090000Y-73960000D02*
X97090000Y-73040000D01*
X98910000Y-73040000D02*
X98910000Y-73960000D01*
X98910000Y-73960000D02*
X97090000Y-73960000D01*
%TO.C,C87*%
X34346628Y-116058083D02*
X35256628Y-114481917D01*
X35143372Y-116518083D02*
X34346628Y-116058083D01*
X35256628Y-114481917D02*
X36053372Y-114941917D01*
X36053372Y-114941917D02*
X35143372Y-116518083D01*
%TO.C,C11*%
X149946628Y-45509184D02*
X150743372Y-45049184D01*
X150743372Y-45049184D02*
X151653372Y-46625350D01*
X150856628Y-47085350D02*
X149946628Y-45509184D01*
X151653372Y-46625350D02*
X150856628Y-47085350D01*
%TO.C,C26*%
X187981917Y-118306628D02*
X189558083Y-117396628D01*
X188441917Y-119103372D02*
X187981917Y-118306628D01*
X189558083Y-117396628D02*
X190018083Y-118193372D01*
X190018083Y-118193372D02*
X188441917Y-119103372D01*
%TO.C,C43*%
X97090000Y-125040000D02*
X98910000Y-125040000D01*
X97090000Y-125960000D02*
X97090000Y-125040000D01*
X98910000Y-125040000D02*
X98910000Y-125960000D01*
X98910000Y-125960000D02*
X97090000Y-125960000D01*
%TO.C,D77*%
X26133975Y-63839746D02*
X27866025Y-62839746D01*
X27133975Y-65571796D02*
X26133975Y-63839746D01*
X27866025Y-62839746D02*
X28866025Y-64571796D01*
X28866025Y-64571796D02*
X27133975Y-65571796D01*
%TO.C,C74*%
X37981917Y-66306628D02*
X39558083Y-65396628D01*
X38441917Y-67103372D02*
X37981917Y-66306628D01*
X39558083Y-65396628D02*
X40018083Y-66193372D01*
X40018083Y-66193372D02*
X38441917Y-67103372D01*
%TO.C,C16*%
X180040000Y-62150000D02*
X180960000Y-62150000D01*
X180040000Y-63970000D02*
X180040000Y-62150000D01*
X180960000Y-62150000D02*
X180960000Y-63970000D01*
X180960000Y-63970000D02*
X180040000Y-63970000D01*
%TO.C,D31*%
X172000000Y-123000000D02*
X174000000Y-123000000D01*
X172000000Y-125000000D02*
X172000000Y-123000000D01*
X174000000Y-123000000D02*
X174000000Y-125000000D01*
X174000000Y-125000000D02*
X172000000Y-125000000D01*
%TO.C,FID4*%
X189750000Y-135000000D02*
G75*
G02*
X188250000Y-135000000I-750000J0D01*
G01*
X188250000Y-135000000D02*
G75*
G02*
X189750000Y-135000000I750000J0D01*
G01*
%TO.C,C51*%
X109346628Y-64058083D02*
X110256628Y-62481917D01*
X110143372Y-64518083D02*
X109346628Y-64058083D01*
X110256628Y-62481917D02*
X111053372Y-62941917D01*
X111053372Y-62941917D02*
X110143372Y-64518083D01*
%TO.C,C59*%
X111946628Y-78509184D02*
X112743372Y-78049184D01*
X112743372Y-78049184D02*
X113653372Y-79625350D01*
X112856628Y-80085350D02*
X111946628Y-78509184D01*
X113653372Y-79625350D02*
X112856628Y-80085350D01*
%TO.C,D17*%
X176133975Y-63839746D02*
X177866025Y-62839746D01*
X177133975Y-65571796D02*
X176133975Y-63839746D01*
X177866025Y-62839746D02*
X178866025Y-64571796D01*
X178866025Y-64571796D02*
X177133975Y-65571796D01*
%TO.C,D74*%
X38428204Y-67133975D02*
X40160254Y-66133975D01*
X39428204Y-68866025D02*
X38428204Y-67133975D01*
X40160254Y-66133975D02*
X41160254Y-67866025D01*
X41160254Y-67866025D02*
X39428204Y-68866025D01*
%TO.C,D51*%
X110133975Y-64571796D02*
X111133975Y-62839746D01*
X111133975Y-62839746D02*
X112866025Y-63839746D01*
X111866025Y-65571796D02*
X110133975Y-64571796D01*
X112866025Y-63839746D02*
X111866025Y-65571796D01*
%TO.C,C39*%
X109346628Y-116058083D02*
X110256628Y-114481917D01*
X110143372Y-116518083D02*
X109346628Y-116058083D01*
X110256628Y-114481917D02*
X111053372Y-114941917D01*
X111053372Y-114941917D02*
X110143372Y-116518083D01*
%TO.C,C61*%
X78090000Y-37070000D02*
X79910000Y-37070000D01*
X78090000Y-37990000D02*
X78090000Y-37070000D01*
X79910000Y-37070000D02*
X79910000Y-37990000D01*
X79910000Y-37990000D02*
X78090000Y-37990000D01*
%TO.C,D28*%
X181000000Y-114000000D02*
X183000000Y-114000000D01*
X181000000Y-116000000D02*
X181000000Y-114000000D01*
X183000000Y-114000000D02*
X183000000Y-116000000D01*
X183000000Y-116000000D02*
X181000000Y-116000000D01*
%TO.C,C6*%
X135481917Y-35743372D02*
X135941917Y-34946628D01*
X135941917Y-34946628D02*
X137518083Y-35856628D01*
X137058083Y-36653372D02*
X135481917Y-35743372D01*
X137518083Y-35856628D02*
X137058083Y-36653372D01*
%TO.C,C79*%
X22090000Y-73040000D02*
X23910000Y-73040000D01*
X22090000Y-73960000D02*
X22090000Y-73040000D01*
X23910000Y-73040000D02*
X23910000Y-73960000D01*
X23910000Y-73960000D02*
X22090000Y-73960000D01*
%TO.C,D55*%
X97000000Y-71000000D02*
X99000000Y-71000000D01*
X97000000Y-73000000D02*
X97000000Y-71000000D01*
X99000000Y-71000000D02*
X99000000Y-73000000D01*
X99000000Y-73000000D02*
X97000000Y-73000000D01*
%TO.C,C44*%
X98981917Y-129806628D02*
X100558083Y-128896628D01*
X99441917Y-130603372D02*
X98981917Y-129806628D01*
X100558083Y-128896628D02*
X101018083Y-129693372D01*
X101018083Y-129693372D02*
X99441917Y-130603372D01*
%TO.C,C10*%
X146040000Y-47120000D02*
X146960000Y-47120000D01*
X146040000Y-48940000D02*
X146040000Y-47120000D01*
X146960000Y-47120000D02*
X146960000Y-48940000D01*
X146960000Y-48940000D02*
X146040000Y-48940000D01*
%TO.C,C29*%
X175336628Y-116374650D02*
X176133372Y-115914650D01*
X176133372Y-115914650D02*
X177043372Y-117490816D01*
X176246628Y-117950816D02*
X175336628Y-116374650D01*
X177043372Y-117490816D02*
X176246628Y-117950816D01*
%TO.C,D38*%
X113428204Y-119133975D02*
X115160254Y-118133975D01*
X114428204Y-120866025D02*
X113428204Y-119133975D01*
X115160254Y-118133975D02*
X116160254Y-119866025D01*
X116160254Y-119866025D02*
X114428204Y-120866025D01*
%TO.C,C76*%
X30040000Y-62150000D02*
X30960000Y-62150000D01*
X30040000Y-63970000D02*
X30040000Y-62150000D01*
X30960000Y-62150000D02*
X30960000Y-63970000D01*
X30960000Y-63970000D02*
X30040000Y-63970000D01*
%TO.C,C75*%
X34346628Y-64058083D02*
X35256628Y-62481917D01*
X35143372Y-64518083D02*
X34346628Y-64058083D01*
X35256628Y-62481917D02*
X36053372Y-62941917D01*
X36053372Y-62941917D02*
X35143372Y-64518083D01*
%TO.C,C40*%
X105040000Y-114150000D02*
X105960000Y-114150000D01*
X105040000Y-115970000D02*
X105040000Y-114150000D01*
X105960000Y-114150000D02*
X105960000Y-115970000D01*
X105960000Y-115970000D02*
X105040000Y-115970000D01*
%TO.C,C62*%
X75981917Y-33306628D02*
X77558083Y-32396628D01*
X76441917Y-34103372D02*
X75981917Y-33306628D01*
X77558083Y-32396628D02*
X78018083Y-33193372D01*
X78018083Y-33193372D02*
X76441917Y-34103372D01*
%TO.C,C83*%
X36946628Y-78509184D02*
X37743372Y-78049184D01*
X37743372Y-78049184D02*
X38653372Y-79625350D01*
X37856628Y-80085350D02*
X36946628Y-78509184D01*
X38653372Y-79625350D02*
X37856628Y-80085350D01*
%TO.C,D75*%
X35133975Y-64571796D02*
X36133975Y-62839746D01*
X36133975Y-62839746D02*
X37866025Y-63839746D01*
X36866025Y-65571796D02*
X35133975Y-64571796D01*
X37866025Y-63839746D02*
X36866025Y-65571796D01*
%TO.C,D66*%
X60839746Y-34866025D02*
X61839746Y-33133975D01*
X61839746Y-33133975D02*
X63571796Y-34133975D01*
X62571796Y-35866025D02*
X60839746Y-34866025D01*
X63571796Y-34133975D02*
X62571796Y-35866025D01*
%TO.C,C90*%
X22481917Y-120743372D02*
X22941917Y-119946628D01*
X22941917Y-119946628D02*
X24518083Y-120856628D01*
X24058083Y-121653372D02*
X22481917Y-120743372D01*
X24518083Y-120856628D02*
X24058083Y-121653372D01*
%TO.C,C88*%
X30040000Y-114150000D02*
X30960000Y-114150000D01*
X30040000Y-115970000D02*
X30040000Y-114150000D01*
X30960000Y-114150000D02*
X30960000Y-115970000D01*
X30960000Y-115970000D02*
X30040000Y-115970000D01*
%TO.C,D30*%
X172839746Y-119866025D02*
X173839746Y-118133975D01*
X173839746Y-118133975D02*
X175571796Y-119133975D01*
X174571796Y-120866025D02*
X172839746Y-119866025D01*
X175571796Y-119133975D02*
X174571796Y-120866025D01*
%TO.C,C60*%
X114531917Y-75193372D02*
X114991917Y-74396628D01*
X114991917Y-74396628D02*
X116568083Y-75306628D01*
X116108083Y-76103372D02*
X114531917Y-75193372D01*
X116568083Y-75306628D02*
X116108083Y-76103372D01*
%TO.C,D56*%
X97839746Y-76133975D02*
X99571796Y-75133975D01*
X98839746Y-77866025D02*
X97839746Y-76133975D01*
X99571796Y-75133975D02*
X100571796Y-76866025D01*
X100571796Y-76866025D02*
X98839746Y-77866025D01*
%TO.C,D26*%
X188428204Y-119133975D02*
X190160254Y-118133975D01*
X189428204Y-120866025D02*
X188428204Y-119133975D01*
X190160254Y-118133975D02*
X191160254Y-119866025D01*
X191160254Y-119866025D02*
X189428204Y-120866025D01*
%TO.C,D44*%
X97839746Y-128133975D02*
X99571796Y-127133975D01*
X98839746Y-129866025D02*
X97839746Y-128133975D01*
X99571796Y-127133975D02*
X100571796Y-128866025D01*
X100571796Y-128866025D02*
X98839746Y-129866025D01*
%TO.C,D90*%
X22839746Y-119866025D02*
X23839746Y-118133975D01*
X23839746Y-118133975D02*
X25571796Y-119133975D01*
X24571796Y-120866025D02*
X22839746Y-119866025D01*
X25571796Y-119133975D02*
X24571796Y-120866025D01*
%TO.C,C48*%
X114531917Y-127193372D02*
X114991917Y-126396628D01*
X114991917Y-126396628D02*
X116568083Y-127306628D01*
X116108083Y-128103372D02*
X114531917Y-127193372D01*
X116568083Y-127306628D02*
X116108083Y-128103372D01*
%TO.C,D61*%
X78000000Y-38000000D02*
X80000000Y-38000000D01*
X78000000Y-40000000D02*
X78000000Y-38000000D01*
X80000000Y-38000000D02*
X80000000Y-40000000D01*
X80000000Y-40000000D02*
X78000000Y-40000000D01*
%TO.C,D2*%
X151428204Y-34133975D02*
X153160254Y-33133975D01*
X152428204Y-35866025D02*
X151428204Y-34133975D01*
X153160254Y-33133975D02*
X154160254Y-34866025D01*
X154160254Y-34866025D02*
X152428204Y-35866025D01*
%TO.C,D87*%
X35133975Y-116571796D02*
X36133975Y-114839746D01*
X36133975Y-114839746D02*
X37866025Y-115839746D01*
X36866025Y-117571796D02*
X35133975Y-116571796D01*
X37866025Y-115839746D02*
X36866025Y-117571796D01*
%TO.C,D60*%
X113428204Y-76866025D02*
X114428204Y-75133975D01*
X114428204Y-75133975D02*
X116160254Y-76133975D01*
X115160254Y-77866025D02*
X113428204Y-76866025D01*
X116160254Y-76133975D02*
X115160254Y-77866025D01*
%TO.C,D20*%
X172839746Y-76133975D02*
X174571796Y-75133975D01*
X173839746Y-77866025D02*
X172839746Y-76133975D01*
X174571796Y-75133975D02*
X175571796Y-76866025D01*
X175571796Y-76866025D02*
X173839746Y-77866025D01*
%TO.C,C1*%
X153090000Y-37070000D02*
X154910000Y-37070000D01*
X153090000Y-37990000D02*
X153090000Y-37070000D01*
X154910000Y-37070000D02*
X154910000Y-37990000D01*
X154910000Y-37990000D02*
X153090000Y-37990000D01*
%TO.C,C2*%
X150981917Y-33306628D02*
X152558083Y-32396628D01*
X151441917Y-34103372D02*
X150981917Y-33306628D01*
X152558083Y-32396628D02*
X153018083Y-33193372D01*
X153018083Y-33193372D02*
X151441917Y-34103372D01*
%TO.C,C82*%
X33040000Y-80120000D02*
X33960000Y-80120000D01*
X33040000Y-81940000D02*
X33040000Y-80120000D01*
X33960000Y-80120000D02*
X33960000Y-81940000D01*
X33960000Y-81940000D02*
X33040000Y-81940000D01*
%TO.C,D97*%
X93500000Y-34000000D02*
X95500000Y-34000000D01*
X93500000Y-36000000D02*
X93500000Y-34000000D01*
X95500000Y-34000000D02*
X95500000Y-36000000D01*
X95500000Y-36000000D02*
X93500000Y-36000000D01*
%TO.C,D5*%
X139133975Y-30839746D02*
X140866025Y-29839746D01*
X140133975Y-32571796D02*
X139133975Y-30839746D01*
X140866025Y-29839746D02*
X141866025Y-31571796D01*
X141866025Y-31571796D02*
X140133975Y-32571796D01*
%TO.C,D41*%
X101133975Y-115839746D02*
X102866025Y-114839746D01*
X102133975Y-117571796D02*
X101133975Y-115839746D01*
X102866025Y-114839746D02*
X103866025Y-116571796D01*
X103866025Y-116571796D02*
X102133975Y-117571796D01*
%TO.C,C54*%
X97481917Y-68743372D02*
X97941917Y-67946628D01*
X97941917Y-67946628D02*
X99518083Y-68856628D01*
X99058083Y-69653372D02*
X97481917Y-68743372D01*
X99518083Y-68856628D02*
X99058083Y-69653372D01*
%TO.C,D84*%
X38428204Y-76866025D02*
X39428204Y-75133975D01*
X39428204Y-75133975D02*
X41160254Y-76133975D01*
X40160254Y-77866025D02*
X38428204Y-76866025D01*
X41160254Y-76133975D02*
X40160254Y-77866025D01*
%TO.C,C28*%
X180040000Y-114150000D02*
X180960000Y-114150000D01*
X180040000Y-115970000D02*
X180040000Y-114150000D01*
X180960000Y-114150000D02*
X180960000Y-115970000D01*
X180960000Y-115970000D02*
X180040000Y-115970000D01*
%TO.C,D52*%
X106000000Y-62000000D02*
X108000000Y-62000000D01*
X106000000Y-64000000D02*
X106000000Y-62000000D01*
X108000000Y-62000000D02*
X108000000Y-64000000D01*
X108000000Y-64000000D02*
X106000000Y-64000000D01*
%TO.C,D24*%
X188428204Y-76866025D02*
X189428204Y-75133975D01*
X189428204Y-75133975D02*
X191160254Y-76133975D01*
X190160254Y-77866025D02*
X188428204Y-76866025D01*
X191160254Y-76133975D02*
X190160254Y-77866025D01*
%TO.C,C58*%
X108040000Y-80120000D02*
X108960000Y-80120000D01*
X108040000Y-81940000D02*
X108040000Y-80120000D01*
X108960000Y-80120000D02*
X108960000Y-81940000D01*
X108960000Y-81940000D02*
X108040000Y-81940000D01*
%TO.C,D91*%
X22000000Y-123000000D02*
X24000000Y-123000000D01*
X22000000Y-125000000D02*
X22000000Y-123000000D01*
X24000000Y-123000000D02*
X24000000Y-125000000D01*
X24000000Y-125000000D02*
X22000000Y-125000000D01*
%TO.C,C94*%
X33040000Y-132120000D02*
X33960000Y-132120000D01*
X33040000Y-133940000D02*
X33040000Y-132120000D01*
X33960000Y-132120000D02*
X33960000Y-133940000D01*
X33960000Y-133940000D02*
X33040000Y-133940000D01*
%TO.C,R1*%
X93530000Y-32080000D02*
X94470000Y-32080000D01*
X93530000Y-33940000D02*
X93530000Y-32080000D01*
X94470000Y-32080000D02*
X94470000Y-33940000D01*
X94470000Y-33940000D02*
X93530000Y-33940000D01*
%TO.C,C12*%
X152531917Y-42193372D02*
X152991917Y-41396628D01*
X152991917Y-41396628D02*
X154568083Y-42306628D01*
X154108083Y-43103372D02*
X152531917Y-42193372D01*
X154568083Y-42306628D02*
X154108083Y-43103372D01*
%TO.C,D9*%
X139133975Y-47160254D02*
X140133975Y-45428204D01*
X140133975Y-45428204D02*
X141866025Y-46428204D01*
X140866025Y-48160254D02*
X139133975Y-47160254D01*
X141866025Y-46428204D02*
X140866025Y-48160254D01*
%TO.C,C37*%
X115090000Y-122070000D02*
X116910000Y-122070000D01*
X115090000Y-122990000D02*
X115090000Y-122070000D01*
X116910000Y-122070000D02*
X116910000Y-122990000D01*
X116910000Y-122990000D02*
X115090000Y-122990000D01*
%TO.C,C15*%
X184346628Y-64058083D02*
X185256628Y-62481917D01*
X185143372Y-64518083D02*
X184346628Y-64058083D01*
X185256628Y-62481917D02*
X186053372Y-62941917D01*
X186053372Y-62941917D02*
X185143372Y-64518083D01*
%TO.C,C30*%
X172481917Y-120743372D02*
X172941917Y-119946628D01*
X172941917Y-119946628D02*
X174518083Y-120856628D01*
X174058083Y-121653372D02*
X172481917Y-120743372D01*
X174518083Y-120856628D02*
X174058083Y-121653372D01*
%TO.C,C24*%
X189531917Y-75193372D02*
X189991917Y-74396628D01*
X189991917Y-74396628D02*
X191568083Y-75306628D01*
X191108083Y-76103372D02*
X189531917Y-75193372D01*
X191568083Y-75306628D02*
X191108083Y-76103372D01*
%TO.C,D47*%
X110133975Y-131428204D02*
X111866025Y-130428204D01*
X111133975Y-133160254D02*
X110133975Y-131428204D01*
X111866025Y-130428204D02*
X112866025Y-132160254D01*
X112866025Y-132160254D02*
X111133975Y-133160254D01*
%TO.C,D79*%
X22000000Y-71000000D02*
X24000000Y-71000000D01*
X22000000Y-73000000D02*
X22000000Y-71000000D01*
X24000000Y-71000000D02*
X24000000Y-73000000D01*
X24000000Y-73000000D02*
X22000000Y-73000000D01*
%TO.C,D36*%
X188428204Y-128866025D02*
X189428204Y-127133975D01*
X189428204Y-127133975D02*
X191160254Y-128133975D01*
X190160254Y-129866025D02*
X188428204Y-128866025D01*
X191160254Y-128133975D02*
X190160254Y-129866025D01*
%TO.C,D27*%
X185133975Y-116571796D02*
X186133975Y-114839746D01*
X186133975Y-114839746D02*
X187866025Y-115839746D01*
X186866025Y-117571796D02*
X185133975Y-116571796D01*
X187866025Y-115839746D02*
X186866025Y-117571796D01*
%TO.C,D76*%
X31000000Y-62000000D02*
X33000000Y-62000000D01*
X31000000Y-64000000D02*
X31000000Y-62000000D01*
X33000000Y-62000000D02*
X33000000Y-64000000D01*
X33000000Y-64000000D02*
X31000000Y-64000000D01*
%TO.C,C91*%
X22090000Y-125040000D02*
X23910000Y-125040000D01*
X22090000Y-125960000D02*
X22090000Y-125040000D01*
X23910000Y-125040000D02*
X23910000Y-125960000D01*
X23910000Y-125960000D02*
X22090000Y-125960000D01*
%TO.C,D40*%
X106000000Y-114000000D02*
X108000000Y-114000000D01*
X106000000Y-116000000D02*
X106000000Y-114000000D01*
X108000000Y-114000000D02*
X108000000Y-116000000D01*
X108000000Y-116000000D02*
X106000000Y-116000000D01*
%TO.C,C22*%
X183040000Y-80120000D02*
X183960000Y-80120000D01*
X183040000Y-81940000D02*
X183040000Y-80120000D01*
X183960000Y-80120000D02*
X183960000Y-81940000D01*
X183960000Y-81940000D02*
X183040000Y-81940000D01*
%TO.C,C77*%
X25336628Y-64374650D02*
X26133372Y-63914650D01*
X26133372Y-63914650D02*
X27043372Y-65490816D01*
X26246628Y-65950816D02*
X25336628Y-64374650D01*
X27043372Y-65490816D02*
X26246628Y-65950816D01*
%TO.C,C23*%
X186946628Y-78509184D02*
X187743372Y-78049184D01*
X187743372Y-78049184D02*
X188653372Y-79625350D01*
X187856628Y-80085350D02*
X186946628Y-78509184D01*
X188653372Y-79625350D02*
X187856628Y-80085350D01*
%TO.C,C71*%
X74946628Y-45509184D02*
X75743372Y-45049184D01*
X75743372Y-45049184D02*
X76653372Y-46625350D01*
X75856628Y-47085350D02*
X74946628Y-45509184D01*
X76653372Y-46625350D02*
X75856628Y-47085350D01*
%TO.C,D98*%
X118500000Y-34000000D02*
X120500000Y-34000000D01*
X118500000Y-36000000D02*
X118500000Y-34000000D01*
X120500000Y-34000000D02*
X120500000Y-36000000D01*
X120500000Y-36000000D02*
X118500000Y-36000000D01*
%TO.C,D63*%
X73133975Y-31571796D02*
X74133975Y-29839746D01*
X74133975Y-29839746D02*
X75866025Y-30839746D01*
X74866025Y-32571796D02*
X73133975Y-31571796D01*
X75866025Y-30839746D02*
X74866025Y-32571796D01*
%TO.C,D3*%
X148133975Y-31571796D02*
X149133975Y-29839746D01*
X149133975Y-29839746D02*
X150866025Y-30839746D01*
X149866025Y-32571796D02*
X148133975Y-31571796D01*
X150866025Y-30839746D02*
X149866025Y-32571796D01*
%TO.C,D32*%
X172839746Y-128133975D02*
X174571796Y-127133975D01*
X173839746Y-129866025D02*
X172839746Y-128133975D01*
X174571796Y-127133975D02*
X175571796Y-128866025D01*
X175571796Y-128866025D02*
X173839746Y-129866025D01*
%TO.C,C92*%
X23981917Y-129806628D02*
X25558083Y-128896628D01*
X24441917Y-130603372D02*
X23981917Y-129806628D01*
X25558083Y-128896628D02*
X26018083Y-129693372D01*
X26018083Y-129693372D02*
X24441917Y-130603372D01*
%TO.C,C96*%
X39531917Y-127193372D02*
X39991917Y-126396628D01*
X39991917Y-126396628D02*
X41568083Y-127306628D01*
X41108083Y-128103372D02*
X39531917Y-127193372D01*
X41568083Y-127306628D02*
X41108083Y-128103372D01*
%TO.C,D80*%
X22839746Y-76133975D02*
X24571796Y-75133975D01*
X23839746Y-77866025D02*
X22839746Y-76133975D01*
X24571796Y-75133975D02*
X25571796Y-76866025D01*
X25571796Y-76866025D02*
X23839746Y-77866025D01*
%TO.C,C70*%
X71040000Y-47120000D02*
X71960000Y-47120000D01*
X71040000Y-48940000D02*
X71040000Y-47120000D01*
X71960000Y-47120000D02*
X71960000Y-48940000D01*
X71960000Y-48940000D02*
X71040000Y-48940000D01*
%TO.C,D93*%
X26133975Y-132160254D02*
X27133975Y-130428204D01*
X27133975Y-130428204D02*
X28866025Y-131428204D01*
X27866025Y-133160254D02*
X26133975Y-132160254D01*
X28866025Y-131428204D02*
X27866025Y-133160254D01*
%TO.C,C85*%
X40090000Y-122070000D02*
X41910000Y-122070000D01*
X40090000Y-122990000D02*
X40090000Y-122070000D01*
X41910000Y-122070000D02*
X41910000Y-122990000D01*
X41910000Y-122990000D02*
X40090000Y-122990000D01*
%TO.C,C68*%
X61981917Y-44806628D02*
X63558083Y-43896628D01*
X62441917Y-45603372D02*
X61981917Y-44806628D01*
X63558083Y-43896628D02*
X64018083Y-44693372D01*
X64018083Y-44693372D02*
X62441917Y-45603372D01*
%TO.C,D89*%
X26133975Y-115839746D02*
X27866025Y-114839746D01*
X27133975Y-117571796D02*
X26133975Y-115839746D01*
X27866025Y-114839746D02*
X28866025Y-116571796D01*
X28866025Y-116571796D02*
X27133975Y-117571796D01*
%TO.C,C41*%
X100336628Y-116374650D02*
X101133372Y-115914650D01*
X101133372Y-115914650D02*
X102043372Y-117490816D01*
X101246628Y-117950816D02*
X100336628Y-116374650D01*
X102043372Y-117490816D02*
X101246628Y-117950816D01*
%TO.C,C45*%
X102946628Y-133058083D02*
X103856628Y-131481917D01*
X103743372Y-133518083D02*
X102946628Y-133058083D01*
X103856628Y-131481917D02*
X104653372Y-131941917D01*
X104653372Y-131941917D02*
X103743372Y-133518083D01*
%TO.C,D14*%
X188428204Y-67133975D02*
X190160254Y-66133975D01*
X189428204Y-68866025D02*
X188428204Y-67133975D01*
X190160254Y-66133975D02*
X191160254Y-67866025D01*
X191160254Y-67866025D02*
X189428204Y-68866025D01*
%TO.C,C50*%
X112981917Y-66306628D02*
X114558083Y-65396628D01*
X113441917Y-67103372D02*
X112981917Y-66306628D01*
X114558083Y-65396628D02*
X115018083Y-66193372D01*
X115018083Y-66193372D02*
X113441917Y-67103372D01*
%TO.C,D62*%
X76428204Y-34133975D02*
X78160254Y-33133975D01*
X77428204Y-35866025D02*
X76428204Y-34133975D01*
X78160254Y-33133975D02*
X79160254Y-34866025D01*
X79160254Y-34866025D02*
X77428204Y-35866025D01*
%TO.C,D33*%
X176133975Y-132160254D02*
X177133975Y-130428204D01*
X177133975Y-130428204D02*
X178866025Y-131428204D01*
X177866025Y-133160254D02*
X176133975Y-132160254D01*
X178866025Y-131428204D02*
X177866025Y-133160254D01*
%TO.C,C33*%
X177946628Y-133058083D02*
X178856628Y-131481917D01*
X178743372Y-133518083D02*
X177946628Y-133058083D01*
X178856628Y-131481917D02*
X179653372Y-131941917D01*
X179653372Y-131941917D02*
X178743372Y-133518083D01*
%TO.C,D43*%
X97000000Y-123000000D02*
X99000000Y-123000000D01*
X97000000Y-125000000D02*
X97000000Y-123000000D01*
X99000000Y-123000000D02*
X99000000Y-125000000D01*
X99000000Y-125000000D02*
X97000000Y-125000000D01*
%TO.C,C98*%
X117540000Y-34090000D02*
X118460000Y-34090000D01*
X117540000Y-35910000D02*
X117540000Y-34090000D01*
X118460000Y-34090000D02*
X118460000Y-35910000D01*
X118460000Y-35910000D02*
X117540000Y-35910000D01*
%TO.C,C67*%
X60090000Y-40040000D02*
X61910000Y-40040000D01*
X60090000Y-40960000D02*
X60090000Y-40040000D01*
X61910000Y-40040000D02*
X61910000Y-40960000D01*
X61910000Y-40960000D02*
X60090000Y-40960000D01*
%TO.C,C3*%
X147346628Y-31058083D02*
X148256628Y-29481917D01*
X148143372Y-31518083D02*
X147346628Y-31058083D01*
X148256628Y-29481917D02*
X149053372Y-29941917D01*
X149053372Y-29941917D02*
X148143372Y-31518083D01*
%TO.C,C14*%
X187981917Y-66306628D02*
X189558083Y-65396628D01*
X188441917Y-67103372D02*
X187981917Y-66306628D01*
X189558083Y-65396628D02*
X190018083Y-66193372D01*
X190018083Y-66193372D02*
X188441917Y-67103372D01*
%TO.C,C35*%
X186946628Y-130509184D02*
X187743372Y-130049184D01*
X187743372Y-130049184D02*
X188653372Y-131625350D01*
X187856628Y-132085350D02*
X186946628Y-130509184D01*
X188653372Y-131625350D02*
X187856628Y-132085350D01*
%TO.C,C57*%
X102946628Y-81058083D02*
X103856628Y-79481917D01*
X103743372Y-81518083D02*
X102946628Y-81058083D01*
X103856628Y-79481917D02*
X104653372Y-79941917D01*
X104653372Y-79941917D02*
X103743372Y-81518083D01*
%TO.C,C46*%
X108040000Y-132120000D02*
X108960000Y-132120000D01*
X108040000Y-133940000D02*
X108040000Y-132120000D01*
X108960000Y-132120000D02*
X108960000Y-133940000D01*
X108960000Y-133940000D02*
X108040000Y-133940000D01*
%TO.C,C81*%
X27946628Y-81058083D02*
X28856628Y-79481917D01*
X28743372Y-81518083D02*
X27946628Y-81058083D01*
X28856628Y-79481917D02*
X29653372Y-79941917D01*
X29653372Y-79941917D02*
X28743372Y-81518083D01*
%TO.C,C56*%
X98981917Y-77806628D02*
X100558083Y-76896628D01*
X99441917Y-78603372D02*
X98981917Y-77806628D01*
X100558083Y-76896628D02*
X101018083Y-77693372D01*
X101018083Y-77693372D02*
X99441917Y-78603372D01*
%TO.C,C63*%
X72346628Y-31058083D02*
X73256628Y-29481917D01*
X73143372Y-31518083D02*
X72346628Y-31058083D01*
X73256628Y-29481917D02*
X74053372Y-29941917D01*
X74053372Y-29941917D02*
X73143372Y-31518083D01*
%TO.C,D96*%
X38428204Y-128866025D02*
X39428204Y-127133975D01*
X39428204Y-127133975D02*
X41160254Y-128133975D01*
X40160254Y-129866025D02*
X38428204Y-128866025D01*
X41160254Y-128133975D02*
X40160254Y-129866025D01*
%TO.C,U2*%
X133650000Y-60600000D02*
G75*
G02*
X128950000Y-60600000I-2350000J0D01*
G01*
X128950000Y-60600000D02*
G75*
G02*
X133650000Y-60600000I2350000J0D01*
G01*
X133650000Y-112600000D02*
G75*
G02*
X128950000Y-112600000I-2350000J0D01*
G01*
X128950000Y-112600000D02*
G75*
G02*
X133650000Y-112600000I2350000J0D01*
G01*
X163650000Y-60600000D02*
G75*
G02*
X158950000Y-60600000I-2350000J0D01*
G01*
X158950000Y-60600000D02*
G75*
G02*
X163650000Y-60600000I2350000J0D01*
G01*
X163650000Y-112600000D02*
G75*
G02*
X158950000Y-112600000I-2350000J0D01*
G01*
X158950000Y-112600000D02*
G75*
G02*
X163650000Y-112600000I2350000J0D01*
G01*
%TO.C,D81*%
X26133975Y-80160254D02*
X27133975Y-78428204D01*
X27133975Y-78428204D02*
X28866025Y-79428204D01*
X27866025Y-81160254D02*
X26133975Y-80160254D01*
X28866025Y-79428204D02*
X27866025Y-81160254D01*
%TO.C,C34*%
X183040000Y-132120000D02*
X183960000Y-132120000D01*
X183040000Y-133940000D02*
X183040000Y-132120000D01*
X183960000Y-132120000D02*
X183960000Y-133940000D01*
X183960000Y-133940000D02*
X183040000Y-133940000D01*
%TO.C,D57*%
X101133975Y-80160254D02*
X102133975Y-78428204D01*
X102133975Y-78428204D02*
X103866025Y-79428204D01*
X102866025Y-81160254D02*
X101133975Y-80160254D01*
X103866025Y-79428204D02*
X102866025Y-81160254D01*
%TO.C,C84*%
X39531917Y-75193372D02*
X39991917Y-74396628D01*
X39991917Y-74396628D02*
X41568083Y-75306628D01*
X41108083Y-76103372D02*
X39531917Y-75193372D01*
X41568083Y-75306628D02*
X41108083Y-76103372D01*
%TO.C,C89*%
X25336628Y-116374650D02*
X26133372Y-115914650D01*
X26133372Y-115914650D02*
X27043372Y-117490816D01*
X26246628Y-117950816D02*
X25336628Y-116374650D01*
X27043372Y-117490816D02*
X26246628Y-117950816D01*
%TO.C,D29*%
X176133975Y-115839746D02*
X177866025Y-114839746D01*
X177133975Y-117571796D02*
X176133975Y-115839746D01*
X177866025Y-114839746D02*
X178866025Y-116571796D01*
X178866025Y-116571796D02*
X177133975Y-117571796D01*
%TO.C,FID3*%
X25750000Y-135000000D02*
G75*
G02*
X24250000Y-135000000I-750000J0D01*
G01*
X24250000Y-135000000D02*
G75*
G02*
X25750000Y-135000000I750000J0D01*
G01*
%TO.C,C47*%
X111946628Y-130509184D02*
X112743372Y-130049184D01*
X112743372Y-130049184D02*
X113653372Y-131625350D01*
X112856628Y-132085350D02*
X111946628Y-130509184D01*
X113653372Y-131625350D02*
X112856628Y-132085350D01*
%TO.C,D69*%
X64133975Y-47160254D02*
X65133975Y-45428204D01*
X65133975Y-45428204D02*
X66866025Y-46428204D01*
X65866025Y-48160254D02*
X64133975Y-47160254D01*
X66866025Y-46428204D02*
X65866025Y-48160254D01*
%TO.C,C64*%
X68040000Y-29150000D02*
X68960000Y-29150000D01*
X68040000Y-30970000D02*
X68040000Y-29150000D01*
X68960000Y-29150000D02*
X68960000Y-30970000D01*
X68960000Y-30970000D02*
X68040000Y-30970000D01*
%TO.C,C69*%
X65946628Y-48058083D02*
X66856628Y-46481917D01*
X66743372Y-48518083D02*
X65946628Y-48058083D01*
X66856628Y-46481917D02*
X67653372Y-46941917D01*
X67653372Y-46941917D02*
X66743372Y-48518083D01*
%TO.C,C53*%
X100336628Y-64374650D02*
X101133372Y-63914650D01*
X101133372Y-63914650D02*
X102043372Y-65490816D01*
X101246628Y-65950816D02*
X100336628Y-64374650D01*
X102043372Y-65490816D02*
X101246628Y-65950816D01*
%TO.C,D68*%
X60839746Y-43133975D02*
X62571796Y-42133975D01*
X61839746Y-44866025D02*
X60839746Y-43133975D01*
X62571796Y-42133975D02*
X63571796Y-43866025D01*
X63571796Y-43866025D02*
X61839746Y-44866025D01*
%TD*%
M02*
