%TF.GenerationSoftware,KiCad,Pcbnew,8.0.4+1*%
%TF.CreationDate,2024-10-09T09:07:16+00:00*%
%TF.ProjectId,pedalboard-display,70656461-6c62-46f6-9172-642d64697370,0.0.0-RC1*%
%TF.SameCoordinates,Original*%
%TF.FileFunction,Soldermask,Top*%
%TF.FilePolarity,Negative*%
%FSLAX46Y46*%
G04 Gerber Fmt 4.6, Leading zero omitted, Abs format (unit mm)*
G04 Created by KiCad (PCBNEW 8.0.4+1) date 2024-10-09 09:07:16*
%MOMM*%
%LPD*%
G01*
G04 APERTURE LIST*
G04 Aperture macros list*
%AMRoundRect*
0 Rectangle with rounded corners*
0 $1 Rounding radius*
0 $2 $3 $4 $5 $6 $7 $8 $9 X,Y pos of 4 corners*
0 Add a 4 corners polygon primitive as box body*
4,1,4,$2,$3,$4,$5,$6,$7,$8,$9,$2,$3,0*
0 Add four circle primitives for the rounded corners*
1,1,$1+$1,$2,$3*
1,1,$1+$1,$4,$5*
1,1,$1+$1,$6,$7*
1,1,$1+$1,$8,$9*
0 Add four rect primitives between the rounded corners*
20,1,$1+$1,$2,$3,$4,$5,0*
20,1,$1+$1,$4,$5,$6,$7,0*
20,1,$1+$1,$6,$7,$8,$9,0*
20,1,$1+$1,$8,$9,$2,$3,0*%
%AMRotRect*
0 Rectangle, with rotation*
0 The origin of the aperture is its center*
0 $1 length*
0 $2 width*
0 $3 Rotation angle, in degrees counterclockwise*
0 Add horizontal line*
21,1,$1,$2,0,0,$3*%
G04 Aperture macros list end*
%ADD10C,2.000000*%
%ADD11RoundRect,0.140000X-0.217224X0.036244X-0.077224X-0.206244X0.217224X-0.036244X0.077224X0.206244X0*%
%ADD12RoundRect,0.140000X0.140000X0.170000X-0.140000X0.170000X-0.140000X-0.170000X0.140000X-0.170000X0*%
%ADD13RotRect,0.500000X0.500000X120.000000*%
%ADD14R,0.500000X0.500000*%
%ADD15RoundRect,0.140000X-0.170000X0.140000X-0.170000X-0.140000X0.170000X-0.140000X0.170000X0.140000X0*%
%ADD16RoundRect,0.140000X-0.036244X-0.217224X0.206244X-0.077224X0.036244X0.217224X-0.206244X0.077224X0*%
%ADD17RotRect,0.500000X0.500000X150.000000*%
%ADD18RotRect,0.500000X0.500000X210.000000*%
%ADD19RotRect,0.500000X0.500000X330.000000*%
%ADD20RotRect,0.500000X0.500000X240.000000*%
%ADD21RoundRect,0.140000X-0.140000X-0.170000X0.140000X-0.170000X0.140000X0.170000X-0.140000X0.170000X0*%
%ADD22RoundRect,0.140000X-0.206244X-0.077224X0.036244X-0.217224X0.206244X0.077224X-0.036244X0.217224X0*%
%ADD23RotRect,0.500000X0.500000X30.000000*%
%ADD24RoundRect,0.140000X0.036244X0.217224X-0.206244X0.077224X-0.036244X-0.217224X0.206244X-0.077224X0*%
%ADD25C,2.500000*%
%ADD26RotRect,0.500000X0.500000X300.000000*%
%ADD27RoundRect,0.140000X0.217224X-0.036244X0.077224X0.206244X-0.217224X0.036244X-0.077224X-0.206244X0*%
%ADD28RoundRect,0.140000X-0.077224X0.206244X-0.217224X-0.036244X0.077224X-0.206244X0.217224X0.036244X0*%
%ADD29RotRect,0.500000X0.500000X60.000000*%
%ADD30RoundRect,0.140000X0.206244X0.077224X-0.036244X0.217224X-0.206244X-0.077224X0.036244X-0.217224X0*%
%ADD31RoundRect,0.140000X0.077224X-0.206244X0.217224X0.036244X-0.077224X0.206244X-0.217224X-0.036244X0*%
%ADD32C,3.400000*%
%ADD33RoundRect,0.140000X0.170000X-0.140000X0.170000X0.140000X-0.170000X0.140000X-0.170000X-0.140000X0*%
%ADD34RoundRect,0.135000X-0.185000X0.135000X-0.185000X-0.135000X0.185000X-0.135000X0.185000X0.135000X0*%
G04 APERTURE END LIST*
D10*
%TO.C,FID2*%
X188500000Y-26500000D03*
%TD*%
D11*
%TO.C,C65*%
X63950000Y-31517041D03*
X64430000Y-32348425D03*
%TD*%
D12*
%TO.C,C49*%
X116480000Y-70530000D03*
X115520000Y-70530000D03*
%TD*%
D13*
%TO.C,D35*%
X186335289Y-132408940D03*
X187114711Y-131958940D03*
X186664711Y-131179518D03*
X185885289Y-131629518D03*
%TD*%
%TO.C,D83*%
X36335289Y-80408940D03*
X37114711Y-79958940D03*
X36664711Y-79179518D03*
X35885289Y-79629518D03*
%TD*%
D14*
%TO.C,D34*%
X181550000Y-133450000D03*
X182450000Y-133450000D03*
X182450000Y-132550000D03*
X181550000Y-132550000D03*
%TD*%
D13*
%TO.C,D11*%
X149335289Y-47408940D03*
X150114711Y-46958940D03*
X149664711Y-46179518D03*
X148885289Y-46629518D03*
%TD*%
D14*
%TO.C,D49*%
X116450000Y-72450000D03*
X116450000Y-71550000D03*
X115550000Y-71550000D03*
X115550000Y-72450000D03*
%TD*%
D15*
%TO.C,C4*%
X143500000Y-29580000D03*
X143500000Y-30540000D03*
%TD*%
D16*
%TO.C,C80*%
X24584308Y-77990000D03*
X25415692Y-77510000D03*
%TD*%
D13*
%TO.C,D59*%
X111335289Y-80408940D03*
X112114711Y-79958940D03*
X111664711Y-79179518D03*
X110885289Y-79629518D03*
%TD*%
D16*
%TO.C,C32*%
X174584308Y-129990000D03*
X175415692Y-129510000D03*
%TD*%
D14*
%TO.C,D73*%
X41450000Y-72450000D03*
X41450000Y-71550000D03*
X40550000Y-71550000D03*
X40550000Y-72450000D03*
%TD*%
D11*
%TO.C,C5*%
X138950000Y-31517041D03*
X139430000Y-32348425D03*
%TD*%
D12*
%TO.C,C13*%
X191480000Y-70530000D03*
X190520000Y-70530000D03*
%TD*%
D17*
%TO.C,D48*%
X114958940Y-129114711D03*
X115408940Y-128335289D03*
X114629518Y-127885289D03*
X114179518Y-128664711D03*
%TD*%
D18*
%TO.C,D86*%
X40408940Y-119664711D03*
X39958940Y-118885289D03*
X39179518Y-119335289D03*
X39629518Y-120114711D03*
%TD*%
D14*
%TO.C,D64*%
X70450000Y-29550000D03*
X69550000Y-29550000D03*
X69550000Y-30450000D03*
X70450000Y-30450000D03*
%TD*%
D19*
%TO.C,D54*%
X99041060Y-66885289D03*
X98591060Y-67664711D03*
X99370482Y-68114711D03*
X99820482Y-67335289D03*
%TD*%
D14*
%TO.C,D37*%
X116450000Y-124450000D03*
X116450000Y-123550000D03*
X115550000Y-123550000D03*
X115550000Y-124450000D03*
%TD*%
%TO.C,D1*%
X154450000Y-39450000D03*
X154450000Y-38550000D03*
X153550000Y-38550000D03*
X153550000Y-39450000D03*
%TD*%
D20*
%TO.C,D15*%
X187114711Y-64041060D03*
X186335289Y-63591060D03*
X185885289Y-64370482D03*
X186664711Y-64820482D03*
%TD*%
D21*
%TO.C,C31*%
X172520000Y-125500000D03*
X173480000Y-125500000D03*
%TD*%
D14*
%TO.C,D4*%
X145450000Y-29550000D03*
X144550000Y-29550000D03*
X144550000Y-30450000D03*
X145450000Y-30450000D03*
%TD*%
D11*
%TO.C,C17*%
X175950000Y-64517041D03*
X176430000Y-65348425D03*
%TD*%
D14*
%TO.C,D82*%
X31550000Y-81450000D03*
X32450000Y-81450000D03*
X32450000Y-80550000D03*
X31550000Y-80550000D03*
%TD*%
D22*
%TO.C,C78*%
X23084308Y-68560000D03*
X23915692Y-69040000D03*
%TD*%
D17*
%TO.C,D12*%
X152958940Y-44114711D03*
X153408940Y-43335289D03*
X152629518Y-42885289D03*
X152179518Y-43664711D03*
%TD*%
D19*
%TO.C,D42*%
X99041060Y-118885289D03*
X98591060Y-119664711D03*
X99370482Y-120114711D03*
X99820482Y-119335289D03*
%TD*%
D23*
%TO.C,D8*%
X136591060Y-43335289D03*
X137041060Y-44114711D03*
X137820482Y-43664711D03*
X137370482Y-42885289D03*
%TD*%
D24*
%TO.C,C38*%
X114415692Y-118010000D03*
X113584308Y-118490000D03*
%TD*%
D14*
%TO.C,D10*%
X144550000Y-48450000D03*
X145450000Y-48450000D03*
X145450000Y-47550000D03*
X144550000Y-47550000D03*
%TD*%
D20*
%TO.C,D39*%
X112114711Y-116041060D03*
X111335289Y-115591060D03*
X110885289Y-116370482D03*
X111664711Y-116820482D03*
%TD*%
D14*
%TO.C,D7*%
X135550000Y-38550000D03*
X135550000Y-39450000D03*
X136450000Y-39450000D03*
X136450000Y-38550000D03*
%TD*%
D16*
%TO.C,C20*%
X174584308Y-77990000D03*
X175415692Y-77510000D03*
%TD*%
D19*
%TO.C,D6*%
X137041060Y-33885289D03*
X136591060Y-34664711D03*
X137370482Y-35114711D03*
X137820482Y-34335289D03*
%TD*%
D25*
%TO.C,H4*%
X170000000Y-133000000D03*
%TD*%
%TO.C,H3*%
X170000000Y-28000000D03*
%TD*%
D14*
%TO.C,D16*%
X182450000Y-62550000D03*
X181550000Y-62550000D03*
X181550000Y-63450000D03*
X182450000Y-63450000D03*
%TD*%
D26*
%TO.C,D53*%
X102664711Y-63591060D03*
X101885289Y-64041060D03*
X102335289Y-64820482D03*
X103114711Y-64370482D03*
%TD*%
D10*
%TO.C,FID1*%
X25500000Y-26500000D03*
%TD*%
D21*
%TO.C,C19*%
X172520000Y-73500000D03*
X173480000Y-73500000D03*
%TD*%
D13*
%TO.C,D71*%
X74335289Y-47408940D03*
X75114711Y-46958940D03*
X74664711Y-46179518D03*
X73885289Y-46629518D03*
%TD*%
D23*
%TO.C,D92*%
X23591060Y-128335289D03*
X24041060Y-129114711D03*
X24820482Y-128664711D03*
X24370482Y-127885289D03*
%TD*%
D27*
%TO.C,C95*%
X38040000Y-131482959D03*
X37560000Y-130651575D03*
%TD*%
D28*
%TO.C,C27*%
X185440000Y-115084308D03*
X184960000Y-115915692D03*
%TD*%
D14*
%TO.C,D67*%
X60550000Y-38550000D03*
X60550000Y-39450000D03*
X61450000Y-39450000D03*
X61450000Y-38550000D03*
%TD*%
D22*
%TO.C,C66*%
X61084308Y-35560000D03*
X61915692Y-36040000D03*
%TD*%
%TO.C,C42*%
X98084308Y-120560000D03*
X98915692Y-121040000D03*
%TD*%
D14*
%TO.C,D22*%
X181550000Y-81450000D03*
X182450000Y-81450000D03*
X182450000Y-80550000D03*
X181550000Y-80550000D03*
%TD*%
D18*
%TO.C,D50*%
X115408940Y-67664711D03*
X114958940Y-66885289D03*
X114179518Y-67335289D03*
X114629518Y-68114711D03*
%TD*%
D21*
%TO.C,C7*%
X135520000Y-40500000D03*
X136480000Y-40500000D03*
%TD*%
D15*
%TO.C,C52*%
X105500000Y-62580000D03*
X105500000Y-63540000D03*
%TD*%
D14*
%TO.C,D94*%
X31550000Y-133450000D03*
X32450000Y-133450000D03*
X32450000Y-132550000D03*
X31550000Y-132550000D03*
%TD*%
D13*
%TO.C,D23*%
X186335289Y-80408940D03*
X187114711Y-79958940D03*
X186664711Y-79179518D03*
X185885289Y-79629518D03*
%TD*%
D29*
%TO.C,D21*%
X176885289Y-79958940D03*
X177664711Y-80408940D03*
X178114711Y-79629518D03*
X177335289Y-79179518D03*
%TD*%
D14*
%TO.C,D88*%
X32450000Y-114550000D03*
X31550000Y-114550000D03*
X31550000Y-115450000D03*
X32450000Y-115450000D03*
%TD*%
D29*
%TO.C,D45*%
X101885289Y-131958940D03*
X102664711Y-132408940D03*
X103114711Y-131629518D03*
X102335289Y-131179518D03*
%TD*%
D12*
%TO.C,C25*%
X191480000Y-122530000D03*
X190520000Y-122530000D03*
%TD*%
%TO.C,C73*%
X41480000Y-70530000D03*
X40520000Y-70530000D03*
%TD*%
D30*
%TO.C,C36*%
X190965692Y-127490000D03*
X190134308Y-127010000D03*
%TD*%
D14*
%TO.C,D13*%
X191450000Y-72450000D03*
X191450000Y-71550000D03*
X190550000Y-71550000D03*
X190550000Y-72450000D03*
%TD*%
D31*
%TO.C,C93*%
X28560000Y-132915692D03*
X29040000Y-132084308D03*
%TD*%
%TO.C,C21*%
X178560000Y-80915692D03*
X179040000Y-80084308D03*
%TD*%
D13*
%TO.C,D95*%
X36335289Y-132408940D03*
X37114711Y-131958940D03*
X36664711Y-131179518D03*
X35885289Y-131629518D03*
%TD*%
D16*
%TO.C,C8*%
X137584308Y-44990000D03*
X138415692Y-44510000D03*
%TD*%
D17*
%TO.C,D72*%
X77958940Y-44114711D03*
X78408940Y-43335289D03*
X77629518Y-42885289D03*
X77179518Y-43664711D03*
%TD*%
D15*
%TO.C,C97*%
X93000000Y-52520000D03*
X93000000Y-53480000D03*
%TD*%
D24*
%TO.C,C86*%
X39415692Y-118010000D03*
X38584308Y-118490000D03*
%TD*%
D19*
%TO.C,D18*%
X174041060Y-66885289D03*
X173591060Y-67664711D03*
X174370482Y-68114711D03*
X174820482Y-67335289D03*
%TD*%
D14*
%TO.C,D85*%
X41450000Y-124450000D03*
X41450000Y-123550000D03*
X40550000Y-123550000D03*
X40550000Y-124450000D03*
%TD*%
D31*
%TO.C,C9*%
X141560000Y-47915692D03*
X142040000Y-47084308D03*
%TD*%
D32*
%TO.C,U1*%
X54500000Y-75200000D03*
X54500000Y-127200000D03*
X84500000Y-75200000D03*
X84500000Y-127200000D03*
%TD*%
D14*
%TO.C,D19*%
X172550000Y-71550000D03*
X172550000Y-72450000D03*
X173450000Y-72450000D03*
X173450000Y-71550000D03*
%TD*%
D26*
%TO.C,D65*%
X65664711Y-30591060D03*
X64885289Y-31041060D03*
X65335289Y-31820482D03*
X66114711Y-31370482D03*
%TD*%
D19*
%TO.C,D78*%
X24041060Y-66885289D03*
X23591060Y-67664711D03*
X24370482Y-68114711D03*
X24820482Y-67335289D03*
%TD*%
D14*
%TO.C,D46*%
X106550000Y-133450000D03*
X107450000Y-133450000D03*
X107450000Y-132550000D03*
X106550000Y-132550000D03*
%TD*%
D22*
%TO.C,C18*%
X173084308Y-68560000D03*
X173915692Y-69040000D03*
%TD*%
D14*
%TO.C,D58*%
X106550000Y-81450000D03*
X107450000Y-81450000D03*
X107450000Y-80550000D03*
X106550000Y-80550000D03*
%TD*%
D25*
%TO.C,H2*%
X44000000Y-133000000D03*
%TD*%
D14*
%TO.C,D25*%
X191450000Y-124450000D03*
X191450000Y-123550000D03*
X190550000Y-123550000D03*
X190550000Y-124450000D03*
%TD*%
%TO.C,D70*%
X69550000Y-48450000D03*
X70450000Y-48450000D03*
X70450000Y-47550000D03*
X69550000Y-47550000D03*
%TD*%
D30*
%TO.C,C72*%
X78965692Y-42490000D03*
X78134308Y-42010000D03*
%TD*%
D21*
%TO.C,C55*%
X97520000Y-73500000D03*
X98480000Y-73500000D03*
%TD*%
D28*
%TO.C,C87*%
X35440000Y-115084308D03*
X34960000Y-115915692D03*
%TD*%
D27*
%TO.C,C11*%
X151040000Y-46482959D03*
X150560000Y-45651575D03*
%TD*%
D24*
%TO.C,C26*%
X189415692Y-118010000D03*
X188584308Y-118490000D03*
%TD*%
D21*
%TO.C,C43*%
X97520000Y-125500000D03*
X98480000Y-125500000D03*
%TD*%
D26*
%TO.C,D77*%
X27664711Y-63591060D03*
X26885289Y-64041060D03*
X27335289Y-64820482D03*
X28114711Y-64370482D03*
%TD*%
D24*
%TO.C,C74*%
X39415692Y-66010000D03*
X38584308Y-66490000D03*
%TD*%
D25*
%TO.C,H5*%
X107000000Y-103000000D03*
%TD*%
D15*
%TO.C,C16*%
X180500000Y-62580000D03*
X180500000Y-63540000D03*
%TD*%
D14*
%TO.C,D31*%
X172550000Y-123550000D03*
X172550000Y-124450000D03*
X173450000Y-124450000D03*
X173450000Y-123550000D03*
%TD*%
D10*
%TO.C,FID4*%
X188500000Y-134500000D03*
%TD*%
D28*
%TO.C,C51*%
X110440000Y-63084308D03*
X109960000Y-63915692D03*
%TD*%
D27*
%TO.C,C59*%
X113040000Y-79482959D03*
X112560000Y-78651575D03*
%TD*%
D26*
%TO.C,D17*%
X177664711Y-63591060D03*
X176885289Y-64041060D03*
X177335289Y-64820482D03*
X178114711Y-64370482D03*
%TD*%
D18*
%TO.C,D74*%
X40408940Y-67664711D03*
X39958940Y-66885289D03*
X39179518Y-67335289D03*
X39629518Y-68114711D03*
%TD*%
D25*
%TO.C,H1*%
X44000000Y-28000000D03*
%TD*%
D20*
%TO.C,D51*%
X112114711Y-64041060D03*
X111335289Y-63591060D03*
X110885289Y-64370482D03*
X111664711Y-64820482D03*
%TD*%
D28*
%TO.C,C39*%
X110440000Y-115084308D03*
X109960000Y-115915692D03*
%TD*%
D12*
%TO.C,C61*%
X79480000Y-37530000D03*
X78520000Y-37530000D03*
%TD*%
D14*
%TO.C,D28*%
X182450000Y-114550000D03*
X181550000Y-114550000D03*
X181550000Y-115450000D03*
X182450000Y-115450000D03*
%TD*%
D22*
%TO.C,C6*%
X136084308Y-35560000D03*
X136915692Y-36040000D03*
%TD*%
D21*
%TO.C,C79*%
X22520000Y-73500000D03*
X23480000Y-73500000D03*
%TD*%
D14*
%TO.C,D55*%
X97550000Y-71550000D03*
X97550000Y-72450000D03*
X98450000Y-72450000D03*
X98450000Y-71550000D03*
%TD*%
D16*
%TO.C,C44*%
X99584308Y-129990000D03*
X100415692Y-129510000D03*
%TD*%
D33*
%TO.C,C10*%
X146500000Y-48510000D03*
X146500000Y-47550000D03*
%TD*%
D11*
%TO.C,C29*%
X175950000Y-116517041D03*
X176430000Y-117348425D03*
%TD*%
D18*
%TO.C,D38*%
X115408940Y-119664711D03*
X114958940Y-118885289D03*
X114179518Y-119335289D03*
X114629518Y-120114711D03*
%TD*%
D15*
%TO.C,C76*%
X30500000Y-62580000D03*
X30500000Y-63540000D03*
%TD*%
D28*
%TO.C,C75*%
X35440000Y-63084308D03*
X34960000Y-63915692D03*
%TD*%
D15*
%TO.C,C40*%
X105500000Y-114580000D03*
X105500000Y-115540000D03*
%TD*%
D24*
%TO.C,C62*%
X77415692Y-33010000D03*
X76584308Y-33490000D03*
%TD*%
D27*
%TO.C,C83*%
X38040000Y-79482959D03*
X37560000Y-78651575D03*
%TD*%
D20*
%TO.C,D75*%
X37114711Y-64041060D03*
X36335289Y-63591060D03*
X35885289Y-64370482D03*
X36664711Y-64820482D03*
%TD*%
D19*
%TO.C,D66*%
X62041060Y-33885289D03*
X61591060Y-34664711D03*
X62370482Y-35114711D03*
X62820482Y-34335289D03*
%TD*%
D22*
%TO.C,C90*%
X23084308Y-120560000D03*
X23915692Y-121040000D03*
%TD*%
D15*
%TO.C,C88*%
X30500000Y-114580000D03*
X30500000Y-115540000D03*
%TD*%
D19*
%TO.C,D30*%
X174041060Y-118885289D03*
X173591060Y-119664711D03*
X174370482Y-120114711D03*
X174820482Y-119335289D03*
%TD*%
D30*
%TO.C,C60*%
X115965692Y-75490000D03*
X115134308Y-75010000D03*
%TD*%
D23*
%TO.C,D56*%
X98591060Y-76335289D03*
X99041060Y-77114711D03*
X99820482Y-76664711D03*
X99370482Y-75885289D03*
%TD*%
D18*
%TO.C,D26*%
X190408940Y-119664711D03*
X189958940Y-118885289D03*
X189179518Y-119335289D03*
X189629518Y-120114711D03*
%TD*%
D23*
%TO.C,D44*%
X98591060Y-128335289D03*
X99041060Y-129114711D03*
X99820482Y-128664711D03*
X99370482Y-127885289D03*
%TD*%
D19*
%TO.C,D90*%
X24041060Y-118885289D03*
X23591060Y-119664711D03*
X24370482Y-120114711D03*
X24820482Y-119335289D03*
%TD*%
D30*
%TO.C,C48*%
X115965692Y-127490000D03*
X115134308Y-127010000D03*
%TD*%
D14*
%TO.C,D61*%
X79450000Y-39450000D03*
X79450000Y-38550000D03*
X78550000Y-38550000D03*
X78550000Y-39450000D03*
%TD*%
D18*
%TO.C,D2*%
X153408940Y-34664711D03*
X152958940Y-33885289D03*
X152179518Y-34335289D03*
X152629518Y-35114711D03*
%TD*%
D20*
%TO.C,D87*%
X37114711Y-116041060D03*
X36335289Y-115591060D03*
X35885289Y-116370482D03*
X36664711Y-116820482D03*
%TD*%
D17*
%TO.C,D60*%
X114958940Y-77114711D03*
X115408940Y-76335289D03*
X114629518Y-75885289D03*
X114179518Y-76664711D03*
%TD*%
D23*
%TO.C,D20*%
X173591060Y-76335289D03*
X174041060Y-77114711D03*
X174820482Y-76664711D03*
X174370482Y-75885289D03*
%TD*%
D12*
%TO.C,C1*%
X154480000Y-37530000D03*
X153520000Y-37530000D03*
%TD*%
D24*
%TO.C,C2*%
X152415692Y-33010000D03*
X151584308Y-33490000D03*
%TD*%
D33*
%TO.C,C82*%
X33500000Y-81510000D03*
X33500000Y-80550000D03*
%TD*%
D14*
%TO.C,D97*%
X94050000Y-52550000D03*
X94050000Y-53450000D03*
X94950000Y-53450000D03*
X94950000Y-52550000D03*
%TD*%
D26*
%TO.C,D5*%
X140664711Y-30591060D03*
X139885289Y-31041060D03*
X140335289Y-31820482D03*
X141114711Y-31370482D03*
%TD*%
%TO.C,D41*%
X102664711Y-115591060D03*
X101885289Y-116041060D03*
X102335289Y-116820482D03*
X103114711Y-116370482D03*
%TD*%
D22*
%TO.C,C54*%
X98084308Y-68560000D03*
X98915692Y-69040000D03*
%TD*%
D17*
%TO.C,D84*%
X39958940Y-77114711D03*
X40408940Y-76335289D03*
X39629518Y-75885289D03*
X39179518Y-76664711D03*
%TD*%
D15*
%TO.C,C28*%
X180500000Y-114580000D03*
X180500000Y-115540000D03*
%TD*%
D14*
%TO.C,D52*%
X107450000Y-62550000D03*
X106550000Y-62550000D03*
X106550000Y-63450000D03*
X107450000Y-63450000D03*
%TD*%
D17*
%TO.C,D24*%
X189958940Y-77114711D03*
X190408940Y-76335289D03*
X189629518Y-75885289D03*
X189179518Y-76664711D03*
%TD*%
D33*
%TO.C,C58*%
X108500000Y-81510000D03*
X108500000Y-80550000D03*
%TD*%
D14*
%TO.C,D91*%
X22550000Y-123550000D03*
X22550000Y-124450000D03*
X23450000Y-124450000D03*
X23450000Y-123550000D03*
%TD*%
D33*
%TO.C,C94*%
X33500000Y-133510000D03*
X33500000Y-132550000D03*
%TD*%
D34*
%TO.C,R1*%
X155470000Y-38470000D03*
X155470000Y-39490000D03*
%TD*%
D30*
%TO.C,C12*%
X153965692Y-42490000D03*
X153134308Y-42010000D03*
%TD*%
D29*
%TO.C,D9*%
X139885289Y-46958940D03*
X140664711Y-47408940D03*
X141114711Y-46629518D03*
X140335289Y-46179518D03*
%TD*%
D12*
%TO.C,C37*%
X116480000Y-122530000D03*
X115520000Y-122530000D03*
%TD*%
D28*
%TO.C,C15*%
X185440000Y-63084308D03*
X184960000Y-63915692D03*
%TD*%
D22*
%TO.C,C30*%
X173084308Y-120560000D03*
X173915692Y-121040000D03*
%TD*%
D30*
%TO.C,C24*%
X190965692Y-75490000D03*
X190134308Y-75010000D03*
%TD*%
D13*
%TO.C,D47*%
X111335289Y-132408940D03*
X112114711Y-131958940D03*
X111664711Y-131179518D03*
X110885289Y-131629518D03*
%TD*%
D14*
%TO.C,D79*%
X22550000Y-71550000D03*
X22550000Y-72450000D03*
X23450000Y-72450000D03*
X23450000Y-71550000D03*
%TD*%
D17*
%TO.C,D36*%
X189958940Y-129114711D03*
X190408940Y-128335289D03*
X189629518Y-127885289D03*
X189179518Y-128664711D03*
%TD*%
D20*
%TO.C,D27*%
X187114711Y-116041060D03*
X186335289Y-115591060D03*
X185885289Y-116370482D03*
X186664711Y-116820482D03*
%TD*%
D14*
%TO.C,D76*%
X32450000Y-62550000D03*
X31550000Y-62550000D03*
X31550000Y-63450000D03*
X32450000Y-63450000D03*
%TD*%
D21*
%TO.C,C91*%
X22520000Y-125500000D03*
X23480000Y-125500000D03*
%TD*%
D14*
%TO.C,D40*%
X107450000Y-114550000D03*
X106550000Y-114550000D03*
X106550000Y-115450000D03*
X107450000Y-115450000D03*
%TD*%
D33*
%TO.C,C22*%
X183500000Y-81510000D03*
X183500000Y-80550000D03*
%TD*%
D11*
%TO.C,C77*%
X25950000Y-64517041D03*
X26430000Y-65348425D03*
%TD*%
D27*
%TO.C,C23*%
X188040000Y-79482959D03*
X187560000Y-78651575D03*
%TD*%
%TO.C,C71*%
X76040000Y-46482959D03*
X75560000Y-45651575D03*
%TD*%
D14*
%TO.C,D98*%
X119050000Y-52550000D03*
X119050000Y-53450000D03*
X119950000Y-53450000D03*
X119950000Y-52550000D03*
%TD*%
D20*
%TO.C,D63*%
X75114711Y-31041060D03*
X74335289Y-30591060D03*
X73885289Y-31370482D03*
X74664711Y-31820482D03*
%TD*%
%TO.C,D3*%
X150114711Y-31041060D03*
X149335289Y-30591060D03*
X148885289Y-31370482D03*
X149664711Y-31820482D03*
%TD*%
D23*
%TO.C,D32*%
X173591060Y-128335289D03*
X174041060Y-129114711D03*
X174820482Y-128664711D03*
X174370482Y-127885289D03*
%TD*%
D16*
%TO.C,C92*%
X24584308Y-129990000D03*
X25415692Y-129510000D03*
%TD*%
D30*
%TO.C,C96*%
X40965692Y-127490000D03*
X40134308Y-127010000D03*
%TD*%
D23*
%TO.C,D80*%
X23591060Y-76335289D03*
X24041060Y-77114711D03*
X24820482Y-76664711D03*
X24370482Y-75885289D03*
%TD*%
D33*
%TO.C,C70*%
X71500000Y-48510000D03*
X71500000Y-47550000D03*
%TD*%
D29*
%TO.C,D93*%
X26885289Y-131958940D03*
X27664711Y-132408940D03*
X28114711Y-131629518D03*
X27335289Y-131179518D03*
%TD*%
D12*
%TO.C,C85*%
X41480000Y-122530000D03*
X40520000Y-122530000D03*
%TD*%
D16*
%TO.C,C68*%
X62584308Y-44990000D03*
X63415692Y-44510000D03*
%TD*%
D26*
%TO.C,D89*%
X27664711Y-115591060D03*
X26885289Y-116041060D03*
X27335289Y-116820482D03*
X28114711Y-116370482D03*
%TD*%
D11*
%TO.C,C41*%
X100950000Y-116517041D03*
X101430000Y-117348425D03*
%TD*%
D31*
%TO.C,C45*%
X103560000Y-132915692D03*
X104040000Y-132084308D03*
%TD*%
D18*
%TO.C,D14*%
X190408940Y-67664711D03*
X189958940Y-66885289D03*
X189179518Y-67335289D03*
X189629518Y-68114711D03*
%TD*%
D24*
%TO.C,C50*%
X114415692Y-66010000D03*
X113584308Y-66490000D03*
%TD*%
D18*
%TO.C,D62*%
X78408940Y-34664711D03*
X77958940Y-33885289D03*
X77179518Y-34335289D03*
X77629518Y-35114711D03*
%TD*%
D29*
%TO.C,D33*%
X176885289Y-131958940D03*
X177664711Y-132408940D03*
X178114711Y-131629518D03*
X177335289Y-131179518D03*
%TD*%
D31*
%TO.C,C33*%
X178560000Y-132915692D03*
X179040000Y-132084308D03*
%TD*%
D14*
%TO.C,D43*%
X97550000Y-123550000D03*
X97550000Y-124450000D03*
X98450000Y-124450000D03*
X98450000Y-123550000D03*
%TD*%
D33*
%TO.C,C98*%
X118000000Y-53480000D03*
X118000000Y-52520000D03*
%TD*%
D21*
%TO.C,C67*%
X60520000Y-40500000D03*
X61480000Y-40500000D03*
%TD*%
D28*
%TO.C,C3*%
X148440000Y-30084308D03*
X147960000Y-30915692D03*
%TD*%
D24*
%TO.C,C14*%
X189415692Y-66010000D03*
X188584308Y-66490000D03*
%TD*%
D27*
%TO.C,C35*%
X188040000Y-131482959D03*
X187560000Y-130651575D03*
%TD*%
D31*
%TO.C,C57*%
X103560000Y-80915692D03*
X104040000Y-80084308D03*
%TD*%
D33*
%TO.C,C46*%
X108500000Y-133510000D03*
X108500000Y-132550000D03*
%TD*%
D31*
%TO.C,C81*%
X28560000Y-80915692D03*
X29040000Y-80084308D03*
%TD*%
D16*
%TO.C,C56*%
X99584308Y-77990000D03*
X100415692Y-77510000D03*
%TD*%
D28*
%TO.C,C63*%
X73440000Y-30084308D03*
X72960000Y-30915692D03*
%TD*%
D17*
%TO.C,D96*%
X39958940Y-129114711D03*
X40408940Y-128335289D03*
X39629518Y-127885289D03*
X39179518Y-128664711D03*
%TD*%
D32*
%TO.C,U2*%
X129500000Y-75200000D03*
X129500000Y-127200000D03*
X159500000Y-75200000D03*
X159500000Y-127200000D03*
%TD*%
D29*
%TO.C,D81*%
X26885289Y-79958940D03*
X27664711Y-80408940D03*
X28114711Y-79629518D03*
X27335289Y-79179518D03*
%TD*%
D33*
%TO.C,C34*%
X183500000Y-133510000D03*
X183500000Y-132550000D03*
%TD*%
D29*
%TO.C,D57*%
X101885289Y-79958940D03*
X102664711Y-80408940D03*
X103114711Y-79629518D03*
X102335289Y-79179518D03*
%TD*%
D30*
%TO.C,C84*%
X40965692Y-75490000D03*
X40134308Y-75010000D03*
%TD*%
D11*
%TO.C,C89*%
X25950000Y-116517041D03*
X26430000Y-117348425D03*
%TD*%
D26*
%TO.C,D29*%
X177664711Y-115591060D03*
X176885289Y-116041060D03*
X177335289Y-116820482D03*
X178114711Y-116370482D03*
%TD*%
D10*
%TO.C,FID3*%
X25500000Y-134500000D03*
%TD*%
D27*
%TO.C,C47*%
X113040000Y-131482959D03*
X112560000Y-130651575D03*
%TD*%
D29*
%TO.C,D69*%
X64885289Y-46958940D03*
X65664711Y-47408940D03*
X66114711Y-46629518D03*
X65335289Y-46179518D03*
%TD*%
D15*
%TO.C,C64*%
X68500000Y-29580000D03*
X68500000Y-30540000D03*
%TD*%
D31*
%TO.C,C69*%
X66560000Y-47915692D03*
X67040000Y-47084308D03*
%TD*%
D11*
%TO.C,C53*%
X100950000Y-64517041D03*
X101430000Y-65348425D03*
%TD*%
D23*
%TO.C,D68*%
X61591060Y-43335289D03*
X62041060Y-44114711D03*
X62820482Y-43664711D03*
X62370482Y-42885289D03*
%TD*%
M02*
