M48
; DRILL file {KiCad 8.0.4+1} date 2024-10-15T13:59:19+0000
; FORMAT={-:-/ absolute / metric / decimal}
; #@! TF.CreationDate,2024-10-15T13:59:19+00:00
; #@! TF.GenerationSoftware,Kicad,Pcbnew,8.0.4+1
; #@! TF.FileFunction,MixedPlating,1,2
FMAT,2
METRIC
; #@! TA.AperFunction,Plated,PTH,ViaDrill
T1C0.400
; #@! TA.AperFunction,NonPlated,NPTH,ComponentDrill
T2C1.700
; #@! TA.AperFunction,NonPlated,NPTH,ComponentDrill
T3C2.500
%
G90
G05
T1
X22.072Y-73.196
X22.072Y-125.196
X22.804Y-68.072
X22.804Y-120.072
X24.0Y-78.0
X25.2Y-130.427
X26.0Y-64.0
X26.0Y-116.0
X28.072Y-81.196
X28.072Y-133.196
X30.804Y-62.072
X30.804Y-114.072
X32.5Y-64.5
X32.5Y-116.6
X33.196Y-81.928
X33.196Y-133.928
X34.0Y-132.4
X34.4Y-63.7
X34.4Y-115.7
X35.928Y-62.804
X35.928Y-114.804
X38.0Y-79.94
X38.0Y-131.94
X40.0Y-66.0
X40.0Y-118.0
X41.42Y-75.69
X41.42Y-127.69
X41.95Y-70.54
X41.95Y-122.54
X60.072Y-40.196
X60.804Y-35.072
X62.0Y-45.0
X64.0Y-31.0
X65.0Y-76.0
X65.6Y-77.3
X66.072Y-48.196
X66.3Y-76.0
X68.804Y-29.072
X70.5Y-31.5
X71.196Y-48.928
X72.4Y-30.7
X73.928Y-29.804
X76.0Y-46.94
X78.0Y-33.0
X79.42Y-42.69
X79.95Y-37.54
X94.1Y-54.0
X97.072Y-73.196
X97.072Y-125.196
X97.804Y-68.072
X97.804Y-120.072
X99.0Y-78.0
X99.0Y-130.0
X101.0Y-64.0
X101.0Y-116.0
X103.072Y-81.196
X103.072Y-133.196
X105.804Y-62.072
X105.804Y-114.072
X107.5Y-64.5
X107.5Y-116.5
X108.196Y-81.928
X108.196Y-133.928
X108.98Y-46.44
X108.99Y-52.02
X109.0Y-49.25
X109.0Y-57.75
X109.02Y-60.52
X109.03Y-54.96
X109.4Y-63.7
X109.4Y-115.7
X110.928Y-62.804
X110.928Y-114.804
X113.0Y-79.94
X113.0Y-131.94
X115.0Y-66.0
X115.0Y-118.0
X116.3Y-76.0
X116.42Y-127.69
X116.95Y-70.54
X116.95Y-122.54
X116.95Y-72.323
X117.562Y-73.657
X119.1Y-53.9
X120.2Y-53.878
X135.072Y-40.196
X135.804Y-35.072
X137.0Y-45.0
X138.5Y-72.965
X139.0Y-31.0
X139.373Y-72.52
X140.0Y-76.0
X140.7Y-77.4
X141.0Y-65.5
X141.0Y-68.5
X141.0Y-71.5
X141.072Y-48.196
X141.3Y-76.0
X143.804Y-29.072
X144.5Y-72.75
X144.504Y-73.743
X145.5Y-31.7
X146.196Y-48.928
X147.4Y-30.7
X148.928Y-29.804
X151.0Y-46.94
X153.0Y-33.0
X154.42Y-42.69
X154.48Y-37.02
X155.46Y-38.0
X172.072Y-73.196
X172.072Y-125.196
X172.804Y-68.072
X172.804Y-120.072
X173.7Y-69.6
X174.0Y-78.0
X174.0Y-130.0
X176.0Y-64.0
X176.0Y-116.0
X178.072Y-81.196
X178.072Y-133.196
X180.804Y-62.072
X180.804Y-114.072
X182.5Y-64.6
X182.5Y-116.8
X183.196Y-81.928
X183.196Y-133.928
X183.9Y-61.7
X184.4Y-63.7
X184.4Y-115.7
X185.928Y-62.804
X185.928Y-114.804
X188.0Y-79.94
X188.0Y-131.94
X190.0Y-66.0
X190.0Y-118.0
X191.42Y-75.69
X191.42Y-127.69
X191.95Y-70.54
X191.95Y-122.54
X192.2Y-69.13
T2
X54.5Y-75.2
X54.5Y-127.2
X84.5Y-75.2
X84.5Y-127.2
X129.5Y-75.2
X129.5Y-127.2
X159.5Y-75.2
X159.5Y-127.2
T3
X27.0Y-28.0
X44.0Y-133.0
X107.0Y-103.0
X170.0Y-133.0
X187.0Y-28.0
M30
