%TF.GenerationSoftware,KiCad,Pcbnew,8.0.4+1*%
%TF.CreationDate,2024-10-13T21:02:22+00:00*%
%TF.ProjectId,pedalboard-display,70656461-6c62-46f6-9172-642d64697370,0.0.0-RC1*%
%TF.SameCoordinates,Original*%
%TF.FileFunction,Other,User*%
%FSLAX46Y46*%
G04 Gerber Fmt 4.6, Leading zero omitted, Abs format (unit mm)*
G04 Created by KiCad (PCBNEW 8.0.4+1) date 2024-10-13 21:02:22*
%MOMM*%
%LPD*%
G01*
G04 APERTURE LIST*
%ADD10C,0.050000*%
G04 APERTURE END LIST*
D10*
%TO.C,U1*%
X63888000Y-74072800D02*
X75088000Y-74072800D01*
X63888000Y-77672800D02*
X63888000Y-74072800D01*
X75088000Y-74072800D02*
X75088000Y-77672800D01*
X75088000Y-77672800D02*
X63888000Y-77672800D01*
%TO.C,U2*%
X138888000Y-74072800D02*
X150088000Y-74072800D01*
X138888000Y-77672800D02*
X138888000Y-74072800D01*
X150088000Y-74072800D02*
X150088000Y-77672800D01*
X150088000Y-77672800D02*
X138888000Y-77672800D01*
%TO.C,R3*%
X134800000Y-74232500D02*
X136700000Y-74232500D01*
X134800000Y-77592500D02*
X134800000Y-74232500D01*
X136700000Y-74232500D02*
X136700000Y-77592500D01*
X136700000Y-77592500D02*
X134800000Y-77592500D01*
%TO.C,R2*%
X136800000Y-74232500D02*
X138700000Y-74232500D01*
X136800000Y-77592500D02*
X136800000Y-74232500D01*
X138700000Y-74232500D02*
X138700000Y-77592500D01*
X138700000Y-77592500D02*
X136800000Y-77592500D01*
%TO.C,J3*%
X137300000Y-63250000D02*
X137300000Y-71750000D01*
X137300000Y-71750000D02*
X150700000Y-71750000D01*
X150700000Y-63250000D02*
X137300000Y-63250000D01*
X150700000Y-71750000D02*
X150700000Y-63250000D01*
%TO.C,J2*%
X101300000Y-44000000D02*
X101300000Y-52500000D01*
X101300000Y-52500000D02*
X112700000Y-52500000D01*
X112700000Y-44000000D02*
X101300000Y-44000000D01*
X112700000Y-52500000D02*
X112700000Y-44000000D01*
%TO.C,J1*%
X101300000Y-52500000D02*
X101300000Y-61000000D01*
X101300000Y-61000000D02*
X112700000Y-61000000D01*
X112700000Y-52500000D02*
X101300000Y-52500000D01*
X112700000Y-61000000D02*
X112700000Y-52500000D01*
%TD*%
M02*
