%TF.GenerationSoftware,KiCad,Pcbnew,8.0.4+1*%
%TF.CreationDate,2024-10-04T17:30:47+00:00*%
%TF.ProjectId,pedalboard-display,70656461-6c62-46f6-9172-642d64697370,0.0.0-RC1*%
%TF.SameCoordinates,Original*%
%TF.FileFunction,Drillmap*%
%TF.FilePolarity,Positive*%
%FSLAX45Y45*%
G04 Gerber Fmt 4.5, Leading zero omitted, Abs format (unit mm)*
G04 Created by KiCad (PCBNEW 8.0.4+1) date 2024-10-04 17:30:47*
%MOMM*%
%LPD*%
G01*
G04 APERTURE LIST*
%ADD10C,0.100000*%
%ADD11C,0.200000*%
G04 APERTURE END LIST*
D10*
X2500000Y-13600000D02*
X11200000Y-13600000D01*
X18810000Y-12400000D02*
G75*
G02*
X17590000Y-12400000I-610000J0D01*
G01*
X17590000Y-12400000D02*
G75*
G02*
X18810000Y-12400000I610000J0D01*
G01*
X2400000Y-2600000D02*
G75*
G02*
X2500000Y-2500000I100000J0D01*
G01*
X2000000Y-3200000D02*
G75*
G02*
X2100000Y-3100000I100000J0D01*
G01*
X12420000Y-2500000D02*
X18900000Y-2500000D01*
X2400000Y-13300000D02*
X2400000Y-13500000D01*
X19000000Y-2600000D02*
X19000000Y-2800000D01*
X19300000Y-3100000D02*
G75*
G02*
X19400000Y-3200000I0J-100000D01*
G01*
X2100000Y-13000000D02*
G75*
G02*
X2000000Y-12900000I0J100000D01*
G01*
X11200000Y-2500000D02*
G75*
G02*
X10200000Y-2500000I-500000J0D01*
G01*
X11200000Y-13600000D02*
X18900000Y-13600000D01*
X15110000Y-3900000D02*
G75*
G02*
X13890000Y-3900000I-610000J0D01*
G01*
X13890000Y-3900000D02*
G75*
G02*
X15110000Y-3900000I610000J0D01*
G01*
X2400000Y-2800000D02*
G75*
G02*
X2100000Y-3100000I-300000J0D01*
G01*
X9420000Y-2500000D02*
X10200000Y-2500000D01*
X7610000Y-3900000D02*
G75*
G02*
X6390000Y-3900000I-610000J0D01*
G01*
X6390000Y-3900000D02*
G75*
G02*
X7610000Y-3900000I610000J0D01*
G01*
X18810000Y-7200000D02*
G75*
G02*
X17590000Y-7200000I-610000J0D01*
G01*
X17590000Y-7200000D02*
G75*
G02*
X18810000Y-7200000I610000J0D01*
G01*
X3810000Y-12400000D02*
G75*
G02*
X2590000Y-12400000I-610000J0D01*
G01*
X2590000Y-12400000D02*
G75*
G02*
X3810000Y-12400000I610000J0D01*
G01*
X11310000Y-7200000D02*
G75*
G02*
X10090000Y-7200000I-610000J0D01*
G01*
X10090000Y-7200000D02*
G75*
G02*
X11310000Y-7200000I610000J0D01*
G01*
X19400000Y-3200000D02*
X19400000Y-12900000D01*
X19000000Y-13500000D02*
G75*
G02*
X18900000Y-13600000I-100000J0D01*
G01*
X3810000Y-7200000D02*
G75*
G02*
X2590000Y-7200000I-610000J0D01*
G01*
X2590000Y-7200000D02*
G75*
G02*
X3810000Y-7200000I610000J0D01*
G01*
X11200000Y-2500000D02*
X12420000Y-2500000D01*
X2500000Y-13600000D02*
G75*
G02*
X2400000Y-13500000I0J100000D01*
G01*
X19400000Y-12900000D02*
G75*
G02*
X19300000Y-13000000I-100000J0D01*
G01*
X18900000Y-2500000D02*
G75*
G02*
X19000000Y-2600000I0J-100000D01*
G01*
X19300000Y-3100000D02*
G75*
G02*
X19000000Y-2800000I0J300000D01*
G01*
X2000000Y-12900000D02*
X2000000Y-3200000D01*
X9420000Y-2500000D02*
X2500000Y-2500000D01*
X19000000Y-13300000D02*
X19000000Y-13500000D01*
X19000000Y-13300000D02*
G75*
G02*
X19300000Y-13000000I300000J0D01*
G01*
X2400000Y-2600000D02*
X2400000Y-2800000D01*
X11310000Y-12400000D02*
G75*
G02*
X10090000Y-12400000I-610000J0D01*
G01*
X10090000Y-12400000D02*
G75*
G02*
X11310000Y-12400000I610000J0D01*
G01*
X2100000Y-13000000D02*
G75*
G02*
X2400000Y-13300000I0J-300000D01*
G01*
D11*
D10*
X2100000Y-11300000D02*
X2140000Y-11340000D01*
X2140000Y-11300000D02*
X2100000Y-11340000D01*
X2187180Y-7299615D02*
X2227180Y-7339615D01*
X2227180Y-7299615D02*
X2187180Y-7339615D01*
X2187180Y-12499615D02*
X2227180Y-12539615D01*
X2227180Y-12499615D02*
X2187180Y-12539615D01*
X2200000Y-10880000D02*
X2240000Y-10920000D01*
X2240000Y-10880000D02*
X2200000Y-10920000D01*
X2260385Y-6787180D02*
X2300385Y-6827180D01*
X2300385Y-6787180D02*
X2260385Y-6827180D01*
X2260385Y-11987180D02*
X2300385Y-12027180D01*
X2300385Y-11987180D02*
X2260385Y-12027180D01*
X2380000Y-7780000D02*
X2420000Y-7820000D01*
X2420000Y-7780000D02*
X2380000Y-7820000D01*
X2380000Y-12980000D02*
X2420000Y-13020000D01*
X2420000Y-12980000D02*
X2380000Y-13020000D01*
X2500000Y-10810000D02*
X2540000Y-10850000D01*
X2540000Y-10810000D02*
X2500000Y-10850000D01*
X2580000Y-6380000D02*
X2620000Y-6420000D01*
X2620000Y-6380000D02*
X2580000Y-6420000D01*
X2580000Y-11580000D02*
X2620000Y-11620000D01*
X2620000Y-11580000D02*
X2580000Y-11620000D01*
X2787180Y-8099615D02*
X2827180Y-8139615D01*
X2827180Y-8099615D02*
X2787180Y-8139615D01*
X2787180Y-13299615D02*
X2827180Y-13339615D01*
X2827180Y-13299615D02*
X2787180Y-13339615D01*
X2790000Y-10880000D02*
X2830000Y-10920000D01*
X2830000Y-10880000D02*
X2790000Y-10920000D01*
X3060385Y-6187180D02*
X3100385Y-6227180D01*
X3100385Y-6187180D02*
X3060385Y-6227180D01*
X3060385Y-11387180D02*
X3100385Y-11427180D01*
X3100385Y-11387180D02*
X3060385Y-11427180D01*
X3230000Y-6430000D02*
X3270000Y-6470000D01*
X3270000Y-6430000D02*
X3230000Y-6470000D01*
X3230000Y-11640000D02*
X3270000Y-11680000D01*
X3270000Y-11640000D02*
X3230000Y-11680000D01*
X3299615Y-8172820D02*
X3339615Y-8212820D01*
X3339615Y-8172820D02*
X3299615Y-8212820D01*
X3299615Y-13372820D02*
X3339615Y-13412820D01*
X3339615Y-13372820D02*
X3299615Y-13412820D01*
X3380000Y-13220000D02*
X3420000Y-13260000D01*
X3420000Y-13220000D02*
X3380000Y-13260000D01*
X3420000Y-6350000D02*
X3460000Y-6390000D01*
X3460000Y-6350000D02*
X3420000Y-6390000D01*
X3420000Y-11550000D02*
X3460000Y-11590000D01*
X3460000Y-11550000D02*
X3420000Y-11590000D01*
X3572820Y-6260385D02*
X3612820Y-6300385D01*
X3612820Y-6260385D02*
X3572820Y-6300385D01*
X3572820Y-11460385D02*
X3612820Y-11500385D01*
X3612820Y-11460385D02*
X3572820Y-11500385D01*
X3780000Y-7974000D02*
X3820000Y-8014000D01*
X3820000Y-7974000D02*
X3780000Y-8014000D01*
X3780000Y-13174000D02*
X3820000Y-13214000D01*
X3820000Y-13174000D02*
X3780000Y-13214000D01*
X3980000Y-6580000D02*
X4020000Y-6620000D01*
X4020000Y-6580000D02*
X3980000Y-6620000D01*
X3980000Y-11780000D02*
X4020000Y-11820000D01*
X4020000Y-11780000D02*
X3980000Y-11820000D01*
X4122000Y-7549000D02*
X4162000Y-7589000D01*
X4162000Y-7549000D02*
X4122000Y-7589000D01*
X4122000Y-12749000D02*
X4162000Y-12789000D01*
X4162000Y-12749000D02*
X4122000Y-12789000D01*
X4175000Y-7034000D02*
X4215000Y-7074000D01*
X4215000Y-7034000D02*
X4175000Y-7074000D01*
X4175000Y-12234000D02*
X4215000Y-12274000D01*
X4215000Y-12234000D02*
X4175000Y-12274000D01*
X5987180Y-3999615D02*
X6027180Y-4039615D01*
X6027180Y-3999615D02*
X5987180Y-4039615D01*
X6060385Y-3487180D02*
X6100385Y-3527180D01*
X6100385Y-3487180D02*
X6060385Y-3527180D01*
X6180000Y-4480000D02*
X6220000Y-4520000D01*
X6220000Y-4480000D02*
X6180000Y-4520000D01*
X6380000Y-3080000D02*
X6420000Y-3120000D01*
X6420000Y-3080000D02*
X6380000Y-3120000D01*
X6587180Y-4799615D02*
X6627180Y-4839615D01*
X6627180Y-4799615D02*
X6587180Y-4839615D01*
X6860385Y-2887180D02*
X6900385Y-2927180D01*
X6900385Y-2887180D02*
X6860385Y-2927180D01*
X7030000Y-3130000D02*
X7070000Y-3170000D01*
X7070000Y-3130000D02*
X7030000Y-3170000D01*
X7099615Y-4872820D02*
X7139615Y-4912820D01*
X7139615Y-4872820D02*
X7099615Y-4912820D01*
X7220000Y-3050000D02*
X7260000Y-3090000D01*
X7260000Y-3050000D02*
X7220000Y-3090000D01*
X7372820Y-2960385D02*
X7412820Y-3000385D01*
X7412820Y-2960385D02*
X7372820Y-3000385D01*
X7580000Y-4674000D02*
X7620000Y-4714000D01*
X7620000Y-4674000D02*
X7580000Y-4714000D01*
X7780000Y-3280000D02*
X7820000Y-3320000D01*
X7820000Y-3280000D02*
X7780000Y-3320000D01*
X7922000Y-4249000D02*
X7962000Y-4289000D01*
X7962000Y-4249000D02*
X7922000Y-4289000D01*
X7975000Y-3734000D02*
X8015000Y-3774000D01*
X8015000Y-3734000D02*
X7975000Y-3774000D01*
X9380000Y-3630000D02*
X9420000Y-3670000D01*
X9420000Y-3630000D02*
X9380000Y-3670000D01*
X9687180Y-7299615D02*
X9727180Y-7339615D01*
X9727180Y-7299615D02*
X9687180Y-7339615D01*
X9687180Y-12499615D02*
X9727180Y-12539615D01*
X9727180Y-12499615D02*
X9687180Y-12539615D01*
X9760000Y-3550000D02*
X9800000Y-3590000D01*
X9800000Y-3550000D02*
X9760000Y-3590000D01*
X9760385Y-6787180D02*
X9800385Y-6827180D01*
X9800385Y-6787180D02*
X9760385Y-6827180D01*
X9760385Y-11987180D02*
X9800385Y-12027180D01*
X9800385Y-11987180D02*
X9760385Y-12027180D01*
X9880000Y-7780000D02*
X9920000Y-7820000D01*
X9920000Y-7780000D02*
X9880000Y-7820000D01*
X9880000Y-12980000D02*
X9920000Y-13020000D01*
X9920000Y-12980000D02*
X9880000Y-13020000D01*
X10080000Y-6380000D02*
X10120000Y-6420000D01*
X10120000Y-6380000D02*
X10080000Y-6420000D01*
X10080000Y-11580000D02*
X10120000Y-11620000D01*
X10120000Y-11580000D02*
X10080000Y-11620000D01*
X10287180Y-8099615D02*
X10327180Y-8139615D01*
X10327180Y-8099615D02*
X10287180Y-8139615D01*
X10287180Y-13299615D02*
X10327180Y-13339615D01*
X10327180Y-13299615D02*
X10287180Y-13339615D01*
X10560385Y-6187180D02*
X10600385Y-6227180D01*
X10600385Y-6187180D02*
X10560385Y-6227180D01*
X10560385Y-11387180D02*
X10600385Y-11427180D01*
X10600385Y-11387180D02*
X10560385Y-11427180D01*
X10730000Y-6430000D02*
X10770000Y-6470000D01*
X10770000Y-6430000D02*
X10730000Y-6470000D01*
X10730000Y-11630000D02*
X10770000Y-11670000D01*
X10770000Y-11630000D02*
X10730000Y-11670000D01*
X10799615Y-8172820D02*
X10839615Y-8212820D01*
X10839615Y-8172820D02*
X10799615Y-8212820D01*
X10799615Y-13372820D02*
X10839615Y-13412820D01*
X10839615Y-13372820D02*
X10799615Y-13412820D01*
X10880000Y-3230000D02*
X10920000Y-3270000D01*
X10920000Y-3230000D02*
X10880000Y-3270000D01*
X10880000Y-3830000D02*
X10920000Y-3870000D01*
X10920000Y-3830000D02*
X10880000Y-3870000D01*
X10920000Y-6350000D02*
X10960000Y-6390000D01*
X10960000Y-6350000D02*
X10920000Y-6390000D01*
X10920000Y-11550000D02*
X10960000Y-11590000D01*
X10960000Y-11550000D02*
X10920000Y-11590000D01*
X10950000Y-3530000D02*
X10990000Y-3570000D01*
X10990000Y-3530000D02*
X10950000Y-3570000D01*
X11072820Y-6260385D02*
X11112820Y-6300385D01*
X11112820Y-6260385D02*
X11072820Y-6300385D01*
X11072820Y-11460385D02*
X11112820Y-11500385D01*
X11112820Y-11460385D02*
X11072820Y-11500385D01*
X11280000Y-7974000D02*
X11320000Y-8014000D01*
X11320000Y-7974000D02*
X11280000Y-8014000D01*
X11280000Y-13174000D02*
X11320000Y-13214000D01*
X11320000Y-13174000D02*
X11280000Y-13214000D01*
X11480000Y-6580000D02*
X11520000Y-6620000D01*
X11520000Y-6580000D02*
X11480000Y-6620000D01*
X11480000Y-11780000D02*
X11520000Y-11820000D01*
X11520000Y-11780000D02*
X11480000Y-11820000D01*
X11622000Y-7549000D02*
X11662000Y-7589000D01*
X11662000Y-7549000D02*
X11622000Y-7589000D01*
X11622000Y-12749000D02*
X11662000Y-12789000D01*
X11662000Y-12749000D02*
X11622000Y-12789000D01*
X11675000Y-7034000D02*
X11715000Y-7074000D01*
X11715000Y-7034000D02*
X11675000Y-7074000D01*
X11675000Y-12234000D02*
X11715000Y-12274000D01*
X11715000Y-12234000D02*
X11675000Y-12274000D01*
X11759500Y-7320000D02*
X11799500Y-7360000D01*
X11799500Y-7320000D02*
X11759500Y-7360000D01*
X11880000Y-3630000D02*
X11920000Y-3670000D01*
X11920000Y-3630000D02*
X11880000Y-3670000D01*
X11900500Y-7340000D02*
X11940500Y-7380000D01*
X11940500Y-7340000D02*
X11900500Y-7380000D01*
X13487180Y-3999615D02*
X13527180Y-4039615D01*
X13527180Y-3999615D02*
X13487180Y-4039615D01*
X13560385Y-3487180D02*
X13600385Y-3527180D01*
X13600385Y-3487180D02*
X13560385Y-3527180D01*
X13680000Y-4480000D02*
X13720000Y-4520000D01*
X13720000Y-4480000D02*
X13680000Y-4520000D01*
X13880000Y-3080000D02*
X13920000Y-3120000D01*
X13920000Y-3080000D02*
X13880000Y-3120000D01*
X14087180Y-4799615D02*
X14127180Y-4839615D01*
X14127180Y-4799615D02*
X14087180Y-4839615D01*
X14360385Y-2887180D02*
X14400385Y-2927180D01*
X14400385Y-2887180D02*
X14360385Y-2927180D01*
X14530000Y-3150000D02*
X14570000Y-3190000D01*
X14570000Y-3150000D02*
X14530000Y-3190000D01*
X14599615Y-4872820D02*
X14639615Y-4912820D01*
X14639615Y-4872820D02*
X14599615Y-4912820D01*
X14720000Y-3050000D02*
X14760000Y-3090000D01*
X14760000Y-3050000D02*
X14720000Y-3090000D01*
X14872820Y-2960385D02*
X14912820Y-3000385D01*
X14912820Y-2960385D02*
X14872820Y-3000385D01*
X15080000Y-4674000D02*
X15120000Y-4714000D01*
X15120000Y-4674000D02*
X15080000Y-4714000D01*
X15280000Y-3280000D02*
X15320000Y-3320000D01*
X15320000Y-3280000D02*
X15280000Y-3320000D01*
X15422000Y-4249000D02*
X15462000Y-4289000D01*
X15462000Y-4249000D02*
X15422000Y-4289000D01*
X15475000Y-3734000D02*
X15515000Y-3774000D01*
X15515000Y-3734000D02*
X15475000Y-3774000D01*
X17187180Y-7299615D02*
X17227180Y-7339615D01*
X17227180Y-7299615D02*
X17187180Y-7339615D01*
X17187180Y-12499615D02*
X17227180Y-12539615D01*
X17227180Y-12499615D02*
X17187180Y-12539615D01*
X17260385Y-6787180D02*
X17300385Y-6827180D01*
X17300385Y-6787180D02*
X17260385Y-6827180D01*
X17260385Y-11987180D02*
X17300385Y-12027180D01*
X17300385Y-11987180D02*
X17260385Y-12027180D01*
X17380000Y-7780000D02*
X17420000Y-7820000D01*
X17420000Y-7780000D02*
X17380000Y-7820000D01*
X17380000Y-12980000D02*
X17420000Y-13020000D01*
X17420000Y-12980000D02*
X17380000Y-13020000D01*
X17580000Y-6380000D02*
X17620000Y-6420000D01*
X17620000Y-6380000D02*
X17580000Y-6420000D01*
X17580000Y-11580000D02*
X17620000Y-11620000D01*
X17620000Y-11580000D02*
X17580000Y-11620000D01*
X17787180Y-8099615D02*
X17827180Y-8139615D01*
X17827180Y-8099615D02*
X17787180Y-8139615D01*
X17787180Y-13299615D02*
X17827180Y-13339615D01*
X17827180Y-13299615D02*
X17787180Y-13339615D01*
X18060385Y-6187180D02*
X18100385Y-6227180D01*
X18100385Y-6187180D02*
X18060385Y-6227180D01*
X18060385Y-11387180D02*
X18100385Y-11427180D01*
X18100385Y-11387180D02*
X18060385Y-11427180D01*
X18230000Y-6440000D02*
X18270000Y-6480000D01*
X18270000Y-6440000D02*
X18230000Y-6480000D01*
X18230000Y-11660000D02*
X18270000Y-11700000D01*
X18270000Y-11660000D02*
X18230000Y-11700000D01*
X18299615Y-8172820D02*
X18339615Y-8212820D01*
X18339615Y-8172820D02*
X18299615Y-8212820D01*
X18299615Y-13372820D02*
X18339615Y-13412820D01*
X18339615Y-13372820D02*
X18299615Y-13412820D01*
X18420000Y-6350000D02*
X18460000Y-6390000D01*
X18460000Y-6350000D02*
X18420000Y-6390000D01*
X18420000Y-11550000D02*
X18460000Y-11590000D01*
X18460000Y-11550000D02*
X18420000Y-11590000D01*
X18572820Y-6260385D02*
X18612820Y-6300385D01*
X18612820Y-6260385D02*
X18572820Y-6300385D01*
X18572820Y-11460385D02*
X18612820Y-11500385D01*
X18612820Y-11460385D02*
X18572820Y-11500385D01*
X18740000Y-6050000D02*
X18780000Y-6090000D01*
X18780000Y-6050000D02*
X18740000Y-6090000D01*
X18780000Y-7974000D02*
X18820000Y-8014000D01*
X18820000Y-7974000D02*
X18780000Y-8014000D01*
X18780000Y-13174000D02*
X18820000Y-13214000D01*
X18820000Y-13174000D02*
X18780000Y-13214000D01*
X18980000Y-6580000D02*
X19020000Y-6620000D01*
X19020000Y-6580000D02*
X18980000Y-6620000D01*
X18980000Y-11780000D02*
X19020000Y-11820000D01*
X19020000Y-11780000D02*
X18980000Y-11820000D01*
X18990000Y-6050000D02*
X19030000Y-6090000D01*
X19030000Y-6050000D02*
X18990000Y-6090000D01*
X19122000Y-7549000D02*
X19162000Y-7589000D01*
X19162000Y-7549000D02*
X19122000Y-7589000D01*
X19122000Y-12749000D02*
X19162000Y-12789000D01*
X19162000Y-12749000D02*
X19122000Y-12789000D01*
X19175000Y-7034000D02*
X19215000Y-7074000D01*
X19215000Y-7034000D02*
X19175000Y-7074000D01*
X19175000Y-12234000D02*
X19215000Y-12274000D01*
X19215000Y-12234000D02*
X19175000Y-12274000D01*
D11*
X2255777Y-13916484D02*
X2255777Y-13716484D01*
X2255777Y-13716484D02*
X2303396Y-13716484D01*
X2303396Y-13716484D02*
X2331967Y-13726008D01*
X2331967Y-13726008D02*
X2351015Y-13745055D01*
X2351015Y-13745055D02*
X2360539Y-13764103D01*
X2360539Y-13764103D02*
X2370063Y-13802198D01*
X2370063Y-13802198D02*
X2370063Y-13830769D01*
X2370063Y-13830769D02*
X2360539Y-13868865D01*
X2360539Y-13868865D02*
X2351015Y-13887912D01*
X2351015Y-13887912D02*
X2331967Y-13906960D01*
X2331967Y-13906960D02*
X2303396Y-13916484D01*
X2303396Y-13916484D02*
X2255777Y-13916484D01*
X2455777Y-13916484D02*
X2455777Y-13783150D01*
X2455777Y-13821246D02*
X2465301Y-13802198D01*
X2465301Y-13802198D02*
X2474824Y-13792674D01*
X2474824Y-13792674D02*
X2493872Y-13783150D01*
X2493872Y-13783150D02*
X2512920Y-13783150D01*
X2579586Y-13916484D02*
X2579586Y-13783150D01*
X2579586Y-13716484D02*
X2570063Y-13726008D01*
X2570063Y-13726008D02*
X2579586Y-13735531D01*
X2579586Y-13735531D02*
X2589110Y-13726008D01*
X2589110Y-13726008D02*
X2579586Y-13716484D01*
X2579586Y-13716484D02*
X2579586Y-13735531D01*
X2703396Y-13916484D02*
X2684348Y-13906960D01*
X2684348Y-13906960D02*
X2674824Y-13887912D01*
X2674824Y-13887912D02*
X2674824Y-13716484D01*
X2808158Y-13916484D02*
X2789110Y-13906960D01*
X2789110Y-13906960D02*
X2779586Y-13887912D01*
X2779586Y-13887912D02*
X2779586Y-13716484D01*
X3036729Y-13916484D02*
X3036729Y-13716484D01*
X3036729Y-13716484D02*
X3103396Y-13859341D01*
X3103396Y-13859341D02*
X3170062Y-13716484D01*
X3170062Y-13716484D02*
X3170062Y-13916484D01*
X3351015Y-13916484D02*
X3351015Y-13811722D01*
X3351015Y-13811722D02*
X3341491Y-13792674D01*
X3341491Y-13792674D02*
X3322443Y-13783150D01*
X3322443Y-13783150D02*
X3284348Y-13783150D01*
X3284348Y-13783150D02*
X3265301Y-13792674D01*
X3351015Y-13906960D02*
X3331967Y-13916484D01*
X3331967Y-13916484D02*
X3284348Y-13916484D01*
X3284348Y-13916484D02*
X3265301Y-13906960D01*
X3265301Y-13906960D02*
X3255777Y-13887912D01*
X3255777Y-13887912D02*
X3255777Y-13868865D01*
X3255777Y-13868865D02*
X3265301Y-13849817D01*
X3265301Y-13849817D02*
X3284348Y-13840293D01*
X3284348Y-13840293D02*
X3331967Y-13840293D01*
X3331967Y-13840293D02*
X3351015Y-13830769D01*
X3446253Y-13783150D02*
X3446253Y-13983150D01*
X3446253Y-13792674D02*
X3465301Y-13783150D01*
X3465301Y-13783150D02*
X3503396Y-13783150D01*
X3503396Y-13783150D02*
X3522443Y-13792674D01*
X3522443Y-13792674D02*
X3531967Y-13802198D01*
X3531967Y-13802198D02*
X3541491Y-13821246D01*
X3541491Y-13821246D02*
X3541491Y-13878388D01*
X3541491Y-13878388D02*
X3531967Y-13897436D01*
X3531967Y-13897436D02*
X3522443Y-13906960D01*
X3522443Y-13906960D02*
X3503396Y-13916484D01*
X3503396Y-13916484D02*
X3465301Y-13916484D01*
X3465301Y-13916484D02*
X3446253Y-13906960D01*
X3627205Y-13897436D02*
X3636729Y-13906960D01*
X3636729Y-13906960D02*
X3627205Y-13916484D01*
X3627205Y-13916484D02*
X3617682Y-13906960D01*
X3617682Y-13906960D02*
X3627205Y-13897436D01*
X3627205Y-13897436D02*
X3627205Y-13916484D01*
X3627205Y-13792674D02*
X3636729Y-13802198D01*
X3636729Y-13802198D02*
X3627205Y-13811722D01*
X3627205Y-13811722D02*
X3617682Y-13802198D01*
X3617682Y-13802198D02*
X3627205Y-13792674D01*
X3627205Y-13792674D02*
X3627205Y-13811722D01*
D10*
X1955000Y-14225000D02*
X1995000Y-14265000D01*
X1995000Y-14225000D02*
X1955000Y-14265000D01*
D11*
X2293872Y-14136484D02*
X2312920Y-14136484D01*
X2312920Y-14136484D02*
X2331967Y-14146008D01*
X2331967Y-14146008D02*
X2341491Y-14155531D01*
X2341491Y-14155531D02*
X2351015Y-14174579D01*
X2351015Y-14174579D02*
X2360539Y-14212674D01*
X2360539Y-14212674D02*
X2360539Y-14260293D01*
X2360539Y-14260293D02*
X2351015Y-14298388D01*
X2351015Y-14298388D02*
X2341491Y-14317436D01*
X2341491Y-14317436D02*
X2331967Y-14326960D01*
X2331967Y-14326960D02*
X2312920Y-14336484D01*
X2312920Y-14336484D02*
X2293872Y-14336484D01*
X2293872Y-14336484D02*
X2274824Y-14326960D01*
X2274824Y-14326960D02*
X2265301Y-14317436D01*
X2265301Y-14317436D02*
X2255777Y-14298388D01*
X2255777Y-14298388D02*
X2246253Y-14260293D01*
X2246253Y-14260293D02*
X2246253Y-14212674D01*
X2246253Y-14212674D02*
X2255777Y-14174579D01*
X2255777Y-14174579D02*
X2265301Y-14155531D01*
X2265301Y-14155531D02*
X2274824Y-14146008D01*
X2274824Y-14146008D02*
X2293872Y-14136484D01*
X2446253Y-14317436D02*
X2455777Y-14326960D01*
X2455777Y-14326960D02*
X2446253Y-14336484D01*
X2446253Y-14336484D02*
X2436729Y-14326960D01*
X2436729Y-14326960D02*
X2446253Y-14317436D01*
X2446253Y-14317436D02*
X2446253Y-14336484D01*
X2627205Y-14203150D02*
X2627205Y-14336484D01*
X2579586Y-14126960D02*
X2531967Y-14269817D01*
X2531967Y-14269817D02*
X2655777Y-14269817D01*
X2770063Y-14136484D02*
X2789110Y-14136484D01*
X2789110Y-14136484D02*
X2808158Y-14146008D01*
X2808158Y-14146008D02*
X2817682Y-14155531D01*
X2817682Y-14155531D02*
X2827205Y-14174579D01*
X2827205Y-14174579D02*
X2836729Y-14212674D01*
X2836729Y-14212674D02*
X2836729Y-14260293D01*
X2836729Y-14260293D02*
X2827205Y-14298388D01*
X2827205Y-14298388D02*
X2817682Y-14317436D01*
X2817682Y-14317436D02*
X2808158Y-14326960D01*
X2808158Y-14326960D02*
X2789110Y-14336484D01*
X2789110Y-14336484D02*
X2770063Y-14336484D01*
X2770063Y-14336484D02*
X2751015Y-14326960D01*
X2751015Y-14326960D02*
X2741491Y-14317436D01*
X2741491Y-14317436D02*
X2731967Y-14298388D01*
X2731967Y-14298388D02*
X2722444Y-14260293D01*
X2722444Y-14260293D02*
X2722444Y-14212674D01*
X2722444Y-14212674D02*
X2731967Y-14174579D01*
X2731967Y-14174579D02*
X2741491Y-14155531D01*
X2741491Y-14155531D02*
X2751015Y-14146008D01*
X2751015Y-14146008D02*
X2770063Y-14136484D01*
X2960539Y-14136484D02*
X2979586Y-14136484D01*
X2979586Y-14136484D02*
X2998634Y-14146008D01*
X2998634Y-14146008D02*
X3008158Y-14155531D01*
X3008158Y-14155531D02*
X3017682Y-14174579D01*
X3017682Y-14174579D02*
X3027205Y-14212674D01*
X3027205Y-14212674D02*
X3027205Y-14260293D01*
X3027205Y-14260293D02*
X3017682Y-14298388D01*
X3017682Y-14298388D02*
X3008158Y-14317436D01*
X3008158Y-14317436D02*
X2998634Y-14326960D01*
X2998634Y-14326960D02*
X2979586Y-14336484D01*
X2979586Y-14336484D02*
X2960539Y-14336484D01*
X2960539Y-14336484D02*
X2941491Y-14326960D01*
X2941491Y-14326960D02*
X2931967Y-14317436D01*
X2931967Y-14317436D02*
X2922443Y-14298388D01*
X2922443Y-14298388D02*
X2912920Y-14260293D01*
X2912920Y-14260293D02*
X2912920Y-14212674D01*
X2912920Y-14212674D02*
X2922443Y-14174579D01*
X2922443Y-14174579D02*
X2931967Y-14155531D01*
X2931967Y-14155531D02*
X2941491Y-14146008D01*
X2941491Y-14146008D02*
X2960539Y-14136484D01*
X3112920Y-14336484D02*
X3112920Y-14203150D01*
X3112920Y-14222198D02*
X3122443Y-14212674D01*
X3122443Y-14212674D02*
X3141491Y-14203150D01*
X3141491Y-14203150D02*
X3170063Y-14203150D01*
X3170063Y-14203150D02*
X3189110Y-14212674D01*
X3189110Y-14212674D02*
X3198634Y-14231722D01*
X3198634Y-14231722D02*
X3198634Y-14336484D01*
X3198634Y-14231722D02*
X3208158Y-14212674D01*
X3208158Y-14212674D02*
X3227205Y-14203150D01*
X3227205Y-14203150D02*
X3255777Y-14203150D01*
X3255777Y-14203150D02*
X3274824Y-14212674D01*
X3274824Y-14212674D02*
X3284348Y-14231722D01*
X3284348Y-14231722D02*
X3284348Y-14336484D01*
X3379586Y-14336484D02*
X3379586Y-14203150D01*
X3379586Y-14222198D02*
X3389110Y-14212674D01*
X3389110Y-14212674D02*
X3408158Y-14203150D01*
X3408158Y-14203150D02*
X3436729Y-14203150D01*
X3436729Y-14203150D02*
X3455777Y-14212674D01*
X3455777Y-14212674D02*
X3465301Y-14231722D01*
X3465301Y-14231722D02*
X3465301Y-14336484D01*
X3465301Y-14231722D02*
X3474824Y-14212674D01*
X3474824Y-14212674D02*
X3493872Y-14203150D01*
X3493872Y-14203150D02*
X3522443Y-14203150D01*
X3522443Y-14203150D02*
X3541491Y-14212674D01*
X3541491Y-14212674D02*
X3551015Y-14231722D01*
X3551015Y-14231722D02*
X3551015Y-14336484D01*
X3941491Y-14126960D02*
X3770063Y-14384103D01*
X4198634Y-14136484D02*
X4217682Y-14136484D01*
X4217682Y-14136484D02*
X4236729Y-14146008D01*
X4236729Y-14146008D02*
X4246253Y-14155531D01*
X4246253Y-14155531D02*
X4255777Y-14174579D01*
X4255777Y-14174579D02*
X4265301Y-14212674D01*
X4265301Y-14212674D02*
X4265301Y-14260293D01*
X4265301Y-14260293D02*
X4255777Y-14298388D01*
X4255777Y-14298388D02*
X4246253Y-14317436D01*
X4246253Y-14317436D02*
X4236729Y-14326960D01*
X4236729Y-14326960D02*
X4217682Y-14336484D01*
X4217682Y-14336484D02*
X4198634Y-14336484D01*
X4198634Y-14336484D02*
X4179586Y-14326960D01*
X4179586Y-14326960D02*
X4170063Y-14317436D01*
X4170063Y-14317436D02*
X4160539Y-14298388D01*
X4160539Y-14298388D02*
X4151015Y-14260293D01*
X4151015Y-14260293D02*
X4151015Y-14212674D01*
X4151015Y-14212674D02*
X4160539Y-14174579D01*
X4160539Y-14174579D02*
X4170063Y-14155531D01*
X4170063Y-14155531D02*
X4179586Y-14146008D01*
X4179586Y-14146008D02*
X4198634Y-14136484D01*
X4351015Y-14317436D02*
X4360539Y-14326960D01*
X4360539Y-14326960D02*
X4351015Y-14336484D01*
X4351015Y-14336484D02*
X4341491Y-14326960D01*
X4341491Y-14326960D02*
X4351015Y-14317436D01*
X4351015Y-14317436D02*
X4351015Y-14336484D01*
X4484348Y-14136484D02*
X4503396Y-14136484D01*
X4503396Y-14136484D02*
X4522444Y-14146008D01*
X4522444Y-14146008D02*
X4531968Y-14155531D01*
X4531968Y-14155531D02*
X4541491Y-14174579D01*
X4541491Y-14174579D02*
X4551015Y-14212674D01*
X4551015Y-14212674D02*
X4551015Y-14260293D01*
X4551015Y-14260293D02*
X4541491Y-14298388D01*
X4541491Y-14298388D02*
X4531968Y-14317436D01*
X4531968Y-14317436D02*
X4522444Y-14326960D01*
X4522444Y-14326960D02*
X4503396Y-14336484D01*
X4503396Y-14336484D02*
X4484348Y-14336484D01*
X4484348Y-14336484D02*
X4465301Y-14326960D01*
X4465301Y-14326960D02*
X4455777Y-14317436D01*
X4455777Y-14317436D02*
X4446253Y-14298388D01*
X4446253Y-14298388D02*
X4436729Y-14260293D01*
X4436729Y-14260293D02*
X4436729Y-14212674D01*
X4436729Y-14212674D02*
X4446253Y-14174579D01*
X4446253Y-14174579D02*
X4455777Y-14155531D01*
X4455777Y-14155531D02*
X4465301Y-14146008D01*
X4465301Y-14146008D02*
X4484348Y-14136484D01*
X4741491Y-14336484D02*
X4627206Y-14336484D01*
X4684348Y-14336484D02*
X4684348Y-14136484D01*
X4684348Y-14136484D02*
X4665301Y-14165055D01*
X4665301Y-14165055D02*
X4646253Y-14184103D01*
X4646253Y-14184103D02*
X4627206Y-14193627D01*
X4922444Y-14136484D02*
X4827206Y-14136484D01*
X4827206Y-14136484D02*
X4817682Y-14231722D01*
X4817682Y-14231722D02*
X4827206Y-14222198D01*
X4827206Y-14222198D02*
X4846253Y-14212674D01*
X4846253Y-14212674D02*
X4893872Y-14212674D01*
X4893872Y-14212674D02*
X4912920Y-14222198D01*
X4912920Y-14222198D02*
X4922444Y-14231722D01*
X4922444Y-14231722D02*
X4931968Y-14250769D01*
X4931968Y-14250769D02*
X4931968Y-14298388D01*
X4931968Y-14298388D02*
X4922444Y-14317436D01*
X4922444Y-14317436D02*
X4912920Y-14326960D01*
X4912920Y-14326960D02*
X4893872Y-14336484D01*
X4893872Y-14336484D02*
X4846253Y-14336484D01*
X4846253Y-14336484D02*
X4827206Y-14326960D01*
X4827206Y-14326960D02*
X4817682Y-14317436D01*
X4998634Y-14136484D02*
X5131968Y-14136484D01*
X5131968Y-14136484D02*
X5046253Y-14336484D01*
X5198634Y-14136484D02*
X5198634Y-14174579D01*
X5274825Y-14136484D02*
X5274825Y-14174579D01*
X5570063Y-14412674D02*
X5560539Y-14403150D01*
X5560539Y-14403150D02*
X5541491Y-14374579D01*
X5541491Y-14374579D02*
X5531968Y-14355531D01*
X5531968Y-14355531D02*
X5522444Y-14326960D01*
X5522444Y-14326960D02*
X5512920Y-14279341D01*
X5512920Y-14279341D02*
X5512920Y-14241246D01*
X5512920Y-14241246D02*
X5522444Y-14193627D01*
X5522444Y-14193627D02*
X5531968Y-14165055D01*
X5531968Y-14165055D02*
X5541491Y-14146008D01*
X5541491Y-14146008D02*
X5560539Y-14117436D01*
X5560539Y-14117436D02*
X5570063Y-14107912D01*
X5751015Y-14336484D02*
X5636729Y-14336484D01*
X5693872Y-14336484D02*
X5693872Y-14136484D01*
X5693872Y-14136484D02*
X5674825Y-14165055D01*
X5674825Y-14165055D02*
X5655777Y-14184103D01*
X5655777Y-14184103D02*
X5636729Y-14193627D01*
X5827206Y-14155531D02*
X5836729Y-14146008D01*
X5836729Y-14146008D02*
X5855777Y-14136484D01*
X5855777Y-14136484D02*
X5903396Y-14136484D01*
X5903396Y-14136484D02*
X5922444Y-14146008D01*
X5922444Y-14146008D02*
X5931968Y-14155531D01*
X5931968Y-14155531D02*
X5941491Y-14174579D01*
X5941491Y-14174579D02*
X5941491Y-14193627D01*
X5941491Y-14193627D02*
X5931968Y-14222198D01*
X5931968Y-14222198D02*
X5817682Y-14336484D01*
X5817682Y-14336484D02*
X5941491Y-14336484D01*
X6008158Y-14136484D02*
X6141491Y-14136484D01*
X6141491Y-14136484D02*
X6055777Y-14336484D01*
X6370063Y-14336484D02*
X6370063Y-14136484D01*
X6455777Y-14336484D02*
X6455777Y-14231722D01*
X6455777Y-14231722D02*
X6446253Y-14212674D01*
X6446253Y-14212674D02*
X6427206Y-14203150D01*
X6427206Y-14203150D02*
X6398634Y-14203150D01*
X6398634Y-14203150D02*
X6379587Y-14212674D01*
X6379587Y-14212674D02*
X6370063Y-14222198D01*
X6579587Y-14336484D02*
X6560539Y-14326960D01*
X6560539Y-14326960D02*
X6551015Y-14317436D01*
X6551015Y-14317436D02*
X6541491Y-14298388D01*
X6541491Y-14298388D02*
X6541491Y-14241246D01*
X6541491Y-14241246D02*
X6551015Y-14222198D01*
X6551015Y-14222198D02*
X6560539Y-14212674D01*
X6560539Y-14212674D02*
X6579587Y-14203150D01*
X6579587Y-14203150D02*
X6608158Y-14203150D01*
X6608158Y-14203150D02*
X6627206Y-14212674D01*
X6627206Y-14212674D02*
X6636730Y-14222198D01*
X6636730Y-14222198D02*
X6646253Y-14241246D01*
X6646253Y-14241246D02*
X6646253Y-14298388D01*
X6646253Y-14298388D02*
X6636730Y-14317436D01*
X6636730Y-14317436D02*
X6627206Y-14326960D01*
X6627206Y-14326960D02*
X6608158Y-14336484D01*
X6608158Y-14336484D02*
X6579587Y-14336484D01*
X6760539Y-14336484D02*
X6741491Y-14326960D01*
X6741491Y-14326960D02*
X6731968Y-14307912D01*
X6731968Y-14307912D02*
X6731968Y-14136484D01*
X6912920Y-14326960D02*
X6893872Y-14336484D01*
X6893872Y-14336484D02*
X6855777Y-14336484D01*
X6855777Y-14336484D02*
X6836730Y-14326960D01*
X6836730Y-14326960D02*
X6827206Y-14307912D01*
X6827206Y-14307912D02*
X6827206Y-14231722D01*
X6827206Y-14231722D02*
X6836730Y-14212674D01*
X6836730Y-14212674D02*
X6855777Y-14203150D01*
X6855777Y-14203150D02*
X6893872Y-14203150D01*
X6893872Y-14203150D02*
X6912920Y-14212674D01*
X6912920Y-14212674D02*
X6922444Y-14231722D01*
X6922444Y-14231722D02*
X6922444Y-14250769D01*
X6922444Y-14250769D02*
X6827206Y-14269817D01*
X6998634Y-14326960D02*
X7017682Y-14336484D01*
X7017682Y-14336484D02*
X7055777Y-14336484D01*
X7055777Y-14336484D02*
X7074825Y-14326960D01*
X7074825Y-14326960D02*
X7084349Y-14307912D01*
X7084349Y-14307912D02*
X7084349Y-14298388D01*
X7084349Y-14298388D02*
X7074825Y-14279341D01*
X7074825Y-14279341D02*
X7055777Y-14269817D01*
X7055777Y-14269817D02*
X7027206Y-14269817D01*
X7027206Y-14269817D02*
X7008158Y-14260293D01*
X7008158Y-14260293D02*
X6998634Y-14241246D01*
X6998634Y-14241246D02*
X6998634Y-14231722D01*
X6998634Y-14231722D02*
X7008158Y-14212674D01*
X7008158Y-14212674D02*
X7027206Y-14203150D01*
X7027206Y-14203150D02*
X7055777Y-14203150D01*
X7055777Y-14203150D02*
X7074825Y-14212674D01*
X7151015Y-14412674D02*
X7160539Y-14403150D01*
X7160539Y-14403150D02*
X7179587Y-14374579D01*
X7179587Y-14374579D02*
X7189111Y-14355531D01*
X7189111Y-14355531D02*
X7198634Y-14326960D01*
X7198634Y-14326960D02*
X7208158Y-14279341D01*
X7208158Y-14279341D02*
X7208158Y-14241246D01*
X7208158Y-14241246D02*
X7198634Y-14193627D01*
X7198634Y-14193627D02*
X7189111Y-14165055D01*
X7189111Y-14165055D02*
X7179587Y-14146008D01*
X7179587Y-14146008D02*
X7160539Y-14117436D01*
X7160539Y-14117436D02*
X7151015Y-14107912D01*
M02*
