%TF.GenerationSoftware,KiCad,Pcbnew,8.0.4+1*%
%TF.CreationDate,2024-10-06T12:55:23+00:00*%
%TF.ProjectId,pedalboard-display,70656461-6c62-46f6-9172-642d64697370,0.0.0-RC1*%
%TF.SameCoordinates,Original*%
%TF.FileFunction,AssemblyDrawing,Bot*%
%FSLAX46Y46*%
G04 Gerber Fmt 4.6, Leading zero omitted, Abs format (unit mm)*
G04 Created by KiCad (PCBNEW 8.0.4+1) date 2024-10-06 12:55:23*
%MOMM*%
%LPD*%
G01*
G04 APERTURE LIST*
%ADD10C,0.150000*%
%ADD11C,0.100000*%
G04 APERTURE END LIST*
D10*
X70239904Y-75327619D02*
X70239904Y-76137142D01*
X70239904Y-76137142D02*
X70192285Y-76232380D01*
X70192285Y-76232380D02*
X70144666Y-76280000D01*
X70144666Y-76280000D02*
X70049428Y-76327619D01*
X70049428Y-76327619D02*
X69858952Y-76327619D01*
X69858952Y-76327619D02*
X69763714Y-76280000D01*
X69763714Y-76280000D02*
X69716095Y-76232380D01*
X69716095Y-76232380D02*
X69668476Y-76137142D01*
X69668476Y-76137142D02*
X69668476Y-75327619D01*
X68668476Y-76327619D02*
X69239904Y-76327619D01*
X68954190Y-76327619D02*
X68954190Y-75327619D01*
X68954190Y-75327619D02*
X69049428Y-75470476D01*
X69049428Y-75470476D02*
X69144666Y-75565714D01*
X69144666Y-75565714D02*
X69239904Y-75613333D01*
X145239904Y-75327619D02*
X145239904Y-76137142D01*
X145239904Y-76137142D02*
X145192285Y-76232380D01*
X145192285Y-76232380D02*
X145144666Y-76280000D01*
X145144666Y-76280000D02*
X145049428Y-76327619D01*
X145049428Y-76327619D02*
X144858952Y-76327619D01*
X144858952Y-76327619D02*
X144763714Y-76280000D01*
X144763714Y-76280000D02*
X144716095Y-76232380D01*
X144716095Y-76232380D02*
X144668476Y-76137142D01*
X144668476Y-76137142D02*
X144668476Y-75327619D01*
X144239904Y-75422857D02*
X144192285Y-75375238D01*
X144192285Y-75375238D02*
X144097047Y-75327619D01*
X144097047Y-75327619D02*
X143858952Y-75327619D01*
X143858952Y-75327619D02*
X143763714Y-75375238D01*
X143763714Y-75375238D02*
X143716095Y-75422857D01*
X143716095Y-75422857D02*
X143668476Y-75518095D01*
X143668476Y-75518095D02*
X143668476Y-75613333D01*
X143668476Y-75613333D02*
X143716095Y-75756190D01*
X143716095Y-75756190D02*
X144287523Y-76327619D01*
X144287523Y-76327619D02*
X143668476Y-76327619D01*
X145452380Y-71904819D02*
X145261904Y-71904819D01*
X145261904Y-71904819D02*
X145166666Y-71952438D01*
X145166666Y-71952438D02*
X145071428Y-72047676D01*
X145071428Y-72047676D02*
X145023809Y-72238152D01*
X145023809Y-72238152D02*
X145023809Y-72571485D01*
X145023809Y-72571485D02*
X145071428Y-72761961D01*
X145071428Y-72761961D02*
X145166666Y-72857200D01*
X145166666Y-72857200D02*
X145261904Y-72904819D01*
X145261904Y-72904819D02*
X145452380Y-72904819D01*
X145452380Y-72904819D02*
X145547618Y-72857200D01*
X145547618Y-72857200D02*
X145642856Y-72761961D01*
X145642856Y-72761961D02*
X145690475Y-72571485D01*
X145690475Y-72571485D02*
X145690475Y-72238152D01*
X145690475Y-72238152D02*
X145642856Y-72047676D01*
X145642856Y-72047676D02*
X145547618Y-71952438D01*
X145547618Y-71952438D02*
X145452380Y-71904819D01*
X144119047Y-72904819D02*
X144595237Y-72904819D01*
X144595237Y-72904819D02*
X144595237Y-71904819D01*
X143785713Y-72381009D02*
X143452380Y-72381009D01*
X143309523Y-72904819D02*
X143785713Y-72904819D01*
X143785713Y-72904819D02*
X143785713Y-71904819D01*
X143785713Y-71904819D02*
X143309523Y-71904819D01*
X142880951Y-72904819D02*
X142880951Y-71904819D01*
X142880951Y-71904819D02*
X142642856Y-71904819D01*
X142642856Y-71904819D02*
X142499999Y-71952438D01*
X142499999Y-71952438D02*
X142404761Y-72047676D01*
X142404761Y-72047676D02*
X142357142Y-72142914D01*
X142357142Y-72142914D02*
X142309523Y-72333390D01*
X142309523Y-72333390D02*
X142309523Y-72476247D01*
X142309523Y-72476247D02*
X142357142Y-72666723D01*
X142357142Y-72666723D02*
X142404761Y-72761961D01*
X142404761Y-72761961D02*
X142499999Y-72857200D01*
X142499999Y-72857200D02*
X142642856Y-72904819D01*
X142642856Y-72904819D02*
X142880951Y-72904819D01*
X144333333Y-66454819D02*
X144333333Y-67169104D01*
X144333333Y-67169104D02*
X144380952Y-67311961D01*
X144380952Y-67311961D02*
X144476190Y-67407200D01*
X144476190Y-67407200D02*
X144619047Y-67454819D01*
X144619047Y-67454819D02*
X144714285Y-67454819D01*
X143952380Y-66454819D02*
X143333333Y-66454819D01*
X143333333Y-66454819D02*
X143666666Y-66835771D01*
X143666666Y-66835771D02*
X143523809Y-66835771D01*
X143523809Y-66835771D02*
X143428571Y-66883390D01*
X143428571Y-66883390D02*
X143380952Y-66931009D01*
X143380952Y-66931009D02*
X143333333Y-67026247D01*
X143333333Y-67026247D02*
X143333333Y-67264342D01*
X143333333Y-67264342D02*
X143380952Y-67359580D01*
X143380952Y-67359580D02*
X143428571Y-67407200D01*
X143428571Y-67407200D02*
X143523809Y-67454819D01*
X143523809Y-67454819D02*
X143809523Y-67454819D01*
X143809523Y-67454819D02*
X143904761Y-67407200D01*
X143904761Y-67407200D02*
X143952380Y-67359580D01*
X29509580Y-105690475D02*
X29557200Y-105642856D01*
X29557200Y-105642856D02*
X29604819Y-105499999D01*
X29604819Y-105499999D02*
X29604819Y-105404761D01*
X29604819Y-105404761D02*
X29557200Y-105261904D01*
X29557200Y-105261904D02*
X29461961Y-105166666D01*
X29461961Y-105166666D02*
X29366723Y-105119047D01*
X29366723Y-105119047D02*
X29176247Y-105071428D01*
X29176247Y-105071428D02*
X29033390Y-105071428D01*
X29033390Y-105071428D02*
X28842914Y-105119047D01*
X28842914Y-105119047D02*
X28747676Y-105166666D01*
X28747676Y-105166666D02*
X28652438Y-105261904D01*
X28652438Y-105261904D02*
X28604819Y-105404761D01*
X28604819Y-105404761D02*
X28604819Y-105499999D01*
X28604819Y-105499999D02*
X28652438Y-105642856D01*
X28652438Y-105642856D02*
X28700057Y-105690475D01*
X29604819Y-106261904D02*
X29557200Y-106166666D01*
X29557200Y-106166666D02*
X29509580Y-106119047D01*
X29509580Y-106119047D02*
X29414342Y-106071428D01*
X29414342Y-106071428D02*
X29128628Y-106071428D01*
X29128628Y-106071428D02*
X29033390Y-106119047D01*
X29033390Y-106119047D02*
X28985771Y-106166666D01*
X28985771Y-106166666D02*
X28938152Y-106261904D01*
X28938152Y-106261904D02*
X28938152Y-106404761D01*
X28938152Y-106404761D02*
X28985771Y-106499999D01*
X28985771Y-106499999D02*
X29033390Y-106547618D01*
X29033390Y-106547618D02*
X29128628Y-106595237D01*
X29128628Y-106595237D02*
X29414342Y-106595237D01*
X29414342Y-106595237D02*
X29509580Y-106547618D01*
X29509580Y-106547618D02*
X29557200Y-106499999D01*
X29557200Y-106499999D02*
X29604819Y-106404761D01*
X29604819Y-106404761D02*
X29604819Y-106261904D01*
X28938152Y-107023809D02*
X29604819Y-107023809D01*
X29033390Y-107023809D02*
X28985771Y-107071428D01*
X28985771Y-107071428D02*
X28938152Y-107166666D01*
X28938152Y-107166666D02*
X28938152Y-107309523D01*
X28938152Y-107309523D02*
X28985771Y-107404761D01*
X28985771Y-107404761D02*
X29081009Y-107452380D01*
X29081009Y-107452380D02*
X29604819Y-107452380D01*
X28938152Y-107928571D02*
X29604819Y-107928571D01*
X29033390Y-107928571D02*
X28985771Y-107976190D01*
X28985771Y-107976190D02*
X28938152Y-108071428D01*
X28938152Y-108071428D02*
X28938152Y-108214285D01*
X28938152Y-108214285D02*
X28985771Y-108309523D01*
X28985771Y-108309523D02*
X29081009Y-108357142D01*
X29081009Y-108357142D02*
X29604819Y-108357142D01*
X29700057Y-108595238D02*
X29700057Y-109357142D01*
X28604819Y-109785714D02*
X28604819Y-109880952D01*
X28604819Y-109880952D02*
X28652438Y-109976190D01*
X28652438Y-109976190D02*
X28700057Y-110023809D01*
X28700057Y-110023809D02*
X28795295Y-110071428D01*
X28795295Y-110071428D02*
X28985771Y-110119047D01*
X28985771Y-110119047D02*
X29223866Y-110119047D01*
X29223866Y-110119047D02*
X29414342Y-110071428D01*
X29414342Y-110071428D02*
X29509580Y-110023809D01*
X29509580Y-110023809D02*
X29557200Y-109976190D01*
X29557200Y-109976190D02*
X29604819Y-109880952D01*
X29604819Y-109880952D02*
X29604819Y-109785714D01*
X29604819Y-109785714D02*
X29557200Y-109690476D01*
X29557200Y-109690476D02*
X29509580Y-109642857D01*
X29509580Y-109642857D02*
X29414342Y-109595238D01*
X29414342Y-109595238D02*
X29223866Y-109547619D01*
X29223866Y-109547619D02*
X28985771Y-109547619D01*
X28985771Y-109547619D02*
X28795295Y-109595238D01*
X28795295Y-109595238D02*
X28700057Y-109642857D01*
X28700057Y-109642857D02*
X28652438Y-109690476D01*
X28652438Y-109690476D02*
X28604819Y-109785714D01*
X29604819Y-111071428D02*
X29604819Y-110500000D01*
X29604819Y-110785714D02*
X28604819Y-110785714D01*
X28604819Y-110785714D02*
X28747676Y-110690476D01*
X28747676Y-110690476D02*
X28842914Y-110595238D01*
X28842914Y-110595238D02*
X28890533Y-110500000D01*
X29604819Y-111404762D02*
X28938152Y-111928571D01*
X28938152Y-111404762D02*
X29604819Y-111928571D01*
X28604819Y-112500000D02*
X28604819Y-112595238D01*
X28604819Y-112595238D02*
X28652438Y-112690476D01*
X28652438Y-112690476D02*
X28700057Y-112738095D01*
X28700057Y-112738095D02*
X28795295Y-112785714D01*
X28795295Y-112785714D02*
X28985771Y-112833333D01*
X28985771Y-112833333D02*
X29223866Y-112833333D01*
X29223866Y-112833333D02*
X29414342Y-112785714D01*
X29414342Y-112785714D02*
X29509580Y-112738095D01*
X29509580Y-112738095D02*
X29557200Y-112690476D01*
X29557200Y-112690476D02*
X29604819Y-112595238D01*
X29604819Y-112595238D02*
X29604819Y-112500000D01*
X29604819Y-112500000D02*
X29557200Y-112404762D01*
X29557200Y-112404762D02*
X29509580Y-112357143D01*
X29509580Y-112357143D02*
X29414342Y-112309524D01*
X29414342Y-112309524D02*
X29223866Y-112261905D01*
X29223866Y-112261905D02*
X28985771Y-112261905D01*
X28985771Y-112261905D02*
X28795295Y-112309524D01*
X28795295Y-112309524D02*
X28700057Y-112357143D01*
X28700057Y-112357143D02*
X28652438Y-112404762D01*
X28652438Y-112404762D02*
X28604819Y-112500000D01*
X28604819Y-113166667D02*
X28604819Y-113785714D01*
X28604819Y-113785714D02*
X28985771Y-113452381D01*
X28985771Y-113452381D02*
X28985771Y-113595238D01*
X28985771Y-113595238D02*
X29033390Y-113690476D01*
X29033390Y-113690476D02*
X29081009Y-113738095D01*
X29081009Y-113738095D02*
X29176247Y-113785714D01*
X29176247Y-113785714D02*
X29414342Y-113785714D01*
X29414342Y-113785714D02*
X29509580Y-113738095D01*
X29509580Y-113738095D02*
X29557200Y-113690476D01*
X29557200Y-113690476D02*
X29604819Y-113595238D01*
X29604819Y-113595238D02*
X29604819Y-113309524D01*
X29604819Y-113309524D02*
X29557200Y-113214286D01*
X29557200Y-113214286D02*
X29509580Y-113166667D01*
X29700057Y-113976191D02*
X29700057Y-114738095D01*
X29604819Y-114976191D02*
X28604819Y-114976191D01*
X28604819Y-114976191D02*
X28604819Y-115357143D01*
X28604819Y-115357143D02*
X28652438Y-115452381D01*
X28652438Y-115452381D02*
X28700057Y-115500000D01*
X28700057Y-115500000D02*
X28795295Y-115547619D01*
X28795295Y-115547619D02*
X28938152Y-115547619D01*
X28938152Y-115547619D02*
X29033390Y-115500000D01*
X29033390Y-115500000D02*
X29081009Y-115452381D01*
X29081009Y-115452381D02*
X29128628Y-115357143D01*
X29128628Y-115357143D02*
X29128628Y-114976191D01*
X29604819Y-115976191D02*
X28938152Y-115976191D01*
X28604819Y-115976191D02*
X28652438Y-115928572D01*
X28652438Y-115928572D02*
X28700057Y-115976191D01*
X28700057Y-115976191D02*
X28652438Y-116023810D01*
X28652438Y-116023810D02*
X28604819Y-115976191D01*
X28604819Y-115976191D02*
X28700057Y-115976191D01*
X28938152Y-116452381D02*
X29604819Y-116452381D01*
X29033390Y-116452381D02*
X28985771Y-116500000D01*
X28985771Y-116500000D02*
X28938152Y-116595238D01*
X28938152Y-116595238D02*
X28938152Y-116738095D01*
X28938152Y-116738095D02*
X28985771Y-116833333D01*
X28985771Y-116833333D02*
X29081009Y-116880952D01*
X29081009Y-116880952D02*
X29604819Y-116880952D01*
X23154819Y-110666666D02*
X23869104Y-110666666D01*
X23869104Y-110666666D02*
X24011961Y-110619047D01*
X24011961Y-110619047D02*
X24107200Y-110523809D01*
X24107200Y-110523809D02*
X24154819Y-110380952D01*
X24154819Y-110380952D02*
X24154819Y-110285714D01*
X23250057Y-111095238D02*
X23202438Y-111142857D01*
X23202438Y-111142857D02*
X23154819Y-111238095D01*
X23154819Y-111238095D02*
X23154819Y-111476190D01*
X23154819Y-111476190D02*
X23202438Y-111571428D01*
X23202438Y-111571428D02*
X23250057Y-111619047D01*
X23250057Y-111619047D02*
X23345295Y-111666666D01*
X23345295Y-111666666D02*
X23440533Y-111666666D01*
X23440533Y-111666666D02*
X23583390Y-111619047D01*
X23583390Y-111619047D02*
X24154819Y-111047619D01*
X24154819Y-111047619D02*
X24154819Y-111666666D01*
X112309524Y-39809580D02*
X112357143Y-39857200D01*
X112357143Y-39857200D02*
X112500000Y-39904819D01*
X112500000Y-39904819D02*
X112595238Y-39904819D01*
X112595238Y-39904819D02*
X112738095Y-39857200D01*
X112738095Y-39857200D02*
X112833333Y-39761961D01*
X112833333Y-39761961D02*
X112880952Y-39666723D01*
X112880952Y-39666723D02*
X112928571Y-39476247D01*
X112928571Y-39476247D02*
X112928571Y-39333390D01*
X112928571Y-39333390D02*
X112880952Y-39142914D01*
X112880952Y-39142914D02*
X112833333Y-39047676D01*
X112833333Y-39047676D02*
X112738095Y-38952438D01*
X112738095Y-38952438D02*
X112595238Y-38904819D01*
X112595238Y-38904819D02*
X112500000Y-38904819D01*
X112500000Y-38904819D02*
X112357143Y-38952438D01*
X112357143Y-38952438D02*
X112309524Y-39000057D01*
X111738095Y-39904819D02*
X111833333Y-39857200D01*
X111833333Y-39857200D02*
X111880952Y-39809580D01*
X111880952Y-39809580D02*
X111928571Y-39714342D01*
X111928571Y-39714342D02*
X111928571Y-39428628D01*
X111928571Y-39428628D02*
X111880952Y-39333390D01*
X111880952Y-39333390D02*
X111833333Y-39285771D01*
X111833333Y-39285771D02*
X111738095Y-39238152D01*
X111738095Y-39238152D02*
X111595238Y-39238152D01*
X111595238Y-39238152D02*
X111500000Y-39285771D01*
X111500000Y-39285771D02*
X111452381Y-39333390D01*
X111452381Y-39333390D02*
X111404762Y-39428628D01*
X111404762Y-39428628D02*
X111404762Y-39714342D01*
X111404762Y-39714342D02*
X111452381Y-39809580D01*
X111452381Y-39809580D02*
X111500000Y-39857200D01*
X111500000Y-39857200D02*
X111595238Y-39904819D01*
X111595238Y-39904819D02*
X111738095Y-39904819D01*
X110976190Y-39238152D02*
X110976190Y-39904819D01*
X110976190Y-39333390D02*
X110928571Y-39285771D01*
X110928571Y-39285771D02*
X110833333Y-39238152D01*
X110833333Y-39238152D02*
X110690476Y-39238152D01*
X110690476Y-39238152D02*
X110595238Y-39285771D01*
X110595238Y-39285771D02*
X110547619Y-39381009D01*
X110547619Y-39381009D02*
X110547619Y-39904819D01*
X110071428Y-39238152D02*
X110071428Y-39904819D01*
X110071428Y-39333390D02*
X110023809Y-39285771D01*
X110023809Y-39285771D02*
X109928571Y-39238152D01*
X109928571Y-39238152D02*
X109785714Y-39238152D01*
X109785714Y-39238152D02*
X109690476Y-39285771D01*
X109690476Y-39285771D02*
X109642857Y-39381009D01*
X109642857Y-39381009D02*
X109642857Y-39904819D01*
X109404762Y-40000057D02*
X108642857Y-40000057D01*
X108214285Y-38904819D02*
X108119047Y-38904819D01*
X108119047Y-38904819D02*
X108023809Y-38952438D01*
X108023809Y-38952438D02*
X107976190Y-39000057D01*
X107976190Y-39000057D02*
X107928571Y-39095295D01*
X107928571Y-39095295D02*
X107880952Y-39285771D01*
X107880952Y-39285771D02*
X107880952Y-39523866D01*
X107880952Y-39523866D02*
X107928571Y-39714342D01*
X107928571Y-39714342D02*
X107976190Y-39809580D01*
X107976190Y-39809580D02*
X108023809Y-39857200D01*
X108023809Y-39857200D02*
X108119047Y-39904819D01*
X108119047Y-39904819D02*
X108214285Y-39904819D01*
X108214285Y-39904819D02*
X108309523Y-39857200D01*
X108309523Y-39857200D02*
X108357142Y-39809580D01*
X108357142Y-39809580D02*
X108404761Y-39714342D01*
X108404761Y-39714342D02*
X108452380Y-39523866D01*
X108452380Y-39523866D02*
X108452380Y-39285771D01*
X108452380Y-39285771D02*
X108404761Y-39095295D01*
X108404761Y-39095295D02*
X108357142Y-39000057D01*
X108357142Y-39000057D02*
X108309523Y-38952438D01*
X108309523Y-38952438D02*
X108214285Y-38904819D01*
X106928571Y-39904819D02*
X107499999Y-39904819D01*
X107214285Y-39904819D02*
X107214285Y-38904819D01*
X107214285Y-38904819D02*
X107309523Y-39047676D01*
X107309523Y-39047676D02*
X107404761Y-39142914D01*
X107404761Y-39142914D02*
X107499999Y-39190533D01*
X106595237Y-39904819D02*
X106071428Y-39238152D01*
X106595237Y-39238152D02*
X106071428Y-39904819D01*
X105499999Y-38904819D02*
X105404761Y-38904819D01*
X105404761Y-38904819D02*
X105309523Y-38952438D01*
X105309523Y-38952438D02*
X105261904Y-39000057D01*
X105261904Y-39000057D02*
X105214285Y-39095295D01*
X105214285Y-39095295D02*
X105166666Y-39285771D01*
X105166666Y-39285771D02*
X105166666Y-39523866D01*
X105166666Y-39523866D02*
X105214285Y-39714342D01*
X105214285Y-39714342D02*
X105261904Y-39809580D01*
X105261904Y-39809580D02*
X105309523Y-39857200D01*
X105309523Y-39857200D02*
X105404761Y-39904819D01*
X105404761Y-39904819D02*
X105499999Y-39904819D01*
X105499999Y-39904819D02*
X105595237Y-39857200D01*
X105595237Y-39857200D02*
X105642856Y-39809580D01*
X105642856Y-39809580D02*
X105690475Y-39714342D01*
X105690475Y-39714342D02*
X105738094Y-39523866D01*
X105738094Y-39523866D02*
X105738094Y-39285771D01*
X105738094Y-39285771D02*
X105690475Y-39095295D01*
X105690475Y-39095295D02*
X105642856Y-39000057D01*
X105642856Y-39000057D02*
X105595237Y-38952438D01*
X105595237Y-38952438D02*
X105499999Y-38904819D01*
X104833332Y-38904819D02*
X104214285Y-38904819D01*
X104214285Y-38904819D02*
X104547618Y-39285771D01*
X104547618Y-39285771D02*
X104404761Y-39285771D01*
X104404761Y-39285771D02*
X104309523Y-39333390D01*
X104309523Y-39333390D02*
X104261904Y-39381009D01*
X104261904Y-39381009D02*
X104214285Y-39476247D01*
X104214285Y-39476247D02*
X104214285Y-39714342D01*
X104214285Y-39714342D02*
X104261904Y-39809580D01*
X104261904Y-39809580D02*
X104309523Y-39857200D01*
X104309523Y-39857200D02*
X104404761Y-39904819D01*
X104404761Y-39904819D02*
X104690475Y-39904819D01*
X104690475Y-39904819D02*
X104785713Y-39857200D01*
X104785713Y-39857200D02*
X104833332Y-39809580D01*
X104023809Y-40000057D02*
X103261904Y-40000057D01*
X103023808Y-39904819D02*
X103023808Y-38904819D01*
X103023808Y-38904819D02*
X102642856Y-38904819D01*
X102642856Y-38904819D02*
X102547618Y-38952438D01*
X102547618Y-38952438D02*
X102499999Y-39000057D01*
X102499999Y-39000057D02*
X102452380Y-39095295D01*
X102452380Y-39095295D02*
X102452380Y-39238152D01*
X102452380Y-39238152D02*
X102499999Y-39333390D01*
X102499999Y-39333390D02*
X102547618Y-39381009D01*
X102547618Y-39381009D02*
X102642856Y-39428628D01*
X102642856Y-39428628D02*
X103023808Y-39428628D01*
X102023808Y-39904819D02*
X102023808Y-39238152D01*
X102023808Y-38904819D02*
X102071427Y-38952438D01*
X102071427Y-38952438D02*
X102023808Y-39000057D01*
X102023808Y-39000057D02*
X101976189Y-38952438D01*
X101976189Y-38952438D02*
X102023808Y-38904819D01*
X102023808Y-38904819D02*
X102023808Y-39000057D01*
X101547618Y-39238152D02*
X101547618Y-39904819D01*
X101547618Y-39333390D02*
X101499999Y-39285771D01*
X101499999Y-39285771D02*
X101404761Y-39238152D01*
X101404761Y-39238152D02*
X101261904Y-39238152D01*
X101261904Y-39238152D02*
X101166666Y-39285771D01*
X101166666Y-39285771D02*
X101119047Y-39381009D01*
X101119047Y-39381009D02*
X101119047Y-39904819D01*
X107333333Y-33454819D02*
X107333333Y-34169104D01*
X107333333Y-34169104D02*
X107380952Y-34311961D01*
X107380952Y-34311961D02*
X107476190Y-34407200D01*
X107476190Y-34407200D02*
X107619047Y-34454819D01*
X107619047Y-34454819D02*
X107714285Y-34454819D01*
X106333333Y-34454819D02*
X106904761Y-34454819D01*
X106619047Y-34454819D02*
X106619047Y-33454819D01*
X106619047Y-33454819D02*
X106714285Y-33597676D01*
X106714285Y-33597676D02*
X106809523Y-33692914D01*
X106809523Y-33692914D02*
X106904761Y-33740533D01*
D11*
%TO.C,U1*%
X64398000Y-74602800D02*
X64398000Y-77142800D01*
X64398000Y-77142800D02*
X73923000Y-77142800D01*
X73923000Y-77142800D02*
X74558000Y-76507800D01*
X74558000Y-74602800D02*
X64398000Y-74602800D01*
X74558000Y-76507800D02*
X74558000Y-74602800D01*
%TO.C,U2*%
X139398000Y-74602800D02*
X139398000Y-77142800D01*
X139398000Y-77142800D02*
X148923000Y-77142800D01*
X148923000Y-77142800D02*
X149558000Y-76507800D01*
X149558000Y-74602800D02*
X139398000Y-74602800D01*
X149558000Y-76507800D02*
X149558000Y-74602800D01*
%TO.C,J3*%
X138025000Y-63750000D02*
X138025000Y-68750000D01*
X138025000Y-63750000D02*
X149975000Y-63750000D01*
X138025000Y-68750000D02*
X149975000Y-68750000D01*
X140750000Y-65250000D02*
X140750000Y-65750000D01*
X140750000Y-65750000D02*
X141250000Y-65750000D01*
X141250000Y-65250000D02*
X140750000Y-65250000D01*
X141250000Y-65750000D02*
X141250000Y-65250000D01*
X142750000Y-65250000D02*
X142750000Y-65750000D01*
X142750000Y-65750000D02*
X143250000Y-65750000D01*
X143250000Y-65250000D02*
X142750000Y-65250000D01*
X143250000Y-65750000D02*
X143250000Y-65250000D01*
X144750000Y-65250000D02*
X144750000Y-65750000D01*
X144750000Y-65750000D02*
X145250000Y-65750000D01*
X145250000Y-65250000D02*
X144750000Y-65250000D01*
X145250000Y-65750000D02*
X145250000Y-65250000D01*
X146500000Y-68750000D02*
X147000000Y-68042893D01*
X146750000Y-65250000D02*
X146750000Y-65750000D01*
X146750000Y-65750000D02*
X147250000Y-65750000D01*
X147000000Y-68042893D02*
X147500000Y-68750000D01*
X147250000Y-65250000D02*
X146750000Y-65250000D01*
X147250000Y-65750000D02*
X147250000Y-65250000D01*
X149975000Y-63750000D02*
X149975000Y-68750000D01*
%TO.C,J2*%
X20450000Y-106025000D02*
X25450000Y-106025000D01*
X20450000Y-115975000D02*
X20450000Y-106025000D01*
X20450000Y-115975000D02*
X25450000Y-115975000D01*
X21950000Y-108750000D02*
X21950000Y-109250000D01*
X21950000Y-109250000D02*
X22450000Y-109250000D01*
X21950000Y-110750000D02*
X21950000Y-111250000D01*
X21950000Y-111250000D02*
X22450000Y-111250000D01*
X21950000Y-112750000D02*
X21950000Y-113250000D01*
X21950000Y-113250000D02*
X22450000Y-113250000D01*
X22450000Y-108750000D02*
X21950000Y-108750000D01*
X22450000Y-109250000D02*
X22450000Y-108750000D01*
X22450000Y-110750000D02*
X21950000Y-110750000D01*
X22450000Y-111250000D02*
X22450000Y-110750000D01*
X22450000Y-112750000D02*
X21950000Y-112750000D01*
X22450000Y-113250000D02*
X22450000Y-112750000D01*
X24742893Y-109000000D02*
X25450000Y-108500000D01*
X25450000Y-109500000D02*
X24742893Y-109000000D01*
X25450000Y-115975000D02*
X25450000Y-106025000D01*
%TO.C,J1*%
X102025000Y-30750000D02*
X102025000Y-35750000D01*
X102025000Y-30750000D02*
X111975000Y-30750000D01*
X102025000Y-35750000D02*
X111975000Y-35750000D01*
X104750000Y-32250000D02*
X104750000Y-32750000D01*
X104750000Y-32750000D02*
X105250000Y-32750000D01*
X105250000Y-32250000D02*
X104750000Y-32250000D01*
X105250000Y-32750000D02*
X105250000Y-32250000D01*
X106750000Y-32250000D02*
X106750000Y-32750000D01*
X106750000Y-32750000D02*
X107250000Y-32750000D01*
X107250000Y-32250000D02*
X106750000Y-32250000D01*
X107250000Y-32750000D02*
X107250000Y-32250000D01*
X108500000Y-35750000D02*
X109000000Y-35042893D01*
X108750000Y-32250000D02*
X108750000Y-32750000D01*
X108750000Y-32750000D02*
X109250000Y-32750000D01*
X109000000Y-35042893D02*
X109500000Y-35750000D01*
X109250000Y-32250000D02*
X108750000Y-32250000D01*
X109250000Y-32750000D02*
X109250000Y-32250000D01*
X111975000Y-30750000D02*
X111975000Y-35750000D01*
%TD*%
M02*
