%TF.GenerationSoftware,KiCad,Pcbnew,8.0.4+1*%
%TF.CreationDate,2024-10-08T20:57:46+00:00*%
%TF.ProjectId,pedalboard-display,70656461-6c62-46f6-9172-642d64697370,0.0.0-RC1*%
%TF.SameCoordinates,Original*%
%TF.FileFunction,AssemblyDrawing,Bot*%
%FSLAX46Y46*%
G04 Gerber Fmt 4.6, Leading zero omitted, Abs format (unit mm)*
G04 Created by KiCad (PCBNEW 8.0.4+1) date 2024-10-08 20:57:46*
%MOMM*%
%LPD*%
G01*
G04 APERTURE LIST*
%ADD10C,0.150000*%
%ADD11C,0.080000*%
%ADD12C,0.100000*%
G04 APERTURE END LIST*
D10*
X70239904Y-75327619D02*
X70239904Y-76137142D01*
X70239904Y-76137142D02*
X70192285Y-76232380D01*
X70192285Y-76232380D02*
X70144666Y-76280000D01*
X70144666Y-76280000D02*
X70049428Y-76327619D01*
X70049428Y-76327619D02*
X69858952Y-76327619D01*
X69858952Y-76327619D02*
X69763714Y-76280000D01*
X69763714Y-76280000D02*
X69716095Y-76232380D01*
X69716095Y-76232380D02*
X69668476Y-76137142D01*
X69668476Y-76137142D02*
X69668476Y-75327619D01*
X68668476Y-76327619D02*
X69239904Y-76327619D01*
X68954190Y-76327619D02*
X68954190Y-75327619D01*
X68954190Y-75327619D02*
X69049428Y-75470476D01*
X69049428Y-75470476D02*
X69144666Y-75565714D01*
X69144666Y-75565714D02*
X69239904Y-75613333D01*
X145239904Y-75327619D02*
X145239904Y-76137142D01*
X145239904Y-76137142D02*
X145192285Y-76232380D01*
X145192285Y-76232380D02*
X145144666Y-76280000D01*
X145144666Y-76280000D02*
X145049428Y-76327619D01*
X145049428Y-76327619D02*
X144858952Y-76327619D01*
X144858952Y-76327619D02*
X144763714Y-76280000D01*
X144763714Y-76280000D02*
X144716095Y-76232380D01*
X144716095Y-76232380D02*
X144668476Y-76137142D01*
X144668476Y-76137142D02*
X144668476Y-75327619D01*
X144239904Y-75422857D02*
X144192285Y-75375238D01*
X144192285Y-75375238D02*
X144097047Y-75327619D01*
X144097047Y-75327619D02*
X143858952Y-75327619D01*
X143858952Y-75327619D02*
X143763714Y-75375238D01*
X143763714Y-75375238D02*
X143716095Y-75422857D01*
X143716095Y-75422857D02*
X143668476Y-75518095D01*
X143668476Y-75518095D02*
X143668476Y-75613333D01*
X143668476Y-75613333D02*
X143716095Y-75756190D01*
X143716095Y-75756190D02*
X144287523Y-76327619D01*
X144287523Y-76327619D02*
X143668476Y-76327619D01*
X133554819Y-74602976D02*
X133554819Y-75222023D01*
X133554819Y-75222023D02*
X133935771Y-74888690D01*
X133935771Y-74888690D02*
X133935771Y-75031547D01*
X133935771Y-75031547D02*
X133983390Y-75126785D01*
X133983390Y-75126785D02*
X134031009Y-75174404D01*
X134031009Y-75174404D02*
X134126247Y-75222023D01*
X134126247Y-75222023D02*
X134364342Y-75222023D01*
X134364342Y-75222023D02*
X134459580Y-75174404D01*
X134459580Y-75174404D02*
X134507200Y-75126785D01*
X134507200Y-75126785D02*
X134554819Y-75031547D01*
X134554819Y-75031547D02*
X134554819Y-74745833D01*
X134554819Y-74745833D02*
X134507200Y-74650595D01*
X134507200Y-74650595D02*
X134459580Y-74602976D01*
X134554819Y-75650595D02*
X133554819Y-75650595D01*
X134554819Y-76222023D02*
X133983390Y-75793452D01*
X133554819Y-76222023D02*
X134126247Y-75650595D01*
X133554819Y-76555357D02*
X133554819Y-77174404D01*
X133554819Y-77174404D02*
X133935771Y-76841071D01*
X133935771Y-76841071D02*
X133935771Y-76983928D01*
X133935771Y-76983928D02*
X133983390Y-77079166D01*
X133983390Y-77079166D02*
X134031009Y-77126785D01*
X134031009Y-77126785D02*
X134126247Y-77174404D01*
X134126247Y-77174404D02*
X134364342Y-77174404D01*
X134364342Y-77174404D02*
X134459580Y-77126785D01*
X134459580Y-77126785D02*
X134507200Y-77079166D01*
X134507200Y-77079166D02*
X134554819Y-76983928D01*
X134554819Y-76983928D02*
X134554819Y-76698214D01*
X134554819Y-76698214D02*
X134507200Y-76602976D01*
X134507200Y-76602976D02*
X134459580Y-76555357D01*
D11*
X135977149Y-75829166D02*
X135739054Y-75662500D01*
X135977149Y-75543452D02*
X135477149Y-75543452D01*
X135477149Y-75543452D02*
X135477149Y-75733928D01*
X135477149Y-75733928D02*
X135500959Y-75781547D01*
X135500959Y-75781547D02*
X135524768Y-75805357D01*
X135524768Y-75805357D02*
X135572387Y-75829166D01*
X135572387Y-75829166D02*
X135643816Y-75829166D01*
X135643816Y-75829166D02*
X135691435Y-75805357D01*
X135691435Y-75805357D02*
X135715244Y-75781547D01*
X135715244Y-75781547D02*
X135739054Y-75733928D01*
X135739054Y-75733928D02*
X135739054Y-75543452D01*
X135477149Y-75995833D02*
X135477149Y-76305357D01*
X135477149Y-76305357D02*
X135667625Y-76138690D01*
X135667625Y-76138690D02*
X135667625Y-76210119D01*
X135667625Y-76210119D02*
X135691435Y-76257738D01*
X135691435Y-76257738D02*
X135715244Y-76281547D01*
X135715244Y-76281547D02*
X135762863Y-76305357D01*
X135762863Y-76305357D02*
X135881911Y-76305357D01*
X135881911Y-76305357D02*
X135929530Y-76281547D01*
X135929530Y-76281547D02*
X135953340Y-76257738D01*
X135953340Y-76257738D02*
X135977149Y-76210119D01*
X135977149Y-76210119D02*
X135977149Y-76067262D01*
X135977149Y-76067262D02*
X135953340Y-76019643D01*
X135953340Y-76019643D02*
X135929530Y-75995833D01*
D10*
X135554819Y-74602976D02*
X135554819Y-75222023D01*
X135554819Y-75222023D02*
X135935771Y-74888690D01*
X135935771Y-74888690D02*
X135935771Y-75031547D01*
X135935771Y-75031547D02*
X135983390Y-75126785D01*
X135983390Y-75126785D02*
X136031009Y-75174404D01*
X136031009Y-75174404D02*
X136126247Y-75222023D01*
X136126247Y-75222023D02*
X136364342Y-75222023D01*
X136364342Y-75222023D02*
X136459580Y-75174404D01*
X136459580Y-75174404D02*
X136507200Y-75126785D01*
X136507200Y-75126785D02*
X136554819Y-75031547D01*
X136554819Y-75031547D02*
X136554819Y-74745833D01*
X136554819Y-74745833D02*
X136507200Y-74650595D01*
X136507200Y-74650595D02*
X136459580Y-74602976D01*
X136554819Y-75650595D02*
X135554819Y-75650595D01*
X136554819Y-76222023D02*
X135983390Y-75793452D01*
X135554819Y-76222023D02*
X136126247Y-75650595D01*
X135554819Y-76555357D02*
X135554819Y-77174404D01*
X135554819Y-77174404D02*
X135935771Y-76841071D01*
X135935771Y-76841071D02*
X135935771Y-76983928D01*
X135935771Y-76983928D02*
X135983390Y-77079166D01*
X135983390Y-77079166D02*
X136031009Y-77126785D01*
X136031009Y-77126785D02*
X136126247Y-77174404D01*
X136126247Y-77174404D02*
X136364342Y-77174404D01*
X136364342Y-77174404D02*
X136459580Y-77126785D01*
X136459580Y-77126785D02*
X136507200Y-77079166D01*
X136507200Y-77079166D02*
X136554819Y-76983928D01*
X136554819Y-76983928D02*
X136554819Y-76698214D01*
X136554819Y-76698214D02*
X136507200Y-76602976D01*
X136507200Y-76602976D02*
X136459580Y-76555357D01*
D11*
X137977149Y-75829166D02*
X137739054Y-75662500D01*
X137977149Y-75543452D02*
X137477149Y-75543452D01*
X137477149Y-75543452D02*
X137477149Y-75733928D01*
X137477149Y-75733928D02*
X137500959Y-75781547D01*
X137500959Y-75781547D02*
X137524768Y-75805357D01*
X137524768Y-75805357D02*
X137572387Y-75829166D01*
X137572387Y-75829166D02*
X137643816Y-75829166D01*
X137643816Y-75829166D02*
X137691435Y-75805357D01*
X137691435Y-75805357D02*
X137715244Y-75781547D01*
X137715244Y-75781547D02*
X137739054Y-75733928D01*
X137739054Y-75733928D02*
X137739054Y-75543452D01*
X137524768Y-76019643D02*
X137500959Y-76043452D01*
X137500959Y-76043452D02*
X137477149Y-76091071D01*
X137477149Y-76091071D02*
X137477149Y-76210119D01*
X137477149Y-76210119D02*
X137500959Y-76257738D01*
X137500959Y-76257738D02*
X137524768Y-76281547D01*
X137524768Y-76281547D02*
X137572387Y-76305357D01*
X137572387Y-76305357D02*
X137620006Y-76305357D01*
X137620006Y-76305357D02*
X137691435Y-76281547D01*
X137691435Y-76281547D02*
X137977149Y-75995833D01*
X137977149Y-75995833D02*
X137977149Y-76305357D01*
D10*
X145452380Y-71904819D02*
X145261904Y-71904819D01*
X145261904Y-71904819D02*
X145166666Y-71952438D01*
X145166666Y-71952438D02*
X145071428Y-72047676D01*
X145071428Y-72047676D02*
X145023809Y-72238152D01*
X145023809Y-72238152D02*
X145023809Y-72571485D01*
X145023809Y-72571485D02*
X145071428Y-72761961D01*
X145071428Y-72761961D02*
X145166666Y-72857200D01*
X145166666Y-72857200D02*
X145261904Y-72904819D01*
X145261904Y-72904819D02*
X145452380Y-72904819D01*
X145452380Y-72904819D02*
X145547618Y-72857200D01*
X145547618Y-72857200D02*
X145642856Y-72761961D01*
X145642856Y-72761961D02*
X145690475Y-72571485D01*
X145690475Y-72571485D02*
X145690475Y-72238152D01*
X145690475Y-72238152D02*
X145642856Y-72047676D01*
X145642856Y-72047676D02*
X145547618Y-71952438D01*
X145547618Y-71952438D02*
X145452380Y-71904819D01*
X144119047Y-72904819D02*
X144595237Y-72904819D01*
X144595237Y-72904819D02*
X144595237Y-71904819D01*
X143785713Y-72381009D02*
X143452380Y-72381009D01*
X143309523Y-72904819D02*
X143785713Y-72904819D01*
X143785713Y-72904819D02*
X143785713Y-71904819D01*
X143785713Y-71904819D02*
X143309523Y-71904819D01*
X142880951Y-72904819D02*
X142880951Y-71904819D01*
X142880951Y-71904819D02*
X142642856Y-71904819D01*
X142642856Y-71904819D02*
X142499999Y-71952438D01*
X142499999Y-71952438D02*
X142404761Y-72047676D01*
X142404761Y-72047676D02*
X142357142Y-72142914D01*
X142357142Y-72142914D02*
X142309523Y-72333390D01*
X142309523Y-72333390D02*
X142309523Y-72476247D01*
X142309523Y-72476247D02*
X142357142Y-72666723D01*
X142357142Y-72666723D02*
X142404761Y-72761961D01*
X142404761Y-72761961D02*
X142499999Y-72857200D01*
X142499999Y-72857200D02*
X142642856Y-72904819D01*
X142642856Y-72904819D02*
X142880951Y-72904819D01*
X144333333Y-66454819D02*
X144333333Y-67169104D01*
X144333333Y-67169104D02*
X144380952Y-67311961D01*
X144380952Y-67311961D02*
X144476190Y-67407200D01*
X144476190Y-67407200D02*
X144619047Y-67454819D01*
X144619047Y-67454819D02*
X144714285Y-67454819D01*
X143952380Y-66454819D02*
X143333333Y-66454819D01*
X143333333Y-66454819D02*
X143666666Y-66835771D01*
X143666666Y-66835771D02*
X143523809Y-66835771D01*
X143523809Y-66835771D02*
X143428571Y-66883390D01*
X143428571Y-66883390D02*
X143380952Y-66931009D01*
X143380952Y-66931009D02*
X143333333Y-67026247D01*
X143333333Y-67026247D02*
X143333333Y-67264342D01*
X143333333Y-67264342D02*
X143380952Y-67359580D01*
X143380952Y-67359580D02*
X143428571Y-67407200D01*
X143428571Y-67407200D02*
X143523809Y-67454819D01*
X143523809Y-67454819D02*
X143809523Y-67454819D01*
X143809523Y-67454819D02*
X143904761Y-67407200D01*
X143904761Y-67407200D02*
X143952380Y-67359580D01*
X109690476Y-53654819D02*
X110166666Y-53654819D01*
X110166666Y-53654819D02*
X110166666Y-52654819D01*
X109357142Y-53131009D02*
X109023809Y-53131009D01*
X108880952Y-53654819D02*
X109357142Y-53654819D01*
X109357142Y-53654819D02*
X109357142Y-52654819D01*
X109357142Y-52654819D02*
X108880952Y-52654819D01*
X108452380Y-53654819D02*
X108452380Y-52654819D01*
X108452380Y-52654819D02*
X108214285Y-52654819D01*
X108214285Y-52654819D02*
X108071428Y-52702438D01*
X108071428Y-52702438D02*
X107976190Y-52797676D01*
X107976190Y-52797676D02*
X107928571Y-52892914D01*
X107928571Y-52892914D02*
X107880952Y-53083390D01*
X107880952Y-53083390D02*
X107880952Y-53226247D01*
X107880952Y-53226247D02*
X107928571Y-53416723D01*
X107928571Y-53416723D02*
X107976190Y-53511961D01*
X107976190Y-53511961D02*
X108071428Y-53607200D01*
X108071428Y-53607200D02*
X108214285Y-53654819D01*
X108214285Y-53654819D02*
X108452380Y-53654819D01*
X107452380Y-53273866D02*
X106690476Y-53273866D01*
X106023809Y-52654819D02*
X105833333Y-52654819D01*
X105833333Y-52654819D02*
X105738095Y-52702438D01*
X105738095Y-52702438D02*
X105642857Y-52797676D01*
X105642857Y-52797676D02*
X105595238Y-52988152D01*
X105595238Y-52988152D02*
X105595238Y-53321485D01*
X105595238Y-53321485D02*
X105642857Y-53511961D01*
X105642857Y-53511961D02*
X105738095Y-53607200D01*
X105738095Y-53607200D02*
X105833333Y-53654819D01*
X105833333Y-53654819D02*
X106023809Y-53654819D01*
X106023809Y-53654819D02*
X106119047Y-53607200D01*
X106119047Y-53607200D02*
X106214285Y-53511961D01*
X106214285Y-53511961D02*
X106261904Y-53321485D01*
X106261904Y-53321485D02*
X106261904Y-52988152D01*
X106261904Y-52988152D02*
X106214285Y-52797676D01*
X106214285Y-52797676D02*
X106119047Y-52702438D01*
X106119047Y-52702438D02*
X106023809Y-52654819D01*
X105166666Y-52654819D02*
X105166666Y-53464342D01*
X105166666Y-53464342D02*
X105119047Y-53559580D01*
X105119047Y-53559580D02*
X105071428Y-53607200D01*
X105071428Y-53607200D02*
X104976190Y-53654819D01*
X104976190Y-53654819D02*
X104785714Y-53654819D01*
X104785714Y-53654819D02*
X104690476Y-53607200D01*
X104690476Y-53607200D02*
X104642857Y-53559580D01*
X104642857Y-53559580D02*
X104595238Y-53464342D01*
X104595238Y-53464342D02*
X104595238Y-52654819D01*
X104261904Y-52654819D02*
X103690476Y-52654819D01*
X103976190Y-53654819D02*
X103976190Y-52654819D01*
X107333333Y-47204819D02*
X107333333Y-47919104D01*
X107333333Y-47919104D02*
X107380952Y-48061961D01*
X107380952Y-48061961D02*
X107476190Y-48157200D01*
X107476190Y-48157200D02*
X107619047Y-48204819D01*
X107619047Y-48204819D02*
X107714285Y-48204819D01*
X106904761Y-47300057D02*
X106857142Y-47252438D01*
X106857142Y-47252438D02*
X106761904Y-47204819D01*
X106761904Y-47204819D02*
X106523809Y-47204819D01*
X106523809Y-47204819D02*
X106428571Y-47252438D01*
X106428571Y-47252438D02*
X106380952Y-47300057D01*
X106380952Y-47300057D02*
X106333333Y-47395295D01*
X106333333Y-47395295D02*
X106333333Y-47490533D01*
X106333333Y-47490533D02*
X106380952Y-47633390D01*
X106380952Y-47633390D02*
X106952380Y-48204819D01*
X106952380Y-48204819D02*
X106333333Y-48204819D01*
X109023809Y-62154819D02*
X109499999Y-62154819D01*
X109499999Y-62154819D02*
X109499999Y-61154819D01*
X108690475Y-61631009D02*
X108357142Y-61631009D01*
X108214285Y-62154819D02*
X108690475Y-62154819D01*
X108690475Y-62154819D02*
X108690475Y-61154819D01*
X108690475Y-61154819D02*
X108214285Y-61154819D01*
X107785713Y-62154819D02*
X107785713Y-61154819D01*
X107785713Y-61154819D02*
X107547618Y-61154819D01*
X107547618Y-61154819D02*
X107404761Y-61202438D01*
X107404761Y-61202438D02*
X107309523Y-61297676D01*
X107309523Y-61297676D02*
X107261904Y-61392914D01*
X107261904Y-61392914D02*
X107214285Y-61583390D01*
X107214285Y-61583390D02*
X107214285Y-61726247D01*
X107214285Y-61726247D02*
X107261904Y-61916723D01*
X107261904Y-61916723D02*
X107309523Y-62011961D01*
X107309523Y-62011961D02*
X107404761Y-62107200D01*
X107404761Y-62107200D02*
X107547618Y-62154819D01*
X107547618Y-62154819D02*
X107785713Y-62154819D01*
X106785713Y-61773866D02*
X106023809Y-61773866D01*
X105547618Y-62154819D02*
X105547618Y-61154819D01*
X105071428Y-62154819D02*
X105071428Y-61154819D01*
X105071428Y-61154819D02*
X104500000Y-62154819D01*
X104500000Y-62154819D02*
X104500000Y-61154819D01*
X107333333Y-55704819D02*
X107333333Y-56419104D01*
X107333333Y-56419104D02*
X107380952Y-56561961D01*
X107380952Y-56561961D02*
X107476190Y-56657200D01*
X107476190Y-56657200D02*
X107619047Y-56704819D01*
X107619047Y-56704819D02*
X107714285Y-56704819D01*
X106333333Y-56704819D02*
X106904761Y-56704819D01*
X106619047Y-56704819D02*
X106619047Y-55704819D01*
X106619047Y-55704819D02*
X106714285Y-55847676D01*
X106714285Y-55847676D02*
X106809523Y-55942914D01*
X106809523Y-55942914D02*
X106904761Y-55990533D01*
D12*
%TO.C,U1*%
X64398000Y-74602800D02*
X64398000Y-77142800D01*
X64398000Y-77142800D02*
X73923000Y-77142800D01*
X73923000Y-77142800D02*
X74558000Y-76507800D01*
X74558000Y-74602800D02*
X64398000Y-74602800D01*
X74558000Y-76507800D02*
X74558000Y-74602800D01*
%TO.C,U2*%
X139398000Y-74602800D02*
X139398000Y-77142800D01*
X139398000Y-77142800D02*
X148923000Y-77142800D01*
X148923000Y-77142800D02*
X149558000Y-76507800D01*
X149558000Y-74602800D02*
X139398000Y-74602800D01*
X149558000Y-76507800D02*
X149558000Y-74602800D01*
%TO.C,R3*%
X135125000Y-74912500D02*
X136375000Y-74912500D01*
X135125000Y-76912500D02*
X135125000Y-74912500D01*
X136375000Y-74912500D02*
X136375000Y-76912500D01*
X136375000Y-76912500D02*
X135125000Y-76912500D01*
%TO.C,R2*%
X137125000Y-74912500D02*
X138375000Y-74912500D01*
X137125000Y-76912500D02*
X137125000Y-74912500D01*
X138375000Y-74912500D02*
X138375000Y-76912500D01*
X138375000Y-76912500D02*
X137125000Y-76912500D01*
%TO.C,J3*%
X138025000Y-63750000D02*
X138025000Y-68750000D01*
X138025000Y-63750000D02*
X149975000Y-63750000D01*
X138025000Y-68750000D02*
X149975000Y-68750000D01*
X140750000Y-65250000D02*
X140750000Y-65750000D01*
X140750000Y-65750000D02*
X141250000Y-65750000D01*
X141250000Y-65250000D02*
X140750000Y-65250000D01*
X141250000Y-65750000D02*
X141250000Y-65250000D01*
X142750000Y-65250000D02*
X142750000Y-65750000D01*
X142750000Y-65750000D02*
X143250000Y-65750000D01*
X143250000Y-65250000D02*
X142750000Y-65250000D01*
X143250000Y-65750000D02*
X143250000Y-65250000D01*
X144750000Y-65250000D02*
X144750000Y-65750000D01*
X144750000Y-65750000D02*
X145250000Y-65750000D01*
X145250000Y-65250000D02*
X144750000Y-65250000D01*
X145250000Y-65750000D02*
X145250000Y-65250000D01*
X146500000Y-68750000D02*
X147000000Y-68042893D01*
X146750000Y-65250000D02*
X146750000Y-65750000D01*
X146750000Y-65750000D02*
X147250000Y-65750000D01*
X147000000Y-68042893D02*
X147500000Y-68750000D01*
X147250000Y-65250000D02*
X146750000Y-65250000D01*
X147250000Y-65750000D02*
X147250000Y-65250000D01*
X149975000Y-63750000D02*
X149975000Y-68750000D01*
%TO.C,J2*%
X102025000Y-44500000D02*
X102025000Y-49500000D01*
X102025000Y-44500000D02*
X111975000Y-44500000D01*
X102025000Y-49500000D02*
X111975000Y-49500000D01*
X104750000Y-46000000D02*
X104750000Y-46500000D01*
X104750000Y-46500000D02*
X105250000Y-46500000D01*
X105250000Y-46000000D02*
X104750000Y-46000000D01*
X105250000Y-46500000D02*
X105250000Y-46000000D01*
X106750000Y-46000000D02*
X106750000Y-46500000D01*
X106750000Y-46500000D02*
X107250000Y-46500000D01*
X107250000Y-46000000D02*
X106750000Y-46000000D01*
X107250000Y-46500000D02*
X107250000Y-46000000D01*
X108500000Y-49500000D02*
X109000000Y-48792893D01*
X108750000Y-46000000D02*
X108750000Y-46500000D01*
X108750000Y-46500000D02*
X109250000Y-46500000D01*
X109000000Y-48792893D02*
X109500000Y-49500000D01*
X109250000Y-46000000D02*
X108750000Y-46000000D01*
X109250000Y-46500000D02*
X109250000Y-46000000D01*
X111975000Y-44500000D02*
X111975000Y-49500000D01*
%TO.C,J1*%
X102025000Y-53000000D02*
X102025000Y-58000000D01*
X102025000Y-53000000D02*
X111975000Y-53000000D01*
X102025000Y-58000000D02*
X111975000Y-58000000D01*
X104750000Y-54500000D02*
X104750000Y-55000000D01*
X104750000Y-55000000D02*
X105250000Y-55000000D01*
X105250000Y-54500000D02*
X104750000Y-54500000D01*
X105250000Y-55000000D02*
X105250000Y-54500000D01*
X106750000Y-54500000D02*
X106750000Y-55000000D01*
X106750000Y-55000000D02*
X107250000Y-55000000D01*
X107250000Y-54500000D02*
X106750000Y-54500000D01*
X107250000Y-55000000D02*
X107250000Y-54500000D01*
X108500000Y-58000000D02*
X109000000Y-57292893D01*
X108750000Y-54500000D02*
X108750000Y-55000000D01*
X108750000Y-55000000D02*
X109250000Y-55000000D01*
X109000000Y-57292893D02*
X109500000Y-58000000D01*
X109250000Y-54500000D02*
X108750000Y-54500000D01*
X109250000Y-55000000D02*
X109250000Y-54500000D01*
X111975000Y-53000000D02*
X111975000Y-58000000D01*
%TD*%
M02*
