%TF.GenerationSoftware,KiCad,Pcbnew,8.0.4+1*%
%TF.CreationDate,2024-10-06T12:09:38+00:00*%
%TF.ProjectId,pedalboard-display,70656461-6c62-46f6-9172-642d64697370,0.0.0-RC1*%
%TF.SameCoordinates,Original*%
%TF.FileFunction,Legend,Bot*%
%TF.FilePolarity,Positive*%
%FSLAX46Y46*%
G04 Gerber Fmt 4.6, Leading zero omitted, Abs format (unit mm)*
G04 Created by KiCad (PCBNEW 8.0.4+1) date 2024-10-06 12:09:38*
%MOMM*%
%LPD*%
G01*
G04 APERTURE LIST*
%ADD10C,0.100000*%
%ADD11C,0.150000*%
%ADD12C,0.120000*%
G04 APERTURE END LIST*
D10*
X189050000Y-124000000D02*
G75*
G02*
X174950000Y-124000000I-7050000J0D01*
G01*
X174950000Y-124000000D02*
G75*
G02*
X189050000Y-124000000I7050000J0D01*
G01*
X189050000Y-72000000D02*
G75*
G02*
X174950000Y-72000000I-7050000J0D01*
G01*
X174950000Y-72000000D02*
G75*
G02*
X189050000Y-72000000I7050000J0D01*
G01*
X152050000Y-39000000D02*
G75*
G02*
X137950000Y-39000000I-7050000J0D01*
G01*
X137950000Y-39000000D02*
G75*
G02*
X152050000Y-39000000I7050000J0D01*
G01*
X77050000Y-39000000D02*
G75*
G02*
X62950000Y-39000000I-7050000J0D01*
G01*
X62950000Y-39000000D02*
G75*
G02*
X77050000Y-39000000I7050000J0D01*
G01*
X39050000Y-124000000D02*
G75*
G02*
X24950000Y-124000000I-7050000J0D01*
G01*
X24950000Y-124000000D02*
G75*
G02*
X39050000Y-124000000I7050000J0D01*
G01*
X39050000Y-72000000D02*
G75*
G02*
X24950000Y-72000000I-7050000J0D01*
G01*
X24950000Y-72000000D02*
G75*
G02*
X39050000Y-72000000I7050000J0D01*
G01*
D11*
X114000000Y-124000000D02*
G75*
G02*
X100000000Y-124000000I-7000000J0D01*
G01*
X100000000Y-124000000D02*
G75*
G02*
X114000000Y-124000000I7000000J0D01*
G01*
D10*
X114050000Y-72000000D02*
G75*
G02*
X99950000Y-72000000I-7050000J0D01*
G01*
X99950000Y-72000000D02*
G75*
G02*
X114050000Y-72000000I7050000J0D01*
G01*
X37416664Y-56655211D02*
X37416664Y-55955211D01*
X37416664Y-55955211D02*
X37149997Y-55955211D01*
X37149997Y-55955211D02*
X37083331Y-55988544D01*
X37083331Y-55988544D02*
X37049997Y-56021878D01*
X37049997Y-56021878D02*
X37016664Y-56088544D01*
X37016664Y-56088544D02*
X37016664Y-56188544D01*
X37016664Y-56188544D02*
X37049997Y-56255211D01*
X37049997Y-56255211D02*
X37083331Y-56288544D01*
X37083331Y-56288544D02*
X37149997Y-56321878D01*
X37149997Y-56321878D02*
X37416664Y-56321878D01*
X36449997Y-56621878D02*
X36516664Y-56655211D01*
X36516664Y-56655211D02*
X36649997Y-56655211D01*
X36649997Y-56655211D02*
X36716664Y-56621878D01*
X36716664Y-56621878D02*
X36749997Y-56555211D01*
X36749997Y-56555211D02*
X36749997Y-56288544D01*
X36749997Y-56288544D02*
X36716664Y-56221878D01*
X36716664Y-56221878D02*
X36649997Y-56188544D01*
X36649997Y-56188544D02*
X36516664Y-56188544D01*
X36516664Y-56188544D02*
X36449997Y-56221878D01*
X36449997Y-56221878D02*
X36416664Y-56288544D01*
X36416664Y-56288544D02*
X36416664Y-56355211D01*
X36416664Y-56355211D02*
X36749997Y-56421878D01*
X35816664Y-56655211D02*
X35816664Y-55955211D01*
X35816664Y-56621878D02*
X35883331Y-56655211D01*
X35883331Y-56655211D02*
X36016664Y-56655211D01*
X36016664Y-56655211D02*
X36083331Y-56621878D01*
X36083331Y-56621878D02*
X36116664Y-56588544D01*
X36116664Y-56588544D02*
X36149997Y-56521878D01*
X36149997Y-56521878D02*
X36149997Y-56321878D01*
X36149997Y-56321878D02*
X36116664Y-56255211D01*
X36116664Y-56255211D02*
X36083331Y-56221878D01*
X36083331Y-56221878D02*
X36016664Y-56188544D01*
X36016664Y-56188544D02*
X35883331Y-56188544D01*
X35883331Y-56188544D02*
X35816664Y-56221878D01*
X35183331Y-56655211D02*
X35183331Y-56288544D01*
X35183331Y-56288544D02*
X35216664Y-56221878D01*
X35216664Y-56221878D02*
X35283331Y-56188544D01*
X35283331Y-56188544D02*
X35416664Y-56188544D01*
X35416664Y-56188544D02*
X35483331Y-56221878D01*
X35183331Y-56621878D02*
X35249998Y-56655211D01*
X35249998Y-56655211D02*
X35416664Y-56655211D01*
X35416664Y-56655211D02*
X35483331Y-56621878D01*
X35483331Y-56621878D02*
X35516664Y-56555211D01*
X35516664Y-56555211D02*
X35516664Y-56488544D01*
X35516664Y-56488544D02*
X35483331Y-56421878D01*
X35483331Y-56421878D02*
X35416664Y-56388544D01*
X35416664Y-56388544D02*
X35249998Y-56388544D01*
X35249998Y-56388544D02*
X35183331Y-56355211D01*
X34749998Y-56655211D02*
X34816665Y-56621878D01*
X34816665Y-56621878D02*
X34849998Y-56555211D01*
X34849998Y-56555211D02*
X34849998Y-55955211D01*
X34483331Y-56655211D02*
X34483331Y-55955211D01*
X34483331Y-56221878D02*
X34416664Y-56188544D01*
X34416664Y-56188544D02*
X34283331Y-56188544D01*
X34283331Y-56188544D02*
X34216664Y-56221878D01*
X34216664Y-56221878D02*
X34183331Y-56255211D01*
X34183331Y-56255211D02*
X34149998Y-56321878D01*
X34149998Y-56321878D02*
X34149998Y-56521878D01*
X34149998Y-56521878D02*
X34183331Y-56588544D01*
X34183331Y-56588544D02*
X34216664Y-56621878D01*
X34216664Y-56621878D02*
X34283331Y-56655211D01*
X34283331Y-56655211D02*
X34416664Y-56655211D01*
X34416664Y-56655211D02*
X34483331Y-56621878D01*
X33749998Y-56655211D02*
X33816665Y-56621878D01*
X33816665Y-56621878D02*
X33849998Y-56588544D01*
X33849998Y-56588544D02*
X33883331Y-56521878D01*
X33883331Y-56521878D02*
X33883331Y-56321878D01*
X33883331Y-56321878D02*
X33849998Y-56255211D01*
X33849998Y-56255211D02*
X33816665Y-56221878D01*
X33816665Y-56221878D02*
X33749998Y-56188544D01*
X33749998Y-56188544D02*
X33649998Y-56188544D01*
X33649998Y-56188544D02*
X33583331Y-56221878D01*
X33583331Y-56221878D02*
X33549998Y-56255211D01*
X33549998Y-56255211D02*
X33516665Y-56321878D01*
X33516665Y-56321878D02*
X33516665Y-56521878D01*
X33516665Y-56521878D02*
X33549998Y-56588544D01*
X33549998Y-56588544D02*
X33583331Y-56621878D01*
X33583331Y-56621878D02*
X33649998Y-56655211D01*
X33649998Y-56655211D02*
X33749998Y-56655211D01*
X32916665Y-56655211D02*
X32916665Y-56288544D01*
X32916665Y-56288544D02*
X32949998Y-56221878D01*
X32949998Y-56221878D02*
X33016665Y-56188544D01*
X33016665Y-56188544D02*
X33149998Y-56188544D01*
X33149998Y-56188544D02*
X33216665Y-56221878D01*
X32916665Y-56621878D02*
X32983332Y-56655211D01*
X32983332Y-56655211D02*
X33149998Y-56655211D01*
X33149998Y-56655211D02*
X33216665Y-56621878D01*
X33216665Y-56621878D02*
X33249998Y-56555211D01*
X33249998Y-56555211D02*
X33249998Y-56488544D01*
X33249998Y-56488544D02*
X33216665Y-56421878D01*
X33216665Y-56421878D02*
X33149998Y-56388544D01*
X33149998Y-56388544D02*
X32983332Y-56388544D01*
X32983332Y-56388544D02*
X32916665Y-56355211D01*
X32583332Y-56655211D02*
X32583332Y-56188544D01*
X32583332Y-56321878D02*
X32549999Y-56255211D01*
X32549999Y-56255211D02*
X32516665Y-56221878D01*
X32516665Y-56221878D02*
X32449999Y-56188544D01*
X32449999Y-56188544D02*
X32383332Y-56188544D01*
X31849999Y-56655211D02*
X31849999Y-55955211D01*
X31849999Y-56621878D02*
X31916666Y-56655211D01*
X31916666Y-56655211D02*
X32049999Y-56655211D01*
X32049999Y-56655211D02*
X32116666Y-56621878D01*
X32116666Y-56621878D02*
X32149999Y-56588544D01*
X32149999Y-56588544D02*
X32183332Y-56521878D01*
X32183332Y-56521878D02*
X32183332Y-56321878D01*
X32183332Y-56321878D02*
X32149999Y-56255211D01*
X32149999Y-56255211D02*
X32116666Y-56221878D01*
X32116666Y-56221878D02*
X32049999Y-56188544D01*
X32049999Y-56188544D02*
X31916666Y-56188544D01*
X31916666Y-56188544D02*
X31849999Y-56221878D01*
X30650000Y-56655211D02*
X30983333Y-56655211D01*
X30983333Y-56655211D02*
X30983333Y-55955211D01*
X30416666Y-56288544D02*
X30183333Y-56288544D01*
X30083333Y-56655211D02*
X30416666Y-56655211D01*
X30416666Y-56655211D02*
X30416666Y-55955211D01*
X30416666Y-55955211D02*
X30083333Y-55955211D01*
X29783333Y-56655211D02*
X29783333Y-55955211D01*
X29783333Y-55955211D02*
X29616666Y-55955211D01*
X29616666Y-55955211D02*
X29516666Y-55988544D01*
X29516666Y-55988544D02*
X29450000Y-56055211D01*
X29450000Y-56055211D02*
X29416666Y-56121878D01*
X29416666Y-56121878D02*
X29383333Y-56255211D01*
X29383333Y-56255211D02*
X29383333Y-56355211D01*
X29383333Y-56355211D02*
X29416666Y-56488544D01*
X29416666Y-56488544D02*
X29450000Y-56555211D01*
X29450000Y-56555211D02*
X29516666Y-56621878D01*
X29516666Y-56621878D02*
X29616666Y-56655211D01*
X29616666Y-56655211D02*
X29783333Y-56655211D01*
X28150000Y-56655211D02*
X28383333Y-56321878D01*
X28550000Y-56655211D02*
X28550000Y-55955211D01*
X28550000Y-55955211D02*
X28283333Y-55955211D01*
X28283333Y-55955211D02*
X28216667Y-55988544D01*
X28216667Y-55988544D02*
X28183333Y-56021878D01*
X28183333Y-56021878D02*
X28150000Y-56088544D01*
X28150000Y-56088544D02*
X28150000Y-56188544D01*
X28150000Y-56188544D02*
X28183333Y-56255211D01*
X28183333Y-56255211D02*
X28216667Y-56288544D01*
X28216667Y-56288544D02*
X28283333Y-56321878D01*
X28283333Y-56321878D02*
X28550000Y-56321878D01*
X27850000Y-56655211D02*
X27850000Y-56188544D01*
X27850000Y-55955211D02*
X27883333Y-55988544D01*
X27883333Y-55988544D02*
X27850000Y-56021878D01*
X27850000Y-56021878D02*
X27816667Y-55988544D01*
X27816667Y-55988544D02*
X27850000Y-55955211D01*
X27850000Y-55955211D02*
X27850000Y-56021878D01*
X27516667Y-56188544D02*
X27516667Y-56655211D01*
X27516667Y-56255211D02*
X27483334Y-56221878D01*
X27483334Y-56221878D02*
X27416667Y-56188544D01*
X27416667Y-56188544D02*
X27316667Y-56188544D01*
X27316667Y-56188544D02*
X27250000Y-56221878D01*
X27250000Y-56221878D02*
X27216667Y-56288544D01*
X27216667Y-56288544D02*
X27216667Y-56655211D01*
X26583334Y-56188544D02*
X26583334Y-56755211D01*
X26583334Y-56755211D02*
X26616667Y-56821878D01*
X26616667Y-56821878D02*
X26650001Y-56855211D01*
X26650001Y-56855211D02*
X26716667Y-56888544D01*
X26716667Y-56888544D02*
X26816667Y-56888544D01*
X26816667Y-56888544D02*
X26883334Y-56855211D01*
X26583334Y-56621878D02*
X26650001Y-56655211D01*
X26650001Y-56655211D02*
X26783334Y-56655211D01*
X26783334Y-56655211D02*
X26850001Y-56621878D01*
X26850001Y-56621878D02*
X26883334Y-56588544D01*
X26883334Y-56588544D02*
X26916667Y-56521878D01*
X26916667Y-56521878D02*
X26916667Y-56321878D01*
X26916667Y-56321878D02*
X26883334Y-56255211D01*
X26883334Y-56255211D02*
X26850001Y-56221878D01*
X26850001Y-56221878D02*
X26783334Y-56188544D01*
X26783334Y-56188544D02*
X26650001Y-56188544D01*
X26650001Y-56188544D02*
X26583334Y-56221878D01*
X40216663Y-57782172D02*
X40216663Y-57082172D01*
X39916663Y-57782172D02*
X39916663Y-57415505D01*
X39916663Y-57415505D02*
X39949996Y-57348839D01*
X39949996Y-57348839D02*
X40016663Y-57315505D01*
X40016663Y-57315505D02*
X40116663Y-57315505D01*
X40116663Y-57315505D02*
X40183330Y-57348839D01*
X40183330Y-57348839D02*
X40216663Y-57382172D01*
X39683330Y-57315505D02*
X39416663Y-57315505D01*
X39583330Y-57082172D02*
X39583330Y-57682172D01*
X39583330Y-57682172D02*
X39549997Y-57748839D01*
X39549997Y-57748839D02*
X39483330Y-57782172D01*
X39483330Y-57782172D02*
X39416663Y-57782172D01*
X39283330Y-57315505D02*
X39016663Y-57315505D01*
X39183330Y-57082172D02*
X39183330Y-57682172D01*
X39183330Y-57682172D02*
X39149997Y-57748839D01*
X39149997Y-57748839D02*
X39083330Y-57782172D01*
X39083330Y-57782172D02*
X39016663Y-57782172D01*
X38783330Y-57315505D02*
X38783330Y-58015505D01*
X38783330Y-57348839D02*
X38716663Y-57315505D01*
X38716663Y-57315505D02*
X38583330Y-57315505D01*
X38583330Y-57315505D02*
X38516663Y-57348839D01*
X38516663Y-57348839D02*
X38483330Y-57382172D01*
X38483330Y-57382172D02*
X38449997Y-57448839D01*
X38449997Y-57448839D02*
X38449997Y-57648839D01*
X38449997Y-57648839D02*
X38483330Y-57715505D01*
X38483330Y-57715505D02*
X38516663Y-57748839D01*
X38516663Y-57748839D02*
X38583330Y-57782172D01*
X38583330Y-57782172D02*
X38716663Y-57782172D01*
X38716663Y-57782172D02*
X38783330Y-57748839D01*
X38183330Y-57748839D02*
X38116664Y-57782172D01*
X38116664Y-57782172D02*
X37983330Y-57782172D01*
X37983330Y-57782172D02*
X37916664Y-57748839D01*
X37916664Y-57748839D02*
X37883330Y-57682172D01*
X37883330Y-57682172D02*
X37883330Y-57648839D01*
X37883330Y-57648839D02*
X37916664Y-57582172D01*
X37916664Y-57582172D02*
X37983330Y-57548839D01*
X37983330Y-57548839D02*
X38083330Y-57548839D01*
X38083330Y-57548839D02*
X38149997Y-57515505D01*
X38149997Y-57515505D02*
X38183330Y-57448839D01*
X38183330Y-57448839D02*
X38183330Y-57415505D01*
X38183330Y-57415505D02*
X38149997Y-57348839D01*
X38149997Y-57348839D02*
X38083330Y-57315505D01*
X38083330Y-57315505D02*
X37983330Y-57315505D01*
X37983330Y-57315505D02*
X37916664Y-57348839D01*
X37583330Y-57715505D02*
X37549997Y-57748839D01*
X37549997Y-57748839D02*
X37583330Y-57782172D01*
X37583330Y-57782172D02*
X37616663Y-57748839D01*
X37616663Y-57748839D02*
X37583330Y-57715505D01*
X37583330Y-57715505D02*
X37583330Y-57782172D01*
X37583330Y-57348839D02*
X37549997Y-57382172D01*
X37549997Y-57382172D02*
X37583330Y-57415505D01*
X37583330Y-57415505D02*
X37616663Y-57382172D01*
X37616663Y-57382172D02*
X37583330Y-57348839D01*
X37583330Y-57348839D02*
X37583330Y-57415505D01*
X36749997Y-57048839D02*
X37349997Y-57948839D01*
X36016664Y-57048839D02*
X36616664Y-57948839D01*
X35483331Y-57315505D02*
X35483331Y-57882172D01*
X35483331Y-57882172D02*
X35516664Y-57948839D01*
X35516664Y-57948839D02*
X35549998Y-57982172D01*
X35549998Y-57982172D02*
X35616664Y-58015505D01*
X35616664Y-58015505D02*
X35716664Y-58015505D01*
X35716664Y-58015505D02*
X35783331Y-57982172D01*
X35483331Y-57748839D02*
X35549998Y-57782172D01*
X35549998Y-57782172D02*
X35683331Y-57782172D01*
X35683331Y-57782172D02*
X35749998Y-57748839D01*
X35749998Y-57748839D02*
X35783331Y-57715505D01*
X35783331Y-57715505D02*
X35816664Y-57648839D01*
X35816664Y-57648839D02*
X35816664Y-57448839D01*
X35816664Y-57448839D02*
X35783331Y-57382172D01*
X35783331Y-57382172D02*
X35749998Y-57348839D01*
X35749998Y-57348839D02*
X35683331Y-57315505D01*
X35683331Y-57315505D02*
X35549998Y-57315505D01*
X35549998Y-57315505D02*
X35483331Y-57348839D01*
X35149998Y-57782172D02*
X35149998Y-57315505D01*
X35149998Y-57082172D02*
X35183331Y-57115505D01*
X35183331Y-57115505D02*
X35149998Y-57148839D01*
X35149998Y-57148839D02*
X35116665Y-57115505D01*
X35116665Y-57115505D02*
X35149998Y-57082172D01*
X35149998Y-57082172D02*
X35149998Y-57148839D01*
X34916665Y-57315505D02*
X34649998Y-57315505D01*
X34816665Y-57082172D02*
X34816665Y-57682172D01*
X34816665Y-57682172D02*
X34783332Y-57748839D01*
X34783332Y-57748839D02*
X34716665Y-57782172D01*
X34716665Y-57782172D02*
X34649998Y-57782172D01*
X34416665Y-57782172D02*
X34416665Y-57082172D01*
X34116665Y-57782172D02*
X34116665Y-57415505D01*
X34116665Y-57415505D02*
X34149998Y-57348839D01*
X34149998Y-57348839D02*
X34216665Y-57315505D01*
X34216665Y-57315505D02*
X34316665Y-57315505D01*
X34316665Y-57315505D02*
X34383332Y-57348839D01*
X34383332Y-57348839D02*
X34416665Y-57382172D01*
X33483332Y-57315505D02*
X33483332Y-57782172D01*
X33783332Y-57315505D02*
X33783332Y-57682172D01*
X33783332Y-57682172D02*
X33749999Y-57748839D01*
X33749999Y-57748839D02*
X33683332Y-57782172D01*
X33683332Y-57782172D02*
X33583332Y-57782172D01*
X33583332Y-57782172D02*
X33516665Y-57748839D01*
X33516665Y-57748839D02*
X33483332Y-57715505D01*
X33149999Y-57782172D02*
X33149999Y-57082172D01*
X33149999Y-57348839D02*
X33083332Y-57315505D01*
X33083332Y-57315505D02*
X32949999Y-57315505D01*
X32949999Y-57315505D02*
X32883332Y-57348839D01*
X32883332Y-57348839D02*
X32849999Y-57382172D01*
X32849999Y-57382172D02*
X32816666Y-57448839D01*
X32816666Y-57448839D02*
X32816666Y-57648839D01*
X32816666Y-57648839D02*
X32849999Y-57715505D01*
X32849999Y-57715505D02*
X32883332Y-57748839D01*
X32883332Y-57748839D02*
X32949999Y-57782172D01*
X32949999Y-57782172D02*
X33083332Y-57782172D01*
X33083332Y-57782172D02*
X33149999Y-57748839D01*
X32516666Y-57715505D02*
X32483333Y-57748839D01*
X32483333Y-57748839D02*
X32516666Y-57782172D01*
X32516666Y-57782172D02*
X32549999Y-57748839D01*
X32549999Y-57748839D02*
X32516666Y-57715505D01*
X32516666Y-57715505D02*
X32516666Y-57782172D01*
X31883333Y-57748839D02*
X31950000Y-57782172D01*
X31950000Y-57782172D02*
X32083333Y-57782172D01*
X32083333Y-57782172D02*
X32150000Y-57748839D01*
X32150000Y-57748839D02*
X32183333Y-57715505D01*
X32183333Y-57715505D02*
X32216666Y-57648839D01*
X32216666Y-57648839D02*
X32216666Y-57448839D01*
X32216666Y-57448839D02*
X32183333Y-57382172D01*
X32183333Y-57382172D02*
X32150000Y-57348839D01*
X32150000Y-57348839D02*
X32083333Y-57315505D01*
X32083333Y-57315505D02*
X31950000Y-57315505D01*
X31950000Y-57315505D02*
X31883333Y-57348839D01*
X31483333Y-57782172D02*
X31550000Y-57748839D01*
X31550000Y-57748839D02*
X31583333Y-57715505D01*
X31583333Y-57715505D02*
X31616666Y-57648839D01*
X31616666Y-57648839D02*
X31616666Y-57448839D01*
X31616666Y-57448839D02*
X31583333Y-57382172D01*
X31583333Y-57382172D02*
X31550000Y-57348839D01*
X31550000Y-57348839D02*
X31483333Y-57315505D01*
X31483333Y-57315505D02*
X31383333Y-57315505D01*
X31383333Y-57315505D02*
X31316666Y-57348839D01*
X31316666Y-57348839D02*
X31283333Y-57382172D01*
X31283333Y-57382172D02*
X31250000Y-57448839D01*
X31250000Y-57448839D02*
X31250000Y-57648839D01*
X31250000Y-57648839D02*
X31283333Y-57715505D01*
X31283333Y-57715505D02*
X31316666Y-57748839D01*
X31316666Y-57748839D02*
X31383333Y-57782172D01*
X31383333Y-57782172D02*
X31483333Y-57782172D01*
X30950000Y-57782172D02*
X30950000Y-57315505D01*
X30950000Y-57382172D02*
X30916667Y-57348839D01*
X30916667Y-57348839D02*
X30850000Y-57315505D01*
X30850000Y-57315505D02*
X30750000Y-57315505D01*
X30750000Y-57315505D02*
X30683333Y-57348839D01*
X30683333Y-57348839D02*
X30650000Y-57415505D01*
X30650000Y-57415505D02*
X30650000Y-57782172D01*
X30650000Y-57415505D02*
X30616667Y-57348839D01*
X30616667Y-57348839D02*
X30550000Y-57315505D01*
X30550000Y-57315505D02*
X30450000Y-57315505D01*
X30450000Y-57315505D02*
X30383333Y-57348839D01*
X30383333Y-57348839D02*
X30350000Y-57415505D01*
X30350000Y-57415505D02*
X30350000Y-57782172D01*
X29516667Y-57048839D02*
X30116667Y-57948839D01*
X29283334Y-57315505D02*
X29283334Y-58015505D01*
X29283334Y-57348839D02*
X29216667Y-57315505D01*
X29216667Y-57315505D02*
X29083334Y-57315505D01*
X29083334Y-57315505D02*
X29016667Y-57348839D01*
X29016667Y-57348839D02*
X28983334Y-57382172D01*
X28983334Y-57382172D02*
X28950001Y-57448839D01*
X28950001Y-57448839D02*
X28950001Y-57648839D01*
X28950001Y-57648839D02*
X28983334Y-57715505D01*
X28983334Y-57715505D02*
X29016667Y-57748839D01*
X29016667Y-57748839D02*
X29083334Y-57782172D01*
X29083334Y-57782172D02*
X29216667Y-57782172D01*
X29216667Y-57782172D02*
X29283334Y-57748839D01*
X28383334Y-57748839D02*
X28450001Y-57782172D01*
X28450001Y-57782172D02*
X28583334Y-57782172D01*
X28583334Y-57782172D02*
X28650001Y-57748839D01*
X28650001Y-57748839D02*
X28683334Y-57682172D01*
X28683334Y-57682172D02*
X28683334Y-57415505D01*
X28683334Y-57415505D02*
X28650001Y-57348839D01*
X28650001Y-57348839D02*
X28583334Y-57315505D01*
X28583334Y-57315505D02*
X28450001Y-57315505D01*
X28450001Y-57315505D02*
X28383334Y-57348839D01*
X28383334Y-57348839D02*
X28350001Y-57415505D01*
X28350001Y-57415505D02*
X28350001Y-57482172D01*
X28350001Y-57482172D02*
X28683334Y-57548839D01*
X27750001Y-57782172D02*
X27750001Y-57082172D01*
X27750001Y-57748839D02*
X27816668Y-57782172D01*
X27816668Y-57782172D02*
X27950001Y-57782172D01*
X27950001Y-57782172D02*
X28016668Y-57748839D01*
X28016668Y-57748839D02*
X28050001Y-57715505D01*
X28050001Y-57715505D02*
X28083334Y-57648839D01*
X28083334Y-57648839D02*
X28083334Y-57448839D01*
X28083334Y-57448839D02*
X28050001Y-57382172D01*
X28050001Y-57382172D02*
X28016668Y-57348839D01*
X28016668Y-57348839D02*
X27950001Y-57315505D01*
X27950001Y-57315505D02*
X27816668Y-57315505D01*
X27816668Y-57315505D02*
X27750001Y-57348839D01*
X27116668Y-57782172D02*
X27116668Y-57415505D01*
X27116668Y-57415505D02*
X27150001Y-57348839D01*
X27150001Y-57348839D02*
X27216668Y-57315505D01*
X27216668Y-57315505D02*
X27350001Y-57315505D01*
X27350001Y-57315505D02*
X27416668Y-57348839D01*
X27116668Y-57748839D02*
X27183335Y-57782172D01*
X27183335Y-57782172D02*
X27350001Y-57782172D01*
X27350001Y-57782172D02*
X27416668Y-57748839D01*
X27416668Y-57748839D02*
X27450001Y-57682172D01*
X27450001Y-57682172D02*
X27450001Y-57615505D01*
X27450001Y-57615505D02*
X27416668Y-57548839D01*
X27416668Y-57548839D02*
X27350001Y-57515505D01*
X27350001Y-57515505D02*
X27183335Y-57515505D01*
X27183335Y-57515505D02*
X27116668Y-57482172D01*
X26683335Y-57782172D02*
X26750002Y-57748839D01*
X26750002Y-57748839D02*
X26783335Y-57682172D01*
X26783335Y-57682172D02*
X26783335Y-57082172D01*
X26416668Y-57782172D02*
X26416668Y-57082172D01*
X26416668Y-57348839D02*
X26350001Y-57315505D01*
X26350001Y-57315505D02*
X26216668Y-57315505D01*
X26216668Y-57315505D02*
X26150001Y-57348839D01*
X26150001Y-57348839D02*
X26116668Y-57382172D01*
X26116668Y-57382172D02*
X26083335Y-57448839D01*
X26083335Y-57448839D02*
X26083335Y-57648839D01*
X26083335Y-57648839D02*
X26116668Y-57715505D01*
X26116668Y-57715505D02*
X26150001Y-57748839D01*
X26150001Y-57748839D02*
X26216668Y-57782172D01*
X26216668Y-57782172D02*
X26350001Y-57782172D01*
X26350001Y-57782172D02*
X26416668Y-57748839D01*
X25683335Y-57782172D02*
X25750002Y-57748839D01*
X25750002Y-57748839D02*
X25783335Y-57715505D01*
X25783335Y-57715505D02*
X25816668Y-57648839D01*
X25816668Y-57648839D02*
X25816668Y-57448839D01*
X25816668Y-57448839D02*
X25783335Y-57382172D01*
X25783335Y-57382172D02*
X25750002Y-57348839D01*
X25750002Y-57348839D02*
X25683335Y-57315505D01*
X25683335Y-57315505D02*
X25583335Y-57315505D01*
X25583335Y-57315505D02*
X25516668Y-57348839D01*
X25516668Y-57348839D02*
X25483335Y-57382172D01*
X25483335Y-57382172D02*
X25450002Y-57448839D01*
X25450002Y-57448839D02*
X25450002Y-57648839D01*
X25450002Y-57648839D02*
X25483335Y-57715505D01*
X25483335Y-57715505D02*
X25516668Y-57748839D01*
X25516668Y-57748839D02*
X25583335Y-57782172D01*
X25583335Y-57782172D02*
X25683335Y-57782172D01*
X24850002Y-57782172D02*
X24850002Y-57415505D01*
X24850002Y-57415505D02*
X24883335Y-57348839D01*
X24883335Y-57348839D02*
X24950002Y-57315505D01*
X24950002Y-57315505D02*
X25083335Y-57315505D01*
X25083335Y-57315505D02*
X25150002Y-57348839D01*
X24850002Y-57748839D02*
X24916669Y-57782172D01*
X24916669Y-57782172D02*
X25083335Y-57782172D01*
X25083335Y-57782172D02*
X25150002Y-57748839D01*
X25150002Y-57748839D02*
X25183335Y-57682172D01*
X25183335Y-57682172D02*
X25183335Y-57615505D01*
X25183335Y-57615505D02*
X25150002Y-57548839D01*
X25150002Y-57548839D02*
X25083335Y-57515505D01*
X25083335Y-57515505D02*
X24916669Y-57515505D01*
X24916669Y-57515505D02*
X24850002Y-57482172D01*
X24516669Y-57782172D02*
X24516669Y-57315505D01*
X24516669Y-57448839D02*
X24483336Y-57382172D01*
X24483336Y-57382172D02*
X24450002Y-57348839D01*
X24450002Y-57348839D02*
X24383336Y-57315505D01*
X24383336Y-57315505D02*
X24316669Y-57315505D01*
X23783336Y-57782172D02*
X23783336Y-57082172D01*
X23783336Y-57748839D02*
X23850003Y-57782172D01*
X23850003Y-57782172D02*
X23983336Y-57782172D01*
X23983336Y-57782172D02*
X24050003Y-57748839D01*
X24050003Y-57748839D02*
X24083336Y-57715505D01*
X24083336Y-57715505D02*
X24116669Y-57648839D01*
X24116669Y-57648839D02*
X24116669Y-57448839D01*
X24116669Y-57448839D02*
X24083336Y-57382172D01*
X24083336Y-57382172D02*
X24050003Y-57348839D01*
X24050003Y-57348839D02*
X23983336Y-57315505D01*
X23983336Y-57315505D02*
X23850003Y-57315505D01*
X23850003Y-57315505D02*
X23783336Y-57348839D01*
X39883333Y-58909133D02*
X39883333Y-58209133D01*
X39883333Y-58209133D02*
X39616666Y-58209133D01*
X39616666Y-58209133D02*
X39550000Y-58242466D01*
X39550000Y-58242466D02*
X39516666Y-58275800D01*
X39516666Y-58275800D02*
X39483333Y-58342466D01*
X39483333Y-58342466D02*
X39483333Y-58442466D01*
X39483333Y-58442466D02*
X39516666Y-58509133D01*
X39516666Y-58509133D02*
X39550000Y-58542466D01*
X39550000Y-58542466D02*
X39616666Y-58575800D01*
X39616666Y-58575800D02*
X39883333Y-58575800D01*
X38783333Y-58842466D02*
X38816666Y-58875800D01*
X38816666Y-58875800D02*
X38916666Y-58909133D01*
X38916666Y-58909133D02*
X38983333Y-58909133D01*
X38983333Y-58909133D02*
X39083333Y-58875800D01*
X39083333Y-58875800D02*
X39150000Y-58809133D01*
X39150000Y-58809133D02*
X39183333Y-58742466D01*
X39183333Y-58742466D02*
X39216666Y-58609133D01*
X39216666Y-58609133D02*
X39216666Y-58509133D01*
X39216666Y-58509133D02*
X39183333Y-58375800D01*
X39183333Y-58375800D02*
X39150000Y-58309133D01*
X39150000Y-58309133D02*
X39083333Y-58242466D01*
X39083333Y-58242466D02*
X38983333Y-58209133D01*
X38983333Y-58209133D02*
X38916666Y-58209133D01*
X38916666Y-58209133D02*
X38816666Y-58242466D01*
X38816666Y-58242466D02*
X38783333Y-58275800D01*
X38250000Y-58542466D02*
X38150000Y-58575800D01*
X38150000Y-58575800D02*
X38116666Y-58609133D01*
X38116666Y-58609133D02*
X38083333Y-58675800D01*
X38083333Y-58675800D02*
X38083333Y-58775800D01*
X38083333Y-58775800D02*
X38116666Y-58842466D01*
X38116666Y-58842466D02*
X38150000Y-58875800D01*
X38150000Y-58875800D02*
X38216666Y-58909133D01*
X38216666Y-58909133D02*
X38483333Y-58909133D01*
X38483333Y-58909133D02*
X38483333Y-58209133D01*
X38483333Y-58209133D02*
X38250000Y-58209133D01*
X38250000Y-58209133D02*
X38183333Y-58242466D01*
X38183333Y-58242466D02*
X38150000Y-58275800D01*
X38150000Y-58275800D02*
X38116666Y-58342466D01*
X38116666Y-58342466D02*
X38116666Y-58409133D01*
X38116666Y-58409133D02*
X38150000Y-58475800D01*
X38150000Y-58475800D02*
X38183333Y-58509133D01*
X38183333Y-58509133D02*
X38250000Y-58542466D01*
X38250000Y-58542466D02*
X38483333Y-58542466D01*
X37783333Y-58842466D02*
X37750000Y-58875800D01*
X37750000Y-58875800D02*
X37783333Y-58909133D01*
X37783333Y-58909133D02*
X37816666Y-58875800D01*
X37816666Y-58875800D02*
X37783333Y-58842466D01*
X37783333Y-58842466D02*
X37783333Y-58909133D01*
X37783333Y-58475800D02*
X37750000Y-58509133D01*
X37750000Y-58509133D02*
X37783333Y-58542466D01*
X37783333Y-58542466D02*
X37816666Y-58509133D01*
X37816666Y-58509133D02*
X37783333Y-58475800D01*
X37783333Y-58475800D02*
X37783333Y-58542466D01*
X36983334Y-58442466D02*
X36816667Y-58909133D01*
X36816667Y-58909133D02*
X36650000Y-58442466D01*
X36250001Y-58209133D02*
X36183334Y-58209133D01*
X36183334Y-58209133D02*
X36116667Y-58242466D01*
X36116667Y-58242466D02*
X36083334Y-58275800D01*
X36083334Y-58275800D02*
X36050001Y-58342466D01*
X36050001Y-58342466D02*
X36016667Y-58475800D01*
X36016667Y-58475800D02*
X36016667Y-58642466D01*
X36016667Y-58642466D02*
X36050001Y-58775800D01*
X36050001Y-58775800D02*
X36083334Y-58842466D01*
X36083334Y-58842466D02*
X36116667Y-58875800D01*
X36116667Y-58875800D02*
X36183334Y-58909133D01*
X36183334Y-58909133D02*
X36250001Y-58909133D01*
X36250001Y-58909133D02*
X36316667Y-58875800D01*
X36316667Y-58875800D02*
X36350001Y-58842466D01*
X36350001Y-58842466D02*
X36383334Y-58775800D01*
X36383334Y-58775800D02*
X36416667Y-58642466D01*
X36416667Y-58642466D02*
X36416667Y-58475800D01*
X36416667Y-58475800D02*
X36383334Y-58342466D01*
X36383334Y-58342466D02*
X36350001Y-58275800D01*
X36350001Y-58275800D02*
X36316667Y-58242466D01*
X36316667Y-58242466D02*
X36250001Y-58209133D01*
X35716667Y-58842466D02*
X35683334Y-58875800D01*
X35683334Y-58875800D02*
X35716667Y-58909133D01*
X35716667Y-58909133D02*
X35750000Y-58875800D01*
X35750000Y-58875800D02*
X35716667Y-58842466D01*
X35716667Y-58842466D02*
X35716667Y-58909133D01*
X35250001Y-58209133D02*
X35183334Y-58209133D01*
X35183334Y-58209133D02*
X35116667Y-58242466D01*
X35116667Y-58242466D02*
X35083334Y-58275800D01*
X35083334Y-58275800D02*
X35050001Y-58342466D01*
X35050001Y-58342466D02*
X35016667Y-58475800D01*
X35016667Y-58475800D02*
X35016667Y-58642466D01*
X35016667Y-58642466D02*
X35050001Y-58775800D01*
X35050001Y-58775800D02*
X35083334Y-58842466D01*
X35083334Y-58842466D02*
X35116667Y-58875800D01*
X35116667Y-58875800D02*
X35183334Y-58909133D01*
X35183334Y-58909133D02*
X35250001Y-58909133D01*
X35250001Y-58909133D02*
X35316667Y-58875800D01*
X35316667Y-58875800D02*
X35350001Y-58842466D01*
X35350001Y-58842466D02*
X35383334Y-58775800D01*
X35383334Y-58775800D02*
X35416667Y-58642466D01*
X35416667Y-58642466D02*
X35416667Y-58475800D01*
X35416667Y-58475800D02*
X35383334Y-58342466D01*
X35383334Y-58342466D02*
X35350001Y-58275800D01*
X35350001Y-58275800D02*
X35316667Y-58242466D01*
X35316667Y-58242466D02*
X35250001Y-58209133D01*
X34716667Y-58842466D02*
X34683334Y-58875800D01*
X34683334Y-58875800D02*
X34716667Y-58909133D01*
X34716667Y-58909133D02*
X34750000Y-58875800D01*
X34750000Y-58875800D02*
X34716667Y-58842466D01*
X34716667Y-58842466D02*
X34716667Y-58909133D01*
X34250001Y-58209133D02*
X34183334Y-58209133D01*
X34183334Y-58209133D02*
X34116667Y-58242466D01*
X34116667Y-58242466D02*
X34083334Y-58275800D01*
X34083334Y-58275800D02*
X34050001Y-58342466D01*
X34050001Y-58342466D02*
X34016667Y-58475800D01*
X34016667Y-58475800D02*
X34016667Y-58642466D01*
X34016667Y-58642466D02*
X34050001Y-58775800D01*
X34050001Y-58775800D02*
X34083334Y-58842466D01*
X34083334Y-58842466D02*
X34116667Y-58875800D01*
X34116667Y-58875800D02*
X34183334Y-58909133D01*
X34183334Y-58909133D02*
X34250001Y-58909133D01*
X34250001Y-58909133D02*
X34316667Y-58875800D01*
X34316667Y-58875800D02*
X34350001Y-58842466D01*
X34350001Y-58842466D02*
X34383334Y-58775800D01*
X34383334Y-58775800D02*
X34416667Y-58642466D01*
X34416667Y-58642466D02*
X34416667Y-58475800D01*
X34416667Y-58475800D02*
X34383334Y-58342466D01*
X34383334Y-58342466D02*
X34350001Y-58275800D01*
X34350001Y-58275800D02*
X34316667Y-58242466D01*
X34316667Y-58242466D02*
X34250001Y-58209133D01*
X33716667Y-58642466D02*
X33183334Y-58642466D01*
X32450000Y-58909133D02*
X32683333Y-58575800D01*
X32850000Y-58909133D02*
X32850000Y-58209133D01*
X32850000Y-58209133D02*
X32583333Y-58209133D01*
X32583333Y-58209133D02*
X32516667Y-58242466D01*
X32516667Y-58242466D02*
X32483333Y-58275800D01*
X32483333Y-58275800D02*
X32450000Y-58342466D01*
X32450000Y-58342466D02*
X32450000Y-58442466D01*
X32450000Y-58442466D02*
X32483333Y-58509133D01*
X32483333Y-58509133D02*
X32516667Y-58542466D01*
X32516667Y-58542466D02*
X32583333Y-58575800D01*
X32583333Y-58575800D02*
X32850000Y-58575800D01*
X31750000Y-58842466D02*
X31783333Y-58875800D01*
X31783333Y-58875800D02*
X31883333Y-58909133D01*
X31883333Y-58909133D02*
X31950000Y-58909133D01*
X31950000Y-58909133D02*
X32050000Y-58875800D01*
X32050000Y-58875800D02*
X32116667Y-58809133D01*
X32116667Y-58809133D02*
X32150000Y-58742466D01*
X32150000Y-58742466D02*
X32183333Y-58609133D01*
X32183333Y-58609133D02*
X32183333Y-58509133D01*
X32183333Y-58509133D02*
X32150000Y-58375800D01*
X32150000Y-58375800D02*
X32116667Y-58309133D01*
X32116667Y-58309133D02*
X32050000Y-58242466D01*
X32050000Y-58242466D02*
X31950000Y-58209133D01*
X31950000Y-58209133D02*
X31883333Y-58209133D01*
X31883333Y-58209133D02*
X31783333Y-58242466D01*
X31783333Y-58242466D02*
X31750000Y-58275800D01*
X31083333Y-58909133D02*
X31483333Y-58909133D01*
X31283333Y-58909133D02*
X31283333Y-58209133D01*
X31283333Y-58209133D02*
X31350000Y-58309133D01*
X31350000Y-58309133D02*
X31416667Y-58375800D01*
X31416667Y-58375800D02*
X31483333Y-58409133D01*
X30050000Y-59175800D02*
X30083333Y-59142466D01*
X30083333Y-59142466D02*
X30150000Y-59042466D01*
X30150000Y-59042466D02*
X30183333Y-58975800D01*
X30183333Y-58975800D02*
X30216667Y-58875800D01*
X30216667Y-58875800D02*
X30250000Y-58709133D01*
X30250000Y-58709133D02*
X30250000Y-58575800D01*
X30250000Y-58575800D02*
X30216667Y-58409133D01*
X30216667Y-58409133D02*
X30183333Y-58309133D01*
X30183333Y-58309133D02*
X30150000Y-58242466D01*
X30150000Y-58242466D02*
X30083333Y-58142466D01*
X30083333Y-58142466D02*
X30050000Y-58109133D01*
X29816666Y-58875800D02*
X29716666Y-58909133D01*
X29716666Y-58909133D02*
X29550000Y-58909133D01*
X29550000Y-58909133D02*
X29483333Y-58875800D01*
X29483333Y-58875800D02*
X29450000Y-58842466D01*
X29450000Y-58842466D02*
X29416666Y-58775800D01*
X29416666Y-58775800D02*
X29416666Y-58709133D01*
X29416666Y-58709133D02*
X29450000Y-58642466D01*
X29450000Y-58642466D02*
X29483333Y-58609133D01*
X29483333Y-58609133D02*
X29550000Y-58575800D01*
X29550000Y-58575800D02*
X29683333Y-58542466D01*
X29683333Y-58542466D02*
X29750000Y-58509133D01*
X29750000Y-58509133D02*
X29783333Y-58475800D01*
X29783333Y-58475800D02*
X29816666Y-58409133D01*
X29816666Y-58409133D02*
X29816666Y-58342466D01*
X29816666Y-58342466D02*
X29783333Y-58275800D01*
X29783333Y-58275800D02*
X29750000Y-58242466D01*
X29750000Y-58242466D02*
X29683333Y-58209133D01*
X29683333Y-58209133D02*
X29516666Y-58209133D01*
X29516666Y-58209133D02*
X29416666Y-58242466D01*
X29616666Y-58109133D02*
X29616666Y-59009133D01*
X29116666Y-58842466D02*
X29083333Y-58875800D01*
X29083333Y-58875800D02*
X29116666Y-58909133D01*
X29116666Y-58909133D02*
X29149999Y-58875800D01*
X29149999Y-58875800D02*
X29116666Y-58842466D01*
X29116666Y-58842466D02*
X29116666Y-58909133D01*
X29116666Y-58475800D02*
X29083333Y-58509133D01*
X29083333Y-58509133D02*
X29116666Y-58542466D01*
X29116666Y-58542466D02*
X29149999Y-58509133D01*
X29149999Y-58509133D02*
X29116666Y-58475800D01*
X29116666Y-58475800D02*
X29116666Y-58542466D01*
X28816666Y-58275800D02*
X28783333Y-58242466D01*
X28783333Y-58242466D02*
X28716666Y-58209133D01*
X28716666Y-58209133D02*
X28550000Y-58209133D01*
X28550000Y-58209133D02*
X28483333Y-58242466D01*
X28483333Y-58242466D02*
X28450000Y-58275800D01*
X28450000Y-58275800D02*
X28416666Y-58342466D01*
X28416666Y-58342466D02*
X28416666Y-58409133D01*
X28416666Y-58409133D02*
X28450000Y-58509133D01*
X28450000Y-58509133D02*
X28850000Y-58909133D01*
X28850000Y-58909133D02*
X28416666Y-58909133D01*
X28183333Y-58209133D02*
X27716666Y-58209133D01*
X27716666Y-58209133D02*
X28016666Y-58909133D01*
X27449999Y-58909133D02*
X27449999Y-58209133D01*
X27449999Y-58475800D02*
X27383332Y-58442466D01*
X27383332Y-58442466D02*
X27249999Y-58442466D01*
X27249999Y-58442466D02*
X27183332Y-58475800D01*
X27183332Y-58475800D02*
X27149999Y-58509133D01*
X27149999Y-58509133D02*
X27116666Y-58575800D01*
X27116666Y-58575800D02*
X27116666Y-58775800D01*
X27116666Y-58775800D02*
X27149999Y-58842466D01*
X27149999Y-58842466D02*
X27183332Y-58875800D01*
X27183332Y-58875800D02*
X27249999Y-58909133D01*
X27249999Y-58909133D02*
X27383332Y-58909133D01*
X27383332Y-58909133D02*
X27449999Y-58875800D01*
X26449999Y-58909133D02*
X26849999Y-58909133D01*
X26649999Y-58909133D02*
X26649999Y-58209133D01*
X26649999Y-58209133D02*
X26716666Y-58309133D01*
X26716666Y-58309133D02*
X26783333Y-58375800D01*
X26783333Y-58375800D02*
X26849999Y-58409133D01*
X25816666Y-58209133D02*
X26149999Y-58209133D01*
X26149999Y-58209133D02*
X26183332Y-58542466D01*
X26183332Y-58542466D02*
X26149999Y-58509133D01*
X26149999Y-58509133D02*
X26083332Y-58475800D01*
X26083332Y-58475800D02*
X25916666Y-58475800D01*
X25916666Y-58475800D02*
X25849999Y-58509133D01*
X25849999Y-58509133D02*
X25816666Y-58542466D01*
X25816666Y-58542466D02*
X25783332Y-58609133D01*
X25783332Y-58609133D02*
X25783332Y-58775800D01*
X25783332Y-58775800D02*
X25816666Y-58842466D01*
X25816666Y-58842466D02*
X25849999Y-58875800D01*
X25849999Y-58875800D02*
X25916666Y-58909133D01*
X25916666Y-58909133D02*
X26083332Y-58909133D01*
X26083332Y-58909133D02*
X26149999Y-58875800D01*
X26149999Y-58875800D02*
X26183332Y-58842466D01*
X25216665Y-58875800D02*
X25283332Y-58909133D01*
X25283332Y-58909133D02*
X25416665Y-58909133D01*
X25416665Y-58909133D02*
X25483332Y-58875800D01*
X25483332Y-58875800D02*
X25516665Y-58809133D01*
X25516665Y-58809133D02*
X25516665Y-58542466D01*
X25516665Y-58542466D02*
X25483332Y-58475800D01*
X25483332Y-58475800D02*
X25416665Y-58442466D01*
X25416665Y-58442466D02*
X25283332Y-58442466D01*
X25283332Y-58442466D02*
X25216665Y-58475800D01*
X25216665Y-58475800D02*
X25183332Y-58542466D01*
X25183332Y-58542466D02*
X25183332Y-58609133D01*
X25183332Y-58609133D02*
X25516665Y-58675800D01*
X24583332Y-58909133D02*
X24583332Y-58542466D01*
X24583332Y-58542466D02*
X24616665Y-58475800D01*
X24616665Y-58475800D02*
X24683332Y-58442466D01*
X24683332Y-58442466D02*
X24816665Y-58442466D01*
X24816665Y-58442466D02*
X24883332Y-58475800D01*
X24583332Y-58875800D02*
X24649999Y-58909133D01*
X24649999Y-58909133D02*
X24816665Y-58909133D01*
X24816665Y-58909133D02*
X24883332Y-58875800D01*
X24883332Y-58875800D02*
X24916665Y-58809133D01*
X24916665Y-58809133D02*
X24916665Y-58742466D01*
X24916665Y-58742466D02*
X24883332Y-58675800D01*
X24883332Y-58675800D02*
X24816665Y-58642466D01*
X24816665Y-58642466D02*
X24649999Y-58642466D01*
X24649999Y-58642466D02*
X24583332Y-58609133D01*
X24316666Y-59175800D02*
X24283332Y-59142466D01*
X24283332Y-59142466D02*
X24216666Y-59042466D01*
X24216666Y-59042466D02*
X24183332Y-58975800D01*
X24183332Y-58975800D02*
X24149999Y-58875800D01*
X24149999Y-58875800D02*
X24116666Y-58709133D01*
X24116666Y-58709133D02*
X24116666Y-58575800D01*
X24116666Y-58575800D02*
X24149999Y-58409133D01*
X24149999Y-58409133D02*
X24183332Y-58309133D01*
X24183332Y-58309133D02*
X24216666Y-58242466D01*
X24216666Y-58242466D02*
X24283332Y-58142466D01*
X24283332Y-58142466D02*
X24316666Y-58109133D01*
D11*
X127333333Y-29454819D02*
X127333333Y-30169104D01*
X127333333Y-30169104D02*
X127380952Y-30311961D01*
X127380952Y-30311961D02*
X127476190Y-30407200D01*
X127476190Y-30407200D02*
X127619047Y-30454819D01*
X127619047Y-30454819D02*
X127714285Y-30454819D01*
X126952380Y-29454819D02*
X126333333Y-29454819D01*
X126333333Y-29454819D02*
X126666666Y-29835771D01*
X126666666Y-29835771D02*
X126523809Y-29835771D01*
X126523809Y-29835771D02*
X126428571Y-29883390D01*
X126428571Y-29883390D02*
X126380952Y-29931009D01*
X126380952Y-29931009D02*
X126333333Y-30026247D01*
X126333333Y-30026247D02*
X126333333Y-30264342D01*
X126333333Y-30264342D02*
X126380952Y-30359580D01*
X126380952Y-30359580D02*
X126428571Y-30407200D01*
X126428571Y-30407200D02*
X126523809Y-30454819D01*
X126523809Y-30454819D02*
X126809523Y-30454819D01*
X126809523Y-30454819D02*
X126904761Y-30407200D01*
X126904761Y-30407200D02*
X126952380Y-30359580D01*
X18704819Y-110666666D02*
X19419104Y-110666666D01*
X19419104Y-110666666D02*
X19561961Y-110619047D01*
X19561961Y-110619047D02*
X19657200Y-110523809D01*
X19657200Y-110523809D02*
X19704819Y-110380952D01*
X19704819Y-110380952D02*
X19704819Y-110285714D01*
X18800057Y-111095238D02*
X18752438Y-111142857D01*
X18752438Y-111142857D02*
X18704819Y-111238095D01*
X18704819Y-111238095D02*
X18704819Y-111476190D01*
X18704819Y-111476190D02*
X18752438Y-111571428D01*
X18752438Y-111571428D02*
X18800057Y-111619047D01*
X18800057Y-111619047D02*
X18895295Y-111666666D01*
X18895295Y-111666666D02*
X18990533Y-111666666D01*
X18990533Y-111666666D02*
X19133390Y-111619047D01*
X19133390Y-111619047D02*
X19704819Y-111047619D01*
X19704819Y-111047619D02*
X19704819Y-111666666D01*
X107333333Y-29004819D02*
X107333333Y-29719104D01*
X107333333Y-29719104D02*
X107380952Y-29861961D01*
X107380952Y-29861961D02*
X107476190Y-29957200D01*
X107476190Y-29957200D02*
X107619047Y-30004819D01*
X107619047Y-30004819D02*
X107714285Y-30004819D01*
X106333333Y-30004819D02*
X106904761Y-30004819D01*
X106619047Y-30004819D02*
X106619047Y-29004819D01*
X106619047Y-29004819D02*
X106714285Y-29147676D01*
X106714285Y-29147676D02*
X106809523Y-29242914D01*
X106809523Y-29242914D02*
X106904761Y-29290533D01*
D12*
%TO.C,U1*%
X64338000Y-77202800D02*
X64338000Y-74542800D01*
X72018000Y-77202800D02*
X72018000Y-74542800D01*
X73288000Y-77202800D02*
X74618000Y-77202800D01*
X74618000Y-77202800D02*
X74618000Y-75872800D01*
%TO.C,U2*%
X139338000Y-77202800D02*
X139338000Y-74542800D01*
X147018000Y-77202800D02*
X147018000Y-74542800D01*
X148288000Y-77202800D02*
X149618000Y-77202800D01*
X149618000Y-77202800D02*
X149618000Y-75872800D01*
%TO.C,J3*%
X120915000Y-31090000D02*
X133085000Y-31090000D01*
X120915000Y-31940000D02*
X120915000Y-31090000D01*
X120915000Y-36310000D02*
X120915000Y-35460000D01*
X123240000Y-36310000D02*
X120915000Y-36310000D01*
X130760000Y-36310000D02*
X133085000Y-36310000D01*
X130760000Y-38700000D02*
X130760000Y-36310000D01*
X133085000Y-31090000D02*
X133085000Y-31940000D01*
X133085000Y-36310000D02*
X133085000Y-35460000D01*
%TO.C,J2*%
X20340000Y-105915000D02*
X21190000Y-105915000D01*
X20340000Y-116085000D02*
X20340000Y-105915000D01*
X21190000Y-116085000D02*
X20340000Y-116085000D01*
X25560000Y-105915000D02*
X24710000Y-105915000D01*
X25560000Y-108240000D02*
X25560000Y-105915000D01*
X25560000Y-113760000D02*
X25560000Y-116085000D01*
X25560000Y-116085000D02*
X24710000Y-116085000D01*
X27950000Y-108240000D02*
X25560000Y-108240000D01*
%TO.C,J1*%
X101915000Y-30640000D02*
X112085000Y-30640000D01*
X101915000Y-31490000D02*
X101915000Y-30640000D01*
X101915000Y-35860000D02*
X101915000Y-35010000D01*
X104240000Y-35860000D02*
X101915000Y-35860000D01*
X109760000Y-35860000D02*
X112085000Y-35860000D01*
X109760000Y-38250000D02*
X109760000Y-35860000D01*
X112085000Y-30640000D02*
X112085000Y-31490000D01*
X112085000Y-35860000D02*
X112085000Y-35010000D01*
%TD*%
M02*
