G04 #@! TF.GenerationSoftware,KiCad,Pcbnew,8.0.4+1*
G04 #@! TF.CreationDate,2024-10-06T12:55:23+00:00*
G04 #@! TF.ProjectId,pedalboard-display,70656461-6c62-46f6-9172-642d64697370,0.0.0-RC1*
G04 #@! TF.SameCoordinates,Original*
G04 #@! TF.FileFunction,Soldermask,Bot*
G04 #@! TF.FilePolarity,Negative*
%FSLAX46Y46*%
G04 Gerber Fmt 4.6, Leading zero omitted, Abs format (unit mm)*
G04 Created by KiCad (PCBNEW 8.0.4+1) date 2024-10-06 12:55:23*
%MOMM*%
%LPD*%
G01*
G04 APERTURE LIST*
%ADD10C,2.100000*%
%ADD11R,1.700000X3.600000*%
%ADD12O,1.700000X3.500000*%
G04 APERTURE END LIST*
D10*
X54500000Y-75200000D03*
X54500000Y-127200000D03*
X84500000Y-75200000D03*
X84500000Y-127200000D03*
D11*
X73288000Y-75872800D03*
D12*
X70748000Y-75872800D03*
X68208000Y-75872800D03*
X65668000Y-75872800D03*
D10*
X129500000Y-75200000D03*
X129500000Y-127200000D03*
X159500000Y-75200000D03*
X159500000Y-127200000D03*
D11*
X148288000Y-75872800D03*
D12*
X145748000Y-75872800D03*
X143208000Y-75872800D03*
X140668000Y-75872800D03*
G36*
G01*
X147500000Y-66000000D02*
X147500000Y-71000000D01*
G75*
G02*
X147250000Y-71250000I-250000J0D01*
G01*
X146750000Y-71250000D01*
G75*
G02*
X146500000Y-71000000I0J250000D01*
G01*
X146500000Y-66000000D01*
G75*
G02*
X146750000Y-65750000I250000J0D01*
G01*
X147250000Y-65750000D01*
G75*
G02*
X147500000Y-66000000I0J-250000D01*
G01*
G37*
G36*
G01*
X145500000Y-66000000D02*
X145500000Y-71000000D01*
G75*
G02*
X145250000Y-71250000I-250000J0D01*
G01*
X144750000Y-71250000D01*
G75*
G02*
X144500000Y-71000000I0J250000D01*
G01*
X144500000Y-66000000D01*
G75*
G02*
X144750000Y-65750000I250000J0D01*
G01*
X145250000Y-65750000D01*
G75*
G02*
X145500000Y-66000000I0J-250000D01*
G01*
G37*
G36*
G01*
X143500000Y-66000000D02*
X143500000Y-71000000D01*
G75*
G02*
X143250000Y-71250000I-250000J0D01*
G01*
X142750000Y-71250000D01*
G75*
G02*
X142500000Y-71000000I0J250000D01*
G01*
X142500000Y-66000000D01*
G75*
G02*
X142750000Y-65750000I250000J0D01*
G01*
X143250000Y-65750000D01*
G75*
G02*
X143500000Y-66000000I0J-250000D01*
G01*
G37*
G36*
G01*
X141500000Y-66000000D02*
X141500000Y-71000000D01*
G75*
G02*
X141250000Y-71250000I-250000J0D01*
G01*
X140750000Y-71250000D01*
G75*
G02*
X140500000Y-71000000I0J250000D01*
G01*
X140500000Y-66000000D01*
G75*
G02*
X140750000Y-65750000I250000J0D01*
G01*
X141250000Y-65750000D01*
G75*
G02*
X141500000Y-66000000I0J-250000D01*
G01*
G37*
G36*
G01*
X150200000Y-65000000D02*
X150200000Y-67500000D01*
G75*
G02*
X149950000Y-67750000I-250000J0D01*
G01*
X148850000Y-67750000D01*
G75*
G02*
X148600000Y-67500000I0J250000D01*
G01*
X148600000Y-65000000D01*
G75*
G02*
X148850000Y-64750000I250000J0D01*
G01*
X149950000Y-64750000D01*
G75*
G02*
X150200000Y-65000000I0J-250000D01*
G01*
G37*
G36*
G01*
X139400000Y-65000000D02*
X139400000Y-67500000D01*
G75*
G02*
X139150000Y-67750000I-250000J0D01*
G01*
X138050000Y-67750000D01*
G75*
G02*
X137800000Y-67500000I0J250000D01*
G01*
X137800000Y-65000000D01*
G75*
G02*
X138050000Y-64750000I250000J0D01*
G01*
X139150000Y-64750000D01*
G75*
G02*
X139400000Y-65000000I0J-250000D01*
G01*
G37*
G36*
G01*
X22700000Y-108500000D02*
X27700000Y-108500000D01*
G75*
G02*
X27950000Y-108750000I0J-250000D01*
G01*
X27950000Y-109250000D01*
G75*
G02*
X27700000Y-109500000I-250000J0D01*
G01*
X22700000Y-109500000D01*
G75*
G02*
X22450000Y-109250000I0J250000D01*
G01*
X22450000Y-108750000D01*
G75*
G02*
X22700000Y-108500000I250000J0D01*
G01*
G37*
G36*
G01*
X22700000Y-110500000D02*
X27700000Y-110500000D01*
G75*
G02*
X27950000Y-110750000I0J-250000D01*
G01*
X27950000Y-111250000D01*
G75*
G02*
X27700000Y-111500000I-250000J0D01*
G01*
X22700000Y-111500000D01*
G75*
G02*
X22450000Y-111250000I0J250000D01*
G01*
X22450000Y-110750000D01*
G75*
G02*
X22700000Y-110500000I250000J0D01*
G01*
G37*
G36*
G01*
X22700000Y-112500000D02*
X27700000Y-112500000D01*
G75*
G02*
X27950000Y-112750000I0J-250000D01*
G01*
X27950000Y-113250000D01*
G75*
G02*
X27700000Y-113500000I-250000J0D01*
G01*
X22700000Y-113500000D01*
G75*
G02*
X22450000Y-113250000I0J250000D01*
G01*
X22450000Y-112750000D01*
G75*
G02*
X22700000Y-112500000I250000J0D01*
G01*
G37*
G36*
G01*
X21700000Y-105800000D02*
X24200000Y-105800000D01*
G75*
G02*
X24450000Y-106050000I0J-250000D01*
G01*
X24450000Y-107150000D01*
G75*
G02*
X24200000Y-107400000I-250000J0D01*
G01*
X21700000Y-107400000D01*
G75*
G02*
X21450000Y-107150000I0J250000D01*
G01*
X21450000Y-106050000D01*
G75*
G02*
X21700000Y-105800000I250000J0D01*
G01*
G37*
G36*
G01*
X21700000Y-114600000D02*
X24200000Y-114600000D01*
G75*
G02*
X24450000Y-114850000I0J-250000D01*
G01*
X24450000Y-115950000D01*
G75*
G02*
X24200000Y-116200000I-250000J0D01*
G01*
X21700000Y-116200000D01*
G75*
G02*
X21450000Y-115950000I0J250000D01*
G01*
X21450000Y-114850000D01*
G75*
G02*
X21700000Y-114600000I250000J0D01*
G01*
G37*
G36*
G01*
X109500000Y-33000000D02*
X109500000Y-38000000D01*
G75*
G02*
X109250000Y-38250000I-250000J0D01*
G01*
X108750000Y-38250000D01*
G75*
G02*
X108500000Y-38000000I0J250000D01*
G01*
X108500000Y-33000000D01*
G75*
G02*
X108750000Y-32750000I250000J0D01*
G01*
X109250000Y-32750000D01*
G75*
G02*
X109500000Y-33000000I0J-250000D01*
G01*
G37*
G36*
G01*
X107500000Y-33000000D02*
X107500000Y-38000000D01*
G75*
G02*
X107250000Y-38250000I-250000J0D01*
G01*
X106750000Y-38250000D01*
G75*
G02*
X106500000Y-38000000I0J250000D01*
G01*
X106500000Y-33000000D01*
G75*
G02*
X106750000Y-32750000I250000J0D01*
G01*
X107250000Y-32750000D01*
G75*
G02*
X107500000Y-33000000I0J-250000D01*
G01*
G37*
G36*
G01*
X105500000Y-33000000D02*
X105500000Y-38000000D01*
G75*
G02*
X105250000Y-38250000I-250000J0D01*
G01*
X104750000Y-38250000D01*
G75*
G02*
X104500000Y-38000000I0J250000D01*
G01*
X104500000Y-33000000D01*
G75*
G02*
X104750000Y-32750000I250000J0D01*
G01*
X105250000Y-32750000D01*
G75*
G02*
X105500000Y-33000000I0J-250000D01*
G01*
G37*
G36*
G01*
X112200000Y-32000000D02*
X112200000Y-34500000D01*
G75*
G02*
X111950000Y-34750000I-250000J0D01*
G01*
X110850000Y-34750000D01*
G75*
G02*
X110600000Y-34500000I0J250000D01*
G01*
X110600000Y-32000000D01*
G75*
G02*
X110850000Y-31750000I250000J0D01*
G01*
X111950000Y-31750000D01*
G75*
G02*
X112200000Y-32000000I0J-250000D01*
G01*
G37*
G36*
G01*
X103400000Y-32000000D02*
X103400000Y-34500000D01*
G75*
G02*
X103150000Y-34750000I-250000J0D01*
G01*
X102050000Y-34750000D01*
G75*
G02*
X101800000Y-34500000I0J250000D01*
G01*
X101800000Y-32000000D01*
G75*
G02*
X102050000Y-31750000I250000J0D01*
G01*
X103150000Y-31750000D01*
G75*
G02*
X103400000Y-32000000I0J-250000D01*
G01*
G37*
M02*
