G04 #@! TF.GenerationSoftware,KiCad,Pcbnew,8.0.6+1*
G04 #@! TF.CreationDate,2024-12-16T18:27:45+00:00*
G04 #@! TF.ProjectId,stencil,7374656e-6369-46c2-9e6b-696361645f70,1.0.1-RC*
G04 #@! TF.SameCoordinates,Original*
G04 #@! TF.FileFunction,Paste,Bot*
G04 #@! TF.FilePolarity,Positive*
%FSLAX46Y46*%
G04 Gerber Fmt 4.6, Leading zero omitted, Abs format (unit mm)*
G04 Created by KiCad (PCBNEW 8.0.6+1) date 2024-12-16 18:27:45*
%MOMM*%
%LPD*%
G01*
G04 APERTURE LIST*
G04 Aperture macros list*
%AMRoundRect*
0 Rectangle with rounded corners*
0 $1 Rounding radius*
0 $2 $3 $4 $5 $6 $7 $8 $9 X,Y pos of 4 corners*
0 Add a 4 corners polygon primitive as box body*
4,1,4,$2,$3,$4,$5,$6,$7,$8,$9,$2,$3,0*
0 Add four circle primitives for the rounded corners*
1,1,$1+$1,$2,$3*
1,1,$1+$1,$4,$5*
1,1,$1+$1,$6,$7*
1,1,$1+$1,$8,$9*
0 Add four rect primitives between the rounded corners*
20,1,$1+$1,$2,$3,$4,$5,0*
20,1,$1+$1,$4,$5,$6,$7,0*
20,1,$1+$1,$6,$7,$8,$9,0*
20,1,$1+$1,$8,$9,$2,$3,0*%
G04 Aperture macros list end*
%ADD10C,0.500000*%
%ADD11C,1.000000*%
%ADD12C,1.050000*%
%ADD13R,1.700000X3.600000*%
%ADD14O,1.700000X3.500000*%
%ADD15RoundRect,0.250000X0.450000X-0.262500X0.450000X0.262500X-0.450000X0.262500X-0.450000X-0.262500X0*%
%ADD16RoundRect,0.250000X0.250000X2.500000X-0.250000X2.500000X-0.250000X-2.500000X0.250000X-2.500000X0*%
%ADD17RoundRect,0.250000X0.550000X1.250000X-0.550000X1.250000X-0.550000X-1.250000X0.550000X-1.250000X0*%
G04 APERTURE END LIST*
D10*
X75500000Y157000000D02*
G75*
G02*
X76000000Y157500000I500000J0D01*
G01*
X158500000Y-11000000D02*
G75*
G02*
X159000000Y-11500000I0J-500000D01*
G01*
X159000000Y86500000D02*
G75*
G02*
X158500000Y86000000I-500000J0D01*
G01*
X27500000Y157000000D02*
G75*
G02*
X28000000Y157500000I500000J0D01*
G01*
X15500000Y38000000D02*
G75*
G02*
X15000000Y38500000I0J500000D01*
G01*
X98000000Y157500000D02*
G75*
G02*
X98500000Y157000000I0J-500000D01*
G01*
X124000000Y-46500000D02*
X134000000Y-46500000D01*
X159000000Y110500000D02*
G75*
G02*
X158500000Y110000000I-500000J0D01*
G01*
X15000000Y12500000D02*
G75*
G02*
X15500000Y13000000I500000J0D01*
G01*
X136000000Y-46500000D02*
X146000000Y-46500000D01*
X159000000Y122500000D02*
G75*
G02*
X158500000Y122000000I-500000J0D01*
G01*
D11*
X18750000Y55500000D02*
G75*
G02*
X17750000Y55500000I-500000J0D01*
G01*
X17750000Y55500000D02*
G75*
G02*
X18750000Y55500000I500000J0D01*
G01*
D10*
X159000000Y-45500000D02*
G75*
G02*
X158000000Y-46500000I-1000000J0D01*
G01*
D12*
X18775000Y154250000D02*
G75*
G02*
X17725000Y154250000I-525000J0D01*
G01*
X17725000Y154250000D02*
G75*
G02*
X18775000Y154250000I525000J0D01*
G01*
D10*
X86500000Y-46000000D02*
G75*
G02*
X86000000Y-46500000I-500000J0D01*
G01*
X74500000Y-46000000D02*
G75*
G02*
X74000000Y-46500000I-500000J0D01*
G01*
X15500000Y-22000000D02*
G75*
G02*
X15000000Y-21500000I0J500000D01*
G01*
X40000000Y157500000D02*
X50000000Y157500000D01*
X51500000Y157000000D02*
G75*
G02*
X52000000Y157500000I500000J0D01*
G01*
X76000000Y-46500000D02*
X86000000Y-46500000D01*
X15000000Y24500000D02*
X15000000Y14500000D01*
X76000000Y157500000D02*
X86000000Y157500000D01*
X148000000Y-46500000D02*
G75*
G02*
X147500000Y-46000000I0J500000D01*
G01*
D11*
X53125000Y-43250000D02*
G75*
G02*
X52125000Y-43250000I-500000J0D01*
G01*
X52125000Y-43250000D02*
G75*
G02*
X53125000Y-43250000I500000J0D01*
G01*
D10*
X158500000Y49000000D02*
G75*
G02*
X159000000Y48500000I0J-500000D01*
G01*
X159000000Y134500000D02*
G75*
G02*
X158500000Y134000000I-500000J0D01*
G01*
X88000000Y-46500000D02*
G75*
G02*
X87500000Y-46000000I0J500000D01*
G01*
X15000000Y-11500000D02*
G75*
G02*
X15500000Y-11000000I500000J0D01*
G01*
X28000000Y-46500000D02*
X38000000Y-46500000D01*
D11*
X18750000Y104875000D02*
G75*
G02*
X17750000Y104875000I-500000J0D01*
G01*
X17750000Y104875000D02*
G75*
G02*
X18750000Y104875000I500000J0D01*
G01*
D10*
X15000000Y-11500000D02*
X15000000Y-21500000D01*
X15000000Y156500000D02*
G75*
G02*
X16000000Y157500000I1000000J0D01*
G01*
X159000000Y-11500000D02*
X159000000Y-21500000D01*
X159000000Y36500000D02*
X159000000Y26500000D01*
X158500000Y97000000D02*
G75*
G02*
X159000000Y96500000I0J-500000D01*
G01*
X15500000Y74000000D02*
G75*
G02*
X15000000Y74500000I0J500000D01*
G01*
X159000000Y38500000D02*
G75*
G02*
X158500000Y38000000I-500000J0D01*
G01*
D11*
X121875000Y154250000D02*
G75*
G02*
X120875000Y154250000I-500000J0D01*
G01*
X120875000Y154250000D02*
G75*
G02*
X121875000Y154250000I500000J0D01*
G01*
D10*
X159000000Y84500000D02*
X159000000Y74500000D01*
X136000000Y157500000D02*
X146000000Y157500000D01*
X15000000Y144500000D02*
G75*
G02*
X15500000Y145000000I500000J0D01*
G01*
X158500000Y73000000D02*
G75*
G02*
X159000000Y72500000I0J-500000D01*
G01*
X16000000Y-46500000D02*
G75*
G02*
X15000000Y-45500000I0J1000000D01*
G01*
X158500000Y25000000D02*
G75*
G02*
X159000000Y24500000I0J-500000D01*
G01*
D12*
X156275000Y-43250000D02*
G75*
G02*
X155225000Y-43250000I-525000J0D01*
G01*
X155225000Y-43250000D02*
G75*
G02*
X156275000Y-43250000I525000J0D01*
G01*
D10*
X15000000Y120500000D02*
G75*
G02*
X15500000Y121000000I500000J0D01*
G01*
X74000000Y157500000D02*
G75*
G02*
X74500000Y157000000I0J-500000D01*
G01*
X159000000Y156500000D02*
X159000000Y146500000D01*
D11*
X121875000Y-43250000D02*
G75*
G02*
X120875000Y-43250000I-500000J0D01*
G01*
X120875000Y-43250000D02*
G75*
G02*
X121875000Y-43250000I500000J0D01*
G01*
D10*
X158500000Y85000000D02*
G75*
G02*
X159000000Y84500000I0J-500000D01*
G01*
X15000000Y60500000D02*
G75*
G02*
X15500000Y61000000I500000J0D01*
G01*
X159000000Y72500000D02*
X159000000Y62500000D01*
X148000000Y-46500000D02*
X158000000Y-46500000D01*
X135500000Y157000000D02*
G75*
G02*
X136000000Y157500000I500000J0D01*
G01*
X158500000Y13000000D02*
G75*
G02*
X159000000Y12500000I0J-500000D01*
G01*
X64000000Y157500000D02*
X74000000Y157500000D01*
X159000000Y62500000D02*
G75*
G02*
X158500000Y62000000I-500000J0D01*
G01*
X62500000Y-46000000D02*
G75*
G02*
X62000000Y-46500000I-500000J0D01*
G01*
X158500000Y61000000D02*
G75*
G02*
X159000000Y60500000I0J-500000D01*
G01*
X28000000Y157500000D02*
X38000000Y157500000D01*
X159000000Y60500000D02*
X159000000Y50500000D01*
X39500000Y157000000D02*
G75*
G02*
X40000000Y157500000I500000J0D01*
G01*
X159000000Y108500000D02*
X159000000Y98500000D01*
X88000000Y157500000D02*
X98000000Y157500000D01*
X159000000Y144500000D02*
X159000000Y134500000D01*
X124000000Y-46500000D02*
G75*
G02*
X123500000Y-46000000I0J500000D01*
G01*
X112000000Y-46500000D02*
X122000000Y-46500000D01*
X159000000Y-9500000D02*
G75*
G02*
X158500000Y-10000000I-500000J0D01*
G01*
X64000000Y-46500000D02*
G75*
G02*
X63500000Y-46000000I0J500000D01*
G01*
X16000000Y157500000D02*
X26000000Y157500000D01*
X64000000Y-46500000D02*
X74000000Y-46500000D01*
X123500000Y157000000D02*
G75*
G02*
X124000000Y157500000I500000J0D01*
G01*
D11*
X156250000Y6125000D02*
G75*
G02*
X155250000Y6125000I-500000J0D01*
G01*
X155250000Y6125000D02*
G75*
G02*
X156250000Y6125000I500000J0D01*
G01*
D12*
X18775000Y-43250000D02*
G75*
G02*
X17725000Y-43250000I-525000J0D01*
G01*
X17725000Y-43250000D02*
G75*
G02*
X18775000Y-43250000I525000J0D01*
G01*
D10*
X158000000Y157500000D02*
G75*
G02*
X159000000Y156500000I0J-1000000D01*
G01*
D11*
X87500000Y154250000D02*
G75*
G02*
X86500000Y154250000I-500000J0D01*
G01*
X86500000Y154250000D02*
G75*
G02*
X87500000Y154250000I500000J0D01*
G01*
D10*
X15500000Y50000000D02*
G75*
G02*
X15000000Y50500000I0J500000D01*
G01*
X159000000Y96500000D02*
X159000000Y86500000D01*
X122500000Y-46000000D02*
G75*
G02*
X122000000Y-46500000I-500000J0D01*
G01*
X112000000Y157500000D02*
X122000000Y157500000D01*
X15500000Y-10000000D02*
G75*
G02*
X15000000Y-9500000I0J500000D01*
G01*
X15500000Y134000000D02*
G75*
G02*
X15000000Y134500000I0J500000D01*
G01*
D12*
X156275000Y154250000D02*
G75*
G02*
X155225000Y154250000I-525000J0D01*
G01*
X155225000Y154250000D02*
G75*
G02*
X156275000Y154250000I525000J0D01*
G01*
D10*
X158500000Y37000000D02*
G75*
G02*
X159000000Y36500000I0J-500000D01*
G01*
X15000000Y120500000D02*
X15000000Y110500000D01*
X26500000Y-46000000D02*
G75*
G02*
X26000000Y-46500000I-500000J0D01*
G01*
X110500000Y-46000000D02*
G75*
G02*
X110000000Y-46500000I-500000J0D01*
G01*
X15500000Y146000000D02*
G75*
G02*
X15000000Y146500000I0J500000D01*
G01*
X99500000Y157000000D02*
G75*
G02*
X100000000Y157500000I500000J0D01*
G01*
X159000000Y132500000D02*
X159000000Y122500000D01*
X15000000Y-35500000D02*
X15000000Y-45500000D01*
X159000000Y-33500000D02*
G75*
G02*
X158500000Y-34000000I-500000J0D01*
G01*
X15500000Y98000000D02*
G75*
G02*
X15000000Y98500000I0J500000D01*
G01*
X15000000Y108500000D02*
G75*
G02*
X15500000Y109000000I500000J0D01*
G01*
X158500000Y133000000D02*
G75*
G02*
X159000000Y132500000I0J-500000D01*
G01*
D11*
X18750000Y6125000D02*
G75*
G02*
X17750000Y6125000I-500000J0D01*
G01*
X17750000Y6125000D02*
G75*
G02*
X18750000Y6125000I500000J0D01*
G01*
D10*
X98500000Y-46000000D02*
G75*
G02*
X98000000Y-46500000I-500000J0D01*
G01*
X158500000Y-35000000D02*
G75*
G02*
X159000000Y-35500000I0J-500000D01*
G01*
X15000000Y-35500000D02*
G75*
G02*
X15500000Y-35000000I500000J0D01*
G01*
X15000000Y72500000D02*
X15000000Y62500000D01*
X147500000Y157000000D02*
G75*
G02*
X148000000Y157500000I500000J0D01*
G01*
X88000000Y-46500000D02*
X98000000Y-46500000D01*
X158500000Y145000000D02*
G75*
G02*
X159000000Y144500000I0J-500000D01*
G01*
X15000000Y108500000D02*
X15000000Y98500000D01*
X52000000Y-46500000D02*
X62000000Y-46500000D01*
X15000000Y144500000D02*
X15000000Y134500000D01*
X15000000Y12500000D02*
X15000000Y2500000D01*
D11*
X87500000Y-43250000D02*
G75*
G02*
X86500000Y-43250000I-500000J0D01*
G01*
X86500000Y-43250000D02*
G75*
G02*
X87500000Y-43250000I500000J0D01*
G01*
D10*
X16000000Y-46500000D02*
X26000000Y-46500000D01*
X159000000Y-21500000D02*
G75*
G02*
X158500000Y-22000000I-500000J0D01*
G01*
X62000000Y157500000D02*
G75*
G02*
X62500000Y157000000I0J-500000D01*
G01*
X15000000Y24500000D02*
G75*
G02*
X15500000Y25000000I500000J0D01*
G01*
X15000000Y84500000D02*
X15000000Y74500000D01*
X15000000Y48500000D02*
G75*
G02*
X15500000Y49000000I500000J0D01*
G01*
X86000000Y157500000D02*
G75*
G02*
X86500000Y157000000I0J-500000D01*
G01*
X158500000Y1000000D02*
G75*
G02*
X159000000Y500000I0J-500000D01*
G01*
X40000000Y-46500000D02*
G75*
G02*
X39500000Y-46000000I0J500000D01*
G01*
X159000000Y14500000D02*
G75*
G02*
X158500000Y14000000I-500000J0D01*
G01*
X159000000Y-35500000D02*
X159000000Y-45500000D01*
X112000000Y-46500000D02*
G75*
G02*
X111500000Y-46000000I0J500000D01*
G01*
X100000000Y-46500000D02*
X110000000Y-46500000D01*
X159000000Y24500000D02*
X159000000Y14500000D01*
X15000000Y84500000D02*
G75*
G02*
X15500000Y85000000I500000J0D01*
G01*
X136000000Y-46500000D02*
G75*
G02*
X135500000Y-46000000I0J500000D01*
G01*
X40000000Y-46500000D02*
X50000000Y-46500000D01*
X159000000Y74500000D02*
G75*
G02*
X158500000Y74000000I-500000J0D01*
G01*
X15000000Y60500000D02*
X15000000Y50500000D01*
D11*
X53125000Y154250000D02*
G75*
G02*
X52125000Y154250000I-500000J0D01*
G01*
X52125000Y154250000D02*
G75*
G02*
X53125000Y154250000I500000J0D01*
G01*
D10*
X159000000Y48500000D02*
X159000000Y38500000D01*
X15000000Y500000D02*
G75*
G02*
X15500000Y1000000I500000J0D01*
G01*
X15500000Y26000000D02*
G75*
G02*
X15000000Y26500000I0J500000D01*
G01*
X38000000Y157500000D02*
G75*
G02*
X38500000Y157000000I0J-500000D01*
G01*
X148000000Y157500000D02*
X158000000Y157500000D01*
X87500000Y157000000D02*
G75*
G02*
X88000000Y157500000I500000J0D01*
G01*
X28000000Y-46500000D02*
G75*
G02*
X27500000Y-46000000I0J500000D01*
G01*
X158500000Y121000000D02*
G75*
G02*
X159000000Y120500000I0J-500000D01*
G01*
X15000000Y132500000D02*
X15000000Y122500000D01*
X15000000Y132500000D02*
G75*
G02*
X15500000Y133000000I500000J0D01*
G01*
X50500000Y-46000000D02*
G75*
G02*
X50000000Y-46500000I-500000J0D01*
G01*
X15500000Y14000000D02*
G75*
G02*
X15000000Y14500000I0J500000D01*
G01*
X15500000Y122000000D02*
G75*
G02*
X15000000Y122500000I0J500000D01*
G01*
X15500000Y110000000D02*
G75*
G02*
X15000000Y110500000I0J500000D01*
G01*
X52000000Y-46500000D02*
G75*
G02*
X51500000Y-46000000I0J500000D01*
G01*
X63500000Y157000000D02*
G75*
G02*
X64000000Y157500000I500000J0D01*
G01*
X124000000Y157500000D02*
X134000000Y157500000D01*
X159000000Y146500000D02*
G75*
G02*
X158500000Y146000000I-500000J0D01*
G01*
X159000000Y-23500000D02*
X159000000Y-33500000D01*
X15500000Y86000000D02*
G75*
G02*
X15000000Y86500000I0J500000D01*
G01*
X26000000Y157500000D02*
G75*
G02*
X26500000Y157000000I0J-500000D01*
G01*
X15500000Y-34000000D02*
G75*
G02*
X15000000Y-33500000I0J500000D01*
G01*
X134000000Y157500000D02*
G75*
G02*
X134500000Y157000000I0J-500000D01*
G01*
X146500000Y-46000000D02*
G75*
G02*
X146000000Y-46500000I-500000J0D01*
G01*
X52000000Y157500000D02*
X62000000Y157500000D01*
X15000000Y72500000D02*
G75*
G02*
X15500000Y73000000I500000J0D01*
G01*
X15000000Y96500000D02*
X15000000Y86500000D01*
X158500000Y-23000000D02*
G75*
G02*
X159000000Y-23500000I0J-500000D01*
G01*
X110000000Y157500000D02*
G75*
G02*
X110500000Y157000000I0J-500000D01*
G01*
D11*
X156250000Y55500000D02*
G75*
G02*
X155250000Y55500000I-500000J0D01*
G01*
X155250000Y55500000D02*
G75*
G02*
X156250000Y55500000I500000J0D01*
G01*
D10*
X15500000Y2000000D02*
G75*
G02*
X15000000Y2500000I0J500000D01*
G01*
X15000000Y500000D02*
X15000000Y-9500000D01*
X15000000Y-23500000D02*
G75*
G02*
X15500000Y-23000000I500000J0D01*
G01*
X111500000Y157000000D02*
G75*
G02*
X112000000Y157500000I500000J0D01*
G01*
X159000000Y26500000D02*
G75*
G02*
X158500000Y26000000I-500000J0D01*
G01*
X159000000Y98500000D02*
G75*
G02*
X158500000Y98000000I-500000J0D01*
G01*
X38500000Y-46000000D02*
G75*
G02*
X38000000Y-46500000I-500000J0D01*
G01*
X159000000Y50500000D02*
G75*
G02*
X158500000Y50000000I-500000J0D01*
G01*
X100000000Y157500000D02*
X110000000Y157500000D01*
X15000000Y36500000D02*
X15000000Y26500000D01*
X134500000Y-46000000D02*
G75*
G02*
X134000000Y-46500000I-500000J0D01*
G01*
D11*
X156250000Y104875000D02*
G75*
G02*
X155250000Y104875000I-500000J0D01*
G01*
X155250000Y104875000D02*
G75*
G02*
X156250000Y104875000I500000J0D01*
G01*
D10*
X159000000Y500000D02*
X159000000Y-9500000D01*
X158500000Y109000000D02*
G75*
G02*
X159000000Y108500000I0J-500000D01*
G01*
X76000000Y-46500000D02*
G75*
G02*
X75500000Y-46000000I0J500000D01*
G01*
X159000000Y120500000D02*
X159000000Y110500000D01*
X15000000Y48500000D02*
X15000000Y38500000D01*
X159000000Y2500000D02*
G75*
G02*
X158500000Y2000000I-500000J0D01*
G01*
X15000000Y36500000D02*
G75*
G02*
X15500000Y37000000I500000J0D01*
G01*
X50000000Y157500000D02*
G75*
G02*
X50500000Y157000000I0J-500000D01*
G01*
X15000000Y156500000D02*
X15000000Y146500000D01*
X159000000Y12500000D02*
X159000000Y2500000D01*
X100000000Y-46500000D02*
G75*
G02*
X99500000Y-46000000I0J500000D01*
G01*
X15000000Y-23500000D02*
X15000000Y-33500000D01*
X122000000Y157500000D02*
G75*
G02*
X122500000Y157000000I0J-500000D01*
G01*
X15000000Y96500000D02*
G75*
G02*
X15500000Y97000000I500000J0D01*
G01*
X15500000Y62000000D02*
G75*
G02*
X15000000Y62500000I0J500000D01*
G01*
X146000000Y157500000D02*
G75*
G02*
X146500000Y157000000I0J-500000D01*
G01*
D13*
G04 #@! TO.C,U1*
X53288000Y60127200D03*
D14*
X50748000Y60127200D03*
X48208000Y60127200D03*
X45668000Y60127200D03*
G04 #@! TD*
D13*
G04 #@! TO.C,U2*
X128288000Y60127200D03*
D14*
X125748000Y60127200D03*
X123208000Y60127200D03*
X120668000Y60127200D03*
G04 #@! TD*
D15*
G04 #@! TO.C,R3*
X115750000Y59175000D03*
X115750000Y61000000D03*
G04 #@! TD*
G04 #@! TO.C,R2*
X117750000Y59175000D03*
X117750000Y61000000D03*
G04 #@! TD*
D16*
G04 #@! TO.C,J3*
X127000000Y67500000D03*
X125000000Y67500000D03*
X123000000Y67500000D03*
X121000000Y67500000D03*
D17*
X129400000Y69750000D03*
X118600000Y69750000D03*
G04 #@! TD*
D16*
G04 #@! TO.C,J2*
X89000000Y86750000D03*
X87000000Y86750000D03*
X85000000Y86750000D03*
D17*
X91400000Y89000000D03*
X82600000Y89000000D03*
G04 #@! TD*
D16*
G04 #@! TO.C,J1*
X89000000Y78250000D03*
X87000000Y78250000D03*
X85000000Y78250000D03*
D17*
X91400000Y80500000D03*
X82600000Y80500000D03*
G04 #@! TD*
M02*
