G04 #@! TF.GenerationSoftware,KiCad,Pcbnew,8.0.6+1*
G04 #@! TF.CreationDate,2024-12-16T18:27:45+00:00*
G04 #@! TF.ProjectId,stencil,7374656e-6369-46c2-9e6b-696361645f70,1.0.1-RC*
G04 #@! TF.SameCoordinates,Original*
G04 #@! TF.FileFunction,Paste,Top*
G04 #@! TF.FilePolarity,Positive*
%FSLAX46Y46*%
G04 Gerber Fmt 4.6, Leading zero omitted, Abs format (unit mm)*
G04 Created by KiCad (PCBNEW 8.0.6+1) date 2024-12-16 18:27:45*
%MOMM*%
%LPD*%
G01*
G04 APERTURE LIST*
G04 Aperture macros list*
%AMRoundRect*
0 Rectangle with rounded corners*
0 $1 Rounding radius*
0 $2 $3 $4 $5 $6 $7 $8 $9 X,Y pos of 4 corners*
0 Add a 4 corners polygon primitive as box body*
4,1,4,$2,$3,$4,$5,$6,$7,$8,$9,$2,$3,0*
0 Add four circle primitives for the rounded corners*
1,1,$1+$1,$2,$3*
1,1,$1+$1,$4,$5*
1,1,$1+$1,$6,$7*
1,1,$1+$1,$8,$9*
0 Add four rect primitives between the rounded corners*
20,1,$1+$1,$2,$3,$4,$5,0*
20,1,$1+$1,$4,$5,$6,$7,0*
20,1,$1+$1,$6,$7,$8,$9,0*
20,1,$1+$1,$8,$9,$2,$3,0*%
%AMRotRect*
0 Rectangle, with rotation*
0 The origin of the aperture is its center*
0 $1 length*
0 $2 width*
0 $3 Rotation angle, in degrees counterclockwise*
0 Add horizontal line*
21,1,$1,$2,0,0,$3*%
G04 Aperture macros list end*
%ADD10C,0.500000*%
%ADD11C,1.000000*%
%ADD12C,1.050000*%
%ADD13RoundRect,0.140000X-0.217224X0.036244X-0.077224X-0.206244X0.217224X-0.036244X0.077224X0.206244X0*%
%ADD14RoundRect,0.140000X0.140000X0.170000X-0.140000X0.170000X-0.140000X-0.170000X0.140000X-0.170000X0*%
%ADD15RotRect,0.500000X0.500000X120.000000*%
%ADD16R,0.500000X0.500000*%
%ADD17RoundRect,0.140000X-0.170000X0.140000X-0.170000X-0.140000X0.170000X-0.140000X0.170000X0.140000X0*%
%ADD18RoundRect,0.140000X-0.036244X-0.217224X0.206244X-0.077224X0.036244X0.217224X-0.206244X0.077224X0*%
%ADD19RotRect,0.500000X0.500000X150.000000*%
%ADD20RotRect,0.500000X0.500000X210.000000*%
%ADD21RotRect,0.500000X0.500000X330.000000*%
%ADD22RotRect,0.500000X0.500000X240.000000*%
%ADD23RoundRect,0.140000X-0.140000X-0.170000X0.140000X-0.170000X0.140000X0.170000X-0.140000X0.170000X0*%
%ADD24RoundRect,0.140000X-0.206244X-0.077224X0.036244X-0.217224X0.206244X0.077224X-0.036244X0.217224X0*%
%ADD25RotRect,0.500000X0.500000X30.000000*%
%ADD26RoundRect,0.140000X0.036244X0.217224X-0.206244X0.077224X-0.036244X-0.217224X0.206244X-0.077224X0*%
%ADD27RotRect,0.500000X0.500000X300.000000*%
%ADD28RoundRect,0.140000X0.217224X-0.036244X0.077224X0.206244X-0.217224X0.036244X-0.077224X-0.206244X0*%
%ADD29RoundRect,0.140000X-0.077224X0.206244X-0.217224X-0.036244X0.077224X-0.206244X0.217224X0.036244X0*%
%ADD30RotRect,0.500000X0.500000X60.000000*%
%ADD31RoundRect,0.140000X0.206244X0.077224X-0.036244X0.217224X-0.206244X-0.077224X0.036244X-0.217224X0*%
%ADD32RoundRect,0.140000X0.077224X-0.206244X0.217224X0.036244X-0.077224X0.206244X-0.217224X-0.036244X0*%
%ADD33RoundRect,0.140000X0.170000X-0.140000X0.170000X0.140000X-0.170000X0.140000X-0.170000X-0.140000X0*%
%ADD34RoundRect,0.135000X-0.185000X0.135000X-0.185000X-0.135000X0.185000X-0.135000X0.185000X0.135000X0*%
G04 APERTURE END LIST*
D10*
X28000000Y-46500000D02*
G75*
G02*
X27500000Y-46000000I0J500000D01*
G01*
X15000000Y-23500000D02*
X15000000Y-33500000D01*
X26500000Y-46000000D02*
G75*
G02*
X26000000Y-46500000I-500000J0D01*
G01*
X111500000Y157000000D02*
G75*
G02*
X112000000Y157500000I500000J0D01*
G01*
X15000000Y36500000D02*
X15000000Y26500000D01*
X146000000Y157500000D02*
G75*
G02*
X146500000Y157000000I0J-500000D01*
G01*
X158500000Y145000000D02*
G75*
G02*
X159000000Y144500000I0J-500000D01*
G01*
X158500000Y121000000D02*
G75*
G02*
X159000000Y120500000I0J-500000D01*
G01*
X112000000Y-46500000D02*
G75*
G02*
X111500000Y-46000000I0J500000D01*
G01*
X88000000Y-46500000D02*
X98000000Y-46500000D01*
X26000000Y157500000D02*
G75*
G02*
X26500000Y157000000I0J-500000D01*
G01*
D11*
X53125000Y154250000D02*
G75*
G02*
X52125000Y154250000I-500000J0D01*
G01*
X52125000Y154250000D02*
G75*
G02*
X53125000Y154250000I500000J0D01*
G01*
D10*
X112000000Y-46500000D02*
X122000000Y-46500000D01*
X158500000Y37000000D02*
G75*
G02*
X159000000Y36500000I0J-500000D01*
G01*
X15000000Y12500000D02*
X15000000Y2500000D01*
X39500000Y157000000D02*
G75*
G02*
X40000000Y157500000I500000J0D01*
G01*
X15000000Y24500000D02*
G75*
G02*
X15500000Y25000000I500000J0D01*
G01*
X158500000Y-35000000D02*
G75*
G02*
X159000000Y-35500000I0J-500000D01*
G01*
X28000000Y157500000D02*
X38000000Y157500000D01*
X16000000Y-46500000D02*
X26000000Y-46500000D01*
D11*
X87500000Y-43250000D02*
G75*
G02*
X86500000Y-43250000I-500000J0D01*
G01*
X86500000Y-43250000D02*
G75*
G02*
X87500000Y-43250000I500000J0D01*
G01*
D10*
X159000000Y134500000D02*
G75*
G02*
X158500000Y134000000I-500000J0D01*
G01*
X15500000Y14000000D02*
G75*
G02*
X15000000Y14500000I0J500000D01*
G01*
X158500000Y13000000D02*
G75*
G02*
X159000000Y12500000I0J-500000D01*
G01*
X15000000Y48500000D02*
G75*
G02*
X15500000Y49000000I500000J0D01*
G01*
X158500000Y49000000D02*
G75*
G02*
X159000000Y48500000I0J-500000D01*
G01*
X159000000Y132500000D02*
X159000000Y122500000D01*
X16000000Y157500000D02*
X26000000Y157500000D01*
D11*
X121875000Y154250000D02*
G75*
G02*
X120875000Y154250000I-500000J0D01*
G01*
X120875000Y154250000D02*
G75*
G02*
X121875000Y154250000I500000J0D01*
G01*
X121875000Y-43250000D02*
G75*
G02*
X120875000Y-43250000I-500000J0D01*
G01*
X120875000Y-43250000D02*
G75*
G02*
X121875000Y-43250000I500000J0D01*
G01*
D10*
X15000000Y120500000D02*
X15000000Y110500000D01*
X159000000Y500000D02*
X159000000Y-9500000D01*
X158000000Y157500000D02*
G75*
G02*
X159000000Y156500000I0J-1000000D01*
G01*
X158500000Y85000000D02*
G75*
G02*
X159000000Y84500000I0J-500000D01*
G01*
X159000000Y156500000D02*
X159000000Y146500000D01*
D12*
X156275000Y154250000D02*
G75*
G02*
X155225000Y154250000I-525000J0D01*
G01*
X155225000Y154250000D02*
G75*
G02*
X156275000Y154250000I525000J0D01*
G01*
D10*
X158500000Y1000000D02*
G75*
G02*
X159000000Y500000I0J-500000D01*
G01*
D11*
X156250000Y6125000D02*
G75*
G02*
X155250000Y6125000I-500000J0D01*
G01*
X155250000Y6125000D02*
G75*
G02*
X156250000Y6125000I500000J0D01*
G01*
D10*
X158500000Y73000000D02*
G75*
G02*
X159000000Y72500000I0J-500000D01*
G01*
X158500000Y109000000D02*
G75*
G02*
X159000000Y108500000I0J-500000D01*
G01*
X159000000Y48500000D02*
X159000000Y38500000D01*
D11*
X53125000Y-43250000D02*
G75*
G02*
X52125000Y-43250000I-500000J0D01*
G01*
X52125000Y-43250000D02*
G75*
G02*
X53125000Y-43250000I500000J0D01*
G01*
D10*
X158500000Y-23000000D02*
G75*
G02*
X159000000Y-23500000I0J-500000D01*
G01*
X159000000Y74500000D02*
G75*
G02*
X158500000Y74000000I-500000J0D01*
G01*
X15000000Y-23500000D02*
G75*
G02*
X15500000Y-23000000I500000J0D01*
G01*
X159000000Y-45500000D02*
G75*
G02*
X158000000Y-46500000I-1000000J0D01*
G01*
X158500000Y133000000D02*
G75*
G02*
X159000000Y132500000I0J-500000D01*
G01*
X15000000Y144500000D02*
X15000000Y134500000D01*
X159000000Y144500000D02*
X159000000Y134500000D01*
X64000000Y-46500000D02*
G75*
G02*
X63500000Y-46000000I0J500000D01*
G01*
X148000000Y157500000D02*
X158000000Y157500000D01*
X159000000Y-35500000D02*
X159000000Y-45500000D01*
X76000000Y-46500000D02*
X86000000Y-46500000D01*
X159000000Y96500000D02*
X159000000Y86500000D01*
X159000000Y62500000D02*
G75*
G02*
X158500000Y62000000I-500000J0D01*
G01*
D11*
X18750000Y55500000D02*
G75*
G02*
X17750000Y55500000I-500000J0D01*
G01*
X17750000Y55500000D02*
G75*
G02*
X18750000Y55500000I500000J0D01*
G01*
D10*
X15000000Y12500000D02*
G75*
G02*
X15500000Y13000000I500000J0D01*
G01*
X159000000Y108500000D02*
X159000000Y98500000D01*
X159000000Y110500000D02*
G75*
G02*
X158500000Y110000000I-500000J0D01*
G01*
X15500000Y134000000D02*
G75*
G02*
X15000000Y134500000I0J500000D01*
G01*
X40000000Y-46500000D02*
G75*
G02*
X39500000Y-46000000I0J500000D01*
G01*
X15000000Y-35500000D02*
G75*
G02*
X15500000Y-35000000I500000J0D01*
G01*
X15500000Y2000000D02*
G75*
G02*
X15000000Y2500000I0J500000D01*
G01*
X159000000Y50500000D02*
G75*
G02*
X158500000Y50000000I-500000J0D01*
G01*
X63500000Y157000000D02*
G75*
G02*
X64000000Y157500000I500000J0D01*
G01*
X136000000Y157500000D02*
X146000000Y157500000D01*
X15500000Y38000000D02*
G75*
G02*
X15000000Y38500000I0J500000D01*
G01*
X15500000Y-10000000D02*
G75*
G02*
X15000000Y-9500000I0J500000D01*
G01*
X148000000Y-46500000D02*
G75*
G02*
X147500000Y-46000000I0J500000D01*
G01*
X159000000Y84500000D02*
X159000000Y74500000D01*
X86000000Y157500000D02*
G75*
G02*
X86500000Y157000000I0J-500000D01*
G01*
X159000000Y-21500000D02*
G75*
G02*
X158500000Y-22000000I-500000J0D01*
G01*
X15000000Y60500000D02*
G75*
G02*
X15500000Y61000000I500000J0D01*
G01*
X74500000Y-46000000D02*
G75*
G02*
X74000000Y-46500000I-500000J0D01*
G01*
D12*
X18775000Y-43250000D02*
G75*
G02*
X17725000Y-43250000I-525000J0D01*
G01*
X17725000Y-43250000D02*
G75*
G02*
X18775000Y-43250000I525000J0D01*
G01*
D10*
X76000000Y157500000D02*
X86000000Y157500000D01*
X158500000Y25000000D02*
G75*
G02*
X159000000Y24500000I0J-500000D01*
G01*
X15000000Y84500000D02*
X15000000Y74500000D01*
X15000000Y500000D02*
X15000000Y-9500000D01*
X135500000Y157000000D02*
G75*
G02*
X136000000Y157500000I500000J0D01*
G01*
X147500000Y157000000D02*
G75*
G02*
X148000000Y157500000I500000J0D01*
G01*
X38500000Y-46000000D02*
G75*
G02*
X38000000Y-46500000I-500000J0D01*
G01*
X159000000Y60500000D02*
X159000000Y50500000D01*
D11*
X156250000Y55500000D02*
G75*
G02*
X155250000Y55500000I-500000J0D01*
G01*
X155250000Y55500000D02*
G75*
G02*
X156250000Y55500000I500000J0D01*
G01*
D10*
X50500000Y-46000000D02*
G75*
G02*
X50000000Y-46500000I-500000J0D01*
G01*
X52000000Y-46500000D02*
G75*
G02*
X51500000Y-46000000I0J500000D01*
G01*
X15500000Y50000000D02*
G75*
G02*
X15000000Y50500000I0J500000D01*
G01*
X159000000Y98500000D02*
G75*
G02*
X158500000Y98000000I-500000J0D01*
G01*
X50000000Y157500000D02*
G75*
G02*
X50500000Y157000000I0J-500000D01*
G01*
X40000000Y-46500000D02*
X50000000Y-46500000D01*
X76000000Y-46500000D02*
G75*
G02*
X75500000Y-46000000I0J500000D01*
G01*
X136000000Y-46500000D02*
G75*
G02*
X135500000Y-46000000I0J500000D01*
G01*
X159000000Y86500000D02*
G75*
G02*
X158500000Y86000000I-500000J0D01*
G01*
X15000000Y500000D02*
G75*
G02*
X15500000Y1000000I500000J0D01*
G01*
X124000000Y-46500000D02*
G75*
G02*
X123500000Y-46000000I0J500000D01*
G01*
X15000000Y-11500000D02*
X15000000Y-21500000D01*
X15000000Y-11500000D02*
G75*
G02*
X15500000Y-11000000I500000J0D01*
G01*
X98000000Y157500000D02*
G75*
G02*
X98500000Y157000000I0J-500000D01*
G01*
X15000000Y-35500000D02*
X15000000Y-45500000D01*
X15500000Y74000000D02*
G75*
G02*
X15000000Y74500000I0J500000D01*
G01*
X15000000Y132500000D02*
X15000000Y122500000D01*
X136000000Y-46500000D02*
X146000000Y-46500000D01*
D12*
X156275000Y-43250000D02*
G75*
G02*
X155225000Y-43250000I-525000J0D01*
G01*
X155225000Y-43250000D02*
G75*
G02*
X156275000Y-43250000I525000J0D01*
G01*
D10*
X159000000Y120500000D02*
X159000000Y110500000D01*
X159000000Y24500000D02*
X159000000Y14500000D01*
X15000000Y60500000D02*
X15000000Y50500000D01*
X159000000Y38500000D02*
G75*
G02*
X158500000Y38000000I-500000J0D01*
G01*
X28000000Y-46500000D02*
X38000000Y-46500000D01*
X158500000Y61000000D02*
G75*
G02*
X159000000Y60500000I0J-500000D01*
G01*
X87500000Y157000000D02*
G75*
G02*
X88000000Y157500000I500000J0D01*
G01*
X159000000Y-11500000D02*
X159000000Y-21500000D01*
X15000000Y24500000D02*
X15000000Y14500000D01*
X122000000Y157500000D02*
G75*
G02*
X122500000Y157000000I0J-500000D01*
G01*
X15000000Y156500000D02*
X15000000Y146500000D01*
X15000000Y96500000D02*
G75*
G02*
X15500000Y97000000I500000J0D01*
G01*
X159000000Y-9500000D02*
G75*
G02*
X158500000Y-10000000I-500000J0D01*
G01*
X15000000Y132500000D02*
G75*
G02*
X15500000Y133000000I500000J0D01*
G01*
X15000000Y72500000D02*
X15000000Y62500000D01*
X159000000Y36500000D02*
X159000000Y26500000D01*
X99500000Y157000000D02*
G75*
G02*
X100000000Y157500000I500000J0D01*
G01*
X159000000Y-33500000D02*
G75*
G02*
X158500000Y-34000000I-500000J0D01*
G01*
X15000000Y72500000D02*
G75*
G02*
X15500000Y73000000I500000J0D01*
G01*
X75500000Y157000000D02*
G75*
G02*
X76000000Y157500000I500000J0D01*
G01*
X159000000Y146500000D02*
G75*
G02*
X158500000Y146000000I-500000J0D01*
G01*
X15000000Y48500000D02*
X15000000Y38500000D01*
X123500000Y157000000D02*
G75*
G02*
X124000000Y157500000I500000J0D01*
G01*
X15500000Y110000000D02*
G75*
G02*
X15000000Y110500000I0J500000D01*
G01*
X64000000Y-46500000D02*
X74000000Y-46500000D01*
X159000000Y72500000D02*
X159000000Y62500000D01*
X15500000Y146000000D02*
G75*
G02*
X15000000Y146500000I0J500000D01*
G01*
X159000000Y2500000D02*
G75*
G02*
X158500000Y2000000I-500000J0D01*
G01*
X62000000Y157500000D02*
G75*
G02*
X62500000Y157000000I0J-500000D01*
G01*
X100000000Y-46500000D02*
G75*
G02*
X99500000Y-46000000I0J500000D01*
G01*
X15500000Y122000000D02*
G75*
G02*
X15000000Y122500000I0J500000D01*
G01*
D11*
X18750000Y6125000D02*
G75*
G02*
X17750000Y6125000I-500000J0D01*
G01*
X17750000Y6125000D02*
G75*
G02*
X18750000Y6125000I500000J0D01*
G01*
D10*
X64000000Y157500000D02*
X74000000Y157500000D01*
X122500000Y-46000000D02*
G75*
G02*
X122000000Y-46500000I-500000J0D01*
G01*
X100000000Y-46500000D02*
X110000000Y-46500000D01*
X15000000Y108500000D02*
G75*
G02*
X15500000Y109000000I500000J0D01*
G01*
X159000000Y122500000D02*
G75*
G02*
X158500000Y122000000I-500000J0D01*
G01*
X110500000Y-46000000D02*
G75*
G02*
X110000000Y-46500000I-500000J0D01*
G01*
X159000000Y-23500000D02*
X159000000Y-33500000D01*
X110000000Y157500000D02*
G75*
G02*
X110500000Y157000000I0J-500000D01*
G01*
X124000000Y-46500000D02*
X134000000Y-46500000D01*
X40000000Y157500000D02*
X50000000Y157500000D01*
X15000000Y36500000D02*
G75*
G02*
X15500000Y37000000I500000J0D01*
G01*
X16000000Y-46500000D02*
G75*
G02*
X15000000Y-45500000I0J1000000D01*
G01*
X51500000Y157000000D02*
G75*
G02*
X52000000Y157500000I500000J0D01*
G01*
X100000000Y157500000D02*
X110000000Y157500000D01*
X15000000Y144500000D02*
G75*
G02*
X15500000Y145000000I500000J0D01*
G01*
X62500000Y-46000000D02*
G75*
G02*
X62000000Y-46500000I-500000J0D01*
G01*
X159000000Y26500000D02*
G75*
G02*
X158500000Y26000000I-500000J0D01*
G01*
X148000000Y-46500000D02*
X158000000Y-46500000D01*
X124000000Y157500000D02*
X134000000Y157500000D01*
X98500000Y-46000000D02*
G75*
G02*
X98000000Y-46500000I-500000J0D01*
G01*
X15500000Y-34000000D02*
G75*
G02*
X15000000Y-33500000I0J500000D01*
G01*
X146500000Y-46000000D02*
G75*
G02*
X146000000Y-46500000I-500000J0D01*
G01*
X27500000Y157000000D02*
G75*
G02*
X28000000Y157500000I500000J0D01*
G01*
X38000000Y157500000D02*
G75*
G02*
X38500000Y157000000I0J-500000D01*
G01*
X15500000Y-22000000D02*
G75*
G02*
X15000000Y-21500000I0J500000D01*
G01*
X52000000Y157500000D02*
X62000000Y157500000D01*
X15000000Y108500000D02*
X15000000Y98500000D01*
D11*
X18750000Y104875000D02*
G75*
G02*
X17750000Y104875000I-500000J0D01*
G01*
X17750000Y104875000D02*
G75*
G02*
X18750000Y104875000I500000J0D01*
G01*
D10*
X88000000Y-46500000D02*
G75*
G02*
X87500000Y-46000000I0J500000D01*
G01*
X15000000Y156500000D02*
G75*
G02*
X16000000Y157500000I1000000J0D01*
G01*
X15500000Y26000000D02*
G75*
G02*
X15000000Y26500000I0J500000D01*
G01*
X134000000Y157500000D02*
G75*
G02*
X134500000Y157000000I0J-500000D01*
G01*
X158500000Y-11000000D02*
G75*
G02*
X159000000Y-11500000I0J-500000D01*
G01*
X158500000Y97000000D02*
G75*
G02*
X159000000Y96500000I0J-500000D01*
G01*
X86500000Y-46000000D02*
G75*
G02*
X86000000Y-46500000I-500000J0D01*
G01*
X159000000Y12500000D02*
X159000000Y2500000D01*
X15500000Y98000000D02*
G75*
G02*
X15000000Y98500000I0J500000D01*
G01*
X15500000Y62000000D02*
G75*
G02*
X15000000Y62500000I0J500000D01*
G01*
X74000000Y157500000D02*
G75*
G02*
X74500000Y157000000I0J-500000D01*
G01*
X15500000Y86000000D02*
G75*
G02*
X15000000Y86500000I0J500000D01*
G01*
X134500000Y-46000000D02*
G75*
G02*
X134000000Y-46500000I-500000J0D01*
G01*
X15000000Y120500000D02*
G75*
G02*
X15500000Y121000000I500000J0D01*
G01*
X15000000Y96500000D02*
X15000000Y86500000D01*
D12*
X18775000Y154250000D02*
G75*
G02*
X17725000Y154250000I-525000J0D01*
G01*
X17725000Y154250000D02*
G75*
G02*
X18775000Y154250000I525000J0D01*
G01*
D10*
X52000000Y-46500000D02*
X62000000Y-46500000D01*
X88000000Y157500000D02*
X98000000Y157500000D01*
D11*
X156250000Y104875000D02*
G75*
G02*
X155250000Y104875000I-500000J0D01*
G01*
X155250000Y104875000D02*
G75*
G02*
X156250000Y104875000I500000J0D01*
G01*
D10*
X15000000Y84500000D02*
G75*
G02*
X15500000Y85000000I500000J0D01*
G01*
D11*
X87500000Y154250000D02*
G75*
G02*
X86500000Y154250000I-500000J0D01*
G01*
X86500000Y154250000D02*
G75*
G02*
X87500000Y154250000I500000J0D01*
G01*
D10*
X112000000Y157500000D02*
X122000000Y157500000D01*
X159000000Y14500000D02*
G75*
G02*
X158500000Y14000000I-500000J0D01*
G01*
D13*
G04 #@! TO.C,C65*
X43950000Y104482959D03*
X44430000Y103651575D03*
G04 #@! TD*
D14*
G04 #@! TO.C,C49*
X96480000Y65470000D03*
X95520000Y65470000D03*
G04 #@! TD*
D15*
G04 #@! TO.C,D35*
X166335289Y3591060D03*
X167114711Y4041060D03*
X166664711Y4820482D03*
X165885289Y4370482D03*
G04 #@! TD*
G04 #@! TO.C,D83*
X16335289Y55591060D03*
X17114711Y56041060D03*
X16664711Y56820482D03*
X15885289Y56370482D03*
G04 #@! TD*
D16*
G04 #@! TO.C,D34*
X161550000Y2550000D03*
X162450000Y2550000D03*
X162450000Y3450000D03*
X161550000Y3450000D03*
G04 #@! TD*
D15*
G04 #@! TO.C,D11*
X129335289Y88591060D03*
X130114711Y89041060D03*
X129664711Y89820482D03*
X128885289Y89370482D03*
G04 #@! TD*
D16*
G04 #@! TO.C,D49*
X96450000Y63550000D03*
X96450000Y64450000D03*
X95550000Y64450000D03*
X95550000Y63550000D03*
G04 #@! TD*
D17*
G04 #@! TO.C,C4*
X123500000Y106420000D03*
X123500000Y105460000D03*
G04 #@! TD*
D18*
G04 #@! TO.C,C80*
X4584308Y58010000D03*
X5415692Y58490000D03*
G04 #@! TD*
D15*
G04 #@! TO.C,D59*
X91335289Y55591060D03*
X92114711Y56041060D03*
X91664711Y56820482D03*
X90885289Y56370482D03*
G04 #@! TD*
D18*
G04 #@! TO.C,C32*
X154584308Y6010000D03*
X155415692Y6490000D03*
G04 #@! TD*
D16*
G04 #@! TO.C,D73*
X21450000Y63550000D03*
X21450000Y64450000D03*
X20550000Y64450000D03*
X20550000Y63550000D03*
G04 #@! TD*
D13*
G04 #@! TO.C,C5*
X118950000Y104482959D03*
X119430000Y103651575D03*
G04 #@! TD*
D14*
G04 #@! TO.C,C13*
X171480000Y65470000D03*
X170520000Y65470000D03*
G04 #@! TD*
D19*
G04 #@! TO.C,D48*
X94958940Y6885289D03*
X95408940Y7664711D03*
X94629518Y8114711D03*
X94179518Y7335289D03*
G04 #@! TD*
D20*
G04 #@! TO.C,D86*
X20408940Y16335289D03*
X19958940Y17114711D03*
X19179518Y16664711D03*
X19629518Y15885289D03*
G04 #@! TD*
D16*
G04 #@! TO.C,D64*
X50450000Y106450000D03*
X49550000Y106450000D03*
X49550000Y105550000D03*
X50450000Y105550000D03*
G04 #@! TD*
D21*
G04 #@! TO.C,D54*
X79041060Y69114711D03*
X78591060Y68335289D03*
X79370482Y67885289D03*
X79820482Y68664711D03*
G04 #@! TD*
D16*
G04 #@! TO.C,D37*
X96450000Y11550000D03*
X96450000Y12450000D03*
X95550000Y12450000D03*
X95550000Y11550000D03*
G04 #@! TD*
G04 #@! TO.C,D1*
X134450000Y96550000D03*
X134450000Y97450000D03*
X133550000Y97450000D03*
X133550000Y96550000D03*
G04 #@! TD*
D22*
G04 #@! TO.C,D15*
X167114711Y71958940D03*
X166335289Y72408940D03*
X165885289Y71629518D03*
X166664711Y71179518D03*
G04 #@! TD*
D23*
G04 #@! TO.C,C31*
X152520000Y10500000D03*
X153480000Y10500000D03*
G04 #@! TD*
D16*
G04 #@! TO.C,D4*
X125450000Y106450000D03*
X124550000Y106450000D03*
X124550000Y105550000D03*
X125450000Y105550000D03*
G04 #@! TD*
D13*
G04 #@! TO.C,C17*
X155950000Y71482959D03*
X156430000Y70651575D03*
G04 #@! TD*
D16*
G04 #@! TO.C,D82*
X11550000Y54550000D03*
X12450000Y54550000D03*
X12450000Y55450000D03*
X11550000Y55450000D03*
G04 #@! TD*
D24*
G04 #@! TO.C,C78*
X3084308Y67440000D03*
X3915692Y66960000D03*
G04 #@! TD*
D19*
G04 #@! TO.C,D12*
X132958940Y91885289D03*
X133408940Y92664711D03*
X132629518Y93114711D03*
X132179518Y92335289D03*
G04 #@! TD*
D21*
G04 #@! TO.C,D42*
X79041060Y17114711D03*
X78591060Y16335289D03*
X79370482Y15885289D03*
X79820482Y16664711D03*
G04 #@! TD*
D25*
G04 #@! TO.C,D8*
X116591060Y92664711D03*
X117041060Y91885289D03*
X117820482Y92335289D03*
X117370482Y93114711D03*
G04 #@! TD*
D26*
G04 #@! TO.C,C38*
X94415692Y17990000D03*
X93584308Y17510000D03*
G04 #@! TD*
D16*
G04 #@! TO.C,D10*
X124550000Y87550000D03*
X125450000Y87550000D03*
X125450000Y88450000D03*
X124550000Y88450000D03*
G04 #@! TD*
D22*
G04 #@! TO.C,D39*
X92114711Y19958940D03*
X91335289Y20408940D03*
X90885289Y19629518D03*
X91664711Y19179518D03*
G04 #@! TD*
D16*
G04 #@! TO.C,D7*
X115550000Y97450000D03*
X115550000Y96550000D03*
X116450000Y96550000D03*
X116450000Y97450000D03*
G04 #@! TD*
D18*
G04 #@! TO.C,C20*
X154584308Y58010000D03*
X155415692Y58490000D03*
G04 #@! TD*
D21*
G04 #@! TO.C,D6*
X117041060Y102114711D03*
X116591060Y101335289D03*
X117370482Y100885289D03*
X117820482Y101664711D03*
G04 #@! TD*
D16*
G04 #@! TO.C,D16*
X162450000Y73450000D03*
X161550000Y73450000D03*
X161550000Y72550000D03*
X162450000Y72550000D03*
G04 #@! TD*
D27*
G04 #@! TO.C,D53*
X82664711Y72408940D03*
X81885289Y71958940D03*
X82335289Y71179518D03*
X83114711Y71629518D03*
G04 #@! TD*
D23*
G04 #@! TO.C,C19*
X152520000Y62500000D03*
X153480000Y62500000D03*
G04 #@! TD*
D15*
G04 #@! TO.C,D71*
X54335289Y88591060D03*
X55114711Y89041060D03*
X54664711Y89820482D03*
X53885289Y89370482D03*
G04 #@! TD*
D25*
G04 #@! TO.C,D92*
X3591060Y7664711D03*
X4041060Y6885289D03*
X4820482Y7335289D03*
X4370482Y8114711D03*
G04 #@! TD*
D28*
G04 #@! TO.C,C95*
X18040000Y4517041D03*
X17560000Y5348425D03*
G04 #@! TD*
D29*
G04 #@! TO.C,C27*
X165440000Y20915692D03*
X164960000Y20084308D03*
G04 #@! TD*
D16*
G04 #@! TO.C,D67*
X40550000Y97450000D03*
X40550000Y96550000D03*
X41450000Y96550000D03*
X41450000Y97450000D03*
G04 #@! TD*
D24*
G04 #@! TO.C,C66*
X41084308Y100440000D03*
X41915692Y99960000D03*
G04 #@! TD*
G04 #@! TO.C,C42*
X78084308Y15440000D03*
X78915692Y14960000D03*
G04 #@! TD*
D16*
G04 #@! TO.C,D22*
X161550000Y54550000D03*
X162450000Y54550000D03*
X162450000Y55450000D03*
X161550000Y55450000D03*
G04 #@! TD*
D20*
G04 #@! TO.C,D50*
X95408940Y68335289D03*
X94958940Y69114711D03*
X94179518Y68664711D03*
X94629518Y67885289D03*
G04 #@! TD*
D23*
G04 #@! TO.C,C7*
X115520000Y95500000D03*
X116480000Y95500000D03*
G04 #@! TD*
D17*
G04 #@! TO.C,C52*
X85500000Y73420000D03*
X85500000Y72460000D03*
G04 #@! TD*
D16*
G04 #@! TO.C,D94*
X11550000Y2550000D03*
X12450000Y2550000D03*
X12450000Y3450000D03*
X11550000Y3450000D03*
G04 #@! TD*
D15*
G04 #@! TO.C,D23*
X166335289Y55591060D03*
X167114711Y56041060D03*
X166664711Y56820482D03*
X165885289Y56370482D03*
G04 #@! TD*
D30*
G04 #@! TO.C,D21*
X156885289Y56041060D03*
X157664711Y55591060D03*
X158114711Y56370482D03*
X157335289Y56820482D03*
G04 #@! TD*
D16*
G04 #@! TO.C,D88*
X12450000Y21450000D03*
X11550000Y21450000D03*
X11550000Y20550000D03*
X12450000Y20550000D03*
G04 #@! TD*
D30*
G04 #@! TO.C,D45*
X81885289Y4041060D03*
X82664711Y3591060D03*
X83114711Y4370482D03*
X82335289Y4820482D03*
G04 #@! TD*
D14*
G04 #@! TO.C,C25*
X171480000Y13470000D03*
X170520000Y13470000D03*
G04 #@! TD*
G04 #@! TO.C,C73*
X21480000Y65470000D03*
X20520000Y65470000D03*
G04 #@! TD*
D31*
G04 #@! TO.C,C36*
X170965692Y8510000D03*
X170134308Y8990000D03*
G04 #@! TD*
D16*
G04 #@! TO.C,D13*
X171450000Y63550000D03*
X171450000Y64450000D03*
X170550000Y64450000D03*
X170550000Y63550000D03*
G04 #@! TD*
D32*
G04 #@! TO.C,C93*
X8560000Y3084308D03*
X9040000Y3915692D03*
G04 #@! TD*
G04 #@! TO.C,C21*
X158560000Y55084308D03*
X159040000Y55915692D03*
G04 #@! TD*
D15*
G04 #@! TO.C,D95*
X16335289Y3591060D03*
X17114711Y4041060D03*
X16664711Y4820482D03*
X15885289Y4370482D03*
G04 #@! TD*
D18*
G04 #@! TO.C,C8*
X117584308Y91010000D03*
X118415692Y91490000D03*
G04 #@! TD*
D19*
G04 #@! TO.C,D72*
X57958940Y91885289D03*
X58408940Y92664711D03*
X57629518Y93114711D03*
X57179518Y92335289D03*
G04 #@! TD*
D17*
G04 #@! TO.C,C97*
X73000000Y83480000D03*
X73000000Y82520000D03*
G04 #@! TD*
D26*
G04 #@! TO.C,C86*
X19415692Y17990000D03*
X18584308Y17510000D03*
G04 #@! TD*
D21*
G04 #@! TO.C,D18*
X154041060Y69114711D03*
X153591060Y68335289D03*
X154370482Y67885289D03*
X154820482Y68664711D03*
G04 #@! TD*
D16*
G04 #@! TO.C,D85*
X21450000Y11550000D03*
X21450000Y12450000D03*
X20550000Y12450000D03*
X20550000Y11550000D03*
G04 #@! TD*
D32*
G04 #@! TO.C,C9*
X121560000Y88084308D03*
X122040000Y88915692D03*
G04 #@! TD*
D16*
G04 #@! TO.C,D19*
X152550000Y64450000D03*
X152550000Y63550000D03*
X153450000Y63550000D03*
X153450000Y64450000D03*
G04 #@! TD*
D27*
G04 #@! TO.C,D65*
X45664711Y105408940D03*
X44885289Y104958940D03*
X45335289Y104179518D03*
X46114711Y104629518D03*
G04 #@! TD*
D21*
G04 #@! TO.C,D78*
X4041060Y69114711D03*
X3591060Y68335289D03*
X4370482Y67885289D03*
X4820482Y68664711D03*
G04 #@! TD*
D16*
G04 #@! TO.C,D46*
X86550000Y2550000D03*
X87450000Y2550000D03*
X87450000Y3450000D03*
X86550000Y3450000D03*
G04 #@! TD*
D24*
G04 #@! TO.C,C18*
X153084308Y67440000D03*
X153915692Y66960000D03*
G04 #@! TD*
D16*
G04 #@! TO.C,D58*
X86550000Y54550000D03*
X87450000Y54550000D03*
X87450000Y55450000D03*
X86550000Y55450000D03*
G04 #@! TD*
G04 #@! TO.C,D25*
X171450000Y11550000D03*
X171450000Y12450000D03*
X170550000Y12450000D03*
X170550000Y11550000D03*
G04 #@! TD*
G04 #@! TO.C,D70*
X49550000Y87550000D03*
X50450000Y87550000D03*
X50450000Y88450000D03*
X49550000Y88450000D03*
G04 #@! TD*
D31*
G04 #@! TO.C,C72*
X58965692Y93510000D03*
X58134308Y93990000D03*
G04 #@! TD*
D23*
G04 #@! TO.C,C55*
X77520000Y62500000D03*
X78480000Y62500000D03*
G04 #@! TD*
D29*
G04 #@! TO.C,C87*
X15440000Y20915692D03*
X14960000Y20084308D03*
G04 #@! TD*
D28*
G04 #@! TO.C,C11*
X131040000Y89517041D03*
X130560000Y90348425D03*
G04 #@! TD*
D26*
G04 #@! TO.C,C26*
X169415692Y17990000D03*
X168584308Y17510000D03*
G04 #@! TD*
D23*
G04 #@! TO.C,C43*
X77520000Y10500000D03*
X78480000Y10500000D03*
G04 #@! TD*
D27*
G04 #@! TO.C,D77*
X7664711Y72408940D03*
X6885289Y71958940D03*
X7335289Y71179518D03*
X8114711Y71629518D03*
G04 #@! TD*
D26*
G04 #@! TO.C,C74*
X19415692Y69990000D03*
X18584308Y69510000D03*
G04 #@! TD*
D17*
G04 #@! TO.C,C16*
X160500000Y73420000D03*
X160500000Y72460000D03*
G04 #@! TD*
D16*
G04 #@! TO.C,D31*
X152550000Y12450000D03*
X152550000Y11550000D03*
X153450000Y11550000D03*
X153450000Y12450000D03*
G04 #@! TD*
D29*
G04 #@! TO.C,C51*
X90440000Y72915692D03*
X89960000Y72084308D03*
G04 #@! TD*
D28*
G04 #@! TO.C,C59*
X93040000Y56517041D03*
X92560000Y57348425D03*
G04 #@! TD*
D27*
G04 #@! TO.C,D17*
X157664711Y72408940D03*
X156885289Y71958940D03*
X157335289Y71179518D03*
X158114711Y71629518D03*
G04 #@! TD*
D20*
G04 #@! TO.C,D74*
X20408940Y68335289D03*
X19958940Y69114711D03*
X19179518Y68664711D03*
X19629518Y67885289D03*
G04 #@! TD*
D22*
G04 #@! TO.C,D51*
X92114711Y71958940D03*
X91335289Y72408940D03*
X90885289Y71629518D03*
X91664711Y71179518D03*
G04 #@! TD*
D29*
G04 #@! TO.C,C39*
X90440000Y20915692D03*
X89960000Y20084308D03*
G04 #@! TD*
D14*
G04 #@! TO.C,C61*
X59480000Y98470000D03*
X58520000Y98470000D03*
G04 #@! TD*
D16*
G04 #@! TO.C,D28*
X162450000Y21450000D03*
X161550000Y21450000D03*
X161550000Y20550000D03*
X162450000Y20550000D03*
G04 #@! TD*
D24*
G04 #@! TO.C,C6*
X116084308Y100440000D03*
X116915692Y99960000D03*
G04 #@! TD*
D23*
G04 #@! TO.C,C79*
X2520000Y62500000D03*
X3480000Y62500000D03*
G04 #@! TD*
D16*
G04 #@! TO.C,D55*
X77550000Y64450000D03*
X77550000Y63550000D03*
X78450000Y63550000D03*
X78450000Y64450000D03*
G04 #@! TD*
D18*
G04 #@! TO.C,C44*
X79584308Y6010000D03*
X80415692Y6490000D03*
G04 #@! TD*
D33*
G04 #@! TO.C,C10*
X126500000Y87490000D03*
X126500000Y88450000D03*
G04 #@! TD*
D13*
G04 #@! TO.C,C29*
X155950000Y19482959D03*
X156430000Y18651575D03*
G04 #@! TD*
D20*
G04 #@! TO.C,D38*
X95408940Y16335289D03*
X94958940Y17114711D03*
X94179518Y16664711D03*
X94629518Y15885289D03*
G04 #@! TD*
D17*
G04 #@! TO.C,C76*
X10500000Y73420000D03*
X10500000Y72460000D03*
G04 #@! TD*
D29*
G04 #@! TO.C,C75*
X15440000Y72915692D03*
X14960000Y72084308D03*
G04 #@! TD*
D17*
G04 #@! TO.C,C40*
X85500000Y21420000D03*
X85500000Y20460000D03*
G04 #@! TD*
D26*
G04 #@! TO.C,C62*
X57415692Y102990000D03*
X56584308Y102510000D03*
G04 #@! TD*
D28*
G04 #@! TO.C,C83*
X18040000Y56517041D03*
X17560000Y57348425D03*
G04 #@! TD*
D22*
G04 #@! TO.C,D75*
X17114711Y71958940D03*
X16335289Y72408940D03*
X15885289Y71629518D03*
X16664711Y71179518D03*
G04 #@! TD*
D21*
G04 #@! TO.C,D66*
X42041060Y102114711D03*
X41591060Y101335289D03*
X42370482Y100885289D03*
X42820482Y101664711D03*
G04 #@! TD*
D24*
G04 #@! TO.C,C90*
X3084308Y15440000D03*
X3915692Y14960000D03*
G04 #@! TD*
D17*
G04 #@! TO.C,C88*
X10500000Y21420000D03*
X10500000Y20460000D03*
G04 #@! TD*
D21*
G04 #@! TO.C,D30*
X154041060Y17114711D03*
X153591060Y16335289D03*
X154370482Y15885289D03*
X154820482Y16664711D03*
G04 #@! TD*
D31*
G04 #@! TO.C,C60*
X95965692Y60510000D03*
X95134308Y60990000D03*
G04 #@! TD*
D25*
G04 #@! TO.C,D56*
X78591060Y59664711D03*
X79041060Y58885289D03*
X79820482Y59335289D03*
X79370482Y60114711D03*
G04 #@! TD*
D20*
G04 #@! TO.C,D26*
X170408940Y16335289D03*
X169958940Y17114711D03*
X169179518Y16664711D03*
X169629518Y15885289D03*
G04 #@! TD*
D25*
G04 #@! TO.C,D44*
X78591060Y7664711D03*
X79041060Y6885289D03*
X79820482Y7335289D03*
X79370482Y8114711D03*
G04 #@! TD*
D21*
G04 #@! TO.C,D90*
X4041060Y17114711D03*
X3591060Y16335289D03*
X4370482Y15885289D03*
X4820482Y16664711D03*
G04 #@! TD*
D31*
G04 #@! TO.C,C48*
X95965692Y8510000D03*
X95134308Y8990000D03*
G04 #@! TD*
D16*
G04 #@! TO.C,D61*
X59450000Y96550000D03*
X59450000Y97450000D03*
X58550000Y97450000D03*
X58550000Y96550000D03*
G04 #@! TD*
D20*
G04 #@! TO.C,D2*
X133408940Y101335289D03*
X132958940Y102114711D03*
X132179518Y101664711D03*
X132629518Y100885289D03*
G04 #@! TD*
D22*
G04 #@! TO.C,D87*
X17114711Y19958940D03*
X16335289Y20408940D03*
X15885289Y19629518D03*
X16664711Y19179518D03*
G04 #@! TD*
D19*
G04 #@! TO.C,D60*
X94958940Y58885289D03*
X95408940Y59664711D03*
X94629518Y60114711D03*
X94179518Y59335289D03*
G04 #@! TD*
D25*
G04 #@! TO.C,D20*
X153591060Y59664711D03*
X154041060Y58885289D03*
X154820482Y59335289D03*
X154370482Y60114711D03*
G04 #@! TD*
D14*
G04 #@! TO.C,C1*
X134480000Y98470000D03*
X133520000Y98470000D03*
G04 #@! TD*
D26*
G04 #@! TO.C,C2*
X132415692Y102990000D03*
X131584308Y102510000D03*
G04 #@! TD*
D33*
G04 #@! TO.C,C82*
X13500000Y54490000D03*
X13500000Y55450000D03*
G04 #@! TD*
D16*
G04 #@! TO.C,D97*
X74050000Y83450000D03*
X74050000Y82550000D03*
X74950000Y82550000D03*
X74950000Y83450000D03*
G04 #@! TD*
D27*
G04 #@! TO.C,D5*
X120664711Y105408940D03*
X119885289Y104958940D03*
X120335289Y104179518D03*
X121114711Y104629518D03*
G04 #@! TD*
G04 #@! TO.C,D41*
X82664711Y20408940D03*
X81885289Y19958940D03*
X82335289Y19179518D03*
X83114711Y19629518D03*
G04 #@! TD*
D24*
G04 #@! TO.C,C54*
X78084308Y67440000D03*
X78915692Y66960000D03*
G04 #@! TD*
D19*
G04 #@! TO.C,D84*
X19958940Y58885289D03*
X20408940Y59664711D03*
X19629518Y60114711D03*
X19179518Y59335289D03*
G04 #@! TD*
D17*
G04 #@! TO.C,C28*
X160500000Y21420000D03*
X160500000Y20460000D03*
G04 #@! TD*
D16*
G04 #@! TO.C,D52*
X87450000Y73450000D03*
X86550000Y73450000D03*
X86550000Y72550000D03*
X87450000Y72550000D03*
G04 #@! TD*
D19*
G04 #@! TO.C,D24*
X169958940Y58885289D03*
X170408940Y59664711D03*
X169629518Y60114711D03*
X169179518Y59335289D03*
G04 #@! TD*
D33*
G04 #@! TO.C,C58*
X88500000Y54490000D03*
X88500000Y55450000D03*
G04 #@! TD*
D16*
G04 #@! TO.C,D91*
X2550000Y12450000D03*
X2550000Y11550000D03*
X3450000Y11550000D03*
X3450000Y12450000D03*
G04 #@! TD*
D33*
G04 #@! TO.C,C94*
X13500000Y2490000D03*
X13500000Y3450000D03*
G04 #@! TD*
D34*
G04 #@! TO.C,R1*
X135470000Y97530000D03*
X135470000Y96510000D03*
G04 #@! TD*
D31*
G04 #@! TO.C,C12*
X133965692Y93510000D03*
X133134308Y93990000D03*
G04 #@! TD*
D30*
G04 #@! TO.C,D9*
X119885289Y89041060D03*
X120664711Y88591060D03*
X121114711Y89370482D03*
X120335289Y89820482D03*
G04 #@! TD*
D14*
G04 #@! TO.C,C37*
X96480000Y13470000D03*
X95520000Y13470000D03*
G04 #@! TD*
D29*
G04 #@! TO.C,C15*
X165440000Y72915692D03*
X164960000Y72084308D03*
G04 #@! TD*
D24*
G04 #@! TO.C,C30*
X153084308Y15440000D03*
X153915692Y14960000D03*
G04 #@! TD*
D31*
G04 #@! TO.C,C24*
X170965692Y60510000D03*
X170134308Y60990000D03*
G04 #@! TD*
D15*
G04 #@! TO.C,D47*
X91335289Y3591060D03*
X92114711Y4041060D03*
X91664711Y4820482D03*
X90885289Y4370482D03*
G04 #@! TD*
D16*
G04 #@! TO.C,D79*
X2550000Y64450000D03*
X2550000Y63550000D03*
X3450000Y63550000D03*
X3450000Y64450000D03*
G04 #@! TD*
D19*
G04 #@! TO.C,D36*
X169958940Y6885289D03*
X170408940Y7664711D03*
X169629518Y8114711D03*
X169179518Y7335289D03*
G04 #@! TD*
D22*
G04 #@! TO.C,D27*
X167114711Y19958940D03*
X166335289Y20408940D03*
X165885289Y19629518D03*
X166664711Y19179518D03*
G04 #@! TD*
D16*
G04 #@! TO.C,D76*
X12450000Y73450000D03*
X11550000Y73450000D03*
X11550000Y72550000D03*
X12450000Y72550000D03*
G04 #@! TD*
D23*
G04 #@! TO.C,C91*
X2520000Y10500000D03*
X3480000Y10500000D03*
G04 #@! TD*
D16*
G04 #@! TO.C,D40*
X87450000Y21450000D03*
X86550000Y21450000D03*
X86550000Y20550000D03*
X87450000Y20550000D03*
G04 #@! TD*
D33*
G04 #@! TO.C,C22*
X163500000Y54490000D03*
X163500000Y55450000D03*
G04 #@! TD*
D13*
G04 #@! TO.C,C77*
X5950000Y71482959D03*
X6430000Y70651575D03*
G04 #@! TD*
D28*
G04 #@! TO.C,C23*
X168040000Y56517041D03*
X167560000Y57348425D03*
G04 #@! TD*
G04 #@! TO.C,C71*
X56040000Y89517041D03*
X55560000Y90348425D03*
G04 #@! TD*
D16*
G04 #@! TO.C,D98*
X99050000Y83450000D03*
X99050000Y82550000D03*
X99950000Y82550000D03*
X99950000Y83450000D03*
G04 #@! TD*
D22*
G04 #@! TO.C,D63*
X55114711Y104958940D03*
X54335289Y105408940D03*
X53885289Y104629518D03*
X54664711Y104179518D03*
G04 #@! TD*
G04 #@! TO.C,D3*
X130114711Y104958940D03*
X129335289Y105408940D03*
X128885289Y104629518D03*
X129664711Y104179518D03*
G04 #@! TD*
D25*
G04 #@! TO.C,D32*
X153591060Y7664711D03*
X154041060Y6885289D03*
X154820482Y7335289D03*
X154370482Y8114711D03*
G04 #@! TD*
D18*
G04 #@! TO.C,C92*
X4584308Y6010000D03*
X5415692Y6490000D03*
G04 #@! TD*
D31*
G04 #@! TO.C,C96*
X20965692Y8510000D03*
X20134308Y8990000D03*
G04 #@! TD*
D25*
G04 #@! TO.C,D80*
X3591060Y59664711D03*
X4041060Y58885289D03*
X4820482Y59335289D03*
X4370482Y60114711D03*
G04 #@! TD*
D33*
G04 #@! TO.C,C70*
X51500000Y87490000D03*
X51500000Y88450000D03*
G04 #@! TD*
D30*
G04 #@! TO.C,D93*
X6885289Y4041060D03*
X7664711Y3591060D03*
X8114711Y4370482D03*
X7335289Y4820482D03*
G04 #@! TD*
D14*
G04 #@! TO.C,C85*
X21480000Y13470000D03*
X20520000Y13470000D03*
G04 #@! TD*
D18*
G04 #@! TO.C,C68*
X42584308Y91010000D03*
X43415692Y91490000D03*
G04 #@! TD*
D27*
G04 #@! TO.C,D89*
X7664711Y20408940D03*
X6885289Y19958940D03*
X7335289Y19179518D03*
X8114711Y19629518D03*
G04 #@! TD*
D13*
G04 #@! TO.C,C41*
X80950000Y19482959D03*
X81430000Y18651575D03*
G04 #@! TD*
D32*
G04 #@! TO.C,C45*
X83560000Y3084308D03*
X84040000Y3915692D03*
G04 #@! TD*
D20*
G04 #@! TO.C,D14*
X170408940Y68335289D03*
X169958940Y69114711D03*
X169179518Y68664711D03*
X169629518Y67885289D03*
G04 #@! TD*
D26*
G04 #@! TO.C,C50*
X94415692Y69990000D03*
X93584308Y69510000D03*
G04 #@! TD*
D20*
G04 #@! TO.C,D62*
X58408940Y101335289D03*
X57958940Y102114711D03*
X57179518Y101664711D03*
X57629518Y100885289D03*
G04 #@! TD*
D30*
G04 #@! TO.C,D33*
X156885289Y4041060D03*
X157664711Y3591060D03*
X158114711Y4370482D03*
X157335289Y4820482D03*
G04 #@! TD*
D32*
G04 #@! TO.C,C33*
X158560000Y3084308D03*
X159040000Y3915692D03*
G04 #@! TD*
D16*
G04 #@! TO.C,D43*
X77550000Y12450000D03*
X77550000Y11550000D03*
X78450000Y11550000D03*
X78450000Y12450000D03*
G04 #@! TD*
D33*
G04 #@! TO.C,C98*
X98000000Y82520000D03*
X98000000Y83480000D03*
G04 #@! TD*
D23*
G04 #@! TO.C,C67*
X40520000Y95500000D03*
X41480000Y95500000D03*
G04 #@! TD*
D29*
G04 #@! TO.C,C3*
X128440000Y105915692D03*
X127960000Y105084308D03*
G04 #@! TD*
D26*
G04 #@! TO.C,C14*
X169415692Y69990000D03*
X168584308Y69510000D03*
G04 #@! TD*
D28*
G04 #@! TO.C,C35*
X168040000Y4517041D03*
X167560000Y5348425D03*
G04 #@! TD*
D32*
G04 #@! TO.C,C57*
X83560000Y55084308D03*
X84040000Y55915692D03*
G04 #@! TD*
D33*
G04 #@! TO.C,C46*
X88500000Y2490000D03*
X88500000Y3450000D03*
G04 #@! TD*
D32*
G04 #@! TO.C,C81*
X8560000Y55084308D03*
X9040000Y55915692D03*
G04 #@! TD*
D18*
G04 #@! TO.C,C56*
X79584308Y58010000D03*
X80415692Y58490000D03*
G04 #@! TD*
D29*
G04 #@! TO.C,C63*
X53440000Y105915692D03*
X52960000Y105084308D03*
G04 #@! TD*
D19*
G04 #@! TO.C,D96*
X19958940Y6885289D03*
X20408940Y7664711D03*
X19629518Y8114711D03*
X19179518Y7335289D03*
G04 #@! TD*
D30*
G04 #@! TO.C,D81*
X6885289Y56041060D03*
X7664711Y55591060D03*
X8114711Y56370482D03*
X7335289Y56820482D03*
G04 #@! TD*
D33*
G04 #@! TO.C,C34*
X163500000Y2490000D03*
X163500000Y3450000D03*
G04 #@! TD*
D30*
G04 #@! TO.C,D57*
X81885289Y56041060D03*
X82664711Y55591060D03*
X83114711Y56370482D03*
X82335289Y56820482D03*
G04 #@! TD*
D31*
G04 #@! TO.C,C84*
X20965692Y60510000D03*
X20134308Y60990000D03*
G04 #@! TD*
D13*
G04 #@! TO.C,C89*
X5950000Y19482959D03*
X6430000Y18651575D03*
G04 #@! TD*
D27*
G04 #@! TO.C,D29*
X157664711Y20408940D03*
X156885289Y19958940D03*
X157335289Y19179518D03*
X158114711Y19629518D03*
G04 #@! TD*
D28*
G04 #@! TO.C,C47*
X93040000Y4517041D03*
X92560000Y5348425D03*
G04 #@! TD*
D30*
G04 #@! TO.C,D69*
X44885289Y89041060D03*
X45664711Y88591060D03*
X46114711Y89370482D03*
X45335289Y89820482D03*
G04 #@! TD*
D17*
G04 #@! TO.C,C64*
X48500000Y106420000D03*
X48500000Y105460000D03*
G04 #@! TD*
D32*
G04 #@! TO.C,C69*
X46560000Y88084308D03*
X47040000Y88915692D03*
G04 #@! TD*
D13*
G04 #@! TO.C,C53*
X80950000Y71482959D03*
X81430000Y70651575D03*
G04 #@! TD*
D25*
G04 #@! TO.C,D68*
X41591060Y92664711D03*
X42041060Y91885289D03*
X42820482Y92335289D03*
X42370482Y93114711D03*
G04 #@! TD*
M02*
