  0
SECTION
  2
HEADER
  9
$ANGBASE
  50
0.0
  9
$ANGDIR
  70
1
  9
$MEASUREMENT
  70
1
  0
ENDSEC
  0
SECTION
  2
TABLES
  0
TABLE
  2
LTYPE
  70
4
  0
LTYPE
  5
40F
  2
CONTINUOUS
  70
0
  3
Solid line
  72
65
  73
0
  40
0.0
  0
LTYPE
  5
410
  2
DASHDOT
 70
0
  3
Dash Dot ____ _ ____ _
 72
65
 73
4
 40
2.0
 49
1.25
 49
-0.25
 49
0.25
 49
-0.25
  0
LTYPE
  5
411
  2
DASHED
 70
0
  3
Dashed __ __ __ __ __
 72
65
 73
2
 40
0.75
 49
0.5
 49
-0.25
  0
LTYPE
  5
43B
  2
DOTTED
 70
0
  3
Dotted .  .  .  .
 72
65
 73
2
 40
0.2
 49
0.0
 49
-0.2
  0
ENDTAB
  0
TABLE
  2
STYLE
  70
4
  0
STYLE
  2
KICAD
  70
0
  40
0
  41
1
  42
1
  50
0
  71
0
  3
isocp.shx
  0
STYLE
  2
KICADB
  70
0
  40
0
  41
1
  42
1
  50
0
  71
0
  3
isocp.shx
  0
STYLE
  2
KICADI
  70
0
  40
0
  41
1
  42
1
  50
15
  71
0
  3
isocp.shx
  0
STYLE
  2
KICADBI
  70
0
  40
0
  41
1
  42
1
  50
15
  71
0
  3
isocp.shx
  0
ENDTAB
  0
TABLE
  2
LAYER
  70
1
  0
LAYER
  2
BLACK
  70
0
  62
7
  6
CONTINUOUS
  0
ENDTAB
  0
ENDSEC
  0
SECTION
  2
ENTITIES
0
LINE
8
BLACK
6
CONTINUOUS
10
25.
20
-136.
11
112.
21
-136.
0
CIRCLE
8
BLACK
10
182.
20
-124.
40
6.0999999999999996
0
ARC
8
BLACK
10
25.
20
-26.
40
1.
50
90.00000000
51
180.00000000
0
ARC
8
BLACK
10
21.
20
-32.
40
1.
50
90.00000000
51
180.00000000
0
LINE
8
BLACK
6
CONTINUOUS
10
124.1999999999999886
20
-25.
11
189.
21
-25.
0
LINE
8
BLACK
6
CONTINUOUS
10
24.
20
-133.
11
24.
21
-135.
0
LINE
8
BLACK
6
CONTINUOUS
10
190.
20
-26.
11
190.
21
-28.
0
ARC
8
BLACK
10
193.
20
-32.
40
1.
50
0.00000000
51
90.00000000
0
ARC
8
BLACK
10
21.
20
-129.
40
1.
50
-180.00000000
51
-90.00000000
0
ARC
8
BLACK
10
107.
20
-25.
40
5.
50
-180.00000000
51
-0.00000000
0
LINE
8
BLACK
6
CONTINUOUS
10
112.
20
-136.
11
189.
21
-136.
0
CIRCLE
8
BLACK
10
145.
20
-39.
40
6.0999999999999996
0
ARC
8
BLACK
10
21.
20
-28.
40
3.
50
-90.00000000
51
-0.00000000
0
LINE
8
BLACK
6
CONTINUOUS
10
94.2000000000000028
20
-25.
11
102.
21
-25.
0
CIRCLE
8
BLACK
10
70.
20
-39.
40
6.0999999999999996
0
CIRCLE
8
BLACK
10
182.
20
-72.
40
6.0999999999999996
0
CIRCLE
8
BLACK
10
32.
20
-124.
40
6.0999999999999996
0
CIRCLE
8
BLACK
10
107.
20
-72.
40
6.0999999999999996
0
LINE
8
BLACK
6
CONTINUOUS
10
194.
20
-32.
11
194.
21
-129.
0
ARC
8
BLACK
10
189.
20
-135.
40
1.
50
-90.00000000
51
-0.00000000
0
CIRCLE
8
BLACK
10
32.
20
-72.
40
6.0999999999999996
0
LINE
8
BLACK
6
CONTINUOUS
10
112.
20
-25.
11
124.1999999999999886
21
-25.
0
ARC
8
BLACK
10
25.
20
-135.
40
1.
50
-180.00000000
51
-90.00000000
0
ARC
8
BLACK
10
193.
20
-129.
40
1.
50
-90.00000000
51
-0.00000000
0
ARC
8
BLACK
10
189.
20
-26.
40
1.
50
0.00000000
51
90.00000000
0
ARC
8
BLACK
10
193.
20
-28.
40
3.
50
-180.00000000
51
-90.00000000
0
LINE
8
BLACK
6
CONTINUOUS
10
20.
20
-129.
11
20.
21
-32.
0
LINE
8
BLACK
6
CONTINUOUS
10
94.2000000000000028
20
-25.
11
25.
21
-25.
0
LINE
8
BLACK
6
CONTINUOUS
10
190.
20
-133.
11
190.
21
-135.
0
ARC
8
BLACK
10
193.
20
-133.
40
3.
50
90.00000000
51
180.00000000
0
LINE
8
BLACK
6
CONTINUOUS
10
24.
20
-26.
11
24.
21
-28.
0
CIRCLE
8
BLACK
10
107.
20
-124.
40
6.0999999999999996
0
ARC
8
BLACK
10
21.
20
-133.
40
3.
50
0.00000000
51
90.00000000
0
LINE
8
BLACK
6
CONTINUOUS
10
52.1999999999999957
20
-78.2000000000000028
11
86.7999999999999972
21
-78.2000000000000028
0
LINE
8
BLACK
6
CONTINUOUS
10
86.7999999999999972
20
-78.2000000000000028
11
86.7999999999999972
21
-124.1999999999999886
0
LINE
8
BLACK
6
CONTINUOUS
10
86.7999999999999972
20
-124.1999999999999886
11
52.1999999999999957
21
-124.1999999999999886
0
LINE
8
BLACK
6
CONTINUOUS
10
52.1999999999999957
20
-124.1999999999999886
11
52.1999999999999957
21
-78.2000000000000028
0
LINE
8
BLACK
6
CONTINUOUS
10
127.1999999999999886
20
-78.2000000000000028
11
161.7999999999999829
21
-78.2000000000000028
0
LINE
8
BLACK
6
CONTINUOUS
10
161.7999999999999829
20
-78.2000000000000028
11
161.7999999999999829
21
-124.1999999999999886
0
LINE
8
BLACK
6
CONTINUOUS
10
161.7999999999999829
20
-124.1999999999999886
11
127.1999999999999886
21
-124.1999999999999886
0
LINE
8
BLACK
6
CONTINUOUS
10
127.1999999999999886
20
-124.1999999999999886
11
127.1999999999999886
21
-78.2000000000000028
  0
ENDSEC
  0
EOF
