  0
SECTION
  2
HEADER
  9
$ANGBASE
  50
0.0
  9
$ANGDIR
  70
1
  9
$MEASUREMENT
  70
1
  0
ENDSEC
  0
SECTION
  2
TABLES
  0
TABLE
  2
LTYPE
  70
4
  0
LTYPE
  5
40F
  2
CONTINUOUS
  70
0
  3
Solid line
  72
65
  73
0
  40
0.0
  0
LTYPE
  5
410
  2
DASHDOT
 70
0
  3
Dash Dot ____ _ ____ _
 72
65
 73
4
 40
2.0
 49
1.25
 49
-0.25
 49
0.25
 49
-0.25
  0
LTYPE
  5
411
  2
DASHED
 70
0
  3
Dashed __ __ __ __ __
 72
65
 73
2
 40
0.75
 49
0.5
 49
-0.25
  0
LTYPE
  5
43B
  2
DOTTED
 70
0
  3
Dotted .  .  .  .
 72
65
 73
2
 40
0.2
 49
0.0
 49
-0.2
  0
ENDTAB
  0
TABLE
  2
STYLE
  70
4
  0
STYLE
  2
KICAD
  70
0
  40
0
  41
1
  42
1
  50
0
  71
0
  3
isocp.shx
  0
STYLE
  2
KICADB
  70
0
  40
0
  41
1
  42
1
  50
0
  71
0
  3
isocp.shx
  0
STYLE
  2
KICADI
  70
0
  40
0
  41
1
  42
1
  50
15
  71
0
  3
isocp.shx
  0
STYLE
  2
KICADBI
  70
0
  40
0
  41
1
  42
1
  50
15
  71
0
  3
isocp.shx
  0
ENDTAB
  0
TABLE
  2
LAYER
  70
1
  0
LAYER
  2
BLACK
  70
0
  62
7
  6
CONTINUOUS
  0
ENDTAB
  0
ENDSEC
  0
SECTION
  2
ENTITIES
0
LINE
8
BLACK
6
CONTINUOUS
10
24.2956709999999987
20
-114.6190299999999951
11
24.3767770000000006
21
-114.673222999999993
0
LINE
8
BLACK
6
CONTINUOUS
10
24.3767770000000006
20
-114.673222999999993
11
24.4309699999999985
21
-114.7543289999999985
0
LINE
8
BLACK
6
CONTINUOUS
10
24.4309699999999985
20
-114.7543289999999985
11
24.4499999999999993
21
-114.8499999999999943
0
LINE
8
BLACK
6
CONTINUOUS
10
24.4499999999999993
20
-114.8499999999999943
11
24.4499999999999993
21
-115.9499999999999886
0
LINE
8
BLACK
6
CONTINUOUS
10
24.4499999999999993
20
-115.9499999999999886
11
24.4309699999999985
21
-116.0456709999999987
0
LINE
8
BLACK
6
CONTINUOUS
10
24.4309699999999985
20
-116.0456709999999987
11
24.3767770000000006
21
-116.1267769999999899
0
LINE
8
BLACK
6
CONTINUOUS
10
24.3767770000000006
20
-116.1267769999999899
11
24.2956709999999987
21
-116.1809699999999879
0
LINE
8
BLACK
6
CONTINUOUS
10
24.2956709999999987
20
-116.1809699999999879
11
24.1999999999999993
21
-116.1999999999999886
0
LINE
8
BLACK
6
CONTINUOUS
10
24.1999999999999993
20
-116.1999999999999886
11
21.6999999999999993
21
-116.1999999999999886
0
LINE
8
BLACK
6
CONTINUOUS
10
21.6999999999999993
20
-116.1999999999999886
11
21.6043289999999999
21
-116.1809699999999879
0
LINE
8
BLACK
6
CONTINUOUS
10
21.6043289999999999
20
-116.1809699999999879
11
21.523222999999998
21
-116.1267769999999899
0
LINE
8
BLACK
6
CONTINUOUS
10
21.523222999999998
20
-116.1267769999999899
11
21.4690300000000001
21
-116.0456709999999987
0
LINE
8
BLACK
6
CONTINUOUS
10
21.4690300000000001
20
-116.0456709999999987
11
21.4499999999999993
21
-115.9499999999999886
0
LINE
8
BLACK
6
CONTINUOUS
10
21.4499999999999993
20
-115.9499999999999886
11
21.4499999999999993
21
-114.8499999999999943
0
LINE
8
BLACK
6
CONTINUOUS
10
21.4499999999999993
20
-114.8499999999999943
11
21.4690300000000001
21
-114.7543289999999985
0
LINE
8
BLACK
6
CONTINUOUS
10
21.4690300000000001
20
-114.7543289999999985
11
21.523222999999998
21
-114.673222999999993
0
LINE
8
BLACK
6
CONTINUOUS
10
21.523222999999998
20
-114.673222999999993
11
21.6043289999999999
21
-114.6190299999999951
0
LINE
8
BLACK
6
CONTINUOUS
10
21.6043289999999999
20
-114.6190299999999951
11
21.6999999999999993
21
-114.5999999999999943
0
LINE
8
BLACK
6
CONTINUOUS
10
21.6999999999999993
20
-114.5999999999999943
11
24.1999999999999993
21
-114.5999999999999943
0
LINE
8
BLACK
6
CONTINUOUS
10
24.1999999999999993
20
-114.5999999999999943
11
24.2956709999999987
21
-114.6190299999999951
0
LINE
8
BLACK
6
CONTINUOUS
10
27.7956709999999987
20
-112.5190300000000008
11
27.876776999999997
21
-112.5732229999999987
0
LINE
8
BLACK
6
CONTINUOUS
10
27.876776999999997
20
-112.5732229999999987
11
27.9309699999999985
21
-112.6543289999999899
0
LINE
8
BLACK
6
CONTINUOUS
10
27.9309699999999985
20
-112.6543289999999899
11
27.9499999999999993
21
-112.75
0
LINE
8
BLACK
6
CONTINUOUS
10
27.9499999999999993
20
-112.75
11
27.9499999999999993
21
-113.25
0
LINE
8
BLACK
6
CONTINUOUS
10
27.9499999999999993
20
-113.25
11
27.9309699999999985
21
-113.3456709999999958
0
LINE
8
BLACK
6
CONTINUOUS
10
27.9309699999999985
20
-113.3456709999999958
11
27.876776999999997
21
-113.4267770000000013
0
LINE
8
BLACK
6
CONTINUOUS
10
27.876776999999997
20
-113.4267770000000013
11
27.7956709999999987
21
-113.4809699999999992
0
LINE
8
BLACK
6
CONTINUOUS
10
27.7956709999999987
20
-113.4809699999999992
11
27.6999999999999993
21
-113.5
0
LINE
8
BLACK
6
CONTINUOUS
10
27.6999999999999993
20
-113.5
11
22.6999999999999993
21
-113.5
0
LINE
8
BLACK
6
CONTINUOUS
10
22.6999999999999993
20
-113.5
11
22.6043289999999999
21
-113.4809699999999992
0
LINE
8
BLACK
6
CONTINUOUS
10
22.6043289999999999
20
-113.4809699999999992
11
22.523222999999998
21
-113.4267770000000013
0
LINE
8
BLACK
6
CONTINUOUS
10
22.523222999999998
20
-113.4267770000000013
11
22.4690300000000001
21
-113.3456709999999958
0
LINE
8
BLACK
6
CONTINUOUS
10
22.4690300000000001
20
-113.3456709999999958
11
22.4499999999999993
21
-113.25
0
LINE
8
BLACK
6
CONTINUOUS
10
22.4499999999999993
20
-113.25
11
22.4499999999999993
21
-112.75
0
LINE
8
BLACK
6
CONTINUOUS
10
22.4499999999999993
20
-112.75
11
22.4690300000000001
21
-112.6543289999999899
0
LINE
8
BLACK
6
CONTINUOUS
10
22.4690300000000001
20
-112.6543289999999899
11
22.523222999999998
21
-112.5732229999999987
0
LINE
8
BLACK
6
CONTINUOUS
10
22.523222999999998
20
-112.5732229999999987
11
22.6043289999999999
21
-112.5190300000000008
0
LINE
8
BLACK
6
CONTINUOUS
10
22.6043289999999999
20
-112.5190300000000008
11
22.6999999999999993
21
-112.5
0
LINE
8
BLACK
6
CONTINUOUS
10
22.6999999999999993
20
-112.5
11
27.6999999999999993
21
-112.5
0
LINE
8
BLACK
6
CONTINUOUS
10
27.6999999999999993
20
-112.5
11
27.7956709999999987
21
-112.5190300000000008
0
LINE
8
BLACK
6
CONTINUOUS
10
27.7956709999999987
20
-110.5190300000000008
11
27.876776999999997
21
-110.5732229999999987
0
LINE
8
BLACK
6
CONTINUOUS
10
27.876776999999997
20
-110.5732229999999987
11
27.9309699999999985
21
-110.6543289999999899
0
LINE
8
BLACK
6
CONTINUOUS
10
27.9309699999999985
20
-110.6543289999999899
11
27.9499999999999993
21
-110.75
0
LINE
8
BLACK
6
CONTINUOUS
10
27.9499999999999993
20
-110.75
11
27.9499999999999993
21
-111.25
0
LINE
8
BLACK
6
CONTINUOUS
10
27.9499999999999993
20
-111.25
11
27.9309699999999985
21
-111.3456709999999958
0
LINE
8
BLACK
6
CONTINUOUS
10
27.9309699999999985
20
-111.3456709999999958
11
27.876776999999997
21
-111.4267770000000013
0
LINE
8
BLACK
6
CONTINUOUS
10
27.876776999999997
20
-111.4267770000000013
11
27.7956709999999987
21
-111.4809699999999992
0
LINE
8
BLACK
6
CONTINUOUS
10
27.7956709999999987
20
-111.4809699999999992
11
27.6999999999999993
21
-111.5
0
LINE
8
BLACK
6
CONTINUOUS
10
27.6999999999999993
20
-111.5
11
22.6999999999999993
21
-111.5
0
LINE
8
BLACK
6
CONTINUOUS
10
22.6999999999999993
20
-111.5
11
22.6043289999999999
21
-111.4809699999999992
0
LINE
8
BLACK
6
CONTINUOUS
10
22.6043289999999999
20
-111.4809699999999992
11
22.523222999999998
21
-111.4267770000000013
0
LINE
8
BLACK
6
CONTINUOUS
10
22.523222999999998
20
-111.4267770000000013
11
22.4690300000000001
21
-111.3456709999999958
0
LINE
8
BLACK
6
CONTINUOUS
10
22.4690300000000001
20
-111.3456709999999958
11
22.4499999999999993
21
-111.25
0
LINE
8
BLACK
6
CONTINUOUS
10
22.4499999999999993
20
-111.25
11
22.4499999999999993
21
-110.75
0
LINE
8
BLACK
6
CONTINUOUS
10
22.4499999999999993
20
-110.75
11
22.4690300000000001
21
-110.6543289999999899
0
LINE
8
BLACK
6
CONTINUOUS
10
22.4690300000000001
20
-110.6543289999999899
11
22.523222999999998
21
-110.5732229999999987
0
LINE
8
BLACK
6
CONTINUOUS
10
22.523222999999998
20
-110.5732229999999987
11
22.6043289999999999
21
-110.5190300000000008
0
LINE
8
BLACK
6
CONTINUOUS
10
22.6043289999999999
20
-110.5190300000000008
11
22.6999999999999993
21
-110.5
0
LINE
8
BLACK
6
CONTINUOUS
10
22.6999999999999993
20
-110.5
11
27.6999999999999993
21
-110.5
0
LINE
8
BLACK
6
CONTINUOUS
10
27.6999999999999993
20
-110.5
11
27.7956709999999987
21
-110.5190300000000008
0
LINE
8
BLACK
6
CONTINUOUS
10
27.7956709999999987
20
-108.5190300000000008
11
27.876776999999997
21
-108.5732229999999987
0
LINE
8
BLACK
6
CONTINUOUS
10
27.876776999999997
20
-108.5732229999999987
11
27.9309699999999985
21
-108.6543289999999899
0
LINE
8
BLACK
6
CONTINUOUS
10
27.9309699999999985
20
-108.6543289999999899
11
27.9499999999999993
21
-108.75
0
LINE
8
BLACK
6
CONTINUOUS
10
27.9499999999999993
20
-108.75
11
27.9499999999999993
21
-109.25
0
LINE
8
BLACK
6
CONTINUOUS
10
27.9499999999999993
20
-109.25
11
27.9309699999999985
21
-109.3456709999999958
0
LINE
8
BLACK
6
CONTINUOUS
10
27.9309699999999985
20
-109.3456709999999958
11
27.876776999999997
21
-109.4267770000000013
0
LINE
8
BLACK
6
CONTINUOUS
10
27.876776999999997
20
-109.4267770000000013
11
27.7956709999999987
21
-109.4809699999999992
0
LINE
8
BLACK
6
CONTINUOUS
10
27.7956709999999987
20
-109.4809699999999992
11
27.6999999999999993
21
-109.5
0
LINE
8
BLACK
6
CONTINUOUS
10
27.6999999999999993
20
-109.5
11
22.6999999999999993
21
-109.5
0
LINE
8
BLACK
6
CONTINUOUS
10
22.6999999999999993
20
-109.5
11
22.6043289999999999
21
-109.4809699999999992
0
LINE
8
BLACK
6
CONTINUOUS
10
22.6043289999999999
20
-109.4809699999999992
11
22.523222999999998
21
-109.4267770000000013
0
LINE
8
BLACK
6
CONTINUOUS
10
22.523222999999998
20
-109.4267770000000013
11
22.4690300000000001
21
-109.3456709999999958
0
LINE
8
BLACK
6
CONTINUOUS
10
22.4690300000000001
20
-109.3456709999999958
11
22.4499999999999993
21
-109.25
0
LINE
8
BLACK
6
CONTINUOUS
10
22.4499999999999993
20
-109.25
11
22.4499999999999993
21
-108.75
0
LINE
8
BLACK
6
CONTINUOUS
10
22.4499999999999993
20
-108.75
11
22.4690300000000001
21
-108.6543289999999899
0
LINE
8
BLACK
6
CONTINUOUS
10
22.4690300000000001
20
-108.6543289999999899
11
22.523222999999998
21
-108.5732229999999987
0
LINE
8
BLACK
6
CONTINUOUS
10
22.523222999999998
20
-108.5732229999999987
11
22.6043289999999999
21
-108.5190300000000008
0
LINE
8
BLACK
6
CONTINUOUS
10
22.6043289999999999
20
-108.5190300000000008
11
22.6999999999999993
21
-108.5
0
LINE
8
BLACK
6
CONTINUOUS
10
22.6999999999999993
20
-108.5
11
27.6999999999999993
21
-108.5
0
LINE
8
BLACK
6
CONTINUOUS
10
27.6999999999999993
20
-108.5
11
27.7956709999999987
21
-108.5190300000000008
0
LINE
8
BLACK
6
CONTINUOUS
10
24.2956709999999987
20
-105.8190299999999979
11
24.3767770000000006
21
-105.8732229999999959
0
LINE
8
BLACK
6
CONTINUOUS
10
24.3767770000000006
20
-105.8732229999999959
11
24.4309699999999985
21
-105.9543290000000013
0
LINE
8
BLACK
6
CONTINUOUS
10
24.4309699999999985
20
-105.9543290000000013
11
24.4499999999999993
21
-106.0499999999999972
0
LINE
8
BLACK
6
CONTINUOUS
10
24.4499999999999993
20
-106.0499999999999972
11
24.4499999999999993
21
-107.1499999999999915
0
LINE
8
BLACK
6
CONTINUOUS
10
24.4499999999999993
20
-107.1499999999999915
11
24.4309699999999985
21
-107.2456710000000015
0
LINE
8
BLACK
6
CONTINUOUS
10
24.4309699999999985
20
-107.2456710000000015
11
24.3767770000000006
21
-107.3267769999999928
0
LINE
8
BLACK
6
CONTINUOUS
10
24.3767770000000006
20
-107.3267769999999928
11
24.2956709999999987
21
-107.3809699999999907
0
LINE
8
BLACK
6
CONTINUOUS
10
24.2956709999999987
20
-107.3809699999999907
11
24.1999999999999993
21
-107.3999999999999915
0
LINE
8
BLACK
6
CONTINUOUS
10
24.1999999999999993
20
-107.3999999999999915
11
21.6999999999999993
21
-107.3999999999999915
0
LINE
8
BLACK
6
CONTINUOUS
10
21.6999999999999993
20
-107.3999999999999915
11
21.6043289999999999
21
-107.3809699999999907
0
LINE
8
BLACK
6
CONTINUOUS
10
21.6043289999999999
20
-107.3809699999999907
11
21.523222999999998
21
-107.3267769999999928
0
LINE
8
BLACK
6
CONTINUOUS
10
21.523222999999998
20
-107.3267769999999928
11
21.4690300000000001
21
-107.2456710000000015
0
LINE
8
BLACK
6
CONTINUOUS
10
21.4690300000000001
20
-107.2456710000000015
11
21.4499999999999993
21
-107.1499999999999915
0
LINE
8
BLACK
6
CONTINUOUS
10
21.4499999999999993
20
-107.1499999999999915
11
21.4499999999999993
21
-106.0499999999999972
0
LINE
8
BLACK
6
CONTINUOUS
10
21.4499999999999993
20
-106.0499999999999972
11
21.4690300000000001
21
-105.9543290000000013
0
LINE
8
BLACK
6
CONTINUOUS
10
21.4690300000000001
20
-105.9543290000000013
11
21.523222999999998
21
-105.8732229999999959
0
LINE
8
BLACK
6
CONTINUOUS
10
21.523222999999998
20
-105.8732229999999959
11
21.6043289999999999
21
-105.8190299999999979
0
LINE
8
BLACK
6
CONTINUOUS
10
21.6043289999999999
20
-105.8190299999999979
11
21.6999999999999993
21
-105.7999999999999972
0
LINE
8
BLACK
6
CONTINUOUS
10
21.6999999999999993
20
-105.7999999999999972
11
24.1999999999999993
21
-105.7999999999999972
0
LINE
8
BLACK
6
CONTINUOUS
10
24.1999999999999993
20
-105.7999999999999972
11
24.2956709999999987
21
-105.8190299999999979
0
LINE
8
BLACK
6
CONTINUOUS
10
124.3456709999999958
20
-33.2190299999999965
11
124.4267770000000013
21
-33.2732230000000015
0
LINE
8
BLACK
6
CONTINUOUS
10
124.4267770000000013
20
-33.2732230000000015
11
124.4809699999999992
21
-33.3543289999999999
0
LINE
8
BLACK
6
CONTINUOUS
10
124.4809699999999992
20
-33.3543289999999999
11
124.5
21
-33.4499999999999957
0
LINE
8
BLACK
6
CONTINUOUS
10
124.5
20
-33.4499999999999957
11
124.5
21
-38.4499999999999957
0
LINE
8
BLACK
6
CONTINUOUS
10
124.5
20
-38.4499999999999957
11
124.4809699999999992
21
-38.5456709999999987
0
LINE
8
BLACK
6
CONTINUOUS
10
124.4809699999999992
20
-38.5456709999999987
11
124.4267770000000013
21
-38.626776999999997
0
LINE
8
BLACK
6
CONTINUOUS
10
124.4267770000000013
20
-38.626776999999997
11
124.3456709999999958
21
-38.680969999999995
0
LINE
8
BLACK
6
CONTINUOUS
10
124.3456709999999958
20
-38.680969999999995
11
124.25
21
-38.6999999999999957
0
LINE
8
BLACK
6
CONTINUOUS
10
124.25
20
-38.6999999999999957
11
123.75
21
-38.6999999999999957
0
LINE
8
BLACK
6
CONTINUOUS
10
123.75
20
-38.6999999999999957
11
123.6543289999999899
21
-38.680969999999995
0
LINE
8
BLACK
6
CONTINUOUS
10
123.6543289999999899
20
-38.680969999999995
11
123.5732229999999987
21
-38.626776999999997
0
LINE
8
BLACK
6
CONTINUOUS
10
123.5732229999999987
20
-38.626776999999997
11
123.5190300000000008
21
-38.5456709999999987
0
LINE
8
BLACK
6
CONTINUOUS
10
123.5190300000000008
20
-38.5456709999999987
11
123.5
21
-38.4499999999999957
0
LINE
8
BLACK
6
CONTINUOUS
10
123.5
20
-38.4499999999999957
11
123.5
21
-33.4499999999999957
0
LINE
8
BLACK
6
CONTINUOUS
10
123.5
20
-33.4499999999999957
11
123.5190300000000008
21
-33.3543289999999999
0
LINE
8
BLACK
6
CONTINUOUS
10
123.5190300000000008
20
-33.3543289999999999
11
123.5732229999999987
21
-33.2732230000000015
0
LINE
8
BLACK
6
CONTINUOUS
10
123.5732229999999987
20
-33.2732230000000015
11
123.6543289999999899
21
-33.2190299999999965
0
LINE
8
BLACK
6
CONTINUOUS
10
123.6543289999999899
20
-33.2190299999999965
11
123.75
21
-33.1999999999999957
0
LINE
8
BLACK
6
CONTINUOUS
10
123.75
20
-33.1999999999999957
11
124.25
21
-33.1999999999999957
0
LINE
8
BLACK
6
CONTINUOUS
10
124.25
20
-33.1999999999999957
11
124.3456709999999958
21
-33.2190299999999965
0
LINE
8
BLACK
6
CONTINUOUS
10
126.3456709999999958
20
-33.2190299999999965
11
126.4267770000000013
21
-33.2732230000000015
0
LINE
8
BLACK
6
CONTINUOUS
10
126.4267770000000013
20
-33.2732230000000015
11
126.4809699999999992
21
-33.3543289999999999
0
LINE
8
BLACK
6
CONTINUOUS
10
126.4809699999999992
20
-33.3543289999999999
11
126.5
21
-33.4499999999999957
0
LINE
8
BLACK
6
CONTINUOUS
10
126.5
20
-33.4499999999999957
11
126.5
21
-38.4499999999999957
0
LINE
8
BLACK
6
CONTINUOUS
10
126.5
20
-38.4499999999999957
11
126.4809699999999992
21
-38.5456709999999987
0
LINE
8
BLACK
6
CONTINUOUS
10
126.4809699999999992
20
-38.5456709999999987
11
126.4267770000000013
21
-38.626776999999997
0
LINE
8
BLACK
6
CONTINUOUS
10
126.4267770000000013
20
-38.626776999999997
11
126.3456709999999958
21
-38.680969999999995
0
LINE
8
BLACK
6
CONTINUOUS
10
126.3456709999999958
20
-38.680969999999995
11
126.25
21
-38.6999999999999957
0
LINE
8
BLACK
6
CONTINUOUS
10
126.25
20
-38.6999999999999957
11
125.75
21
-38.6999999999999957
0
LINE
8
BLACK
6
CONTINUOUS
10
125.75
20
-38.6999999999999957
11
125.6543289999999899
21
-38.680969999999995
0
LINE
8
BLACK
6
CONTINUOUS
10
125.6543289999999899
20
-38.680969999999995
11
125.5732229999999987
21
-38.626776999999997
0
LINE
8
BLACK
6
CONTINUOUS
10
125.5732229999999987
20
-38.626776999999997
11
125.5190300000000008
21
-38.5456709999999987
0
LINE
8
BLACK
6
CONTINUOUS
10
125.5190300000000008
20
-38.5456709999999987
11
125.5
21
-38.4499999999999957
0
LINE
8
BLACK
6
CONTINUOUS
10
125.5
20
-38.4499999999999957
11
125.5
21
-33.4499999999999957
0
LINE
8
BLACK
6
CONTINUOUS
10
125.5
20
-33.4499999999999957
11
125.5190300000000008
21
-33.3543289999999999
0
LINE
8
BLACK
6
CONTINUOUS
10
125.5190300000000008
20
-33.3543289999999999
11
125.5732229999999987
21
-33.2732230000000015
0
LINE
8
BLACK
6
CONTINUOUS
10
125.5732229999999987
20
-33.2732230000000015
11
125.6543289999999899
21
-33.2190299999999965
0
LINE
8
BLACK
6
CONTINUOUS
10
125.6543289999999899
20
-33.2190299999999965
11
125.75
21
-33.1999999999999957
0
LINE
8
BLACK
6
CONTINUOUS
10
125.75
20
-33.1999999999999957
11
126.25
21
-33.1999999999999957
0
LINE
8
BLACK
6
CONTINUOUS
10
126.25
20
-33.1999999999999957
11
126.3456709999999958
21
-33.2190299999999965
0
LINE
8
BLACK
6
CONTINUOUS
10
128.3456709999999816
20
-33.2190299999999965
11
128.4267769999999871
21
-33.2732230000000015
0
LINE
8
BLACK
6
CONTINUOUS
10
128.4267769999999871
20
-33.2732230000000015
11
128.480969999999985
21
-33.3543289999999999
0
LINE
8
BLACK
6
CONTINUOUS
10
128.480969999999985
20
-33.3543289999999999
11
128.5
21
-33.4499999999999957
0
LINE
8
BLACK
6
CONTINUOUS
10
128.5
20
-33.4499999999999957
11
128.5
21
-38.4499999999999957
0
LINE
8
BLACK
6
CONTINUOUS
10
128.5
20
-38.4499999999999957
11
128.480969999999985
21
-38.5456709999999987
0
LINE
8
BLACK
6
CONTINUOUS
10
128.480969999999985
20
-38.5456709999999987
11
128.4267769999999871
21
-38.626776999999997
0
LINE
8
BLACK
6
CONTINUOUS
10
128.4267769999999871
20
-38.626776999999997
11
128.3456709999999816
21
-38.680969999999995
0
LINE
8
BLACK
6
CONTINUOUS
10
128.3456709999999816
20
-38.680969999999995
11
128.25
21
-38.6999999999999957
0
LINE
8
BLACK
6
CONTINUOUS
10
128.25
20
-38.6999999999999957
11
127.75
21
-38.6999999999999957
0
LINE
8
BLACK
6
CONTINUOUS
10
127.75
20
-38.6999999999999957
11
127.6543289999999899
21
-38.680969999999995
0
LINE
8
BLACK
6
CONTINUOUS
10
127.6543289999999899
20
-38.680969999999995
11
127.5732229999999987
21
-38.626776999999997
0
LINE
8
BLACK
6
CONTINUOUS
10
127.5732229999999987
20
-38.626776999999997
11
127.5190300000000008
21
-38.5456709999999987
0
LINE
8
BLACK
6
CONTINUOUS
10
127.5190300000000008
20
-38.5456709999999987
11
127.5
21
-38.4499999999999957
0
LINE
8
BLACK
6
CONTINUOUS
10
127.5
20
-38.4499999999999957
11
127.5
21
-33.4499999999999957
0
LINE
8
BLACK
6
CONTINUOUS
10
127.5
20
-33.4499999999999957
11
127.5190300000000008
21
-33.3543289999999999
0
LINE
8
BLACK
6
CONTINUOUS
10
127.5190300000000008
20
-33.3543289999999999
11
127.5732229999999987
21
-33.2732230000000015
0
LINE
8
BLACK
6
CONTINUOUS
10
127.5732229999999987
20
-33.2732230000000015
11
127.6543289999999899
21
-33.2190299999999965
0
LINE
8
BLACK
6
CONTINUOUS
10
127.6543289999999899
20
-33.2190299999999965
11
127.75
21
-33.1999999999999957
0
LINE
8
BLACK
6
CONTINUOUS
10
127.75
20
-33.1999999999999957
11
128.25
21
-33.1999999999999957
0
LINE
8
BLACK
6
CONTINUOUS
10
128.25
20
-33.1999999999999957
11
128.3456709999999816
21
-33.2190299999999965
0
LINE
8
BLACK
6
CONTINUOUS
10
130.3456709999999816
20
-33.2190299999999965
11
130.4267769999999871
21
-33.2732230000000015
0
LINE
8
BLACK
6
CONTINUOUS
10
130.4267769999999871
20
-33.2732230000000015
11
130.480969999999985
21
-33.3543289999999999
0
LINE
8
BLACK
6
CONTINUOUS
10
130.480969999999985
20
-33.3543289999999999
11
130.5
21
-33.4499999999999957
0
LINE
8
BLACK
6
CONTINUOUS
10
130.5
20
-33.4499999999999957
11
130.5
21
-38.4499999999999957
0
LINE
8
BLACK
6
CONTINUOUS
10
130.5
20
-38.4499999999999957
11
130.480969999999985
21
-38.5456709999999987
0
LINE
8
BLACK
6
CONTINUOUS
10
130.480969999999985
20
-38.5456709999999987
11
130.4267769999999871
21
-38.626776999999997
0
LINE
8
BLACK
6
CONTINUOUS
10
130.4267769999999871
20
-38.626776999999997
11
130.3456709999999816
21
-38.680969999999995
0
LINE
8
BLACK
6
CONTINUOUS
10
130.3456709999999816
20
-38.680969999999995
11
130.25
21
-38.6999999999999957
0
LINE
8
BLACK
6
CONTINUOUS
10
130.25
20
-38.6999999999999957
11
129.75
21
-38.6999999999999957
0
LINE
8
BLACK
6
CONTINUOUS
10
129.75
20
-38.6999999999999957
11
129.6543289999999899
21
-38.680969999999995
0
LINE
8
BLACK
6
CONTINUOUS
10
129.6543289999999899
20
-38.680969999999995
11
129.5732229999999845
21
-38.626776999999997
0
LINE
8
BLACK
6
CONTINUOUS
10
129.5732229999999845
20
-38.626776999999997
11
129.5190299999999866
21
-38.5456709999999987
0
LINE
8
BLACK
6
CONTINUOUS
10
129.5190299999999866
20
-38.5456709999999987
11
129.5
21
-38.4499999999999957
0
LINE
8
BLACK
6
CONTINUOUS
10
129.5
20
-38.4499999999999957
11
129.5
21
-33.4499999999999957
0
LINE
8
BLACK
6
CONTINUOUS
10
129.5
20
-33.4499999999999957
11
129.5190299999999866
21
-33.3543289999999999
0
LINE
8
BLACK
6
CONTINUOUS
10
129.5190299999999866
20
-33.3543289999999999
11
129.5732229999999845
21
-33.2732230000000015
0
LINE
8
BLACK
6
CONTINUOUS
10
129.5732229999999845
20
-33.2732230000000015
11
129.6543289999999899
21
-33.2190299999999965
0
LINE
8
BLACK
6
CONTINUOUS
10
129.6543289999999899
20
-33.2190299999999965
11
129.75
21
-33.1999999999999957
0
LINE
8
BLACK
6
CONTINUOUS
10
129.75
20
-33.1999999999999957
11
130.25
21
-33.1999999999999957
0
LINE
8
BLACK
6
CONTINUOUS
10
130.25
20
-33.1999999999999957
11
130.3456709999999816
21
-33.2190299999999965
0
LINE
8
BLACK
6
CONTINUOUS
10
105.3456709999999958
20
-32.7690300000000008
11
105.4267770000000013
21
-32.8232229999999987
0
LINE
8
BLACK
6
CONTINUOUS
10
105.4267770000000013
20
-32.8232229999999987
11
105.4809699999999992
21
-32.9043289999999971
0
LINE
8
BLACK
6
CONTINUOUS
10
105.4809699999999992
20
-32.9043289999999971
11
105.5
21
-33.
0
LINE
8
BLACK
6
CONTINUOUS
10
105.5
20
-33.
11
105.5
21
-38.
0
LINE
8
BLACK
6
CONTINUOUS
10
105.5
20
-38.
11
105.4809699999999992
21
-38.0956709999999958
0
LINE
8
BLACK
6
CONTINUOUS
10
105.4809699999999992
20
-38.0956709999999958
11
105.4267770000000013
21
-38.1767770000000013
0
LINE
8
BLACK
6
CONTINUOUS
10
105.4267770000000013
20
-38.1767770000000013
11
105.3456709999999958
21
-38.2309699999999992
0
LINE
8
BLACK
6
CONTINUOUS
10
105.3456709999999958
20
-38.2309699999999992
11
105.25
21
-38.25
0
LINE
8
BLACK
6
CONTINUOUS
10
105.25
20
-38.25
11
104.75
21
-38.25
0
LINE
8
BLACK
6
CONTINUOUS
10
104.75
20
-38.25
11
104.6543289999999899
21
-38.2309699999999992
0
LINE
8
BLACK
6
CONTINUOUS
10
104.6543289999999899
20
-38.2309699999999992
11
104.5732229999999987
21
-38.1767770000000013
0
LINE
8
BLACK
6
CONTINUOUS
10
104.5732229999999987
20
-38.1767770000000013
11
104.5190300000000008
21
-38.0956709999999958
0
LINE
8
BLACK
6
CONTINUOUS
10
104.5190300000000008
20
-38.0956709999999958
11
104.5
21
-38.
0
LINE
8
BLACK
6
CONTINUOUS
10
104.5
20
-38.
11
104.5
21
-33.
0
LINE
8
BLACK
6
CONTINUOUS
10
104.5
20
-33.
11
104.5190300000000008
21
-32.9043289999999971
0
LINE
8
BLACK
6
CONTINUOUS
10
104.5190300000000008
20
-32.9043289999999971
11
104.5732229999999987
21
-32.8232229999999987
0
LINE
8
BLACK
6
CONTINUOUS
10
104.5732229999999987
20
-32.8232229999999987
11
104.6543289999999899
21
-32.7690300000000008
0
LINE
8
BLACK
6
CONTINUOUS
10
104.6543289999999899
20
-32.7690300000000008
11
104.75
21
-32.75
0
LINE
8
BLACK
6
CONTINUOUS
10
104.75
20
-32.75
11
105.25
21
-32.75
0
LINE
8
BLACK
6
CONTINUOUS
10
105.25
20
-32.75
11
105.3456709999999958
21
-32.7690300000000008
0
LINE
8
BLACK
6
CONTINUOUS
10
107.3456709999999958
20
-32.7690300000000008
11
107.4267770000000013
21
-32.8232229999999987
0
LINE
8
BLACK
6
CONTINUOUS
10
107.4267770000000013
20
-32.8232229999999987
11
107.4809699999999992
21
-32.9043289999999971
0
LINE
8
BLACK
6
CONTINUOUS
10
107.4809699999999992
20
-32.9043289999999971
11
107.5
21
-33.
0
LINE
8
BLACK
6
CONTINUOUS
10
107.5
20
-33.
11
107.5
21
-38.
0
LINE
8
BLACK
6
CONTINUOUS
10
107.5
20
-38.
11
107.4809699999999992
21
-38.0956709999999958
0
LINE
8
BLACK
6
CONTINUOUS
10
107.4809699999999992
20
-38.0956709999999958
11
107.4267770000000013
21
-38.1767770000000013
0
LINE
8
BLACK
6
CONTINUOUS
10
107.4267770000000013
20
-38.1767770000000013
11
107.3456709999999958
21
-38.2309699999999992
0
LINE
8
BLACK
6
CONTINUOUS
10
107.3456709999999958
20
-38.2309699999999992
11
107.25
21
-38.25
0
LINE
8
BLACK
6
CONTINUOUS
10
107.25
20
-38.25
11
106.75
21
-38.25
0
LINE
8
BLACK
6
CONTINUOUS
10
106.75
20
-38.25
11
106.6543289999999899
21
-38.2309699999999992
0
LINE
8
BLACK
6
CONTINUOUS
10
106.6543289999999899
20
-38.2309699999999992
11
106.5732229999999987
21
-38.1767770000000013
0
LINE
8
BLACK
6
CONTINUOUS
10
106.5732229999999987
20
-38.1767770000000013
11
106.5190300000000008
21
-38.0956709999999958
0
LINE
8
BLACK
6
CONTINUOUS
10
106.5190300000000008
20
-38.0956709999999958
11
106.5
21
-38.
0
LINE
8
BLACK
6
CONTINUOUS
10
106.5
20
-38.
11
106.5
21
-33.
0
LINE
8
BLACK
6
CONTINUOUS
10
106.5
20
-33.
11
106.5190300000000008
21
-32.9043289999999971
0
LINE
8
BLACK
6
CONTINUOUS
10
106.5190300000000008
20
-32.9043289999999971
11
106.5732229999999987
21
-32.8232229999999987
0
LINE
8
BLACK
6
CONTINUOUS
10
106.5732229999999987
20
-32.8232229999999987
11
106.6543289999999899
21
-32.7690300000000008
0
LINE
8
BLACK
6
CONTINUOUS
10
106.6543289999999899
20
-32.7690300000000008
11
106.75
21
-32.75
0
LINE
8
BLACK
6
CONTINUOUS
10
106.75
20
-32.75
11
107.25
21
-32.75
0
LINE
8
BLACK
6
CONTINUOUS
10
107.25
20
-32.75
11
107.3456709999999958
21
-32.7690300000000008
0
LINE
8
BLACK
6
CONTINUOUS
10
109.3456709999999958
20
-32.7690300000000008
11
109.4267770000000013
21
-32.8232229999999987
0
LINE
8
BLACK
6
CONTINUOUS
10
109.4267770000000013
20
-32.8232229999999987
11
109.4809699999999992
21
-32.9043289999999971
0
LINE
8
BLACK
6
CONTINUOUS
10
109.4809699999999992
20
-32.9043289999999971
11
109.5
21
-33.
0
LINE
8
BLACK
6
CONTINUOUS
10
109.5
20
-33.
11
109.5
21
-38.
0
LINE
8
BLACK
6
CONTINUOUS
10
109.5
20
-38.
11
109.4809699999999992
21
-38.0956709999999958
0
LINE
8
BLACK
6
CONTINUOUS
10
109.4809699999999992
20
-38.0956709999999958
11
109.4267770000000013
21
-38.1767770000000013
0
LINE
8
BLACK
6
CONTINUOUS
10
109.4267770000000013
20
-38.1767770000000013
11
109.3456709999999958
21
-38.2309699999999992
0
LINE
8
BLACK
6
CONTINUOUS
10
109.3456709999999958
20
-38.2309699999999992
11
109.25
21
-38.25
0
LINE
8
BLACK
6
CONTINUOUS
10
109.25
20
-38.25
11
108.75
21
-38.25
0
LINE
8
BLACK
6
CONTINUOUS
10
108.75
20
-38.25
11
108.6543289999999899
21
-38.2309699999999992
0
LINE
8
BLACK
6
CONTINUOUS
10
108.6543289999999899
20
-38.2309699999999992
11
108.5732229999999987
21
-38.1767770000000013
0
LINE
8
BLACK
6
CONTINUOUS
10
108.5732229999999987
20
-38.1767770000000013
11
108.5190300000000008
21
-38.0956709999999958
0
LINE
8
BLACK
6
CONTINUOUS
10
108.5190300000000008
20
-38.0956709999999958
11
108.5
21
-38.
0
LINE
8
BLACK
6
CONTINUOUS
10
108.5
20
-38.
11
108.5
21
-33.
0
LINE
8
BLACK
6
CONTINUOUS
10
108.5
20
-33.
11
108.5190300000000008
21
-32.9043289999999971
0
LINE
8
BLACK
6
CONTINUOUS
10
108.5190300000000008
20
-32.9043289999999971
11
108.5732229999999987
21
-32.8232229999999987
0
LINE
8
BLACK
6
CONTINUOUS
10
108.5732229999999987
20
-32.8232229999999987
11
108.6543289999999899
21
-32.7690300000000008
0
LINE
8
BLACK
6
CONTINUOUS
10
108.6543289999999899
20
-32.7690300000000008
11
108.75
21
-32.75
0
LINE
8
BLACK
6
CONTINUOUS
10
108.75
20
-32.75
11
109.25
21
-32.75
0
LINE
8
BLACK
6
CONTINUOUS
10
109.25
20
-32.75
11
109.3456709999999958
21
-32.7690300000000008
0
LINE
8
BLACK
6
CONTINUOUS
10
122.2456710000000015
20
-32.2190299999999965
11
122.3267769999999928
21
-32.2732230000000015
0
LINE
8
BLACK
6
CONTINUOUS
10
122.3267769999999928
20
-32.2732230000000015
11
122.3809699999999907
21
-32.3543289999999999
0
LINE
8
BLACK
6
CONTINUOUS
10
122.3809699999999907
20
-32.3543289999999999
11
122.3999999999999915
21
-32.4499999999999957
0
LINE
8
BLACK
6
CONTINUOUS
10
122.3999999999999915
20
-32.4499999999999957
11
122.3999999999999915
21
-34.9499999999999957
0
LINE
8
BLACK
6
CONTINUOUS
10
122.3999999999999915
20
-34.9499999999999957
11
122.3809699999999907
21
-35.0456709999999987
0
LINE
8
BLACK
6
CONTINUOUS
10
122.3809699999999907
20
-35.0456709999999987
11
122.3267769999999928
21
-35.126776999999997
0
LINE
8
BLACK
6
CONTINUOUS
10
122.3267769999999928
20
-35.126776999999997
11
122.2456710000000015
21
-35.180969999999995
0
LINE
8
BLACK
6
CONTINUOUS
10
122.2456710000000015
20
-35.180969999999995
11
122.1499999999999915
21
-35.1999999999999957
0
LINE
8
BLACK
6
CONTINUOUS
10
122.1499999999999915
20
-35.1999999999999957
11
121.0499999999999972
21
-35.1999999999999957
0
LINE
8
BLACK
6
CONTINUOUS
10
121.0499999999999972
20
-35.1999999999999957
11
120.9543290000000013
21
-35.180969999999995
0
LINE
8
BLACK
6
CONTINUOUS
10
120.9543290000000013
20
-35.180969999999995
11
120.8732229999999959
21
-35.126776999999997
0
LINE
8
BLACK
6
CONTINUOUS
10
120.8732229999999959
20
-35.126776999999997
11
120.8190299999999979
21
-35.0456709999999987
0
LINE
8
BLACK
6
CONTINUOUS
10
120.8190299999999979
20
-35.0456709999999987
11
120.7999999999999972
21
-34.9499999999999957
0
LINE
8
BLACK
6
CONTINUOUS
10
120.7999999999999972
20
-34.9499999999999957
11
120.7999999999999972
21
-32.4499999999999957
0
LINE
8
BLACK
6
CONTINUOUS
10
120.7999999999999972
20
-32.4499999999999957
11
120.8190299999999979
21
-32.3543289999999999
0
LINE
8
BLACK
6
CONTINUOUS
10
120.8190299999999979
20
-32.3543289999999999
11
120.8732229999999959
21
-32.2732230000000015
0
LINE
8
BLACK
6
CONTINUOUS
10
120.8732229999999959
20
-32.2732230000000015
11
120.9543290000000013
21
-32.2190299999999965
0
LINE
8
BLACK
6
CONTINUOUS
10
120.9543290000000013
20
-32.2190299999999965
11
121.0499999999999972
21
-32.1999999999999957
0
LINE
8
BLACK
6
CONTINUOUS
10
121.0499999999999972
20
-32.1999999999999957
11
122.1499999999999915
21
-32.1999999999999957
0
LINE
8
BLACK
6
CONTINUOUS
10
122.1499999999999915
20
-32.1999999999999957
11
122.2456710000000015
21
-32.2190299999999965
0
LINE
8
BLACK
6
CONTINUOUS
10
133.0456709999999987
20
-32.2190299999999965
11
133.1267770000000041
21
-32.2732230000000015
0
LINE
8
BLACK
6
CONTINUOUS
10
133.1267770000000041
20
-32.2732230000000015
11
133.1809700000000021
21
-32.3543289999999999
0
LINE
8
BLACK
6
CONTINUOUS
10
133.1809700000000021
20
-32.3543289999999999
11
133.1999999999999886
21
-32.4499999999999957
0
LINE
8
BLACK
6
CONTINUOUS
10
133.1999999999999886
20
-32.4499999999999957
11
133.1999999999999886
21
-34.9499999999999957
0
LINE
8
BLACK
6
CONTINUOUS
10
133.1999999999999886
20
-34.9499999999999957
11
133.1809700000000021
21
-35.0456709999999987
0
LINE
8
BLACK
6
CONTINUOUS
10
133.1809700000000021
20
-35.0456709999999987
11
133.1267770000000041
21
-35.126776999999997
0
LINE
8
BLACK
6
CONTINUOUS
10
133.1267770000000041
20
-35.126776999999997
11
133.0456709999999987
21
-35.180969999999995
0
LINE
8
BLACK
6
CONTINUOUS
10
133.0456709999999987
20
-35.180969999999995
11
132.9499999999999886
21
-35.1999999999999957
0
LINE
8
BLACK
6
CONTINUOUS
10
132.9499999999999886
20
-35.1999999999999957
11
131.8499999999999943
21
-35.1999999999999957
0
LINE
8
BLACK
6
CONTINUOUS
10
131.8499999999999943
20
-35.1999999999999957
11
131.7543289999999843
21
-35.180969999999995
0
LINE
8
BLACK
6
CONTINUOUS
10
131.7543289999999843
20
-35.180969999999995
11
131.6732230000000072
21
-35.126776999999997
0
LINE
8
BLACK
6
CONTINUOUS
10
131.6732230000000072
20
-35.126776999999997
11
131.6190299999999809
21
-35.0456709999999987
0
LINE
8
BLACK
6
CONTINUOUS
10
131.6190299999999809
20
-35.0456709999999987
11
131.5999999999999943
21
-34.9499999999999957
0
LINE
8
BLACK
6
CONTINUOUS
10
131.5999999999999943
20
-34.9499999999999957
11
131.5999999999999943
21
-32.4499999999999957
0
LINE
8
BLACK
6
CONTINUOUS
10
131.5999999999999943
20
-32.4499999999999957
11
131.6190299999999809
21
-32.3543289999999999
0
LINE
8
BLACK
6
CONTINUOUS
10
131.6190299999999809
20
-32.3543289999999999
11
131.6732230000000072
21
-32.2732230000000015
0
LINE
8
BLACK
6
CONTINUOUS
10
131.6732230000000072
20
-32.2732230000000015
11
131.7543289999999843
21
-32.2190299999999965
0
LINE
8
BLACK
6
CONTINUOUS
10
131.7543289999999843
20
-32.2190299999999965
11
131.8499999999999943
21
-32.1999999999999957
0
LINE
8
BLACK
6
CONTINUOUS
10
131.8499999999999943
20
-32.1999999999999957
11
132.9499999999999886
21
-32.1999999999999957
0
LINE
8
BLACK
6
CONTINUOUS
10
132.9499999999999886
20
-32.1999999999999957
11
133.0456709999999987
21
-32.2190299999999965
0
LINE
8
BLACK
6
CONTINUOUS
10
103.2456710000000015
20
-31.7690299999999972
11
103.3267769999999928
21
-31.8232229999999987
0
LINE
8
BLACK
6
CONTINUOUS
10
103.3267769999999928
20
-31.8232229999999987
11
103.3809699999999907
21
-31.9043289999999971
0
LINE
8
BLACK
6
CONTINUOUS
10
103.3809699999999907
20
-31.9043289999999971
11
103.3999999999999915
21
-32.
0
LINE
8
BLACK
6
CONTINUOUS
10
103.3999999999999915
20
-32.
11
103.3999999999999915
21
-34.5
0
LINE
8
BLACK
6
CONTINUOUS
10
103.3999999999999915
20
-34.5
11
103.3809699999999907
21
-34.5956709999999958
0
LINE
8
BLACK
6
CONTINUOUS
10
103.3809699999999907
20
-34.5956709999999958
11
103.3267769999999928
21
-34.6767770000000013
0
LINE
8
BLACK
6
CONTINUOUS
10
103.3267769999999928
20
-34.6767770000000013
11
103.2456710000000015
21
-34.7309699999999992
0
LINE
8
BLACK
6
CONTINUOUS
10
103.2456710000000015
20
-34.7309699999999992
11
103.1499999999999915
21
-34.75
0
LINE
8
BLACK
6
CONTINUOUS
10
103.1499999999999915
20
-34.75
11
102.0499999999999972
21
-34.75
0
LINE
8
BLACK
6
CONTINUOUS
10
102.0499999999999972
20
-34.75
11
101.9543290000000013
21
-34.7309699999999992
0
LINE
8
BLACK
6
CONTINUOUS
10
101.9543290000000013
20
-34.7309699999999992
11
101.8732229999999959
21
-34.6767770000000013
0
LINE
8
BLACK
6
CONTINUOUS
10
101.8732229999999959
20
-34.6767770000000013
11
101.8190299999999979
21
-34.5956709999999958
0
LINE
8
BLACK
6
CONTINUOUS
10
101.8190299999999979
20
-34.5956709999999958
11
101.7999999999999972
21
-34.5
0
LINE
8
BLACK
6
CONTINUOUS
10
101.7999999999999972
20
-34.5
11
101.7999999999999972
21
-32.
0
LINE
8
BLACK
6
CONTINUOUS
10
101.7999999999999972
20
-32.
11
101.8190299999999979
21
-31.9043289999999971
0
LINE
8
BLACK
6
CONTINUOUS
10
101.8190299999999979
20
-31.9043289999999971
11
101.8732229999999959
21
-31.8232229999999987
0
LINE
8
BLACK
6
CONTINUOUS
10
101.8732229999999959
20
-31.8232229999999987
11
101.9543290000000013
21
-31.7690299999999972
0
LINE
8
BLACK
6
CONTINUOUS
10
101.9543290000000013
20
-31.7690299999999972
11
102.0499999999999972
21
-31.75
0
LINE
8
BLACK
6
CONTINUOUS
10
102.0499999999999972
20
-31.75
11
103.1499999999999915
21
-31.75
0
LINE
8
BLACK
6
CONTINUOUS
10
103.1499999999999915
20
-31.75
11
103.2456710000000015
21
-31.7690299999999972
0
LINE
8
BLACK
6
CONTINUOUS
10
112.0456709999999987
20
-31.7690299999999972
11
112.1267769999999899
21
-31.8232229999999987
0
LINE
8
BLACK
6
CONTINUOUS
10
112.1267769999999899
20
-31.8232229999999987
11
112.1809699999999879
21
-31.9043289999999971
0
LINE
8
BLACK
6
CONTINUOUS
10
112.1809699999999879
20
-31.9043289999999971
11
112.1999999999999886
21
-32.
0
LINE
8
BLACK
6
CONTINUOUS
10
112.1999999999999886
20
-32.
11
112.1999999999999886
21
-34.5
0
LINE
8
BLACK
6
CONTINUOUS
10
112.1999999999999886
20
-34.5
11
112.1809699999999879
21
-34.5956709999999958
0
LINE
8
BLACK
6
CONTINUOUS
10
112.1809699999999879
20
-34.5956709999999958
11
112.1267769999999899
21
-34.6767770000000013
0
LINE
8
BLACK
6
CONTINUOUS
10
112.1267769999999899
20
-34.6767770000000013
11
112.0456709999999987
21
-34.7309699999999992
0
LINE
8
BLACK
6
CONTINUOUS
10
112.0456709999999987
20
-34.7309699999999992
11
111.9499999999999886
21
-34.75
0
LINE
8
BLACK
6
CONTINUOUS
10
111.9499999999999886
20
-34.75
11
110.8499999999999943
21
-34.75
0
LINE
8
BLACK
6
CONTINUOUS
10
110.8499999999999943
20
-34.75
11
110.7543289999999985
21
-34.7309699999999992
0
LINE
8
BLACK
6
CONTINUOUS
10
110.7543289999999985
20
-34.7309699999999992
11
110.673222999999993
21
-34.6767770000000013
0
LINE
8
BLACK
6
CONTINUOUS
10
110.673222999999993
20
-34.6767770000000013
11
110.6190299999999951
21
-34.5956709999999958
0
LINE
8
BLACK
6
CONTINUOUS
10
110.6190299999999951
20
-34.5956709999999958
11
110.5999999999999943
21
-34.5
0
LINE
8
BLACK
6
CONTINUOUS
10
110.5999999999999943
20
-34.5
11
110.5999999999999943
21
-32.
0
LINE
8
BLACK
6
CONTINUOUS
10
110.5999999999999943
20
-32.
11
110.6190299999999951
21
-31.9043289999999971
0
LINE
8
BLACK
6
CONTINUOUS
10
110.6190299999999951
20
-31.9043289999999971
11
110.673222999999993
21
-31.8232229999999987
0
LINE
8
BLACK
6
CONTINUOUS
10
110.673222999999993
20
-31.8232229999999987
11
110.7543289999999985
21
-31.7690299999999972
0
LINE
8
BLACK
6
CONTINUOUS
10
110.7543289999999985
20
-31.7690299999999972
11
110.8499999999999943
21
-31.75
0
LINE
8
BLACK
6
CONTINUOUS
10
110.8499999999999943
20
-31.75
11
111.9499999999999886
21
-31.75
0
LINE
8
BLACK
6
CONTINUOUS
10
111.9499999999999886
20
-31.75
11
112.0456709999999987
21
-31.7690299999999972
  0
ENDSEC
  0
EOF
