<?xml version="1.0" standalone="no"?>
 <!DOCTYPE svg PUBLIC "-//W3C//DTD SVG 1.1//EN" 
 "http://www.w3.org/Graphics/SVG/1.1/DTD/svg11.dtd"> 
<svg
  xmlns:svg="http://www.w3.org/2000/svg"
  xmlns="http://www.w3.org/2000/svg"
  xmlns:xlink="http://www.w3.org/1999/xlink"
  version="1.1"
  width="297.0022mm" height="210.0072mm" viewBox="0.0000 0.0000 297.0022 210.0072">
<title>SVG Image created as pedalboard-display-B_Fab.svg date 2024/10/06 15:35:01 </title>
  <desc>Image generated by PCBNEW </desc>
<g style="fill:#000000; fill-opacity:1.0000;stroke:#000000; stroke-opacity:1.0000;
stroke-linecap:round; stroke-linejoin:round;"
 transform="translate(0 0) scale(1 1)">
</g>
<g style="fill:none; 
stroke:#000000; stroke-width:0.1500; stroke-opacity:1; 
stroke-linecap:round; stroke-linejoin:round;">
<text x="227.5242" y="76.3728"
textLength="2.2500" font-size="1.3333" lengthAdjust="spacingAndGlyphs"
text-anchor="middle" opacity="0" stroke-opacity="0">U1</text>
<g class="stroked-text"><desc>U1</desc>
<path d="M226.7623 75.3276
L226.7623 76.1371
" />
<path d="M226.7623 76.1371
L226.8099 76.2324
" />
<path d="M226.8099 76.2324
L226.8575 76.2800
" />
<path d="M226.8575 76.2800
L226.9528 76.3276
" />
<path d="M226.9528 76.3276
L227.1432 76.3276
" />
<path d="M227.1432 76.3276
L227.2385 76.2800
" />
<path d="M227.2385 76.2800
L227.2861 76.2324
" />
<path d="M227.2861 76.2324
L227.3337 76.1371
" />
<path d="M227.3337 76.1371
L227.3337 75.3276
" />
<path d="M228.3337 76.3276
L227.7623 76.3276
" />
<path d="M228.0480 76.3276
L228.0480 75.3276
" />
<path d="M228.0480 75.3276
L227.9528 75.4705
" />
<path d="M227.9528 75.4705
L227.8575 75.5657
" />
<path d="M227.8575 75.5657
L227.7623 75.6133
" />
</g><text x="152.5242" y="76.3728"
textLength="2.2500" font-size="1.3333" lengthAdjust="spacingAndGlyphs"
text-anchor="middle" opacity="0" stroke-opacity="0">U2</text>
<g class="stroked-text"><desc>U2</desc>
<path d="M151.7623 75.3276
L151.7623 76.1371
" />
<path d="M151.7623 76.1371
L151.8099 76.2324
" />
<path d="M151.8099 76.2324
L151.8575 76.2800
" />
<path d="M151.8575 76.2800
L151.9528 76.3276
" />
<path d="M151.9528 76.3276
L152.1432 76.3276
" />
<path d="M152.1432 76.3276
L152.2385 76.2800
" />
<path d="M152.2385 76.2800
L152.2861 76.2324
" />
<path d="M152.2861 76.2324
L152.3337 76.1371
" />
<path d="M152.3337 76.1371
L152.3337 75.3276
" />
<path d="M152.7623 75.4229
L152.8099 75.3752
" />
<path d="M152.8099 75.3752
L152.9052 75.3276
" />
<path d="M152.9052 75.3276
L153.1432 75.3276
" />
<path d="M153.1432 75.3276
L153.2385 75.3752
" />
<path d="M153.2385 75.3752
L153.2861 75.4229
" />
<path d="M153.2861 75.4229
L153.3337 75.5181
" />
<path d="M153.3337 75.5181
L153.3337 75.6133
" />
<path d="M153.3337 75.6133
L153.2861 75.7562
" />
<path d="M153.2861 75.7562
L152.7147 76.3276
" />
<path d="M152.7147 76.3276
L153.3337 76.3276
" />
</g><text x="153.0022" y="72.9500"
textLength="4.0119" font-size="1.3333" lengthAdjust="spacingAndGlyphs"
text-anchor="middle" opacity="0" stroke-opacity="0">OLED</text>
<g class="stroked-text"><desc>OLED</desc>
<path d="M151.5498 71.9048
L151.7403 71.9048
" />
<path d="M151.7403 71.9048
L151.8355 71.9524
" />
<path d="M151.8355 71.9524
L151.9308 72.0477
" />
<path d="M151.9308 72.0477
L151.9784 72.2382
" />
<path d="M151.9784 72.2382
L151.9784 72.5715
" />
<path d="M151.9784 72.5715
L151.9308 72.7620
" />
<path d="M151.9308 72.7620
L151.8355 72.8572
" />
<path d="M151.8355 72.8572
L151.7403 72.9048
" />
<path d="M151.7403 72.9048
L151.5498 72.9048
" />
<path d="M151.5498 72.9048
L151.4546 72.8572
" />
<path d="M151.4546 72.8572
L151.3593 72.7620
" />
<path d="M151.3593 72.7620
L151.3117 72.5715
" />
<path d="M151.3117 72.5715
L151.3117 72.2382
" />
<path d="M151.3117 72.2382
L151.3593 72.0477
" />
<path d="M151.3593 72.0477
L151.4546 71.9524
" />
<path d="M151.4546 71.9524
L151.5498 71.9048
" />
<path d="M152.8832 72.9048
L152.4070 72.9048
" />
<path d="M152.4070 72.9048
L152.4070 71.9048
" />
<path d="M153.2165 72.3810
L153.5498 72.3810
" />
<path d="M153.6927 72.9048
L153.2165 72.9048
" />
<path d="M153.2165 72.9048
L153.2165 71.9048
" />
<path d="M153.2165 71.9048
L153.6927 71.9048
" />
<path d="M154.1212 72.9048
L154.1212 71.9048
" />
<path d="M154.1212 71.9048
L154.3593 71.9048
" />
<path d="M154.3593 71.9048
L154.5022 71.9524
" />
<path d="M154.5022 71.9524
L154.5974 72.0477
" />
<path d="M154.5974 72.0477
L154.6451 72.1429
" />
<path d="M154.6451 72.1429
L154.6927 72.3334
" />
<path d="M154.6927 72.3334
L154.6927 72.4762
" />
<path d="M154.6927 72.4762
L154.6451 72.6667
" />
<path d="M154.6451 72.6667
L154.5974 72.7620
" />
<path d="M154.5974 72.7620
L154.5022 72.8572
" />
<path d="M154.5022 72.8572
L154.3593 72.9048
" />
<path d="M154.3593 72.9048
L154.1212 72.9048
" />
</g><text x="153.0022" y="67.5000"
textLength="1.9643" font-size="1.3333" lengthAdjust="spacingAndGlyphs"
text-anchor="middle" opacity="0" stroke-opacity="0">J3</text>
<g class="stroked-text"><desc>J3</desc>
<path d="M152.6689 66.4548
L152.6689 67.1691
" />
<path d="M152.6689 67.1691
L152.6212 67.3120
" />
<path d="M152.6212 67.3120
L152.5260 67.4072
" />
<path d="M152.5260 67.4072
L152.3832 67.4548
" />
<path d="M152.3832 67.4548
L152.2879 67.4548
" />
<path d="M153.0498 66.4548
L153.6689 66.4548
" />
<path d="M153.6689 66.4548
L153.3355 66.8358
" />
<path d="M153.3355 66.8358
L153.4784 66.8358
" />
<path d="M153.4784 66.8358
L153.5736 66.8834
" />
<path d="M153.5736 66.8834
L153.6212 66.9310
" />
<path d="M153.6212 66.9310
L153.6689 67.0262
" />
<path d="M153.6689 67.0262
L153.6689 67.2643
" />
<path d="M153.6689 67.2643
L153.6212 67.3596
" />
<path d="M153.6212 67.3596
L153.5736 67.4072
" />
<path d="M153.5736 67.4072
L153.4784 67.4548
" />
<path d="M153.4784 67.4548
L153.1927 67.4548
" />
<path d="M153.1927 67.4548
L153.0974 67.4072
" />
<path d="M153.0974 67.4072
L153.0498 67.3596
" />
</g><g transform="rotate(90.000000 267.8522 111.0000)">
<text x="267.8522" y="111.5000"
textLength="7.0595" font-size="1.3333" lengthAdjust="spacingAndGlyphs"
text-anchor="middle" opacity="0" stroke-opacity="0">LED-OUT</text>
</g>
<g class="stroked-text"><desc>LED-OUT</desc>
<path d="M267.3974 108.3095
L267.3974 107.8333
" />
<path d="M267.3974 107.8333
L268.3974 107.8333
" />
<path d="M267.9212 108.6429
L267.9212 108.9762
" />
<path d="M267.3974 109.1190
L267.3974 108.6429
" />
<path d="M267.3974 108.6429
L268.3974 108.6429
" />
<path d="M268.3974 108.6429
L268.3974 109.1190
" />
<path d="M267.3974 109.5476
L268.3974 109.5476
" />
<path d="M268.3974 109.5476
L268.3974 109.7857
" />
<path d="M268.3974 109.7857
L268.3498 109.9286
" />
<path d="M268.3498 109.9286
L268.2545 110.0238
" />
<path d="M268.2545 110.0238
L268.1593 110.0714
" />
<path d="M268.1593 110.0714
L267.9688 110.1190
" />
<path d="M267.9688 110.1190
L267.8260 110.1190
" />
<path d="M267.8260 110.1190
L267.6355 110.0714
" />
<path d="M267.6355 110.0714
L267.5402 110.0238
" />
<path d="M267.5402 110.0238
L267.4450 109.9286
" />
<path d="M267.4450 109.9286
L267.3974 109.7857
" />
<path d="M267.3974 109.7857
L267.3974 109.5476
" />
<path d="M267.7783 110.5476
L267.7783 111.3095
" />
<path d="M268.3974 111.9762
L268.3974 112.1667
" />
<path d="M268.3974 112.1667
L268.3498 112.2619
" />
<path d="M268.3498 112.2619
L268.2545 112.3571
" />
<path d="M268.2545 112.3571
L268.0640 112.4048
" />
<path d="M268.0640 112.4048
L267.7307 112.4048
" />
<path d="M267.7307 112.4048
L267.5402 112.3571
" />
<path d="M267.5402 112.3571
L267.4450 112.2619
" />
<path d="M267.4450 112.2619
L267.3974 112.1667
" />
<path d="M267.3974 112.1667
L267.3974 111.9762
" />
<path d="M267.3974 111.9762
L267.4450 111.8810
" />
<path d="M267.4450 111.8810
L267.5402 111.7857
" />
<path d="M267.5402 111.7857
L267.7307 111.7381
" />
<path d="M267.7307 111.7381
L268.0640 111.7381
" />
<path d="M268.0640 111.7381
L268.2545 111.7857
" />
<path d="M268.2545 111.7857
L268.3498 111.8810
" />
<path d="M268.3498 111.8810
L268.3974 111.9762
" />
<path d="M268.3974 112.8333
L267.5879 112.8333
" />
<path d="M267.5879 112.8333
L267.4926 112.8810
" />
<path d="M267.4926 112.8810
L267.4450 112.9286
" />
<path d="M267.4450 112.9286
L267.3974 113.0238
" />
<path d="M267.3974 113.0238
L267.3974 113.2143
" />
<path d="M267.3974 113.2143
L267.4450 113.3095
" />
<path d="M267.4450 113.3095
L267.4926 113.3571
" />
<path d="M267.4926 113.3571
L267.5879 113.4048
" />
<path d="M267.5879 113.4048
L268.3974 113.4048
" />
<path d="M268.3974 113.7381
L268.3974 114.3095
" />
<path d="M267.3974 114.0238
L268.3974 114.0238
" />
</g><g transform="rotate(90.000000 273.3022 111.0000)">
<text x="273.3022" y="111.5000"
textLength="1.9643" font-size="1.3333" lengthAdjust="spacingAndGlyphs"
text-anchor="middle" opacity="0" stroke-opacity="0">J2</text>
</g>
<g class="stroked-text"><desc>J2</desc>
<path d="M273.8474 110.6667
L273.1331 110.6667
" />
<path d="M273.1331 110.6667
L272.9902 110.6190
" />
<path d="M272.9902 110.6190
L272.8950 110.5238
" />
<path d="M272.8950 110.5238
L272.8474 110.3810
" />
<path d="M272.8474 110.3810
L272.8474 110.2857
" />
<path d="M273.7521 111.0952
L273.7998 111.1429
" />
<path d="M273.7998 111.1429
L273.8474 111.2381
" />
<path d="M273.8474 111.2381
L273.8474 111.4762
" />
<path d="M273.8474 111.4762
L273.7998 111.5714
" />
<path d="M273.7998 111.5714
L273.7521 111.6190
" />
<path d="M273.7521 111.6190
L273.6569 111.6667
" />
<path d="M273.6569 111.6667
L273.5617 111.6667
" />
<path d="M273.5617 111.6667
L273.4188 111.6190
" />
<path d="M273.4188 111.6190
L272.8474 111.0476
" />
<path d="M272.8474 111.0476
L272.8474 111.6667
" />
</g><text x="190.0022" y="39.9500"
textLength="5.7262" font-size="1.3333" lengthAdjust="spacingAndGlyphs"
text-anchor="middle" opacity="0" stroke-opacity="0">LED-IN</text>
<g class="stroked-text"><desc>LED-IN</desc>
<path d="M187.9784 39.9048
L187.5022 39.9048
" />
<path d="M187.5022 39.9048
L187.5022 38.9048
" />
<path d="M188.3117 39.3810
L188.6451 39.3810
" />
<path d="M188.7879 39.9048
L188.3117 39.9048
" />
<path d="M188.3117 39.9048
L188.3117 38.9048
" />
<path d="M188.3117 38.9048
L188.7879 38.9048
" />
<path d="M189.2165 39.9048
L189.2165 38.9048
" />
<path d="M189.2165 38.9048
L189.4546 38.9048
" />
<path d="M189.4546 38.9048
L189.5974 38.9524
" />
<path d="M189.5974 38.9524
L189.6927 39.0477
" />
<path d="M189.6927 39.0477
L189.7403 39.1429
" />
<path d="M189.7403 39.1429
L189.7879 39.3334
" />
<path d="M189.7879 39.3334
L189.7879 39.4762
" />
<path d="M189.7879 39.4762
L189.7403 39.6667
" />
<path d="M189.7403 39.6667
L189.6927 39.7620
" />
<path d="M189.6927 39.7620
L189.5974 39.8572
" />
<path d="M189.5974 39.8572
L189.4546 39.9048
" />
<path d="M189.4546 39.9048
L189.2165 39.9048
" />
<path d="M190.2165 39.5239
L190.9784 39.5239
" />
<path d="M191.4546 39.9048
L191.4546 38.9048
" />
<path d="M191.9308 39.9048
L191.9308 38.9048
" />
<path d="M191.9308 38.9048
L192.5022 39.9048
" />
<path d="M192.5022 39.9048
L192.5022 38.9048
" />
</g><text x="190.0022" y="34.5000"
textLength="1.9643" font-size="1.3333" lengthAdjust="spacingAndGlyphs"
text-anchor="middle" opacity="0" stroke-opacity="0">J1</text>
<g class="stroked-text"><desc>J1</desc>
<path d="M189.6689 33.4548
L189.6689 34.1691
" />
<path d="M189.6689 34.1691
L189.6212 34.3120
" />
<path d="M189.6212 34.3120
L189.5260 34.4072
" />
<path d="M189.5260 34.4072
L189.3832 34.4548
" />
<path d="M189.3832 34.4548
L189.2879 34.4548
" />
<path d="M190.6689 34.4548
L190.0974 34.4548
" />
<path d="M190.3832 34.4548
L190.3832 33.4548
" />
<path d="M190.3832 33.4548
L190.2879 33.5977
" />
<path d="M190.2879 33.5977
L190.1927 33.6929
" />
<path d="M190.1927 33.6929
L190.0974 33.7405
" />
</g></g>
<g style="fill:none; 
stroke:#000000; stroke-width:0.1000; stroke-opacity:1; 
stroke-linecap:round; stroke-linejoin:round;">
<path d="M232.6042 74.6028
L232.6042 77.1428
" />
<path d="M232.6042 77.1428
L223.0792 77.1428
" />
<path d="M223.0792 77.1428
L222.4442 76.5078
" />
<path d="M222.4442 74.6028
L232.6042 74.6028
" />
<path d="M222.4442 76.5078
L222.4442 74.6028
" />
<path d="M157.6042 74.6028
L157.6042 77.1428
" />
<path d="M157.6042 77.1428
L148.0792 77.1428
" />
<path d="M148.0792 77.1428
L147.4442 76.5078
" />
<path d="M147.4442 74.6028
L157.6042 74.6028
" />
<path d="M147.4442 76.5078
L147.4442 74.6028
" />
<path d="M158.9772 63.7500
L158.9772 68.7500
" />
<path d="M158.9772 63.7500
L147.0272 63.7500
" />
<path d="M158.9772 68.7500
L147.0272 68.7500
" />
<path d="M156.2522 65.2500
L156.2522 65.7500
" />
<path d="M156.2522 65.7500
L155.7522 65.7500
" />
<path d="M155.7522 65.2500
L156.2522 65.2500
" />
<path d="M155.7522 65.7500
L155.7522 65.2500
" />
<path d="M154.2522 65.2500
L154.2522 65.7500
" />
<path d="M154.2522 65.7500
L153.7522 65.7500
" />
<path d="M153.7522 65.2500
L154.2522 65.2500
" />
<path d="M153.7522 65.7500
L153.7522 65.2500
" />
<path d="M152.2522 65.2500
L152.2522 65.7500
" />
<path d="M152.2522 65.7500
L151.7522 65.7500
" />
<path d="M151.7522 65.2500
L152.2522 65.2500
" />
<path d="M151.7522 65.7500
L151.7522 65.2500
" />
<path d="M150.5022 68.7500
L150.0022 68.0429
" />
<path d="M150.2522 65.2500
L150.2522 65.7500
" />
<path d="M150.2522 65.7500
L149.7522 65.7500
" />
<path d="M150.0022 68.0429
L149.5022 68.7500
" />
<path d="M149.7522 65.2500
L150.2522 65.2500
" />
<path d="M149.7522 65.7500
L149.7522 65.2500
" />
<path d="M147.0272 63.7500
L147.0272 68.7500
" />
<path d="M276.5522 106.0250
L271.5522 106.0250
" />
<path d="M276.5522 115.9750
L276.5522 106.0250
" />
<path d="M276.5522 115.9750
L271.5522 115.9750
" />
<path d="M275.0522 108.7500
L275.0522 109.2500
" />
<path d="M275.0522 109.2500
L274.5522 109.2500
" />
<path d="M275.0522 110.7500
L275.0522 111.2500
" />
<path d="M275.0522 111.2500
L274.5522 111.2500
" />
<path d="M275.0522 112.7500
L275.0522 113.2500
" />
<path d="M275.0522 113.2500
L274.5522 113.2500
" />
<path d="M274.5522 108.7500
L275.0522 108.7500
" />
<path d="M274.5522 109.2500
L274.5522 108.7500
" />
<path d="M274.5522 110.7500
L275.0522 110.7500
" />
<path d="M274.5522 111.2500
L274.5522 110.7500
" />
<path d="M274.5522 112.7500
L275.0522 112.7500
" />
<path d="M274.5522 113.2500
L274.5522 112.7500
" />
<path d="M272.2593 109.0000
L271.5522 108.5000
" />
<path d="M271.5522 109.5000
L272.2593 109.0000
" />
<path d="M271.5522 115.9750
L271.5522 106.0250
" />
<path d="M194.9772 30.7500
L194.9772 35.7500
" />
<path d="M194.9772 30.7500
L185.0272 30.7500
" />
<path d="M194.9772 35.7500
L185.0272 35.7500
" />
<path d="M192.2522 32.2500
L192.2522 32.7500
" />
<path d="M192.2522 32.7500
L191.7522 32.7500
" />
<path d="M191.7522 32.2500
L192.2522 32.2500
" />
<path d="M191.7522 32.7500
L191.7522 32.2500
" />
<path d="M190.2522 32.2500
L190.2522 32.7500
" />
<path d="M190.2522 32.7500
L189.7522 32.7500
" />
<path d="M189.7522 32.2500
L190.2522 32.2500
" />
<path d="M189.7522 32.7500
L189.7522 32.2500
" />
<path d="M188.5022 35.7500
L188.0022 35.0429
" />
<path d="M188.2522 32.2500
L188.2522 32.7500
" />
<path d="M188.2522 32.7500
L187.7522 32.7500
" />
<path d="M188.0022 35.0429
L187.5022 35.7500
" />
<path d="M187.7522 32.2500
L188.2522 32.2500
" />
<path d="M187.7522 32.7500
L187.7522 32.2500
" />
<path d="M185.0272 30.7500
L185.0272 35.7500
" />
</g> 
</svg>
