<?xml version='1.0' encoding='ASCII' standalone='yes'?>
<svg xmlns="http://www.w3.org/2000/svg" version="1.1" width="297.0022mm" height="210.0072mm" viewBox="0.0000 0.0000 297.0022 210.0072">
            <title>Picture generated by PcbDraw </title>
            <desc>Picture generated by PcbDraw</desc>
        <defs><clipPath id="cut-off"><path d="M127.2000 124.2000 L127.2000 78.2000 M 112.0 136.0 L 189.0 136.0 A 1 1 0 0 0 190.0 135.0 L 190.0 133.0 A 3 3 0 0 1 193.0 130.0 A 1 1 0 0 0 194.0 129.0 L 194.0 32.0 A 1 1 0 0 0 193.0 31.0 A 3 3 0 0 1 190.0 28.0 L 190.0 26.0 A 1 1 0 0 0 189.0 25.0 L 124.2 25.0 L 112.0 25.0 A 5 5 0 0 1 102.0 25.0 L 94.2 25.0 L 25.0 25.0 A 1 1 0 0 0 24.0 26.0 L 24.0 28.0 A 3 3 0 0 1 21.0 31.0 A 1 1 0 0 0 20.0 32.0 L 20.0 129.0 A 1 1 0 0 0 21.0 130.0 A 3 3 0 0 1 24.0 133.0 L 24.0 135.0 A 1 1 0 0 0 25.0 136.0 L 112.0 136.0  M 86.8 78.2 L 86.8 124.2 L 52.2 124.2 L 52.2 78.2 L 86.8 78.2  M 161.8 78.2 L 161.8 124.2 L 127.2 124.2 L 127.2 78.2 L 161.8 78.2 " style="fill-rule: evenodd;"/></clipPath><mask id="pads-mask-silkscreen"><rect x="19.925" y="24.95" width="174.15" height="111.125" fill="white"/><g style="fill:#000000; fill-opacity:1.0000; stroke:none;">
<circle cx="170.0000" cy="133.0000" r="1.2500"/> 
</g>
<g style="fill:#000000; fill-opacity:1.0000; stroke:none;">
<circle cx="170.0000" cy="28.0000" r="1.2500"/> 
</g>
<g style="fill:#000000; fill-opacity:1.0000; stroke:none;">
<circle cx="54.5000" cy="75.2000" r="1.0500"/> 
</g>
<g style="fill:#000000; fill-opacity:1.0000; stroke:none;">
<circle cx="54.5000" cy="127.2000" r="1.0500"/> 
</g>
<g style="fill:#000000; fill-opacity:1.0000; stroke:none;">
<circle cx="84.5000" cy="75.2000" r="1.0500"/> 
</g>
<g style="fill:#000000; fill-opacity:1.0000; stroke:none;">
<circle cx="84.5000" cy="127.2000" r="1.0500"/> 
<path style="fill:#000000; fill-opacity:1.0000; stroke:none;fill-rule:evenodd;" d="M 72.4380,74.0728 74.1380,74.0728 74.1380,77.6728 72.4380,77.6728 Z"/> 
</g>
<g style="fill:none;  stroke:#000000; stroke-width:1.7000; stroke-opacity:1;  stroke-linecap:round; stroke-linejoin:round;">
<path d="M70.7480 74.9728 L70.7480 76.7728 "/>
<path d="M68.2080 74.9728 L68.2080 76.7728 "/>
<path d="M65.6680 74.9728 L65.6680 76.7728 "/>
</g>
<g style="fill:#000000; fill-opacity:1.0000; stroke:none;">
<circle cx="44.0000" cy="133.0000" r="1.2500"/> 
</g>
<g style="fill:#000000; fill-opacity:1.0000; stroke:none;">
<circle cx="107.0000" cy="103.0000" r="1.2500"/> 
</g>
<g style="fill:#000000; fill-opacity:1.0000; stroke:none;">
<circle cx="44.0000" cy="28.0000" r="1.2500"/> 
</g>
<g style="fill:#000000; fill-opacity:1.0000; stroke:none;">
<circle cx="129.5000" cy="75.2000" r="1.0500"/> 
</g>
<g style="fill:#000000; fill-opacity:1.0000; stroke:none;">
<circle cx="129.5000" cy="127.2000" r="1.0500"/> 
</g>
<g style="fill:#000000; fill-opacity:1.0000; stroke:none;">
<circle cx="159.5000" cy="75.2000" r="1.0500"/> 
</g>
<g style="fill:#000000; fill-opacity:1.0000; stroke:none;">
<circle cx="159.5000" cy="127.2000" r="1.0500"/> 
<path style="fill:#000000; fill-opacity:1.0000; stroke:none;fill-rule:evenodd;" d="M 147.4380,74.0728 149.1380,74.0728 149.1380,77.6728 147.4380,77.6728 Z"/> 
</g>
<g style="fill:none;  stroke:#000000; stroke-width:1.7000; stroke-opacity:1;  stroke-linecap:round; stroke-linejoin:round;">
<path d="M145.7480 74.9728 L145.7480 76.7728 "/>
<path d="M143.2080 74.9728 L143.2080 76.7728 "/>
<path d="M140.6680 74.9728 L140.6680 76.7728 "/>
<path style="fill:#000000; fill-opacity:1.0000; stroke:none;fill-rule:evenodd;" d="M 147.5000,71.0000 147.4810,71.0957 147.4268,71.1768 147.3457,71.2310 147.2500,71.2500 146.7500,71.2500 146.6543,71.2310 146.5732,71.1768 146.5190,71.0957 146.5000,71.0000 146.5000,66.0000 146.5190,65.9043 146.5732,65.8232 146.6543,65.7690 146.7500,65.7500 147.2500,65.7500 147.3457,65.7690 147.4268,65.8232 147.4810,65.9043 147.5000,66.0000 Z"/> 
<path style="fill:#000000; fill-opacity:1.0000; stroke:none;fill-rule:evenodd;" d="M 145.5000,71.0000 145.4810,71.0957 145.4268,71.1768 145.3457,71.2310 145.2500,71.2500 144.7500,71.2500 144.6543,71.2310 144.5732,71.1768 144.5190,71.0957 144.5000,71.0000 144.5000,66.0000 144.5190,65.9043 144.5732,65.8232 144.6543,65.7690 144.7500,65.7500 145.2500,65.7500 145.3457,65.7690 145.4268,65.8232 145.4810,65.9043 145.5000,66.0000 Z"/> 
<path style="fill:#000000; fill-opacity:1.0000; stroke:none;fill-rule:evenodd;" d="M 143.5000,71.0000 143.4810,71.0957 143.4268,71.1768 143.3457,71.2310 143.2500,71.2500 142.7500,71.2500 142.6543,71.2310 142.5732,71.1768 142.5190,71.0957 142.5000,71.0000 142.5000,66.0000 142.5190,65.9043 142.5732,65.8232 142.6543,65.7690 142.7500,65.7500 143.2500,65.7500 143.3457,65.7690 143.4268,65.8232 143.4810,65.9043 143.5000,66.0000 Z"/> 
<path style="fill:#000000; fill-opacity:1.0000; stroke:none;fill-rule:evenodd;" d="M 141.5000,71.0000 141.4810,71.0957 141.4268,71.1768 141.3457,71.2310 141.2500,71.2500 140.7500,71.2500 140.6543,71.2310 140.5732,71.1768 140.5190,71.0957 140.5000,71.0000 140.5000,66.0000 140.5190,65.9043 140.5732,65.8232 140.6543,65.7690 140.7500,65.7500 141.2500,65.7500 141.3457,65.7690 141.4268,65.8232 141.4810,65.9043 141.5000,66.0000 Z"/> 
<path style="fill:#000000; fill-opacity:1.0000; stroke:none;fill-rule:evenodd;" d="M 150.2000,67.5000 150.1810,67.5957 150.1268,67.6768 150.0457,67.7310 149.9500,67.7500 148.8500,67.7500 148.7543,67.7310 148.6732,67.6768 148.6190,67.5957 148.6000,67.5000 148.6000,65.0000 148.6190,64.9043 148.6732,64.8232 148.7543,64.7690 148.8500,64.7500 149.9500,64.7500 150.0457,64.7690 150.1268,64.8232 150.1810,64.9043 150.2000,65.0000 Z"/> 
<path style="fill:#000000; fill-opacity:1.0000; stroke:none;fill-rule:evenodd;" d="M 139.4000,67.5000 139.3810,67.5957 139.3268,67.6768 139.2457,67.7310 139.1500,67.7500 138.0500,67.7500 137.9543,67.7310 137.8732,67.6768 137.8190,67.5957 137.8000,67.5000 137.8000,65.0000 137.8190,64.9043 137.8732,64.8232 137.9543,64.7690 138.0500,64.7500 139.1500,64.7500 139.2457,64.7690 139.3268,64.8232 139.3810,64.9043 139.4000,65.0000 Z"/> 
<path style="fill:#000000; fill-opacity:1.0000; stroke:none;fill-rule:evenodd;" d="M 27.7000,108.5000 27.7957,108.5190 27.8768,108.5732 27.9310,108.6543 27.9500,108.7500 27.9500,109.2500 27.9310,109.3457 27.8768,109.4268 27.7957,109.4810 27.7000,109.5000 22.7000,109.5000 22.6043,109.4810 22.5232,109.4268 22.4690,109.3457 22.4500,109.2500 22.4500,108.7500 22.4690,108.6543 22.5232,108.5732 22.6043,108.5190 22.7000,108.5000 Z"/> 
<path style="fill:#000000; fill-opacity:1.0000; stroke:none;fill-rule:evenodd;" d="M 27.7000,110.5000 27.7957,110.5190 27.8768,110.5732 27.9310,110.6543 27.9500,110.7500 27.9500,111.2500 27.9310,111.3457 27.8768,111.4268 27.7957,111.4810 27.7000,111.5000 22.7000,111.5000 22.6043,111.4810 22.5232,111.4268 22.4690,111.3457 22.4500,111.2500 22.4500,110.7500 22.4690,110.6543 22.5232,110.5732 22.6043,110.5190 22.7000,110.5000 Z"/> 
<path style="fill:#000000; fill-opacity:1.0000; stroke:none;fill-rule:evenodd;" d="M 27.7000,112.5000 27.7957,112.5190 27.8768,112.5732 27.9310,112.6543 27.9500,112.7500 27.9500,113.2500 27.9310,113.3457 27.8768,113.4268 27.7957,113.4810 27.7000,113.5000 22.7000,113.5000 22.6043,113.4810 22.5232,113.4268 22.4690,113.3457 22.4500,113.2500 22.4500,112.7500 22.4690,112.6543 22.5232,112.5732 22.6043,112.5190 22.7000,112.5000 Z"/> 
<path style="fill:#000000; fill-opacity:1.0000; stroke:none;fill-rule:evenodd;" d="M 24.2000,105.8000 24.2957,105.8190 24.3768,105.8732 24.4310,105.9543 24.4500,106.0500 24.4500,107.1500 24.4310,107.2457 24.3768,107.3268 24.2957,107.3810 24.2000,107.4000 21.7000,107.4000 21.6043,107.3810 21.5232,107.3268 21.4690,107.2457 21.4500,107.1500 21.4500,106.0500 21.4690,105.9543 21.5232,105.8732 21.6043,105.8190 21.7000,105.8000 Z"/> 
<path style="fill:#000000; fill-opacity:1.0000; stroke:none;fill-rule:evenodd;" d="M 24.2000,114.6000 24.2957,114.6190 24.3768,114.6732 24.4310,114.7543 24.4500,114.8500 24.4500,115.9500 24.4310,116.0457 24.3768,116.1268 24.2957,116.1810 24.2000,116.2000 21.7000,116.2000 21.6043,116.1810 21.5232,116.1268 21.4690,116.0457 21.4500,115.9500 21.4500,114.8500 21.4690,114.7543 21.5232,114.6732 21.6043,114.6190 21.7000,114.6000 Z"/> 
<path style="fill:#000000; fill-opacity:1.0000; stroke:none;fill-rule:evenodd;" d="M 109.5000,38.0000 109.4810,38.0957 109.4268,38.1768 109.3457,38.2310 109.2500,38.2500 108.7500,38.2500 108.6543,38.2310 108.5732,38.1768 108.5190,38.0957 108.5000,38.0000 108.5000,33.0000 108.5190,32.9043 108.5732,32.8232 108.6543,32.7690 108.7500,32.7500 109.2500,32.7500 109.3457,32.7690 109.4268,32.8232 109.4810,32.9043 109.5000,33.0000 Z"/> 
<path style="fill:#000000; fill-opacity:1.0000; stroke:none;fill-rule:evenodd;" d="M 107.5000,38.0000 107.4810,38.0957 107.4268,38.1768 107.3457,38.2310 107.2500,38.2500 106.7500,38.2500 106.6543,38.2310 106.5732,38.1768 106.5190,38.0957 106.5000,38.0000 106.5000,33.0000 106.5190,32.9043 106.5732,32.8232 106.6543,32.7690 106.7500,32.7500 107.2500,32.7500 107.3457,32.7690 107.4268,32.8232 107.4810,32.9043 107.5000,33.0000 Z"/> 
<path style="fill:#000000; fill-opacity:1.0000; stroke:none;fill-rule:evenodd;" d="M 105.5000,38.0000 105.4810,38.0957 105.4268,38.1768 105.3457,38.2310 105.2500,38.2500 104.7500,38.2500 104.6543,38.2310 104.5732,38.1768 104.5190,38.0957 104.5000,38.0000 104.5000,33.0000 104.5190,32.9043 104.5732,32.8232 104.6543,32.7690 104.7500,32.7500 105.2500,32.7500 105.3457,32.7690 105.4268,32.8232 105.4810,32.9043 105.5000,33.0000 Z"/> 
<path style="fill:#000000; fill-opacity:1.0000; stroke:none;fill-rule:evenodd;" d="M 112.2000,34.5000 112.1810,34.5957 112.1268,34.6768 112.0457,34.7310 111.9500,34.7500 110.8500,34.7500 110.7543,34.7310 110.6732,34.6768 110.6190,34.5957 110.6000,34.5000 110.6000,32.0000 110.6190,31.9043 110.6732,31.8232 110.7543,31.7690 110.8500,31.7500 111.9500,31.7500 112.0457,31.7690 112.1268,31.8232 112.1810,31.9043 112.2000,32.0000 Z"/> 
<path style="fill:#000000; fill-opacity:1.0000; stroke:none;fill-rule:evenodd;" d="M 103.4000,34.5000 103.3810,34.5957 103.3268,34.6768 103.2457,34.7310 103.1500,34.7500 102.0500,34.7500 101.9543,34.7310 101.8732,34.6768 101.8190,34.5957 101.8000,34.5000 101.8000,32.0000 101.8190,31.9043 101.8732,31.8232 101.9543,31.7690 102.0500,31.7500 103.1500,31.7500 103.2457,31.7690 103.3268,31.8232 103.3810,31.9043 103.4000,32.0000 Z"/> 
</g> 
</mask></defs><g transform="scale(-1,1) translate(-297.0022,0)" id="boardContainer"><g id="substrate" clip-path="url(#cut-off)" mask="url(#pads-mask-silkscreen)"><g id="substrate-board" style="fill:#143324; fill-opacity:0.25098039215686274; stroke:#143324; stroke-width:0;"><path d="M127.2000 124.2000 L127.2000 78.2000 M 112.0 136.0 L 189.0 136.0 A 1 1 0 0 0 190.0 135.0 L 190.0 133.0 A 3 3 0 0 1 193.0 130.0 A 1 1 0 0 0 194.0 129.0 L 194.0 32.0 A 1 1 0 0 0 193.0 31.0 A 3 3 0 0 1 190.0 28.0 L 190.0 26.0 A 1 1 0 0 0 189.0 25.0 L 124.2 25.0 L 112.0 25.0 A 5 5 0 0 1 102.0 25.0 L 94.2 25.0 L 25.0 25.0 A 1 1 0 0 0 24.0 26.0 L 24.0 28.0 A 3 3 0 0 1 21.0 31.0 A 1 1 0 0 0 20.0 32.0 L 20.0 129.0 A 1 1 0 0 0 21.0 130.0 A 3 3 0 0 1 24.0 133.0 L 24.0 135.0 A 1 1 0 0 0 25.0 136.0 L 112.0 136.0  M 86.8 78.2 L 86.8 124.2 L 52.2 124.2 L 52.2 78.2 L 86.8 78.2  M 161.8 78.2 L 161.8 124.2 L 127.2 124.2 L 127.2 78.2 L 161.8 78.2 " style="fill-rule: evenodd;"/><g style="fill: none;stroke: #4ca06c;stroke-width: 0.1000;stroke-opacity: 1;stroke-linecap: round;stroke-linejoin: round">
<path d="M25.0000 136.0000 L112.0000 136.0000 "/>
<circle cx="182.0000" cy="124.0000" r="6.1000"/> 
<path d="M25.0000 25.0000 A1.0000 1.0000 0.0 0 0 24.0000 26.0000"/>
<path d="M21.0000 31.0000 A1.0000 1.0000 0.0 0 0 20.0000 32.0000"/>
<path d="M124.2000 25.0000 L189.0000 25.0000 "/>
<path d="M24.0000 133.0000 L24.0000 135.0000 "/>
<path d="M190.0000 26.0000 L190.0000 28.0000 "/>
<path d="M194.0000 32.0000 A1.0000 1.0000 0.0 0 0 193.0000 31.0000"/>
<path d="M20.0000 129.0000 A1.0000 1.0000 0.0 0 0 21.0000 130.0000"/>
<path d="M102.0000 25.0000 A5.0000 5.0000 0.0 0 0 112.0000 25.0000"/>
<path d="M112.0000 136.0000 L189.0000 136.0000 "/>
<circle cx="145.0000" cy="39.0000" r="6.1000"/> 
<path d="M21.0000 31.0000 A3.0000 3.0000 0.0 0 0 24.0000 28.0000"/>
<path d="M94.2000 25.0000 L102.0000 25.0000 "/>
<circle cx="70.0000" cy="39.0000" r="6.1000"/> 
<circle cx="182.0000" cy="72.0000" r="6.1000"/> 
<circle cx="32.0000" cy="124.0000" r="6.1000"/> 
<circle cx="107.0000" cy="72.0000" r="6.1000"/> 
<path d="M194.0000 32.0000 L194.0000 129.0000 "/>
<path d="M189.0000 136.0000 A1.0000 1.0000 0.0 0 0 190.0000 135.0000"/>
<circle cx="32.0000" cy="72.0000" r="6.1000"/> 
<path d="M112.0000 25.0000 L124.2000 25.0000 "/>
<path d="M24.0000 135.0000 A1.0000 1.0000 0.0 0 0 25.0000 136.0000"/>
<path d="M193.0000 130.0000 A1.0000 1.0000 0.0 0 0 194.0000 129.0000"/>
<path d="M190.0000 26.0000 A1.0000 1.0000 0.0 0 0 189.0000 25.0000"/>
<path d="M190.0000 28.0000 A3.0000 3.0000 0.0 0 0 193.0000 31.0000"/>
<path d="M20.0000 129.0000 L20.0000 32.0000 "/>
<path d="M94.2000 25.0000 L25.0000 25.0000 "/>
<path d="M190.0000 133.0000 L190.0000 135.0000 "/>
<path d="M193.0000 130.0000 A3.0000 3.0000 0.0 0 0 190.0000 133.0000"/>
<path d="M24.0000 26.0000 L24.0000 28.0000 "/>
<circle cx="107.0000" cy="124.0000" r="6.1000"/> 
<path d="M24.0000 133.0000 A3.0000 3.0000 0.0 0 0 21.0000 130.0000"/>
<path style="fill: none;stroke: #4ca06c;stroke-width: 0.0500;stroke-opacity: 1;stroke-linecap: round;stroke-linejoin: round" d="M 52.2000,78.2000 86.8000,78.2000 86.8000,124.2000 52.2000,124.2000 Z"/> 
<path style="fill: none;stroke: #4ca06c;stroke-width: 0.0500;stroke-opacity: 1;stroke-linecap: round;stroke-linejoin: round" d="M 127.2000,78.2000 161.8000,78.2000 161.8000,124.2000 127.2000,124.2000 Z"/> 
</g> 
</g></g></g></svg>
